<svg xmlns="http://www.w3.org/2000/svg" xmlns:ev="http://www.w3.org/2001/xml-events" xmlns:xlink="http://www.w3.org/1999/xlink" baseProfile="full" height="10.563995361328125" version="1.1" viewBox="620.4299926757812 387.32000732421875 13.52099609375 10.563995361328125" width="13.52099609375" fill="#00394f">
	<defs/>
	<path class="land" d="M 633.699,388.616 L 633.8829999999999,388.86699999999996 L 633.9089999999999,390.568 L 633.9509999999999,390.68899999999996 L 633.853,390.70699999999994 L 633.7429999999999,390.83599999999996 L 633.6139999999999,391.03499999999997 L 633.4369999999999,391.138 L 633.2949999999998,391.25399999999996 L 633.1609999999998,391.39799999999997 L 633.0409999999998,391.429 L 632.8859999999999,391.246 L 632.7789999999999,391.05899999999997 L 632.8049999999998,391.018 L 632.8799999999999,391.005 L 632.9079999999999,390.908 L 632.8629999999999,390.76800000000003 L 632.7579999999999,390.71500000000003 L 632.626,390.711 L 632.499,390.774 L 632.364,390.898 L 632.288,391.031 L 632.277,391.298 L 632.312,391.598 L 632.311,391.744 L 632.2370000000001,391.925 L 632.2110000000001,392.19100000000003 L 632.2640000000001,392.39700000000005 L 632.3120000000001,392.52000000000004 L 632.3170000000001,392.624 L 632.1910000000001,392.952 L 632.3000000000002,393.014 L 632.6610000000002,393.03700000000003 L 632.7670000000002,393.259 L 632.8390000000002,393.411 L 632.8190000000002,393.501 L 632.5630000000002,393.568 L 632.2410000000002,393.642 L 632.0100000000002,393.621 L 631.5920000000002,393.721 L 631.3690000000003,393.875 L 631.4340000000003,393.971 L 631.5110000000003,394.045 L 631.5460000000003,394.248 L 631.4810000000002,394.536 L 631.3630000000002,394.815 L 631.2160000000001,395.163 L 631.0460000000002,395.562 L 630.8130000000002,396.16200000000003 L 630.6160000000002,396.63300000000004 L 630.5950000000003,396.97200000000004 L 630.6000000000003,397.19300000000004 L 630.5780000000002,397.634 L 630.3910000000002,397.877 L 630.3490000000002,397.884 L 630.1260000000002,397.855 L 630.0510000000002,397.845 L 629.8380000000002,397.817 L 629.5080000000002,397.774 L 629.0790000000002,397.717 L 628.5720000000002,397.651 L 628.0070000000002,397.576 L 627.4030000000001,397.49600000000004 L 626.7780000000001,397.41400000000004 L 626.1540000000001,397.33200000000005 L 625.5490000000001,397.25200000000007 L 624.984,397.17800000000005 L 624.4770000000001,397.11100000000005 L 624.0490000000001,397.05400000000003 L 623.719,397.011 L 623.5060000000001,396.983 L 623.431,396.973 L 623.195,396.942 L 623.0680000000001,396.778 L 622.9140000000001,396.58000000000004 L 622.7590000000001,396.38100000000003 L 622.6050000000001,396.182 L 622.4510000000001,395.983 L 622.2970000000001,395.784 L 622.1430000000001,395.585 L 621.9890000000001,395.38599999999997 L 621.8350000000002,395.18699999999995 L 621.6810000000002,394.98699999999997 L 621.5270000000002,394.78799999999995 L 621.3720000000002,394.58799999999997 L 621.2180000000002,394.388 L 621.0640000000002,394.188 L 620.9100000000002,393.988 L 620.7560000000002,393.788 L 620.6020000000002,393.588 L 620.4980000000002,393.454 L 620.4410000000001,393.303 L 620.4300000000002,392.907 L 620.4300000000002,392.82 L 620.5340000000002,392.65999999999997 L 620.5840000000002,392.77399999999994 L 620.7000000000002,392.9289999999999 L 620.8970000000002,392.8909999999999 L 620.9890000000001,392.9169999999999 L 621.0570000000001,393.4659999999999 L 621.2020000000001,393.6609999999999 L 621.3780000000002,393.73899999999986 L 621.9750000000001,393.78199999999987 L 622.3460000000001,393.70799999999986 L 623.0770000000001,393.34999999999985 L 623.4610000000001,393.22099999999983 L 624.5230000000001,393.2429999999998 L 625.3740000000001,393.3919999999998 L 626.6990000000002,393.47999999999985 L 626.9560000000001,393.4569999999998 L 627.6710000000002,393.1689999999998 L 628.1090000000002,392.9149999999998 L 628.3700000000001,392.8419999999998 L 628.5420000000001,392.59599999999983 L 628.6550000000002,392.27599999999984 L 628.7560000000002,392.06699999999984 L 628.8850000000002,391.9669999999998 L 629.0070000000002,391.7889999999998 L 629.1060000000002,391.49999999999983 L 629.3520000000002,391.20799999999986 L 630.3380000000002,390.49699999999984 L 630.9140000000002,389.89499999999987 L 630.9650000000003,389.6999999999999 L 631.2780000000002,389.4079999999999 L 631.5290000000002,389.0879999999999 L 632.7040000000002,388.1719999999999 L 632.9390000000002,387.7929999999999 L 633.0780000000002,387.3679999999999 L 633.0950000000003,387.3379999999999 L 633.1960000000003,387.31999999999994 L 633.3400000000003,387.38399999999996 L 633.3550000000002,387.70199999999994 L 633.3020000000002,388.00199999999995 L 633.2960000000003,388.31999999999994 L 633.2750000000003,388.49199999999996 L 633.3840000000004,388.633 L 633.5700000000004,388.69399999999996 L 633.6510000000004,388.68699999999995 L 633.699,388.616 M 633.653,389.899 L 633.6700000000001,389.766 L 633.6410000000001,389.697 L 633.5210000000001,389.688 L 633.4710000000001,389.803 L 633.4540000000001,389.968 L 633.537,389.982 L 633.653,389.899 M 628.557,392.337 L 628.532,392.397 L 628.4530000000001,392.392 L 628.2550000000001,392.338 L 628.1910000000001,392.252 L 628.3150000000002,392.149 L 628.3700000000001,392.144 L 628.4490000000001,392.252 L 628.557,392.337 M 625.376,392.901 L 625.168,392.918 L 624.98,392.802 L 625.3770000000001,392.64700000000005 L 625.484,392.57700000000006 L 625.6,392.4340000000001 L 625.693,392.5570000000001 L 625.59,392.75000000000006 L 625.517,392.8330000000001 L 625.376,392.901 M 623.368,392.81 L 623.321,392.832 L 623.2710000000001,392.667 L 623.2740000000001,392.61499999999995 L 623.4030000000001,392.53999999999996 L 623.4820000000001,392.67499999999995 L 623.368,392.81 M 627.047,393.15 L 627.048,393.25399999999996 L 626.763,393.224 L 626.687,393.27799999999996 L 626.453,393.248 L 626.2239999999999,393.173 L 626.3789999999999,393.048 L 626.7829999999999,392.901 L 626.9509999999999,393.035 L 627.047,393.15" id="AE" title="United Arab Emirates"/>
</svg>
