<svg xmlns="http://www.w3.org/2000/svg" xmlns:ev="http://www.w3.org/2001/xml-events" xmlns:xlink="http://www.w3.org/1999/xlink" baseProfile="full" height="30.5780029296875" version="1.1" viewBox="645.4520263671875 346.2569885253906 40.428955078125 30.5780029296875" width="40.428955078125">
	<defs/>
	<path class="land" d="M 685.881,350.592 L 685.737,350.615 L 685.533,350.531 L 685.453,350.403 L 685.419,350.385 L 685.257,350.469 L 684.948,350.575 L 684.424,350.852 L 684.436,350.923 L 684.777,351.204 L 684.857,351.297 L 684.899,351.326 L 684.59,351.461 L 683.926,351.765 L 683.489,352.013 L 683.385,352.022 L 683.121,351.918 L 682.731,351.794 L 682.627,351.796 L 681.727,351.817 L 680.9,351.863 L 680.556,351.923 L 679.917,351.98 L 679.515,352.0 L 679.258,352.096 L 678.977,352.222 L 678.685,352.304 L 678.468,352.331 L 678.207,352.449 L 678.035,352.683 L 677.544,353.029 L 677.268,353.196 L 677.129,353.385 L 676.971,353.403 L 676.701,353.369 L 676.492,353.573 L 676.261,353.865 L 675.838,354.288 L 675.613,354.459 L 675.479,354.735 L 675.578,354.878 L 675.922,355.092 L 676.076,355.294 L 676.16,355.454 L 676.317,355.864 L 676.417,356.267 L 676.565,356.441 L 676.608,356.736 L 676.646,356.917 L 676.565,357.046 L 676.491,357.189 L 676.491,357.325 L 676.58,357.465 L 676.658,357.589 L 676.701,357.688 L 676.648,357.798 L 676.491,357.966 L 676.411,358.138 L 676.237,358.425 L 675.965,358.621 L 675.785,358.763 L 675.594,359.063 L 675.278,359.396 L 675.145,359.674 L 675.006,359.827 L 674.863,359.909 L 674.9,360.059 L 675.024,360.246 L 675.229,360.455 L 675.22,360.78 L 675.21,361.014 L 675.217,361.297 L 675.105,361.535 L 674.535,361.763 L 673.989,361.863 L 673.32,361.869 L 673.067,361.833 L 672.865,361.783 L 672.139,361.527 L 671.844,361.678 L 671.783,362.047 L 672.313,362.645 L 672.53,362.978 L 672.771,363.534 L 672.951,363.82 L 672.887,364.088 L 672.407,364.392 L 671.93,364.677 L 671.322,364.736 L 670.94,364.838 L 670.755,364.985 L 670.619,365.608 L 670.482,365.836 L 670.485,366.107 L 670.356,366.414 L 670.161,366.611 L 670.024,366.933 L 670.067,367.542 L 670.131,368.572 L 669.872,368.896 L 669.58,369.224 L 669.272,369.458 L 668.979,369.566 L 668.736,369.526 L 668.544,369.324 L 668.43,369.154 L 668.218,369.012 L 668.002,369.041 L 667.785,369.171 L 667.438,369.128 L 667.142,368.998 L 666.992,369.012 L 666.906,369.143 L 666.589,369.423 L 665.811,369.848 L 665.493,369.879 L 665.357,369.985 L 665.411,370.159 L 665.55,370.301 L 665.793,370.401 L 665.805,370.517 L 665.591,370.618 L 665.408,370.733 L 665.005,370.874 L 664.54,370.929 L 664.06,370.847 L 663.813,370.66 L 663.521,370.642 L 663.255,370.779 L 662.98,371.005 L 662.68,371.489 L 662.6,371.574 L 662.519,371.651 L 662.323,371.755 L 662.042,371.925 L 661.901,372.281 L 661.732,372.914 L 661.772,373.254 L 661.785,373.843 L 661.719,374.256 L 661.597,374.527 L 661.621,374.74 L 661.807,374.982 L 661.732,375.139 L 661.576,375.313 L 661.425,375.41 L 660.82,375.593 L 659.991,375.842 L 659.443,376.002 L 658.628,376.24 L 658.39,376.298 L 657.894,376.319 L 657.637,376.283 L 657.289,376.273 L 656.777,376.282 L 656.42,376.347 L 656.062,376.466 L 655.798,376.616 L 655.646,376.764 L 655.592,376.835 L 655.233,376.713 L 654.102,376.495 L 651.039,376.783 L 650.75,376.728 L 649.705,376.391 L 648.358,375.957 L 647.525,375.688 L 646.456,375.336 L 647.188,374.466 L 647.826,373.706 L 648.466,372.942 L 649.096,372.187 L 649.171,371.922 L 649.181,371.403 L 649.015,370.708 L 648.748,370.391 L 647.867,370.263 L 647.206,370.166 L 646.485,370.061 L 646.393,370.022 L 646.311,369.479 L 646.346,369.237 L 646.299,368.768 L 646.306,368.406 L 646.41,367.811 L 646.416,367.542 L 646.083,366.381 L 645.897,365.736 L 645.707,365.069 L 645.666,364.856 L 645.662,364.593 L 646.104,363.973 L 646.241,363.838 L 646.5,363.529 L 646.662,363.364 L 646.634,363.251 L 646.352,363.186 L 645.926,363.18 L 645.699,363.086 L 645.522,362.917 L 645.452,362.671 L 645.568,362.234 L 645.452,361.383 L 645.689,360.961 L 645.893,360.666 L 646.585,360.624 L 646.345,360.29 L 646.229,360.096 L 646.155,360.04 L 646.127,359.951 L 646.164,359.861 L 646.341,359.827 L 646.461,359.715 L 646.656,359.558 L 646.758,359.49 L 646.776,359.299 L 646.869,359.165 L 647.009,358.996 L 647.12,358.804 L 647.092,358.579 L 647.194,358.309 L 647.241,358.139 L 647.315,357.992 L 647.25,357.778 L 647.194,357.597 L 647.176,357.382 L 647.287,357.325 L 647.427,357.246 L 647.454,357.076 L 647.528,356.861 L 647.584,356.69 L 647.677,356.555 L 647.687,356.418 L 647.631,356.191 L 647.862,356.157 L 647.955,356.282 L 648.079,356.444 L 648.418,356.746 L 648.638,356.834 L 648.915,356.878 L 649.256,356.837 L 649.528,356.78 L 649.656,356.795 L 649.953,357.014 L 650.3,357.321 L 650.411,357.458 L 650.463,357.667 L 650.565,357.729 L 650.787,357.522 L 651.001,357.454 L 651.198,357.493 L 651.415,357.516 L 651.633,357.44 L 651.73,357.385 L 652.109,357.117 L 652.453,356.913 L 652.667,356.788 L 652.744,356.368 L 652.843,356.129 L 652.984,355.99 L 652.932,355.817 L 652.873,355.685 L 652.813,355.506 L 652.873,355.411 L 653.01,355.369 L 653.354,355.369 L 653.959,355.18 L 654.463,354.991 L 654.929,354.837 L 655.141,354.812 L 655.342,354.838 L 655.434,354.793 L 655.459,354.646 L 655.573,354.491 L 655.832,354.365 L 656.319,354.098 L 656.749,353.701 L 656.902,353.399 L 657.006,352.958 L 657.207,352.276 L 657.429,351.527 L 657.511,351.196 L 657.605,350.941 L 657.985,350.726 L 658.373,350.57 L 658.974,350.539 L 659.679,350.523 L 659.828,350.112 L 659.921,349.762 L 660.038,349.581 L 660.209,349.434 L 660.269,349.405 L 660.649,349.62 L 661.232,349.949 L 661.911,350.113 L 662.252,350.195 L 662.394,350.182 L 663.251,350.102 L 663.928,350.23 L 664.283,350.58 L 664.632,350.669 L 664.974,350.5 L 665.186,350.469 L 665.268,350.578 L 665.438,350.624 L 665.698,350.607 L 665.848,350.704 L 665.864,350.801 L 665.884,350.913 L 666.076,351.179 L 666.423,351.502 L 666.731,351.58 L 667.136,351.329 L 667.273,351.358 L 667.34,351.277 L 667.381,351.094 L 667.626,350.922 L 668.074,350.761 L 668.328,350.617 L 668.419,350.498 L 668.57,350.464 L 668.735,350.5 L 668.853,350.455 L 668.894,350.342 L 668.941,350.293 L 669.025,350.253 L 669.1,350.233 L 669.236,350.264 L 669.487,350.47 L 669.853,350.85 L 670.091,351.024 L 670.2,350.995 L 670.34,350.878 L 670.511,350.676 L 670.553,350.384 L 670.468,350.003 L 670.526,349.695 L 670.729,349.461 L 671.104,349.317 L 671.651,349.262 L 671.987,349.295 L 672.111,349.416 L 672.279,349.482 L 672.49,349.495 L 672.684,349.358 L 672.859,349.069 L 672.869,348.712 L 672.714,348.285 L 672.756,348.149 L 672.823,348.09 L 673.033,347.935 L 673.326,347.614 L 673.609,347.2 L 673.882,346.692 L 674.219,346.378 L 674.62,346.257 L 675.106,346.395 L 675.679,346.791 L 675.894,347.277 L 675.754,347.854 L 675.742,348.17 L 675.858,348.229 L 676.054,348.213 L 676.329,348.123 L 676.509,348.118 L 676.594,348.2 L 676.589,348.362 L 676.493,348.605 L 676.378,349.286 L 676.307,349.874 L 676.236,350.451 L 676.175,350.957 L 676.284,351.351 L 676.45,351.945 L 676.637,352.337 L 676.828,352.462 L 677.02,352.507 L 677.211,352.472 L 677.604,352.22 L 678.197,351.752 L 678.773,351.464 L 679.611,351.302 L 679.892,350.799 L 680.28,350.466 L 681.166,349.971 L 681.647,349.781 L 681.924,349.749 L 682.27,349.838 L 682.349,349.87 L 682.417,349.894 L 682.596,349.935 L 682.633,350.086 L 682.586,350.249 L 682.395,350.383 L 682.334,350.487 L 682.407,350.565 L 682.677,350.592 L 683.236,350.411 L 683.598,350.295 L 683.849,350.249 L 683.95,350.098 L 684.108,349.946 L 684.359,349.935 L 684.628,350.016 L 684.851,350.063 L 685.23,350.02 L 685.43,350.152 L 685.71,350.401 L 685.881,350.592" id="AF" title="Afghanistan"/>
</svg>
