<svg xmlns="http://www.w3.org/2000/svg" xmlns:ev="http://www.w3.org/2001/xml-events" xmlns:xlink="http://www.w3.org/1999/xlink" baseProfile="full" height="11.121002197265625" version="1.1" viewBox="529.8109741210938 330.8269958496094 4.91204833984375 11.121002197265625" width="4.91204833984375" fill="#00394f">
	<defs/>
	<path class="land" d="M 532.009,331.209 L 532.12,331.295 L 532.351,331.669 L 532.504,331.999 L 532.807,332.113 L 532.975,332.241 L 533.192,332.436 L 533.296,332.631 L 533.444,333.228 L 533.461,333.588 L 533.418,333.752 L 533.382,333.795 L 533.247,334.379 L 533.279,334.676 L 533.278,334.872 L 533.164,334.949 L 533.088,335.072 L 533.211,335.556 L 533.196,335.763 L 533.202,335.999 L 533.423,336.537 L 533.554,336.703 L 533.67,336.782 L 533.82,337.276 L 533.908,337.361 L 534.271,337.314 L 534.449,337.369 L 534.52,337.486 L 534.536,337.566 L 534.512,337.842 L 534.602,338.054 L 534.723,338.272 L 534.723,338.405 L 534.641,338.623 L 534.496,338.876 L 534.304,338.974 L 534.092,339.056 L 533.99,339.253 L 533.939,339.462 L 533.844,339.617 L 533.786,339.787 L 533.695,340.133 L 533.674,340.258 L 533.531,340.385 L 533.309,340.437 L 533.109,340.448 L 532.975,340.507 L 532.906,340.625 L 532.779,340.72 L 532.703,340.762 L 532.703,340.867 L 532.795,341.086 L 532.9,341.264 L 532.903,341.406 L 532.851,341.446 L 532.688,341.428 L 532.654,341.48 L 532.636,341.64 L 532.593,341.775 L 532.526,341.858 L 532.41,341.948 L 532.197,341.919 L 531.997,341.783 L 531.893,341.741 L 531.833,341.745 L 531.817,341.412 L 531.73,341.153 L 531.414,340.528 L 530.383,339.92 L 530.14,339.646 L 530.034,339.415 L 529.927,339.197 L 530.029,339.191 L 530.13,339.246 L 530.259,339.313 L 530.312,339.204 L 530.256,338.965 L 529.99,338.407 L 529.97,338.253 L 530.1,337.785 L 530.317,337.258 L 530.303,336.618 L 530.37,336.133 L 530.295,335.818 L 530.259,335.432 L 530.418,334.917 L 530.555,334.79 L 530.639,334.626 L 530.644,334.076 L 530.337,333.818 L 529.984,333.77 L 529.992,333.583 L 530.036,333.286 L 530.011,333.187 L 530.037,333.017 L 529.951,332.791 L 529.811,332.627 L 529.946,332.338 L 530.144,331.987 L 530.328,331.709 L 530.551,331.419 L 530.7,331.141 L 530.859,330.9 L 530.997,330.827 L 531.065,330.878 L 531.102,330.983 L 531.093,331.293 L 531.14,331.4 L 531.235,331.479 L 531.436,331.44 L 531.658,331.363 L 531.958,331.199 L 532.009,331.209" id="AL" title="Albania"/>
</svg>
