<svg xmlns="http://www.w3.org/2000/svg" xmlns:ev="http://www.w3.org/2001/xml-events" xmlns:xlink="http://www.w3.org/1999/xlink" baseProfile="full" height="8.85101318359375" version="1.1" viewBox="597.6099853515625 335.92999267578125 8.82598876953125 8.85101318359375" width="8.82598876953125" fill="#00394f">
	<defs/>
	<path class="land" d="M 606.175,344.646 L 605.6899999999999,344.625 L 605.276,344.781 L 605.12,344.75 L 605.016,344.473 L 604.9269999999999,344.248 L 604.6629999999999,343.669 L 604.7339999999999,343.43199999999996 L 604.5869999999999,343.29499999999996 L 604.2329999999998,343.04799999999994 L 604.1419999999998,342.94599999999997 L 604.1919999999998,342.80499999999995 L 604.2269999999997,342.54799999999994 L 604.1929999999998,342.3399999999999 L 604.0969999999998,342.27699999999993 L 603.9199999999997,342.2729999999999 L 603.7049999999997,342.32499999999993 L 603.2729999999997,342.52599999999995 L 602.9729999999997,342.39799999999997 L 602.7999999999997,342.26899999999995 L 602.6989999999997,342.16099999999994 L 602.4739999999997,342.2509999999999 L 602.4189999999998,342.2079999999999 L 602.4069999999998,341.93999999999994 L 602.3389999999998,341.79499999999996 L 602.2039999999998,341.626 L 602.0779999999999,341.54499999999996 L 601.6169999999998,341.71199999999993 L 601.3399999999998,341.76899999999995 L 601.2429999999998,341.61299999999994 L 600.7559999999999,341.09899999999993 L 600.3049999999998,340.70399999999995 L 599.9949999999999,340.54099999999994 L 599.6829999999999,340.55799999999994 L 599.1989999999998,340.63699999999994 L 599.0209999999998,340.6039999999999 L 598.5989999999998,340.4319999999999 L 598.2469999999998,340.2269999999999 L 598.2949999999998,340.14199999999994 L 598.3689999999998,340.0799999999999 L 598.2799999999997,339.81299999999993 L 598.0839999999997,339.3829999999999 L 598.1049999999997,339.24799999999993 L 598.0429999999997,339.06199999999995 L 597.9749999999997,338.92099999999994 L 598.2509999999996,338.58399999999995 L 598.3769999999996,338.31299999999993 L 598.4049999999996,338.04799999999994 L 598.3309999999997,337.77299999999997 L 598.1489999999997,337.27399999999994 L 598.0369999999997,337.12899999999996 L 597.8289999999997,336.99299999999994 L 597.6539999999998,336.77099999999996 L 597.6099999999998,336.614 L 597.7569999999998,336.58299999999997 L 598.1859999999998,336.57899999999995 L 598.6019999999999,336.525 L 598.9279999999999,336.421 L 599.3999999999999,336.334 L 599.5939999999998,336.25600000000003 L 599.8209999999998,336.21900000000005 L 600.5099999999998,336.3020000000001 L 600.7679999999998,336.23800000000006 L 601.5439999999998,336.22600000000006 L 601.5639999999997,336.19300000000004 L 601.4589999999997,336.08700000000005 L 601.4599999999997,336.047 L 601.9219999999997,335.98 L 601.9939999999997,335.93 L 602.0539999999996,336.098 L 602.2279999999996,336.285 L 602.4169999999996,336.36 L 602.5189999999996,336.463 L 602.5239999999995,336.541 L 602.1889999999995,336.636 L 602.1659999999995,336.68300000000005 L 602.1879999999995,336.72900000000004 L 602.2879999999996,336.75200000000007 L 602.7579999999996,336.98600000000005 L 603.0259999999996,336.99100000000004 L 603.1669999999996,337.06200000000007 L 603.2369999999996,337.20200000000006 L 603.4609999999997,337.39200000000005 L 603.6399999999996,337.5760000000001 L 603.6509999999996,337.63900000000007 L 603.6169999999996,337.7320000000001 L 603.1169999999996,338.09100000000007 L 603.0539999999996,338.2150000000001 L 603.0459999999996,338.34600000000006 L 603.2649999999996,338.73500000000007 L 603.5879999999996,339.15900000000005 L 604.0539999999996,339.48100000000005 L 604.6969999999997,339.83000000000004 L 604.7049999999997,340.04600000000005 L 604.6029999999997,340.302 L 604.5159999999997,340.476 L 604.4759999999998,340.594 L 604.3979999999998,340.643 L 603.7579999999998,340.63199999999995 L 603.6619999999998,340.6739999999999 L 603.6199999999998,340.72399999999993 L 603.6169999999997,340.7659999999999 L 603.8469999999998,340.8439999999999 L 604.2059999999998,341.1169999999999 L 604.4129999999998,341.3819999999999 L 604.6279999999998,341.4979999999999 L 604.8689999999998,341.7089999999999 L 605.0619999999998,341.9049999999999 L 605.3629999999998,342.15899999999993 L 605.6979999999999,342.0759999999999 L 606.1459999999998,342.3019999999999 L 606.1649999999998,342.4549999999999 L 606.1369999999998,342.5919999999999 L 605.8549999999998,342.74099999999993 L 605.8199999999998,342.80299999999994 L 605.8199999999998,342.85499999999996 L 605.8569999999999,342.92799999999994 L 606.0219999999998,343.04999999999995 L 606.2169999999999,343.23099999999994 L 606.4359999999999,343.5009999999999 L 606.338,343.58199999999994 L 606.1329999999999,343.59399999999994 L 605.9739999999999,343.5609999999999 L 605.9179999999999,343.61599999999993 L 605.9209999999999,343.70399999999995 L 606.1289999999999,343.90899999999993 L 606.17,344.05799999999994 L 606.161,344.31699999999995 L 606.175,344.646 M 602.058,336.91 L 602.072,336.81100000000004 L 602.051,336.72200000000004 L 601.976,336.694 L 601.884,336.71700000000004 L 601.8770000000001,336.81600000000003 L 601.9050000000001,336.91 L 601.998,336.952 L 602.058,336.91 M 603.542,338.429 L 603.4350000000001,338.48999999999995 L 603.335,338.46299999999997 L 603.335,338.311 L 603.407,338.25 L 603.49,338.253 L 603.569,338.308 L 603.542,338.429" id="AM" title="Armenia"/>
</svg>
