<svg xmlns="http://www.w3.org/2000/svg" xmlns:ev="http://www.w3.org/2001/xml-events" xmlns:xlink="http://www.w3.org/1999/xlink" baseProfile="full" height="38.73699951171875" version="1.1" viewBox="508.6470031738281 475.02899169921875 34.538970947265625 38.73699951171875" width="34.538970947265625" fill="#00394f">
	<defs/>
	<path class="land" d="M 512.388,475.605 L 512.345,475.65000000000003 L 512.037,475.77400000000006 L 511.706,475.89000000000004 L 511.271,476.362 L 511.051,476.56600000000003 L 510.98699999999997,476.617 L 510.78799999999995,476.73 L 510.64399999999995,476.827 L 510.64899999999994,476.88 L 510.74499999999995,476.942 L 510.84299999999996,477.044 L 510.83299999999997,477.815 L 510.791,478.575 L 510.737,478.639 L 510.461,478.664 L 510.094,478.717 L 509.977,478.751 L 509.936,478.676 L 509.813,478.39799999999997 L 509.882,478.13399999999996 L 509.956,477.93699999999995 L 509.873,477.53599999999994 L 509.686,477.1789999999999 L 509.488,476.72599999999994 L 509.427,476.63899999999995 L 509.594,476.49299999999994 L 509.84499999999997,476.17299999999994 L 509.95,476.00699999999995 L 510.241,475.96999999999997 L 510.349,475.854 L 510.426,475.668 L 510.45599999999996,475.56 L 510.78399999999993,475.472 L 511.17799999999994,475.315 L 511.39599999999996,475.143 L 511.61699999999996,475.03299999999996 L 511.75699999999995,475.02899999999994 L 511.84899999999993,475.07399999999996 L 512.102,475.37199999999996 L 512.317,475.55999999999995 L 512.388,475.605 M 542.961,493.164 L 543.023,493.536 L 543.0840000000001,494.053 L 543.1270000000001,494.425 L 543.171,494.592 L 543.186,494.681 L 543.1370000000001,494.777 L 543.097,495.0 L 543.018,495.198 L 542.974,495.33599999999996 L 543.0110000000001,495.59 L 542.9810000000001,495.95399999999995 L 542.9500000000002,496.33899999999994 L 542.9400000000002,496.7099999999999 L 543.0450000000002,497.3739999999999 L 543.0300000000002,497.5779999999999 L 542.8990000000002,497.92599999999993 L 542.8000000000002,498.18999999999994 L 542.7360000000002,498.4959999999999 L 542.7240000000003,498.65599999999995 L 542.9640000000003,499.10799999999995 L 542.9500000000003,499.1979999999999 L 542.7660000000003,499.22599999999994 L 542.6140000000003,499.2339999999999 L 542.0320000000003,499.2339999999999 L 541.1980000000003,499.2339999999999 L 540.3640000000004,499.2339999999999 L 539.5300000000004,499.2339999999999 L 538.7630000000004,499.2339999999999 L 538.0290000000003,499.2339999999999 L 537.3820000000003,499.2339999999999 L 537.3820000000003,499.67999999999995 L 537.3820000000003,500.59999999999997 L 537.3820000000003,501.52099999999996 L 537.3820000000003,502.443 L 537.3820000000003,503.36699999999996 L 537.3820000000003,504.292 L 537.3820000000003,505.21799999999996 L 537.3820000000003,506.145 L 537.3820000000003,507.07399999999996 L 537.3820000000003,507.74499999999995 L 537.5510000000003,508.63699999999994 L 537.8610000000002,509.6089999999999 L 537.9820000000002,509.6989999999999 L 538.2940000000002,509.8779999999999 L 538.7270000000002,510.24399999999986 L 538.9700000000003,510.52099999999984 L 539.4640000000003,511.00199999999984 L 540.1210000000003,511.6159999999998 L 540.7540000000004,512.1669999999998 L 541.3130000000003,512.6529999999998 L 540.4360000000004,512.8239999999998 L 539.1890000000004,513.0659999999998 L 538.3480000000004,513.2299999999998 L 537.3270000000005,513.4289999999997 L 536.6470000000005,513.5539999999997 L 535.8000000000005,513.7089999999997 L 535.6650000000005,513.7059999999997 L 535.4380000000006,513.5989999999997 L 534.9480000000005,513.5779999999997 L 534.3720000000005,513.7259999999998 L 533.9150000000005,513.7659999999997 L 533.5770000000006,513.6979999999998 L 533.2470000000005,513.5689999999997 L 532.9250000000005,513.3779999999997 L 532.3680000000005,513.3079999999997 L 531.5750000000005,513.3599999999997 L 530.8110000000005,513.3229999999996 L 530.0750000000005,513.1969999999997 L 529.5490000000005,513.1469999999997 L 529.2320000000005,513.1739999999998 L 528.8920000000005,513.1329999999997 L 528.5290000000005,513.0239999999997 L 528.2260000000005,512.8389999999997 L 527.8620000000004,512.4489999999997 L 527.5770000000005,512.0769999999998 L 527.5030000000005,512.0239999999998 L 527.4130000000005,511.96699999999976 L 527.3240000000004,511.94999999999976 L 526.5160000000004,511.93999999999977 L 525.7490000000004,511.93099999999976 L 525.3100000000004,511.9299999999998 L 524.2360000000004,511.9289999999998 L 523.1620000000005,511.9279999999998 L 522.0880000000005,511.9259999999998 L 521.0140000000006,511.92499999999984 L 519.9400000000006,511.92299999999983 L 518.8660000000007,511.92199999999985 L 517.7920000000007,511.91999999999985 L 516.7180000000008,511.91899999999987 L 516.1480000000007,511.9179999999999 L 515.6180000000007,511.94799999999987 L 515.0330000000007,511.97999999999985 L 514.9490000000008,511.96599999999984 L 514.8100000000007,511.9209999999998 L 514.7150000000007,511.8389999999998 L 514.4000000000007,511.6279999999998 L 514.1260000000007,511.4679999999998 L 513.7530000000006,511.1979999999998 L 513.5120000000006,510.9029999999998 L 513.3090000000007,510.8089999999998 L 512.9500000000006,510.7559999999998 L 512.6800000000006,510.7039999999998 L 512.4600000000006,510.6919999999998 L 512.0730000000007,510.8309999999998 L 511.7810000000007,510.96899999999977 L 511.57300000000066,511.10199999999975 L 511.21200000000067,511.25399999999973 L 510.9080000000007,511.4059999999997 L 510.3780000000007,511.38599999999974 L 510.2630000000007,511.40799999999973 L 509.9680000000007,511.39799999999974 L 509.6900000000007,511.26499999999976 L 509.4080000000007,511.27699999999976 L 509.0950000000007,511.44599999999974 L 508.64700000000073,511.5119999999997 L 508.7510000000007,510.4089999999997 L 508.8600000000007,509.9219999999997 L 508.8630000000007,509.3399999999997 L 508.79900000000066,507.8359999999997 L 508.72200000000066,507.6289999999997 L 508.67000000000064,507.38699999999966 L 508.9470000000006,507.20299999999963 L 509.08800000000065,507.0619999999996 L 509.2790000000006,506.8129999999996 L 509.41500000000065,506.4639999999996 L 509.57500000000067,505.69599999999963 L 510.15700000000066,503.93299999999965 L 510.4330000000007,502.20999999999964 L 510.7830000000007,501.3959999999996 L 510.91400000000067,500.48399999999964 L 511.88800000000066,499.3089999999996 L 512.1280000000006,498.5879999999996 L 512.6320000000006,498.2349999999996 L 513.3450000000006,497.85899999999964 L 513.8530000000006,497.18999999999966 L 514.0990000000006,496.72699999999963 L 514.3790000000006,495.83999999999963 L 514.3760000000005,494.9149999999996 L 514.5540000000005,493.6819999999996 L 514.5150000000006,493.32799999999963 L 514.2490000000006,492.8379999999996 L 514.2000000000006,492.4879999999996 L 513.9530000000007,492.1439999999996 L 513.6890000000006,491.8839999999996 L 513.5650000000006,491.4199999999996 L 513.1070000000007,490.6889999999996 L 512.9820000000007,490.2019999999996 L 512.7630000000006,489.8519999999996 L 512.7280000000006,489.4209999999996 L 512.6130000000006,488.9649999999996 L 512.3890000000006,488.5149999999996 L 512.18,488.0 L 512.18,487.839 L 512.3159999999999,487.645 L 512.4449999999999,487.582 L 512.4019999999999,487.68 L 512.3159999999999,487.795 L 512.3369999999999,487.884 L 513.1929999999999,486.982 L 513.2469999999998,486.80600000000004 L 513.2179999999998,486.60900000000004 L 513.2139999999998,486.36800000000005 L 513.2479999999998,486.0880000000001 L 512.4399999999998,484.4270000000001 L 511.7989999999998,482.8850000000001 L 511.6899999999998,482.1060000000001 L 510.8419999999998,481.0830000000001 L 510.5079999999998,480.41800000000006 L 510.3179999999998,479.95200000000006 L 510.17499999999984,479.77600000000007 L 510.2289999999998,479.68700000000007 L 510.44699999999983,479.66400000000004 L 510.9329999999998,479.55600000000004 L 511.5989999999998,479.43800000000005 L 512.2139999999998,479.16800000000006 L 512.3779999999998,479.04800000000006 L 512.7039999999998,479.02400000000006 L 513.0359999999998,479.09600000000006 L 513.1589999999999,479.04400000000004 L 513.2289999999999,479.04 L 514.0079999999999,479.04 L 514.3319999999999,479.02200000000005 L 514.9329999999999,479.02700000000004 L 515.3119999999999,479.04900000000004 L 515.5279999999999,479.079 L 516.1109999999999,479.12600000000003 L 516.8389999999998,479.115 L 517.0959999999998,479.091 L 518.0499999999997,479.075 L 518.9919999999997,479.05899999999997 L 519.8389999999997,479.04499999999996 L 520.7749999999997,479.04799999999994 L 521.4909999999998,479.04999999999995 L 521.8169999999998,479.14699999999993 L 522.1129999999998,479.33099999999996 L 522.2479999999998,479.49799999999993 L 522.3119999999998,479.57199999999995 L 522.3999999999997,479.74799999999993 L 522.5619999999998,479.8879999999999 L 522.6199999999998,480.1039999999999 L 522.5729999999998,480.39699999999993 L 522.5959999999998,480.74999999999994 L 522.6899999999998,481.1619999999999 L 522.8869999999998,481.59399999999994 L 523.1849999999998,482.04799999999994 L 523.3149999999998,482.40799999999996 L 523.2759999999998,482.67499999999995 L 523.3679999999998,482.95699999999994 L 523.5899999999998,483.25399999999996 L 523.7519999999998,483.41099999999994 L 523.8459999999999,483.53 L 524.0979999999998,483.986 L 524.5649999999998,484.714 L 524.9149999999998,485.26 L 525.0379999999999,485.325 L 525.2169999999999,485.30199999999996 L 525.5969999999999,485.248 L 525.9729999999998,485.23699999999997 L 526.2419999999998,485.349 L 526.3499999999998,485.33 L 526.7549999999998,485.113 L 527.1569999999998,485.047 L 527.5769999999998,484.95700000000005 L 527.7959999999998,484.86500000000007 L 528.0509999999998,484.86500000000007 L 528.7379999999998,485.0400000000001 L 528.8679999999998,485.0490000000001 L 529.4239999999999,485.0490000000001 L 529.9799999999999,484.9510000000001 L 530.0619999999999,484.21900000000005 L 530.0669999999999,484.07400000000007 L 530.2009999999999,483.7990000000001 L 530.3709999999999,483.5590000000001 L 530.3919999999998,483.3300000000001 L 530.3819999999998,483.0170000000001 L 530.5049999999999,482.6380000000001 L 530.8779999999999,482.33600000000007 L 531.4809999999999,482.1930000000001 L 531.8239999999998,482.1650000000001 L 532.3649999999999,482.0810000000001 L 533.185,481.9960000000001 L 533.4879999999999,482.0070000000001 L 533.512,482.0500000000001 L 533.338,482.5740000000001 L 533.3349999999999,482.7450000000001 L 533.3979999999999,482.9180000000001 L 533.5369999999999,483.0120000000001 L 534.3879999999999,483.0220000000001 L 535.1719999999999,483.0320000000001 L 536.0709999999999,483.0650000000001 L 536.7449999999999,483.0890000000001 L 536.8309999999999,483.1150000000001 L 536.8989999999999,483.1540000000001 L 536.9989999999999,483.4140000000001 L 536.9769999999999,483.9220000000001 L 536.8269999999999,484.6640000000001 L 536.8849999999999,485.3580000000001 L 537.1519999999999,486.00400000000013 L 537.179,486.9970000000001 L 537.0849999999999,487.59000000000015 L 536.9659999999999,488.33800000000014 L 536.9199999999998,489.1870000000001 L 537.0419999999998,489.54200000000014 L 537.2999999999998,489.9130000000001 L 537.6939999999998,490.30200000000013 L 537.9989999999998,490.8050000000001 L 538.2149999999998,491.42400000000015 L 538.2929999999998,491.81400000000014 L 538.2349999999998,491.97500000000014 L 538.2389999999998,492.25300000000016 L 538.3059999999998,492.64900000000017 L 538.2309999999998,492.91200000000015 L 538.0149999999998,493.04100000000017 L 537.9429999999998,493.21900000000016 L 538.0519999999998,493.56100000000015 L 538.0789999999998,493.8720000000001 L 538.1639999999999,493.99100000000016 L 538.2259999999999,494.07700000000017 L 538.3279999999999,494.09000000000015 L 538.5469999999999,493.97900000000016 L 538.8089999999999,493.77200000000016 L 539.0189999999999,493.6850000000002 L 539.3149999999999,493.6960000000002 L 539.731,493.7550000000002 L 540.465,493.77600000000024 L 540.691,493.73900000000026 L 541.374,493.46000000000026 L 541.553,493.43900000000025 L 541.823,493.46500000000026 L 542.206,493.5480000000003 L 542.592,493.5650000000003 L 542.78,493.47900000000027 L 542.797,493.36600000000027 L 542.857,493.2190000000003 L 542.961,493.164" id="AO" title="Angola"/>
</svg>
