<svg xmlns="http://www.w3.org/2000/svg" xmlns:ev="http://www.w3.org/2001/xml-events" xmlns:xlink="http://www.w3.org/1999/xlink" baseProfile="full" height="122.5579833984375" version="1.1" viewBox="269.2049865722656 524.9860229492188 55.871002197265625 122.5579833984375" width="55.871002197265625" fill="#00394f">
	<defs/>
	<path class="land" d="M 299.87,526.29 L 299.94100000000003,526.3729999999999 L 299.94000000000005,526.4599999999999 L 300.1770000000001,526.6379999999999 L 300.65100000000007,526.9089999999999 L 301.0950000000001,527.4319999999999 L 301.50900000000007,528.209 L 301.8980000000001,528.785 L 302.2610000000001,529.1569999999999 L 302.5950000000001,529.4209999999999 L 302.9000000000001,529.5749999999999 L 303.0630000000001,529.6999999999999 L 303.0840000000001,529.7959999999999 L 303.36900000000014,529.9949999999999 L 303.9180000000001,530.2979999999999 L 304.2650000000001,530.6009999999999 L 304.4110000000001,530.9029999999999 L 304.9530000000001,531.2159999999999 L 305.8920000000001,531.5379999999999 L 306.5750000000001,531.6919999999999 L 307.0010000000001,531.6779999999999 L 307.6120000000001,531.9349999999998 L 308.4080000000001,532.4649999999998 L 308.89400000000006,532.8329999999999 L 309.0690000000001,533.0379999999999 L 309.5900000000001,533.3709999999999 L 310.8900000000001,534.0599999999998 L 311.4630000000001,534.2329999999998 L 311.73500000000007,534.3909999999998 L 311.8960000000001,534.5909999999999 L 312.05500000000006,534.6529999999999 L 312.21200000000005,534.5749999999999 L 312.53800000000007,534.6469999999999 L 313.03400000000005,534.8689999999999 L 313.422,535.1379999999999 L 313.92100000000005,535.7309999999999 L 314.08000000000004,535.9679999999998 L 314.14700000000005,536.1799999999998 L 314.12300000000005,536.3669999999998 L 313.97100000000006,536.5669999999999 L 313.6910000000001,536.7789999999999 L 313.60800000000006,536.8719999999998 L 313.6020000000001,536.9609999999999 L 313.53100000000006,537.1399999999999 L 313.29900000000004,537.5219999999998 L 313.24,537.6999999999998 L 313.22700000000003,537.8319999999998 L 313.08000000000004,537.9759999999998 L 312.689,538.2419999999997 L 312.608,538.3709999999998 L 312.588,538.5099999999998 L 312.53900000000004,538.5929999999997 L 312.48600000000005,538.6279999999997 L 312.41100000000006,538.7669999999997 L 312.3500000000001,538.9979999999997 L 312.3440000000001,539.2939999999998 L 312.3920000000001,539.6559999999997 L 312.3820000000001,539.7729999999997 L 312.2960000000001,539.8349999999997 L 312.2470000000001,539.9189999999996 L 312.23000000000013,540.0879999999996 L 312.1560000000001,540.2119999999996 L 312.0270000000001,540.2909999999996 L 311.9790000000001,540.3809999999996 L 312.0130000000001,540.4839999999996 L 311.91800000000006,540.5849999999996 L 311.6940000000001,540.6849999999996 L 311.5570000000001,540.8309999999996 L 311.5060000000001,541.0219999999996 L 311.3810000000001,541.1929999999996 L 311.1820000000001,541.3439999999996 L 311.1170000000001,541.5449999999996 L 311.22100000000006,541.9169999999996 L 312.44700000000006,541.7879999999996 L 313.4460000000001,541.9239999999995 L 314.6280000000001,542.2819999999995 L 315.4120000000001,542.4069999999995 L 315.7990000000001,542.2989999999995 L 316.08600000000007,542.3139999999995 L 316.2730000000001,542.4529999999995 L 316.52400000000006,542.4809999999995 L 316.83900000000006,542.3989999999995 L 317.1000000000001,542.4619999999995 L 317.3060000000001,542.6699999999995 L 317.4930000000001,542.6179999999995 L 317.6610000000001,542.3079999999995 L 317.8540000000001,542.0809999999996 L 318.0720000000001,541.9389999999995 L 318.34300000000013,541.8959999999995 L 318.6680000000001,541.9529999999995 L 318.92700000000013,542.0669999999996 L 319.12100000000015,542.2379999999996 L 319.33200000000016,542.2329999999996 L 319.56100000000015,542.0519999999996 L 319.67100000000016,541.8349999999996 L 319.6610000000002,541.5819999999995 L 319.7520000000002,541.4009999999995 L 319.94300000000015,541.2919999999995 L 320.0720000000002,541.1449999999994 L 320.1390000000002,540.9589999999994 L 320.36600000000016,540.8459999999993 L 320.75300000000016,540.8049999999993 L 320.95600000000013,540.7139999999993 L 320.9740000000001,540.5729999999993 L 321.0880000000001,540.4429999999993 L 321.2990000000001,540.3239999999993 L 321.4440000000001,540.1759999999992 L 321.52200000000005,539.9989999999992 L 321.64900000000006,539.8869999999993 L 321.82700000000006,539.8419999999993 L 322.02500000000003,539.4689999999993 L 322.242,538.7709999999993 L 322.37100000000004,537.8289999999993 L 322.41600000000005,536.4959999999993 L 322.63500000000005,536.4969999999993 L 322.737,536.5959999999993 L 322.899,536.6469999999994 L 323.069,536.5349999999994 L 323.214,536.4829999999994 L 323.443,536.4789999999994 L 323.567,536.3529999999994 L 323.712,536.3329999999994 L 323.811,536.4009999999994 L 323.907,536.4839999999994 L 324.111,536.5029999999994 L 324.27299999999997,536.7189999999994 L 324.45099999999996,536.7849999999994 L 324.527,537.0329999999994 L 324.642,537.6859999999995 L 324.856,538.0719999999994 L 325.068,538.5119999999995 L 325.07599999999996,538.7079999999995 L 324.95699999999994,538.9059999999995 L 324.93699999999995,539.1909999999995 L 324.86299999999994,539.8879999999995 L 324.83799999999997,540.1449999999994 L 324.912,540.3199999999994 L 324.93899999999996,540.5649999999994 L 324.82399999999996,540.8639999999994 L 324.59999999999997,541.3119999999993 L 324.383,541.4329999999993 L 324.327,541.4379999999993 L 324.033,541.6969999999993 L 323.826,541.7939999999993 L 323.706,541.7289999999992 L 323.569,541.8409999999992 L 323.415,542.1319999999993 L 323.22700000000003,542.2619999999993 L 322.88700000000006,542.3339999999993 L 322.7850000000001,542.3679999999993 L 322.5870000000001,542.3579999999993 L 322.4170000000001,542.4299999999993 L 322.2750000000001,542.5849999999992 L 322.1240000000001,542.6429999999992 L 321.9630000000001,542.6039999999992 L 321.81700000000006,542.6609999999993 L 321.6860000000001,542.8139999999993 L 321.61000000000007,542.9799999999993 L 321.58900000000006,543.1589999999993 L 321.46100000000007,543.2809999999993 L 321.2250000000001,543.3459999999993 L 321.1430000000001,543.4359999999994 L 321.1580000000001,543.5609999999994 L 321.0520000000001,543.6579999999993 L 320.6530000000001,543.7599999999993 L 320.3640000000001,543.9399999999993 L 320.1860000000001,544.1989999999993 L 319.9980000000001,544.3619999999993 L 319.7020000000001,544.4619999999993 L 319.3000000000001,544.7259999999993 L 319.24200000000013,544.8889999999993 L 319.39500000000015,545.0389999999993 L 319.45000000000016,545.1729999999993 L 319.40700000000015,545.2899999999993 L 319.28200000000015,545.3059999999992 L 319.0740000000001,545.2209999999992 L 318.9260000000001,545.2029999999992 L 318.8380000000001,545.2529999999991 L 318.7960000000001,545.3469999999992 L 318.8010000000001,545.4849999999992 L 318.7270000000001,545.5789999999993 L 318.5730000000001,545.6289999999992 L 318.4760000000001,545.7429999999993 L 318.4350000000001,545.9219999999992 L 318.24200000000013,546.1479999999992 L 317.89800000000014,546.4199999999993 L 317.6270000000001,546.7869999999992 L 317.4280000000001,547.2489999999992 L 317.1960000000001,547.5529999999992 L 316.93000000000006,547.6989999999992 L 316.74700000000007,547.9069999999991 L 316.64700000000005,548.1769999999991 L 316.36300000000006,548.5949999999991 L 315.89700000000005,549.1629999999991 L 315.47400000000005,549.5529999999991 L 315.09400000000005,549.7649999999991 L 314.88100000000003,550.0049999999991 L 314.834,550.2719999999991 L 314.588,550.5769999999991 L 314.14300000000003,550.9189999999991 L 314.01700000000005,551.0729999999991 L 313.91300000000007,551.198999999999 L 313.8980000000001,551.4189999999991 L 313.7250000000001,551.7079999999991 L 313.39200000000005,552.0669999999991 L 313.27600000000007,552.3779999999991 L 313.4270000000001,552.7709999999992 L 313.44900000000007,553.2479999999991 L 313.3830000000001,553.4389999999992 L 313.2370000000001,553.5039999999992 L 313.20400000000006,553.6269999999993 L 313.2830000000001,553.8089999999993 L 313.2870000000001,554.0479999999993 L 313.2170000000001,554.3449999999993 L 313.0630000000001,554.6849999999994 L 312.8240000000001,555.0679999999994 L 312.76600000000013,555.3239999999994 L 312.89000000000016,555.4529999999994 L 312.95100000000014,555.5899999999993 L 312.9490000000001,555.7359999999993 L 312.89800000000014,555.9469999999993 L 312.79900000000015,556.2239999999994 L 312.64900000000017,556.4299999999994 L 312.44800000000015,556.5639999999994 L 312.38700000000017,556.7339999999994 L 312.4680000000002,556.9389999999994 L 312.4790000000002,557.1529999999995 L 312.4210000000002,557.3759999999994 L 312.4550000000002,557.5929999999994 L 312.5810000000002,557.8039999999994 L 312.5720000000002,558.0449999999994 L 312.3530000000002,558.5399999999994 L 312.3000000000002,558.8459999999994 L 312.4370000000002,560.1589999999994 L 312.35400000000016,560.3429999999994 L 312.21500000000015,560.5549999999994 L 312.0500000000001,560.5709999999993 L 311.86200000000014,560.5339999999993 L 311.7260000000001,560.6659999999993 L 311.64100000000013,561.2489999999992 L 311.3820000000001,562.5129999999992 L 311.4280000000001,562.8139999999993 L 311.63600000000014,563.3029999999993 L 311.71200000000016,563.6149999999993 L 311.77000000000015,563.8499999999993 L 311.81600000000014,564.2959999999994 L 311.69500000000016,564.4969999999994 L 311.58300000000014,564.5319999999994 L 311.4420000000001,564.6449999999994 L 311.6090000000001,565.1899999999994 L 311.7420000000001,565.4409999999993 L 312.12200000000007,565.9569999999993 L 313.5810000000001,566.6749999999993 L 314.1860000000001,567.0989999999993 L 314.8710000000001,567.6779999999992 L 315.2450000000001,568.2739999999992 L 315.27800000000013,568.7659999999992 L 314.7310000000001,569.5029999999991 L 314.67000000000013,570.1229999999991 L 314.78200000000015,570.5599999999991 L 314.98000000000013,570.9659999999991 L 315.5100000000001,571.4939999999991 L 315.9000000000001,571.6879999999991 L 316.4270000000001,571.6669999999991 L 316.51700000000005,571.8149999999991 L 316.571,571.9449999999991 L 316.65400000000005,573.0199999999992 L 316.64400000000006,573.4249999999992 L 316.4890000000001,573.7969999999991 L 315.4770000000001,575.5109999999992 L 314.6130000000001,576.5629999999992 L 314.3000000000001,577.1459999999992 L 314.18900000000014,577.7709999999992 L 313.91200000000015,578.0689999999992 L 312.41400000000016,579.0169999999991 L 310.09000000000015,579.8659999999992 L 308.21200000000016,580.3079999999992 L 307.78500000000014,580.4569999999992 L 304.76600000000013,580.9439999999992 L 304.18200000000013,581.0119999999991 L 303.42200000000014,580.9689999999991 L 302.8050000000001,581.0339999999992 L 302.11700000000013,580.9009999999992 L 301.50300000000016,580.7479999999991 L 301.15900000000016,580.3679999999991 L 300.75100000000015,580.3209999999991 L 300.64000000000016,580.5109999999992 L 300.83900000000017,580.9959999999992 L 300.7420000000002,581.5809999999992 L 300.86300000000017,581.9149999999992 L 301.10400000000016,581.9819999999992 L 301.3360000000002,582.1549999999992 L 301.54100000000017,582.3869999999991 L 301.18800000000016,582.4109999999991 L 301.32500000000016,582.5959999999991 L 301.47600000000017,582.703999999999 L 301.4590000000002,583.090999999999 L 301.3220000000002,584.024999999999 L 300.9780000000002,584.224999999999 L 300.8860000000002,584.278999999999 L 300.7820000000002,584.480999999999 L 300.5630000000002,585.378999999999 L 300.4930000000002,585.9629999999989 L 300.5870000000002,586.3399999999989 L 301.0000000000002,587.1339999999989 L 300.8440000000002,587.6509999999989 L 300.5830000000002,587.9319999999989 L 299.4520000000002,588.5109999999988 L 299.0000000000002,588.7429999999988 L 298.28800000000024,588.9019999999988 L 297.14100000000025,588.9289999999988 L 296.71700000000027,588.8929999999989 L 295.73400000000026,588.3649999999989 L 295.00400000000025,588.0489999999988 L 294.33600000000024,587.7979999999989 L 293.68600000000026,587.6479999999989 L 293.7790000000003,587.5719999999989 L 293.8220000000003,587.4359999999989 L 293.6390000000003,587.3599999999989 L 293.5060000000003,587.3429999999988 L 293.0780000000003,587.6159999999988 L 292.8980000000003,587.8949999999988 L 292.8460000000003,588.1399999999988 L 292.8370000000003,588.7279999999988 L 292.9130000000003,589.2229999999988 L 293.2210000000003,590.4459999999988 L 293.25300000000027,591.1129999999988 L 293.10700000000026,591.9569999999989 L 293.31100000000026,592.4549999999989 L 293.55900000000025,592.6799999999989 L 294.11600000000027,592.9029999999989 L 294.3320000000003,593.0549999999989 L 294.5700000000003,593.0309999999989 L 294.64300000000026,593.0899999999989 L 294.60800000000023,593.1989999999989 L 294.46800000000025,593.413999999999 L 294.47700000000026,593.6409999999989 L 294.8990000000003,593.707999999999 L 295.3370000000003,593.6619999999989 L 295.7960000000003,593.5609999999989 L 295.9040000000003,593.4029999999989 L 295.90700000000027,593.0729999999988 L 295.36900000000026,593.0149999999988 L 295.43700000000024,592.8919999999988 L 295.84500000000025,592.7579999999988 L 296.37900000000025,592.5389999999987 L 296.65200000000027,592.4979999999987 L 296.83800000000025,592.6449999999987 L 296.96300000000025,592.7799999999987 L 297.11700000000025,593.1349999999987 L 297.21300000000025,593.6039999999988 L 297.21700000000027,594.1689999999988 L 297.15300000000025,594.7019999999989 L 297.0770000000002,594.8909999999988 L 296.94200000000023,595.1179999999988 L 295.98200000000026,595.4079999999988 L 295.71300000000025,595.3319999999987 L 295.46300000000025,594.9289999999987 L 295.38400000000024,594.5119999999987 L 295.17000000000024,594.2309999999987 L 294.71100000000024,594.0079999999988 L 294.25400000000025,594.0759999999988 L 293.8010000000003,594.4629999999987 L 293.3560000000003,594.5879999999987 L 293.19800000000026,594.9409999999987 L 294.31400000000025,595.5129999999987 L 294.84100000000024,595.6729999999986 L 295.01300000000026,595.6669999999987 L 295.18400000000025,595.7419999999987 L 295.02500000000026,595.9549999999987 L 294.86600000000027,596.0869999999986 L 294.0720000000003,596.3789999999987 L 293.72200000000026,596.5829999999986 L 293.3130000000003,596.9849999999986 L 292.7400000000003,597.8639999999987 L 292.5640000000003,598.0559999999987 L 292.4760000000003,598.2799999999987 L 292.41700000000026,598.8889999999988 L 292.60300000000024,599.9039999999987 L 292.4070000000002,600.3299999999988 L 292.5280000000002,600.8039999999988 L 292.4600000000002,601.1209999999988 L 292.2600000000002,601.5779999999988 L 291.45600000000024,602.3009999999988 L 291.3130000000003,602.8309999999988 L 291.59200000000027,603.1439999999988 L 291.57300000000026,603.4179999999988 L 291.48000000000025,603.6669999999988 L 291.14600000000024,603.6639999999987 L 289.93200000000024,603.4969999999987 L 289.49000000000024,603.7689999999988 L 289.0800000000002,604.1019999999987 L 288.9680000000002,604.2609999999987 L 288.8230000000002,604.3609999999987 L 287.9880000000002,604.5389999999987 L 287.8230000000002,604.6569999999988 L 286.93500000000023,605.9319999999988 L 286.55500000000023,606.7259999999987 L 286.09600000000023,607.5079999999988 L 285.9760000000002,607.8399999999988 L 285.9500000000002,608.3009999999988 L 286.01400000000024,608.7169999999988 L 286.07800000000026,609.0239999999989 L 286.2380000000003,609.4189999999988 L 286.5740000000003,609.8699999999989 L 288.2850000000003,611.7169999999988 L 288.6400000000003,611.8789999999989 L 290.4700000000003,612.0779999999988 L 290.8760000000003,612.3369999999989 L 291.11300000000034,612.7489999999989 L 291.20000000000033,613.1129999999989 L 291.0950000000003,614.0369999999989 L 290.98600000000033,614.3269999999989 L 290.78400000000033,614.5909999999989 L 290.35100000000034,614.9309999999989 L 289.83300000000037,615.111999999999 L 289.9810000000004,615.240999999999 L 290.1910000000004,615.221999999999 L 290.6490000000004,615.111999999999 L 290.8470000000004,615.221999999999 L 290.99700000000036,615.5889999999989 L 290.7100000000004,615.736999999999 L 290.6230000000004,615.9159999999989 L 290.4160000000004,616.1869999999989 L 289.3600000000004,617.2709999999988 L 288.7910000000004,617.5959999999989 L 288.26800000000037,618.0329999999989 L 287.5660000000004,618.4759999999989 L 287.2910000000004,618.7309999999989 L 286.9190000000004,619.2669999999988 L 286.35000000000036,619.8519999999988 L 285.7360000000004,621.1129999999988 L 285.7120000000004,621.3579999999988 L 285.8010000000004,621.5219999999988 L 285.4600000000004,623.7529999999988 L 285.34100000000035,624.0169999999988 L 285.09400000000034,624.2989999999988 L 284.44400000000036,624.7649999999988 L 284.13100000000037,624.8229999999988 L 283.7170000000004,624.5529999999989 L 283.4840000000004,624.2709999999988 L 283.2550000000004,623.7889999999989 L 282.9790000000004,623.2929999999989 L 282.9650000000004,623.4699999999989 L 283.0610000000004,623.7719999999989 L 282.9960000000004,624.0879999999989 L 282.29000000000036,624.231999999999 L 282.10300000000035,624.379999999999 L 282.74000000000035,624.3139999999989 L 283.1740000000004,624.409999999999 L 283.3580000000004,624.524999999999 L 283.5230000000004,624.7659999999989 L 283.66900000000044,625.0559999999989 L 283.5470000000004,625.2169999999988 L 283.1990000000004,625.3499999999989 L 282.7490000000004,625.5949999999989 L 282.21700000000044,626.0379999999989 L 281.9220000000004,626.5519999999989 L 281.7950000000004,626.9219999999989 L 281.6510000000004,627.6699999999989 L 281.6130000000004,628.1659999999989 L 281.3880000000004,628.5479999999989 L 281.0410000000004,628.8929999999989 L 281.0610000000004,628.9719999999988 L 281.2960000000004,628.7949999999988 L 281.4840000000004,628.7389999999988 L 281.64600000000036,629.1989999999988 L 281.8640000000004,630.1219999999988 L 281.9650000000004,630.7639999999989 L 281.94900000000035,630.9539999999989 L 281.88400000000036,631.2159999999989 L 281.4360000000004,631.2789999999989 L 281.0360000000004,631.2709999999988 L 280.7420000000004,631.3829999999988 L 280.90000000000043,631.4989999999988 L 281.1700000000004,631.4579999999987 L 281.5430000000004,631.7339999999987 L 281.9570000000004,631.6159999999986 L 282.1460000000004,631.8009999999986 L 282.28200000000044,631.9699999999985 L 282.91600000000045,633.3239999999986 L 283.4700000000004,634.1649999999986 L 283.7500000000004,634.6649999999986 L 283.6110000000004,634.8929999999986 L 283.5610000000004,634.5899999999986 L 283.2000000000004,634.5109999999986 L 282.8480000000004,634.4299999999986 L 282.2610000000004,634.2129999999986 L 281.4700000000004,633.8849999999986 L 280.67800000000045,633.8849999999986 L 280.04900000000043,633.6079999999986 L 279.35400000000044,633.3019999999985 L 277.88700000000046,633.2749999999985 L 276.5950000000005,633.2559999999985 L 275.27100000000047,633.2369999999985 L 274.4240000000005,633.2239999999985 L 273.8570000000005,633.2159999999984 L 273.7100000000005,633.1009999999984 L 273.7600000000005,632.7209999999984 L 273.5500000000005,632.4409999999984 L 273.2450000000005,632.1029999999985 L 272.87400000000054,631.8649999999984 L 272.6900000000005,631.5459999999985 L 272.4840000000005,631.1879999999985 L 272.6000000000005,630.8709999999985 L 272.7780000000005,630.1019999999985 L 272.78100000000046,629.7639999999985 L 272.62000000000046,629.5279999999985 L 272.5710000000005,629.1929999999985 L 272.62000000000046,629.0359999999985 L 272.76500000000044,628.9169999999984 L 272.85200000000043,628.3699999999984 L 272.78400000000045,627.8349999999984 L 272.67300000000046,627.3579999999985 L 272.52600000000047,627.1479999999984 L 272.33700000000044,627.0479999999984 L 272.19700000000046,627.0289999999984 L 271.88700000000046,627.2069999999984 L 271.37300000000045,627.1619999999984 L 271.19800000000043,627.2299999999984 L 270.94700000000046,627.4209999999985 L 270.59100000000046,627.7029999999985 L 270.3930000000005,627.6049999999985 L 270.3320000000005,627.3029999999985 L 270.2000000000005,627.0419999999986 L 270.1160000000005,626.8119999999985 L 270.0530000000005,626.4329999999985 L 269.9480000000005,625.9479999999985 L 269.7380000000005,625.3749999999985 L 269.4160000000005,624.9129999999985 L 269.39800000000054,624.4979999999986 L 269.33800000000053,623.9779999999986 L 269.5020000000005,623.4729999999986 L 269.4060000000005,623.0549999999986 L 269.2050000000005,622.5579999999986 L 269.2670000000005,622.0439999999986 L 269.4650000000005,621.7599999999986 L 269.5270000000005,621.3999999999986 L 270.4430000000005,621.3429999999986 L 270.4050000000005,620.8599999999986 L 270.55700000000047,620.4699999999987 L 270.72800000000046,620.1169999999987 L 270.8740000000005,619.9569999999987 L 271.2000000000005,619.8169999999988 L 271.5840000000005,619.6139999999988 L 271.8010000000005,619.3819999999988 L 271.9050000000005,619.1739999999988 L 271.9680000000005,618.9059999999988 L 271.98500000000047,618.6209999999988 L 271.9220000000005,618.0159999999988 L 271.9940000000005,617.8299999999988 L 272.2320000000005,617.5849999999988 L 272.63400000000047,617.3679999999988 L 272.80700000000047,616.7929999999988 L 272.7080000000005,616.2939999999987 L 272.48500000000047,615.8989999999988 L 272.2010000000005,615.7209999999988 L 272.1760000000005,615.3159999999988 L 272.3040000000005,614.9319999999988 L 272.47100000000046,614.5209999999988 L 272.67000000000047,614.0499999999988 L 272.65800000000047,613.7209999999989 L 272.8350000000005,613.5289999999989 L 273.3390000000005,613.1009999999989 L 273.5120000000005,612.6829999999989 L 273.68900000000053,612.5699999999988 L 273.8960000000005,612.5199999999988 L 273.9080000000005,612.2839999999989 L 273.7570000000005,612.0499999999988 L 273.7330000000005,611.7569999999988 L 273.7510000000005,611.4329999999989 L 273.7970000000005,610.9999999999989 L 274.0320000000005,610.8379999999988 L 274.3800000000005,610.4879999999988 L 274.4730000000005,610.2659999999988 L 274.4850000000005,609.9689999999988 L 274.3840000000005,609.3569999999988 L 274.2980000000005,608.9189999999988 L 274.25400000000053,608.7579999999989 L 274.0960000000005,608.4619999999989 L 273.9790000000005,608.2749999999988 L 274.1660000000005,608.0409999999988 L 274.51600000000053,607.7959999999988 L 274.66400000000056,607.4409999999988 L 274.52800000000053,607.1399999999987 L 274.33000000000055,606.9809999999987 L 274.26800000000054,606.5209999999987 L 274.34200000000055,605.9379999999987 L 274.4900000000006,605.7619999999987 L 275.01000000000056,605.6739999999987 L 275.05900000000054,605.3749999999987 L 275.45500000000055,604.9529999999987 L 275.44300000000055,604.5499999999987 L 275.19100000000054,604.3029999999987 L 274.9440000000005,603.9049999999987 L 274.7620000000005,603.5539999999987 L 274.1560000000005,603.3619999999987 L 273.5120000000005,603.2579999999987 L 273.4250000000005,602.9269999999987 L 273.4500000000005,602.7359999999986 L 273.7490000000005,602.8129999999986 L 274.23800000000045,602.7459999999986 L 274.60600000000045,602.7309999999986 L 274.8620000000004,602.6969999999986 L 275.15700000000044,602.6489999999986 L 275.4290000000004,602.7879999999986 L 275.7010000000004,602.7009999999987 L 275.8120000000004,602.1799999999987 L 275.9850000000004,601.9029999999987 L 276.0100000000004,601.6429999999987 L 275.8370000000004,601.4359999999987 L 275.5200000000004,601.3719999999987 L 274.1330000000004,601.2079999999987 L 274.0910000000004,601.0009999999987 L 274.1030000000004,600.6539999999987 L 274.1550000000004,600.2999999999987 L 274.1550000000004,600.1259999999987 L 274.2810000000004,599.9729999999987 L 274.4250000000004,599.6529999999987 L 274.5260000000004,599.4399999999987 L 274.4250000000004,599.1639999999987 L 274.2040000000004,598.7569999999987 L 274.3650000000004,598.5689999999987 L 274.3780000000004,598.3449999999987 L 274.3280000000004,598.1259999999986 L 274.09800000000035,597.8829999999986 L 273.8950000000004,597.5479999999985 L 273.8950000000004,597.1919999999985 L 274.1330000000004,597.0969999999985 L 274.2910000000004,596.9879999999985 L 274.3280000000004,596.7679999999984 L 274.2410000000004,596.4969999999985 L 273.9120000000004,596.4139999999985 L 273.4740000000004,596.2479999999985 L 273.3400000000004,596.1089999999984 L 273.21600000000035,595.8189999999985 L 273.30800000000033,595.0059999999985 L 273.26200000000034,594.5169999999985 L 273.22300000000035,594.2469999999985 L 273.3300000000004,594.0389999999985 L 273.4760000000004,593.8519999999985 L 273.4070000000004,593.4169999999986 L 273.2770000000004,593.1889999999986 L 273.3230000000004,593.0139999999986 L 273.44600000000037,592.8379999999986 L 273.5530000000004,592.6209999999986 L 273.6450000000004,592.5699999999986 L 273.78300000000036,592.6939999999986 L 274.01600000000036,592.6209999999986 L 274.29700000000037,592.4459999999987 L 274.32700000000034,592.2399999999986 L 274.27100000000036,591.9459999999987 L 274.06200000000035,591.2079999999986 L 273.87400000000036,590.7529999999986 L 273.91300000000035,590.5889999999986 L 273.98700000000036,590.4169999999986 L 273.92800000000034,589.7929999999985 L 273.94700000000034,589.4169999999986 L 273.96100000000035,588.3119999999985 L 273.98200000000037,587.9359999999986 L 273.79000000000036,587.5519999999985 L 273.8160000000004,587.1929999999985 L 273.95100000000036,586.9309999999986 L 274.0780000000004,586.5769999999985 L 274.1730000000004,586.2639999999985 L 274.2730000000004,586.1229999999986 L 274.4420000000004,586.0529999999985 L 274.4810000000004,585.8819999999985 L 274.4040000000004,585.7519999999985 L 274.1860000000004,585.5489999999985 L 274.13600000000037,585.3009999999985 L 274.18200000000036,585.1109999999984 L 274.2890000000004,585.0009999999984 L 274.4550000000004,585.0019999999984 L 274.5800000000004,584.7309999999984 L 274.6160000000004,584.3969999999985 L 274.6420000000004,584.2419999999985 L 274.5460000000004,584.0469999999984 L 274.4770000000004,583.5879999999985 L 274.4120000000004,583.3279999999985 L 274.4890000000004,583.2189999999985 L 274.5960000000004,583.1789999999985 L 274.7850000000004,583.2409999999985 L 274.9180000000004,583.2089999999985 L 274.94100000000043,583.0699999999985 L 274.9560000000004,582.9209999999985 L 275.0070000000004,582.8199999999985 L 275.12600000000043,582.4839999999984 L 275.25300000000044,582.0679999999984 L 275.2830000000004,581.7749999999984 L 275.2380000000004,580.9819999999984 L 275.3050000000004,580.7999999999984 L 275.44100000000043,580.6339999999983 L 275.63000000000045,580.4779999999984 L 275.8790000000005,580.3489999999983 L 276.1880000000005,580.1629999999983 L 276.5680000000005,580.0949999999983 L 276.7220000000005,579.8889999999983 L 276.8290000000005,579.6149999999983 L 276.8590000000005,579.3899999999983 L 276.7130000000005,579.2339999999983 L 276.52100000000047,579.0479999999983 L 276.43000000000046,578.5809999999983 L 276.3810000000005,578.1499999999983 L 276.35300000000046,577.6079999999982 L 276.1620000000005,577.1429999999982 L 275.9620000000005,576.6209999999982 L 275.9080000000005,576.1569999999981 L 275.97500000000053,575.9039999999981 L 276.05400000000054,575.501999999998 L 275.97000000000054,575.318999999998 L 275.8700000000005,574.991999999998 L 275.9740000000005,574.7359999999981 L 276.1000000000005,574.338999999998 L 276.0850000000005,574.137999999998 L 275.98500000000047,573.658999999998 L 275.8930000000005,573.3909999999979 L 275.98500000000047,573.104999999998 L 276.1310000000005,572.8379999999979 L 276.2460000000005,572.6949999999979 L 276.2270000000005,572.4649999999979 L 276.2770000000005,572.2759999999979 L 276.4950000000005,572.1499999999979 L 276.6990000000005,571.9159999999979 L 276.84500000000054,571.8879999999979 L 277.0210000000005,571.8879999999979 L 277.13600000000054,571.8219999999978 L 277.1820000000005,571.6419999999979 L 277.21300000000053,571.4429999999979 L 277.49400000000054,571.195999999998 L 277.65900000000056,570.968999999998 L 277.95800000000054,570.921999999998 L 278.10400000000055,570.675999999998 L 278.10700000000054,570.360999999998 L 278.07300000000055,570.042999999998 L 278.17300000000057,569.675999999998 L 278.0620000000006,569.115999999998 L 278.0730000000006,568.819999999998 L 277.9580000000006,568.575999999998 L 277.9810000000006,568.3129999999979 L 277.9190000000006,568.1449999999979 L 277.74500000000063,568.081999999998 L 277.6810000000006,567.872999999998 L 277.7650000000006,567.769999999998 L 277.9290000000006,567.6909999999981 L 278.1350000000006,567.5309999999981 L 278.2890000000006,566.7629999999981 L 278.3620000000006,566.5349999999981 L 278.4330000000006,566.2619999999981 L 278.4240000000006,566.1199999999981 L 278.5230000000006,565.914999999998 L 278.6470000000006,565.603999999998 L 278.8420000000006,565.303999999998 L 278.9530000000006,565.097999999998 L 279.0610000000006,564.820999999998 L 279.0920000000006,564.653999999998 L 279.2300000000006,564.570999999998 L 279.3890000000006,564.549999999998 L 279.5760000000006,564.497999999998 L 279.6530000000006,564.395999999998 L 279.6390000000006,564.247999999998 L 279.6270000000006,563.920999999998 L 279.5710000000006,563.401999999998 L 279.5350000000006,562.734999999998 L 279.5680000000006,562.296999999998 L 279.6910000000006,561.857999999998 L 279.8060000000006,561.619999999998 L 279.7750000000006,561.436999999998 L 279.7440000000006,561.235999999998 L 279.5290000000006,561.1259999999979 L 279.3250000000006,561.220999999998 L 279.18200000000064,561.194999999998 L 278.99900000000065,560.961999999998 L 278.9450000000007,560.7149999999981 L 278.9760000000007,560.3779999999981 L 279.11900000000065,560.1679999999981 L 279.17500000000064,559.9039999999981 L 279.09100000000063,559.8219999999981 L 278.9110000000006,559.6469999999981 L 278.7410000000006,559.0449999999981 L 278.7620000000006,558.5329999999982 L 278.59300000000064,558.3969999999982 L 278.51400000000064,557.9979999999982 L 278.34000000000066,557.8549999999982 L 278.27100000000064,557.5569999999982 L 278.21700000000067,557.2499999999982 L 278.2400000000007,557.1149999999982 L 278.4220000000007,557.0769999999982 L 278.5250000000007,556.8349999999982 L 278.4480000000007,556.6999999999982 L 278.31000000000074,556.5829999999983 L 278.13400000000075,556.5919999999983 L 277.97600000000074,556.4539999999982 L 277.7650000000007,555.8769999999982 L 277.59800000000075,555.5589999999983 L 277.65100000000075,555.0959999999983 L 277.68400000000076,554.7349999999983 L 277.75600000000077,554.4259999999983 L 277.7820000000008,554.1829999999983 L 277.9120000000008,554.0669999999983 L 278.03500000000076,554.1199999999983 L 278.1500000000008,554.0929999999983 L 278.25600000000077,553.8959999999983 L 278.37200000000075,553.7719999999982 L 278.36500000000075,553.6739999999983 L 278.29600000000073,553.5679999999983 L 278.2630000000007,553.3809999999983 L 278.34400000000073,553.1579999999983 L 278.4840000000007,552.6489999999983 L 278.6960000000007,552.0889999999984 L 278.7870000000007,551.8799999999984 L 278.7640000000007,551.7029999999984 L 278.8100000000007,551.6229999999983 L 278.9540000000007,551.7119999999984 L 279.3630000000007,551.6139999999984 L 279.50100000000066,551.3659999999984 L 279.55500000000063,551.1449999999984 L 279.6780000000006,551.0209999999984 L 279.62400000000065,550.8449999999983 L 279.45500000000067,550.7919999999983 L 279.3530000000007,550.7089999999984 L 279.3940000000007,550.5089999999983 L 279.4540000000007,550.0499999999984 L 279.4440000000007,549.7129999999984 L 279.2900000000007,548.9939999999983 L 279.1660000000007,548.2839999999983 L 279.25300000000067,548.0469999999983 L 279.52100000000064,547.7229999999984 L 279.7240000000006,547.5769999999984 L 279.7610000000006,547.3919999999985 L 279.9620000000006,546.5579999999985 L 279.98500000000064,546.1029999999985 L 280.11700000000064,545.8519999999985 L 280.20400000000063,545.3799999999985 L 280.5680000000006,544.9739999999986 L 280.67500000000064,544.7049999999986 L 280.82100000000065,544.6789999999986 L 280.89800000000065,544.5919999999986 L 281.09100000000063,544.2929999999986 L 281.3420000000006,543.9859999999986 L 281.5580000000006,543.8309999999987 L 281.6120000000006,543.5889999999987 L 281.7150000000006,543.2589999999987 L 281.9290000000006,542.7119999999986 L 282.0490000000006,542.3309999999987 L 282.2100000000006,542.1939999999987 L 282.3980000000006,541.6959999999987 L 282.4790000000006,541.4039999999986 L 282.6940000000006,541.2839999999986 L 282.8620000000006,541.2499999999986 L 283.0230000000006,541.3869999999986 L 283.1920000000006,541.3609999999986 L 283.3460000000006,541.1899999999986 L 283.7160000000006,541.0729999999986 L 283.88300000000055,541.0099999999986 L 283.96000000000055,540.8389999999986 L 283.96000000000055,540.5389999999986 L 283.80600000000055,540.3169999999986 L 283.49300000000056,539.8919999999987 L 283.2230000000006,539.4169999999987 L 283.1940000000006,539.2679999999987 L 283.1920000000006,539.1049999999987 L 283.23800000000057,538.8989999999986 L 283.3670000000006,538.6659999999987 L 283.6910000000006,538.2819999999987 L 283.6560000000006,538.0079999999987 L 283.4200000000006,537.0009999999987 L 283.3330000000006,536.7239999999987 L 283.1690000000006,536.2109999999986 L 283.19200000000063,536.0079999999987 L 283.33600000000064,535.4419999999986 L 283.46100000000064,535.2139999999987 L 283.64500000000066,535.1719999999987 L 283.7450000000007,535.0959999999986 L 283.7760000000007,534.9949999999986 L 283.6530000000007,534.8689999999987 L 283.59900000000073,534.7089999999987 L 283.54500000000075,534.4809999999987 L 283.37500000000074,534.4009999999987 L 283.2770000000007,534.2119999999987 L 283.2770000000007,533.9349999999987 L 283.43000000000075,533.5739999999987 L 283.59900000000073,533.4729999999987 L 283.66800000000075,533.3129999999987 L 283.84900000000073,533.1669999999988 L 284.01400000000075,533.0539999999987 L 284.1520000000007,532.8449999999988 L 284.72100000000074,532.5889999999988 L 285.17300000000074,532.3899999999988 L 286.05500000000075,532.0099999999989 L 286.66000000000076,531.7489999999989 L 286.71800000000076,531.5689999999989 L 286.76400000000075,531.4459999999989 L 287.0440000000007,530.5289999999989 L 287.4070000000007,529.3459999999989 L 287.6340000000007,528.6059999999989 L 287.1120000000007,528.0619999999989 L 287.2040000000007,527.9169999999989 L 287.50300000000067,527.5449999999989 L 287.5650000000007,527.2469999999989 L 287.6840000000007,527.1189999999989 L 288.2200000000007,526.8159999999989 L 288.3120000000007,526.6149999999989 L 288.3590000000007,526.3919999999989 L 288.4680000000007,526.231999999999 L 288.6720000000007,526.1989999999989 L 289.0430000000007,526.0569999999989 L 289.4410000000007,525.9219999999989 L 289.5610000000007,525.7389999999989 L 289.6740000000007,525.4209999999989 L 289.7710000000007,525.0689999999989 L 289.8480000000007,524.985999999999 L 289.9760000000007,524.994999999999 L 290.1890000000007,525.082999999999 L 290.3010000000007,525.215999999999 L 290.85800000000074,525.637999999999 L 291.10800000000074,525.878999999999 L 291.34600000000074,525.910999999999 L 291.81600000000077,525.863999999999 L 291.9110000000008,525.874999999999 L 293.1100000000008,525.888999999999 L 293.2930000000008,525.909999999999 L 293.7120000000008,526.0129999999989 L 293.9490000000008,526.0959999999989 L 294.11400000000083,526.1389999999989 L 294.3790000000008,526.2689999999989 L 294.60900000000083,526.6999999999989 L 294.73800000000085,527.0429999999989 L 294.8280000000008,527.3449999999989 L 295.02900000000085,527.8759999999988 L 295.16600000000085,528.0779999999988 L 295.2150000000008,527.9799999999989 L 295.33200000000085,527.3989999999989 L 295.49300000000085,527.0609999999989 L 295.71000000000083,526.6819999999989 L 296.14700000000084,525.7979999999989 L 296.30000000000086,525.6659999999989 L 296.4700000000009,525.601999999999 L 296.5890000000009,525.596999999999 L 296.7100000000009,525.662999999999 L 296.8750000000009,525.662999999999 L 296.9920000000009,525.5929999999989 L 298.13800000000094,525.581999999999 L 299.32700000000096,525.571999999999 L 299.35200000000094,525.576999999999 L 299.4060000000009,525.728999999999 L 299.6040000000009,526.060999999999 L 299.8260000000009,526.2369999999991 L 299.87,526.29 M 302.046,581.649 L 302.074,581.877 L 301.928,581.8499999999999 L 301.581,581.632 L 301.464,581.428 L 301.437,581.342 L 301.791,581.435 L 301.95799999999997,581.52 L 302.046,581.649 M 283.025,646.675 L 283.041,645.579 L 283.063,644.1149999999999 L 283.067,642.8179999999999 L 283.071,641.5619999999999 L 283.07500000000005,640.2699999999999 L 283.07900000000006,638.9869999999999 L 283.08400000000006,637.6239999999998 L 283.08900000000006,636.2489999999998 L 283.2540000000001,636.4439999999998 L 283.90600000000006,637.3939999999999 L 284.0760000000001,637.7839999999999 L 284.1830000000001,638.2399999999999 L 283.9220000000001,637.9499999999999 L 283.6470000000001,638.116 L 283.5110000000001,638.388 L 283.3950000000001,638.6840000000001 L 283.3950000000001,638.893 L 283.48500000000007,639.076 L 283.75300000000004,639.235 L 284.40400000000005,639.289 L 284.45200000000006,639.3489999999999 L 284.83200000000005,640.4999999999999 L 285.023,640.7579999999999 L 285.245,640.963 L 285.759,641.555 L 286.252,642.1949999999999 L 286.837,642.804 L 287.467,643.273 L 288.041,643.629 L 288.588,644.066 L 289.172,644.678 L 289.807,645.124 L 290.48900000000003,645.4390000000001 L 291.17800000000005,645.7030000000001 L 292.23900000000003,645.6000000000001 L 292.56800000000004,645.6280000000002 L 292.773,645.8220000000001 L 292.567,646.3590000000002 L 292.30400000000003,646.7920000000001 L 291.95300000000003,646.9710000000001 L 291.58200000000005,647.0370000000001 L 291.24700000000007,647.0280000000001 L 290.91300000000007,646.9480000000001 L 290.59900000000005,646.993 L 290.29900000000004,647.176 L 289.98600000000005,647.267 L 289.66400000000004,647.279 L 289.35,647.433 L 289.035,647.544 L 288.708,647.452 L 287.858,647.02 L 287.306,646.917 L 285.436,646.746 L 284.83599999999996,646.6469999999999 L 284.23799999999994,646.4979999999999 L 283.92499999999995,646.491 L 283.47799999999995,646.588 L 283.11999999999995,646.576 L 283.025,646.675 M 294.543,646.008 L 294.853,646.12 L 295.46500000000003,646.035 L 295.788,646.034 L 295.93,646.074 L 295.993,646.1339999999999 L 296.415,646.0399999999998 L 296.60200000000003,646.0509999999998 L 296.55400000000003,646.2589999999998 L 296.165,646.4659999999998 L 296.005,646.3779999999998 L 295.178,646.3969999999998 L 294.812,646.6109999999999 L 294.656,646.6089999999999 L 294.295,646.9139999999999 L 294.031,646.7209999999999 L 293.958,646.5439999999999 L 294.149,646.2919999999999 L 294.329,646.2869999999999 L 294.452,646.185 L 294.543,646.008" id="AR" title="Argentina"/>
</svg>
