<svg xmlns="http://www.w3.org/2000/svg" xmlns:ev="http://www.w3.org/2001/xml-events" xmlns:xlink="http://www.w3.org/1999/xlink" baseProfile="full" height="10.818023681640625" version="1.1" viewBox="502.4289855957031 305.2829895019531 21.394012451171875 10.818023681640625" width="21.394012451171875">
	<defs/>
	<path class="land" d="M 523.278,306.992 L 523.267,307.035 L 523.251,307.194 L 523.142,307.395 L 523.024,307.657 L 523.032,307.887 L 523.333,308.681 L 523.601,309.162 L 523.651,309.345 L 523.823,309.486 L 523.66,309.663 L 523.628,309.925 L 523.522,310.042 L 523.494,310.191 L 523.539,310.327 L 523.538,310.497 L 523.597,310.73 L 523.335,310.781 L 523.024,310.773 L 522.913,310.787 L 522.809,310.851 L 522.702,310.819 L 522.42,310.6 L 522.262,310.551 L 522.15,310.564 L 522.066,310.66 L 521.921,310.782 L 521.786,310.868 L 521.816,310.943 L 522.399,311.14 L 522.502,311.442 L 522.39,311.688 L 522.352,311.809 L 522.215,311.903 L 522.048,311.986 L 521.846,312.007 L 521.822,312.14 L 521.901,312.529 L 521.837,312.613 L 521.773,312.734 L 521.833,313.053 L 521.958,313.076 L 521.986,313.148 L 521.964,313.278 L 521.942,313.415 L 521.898,313.56 L 521.876,313.625 L 521.793,313.665 L 521.535,313.644 L 521.312,313.768 L 520.864,314.212 L 520.708,314.288 L 520.538,314.466 L 520.548,314.855 L 520.525,314.891 L 520.484,314.971 L 519.949,314.833 L 519.931,314.836 L 519.572,314.886 L 519.327,315.064 L 519.03,315.167 L 518.406,315.112 L 517.799,315.181 L 517.655,315.233 L 517.498,315.263 L 517.35,315.367 L 517.265,315.513 L 517.114,315.697 L 516.899,315.842 L 516.666,315.954 L 516.61,316.047 L 516.534,316.101 L 516.403,316.031 L 516.298,316.035 L 516.169,315.987 L 515.74,315.935 L 515.27,315.849 L 515.045,315.767 L 514.791,315.701 L 514.517,315.648 L 514.272,315.636 L 514.148,315.611 L 513.559,315.468 L 513.17,315.458 L 512.657,315.398 L 511.638,315.182 L 511.341,315.094 L 511.058,315.067 L 510.722,314.992 L 510.467,314.869 L 510.304,314.635 L 510.129,314.325 L 509.81,313.918 L 509.744,313.715 L 509.842,313.537 L 509.942,313.402 L 509.931,313.345 L 509.853,313.315 L 509.292,313.489 L 508.748,313.709 L 508.534,313.715 L 508.327,313.667 L 508.051,313.663 L 507.787,313.722 L 507.257,313.752 L 506.947,313.914 L 506.749,314.229 L 506.642,314.483 L 506.552,314.565 L 506.367,314.596 L 506.091,314.572 L 505.897,314.499 L 505.699,314.282 L 505.392,314.251 L 505.11,314.246 L 505.035,314.206 L 505.04,314.064 L 504.929,313.798 L 504.745,313.715 L 504.269,314.216 L 504.139,314.261 L 503.756,314.122 L 503.421,313.908 L 503.385,313.751 L 503.33,313.622 L 503.049,313.5 L 502.698,313.417 L 502.586,313.417 L 502.63,313.341 L 502.671,313.212 L 502.645,313.11 L 502.563,313.003 L 502.518,312.89 L 502.504,312.78 L 502.479,312.69 L 502.464,312.605 L 502.438,312.539 L 502.667,312.039 L 502.714,311.728 L 502.514,311.545 L 502.429,311.491 L 502.499,311.45 L 502.784,311.484 L 502.965,311.381 L 503.06,311.278 L 503.313,311.375 L 503.685,311.569 L 503.86,311.701 L 503.932,311.802 L 503.973,311.887 L 503.951,312.033 L 504.035,312.09 L 504.21,312.111 L 504.327,312.156 L 504.286,312.348 L 504.278,312.505 L 504.439,312.483 L 504.642,312.363 L 504.8,312.146 L 504.898,311.935 L 504.972,311.421 L 504.998,311.378 L 505.12,311.418 L 505.613,311.396 L 505.846,311.492 L 506.215,311.508 L 506.208,311.588 L 506.273,311.714 L 506.437,311.895 L 506.517,312.013 L 506.688,312.034 L 506.953,311.969 L 507.107,311.901 L 507.166,311.949 L 507.407,311.902 L 507.621,311.756 L 507.674,311.645 L 507.89,311.566 L 508.182,311.385 L 508.583,311.246 L 509.898,311.096 L 509.949,310.983 L 509.93,310.724 L 509.965,310.686 L 510.13,310.75 L 510.396,310.811 L 510.601,310.902 L 510.732,311.022 L 510.855,311.027 L 511.045,310.943 L 511.302,310.889 L 511.542,311.014 L 511.612,311.148 L 511.57,311.217 L 511.574,311.326 L 511.649,311.417 L 511.844,311.565 L 512.094,311.692 L 512.224,311.682 L 512.272,311.559 L 512.318,311.264 L 512.335,310.948 L 512.278,310.767 L 512.143,310.723 L 511.982,310.708 L 511.896,310.67 L 511.927,310.571 L 512.055,310.313 L 512.054,309.968 L 511.763,309.574 L 511.51,309.193 L 511.511,309.063 L 511.663,308.837 L 511.896,308.657 L 512.415,308.357 L 512.578,308.295 L 512.788,308.245 L 513.09,308.121 L 513.235,307.994 L 513.333,307.856 L 513.475,307.137 L 513.508,307.106 L 513.55,307.064 L 514.079,307.313 L 514.126,307.271 L 514.216,307.231 L 514.388,307.04 L 514.426,306.896 L 514.422,306.621 L 514.438,306.362 L 514.471,306.279 L 514.55,306.31 L 514.778,306.444 L 514.959,306.596 L 515.128,306.977 L 515.523,307.078 L 516.022,307.088 L 516.2,306.918 L 516.362,306.879 L 516.545,306.931 L 516.931,306.99 L 516.974,306.683 L 517.196,306.362 L 517.297,306.25 L 517.58,306.261 L 517.649,306.021 L 517.719,305.356 L 517.778,305.283 L 517.984,305.297 L 518.189,305.418 L 518.25,305.517 L 518.357,305.509 L 518.506,305.441 L 518.669,305.398 L 518.928,305.469 L 519.479,305.771 L 519.764,305.882 L 519.944,305.861 L 520.113,305.865 L 520.764,306.331 L 521.219,306.396 L 521.634,306.398 L 521.768,306.258 L 521.944,306.139 L 522.129,306.155 L 522.29,306.216 L 522.604,306.418 L 522.749,306.47 L 522.942,306.503 L 523.083,306.548 L 523.208,306.898 L 523.278,306.992" id="AT" title="Austria"/>
</svg>
