<svg xmlns="http://www.w3.org/2000/svg" xmlns:ev="http://www.w3.org/2001/xml-events" xmlns:xlink="http://www.w3.org/1999/xlink" baseProfile="full" height="155.33001708984375" version="1.1" viewBox="792.5750122070312 490.8380126953125 129.240966796875 155.33001708984375" width="129.240966796875" fill="#00394f">
	<defs/>
	<path class="land" d="M 841.679,494.395 L 841.577,494.139 L 841.622,494.075 L 841.674,494.041 L 841.74,494.049 L 842.0,494.323 L 842.113,494.39799999999997 L 842.2790000000001,494.597 L 842.6540000000001,494.621 L 843.1040000000002,494.407 L 843.3140000000002,494.49399999999997 L 843.4140000000002,494.47799999999995 L 843.7440000000003,494.275 L 843.9590000000003,494.217 L 844.1030000000003,494.067 L 844.2490000000003,494.229 L 844.5750000000003,494.417 L 844.6780000000002,494.614 L 844.8160000000003,494.707 L 844.8620000000003,494.769 L 844.6630000000004,494.976 L 844.6380000000004,495.199 L 844.4250000000004,495.184 L 844.1700000000004,495.55 L 843.2130000000004,496.164 L 842.3540000000004,495.64 L 841.9810000000003,495.286 L 841.7310000000003,494.796 L 841.679,494.395 M 860.146,507.078 L 860.178,507.22299999999996 L 860.33,507.364 L 860.45,507.22999999999996 L 860.3870000000001,507.114 L 860.368,506.89599999999996 L 860.214,506.69899999999996 L 860.148,506.86599999999993 L 860.085,506.9049999999999 L 860.0260000000001,507.0379999999999 L 860.146,507.078 M 866.473,509.962 L 866.596,509.964 L 866.796,509.898 L 866.9000000000001,509.75800000000004 L 867.0090000000001,509.79400000000004 L 867.2260000000001,509.53800000000007 L 867.3720000000001,509.4120000000001 L 867.7600000000001,509.3700000000001 L 867.4980000000002,509.04500000000013 L 867.4510000000001,509.0220000000001 L 867.0890000000002,509.1480000000001 L 866.6230000000002,509.2310000000001 L 866.4430000000002,509.4060000000001 L 866.2570000000002,509.6930000000001 L 866.2150000000001,509.94900000000007 L 866.2480000000002,510.0300000000001 L 866.473,509.962 M 874.691,491.128 L 874.759,490.933 L 874.638,490.83799999999997 L 874.494,491.037 L 874.618,491.205 L 874.691,491.128 M 859.062,494.604 L 859.463,494.08099999999996 L 859.572,493.563 L 859.4350000000001,493.598 L 859.422,493.826 L 859.375,493.97900000000004 L 859.312,494.03400000000005 L 859.203,494.13100000000003 L 858.953,494.547 L 858.846,494.65000000000003 L 858.86,494.778 L 859.062,494.604 M 847.542,493.993 L 847.7660000000001,494.432 L 847.8220000000001,494.38800000000003 L 847.9230000000001,494.00800000000004 L 847.8320000000001,493.83000000000004 L 847.8220000000001,493.521 L 847.7810000000001,493.439 L 847.666,493.608 L 847.5150000000001,493.633 L 847.6060000000001,493.85699999999997 L 847.542,493.993 M 858.446,495.186 L 858.702,494.976 L 858.727,494.853 L 858.6419999999999,494.913 L 858.131,495.16700000000003 L 857.887,495.45300000000003 L 858.3309999999999,495.24100000000004 L 858.446,495.186 M 859.758,506.792 L 859.803,506.77099999999996 L 859.88,506.681 L 859.843,506.431 L 859.755,506.551 L 859.758,506.792 M 874.588,492.508 L 874.573,492.587 L 874.605,492.767 L 874.7570000000001,492.852 L 874.9910000000001,492.68899999999996 L 874.7750000000001,492.36899999999997 L 874.588,492.508 M 858.793,506.664 L 858.825,506.792 L 858.8720000000001,506.80699999999996 L 859.0400000000001,506.79499999999996 L 859.1010000000001,506.55099999999993 L 859.0270000000002,506.52099999999996 L 858.8490000000002,506.54799999999994 L 858.793,506.664 M 859.867,502.665 L 859.591,502.552 L 859.487,502.42900000000003 L 859.4739999999999,502.307 L 859.5939999999999,501.942 L 859.669,501.832 L 859.7479999999999,501.801 L 859.924,501.601 L 859.882,501.485 L 859.8249999999999,501.41900000000004 L 859.7539999999999,501.38200000000006 L 859.6399999999999,501.64500000000004 L 859.5089999999999,501.653 L 859.3879999999999,501.534 L 859.3349999999999,501.311 L 859.352,501.183 L 859.222,501.167 L 859.018,501.29699999999997 L 858.88,501.505 L 858.573,501.71 L 858.536,502.13 L 858.582,502.461 L 858.482,502.603 L 858.323,502.707 L 858.401,502.756 L 858.673,502.772 L 859.204,502.904 L 859.5219999999999,502.883 L 859.89,502.94 L 859.994,502.805 L 860.049,502.627 L 860.002,502.612 L 859.867,502.665 M 900.147,530.964 L 900.2120000000001,530.923 L 900.3090000000001,530.795 L 900.248,530.637 L 900.12,530.4129999999999 L 900.152,530.2149999999999 L 900.0730000000001,530.165 L 899.9850000000001,530.174 L 899.8890000000001,530.097 L 899.6460000000001,530.005 L 899.571,530.217 L 899.995,530.858 L 900.147,530.964 M 905.238,537.121 L 905.3090000000001,537.036 L 905.3270000000001,536.824 L 905.4890000000001,536.299 L 906.0750000000002,534.911 L 906.1000000000001,534.6479999999999 L 905.9280000000001,534.4559999999999 L 905.8830000000002,533.9119999999999 L 905.8130000000001,533.8829999999999 L 905.7180000000001,533.9159999999999 L 905.599,533.9939999999999 L 905.495,534.1479999999999 L 905.615,534.2029999999999 L 905.771,534.4789999999998 L 905.7299999999999,534.7349999999998 L 905.6229999999999,534.9349999999998 L 905.199,535.3119999999998 L 905.262,535.6489999999998 L 905.236,535.8099999999997 L 905.09,536.1009999999998 L 905.027,536.4189999999998 L 905.1120000000001,536.9689999999997 L 905.238,537.121 M 906.273,541.966 L 906.3340000000001,541.919 L 906.2890000000001,541.559 L 906.4020000000002,541.0459999999999 L 906.3050000000002,541.021 L 906.1580000000001,541.082 L 906.1160000000001,541.362 L 906.1480000000001,541.665 L 906.273,541.966 M 906.217,542.516 L 906.203,543.0179999999999 L 906.289,543.1479999999999 L 906.362,543.165 L 906.6039999999999,542.298 L 906.5559999999999,542.254 L 906.314,542.2 L 906.217,542.516 M 898.123,526.557 L 898.2130000000001,526.51 L 898.1370000000001,526.273 L 898.043,526.22 L 898.033,526.392 L 897.97,526.513 L 898.042,526.5640000000001 L 898.123,526.557 M 896.472,526.167 L 896.471,526.0350000000001 L 896.427,525.7320000000001 L 896.323,525.8080000000001 L 896.3059999999999,526.0380000000001 L 896.3729999999999,526.2580000000002 L 896.472,526.167 M 885.772,514.565 L 885.9830000000001,514.772 L 886.1080000000001,515.0300000000001 L 886.2850000000001,515.1300000000001 L 886.364,515.0240000000001 L 886.4060000000001,514.8810000000001 L 886.2850000000001,514.6640000000001 L 886.2270000000001,514.3850000000001 L 886.1450000000001,514.3690000000001 L 886.094,514.4140000000001 L 885.97,514.4550000000002 L 885.7230000000001,514.4450000000002 L 885.772,514.565 M 875.005,491.412 L 875.172,491.236 L 875.0600000000001,491.089 L 874.835,491.115 L 874.769,491.25600000000003 L 874.828,491.35900000000004 L 875.005,491.412 M 893.686,520.053 L 893.744,520.008 L 893.777,519.739 L 893.6740000000001,519.812 L 893.604,519.91 L 893.5490000000001,520.034 L 893.623,520.066 L 893.686,520.053 M 893.831,520.504 L 893.922,520.506 L 893.989,520.473 L 893.993,520.4309999999999 L 893.879,520.2639999999999 L 893.813,520.0619999999999 L 893.6949999999999,520.4489999999998 L 893.831,520.504 M 867.09,510.925 L 866.947,511.046 L 866.984,511.166 L 867.089,511.116 L 867.402,511.05699999999996 L 867.3720000000001,510.90399999999994 L 867.1840000000001,510.75399999999996 L 867.09,510.925 M 884.006,578.721 L 883.837,578.576 L 883.4689999999999,578.5930000000001 L 883.443,578.672 L 883.427,578.849 L 883.583,578.957 L 884.006,578.721 M 891.895,584.602 L 891.818,584.533 L 891.56,584.4300000000001 L 891.0609999999999,583.7710000000001 L 890.8729999999999,583.6560000000001 L 890.6089999999999,584.0400000000001 L 890.4069999999999,584.181 L 890.5339999999999,584.327 L 890.7139999999998,584.309 L 890.7969999999998,584.549 L 890.7539999999998,584.706 L 891.1299999999998,585.2810000000001 L 891.1929999999998,585.4300000000001 L 891.2679999999998,585.533 L 891.3579999999998,585.611 L 891.6519999999998,585.507 L 891.9019999999998,585.2829999999999 L 891.9409999999998,585.2869999999999 L 891.9679999999998,585.1809999999999 L 891.7649999999999,585.016 L 891.8739999999999,584.891 L 891.895,584.602 M 891.725,586.541 L 891.673,586.504 L 891.602,586.4970000000001 L 891.389,586.5640000000001 L 891.416,586.647 L 891.5870000000001,586.826 L 891.725,586.541 M 883.001,579.338 L 883.4,579.31 L 883.636,579.443 L 883.6189999999999,579.376 L 883.521,579.207 L 883.447,579.141 L 883.251,579.093 L 883.001,579.338 M 882.035,586.51 L 882.053,586.266 L 882.032,586.246 L 881.942,586.376 L 881.827,586.4309999999999 L 881.932,586.814 L 882.035,586.51 M 857.83,501.341 L 857.759,501.38800000000003 L 857.725,501.46700000000004 L 857.727,501.571 L 857.982,501.62600000000003 L 858.048,501.59400000000005 L 858.154,501.49800000000005 L 858.104,501.25500000000005 L 857.986,501.13500000000005 L 857.83,501.341 M 921.642,644.991 L 921.471,645.948 L 921.497,646.168 L 921.591,645.977 L 921.779,645.3249999999999 L 921.816,644.8299999999999 L 921.642,644.991 M 891.976,585.776 L 891.616,585.963 L 891.225,585.9599999999999 L 891.089,586.0469999999999 L 891.1160000000001,586.1329999999999 L 891.3470000000001,586.3069999999999 L 891.6600000000001,586.329 L 891.9560000000001,586.245 L 892.0500000000002,586.475 L 892.1940000000002,586.436 L 892.3910000000002,586.2370000000001 L 892.2410000000002,585.9970000000001 L 891.976,585.776 M 892.017,592.482 L 891.9810000000001,592.341 L 891.9070000000002,592.214 L 891.9070000000002,592.0790000000001 L 891.9460000000001,591.791 L 891.8680000000002,591.3710000000001 L 891.8930000000001,590.7360000000001 L 891.8660000000001,590.3950000000001 L 891.8740000000001,590.0590000000001 L 891.9370000000001,589.6290000000001 L 891.9200000000001,589.1950000000002 L 891.879,588.9780000000002 L 891.861,588.7580000000002 L 891.882,588.1340000000001 L 891.664,587.7930000000001 L 891.152,587.5200000000001 L 890.971,587.5150000000001 L 890.702,587.8590000000002 L 890.547,587.8560000000001 L 889.9970000000001,587.7560000000001 L 889.878,587.8700000000001 L 889.657,588.1980000000001 L 889.528,588.3370000000001 L 889.34,588.2770000000002 L 889.1510000000001,588.1700000000002 L 889.0060000000001,588.1820000000001 L 888.8650000000001,588.2700000000001 L 888.5480000000001,588.3100000000001 L 888.2230000000001,588.3030000000001 L 888.0260000000001,588.3970000000002 L 887.849,588.5470000000001 L 887.791,588.7360000000001 L 887.825,588.9540000000001 L 887.6500000000001,588.7520000000001 L 887.4750000000001,588.6200000000001 L 887.2700000000001,588.7620000000002 L 887.056,588.8590000000002 L 886.335,588.9370000000001 L 885.7560000000001,588.7690000000001 L 884.9430000000001,588.4220000000001 L 884.8140000000001,588.3200000000002 L 884.6970000000001,588.1900000000002 L 884.5630000000001,588.1050000000001 L 884.2550000000001,587.9760000000001 L 884.1350000000001,587.8280000000001 L 883.9990000000001,587.7860000000001 L 883.8430000000002,587.807 L 883.6180000000002,587.689 L 883.4310000000002,587.481 L 883.2660000000002,587.463 L 883.0820000000002,587.557 L 882.7570000000002,587.543 L 882.1270000000002,587.303 L 881.8470000000002,587.121 L 881.8220000000002,587.529 L 881.6430000000003,588.261 L 881.6890000000003,588.624 L 881.7890000000003,589.039 L 881.9760000000003,589.6 L 881.9810000000003,589.7810000000001 L 882.0150000000003,589.888 L 882.4010000000003,590.729 L 882.7940000000003,591.414 L 883.3070000000004,592.139 L 883.3660000000003,592.469 L 883.2990000000003,592.807 L 883.4660000000003,592.785 L 883.5690000000003,592.6189999999999 L 883.5930000000003,592.7839999999999 L 883.6510000000003,592.9229999999999 L 884.0890000000003,593.4029999999999 L 884.1190000000003,593.5299999999999 L 883.9530000000002,593.9269999999999 L 883.8590000000002,593.5989999999999 L 883.6850000000002,593.342 L 883.1970000000001,592.935 L 883.3040000000001,593.785 L 883.3910000000001,594.122 L 884.0070000000001,595.577 L 884.091,595.671 L 884.231,595.735 L 884.35,595.851 L 884.551,596.148 L 884.8910000000001,596.792 L 885.089,596.9780000000001 L 885.375,596.9190000000001 L 885.796,597.0500000000001 L 885.94,597.0140000000001 L 886.0290000000001,597.0690000000001 L 886.0810000000001,597.219 L 885.7510000000001,597.216 L 885.4300000000001,597.299 L 885.3950000000001,597.424 L 885.4830000000001,597.5649999999999 L 885.567,597.9599999999999 L 885.97,597.8269999999999 L 886.606,597.8529999999998 L 886.986,597.8109999999998 L 887.409,598.1699999999998 L 887.788,598.2369999999999 L 887.899,598.2109999999999 L 888.126,597.786 L 888.2669999999999,597.275 L 888.3539999999999,597.0799999999999 L 888.4709999999999,596.9139999999999 L 888.2189999999999,596.6949999999998 L 888.2109999999999,596.5839999999998 L 888.2439999999999,596.4559999999998 L 888.7379999999999,596.8379999999997 L 888.9399999999999,596.6839999999997 L 888.982,596.3409999999998 L 888.982,596.1289999999998 L 889.0409999999999,595.9779999999998 L 889.165,595.9079999999998 L 889.2149999999999,595.7199999999998 L 889.2289999999999,595.5749999999998 L 889.1009999999999,595.2469999999998 L 889.0889999999999,595.0579999999999 L 889.3989999999999,595.4509999999999 L 889.5229999999999,595.9839999999999 L 889.7599999999999,595.843 L 889.7939999999999,595.759 L 889.7569999999998,595.39 L 889.8629999999998,595.2669999999999 L 890.1989999999998,595.367 L 890.4979999999998,595.581 L 890.5189999999998,595.6800000000001 L 890.4989999999998,595.7800000000001 L 890.4249999999998,595.868 L 890.1819999999998,595.778 L 890.0709999999998,595.934 L 890.2149999999998,596.324 L 890.4589999999998,596.698 L 890.6059999999999,596.602 L 890.9059999999998,596.5509999999999 L 891.0059999999999,596.4559999999999 L 890.9419999999999,595.704 L 890.8219999999999,595.154 L 890.8139999999999,594.553 L 890.8479999999998,594.226 L 890.9859999999999,593.974 L 891.0869999999999,593.7080000000001 L 891.0739999999998,593.3650000000001 L 891.1239999999998,593.0410000000002 L 891.2469999999998,592.7050000000002 L 891.4189999999999,592.4540000000002 L 891.4989999999999,592.3960000000002 L 891.4569999999999,592.3260000000001 L 891.5299999999999,592.1090000000002 L 891.6599999999999,591.9500000000002 L 891.7389999999998,592.1450000000002 L 891.6349999999998,592.2210000000002 L 891.5739999999997,592.3060000000003 L 891.7779999999997,592.4490000000003 L 891.8389999999997,592.5760000000002 L 891.8599999999997,592.7160000000002 L 891.8389999999997,592.8900000000002 L 891.8759999999997,593.0240000000002 L 891.9909999999998,593.0490000000002 L 892.0229999999998,592.8740000000003 L 891.9899999999998,592.6620000000003 L 892.017,592.482 M 906.708,544.836 L 906.3689999999999,544.2280000000001 L 906.2939999999999,543.7510000000001 L 906.1749999999998,543.3430000000001 L 905.6479999999998,542.1970000000001 L 905.4199999999998,541.5360000000002 L 905.5469999999998,540.8720000000002 L 905.3279999999997,538.7510000000002 L 905.5549999999997,537.6950000000002 L 905.4449999999997,537.5660000000001 L 905.1719999999997,537.4030000000001 L 905.0509999999997,537.2360000000001 L 904.8699999999997,536.8400000000001 L 904.8499999999997,536.0470000000001 L 904.4999999999997,535.5590000000001 L 904.1219999999996,535.3360000000001 L 903.8659999999996,534.9360000000001 L 903.6939999999996,534.6030000000002 L 903.6699999999996,534.4180000000002 L 903.5659999999996,534.1050000000002 L 903.2759999999996,533.8900000000002 L 903.0769999999997,533.7880000000002 L 902.6499999999996,533.4750000000003 L 902.4409999999997,533.1590000000002 L 902.0119999999997,532.2600000000002 L 901.8129999999998,532.0210000000002 L 901.4169999999998,531.7630000000001 L 901.0929999999998,531.7480000000002 L 900.8839999999999,531.6840000000002 L 900.1419999999999,531.1120000000002 L 899.911,530.9870000000002 L 899.7249999999999,530.7190000000002 L 899.4469999999999,530.4310000000002 L 899.286,530.2190000000002 L 899.039,529.9940000000001 L 898.87,529.1390000000001 L 898.87,528.3090000000001 L 898.816,527.32 L 898.5590000000001,526.8430000000001 L 898.4200000000001,526.6890000000001 L 898.268,526.7400000000001 L 898.2560000000001,527.0480000000001 L 898.2980000000001,527.2580000000002 L 898.1910000000001,527.2680000000001 L 897.8090000000002,526.9960000000001 L 897.3310000000002,526.7060000000001 L 897.0730000000002,526.3820000000002 L 896.8850000000002,526.0780000000002 L 896.7290000000003,526.0900000000001 L 896.6190000000003,526.1380000000001 L 896.5090000000002,526.5120000000002 L 896.6880000000002,527.1570000000002 L 896.6000000000003,527.2450000000001 L 896.4490000000003,527.0960000000001 L 896.1740000000003,526.7590000000001 L 896.0310000000003,526.8690000000001 L 895.8420000000003,526.9120000000001 L 895.6770000000004,526.5740000000002 L 895.5380000000004,526.3610000000002 L 895.3370000000003,525.6560000000002 L 895.1570000000004,524.8800000000002 L 895.1400000000003,524.3190000000002 L 894.7890000000003,524.0110000000002 L 894.6520000000004,523.4820000000002 L 894.5430000000003,523.3350000000002 L 894.4400000000004,522.9600000000002 L 894.0350000000004,522.4700000000001 L 893.6190000000004,522.1240000000001 L 893.2740000000003,521.7970000000001 L 892.9770000000003,521.3340000000002 L 893.1070000000003,520.9990000000001 L 893.3180000000003,521.0700000000002 L 893.5420000000004,521.0380000000001 L 893.3630000000004,520.6970000000001 L 893.1890000000004,520.4680000000001 L 892.7440000000004,520.0390000000001 L 892.5370000000004,519.9310000000002 L 892.0890000000004,519.8680000000002 L 891.5910000000003,519.4770000000002 L 891.2860000000004,519.3080000000002 L 891.0710000000004,519.2810000000002 L 890.8220000000003,519.2200000000001 L 890.6460000000003,518.9990000000001 L 890.3350000000003,518.9260000000002 L 889.8970000000003,518.4890000000001 L 889.6820000000002,518.0490000000001 L 889.5740000000003,517.8870000000001 L 889.4270000000002,517.7650000000001 L 889.2110000000002,517.8380000000001 L 889.0330000000002,517.8710000000001 L 888.6410000000002,517.8090000000001 L 888.5120000000002,517.6300000000001 L 888.2590000000001,517.4030000000001 L 887.7720000000002,517.3430000000002 L 887.3870000000002,517.2000000000002 L 887.0930000000002,517.0590000000002 L 886.7950000000002,516.8790000000002 L 886.5210000000002,516.5790000000003 L 886.2780000000001,516.1780000000003 L 886.3200000000002,515.6640000000003 L 886.3810000000002,515.3310000000004 L 886.0710000000003,515.2020000000003 L 885.5360000000003,514.5050000000003 L 885.5100000000003,514.2200000000004 L 885.6540000000003,513.6380000000004 L 885.8000000000003,512.6360000000004 L 885.5870000000003,511.8920000000004 L 885.1720000000004,510.9850000000004 L 885.2000000000004,510.52500000000043 L 884.9910000000004,510.51900000000046 L 884.7590000000005,510.4290000000005 L 884.4320000000005,509.9820000000005 L 884.1840000000004,509.6880000000005 L 884.0170000000004,509.4170000000005 L 883.8360000000004,509.05000000000047 L 883.8650000000004,508.7560000000005 L 883.9080000000004,508.5580000000005 L 883.9260000000004,508.0340000000005 L 883.6950000000004,507.5250000000005 L 883.6220000000004,507.0040000000005 L 883.4030000000004,506.35300000000046 L 883.4640000000004,505.92100000000045 L 883.4160000000004,505.56500000000045 L 883.3480000000004,505.25700000000046 L 883.4190000000004,505.06100000000043 L 883.4480000000004,504.8120000000004 L 883.1460000000004,504.5630000000004 L 882.8220000000005,504.3730000000004 L 882.4040000000005,504.0370000000004 L 881.6530000000005,503.5130000000004 L 881.4800000000005,503.11700000000036 L 881.1620000000005,502.7630000000004 L 880.7370000000005,502.9000000000004 L 880.4240000000005,502.9650000000004 L 880.1320000000005,503.23200000000037 L 879.7280000000005,503.42900000000037 L 879.3360000000005,503.2510000000004 L 879.1500000000004,503.1010000000004 L 879.0120000000004,502.5710000000004 L 878.8330000000004,501.99300000000045 L 878.6810000000004,501.70300000000043 L 878.5670000000003,501.3530000000004 L 878.6740000000003,500.5000000000004 L 878.5140000000004,500.0990000000004 L 878.4640000000004,499.5000000000004 L 878.3120000000004,498.8160000000004 L 878.1430000000004,498.4740000000004 L 878.1550000000003,498.1990000000004 L 877.8410000000003,497.7960000000004 L 877.7410000000003,497.5070000000004 L 877.5630000000003,497.4030000000004 L 877.3370000000003,497.2380000000004 L 877.3050000000003,497.0170000000004 L 877.3220000000003,496.8560000000004 L 877.4570000000003,496.5890000000004 L 877.5300000000003,496.2430000000004 L 877.2150000000003,496.1570000000004 L 876.9960000000002,496.1420000000004 L 876.8430000000002,496.0330000000004 L 876.6710000000002,495.86400000000043 L 876.6090000000002,495.3260000000004 L 876.6150000000001,494.7560000000004 L 876.5700000000002,494.40000000000043 L 876.4760000000001,494.13500000000045 L 876.4100000000001,493.8550000000005 L 876.2510000000001,493.55700000000047 L 875.7730000000001,493.17000000000047 L 875.8080000000001,493.01400000000046 L 875.9190000000001,492.81200000000047 L 875.7500000000001,492.6960000000005 L 875.5020000000001,492.6960000000005 L 875.3620000000001,492.96600000000046 L 875.1360000000001,493.1980000000005 L 874.6930000000001,493.3750000000005 L 874.6100000000001,494.3030000000005 L 874.3350000000002,495.3230000000005 L 874.0850000000002,496.0760000000005 L 874.1310000000002,496.3040000000005 L 874.1110000000002,496.5270000000005 L 873.9760000000002,496.4270000000005 L 873.8570000000002,496.3020000000005 L 873.6750000000002,496.6000000000005 L 873.3460000000002,497.3730000000005 L 873.3160000000003,497.7740000000005 L 873.5090000000002,497.8820000000005 L 873.6440000000002,497.9880000000005 L 873.8050000000002,498.02300000000054 L 873.8780000000002,498.1220000000005 L 873.9190000000002,498.31600000000054 L 874.0230000000003,498.4830000000005 L 873.9970000000003,498.6640000000005 L 873.8720000000003,498.5930000000005 L 873.6090000000003,498.59400000000045 L 873.4750000000003,498.75100000000043 L 873.1360000000002,499.06500000000045 L 873.2250000000003,499.96900000000045 L 873.0660000000003,500.44500000000045 L 872.9130000000002,500.8140000000005 L 872.7400000000002,501.51400000000046 L 872.7630000000003,501.88500000000045 L 872.9160000000003,502.14900000000046 L 873.0810000000002,502.5350000000005 L 872.9810000000002,503.06700000000046 L 872.8800000000002,503.44800000000043 L 873.1060000000002,504.5520000000004 L 873.1690000000002,505.14000000000044 L 873.0450000000002,505.54100000000045 L 872.6810000000002,506.72700000000043 L 872.5170000000002,507.5950000000004 L 872.5700000000002,508.0740000000004 L 872.4120000000001,508.5140000000004 L 872.2320000000002,509.2180000000004 L 872.0290000000002,509.7500000000004 L 871.3180000000002,510.8240000000004 L 871.1770000000002,511.3440000000004 L 870.9380000000002,511.9920000000004 L 870.4270000000002,512.3700000000005 L 870.0410000000003,512.6060000000004 L 869.1950000000003,512.8400000000005 L 868.7070000000002,512.8350000000005 L 868.4550000000003,512.6920000000005 L 868.3100000000003,512.5680000000004 L 867.7350000000002,512.3610000000004 L 867.0360000000003,511.8930000000004 L 866.4980000000003,511.74100000000044 L 866.2320000000003,511.2710000000004 L 866.2060000000004,511.0760000000004 L 866.1100000000004,510.8220000000004 L 865.8280000000003,510.4880000000004 L 865.2960000000003,510.3750000000004 L 864.7500000000002,510.1340000000004 L 864.4130000000002,510.1680000000004 L 863.6820000000002,509.9610000000004 L 863.1950000000003,509.6660000000004 L 862.7500000000002,509.2570000000004 L 862.1630000000002,508.5490000000004 L 861.6650000000002,508.3580000000004 L 861.0280000000002,508.0650000000004 L 860.6620000000003,507.82100000000037 L 860.4400000000003,507.7030000000004 L 860.1940000000003,507.5200000000004 L 859.9700000000003,507.5610000000004 L 859.5830000000003,507.5660000000004 L 859.3400000000003,507.39400000000035 L 859.3090000000003,507.25900000000036 L 859.3460000000003,507.15300000000036 L 859.3600000000004,506.9600000000004 L 859.2750000000003,506.9310000000004 L 859.1890000000003,506.9310000000004 L 859.1180000000003,506.9830000000004 L 859.0190000000002,507.0210000000004 L 858.6770000000002,506.8730000000004 L 858.1980000000002,506.6260000000004 L 858.1080000000002,506.4090000000004 L 857.9570000000002,506.1440000000004 L 857.2950000000002,505.7590000000004 L 856.9110000000002,505.44100000000043 L 856.0630000000002,504.9800000000004 L 855.8460000000002,504.7570000000004 L 855.7750000000002,504.5620000000004 L 855.7120000000002,504.2810000000004 L 855.9020000000003,503.98900000000043 L 856.0870000000002,503.78200000000044 L 856.6640000000002,502.92300000000046 L 856.8370000000002,502.7730000000005 L 857.0540000000002,502.5400000000005 L 857.2530000000002,501.91300000000047 L 857.3520000000002,501.55500000000046 L 857.1830000000002,501.0130000000005 L 857.1770000000002,500.10300000000046 L 857.8470000000002,499.75000000000045 L 858.0340000000002,499.70400000000046 L 858.2070000000002,499.6260000000005 L 858.4050000000002,499.7360000000005 L 858.5380000000002,499.9070000000005 L 858.6760000000003,499.8760000000005 L 859.0500000000003,499.2420000000005 L 858.9900000000004,498.97800000000046 L 858.8350000000004,498.75300000000044 L 858.8890000000004,498.61400000000043 L 860.0410000000004,497.37300000000045 L 859.9000000000004,497.06900000000047 L 859.7290000000004,496.9990000000005 L 859.4010000000004,497.0200000000005 L 859.0920000000004,496.7550000000005 L 858.8980000000005,496.25400000000053 L 858.6260000000004,496.23600000000056 L 858.1400000000004,496.75000000000057 L 858.0830000000004,496.86800000000056 L 858.2010000000005,496.93500000000057 L 858.3040000000004,497.2470000000006 L 858.1140000000004,497.61300000000057 L 857.9240000000003,497.61600000000055 L 857.6120000000003,497.58000000000055 L 857.4700000000003,497.3190000000005 L 857.4060000000003,496.9210000000005 L 857.2080000000003,496.8090000000005 L 856.9820000000003,496.88400000000047 L 856.7950000000003,497.02400000000046 L 856.6630000000004,497.0640000000005 L 856.5530000000003,496.97300000000047 L 856.5470000000004,496.80700000000047 L 856.8320000000003,496.53100000000046 L 857.0710000000004,496.35400000000044 L 857.0900000000004,496.28800000000047 L 856.9160000000004,496.2340000000005 L 856.9420000000003,496.1060000000005 L 857.1640000000003,495.87900000000053 L 857.0600000000003,495.86700000000053 L 856.7890000000003,496.1100000000005 L 856.5000000000003,496.2500000000005 L 856.1160000000003,496.5480000000005 L 855.5650000000003,496.7430000000005 L 855.1870000000002,497.0070000000005 L 854.6600000000002,496.92700000000053 L 854.1690000000002,496.66700000000054 L 854.0620000000002,496.53000000000054 L 853.8200000000003,496.3290000000005 L 853.2810000000003,496.54700000000054 L 852.9420000000002,496.5240000000005 L 852.7550000000002,496.4470000000005 L 852.4360000000003,496.3950000000005 L 852.1620000000003,496.2020000000005 L 851.5020000000003,495.8940000000005 L 850.8010000000003,495.8350000000005 L 850.4610000000002,495.8490000000005 L 850.2080000000002,495.6900000000005 L 849.9640000000002,495.5990000000005 L 849.4850000000001,495.5350000000005 L 849.2860000000002,495.2960000000005 L 849.0350000000002,494.8150000000005 L 848.8550000000002,494.6860000000005 L 848.5640000000002,494.6400000000005 L 848.2550000000002,494.8610000000005 L 848.0740000000002,494.9650000000005 L 847.7210000000002,494.5700000000005 L 847.0940000000003,494.1620000000005 L 846.8940000000002,494.1060000000005 L 846.7890000000002,494.2050000000005 L 846.7130000000002,494.3930000000005 L 846.5940000000002,494.41100000000046 L 846.4550000000002,494.3260000000005 L 846.2100000000002,494.0850000000005 L 846.0500000000002,494.0410000000005 L 845.6300000000002,494.2980000000005 L 845.6590000000002,494.38600000000054 L 846.0020000000002,494.5170000000005 L 846.3620000000002,494.8760000000005 L 846.5330000000002,494.9500000000005 L 846.9370000000002,494.8560000000005 L 847.4910000000002,494.9240000000005 L 848.0500000000002,495.37200000000047 L 847.9680000000002,495.5950000000005 L 847.9260000000002,495.9050000000005 L 847.9410000000001,496.2430000000005 L 847.9280000000001,496.4720000000005 L 848.1580000000001,496.7240000000005 L 848.0550000000002,496.7430000000005 L 847.7950000000002,496.6860000000005 L 847.5900000000001,496.7560000000005 L 847.3970000000002,496.8750000000005 L 847.3110000000001,497.2140000000005 L 847.2020000000001,497.0540000000005 L 846.8680000000002,496.9020000000005 L 846.6700000000002,497.0190000000005 L 846.3380000000002,497.1730000000005 L 846.0360000000002,497.1110000000005 L 845.8440000000002,497.0330000000005 L 845.3900000000002,497.16500000000053 L 844.5810000000002,497.1610000000005 L 844.3110000000003,496.9710000000005 L 844.2320000000003,496.6450000000005 L 844.1690000000003,496.5650000000005 L 844.0950000000004,496.7110000000005 L 843.9680000000004,496.87900000000053 L 843.4790000000004,496.9130000000005 L 843.4060000000004,496.98200000000054 L 843.4350000000004,497.14500000000055 L 843.4160000000004,497.35000000000053 L 843.2280000000004,497.3650000000005 L 842.9960000000004,497.4190000000005 L 843.0210000000004,497.67000000000047 L 843.0640000000004,497.8660000000005 L 842.9780000000004,497.9640000000005 L 842.7230000000004,497.78500000000054 L 842.6090000000004,497.59200000000055 L 842.4300000000004,497.53200000000055 L 842.2900000000004,497.60100000000057 L 842.2540000000005,497.7730000000006 L 842.2750000000004,498.2170000000006 L 842.1480000000005,498.2670000000006 L 841.8170000000005,498.2500000000006 L 841.6650000000004,498.33400000000063 L 841.4360000000004,498.8920000000006 L 841.0150000000003,499.10500000000064 L 840.9510000000004,499.39600000000064 L 840.9230000000003,499.64400000000063 L 841.2730000000004,500.09300000000064 L 841.1040000000004,500.32300000000066 L 840.9260000000004,500.51100000000065 L 840.7480000000004,500.59100000000063 L 840.3700000000003,500.6640000000006 L 840.0920000000003,500.8690000000006 L 839.9750000000004,501.0850000000006 L 839.9530000000003,501.2910000000006 L 839.8760000000003,501.55500000000063 L 839.7550000000003,501.8680000000006 L 839.7310000000003,502.0370000000006 L 839.4780000000003,502.2050000000006 L 839.0280000000002,502.7080000000006 L 838.8010000000003,503.2230000000006 L 839.0970000000003,503.50300000000055 L 839.4450000000003,503.7040000000006 L 839.6980000000003,503.6980000000006 L 839.7000000000003,503.7490000000006 L 839.4360000000003,503.9560000000006 L 839.6000000000003,504.1680000000006 L 839.8530000000003,504.36600000000055 L 840.0070000000003,504.39500000000055 L 840.1200000000003,504.47900000000055 L 839.8810000000003,504.5260000000006 L 839.5270000000003,504.5430000000006 L 839.4590000000003,504.7590000000006 L 839.5020000000003,505.0080000000006 L 839.5650000000003,505.2240000000006 L 839.5210000000003,505.37700000000063 L 839.3890000000004,505.2720000000006 L 839.3310000000004,505.11000000000064 L 839.0270000000004,504.78000000000065 L 838.8090000000004,504.67900000000066 L 838.4900000000005,504.6010000000007 L 838.3940000000005,504.7010000000007 L 838.4070000000005,505.2040000000007 L 838.3440000000005,505.4350000000007 L 838.2310000000004,505.3040000000007 L 838.2030000000004,504.9360000000007 L 837.9020000000004,504.6380000000007 L 836.7160000000003,504.3400000000007 L 836.5480000000003,504.3210000000007 L 836.2720000000004,504.3600000000007 L 836.0830000000004,504.4780000000007 L 836.0640000000004,504.5940000000007 L 835.9380000000004,504.68800000000067 L 835.7330000000004,504.7950000000007 L 835.5450000000004,504.9590000000007 L 835.4230000000005,505.0960000000007 L 835.4170000000005,505.2670000000007 L 835.5690000000005,505.5880000000007 L 835.6580000000006,505.6810000000007 L 835.6460000000006,505.83400000000074 L 835.4980000000006,505.67500000000075 L 835.3680000000006,505.62400000000076 L 835.2450000000006,505.87400000000076 L 835.1270000000005,505.9240000000008 L 835.1580000000005,505.2260000000008 L 835.2810000000005,504.7530000000008 L 835.3810000000005,504.4740000000008 L 835.4910000000006,504.25600000000077 L 835.4380000000006,504.14100000000076 L 834.6160000000006,503.48800000000074 L 834.2680000000006,502.9530000000007 L 834.0130000000006,502.6530000000007 L 833.6160000000006,502.3640000000007 L 833.4090000000006,502.1820000000007 L 832.9480000000005,501.9040000000007 L 832.4040000000006,501.7110000000007 L 832.1420000000006,501.45000000000067 L 831.8530000000006,501.35700000000065 L 831.4950000000007,501.48400000000066 L 831.4650000000007,501.72700000000066 L 831.5100000000007,501.96300000000065 L 831.2250000000007,502.3490000000007 L 830.9180000000007,502.5550000000007 L 830.6730000000007,502.3190000000007 L 830.4500000000007,502.1470000000007 L 830.2250000000007,502.2710000000007 L 830.1570000000007,502.4840000000007 L 830.0440000000007,502.5630000000007 L 829.9590000000006,502.41800000000075 L 829.8360000000006,502.09800000000075 L 829.6530000000006,501.97100000000074 L 829.4700000000006,502.0270000000007 L 829.5250000000005,502.28100000000074 L 829.6300000000006,502.42100000000073 L 829.6010000000006,502.62300000000073 L 829.4690000000006,502.71600000000075 L 829.4440000000006,502.9070000000007 L 829.3650000000007,503.16100000000074 L 829.3770000000006,503.51600000000076 L 829.1680000000007,503.59100000000075 L 829.0120000000007,503.87200000000075 L 828.8990000000007,503.81200000000075 L 828.8700000000007,503.62900000000076 L 828.8130000000007,503.44200000000075 L 828.5850000000007,503.3710000000007 L 828.5010000000008,503.5450000000007 L 828.4500000000007,503.6040000000007 L 828.3690000000007,503.6160000000007 L 828.4240000000007,503.47400000000073 L 828.4240000000007,503.2080000000007 L 828.4900000000007,502.9300000000007 L 828.2740000000007,502.83000000000067 L 828.1880000000007,502.8920000000007 L 828.1910000000007,503.1320000000007 L 828.1390000000007,503.4820000000007 L 827.9250000000006,503.5370000000007 L 827.7350000000006,503.6940000000007 L 827.4540000000006,503.6970000000007 L 827.3110000000006,503.7730000000007 L 827.2600000000006,503.9580000000007 L 827.0130000000006,504.1490000000007 L 827.0180000000006,504.37800000000067 L 827.1840000000007,504.6100000000007 L 827.1950000000006,504.8120000000007 L 827.5900000000006,505.0170000000007 L 827.5670000000006,505.2230000000007 L 827.5110000000005,505.3190000000007 L 827.3620000000005,505.2810000000007 L 827.0430000000006,505.1030000000007 L 826.7180000000005,505.0650000000007 L 826.6200000000006,504.9830000000007 L 826.5810000000006,505.0420000000007 L 826.5790000000006,505.1790000000007 L 826.4530000000007,505.27900000000074 L 826.2720000000006,505.2890000000007 L 826.0610000000006,505.4360000000007 L 826.2110000000006,505.66600000000074 L 826.1840000000005,505.75700000000074 L 826.2580000000005,505.86700000000076 L 826.5800000000005,505.88700000000074 L 826.7170000000004,505.85800000000074 L 826.7310000000004,506.05400000000077 L 826.6900000000004,506.2500000000008 L 826.5590000000004,506.3200000000008 L 826.4340000000004,506.1400000000008 L 825.8130000000004,505.79500000000075 L 825.6500000000004,505.76200000000074 L 825.6160000000004,505.87000000000074 L 825.6450000000004,506.01100000000076 L 825.5140000000005,506.18200000000076 L 825.2830000000005,506.40600000000074 L 825.1260000000004,506.34500000000077 L 824.9400000000004,506.39800000000076 L 824.8200000000004,506.78100000000074 L 824.7780000000004,507.1640000000007 L 824.9840000000004,507.4320000000007 L 825.1220000000004,507.7850000000007 L 825.4090000000004,507.3510000000007 L 825.5260000000004,507.30100000000067 L 825.5270000000004,507.48900000000066 L 825.4150000000004,507.68400000000065 L 825.3490000000004,507.92400000000066 L 825.3270000000003,508.1950000000007 L 825.1390000000004,508.2020000000007 L 824.9280000000003,508.1660000000007 L 824.8770000000003,508.2520000000007 L 824.7980000000003,508.4540000000007 L 824.8440000000004,508.7330000000007 L 824.9840000000004,508.8380000000007 L 825.3090000000004,508.8280000000007 L 825.5860000000005,508.8480000000007 L 825.8330000000004,508.9490000000007 L 825.8740000000005,509.0340000000007 L 825.6510000000005,508.9860000000007 L 825.1950000000005,509.0120000000007 L 824.9780000000005,508.9740000000007 L 824.547,509.0 L 824.227,508.841 L 824.069,508.682 L 823.8299999999999,508.641 L 823.597,508.70500000000004 L 823.467,508.92800000000005 L 823.31,508.982 L 822.9449999999999,508.43 L 822.7159999999999,508.39300000000003 L 822.6029999999998,508.52200000000005 L 822.7129999999999,508.86800000000005 L 822.6549999999999,509.0810000000001 L 822.5299999999999,509.24000000000007 L 822.3719999999998,509.2300000000001 L 822.2739999999999,509.2970000000001 L 822.3519999999999,509.4430000000001 L 822.6019999999999,509.8140000000001 L 822.8069999999999,509.97600000000006 L 822.9889999999999,510.2010000000001 L 823.0819999999999,510.3950000000001 L 823.3019999999999,510.3860000000001 L 823.353,510.54300000000006 L 823.227,510.7710000000001 L 823.231,511.1330000000001 L 823.141,511.1520000000001 L 823.014,511.0720000000001 L 822.7620000000001,510.8490000000001 L 822.6320000000001,510.8060000000001 L 822.565,510.8700000000001 L 822.5440000000001,511.02300000000014 L 822.6050000000001,511.4230000000001 L 822.4760000000001,511.99400000000014 L 822.5020000000001,512.1610000000002 L 822.479,512.3030000000002 L 822.373,512.2000000000003 L 822.243,511.97900000000027 L 821.974,511.63600000000025 L 821.6450000000001,510.88900000000024 L 821.2970000000001,510.38300000000027 L 821.1080000000002,509.9520000000003 L 820.8170000000001,509.1410000000003 L 820.6660000000002,509.1290000000003 L 820.4730000000002,509.4780000000003 L 820.2600000000002,509.9370000000003 L 820.1150000000002,510.1630000000003 L 819.7710000000002,510.3880000000003 L 819.5590000000002,510.6160000000003 L 819.3050000000002,510.6960000000003 L 819.0260000000002,510.9560000000003 L 818.8250000000002,511.1790000000003 L 818.5430000000001,511.6990000000003 L 818.4950000000001,512.0340000000003 L 818.5070000000001,512.3870000000003 L 818.6300000000001,512.8880000000003 L 818.7600000000001,513.6160000000002 L 818.9510000000001,513.6940000000002 L 819.1050000000001,513.8170000000002 L 819.0620000000001,514.0370000000003 L 818.8280000000001,514.1760000000003 L 818.1100000000001,514.8650000000002 L 817.6270000000002,515.1110000000002 L 817.4890000000001,515.2840000000002 L 817.3120000000001,515.6490000000002 L 817.0560000000002,516.1100000000002 L 816.9400000000002,516.4010000000003 L 816.6710000000002,516.9650000000003 L 816.2330000000002,517.5950000000003 L 815.7900000000002,518.0630000000002 L 815.2790000000002,518.4380000000002 L 814.9440000000002,518.6170000000002 L 813.6960000000001,519.1410000000002 L 813.0300000000001,519.3410000000002 L 811.8270000000001,519.4870000000002 L 811.3170000000001,519.7240000000002 L 810.6790000000001,519.6470000000002 L 809.965,519.5960000000001 L 808.974,520.3880000000001 L 808.152,520.5810000000001 L 807.4240000000001,520.7260000000001 L 807.1110000000001,520.8560000000001 L 806.3950000000001,521.3130000000001 L 805.9780000000001,521.522 L 805.2,521.7560000000001 L 804.8810000000001,521.7320000000001 L 804.45,521.517 L 804.047,521.567 L 803.601,521.5360000000001 L 803.237,521.556 L 802.954,521.734 L 801.285,522.6800000000001 L 800.9549999999999,522.9380000000001 L 800.612,523.3130000000001 L 800.12,523.6600000000001 L 799.727,524.0600000000001 L 798.901,524.4770000000001 L 798.0509999999999,524.7930000000001 L 797.631,525.0560000000002 L 797.332,525.4130000000001 L 796.811,526.3730000000002 L 796.701,526.6160000000002 L 796.493,526.8690000000003 L 796.2170000000001,526.9610000000002 L 796.0380000000001,527.0430000000002 L 796.1010000000001,526.5610000000003 L 795.9020000000002,526.1330000000003 L 796.0420000000001,525.3160000000003 L 795.9900000000001,525.0720000000002 L 795.7060000000001,525.2310000000002 L 795.5250000000001,525.4050000000002 L 795.0660000000001,526.5890000000002 L 794.7520000000002,527.5120000000002 L 794.9900000000002,528.0420000000001 L 795.0670000000002,528.3500000000001 L 795.0660000000003,528.6810000000002 L 794.9820000000003,529.1570000000002 L 794.9880000000003,529.4670000000001 L 794.9600000000003,529.8800000000001 L 794.3880000000003,530.8380000000001 L 794.2100000000003,531.2550000000001 L 794.0180000000003,532.0570000000001 L 793.9950000000002,532.4290000000001 L 794.0090000000002,532.9860000000001 L 794.2500000000002,533.4740000000002 L 794.4340000000002,533.7760000000002 L 794.7190000000002,534.6500000000002 L 795.0610000000001,535.2310000000002 L 795.6240000000001,536.4020000000003 L 796.2450000000001,537.3520000000003 L 796.2850000000001,537.7160000000003 L 796.215,538.2060000000004 L 796.249,538.7130000000003 L 796.138,538.8620000000003 L 795.898,539.0370000000003 L 795.623,538.8120000000002 L 795.4830000000001,538.6170000000002 L 795.307,537.8990000000002 L 795.235,537.8580000000002 L 795.117,538.1720000000001 L 794.987,538.3090000000001 L 794.8689999999999,538.2160000000001 L 794.7789999999999,538.0970000000001 L 794.7569999999998,537.9730000000001 L 794.7969999999998,537.825 L 794.8399999999998,537.287 L 794.5819999999998,536.98 L 794.3529999999997,536.65 L 794.1059999999998,536.569 L 793.9539999999997,536.718 L 793.9489999999997,536.923 L 794.2799999999997,537.497 L 794.4929999999997,538.1189999999999 L 794.8219999999997,538.5079999999999 L 795.0159999999996,538.608 L 795.2329999999996,538.8449999999999 L 795.1859999999996,539.3699999999999 L 795.0289999999995,539.5659999999999 L 794.8979999999996,539.6659999999999 L 794.4709999999995,539.55 L 794.3719999999995,539.1719999999999 L 794.0379999999996,538.4289999999999 L 793.9299999999996,538.1409999999998 L 793.8379999999996,538.0629999999999 L 793.8009999999996,538.2049999999999 L 793.8079999999995,538.4609999999999 L 793.7459999999995,538.5709999999999 L 793.6809999999995,538.56 L 793.5489999999995,538.4259999999999 L 793.4299999999995,538.3539999999999 L 793.3579999999995,538.3789999999999 L 793.4879999999995,538.5639999999999 L 793.7739999999994,539.1119999999999 L 794.8299999999995,540.4559999999999 L 795.7249999999995,542.0219999999999 L 795.9219999999995,542.6419999999999 L 796.0209999999995,544.006 L 796.1099999999996,544.336 L 796.6379999999996,545.015 L 797.1549999999996,545.802 L 797.3069999999997,546.1940000000001 L 797.3039999999996,546.5300000000001 L 797.4089999999997,546.849 L 798.0509999999997,547.715 L 798.3369999999996,548.645 L 798.3719999999996,548.985 L 798.2899999999996,549.569 L 798.3649999999997,550.602 L 798.4369999999997,551.164 L 798.6699999999996,552.278 L 798.9479999999996,553.082 L 799.2769999999996,553.582 L 799.7269999999996,554.694 L 800.4109999999996,555.978 L 800.5219999999996,556.6129999999999 L 800.4869999999996,558.3059999999999 L 800.4379999999996,558.858 L 800.2879999999997,558.953 L 800.1869999999997,559.1859999999999 L 800.3329999999996,560.3 L 800.3669999999996,560.9359999999999 L 800.1459999999996,561.536 L 799.8959999999996,562.069 L 799.4569999999997,562.433 L 798.9599999999997,562.4449999999999 L 798.7289999999997,562.233 L 798.4339999999997,562.016 L 798.3819999999997,562.985 L 798.3759999999997,563.817 L 798.4659999999998,564.134 L 798.4759999999998,564.508 L 798.8099999999997,564.7990000000001 L 798.9979999999997,564.686 L 799.2299999999997,564.6700000000001 L 800.0369999999997,565.0820000000001 L 800.4899999999997,565.4220000000001 L 801.2199999999997,566.3360000000001 L 801.8659999999996,566.5770000000001 L 802.7079999999996,566.9930000000002 L 803.6859999999996,567.1250000000001 L 804.4679999999996,567.1490000000001 L 805.6969999999997,567.3680000000002 L 805.9599999999997,567.2900000000002 L 806.4859999999996,567.2220000000002 L 806.8879999999997,567.0800000000002 L 807.2499999999997,566.9890000000001 L 808.3299999999997,566.1400000000001 L 809.3829999999997,565.2660000000001 L 809.9039999999997,565.1970000000001 L 810.3709999999996,565.1870000000001 L 810.9409999999997,564.8890000000001 L 811.4589999999997,563.9860000000001 L 811.7229999999997,563.7850000000001 L 812.0739999999997,563.5600000000001 L 813.0709999999997,563.4280000000001 L 813.6579999999997,563.5210000000001 L 813.9719999999996,563.3750000000001 L 814.7689999999997,563.2120000000001 L 816.4269999999997,563.0620000000001 L 817.3369999999996,563.1830000000001 L 817.9449999999996,563.1630000000001 L 818.2669999999996,563.2230000000001 L 818.5189999999996,563.618 L 820.2779999999996,563.278 L 820.7779999999996,563.254 L 821.0909999999996,563.311 L 821.4849999999996,563.606 L 821.9269999999996,563.327 L 822.3239999999996,563.364 L 822.7259999999997,563.095 L 823.3369999999996,562.289 L 823.6149999999997,561.786 L 824.0599999999997,560.727 L 824.3899999999998,560.347 L 824.7529999999998,560.158 L 825.1789999999999,560.097 L 825.8359999999999,559.906 L 827.2609999999999,559.015 L 827.8139999999999,558.823 L 828.1059999999999,558.655 L 829.0869999999999,557.9639999999999 L 829.7019999999999,557.8309999999999 L 831.5059999999999,558.0099999999999 L 832.3609999999999,557.9639999999998 L 833.0229999999999,557.8559999999999 L 834.0279999999999,557.4839999999999 L 835.122,557.204 L 836.4649999999999,556.616 L 837.5869999999999,556.008 L 838.2659999999998,555.868 L 839.3349999999998,555.7610000000001 L 840.9089999999998,555.6030000000001 L 842.7419999999997,555.6850000000001 L 843.2059999999998,555.5600000000001 L 843.4339999999997,555.4490000000001 L 843.7549999999998,555.33 L 844.1509999999997,555.413 L 844.4549999999997,555.503 L 845.3749999999997,555.988 L 846.7609999999996,557.009 L 847.0669999999997,557.052 L 847.9789999999997,556.8190000000001 L 848.2839999999997,556.8420000000001 L 849.5599999999996,557.5920000000001 L 850.0889999999996,557.6080000000001 L 850.5119999999996,557.589 L 850.8319999999997,557.6700000000001 L 851.1719999999997,557.874 L 851.5749999999997,558.346 L 852.4279999999997,558.799 L 852.4709999999997,559.165 L 852.4079999999997,559.403 L 852.2159999999997,559.412 L 852.0529999999997,559.4630000000001 L 852.2579999999997,560.2300000000001 L 852.6159999999996,560.8500000000001 L 853.4759999999997,560.9340000000001 L 853.7889999999996,561.1510000000001 L 853.9899999999997,561.3960000000001 L 854.1469999999997,561.7850000000001 L 854.2639999999997,562.3940000000001 L 854.6949999999997,562.9020000000002 L 855.0969999999998,563.3360000000001 L 855.1909999999998,563.5150000000001 L 855.3799999999998,564.1300000000001 L 855.4519999999998,564.3100000000001 L 855.6089999999998,564.9190000000001 L 855.8379999999999,565.6150000000001 L 855.7749999999999,565.6860000000001 L 855.6389999999999,565.6710000000002 L 855.3969999999999,565.4940000000001 L 855.184,565.2970000000001 L 855.0699999999999,565.3280000000001 L 854.9399999999999,565.4630000000001 L 854.9209999999999,565.6300000000001 L 855.111,565.5860000000001 L 855.222,565.6100000000001 L 855.485,565.8230000000001 L 855.73,566.0710000000001 L 855.924,566.2160000000001 L 856.3919999999999,566.8340000000002 L 856.5749999999999,566.6960000000001 L 856.799,566.5730000000001 L 857.155,566.9090000000001 L 857.297,566.9760000000001 L 857.378,566.8470000000001 L 857.243,566.2440000000001 L 857.1080000000001,566.0980000000002 L 857.076,565.8840000000001 L 857.243,565.7310000000001 L 857.3240000000001,565.5480000000001 L 857.7210000000001,565.0970000000001 L 858.5900000000001,563.7500000000001 L 858.8570000000002,563.5960000000001 L 859.1650000000002,563.3010000000002 L 859.5810000000002,563.0760000000001 L 860.0110000000002,562.8090000000001 L 860.2850000000002,562.705 L 860.5540000000002,562.6500000000001 L 860.8550000000002,562.4030000000001 L 861.1830000000002,561.7350000000001 L 861.4300000000002,560.9440000000001 L 861.6940000000002,560.5960000000001 L 862.0980000000002,560.2250000000001 L 862.4090000000002,559.7100000000002 L 862.3840000000002,559.3070000000001 L 862.3880000000003,558.8960000000002 L 862.6120000000003,559.2130000000002 L 862.7530000000003,559.5350000000002 L 862.9760000000002,560.6120000000002 L 862.7850000000002,560.8490000000002 L 862.5830000000002,560.9680000000002 L 862.6220000000002,561.3460000000002 L 862.7570000000002,561.8390000000003 L 862.8070000000001,562.2340000000003 L 862.3830000000002,562.6510000000003 L 862.0170000000002,563.1750000000003 L 861.5780000000002,564.1930000000003 L 861.5500000000002,564.5010000000003 L 861.4810000000002,564.9290000000003 L 861.5070000000002,565.3060000000003 L 861.5750000000002,565.6710000000003 L 861.4670000000002,566.2370000000003 L 861.2900000000002,566.7430000000003 L 861.0580000000002,566.7560000000003 L 860.9000000000002,566.7370000000003 L 860.5530000000002,566.7820000000003 L 860.2330000000002,566.7520000000003 L 859.8660000000002,567.8580000000003 L 860.0990000000002,567.9100000000003 L 860.2770000000002,567.8470000000003 L 860.5980000000002,567.8470000000003 L 860.9570000000002,567.6490000000003 L 861.4820000000002,567.4870000000003 L 861.7820000000002,567.5440000000003 L 862.1340000000001,567.5260000000003 L 862.6460000000001,566.1100000000002 L 862.773,565.1890000000002 L 863.034,564.7760000000002 L 863.115,564.4910000000002 L 863.25,564.2210000000002 L 863.522,564.6850000000003 L 863.7410000000001,565.1360000000003 L 864.2230000000001,565.8680000000003 L 864.374,566.2330000000003 L 864.434,567.1210000000003 L 864.121,568.1510000000003 L 863.933,568.4460000000003 L 863.706,568.7030000000002 L 863.516,569.1360000000002 L 864.091,569.2460000000002 L 864.464,569.2380000000002 L 865.047,568.9230000000001 L 865.162,568.8810000000001 L 865.455,568.8760000000001 L 865.567,568.7110000000001 L 865.854,568.5540000000001 L 866.0680000000001,568.3700000000001 L 866.3450000000001,568.2250000000001 L 866.5970000000001,568.3210000000001 L 866.6540000000001,568.4040000000001 L 866.7170000000001,568.4970000000001 L 866.6240000000001,568.701 L 866.6160000000001,569.1320000000001 L 866.4510000000001,569.085 L 866.3040000000001,568.8290000000001 L 866.1200000000001,568.8950000000001 L 865.9920000000001,569.0880000000001 L 865.7170000000001,569.027 L 865.7630000000001,569.153 L 865.9100000000002,569.4 L 866.4910000000002,569.876 L 867.1120000000002,570.507 L 867.3430000000002,570.805 L 867.8490000000002,571.756 L 868.2090000000002,572.7669999999999 L 868.1800000000002,573.0659999999999 L 868.0030000000002,573.6059999999999 L 867.8760000000002,574.1549999999999 L 867.8870000000002,574.4429999999999 L 868.0040000000001,574.8079999999999 L 868.2590000000001,575.1819999999999 L 869.2050000000002,576.2029999999999 L 869.7050000000002,577.1029999999998 L 870.3700000000001,577.5699999999998 L 871.4470000000001,577.7419999999998 L 872.0160000000001,578.0799999999998 L 872.6070000000001,578.7619999999998 L 872.7950000000001,578.8199999999998 L 873.0820000000001,578.8479999999998 L 873.4500000000002,578.4329999999999 L 874.0110000000002,578.4769999999999 L 874.7490000000003,578.8889999999999 L 875.1880000000002,578.7909999999999 L 875.5010000000002,578.842 L 875.9390000000002,579.0749999999999 L 876.5800000000002,579.536 L 877.2600000000001,579.7679999999999 L 877.6640000000001,580.117 L 877.9780000000001,580.169 L 878.541,580.396 L 878.955,580.202 L 879.307,579.958 L 880.12,579.1129999999999 L 880.757,578.7059999999999 L 881.092,578.5479999999999 L 881.361,578.4779999999998 L 881.702,578.2139999999998 L 881.49,578.0279999999998 L 881.289,578.0589999999997 L 880.9449999999999,577.9539999999997 L 881.141,577.8319999999998 L 881.346,577.7409999999998 L 882.336,577.1129999999997 L 882.599,577.2989999999998 L 882.7810000000001,577.5069999999997 L 882.9780000000001,577.7919999999997 L 882.83,578.1949999999997 L 882.6980000000001,578.3849999999998 L 882.3930000000001,578.6899999999997 L 882.0250000000001,578.7019999999997 L 881.8500000000001,578.6769999999997 L 882.2130000000002,579.0189999999997 L 882.5270000000002,579.2489999999997 L 883.1770000000001,578.8309999999997 L 883.3390000000002,578.5019999999997 L 883.4620000000002,578.3109999999997 L 883.6680000000002,578.2689999999997 L 883.9760000000002,578.3329999999996 L 884.0950000000003,578.5739999999996 L 884.1620000000003,578.8679999999996 L 883.9390000000003,578.9479999999996 L 883.8310000000004,579.1659999999996 L 883.7550000000003,579.3729999999996 L 884.1430000000004,579.6389999999996 L 884.3420000000003,579.8079999999995 L 884.5820000000003,579.8039999999995 L 884.8590000000004,579.8449999999996 L 885.0690000000004,580.2359999999995 L 885.2650000000004,580.6869999999996 L 885.4970000000004,580.5619999999996 L 885.6420000000004,580.4439999999995 L 885.8900000000004,580.5569999999996 L 886.1600000000004,580.9119999999996 L 886.3790000000005,581.3149999999996 L 886.4010000000005,581.4849999999996 L 886.5690000000005,581.5629999999995 L 886.7280000000005,581.4429999999995 L 886.8040000000005,581.2729999999996 L 886.7980000000006,580.9599999999996 L 886.7550000000006,580.4659999999996 L 886.6440000000006,580.3909999999995 L 886.3910000000005,580.6589999999995 L 886.2470000000005,580.4649999999996 L 886.0530000000006,580.2589999999996 L 886.0560000000006,580.0599999999996 L 886.2670000000006,579.9609999999996 L 886.4460000000006,580.0039999999996 L 886.6700000000006,580.0039999999996 L 887.8520000000007,579.8309999999996 L 889.3640000000006,578.2459999999995 L 890.0260000000006,577.6649999999995 L 890.7140000000006,577.2339999999995 L 891.4260000000006,576.9569999999994 L 891.7970000000006,576.8679999999994 L 893.7090000000006,576.7189999999994 L 894.7040000000006,576.7669999999994 L 895.2160000000006,576.6579999999993 L 895.4530000000005,576.5119999999994 L 895.8550000000006,576.1129999999994 L 896.1370000000006,575.8689999999993 L 896.4830000000006,575.8009999999994 L 896.5670000000006,575.5029999999994 L 896.5680000000006,575.1839999999994 L 896.6340000000006,574.8509999999994 L 896.5330000000006,574.2259999999994 L 896.5600000000006,573.4049999999994 L 896.6380000000006,572.9769999999994 L 896.8470000000005,572.3759999999994 L 896.9390000000005,571.7589999999994 L 897.0330000000006,570.8849999999994 L 897.1160000000006,570.3669999999994 L 897.2200000000006,569.8939999999994 L 897.4910000000006,569.3729999999995 L 897.7210000000006,569.0359999999995 L 898.2640000000006,567.7679999999995 L 898.4520000000006,567.6429999999995 L 898.6090000000006,567.6429999999995 L 898.6770000000006,567.5659999999995 L 898.6980000000005,567.4959999999994 L 898.6520000000005,567.4449999999994 L 898.5830000000005,567.2979999999993 L 898.6290000000006,567.1789999999993 L 898.7940000000006,567.0609999999992 L 898.8460000000006,567.1059999999992 L 898.9300000000005,567.0809999999992 L 898.9430000000006,567.0159999999992 L 898.8650000000006,566.6689999999992 L 898.9790000000006,566.1829999999992 L 899.1180000000006,565.3339999999992 L 899.2750000000007,564.9529999999992 L 899.3680000000006,564.6499999999992 L 899.7310000000007,564.1949999999991 L 900.1280000000007,563.7469999999992 L 900.0150000000007,563.6989999999992 L 899.8290000000006,563.6649999999992 L 899.9490000000006,563.5579999999992 L 900.0440000000007,563.5259999999992 L 900.1650000000006,563.5969999999992 L 900.2650000000007,563.3999999999992 L 900.2870000000007,563.0909999999992 L 900.3840000000007,562.6349999999992 L 900.2980000000007,562.2379999999991 L 900.4820000000007,562.1139999999991 L 900.6910000000006,562.0389999999991 L 900.7790000000006,561.622999999999 L 900.8370000000006,561.455999999999 L 900.9670000000006,561.300999999999 L 901.1850000000005,560.969999999999 L 901.3560000000006,560.624999999999 L 901.7610000000005,559.966999999999 L 902.1570000000005,559.697999999999 L 902.7470000000005,559.489999999999 L 902.8130000000006,559.370999999999 L 902.6630000000006,559.297999999999 L 902.6690000000006,559.225999999999 L 902.8910000000005,559.225999999999 L 902.9810000000006,558.995999999999 L 903.2150000000006,558.825999999999 L 903.6060000000006,558.433999999999 L 903.7360000000006,558.0739999999989 L 903.8170000000006,557.7859999999989 L 903.8560000000006,557.134999999999 L 904.4920000000005,556.2809999999989 L 904.9350000000005,555.1279999999989 L 905.0420000000005,554.3889999999989 L 905.1520000000005,553.9899999999989 L 905.2260000000005,553.4059999999989 L 905.1590000000004,552.797999999999 L 905.1780000000005,552.288999999999 L 905.6200000000005,550.9969999999989 L 905.7210000000005,550.4639999999989 L 905.8570000000004,550.1219999999989 L 906.0660000000004,548.8489999999989 L 906.0700000000004,548.1889999999989 L 906.3900000000004,547.4209999999989 L 906.7890000000004,546.7959999999989 L 906.8230000000004,546.2179999999989 L 906.6890000000004,545.773999999999 L 906.708,544.836 M 840.911,495.874 L 841.433,495.723 L 841.953,495.90500000000003 L 842.244,495.85100000000006 L 842.234,495.72800000000007 L 842.1700000000001,495.62500000000006 L 842.0640000000001,495.5280000000001 L 841.8330000000001,495.46100000000007 L 841.7590000000001,495.21200000000005 L 841.6260000000001,494.97800000000007 L 841.6020000000001,494.7220000000001 L 841.4970000000001,494.4860000000001 L 841.373,494.4860000000001 L 841.25,494.5530000000001 L 840.974,494.88600000000014 L 841.071,495.06800000000015 L 841.1,495.4010000000002 L 840.936,495.5110000000002 L 840.748,495.4650000000002 L 840.667,495.7690000000002 L 840.7610000000001,495.8770000000002 L 840.911,495.874 M 793.203,537.66 L 793.202,537.444 L 793.102,537.235 L 792.783,536.322 L 792.683,536.357 L 792.575,536.476 L 792.7320000000001,537.136 L 793.2710000000001,538.103 L 793.345,537.9749999999999 L 793.248,537.7289999999999 L 793.203,537.66 M 799.535,522.186 L 799.698,521.9530000000001 L 799.7289999999999,521.7400000000001 L 799.665,521.5960000000001 L 799.4399999999999,521.8290000000001 L 799.3109999999999,522.022 L 799.3369999999999,522.1400000000001 L 799.535,522.186 M 825.175,506.197 L 825.275,506.222 L 825.38,506.14 L 825.402,506.009 L 825.288,505.877 L 825.25,505.76 L 825.161,505.752 L 825.1179999999999,505.824 L 825.058,505.963 L 825.173,506.08500000000004 L 825.175,506.197 M 827.068,503.766 L 827.053,503.68800000000005 L 827.066,503.46400000000006 L 826.9590000000001,503.4100000000001 L 826.84,503.51400000000007 L 826.767,503.8020000000001 L 826.889,503.9460000000001 L 827.068,503.766 M 889.243,596.164 L 889.172,596.295 L 889.149,596.413 L 889.085,596.476 L 889.202,596.559 L 889.233,596.747 L 889.2969999999999,596.779 L 889.473,596.779 L 889.3689999999999,596.309 L 889.243,596.164 M 889.13,596.931 L 889.05,596.926 L 888.91,597.124 L 888.87,597.2810000000001 L 888.8100000000001,597.311 L 888.7710000000001,597.421 L 888.71,597.5070000000001 L 888.546,597.44 L 888.547,597.5100000000001 L 888.684,597.7760000000001 L 888.9019999999999,597.711 L 889.1199999999999,597.779 L 889.2519999999998,597.379 L 889.2139999999998,597.184 L 889.13,596.931 M 891.461,594.393 L 891.264,594.306 L 891.123,594.486 L 891.1460000000001,594.573 L 891.142,594.769 L 891.195,594.7860000000001 L 891.3520000000001,594.7520000000001 L 891.3410000000001,594.639 L 891.5340000000001,594.529 L 891.461,594.393 M 862.795,569.516 L 862.534,569.64 L 861.862,569.559 L 861.867,569.502 L 861.971,569.276 L 861.829,569.151 L 861.6759999999999,569.0989999999999 L 861.1249999999999,569.0559999999999 L 860.4449999999999,569.3009999999999 L 859.174,569.5939999999999 L 859.006,569.8 L 858.899,570.0809999999999 L 859.036,570.2369999999999 L 859.501,570.5749999999998 L 859.943,570.6209999999999 L 860.26,570.5419999999999 L 860.602,570.5949999999999 L 860.776,570.3989999999999 L 861.26,570.5319999999999 L 861.446,570.7189999999999 L 861.844,570.554 L 861.9340000000001,570.247 L 862.071,570.108 L 862.533,570.0039999999999 L 863.028,570.1409999999998 L 863.181,570.1169999999998 L 863.341,569.9499999999998 L 863.125,569.6149999999998 L 862.795,569.516 M 880.173,583.871 L 880.09,583.336 L 879.836,583.126 L 879.69,583.139 L 879.663,583.409 L 879.495,583.561 L 879.446,583.6990000000001 L 879.455,584.0120000000001 L 879.3810000000001,584.3030000000001 L 879.5190000000001,584.5930000000001 L 879.4860000000001,584.8860000000001 L 879.5500000000001,585.0920000000001 L 879.6320000000001,585.0770000000001 L 879.932,584.9390000000001 L 880.149,584.734 L 880.23,584.484 L 880.1320000000001,584.193 L 880.173,583.871 M 822.568,497.617 L 822.566,497.588 L 822.503,497.583 L 822.505,497.612 L 822.568,497.617" id="AU" title="Australia"/>
</svg>
