<svg xmlns="http://www.w3.org/2000/svg" xmlns:ev="http://www.w3.org/2001/xml-events" xmlns:xlink="http://www.w3.org/1999/xlink" baseProfile="full" height="2.2220001220703125" version="1.1" viewBox="530.47900390625 249.5489959716797 3.06597900390625 2.2220001220703125" width="3.06597900390625">
	<defs/>
	<path class="land" d="M 531.8,249.859 L 531.886,249.86 L 531.925,249.812 L 532.0749999999999,249.846 L 532.3009999999999,250.065 L 532.347,250.184 L 532.502,250.245 L 532.5559999999999,250.368 L 532.376,250.75 L 532.265,250.757 L 532.182,250.709 L 532.035,250.751 L 531.949,250.823 L 531.92,250.982 L 531.925,251.314 L 531.2679999999999,251.38 L 531.117,251.283 L 530.91,250.528 L 530.952,250.332 L 531.091,250.249 L 531.21,250.231 L 531.2280000000001,250.63899999999998 L 531.403,250.59799999999998 L 531.458,250.32899999999998 L 531.4699999999999,250.14 L 531.4229999999999,250.04399999999998 L 531.3039999999999,249.96999999999997 L 531.2349999999999,249.84299999999996 L 531.334,249.63799999999995 L 531.5169999999999,249.54899999999995 L 531.675,249.82299999999995 L 531.8,249.859 M 530.881,250.786 L 530.896,250.912 L 530.789,250.88 L 530.706,250.923 L 530.65,251.078 L 530.528,251.022 L 530.479,250.79899999999998 L 530.57,250.46499999999997 L 530.787,250.45199999999997 L 530.881,250.786 M 533.545,251.609 L 533.5229999999999,251.74200000000002 L 533.2939999999999,251.77100000000002 L 533.1979999999999,251.65300000000002 L 532.9839999999998,251.668 L 532.9469999999998,251.609 L 533.0359999999998,251.491 L 533.2059999999998,251.417 L 533.4279999999998,251.447 L 533.545,251.609" id="AX" title="Aland Islands"/>
</svg>
