<svg xmlns="http://www.w3.org/2000/svg" xmlns:ev="http://www.w3.org/2001/xml-events" xmlns:xlink="http://www.w3.org/1999/xlink" baseProfile="full" height="12.777008056640625" version="1.1" viewBox="601.3400268554688 333.6860046386719 15.71295166015625 12.777008056640625" width="15.71295166015625" fill="#00394f">
	<defs/>
	<path class="land" d="M 612.019,333.862 L 612.277,334.079 L 612.724,334.66700000000003 L 613.361,335.62100000000004 L 613.5169999999999,335.891 L 613.6199999999999,336.20300000000003 L 613.709,336.58000000000004 L 613.8549999999999,336.91300000000007 L 614.5009999999999,337.75000000000006 L 614.7799999999999,338.0590000000001 L 615.2349999999999,338.4570000000001 L 615.3969999999999,338.5460000000001 L 615.6089999999999,338.5710000000001 L 615.9999999999999,338.57200000000006 L 616.3599999999999,338.72800000000007 L 616.5379999999999,338.83700000000005 L 616.7219999999999,338.99500000000006 L 616.8869999999998,339.17800000000005 L 617.0529999999999,339.66400000000004 L 616.4279999999999,339.504 L 615.7979999999999,339.529 L 615.4429999999999,339.633 L 615.0969999999999,339.77599999999995 L 614.7659999999998,339.977 L 614.5589999999999,340.368 L 614.3849999999999,341.27 L 614.1299999999999,342.111 L 614.1389999999999,342.49899999999997 L 614.2499999999999,342.87199999999996 L 614.2369999999999,343.04799999999994 L 614.1209999999999,343.12299999999993 L 613.9749999999999,343.28099999999995 L 613.7799999999999,344.04699999999997 L 613.6829999999999,344.2 L 613.5579999999999,344.295 L 613.5239999999999,344.20500000000004 L 613.5319999999999,344.004 L 613.257,343.827 L 613.112,344.026 L 613.011,344.447 L 612.81,344.888 L 612.8,344.972 L 612.8499999999999,346.33099999999996 L 612.7699999999999,346.325 L 612.1949999999998,346.46299999999997 L 612.0749999999998,346.419 L 611.5829999999999,345.793 L 611.4809999999999,345.724 L 611.2689999999999,345.69599999999997 L 611.1439999999999,345.59299999999996 L 611.0429999999999,345.42499999999995 L 610.9849999999999,345.29999999999995 L 610.4759999999999,344.96 L 610.4009999999998,344.835 L 610.3899999999999,344.72499999999997 L 610.4649999999999,344.626 L 610.5509999999999,344.54299999999995 L 610.8,344.45799999999997 L 611.0899999999999,344.385 L 611.1829999999999,344.332 L 611.2299999999999,344.241 L 611.2269999999999,344.09499999999997 L 611.1799999999998,343.95099999999996 L 610.7629999999998,343.68999999999994 L 610.7169999999998,343.57699999999994 L 610.7039999999997,343.43899999999996 L 610.7269999999997,343.294 L 610.7919999999998,343.181 L 611.1319999999998,343.027 L 611.3139999999999,342.86699999999996 L 611.2009999999998,342.68899999999996 L 610.8339999999998,342.282 L 610.3979999999998,341.834 L 610.1069999999997,341.83 L 609.7719999999997,341.962 L 609.2359999999998,342.344 L 608.9399999999997,342.507 L 608.5529999999998,342.777 L 608.1319999999997,343.077 L 607.7869999999997,343.395 L 607.5719999999997,343.65799999999996 L 607.1899999999997,343.77199999999993 L 606.9949999999997,343.99199999999996 L 606.3539999999997,344.65 L 606.1739999999998,344.642 L 606.1629999999998,344.315 L 606.1719999999998,344.056 L 606.1309999999997,343.907 L 605.9229999999998,343.702 L 605.9199999999997,343.614 L 605.9759999999998,343.55899999999997 L 606.1349999999998,343.592 L 606.3399999999998,343.58 L 606.4379999999998,343.49899999999997 L 606.2189999999997,343.229 L 606.0239999999997,343.048 L 605.8589999999997,342.926 L 605.8219999999997,342.853 L 605.8219999999997,342.801 L 605.8569999999996,342.739 L 606.1389999999997,342.59 L 606.1669999999997,342.453 L 606.1479999999997,342.29999999999995 L 605.6999999999997,342.07399999999996 L 605.3649999999997,342.157 L 605.0639999999996,341.90299999999996 L 604.8709999999996,341.70699999999994 L 604.6299999999997,341.4959999999999 L 604.4149999999996,341.37999999999994 L 604.2079999999996,341.11499999999995 L 603.8489999999996,340.8419999999999 L 603.6189999999996,340.76399999999995 L 603.6219999999996,340.722 L 603.6639999999996,340.67199999999997 L 603.7599999999996,340.63 L 604.3999999999996,340.641 L 604.4779999999996,340.59200000000004 L 604.5179999999996,340.47400000000005 L 604.6049999999996,340.30000000000007 L 604.7069999999995,340.0440000000001 L 604.6989999999995,339.8280000000001 L 604.0559999999995,339.4790000000001 L 603.5899999999995,339.1570000000001 L 603.2669999999995,338.7330000000001 L 603.0479999999994,338.3440000000001 L 603.0559999999995,338.21300000000014 L 603.1189999999995,338.0890000000001 L 603.6189999999995,337.73000000000013 L 603.6529999999995,337.6370000000001 L 603.6419999999995,337.5740000000001 L 603.4629999999995,337.3900000000001 L 603.2389999999995,337.2000000000001 L 603.1689999999994,337.0600000000001 L 603.0279999999995,336.9890000000001 L 602.7599999999994,336.9840000000001 L 602.2899999999994,336.7500000000001 L 602.1899999999994,336.7270000000001 L 602.1679999999993,336.6810000000001 L 602.1909999999993,336.63400000000007 L 602.5259999999994,336.53900000000004 L 602.5209999999994,336.46100000000007 L 602.4189999999994,336.35800000000006 L 602.2299999999994,336.2830000000001 L 602.0559999999995,336.09600000000006 L 601.9959999999995,335.92800000000005 L 602.6009999999995,335.43600000000004 L 602.7799999999995,335.33700000000005 L 603.1759999999995,335.42800000000005 L 603.9989999999995,335.75500000000005 L 603.9429999999994,335.93600000000004 L 604.0259999999994,336.038 L 604.2149999999993,336.176 L 604.5779999999994,336.316 L 604.8849999999994,336.388 L 605.0399999999994,336.32599999999996 L 605.2759999999994,336.27399999999994 L 605.5829999999994,336.4359999999999 L 605.8659999999994,336.6409999999999 L 606.0069999999994,336.72399999999993 L 606.0829999999994,336.7489999999999 L 606.2979999999994,336.6809999999999 L 606.5559999999995,336.4169999999999 L 606.6579999999994,336.0979999999999 L 606.6859999999995,335.9439999999999 L 606.5359999999995,335.7319999999999 L 606.2259999999995,335.5019999999999 L 605.8789999999996,335.2999999999999 L 605.6559999999996,335.1209999999999 L 605.5129999999996,334.7679999999999 L 605.3689999999996,334.7289999999999 L 605.3329999999996,334.68299999999994 L 605.3089999999996,334.56199999999995 L 605.3149999999996,334.39399999999995 L 605.3639999999996,334.26399999999995 L 605.5049999999995,334.20799999999997 L 605.6469999999996,334.188 L 605.7749999999996,334.06399999999996 L 605.9359999999996,333.82099999999997 L 606.0039999999996,333.686 L 606.3059999999996,333.763 L 606.3469999999996,333.981 L 606.4009999999996,334.027 L 606.5259999999996,334.001 L 606.7339999999996,333.90999999999997 L 606.8999999999996,333.97999999999996 L 607.1139999999997,334.239 L 607.4089999999997,334.512 L 607.5689999999996,334.696 L 607.6319999999996,334.822 L 607.7829999999996,334.945 L 608.0039999999996,335.089 L 608.1799999999996,335.315 L 608.3369999999996,335.839 L 608.4959999999996,335.96 L 609.0649999999996,336.159 L 609.2649999999996,336.2 L 609.8239999999996,336.27 L 610.0209999999996,336.21999999999997 L 610.3089999999996,335.76899999999995 L 610.5679999999996,335.304 L 610.8099999999996,335.207 L 611.2469999999996,334.98199999999997 L 611.5089999999996,334.76899999999995 L 611.6189999999996,334.53899999999993 L 611.8659999999995,334.1049999999999 L 612.019,333.862 M 603.542,338.429 L 603.57,338.30699999999996 L 603.4910000000001,338.25199999999995 L 603.4080000000001,338.24899999999997 L 603.3360000000001,338.30999999999995 L 603.3360000000001,338.46199999999993 L 603.4360000000001,338.4889999999999 L 603.542,338.429 M 602.058,336.91 L 601.997,336.952 L 601.904,336.91 L 601.876,336.81600000000003 L 601.8829999999999,336.71700000000004 L 601.9749999999999,336.694 L 602.05,336.72200000000004 L 602.0709999999999,336.81100000000004 L 602.058,336.91 M 605.119,344.749 L 604.578,344.641 L 603.605,344.408 L 603.337,344.288 L 603.084,343.96500000000003 L 602.933,343.809 L 602.71,343.60900000000004 L 602.5260000000001,343.533 L 602.3870000000001,343.39300000000003 L 602.3080000000001,343.18600000000004 L 602.1910000000001,343.00000000000006 L 601.9910000000001,342.78100000000006 L 601.5360000000001,342.03600000000006 L 601.4770000000001,341.9580000000001 L 601.3820000000001,341.83400000000006 L 601.34,341.76500000000004 L 601.6170000000001,341.708 L 602.0780000000001,341.54100000000005 L 602.2040000000001,341.62200000000007 L 602.339,341.79100000000005 L 602.407,341.93600000000004 L 602.419,342.204 L 602.4739999999999,342.247 L 602.699,342.15700000000004 L 602.8,342.26500000000004 L 602.973,342.39400000000006 L 603.2729999999999,342.52200000000005 L 603.7049999999999,342.321 L 603.92,342.269 L 604.097,342.273 L 604.193,342.336 L 604.227,342.54400000000004 L 604.192,342.80100000000004 L 604.142,342.94200000000006 L 604.2330000000001,343.04400000000004 L 604.5870000000001,343.29100000000005 L 604.7340000000002,343.42800000000005 L 604.6630000000001,343.6650000000001 L 604.9270000000001,344.2440000000001 L 605.0160000000002,344.4690000000001 L 605.119,344.749" id="AZ" title="Azerbaijan"/>
</svg>
