<svg xmlns="http://www.w3.org/2000/svg" xmlns:ev="http://www.w3.org/2001/xml-events" xmlns:xlink="http://www.w3.org/1999/xlink" baseProfile="full" height="10.550994873046875" version="1.1" viewBox="519.864013671875 320.6109924316406 10.7969970703125 10.550994873046875" width="10.7969970703125" fill="#00394f">
	<defs/>
	<path class="land" d="M 523.182,320.611 L 523.762,321.027 L 524.001,321.089 L 524.136,321.032 L 524.319,321.058 L 524.727,321.18 L 524.82,321.231 L 524.943,321.222 L 525.244,321.06 L 525.347,321.08 L 525.691,321.398 L 525.864,321.402 L 526.072,321.265 L 526.206,321.146 L 526.602,321.235 L 526.828,321.181 L 527.016,321.176 L 527.22,321.23 L 527.406,321.304 L 527.587,321.368 L 528.076,321.401 L 528.31,321.603 L 528.404,321.798 L 528.406,321.917 L 528.429,322.044 L 528.563,322.169 L 528.858,322.24 L 529.043,322.225 L 529.141,322.216 L 529.392,322.104 L 529.688,322.046 L 529.9,322.113 L 530.001,322.178 L 530.024,322.267 L 529.961,322.574 L 529.842,322.904 L 529.649,323.247 L 529.447,323.57 L 529.395,323.74 L 529.38,324.012 L 529.355,324.225 L 529.383,324.341 L 529.449,324.45 L 529.672,324.536 L 529.974,324.75 L 530.23,325.028 L 530.559,325.343 L 530.661,325.46 L 530.661,325.586 L 530.565,325.679 L 530.284,325.715 L 529.992,325.687 L 529.88,325.655 L 529.775,325.693 L 529.71,325.765 L 529.745,325.85 L 530.044,326.232 L 530.393,326.779 L 530.412,327.014 L 530.37,327.198 L 530.289,327.326 L 530.145,327.304 L 530.034,327.204 L 529.867,327.211 L 529.737,327.239 L 529.568,327.437 L 529.484,327.428 L 529.339,327.458 L 529.248,327.497 L 529.103,327.439 L 528.95,327.401 L 528.884,327.462 L 528.855,327.578 L 528.949,327.787 L 529.126,328.114 L 529.098,328.364 L 528.963,328.391 L 528.839,328.183 L 528.73,328.149 L 528.605,328.157 L 528.319,328.398 L 528.108,328.601 L 528.06,328.742 L 527.984,328.896 L 527.961,329.008 L 527.966,329.379 L 527.587,329.438 L 527.508,329.493 L 527.462,329.605 L 527.493,330.08 L 527.524,330.335 L 527.741,330.727 L 527.749,330.851 L 527.718,330.933 L 527.563,331.088 L 527.49,331.144 L 527.441,331.162 L 527.189,331.06 L 527.069,331.011 L 526.564,330.665 L 526.341,330.472 L 525.988,330.22 L 525.771,330.076 L 525.661,329.858 L 525.487,329.808 L 525.283,329.878 L 525.052,329.72 L 525.216,329.639 L 525.256,329.561 L 525.235,329.459 L 525.163,329.321 L 524.539,328.723 L 524.232,328.313 L 524.183,328.166 L 524.178,327.774 L 524.106,327.68 L 523.647,327.501 L 523.135,326.99 L 522.605,326.487 L 522.533,326.347 L 522.261,325.966 L 521.928,325.619 L 521.663,325.397 L 521.446,325.145 L 521.205,324.791 L 521.08,324.256 L 520.969,323.78 L 520.894,323.595 L 520.741,323.529 L 520.267,322.962 L 519.864,322.632 L 519.868,322.275 L 519.934,321.678 L 520.009,320.999 L 520.106,320.904 L 520.29,320.853 L 520.5,320.872 L 520.683,320.957 L 521.045,321.422 L 521.252,321.603 L 521.427,321.673 L 521.628,321.477 L 521.876,321.066 L 522.093,320.849 L 522.823,320.928 L 523.182,320.611" id="BA" title="Bosnia and Herzegovina"/>
</svg>
