<svg xmlns="http://www.w3.org/2000/svg" xmlns:ev="http://www.w3.org/2001/xml-events" xmlns:xlink="http://www.w3.org/1999/xlink" baseProfile="full" height="17.621002197265625" version="1.1" viewBox="722.7369995117188 385.760986328125 12.9320068359375 17.621002197265625" width="12.9320068359375">
	<defs/>
	<path class="land" d="M 735.51,399.821 L 735.532,399.935 L 735.5360000000001,400.931 L 735.561,401.356 L 735.6510000000001,401.706 L 735.6690000000001,401.839 L 735.58,401.947 L 735.4920000000001,401.968 L 735.4090000000001,401.79900000000004 L 735.2210000000001,401.67 L 734.9430000000001,401.53200000000004 L 734.825,401.44000000000005 L 734.682,401.47700000000003 L 734.481,401.68600000000004 L 734.401,401.88000000000005 L 734.4359999999999,402.15200000000004 L 734.4989999999999,402.42 L 734.6389999999999,402.57300000000004 L 734.6499999999999,402.742 L 734.6999999999998,402.961 L 734.7719999999998,403.161 L 734.8059999999998,403.378 L 734.7599999999998,403.382 L 734.5929999999997,403.104 L 734.4429999999998,402.803 L 734.0539999999997,402.233 L 733.9269999999998,401.211 L 733.9189999999998,400.70500000000004 L 733.6519999999997,400.10900000000004 L 733.4749999999997,399.283 L 733.4039999999997,399.06800000000004 L 733.4969999999996,398.80000000000007 L 733.5129999999996,398.70000000000005 L 733.4629999999996,398.72200000000004 L 733.3269999999997,398.86 L 733.1499999999996,398.53000000000003 L 733.0339999999997,398.23400000000004 L 732.5759999999997,397.62100000000004 L 732.4429999999996,397.35 L 732.4369999999997,397.08500000000004 L 732.2389999999997,397.35100000000006 L 731.9699999999997,397.53800000000007 L 731.6959999999997,397.8190000000001 L 731.5139999999997,397.90400000000005 L 730.9369999999997,397.9560000000001 L 730.6029999999997,397.5800000000001 L 730.1239999999997,396.6590000000001 L 730.0609999999997,396.4510000000001 L 730.1239999999997,395.9080000000001 L 730.0099999999996,395.3930000000001 L 730.0119999999996,395.12200000000007 L 729.9779999999996,394.94000000000005 L 729.8919999999996,394.9800000000001 L 729.8589999999996,395.1050000000001 L 729.8779999999996,395.29600000000005 L 729.8429999999996,395.4560000000001 L 729.4289999999996,395.42500000000007 L 729.0389999999996,395.3520000000001 L 729.3819999999996,395.6230000000001 L 729.7509999999996,395.6860000000001 L 729.9409999999997,395.9280000000001 L 729.9639999999997,396.11700000000013 L 729.9519999999998,396.33000000000015 L 729.7639999999998,396.47900000000016 L 729.5909999999998,396.57300000000015 L 729.6219999999997,396.77700000000016 L 729.8319999999998,397.02500000000015 L 729.5779999999997,397.09500000000014 L 729.5089999999998,397.2570000000001 L 729.5029999999998,397.4880000000001 L 729.6309999999999,397.6920000000001 L 729.6819999999999,397.84300000000013 L 729.651,397.98200000000014 L 729.775,398.13100000000014 L 729.9549999999999,398.44400000000013 L 730.0129999999999,398.6660000000001 L 729.9379999999999,398.9790000000001 L 729.8349999999999,399.1010000000001 L 729.67,399.2190000000001 L 729.2819999999999,399.6130000000001 L 729.0919999999999,400.0610000000001 L 728.9309999999999,400.2700000000001 L 728.7289999999999,400.3090000000001 L 728.651,400.2170000000001 L 728.4839999999999,400.0970000000001 L 728.4799999999999,399.8780000000001 L 728.531,399.7050000000001 L 728.872,399.2860000000001 L 728.6859999999999,399.3420000000001 L 728.4759999999999,399.4620000000001 L 728.1559999999998,399.6890000000001 L 728.0539999999999,399.4080000000001 L 727.9869999999999,399.1480000000001 L 727.9859999999999,398.82900000000006 L 728.2429999999998,398.3520000000001 L 727.9519999999998,398.5900000000001 L 727.8719999999997,398.8870000000001 L 727.9079999999997,399.23700000000014 L 727.8699999999997,399.4850000000001 L 727.7569999999996,399.8080000000001 L 727.6019999999996,400.0020000000001 L 727.3519999999996,400.1270000000001 L 727.2419999999996,400.3180000000001 L 727.0739999999996,400.4580000000001 L 727.0689999999996,400.1780000000001 L 727.0149999999996,399.8080000000001 L 726.8339999999996,398.9290000000001 L 726.7949999999996,399.1180000000001 L 726.8889999999997,399.6630000000001 L 726.8829999999997,400.0170000000001 L 726.7459999999998,400.2970000000001 L 726.4709999999998,400.5970000000001 L 726.2599999999998,400.63900000000007 L 726.1359999999997,400.5930000000001 L 725.9479999999998,400.4070000000001 L 725.7419999999997,400.1410000000001 L 725.7079999999997,399.7130000000001 L 725.6229999999997,399.47800000000007 L 725.6359999999997,399.19700000000006 L 725.6189999999997,398.93100000000004 L 725.3979999999997,398.218 L 725.2549999999997,397.85200000000003 L 725.2729999999997,397.73400000000004 L 725.2629999999997,397.684 L 725.1969999999997,397.21200000000005 L 725.1049999999997,396.92300000000006 L 725.0589999999996,396.61500000000007 L 725.2769999999996,396.1720000000001 L 725.1889999999996,396.1000000000001 L 724.9379999999996,396.04100000000005 L 724.7049999999997,395.96400000000006 L 724.6479999999997,395.84900000000005 L 724.7519999999997,395.41200000000003 L 724.6309999999997,395.24100000000004 L 724.4569999999998,395.06800000000004 L 724.4019999999998,394.999 L 724.3439999999998,394.90900000000005 L 724.2639999999998,394.689 L 724.4189999999998,394.226 L 724.6359999999997,393.688 L 724.6749999999997,393.483 L 724.7109999999997,393.127 L 724.7309999999997,392.99 L 724.7029999999996,392.855 L 724.4739999999996,392.699 L 724.0709999999996,392.636 L 723.7859999999996,392.50500000000005 L 723.6199999999995,392.3070000000001 L 723.4779999999995,392.22800000000007 L 723.3029999999995,392.2870000000001 L 723.0799999999996,392.2100000000001 L 722.8929999999996,392.0130000000001 L 722.7369999999996,391.7740000000001 L 722.7569999999996,391.6620000000001 L 722.7979999999997,391.5130000000001 L 723.0919999999996,390.8930000000001 L 723.2009999999997,390.8740000000001 L 723.4559999999997,390.9930000000001 L 723.5509999999997,390.9930000000001 L 723.7179999999997,390.7480000000001 L 723.9519999999998,390.0490000000001 L 724.2819999999998,390.0510000000001 L 724.5729999999999,390.0730000000001 L 724.7689999999999,390.1090000000001 L 724.9639999999999,390.0870000000001 L 725.169,390.0310000000001 L 725.28,389.9430000000001 L 725.341,389.8310000000001 L 725.32,389.7340000000001 L 725.0690000000001,389.6020000000001 L 724.9720000000001,389.5030000000001 L 724.902,389.2220000000001 L 724.8290000000001,389.1170000000001 L 724.336,389.1020000000001 L 724.08,388.97300000000007 L 723.9390000000001,388.8570000000001 L 723.6890000000001,388.4740000000001 L 723.3790000000001,388.1900000000001 L 723.0830000000001,388.1230000000001 L 722.969,388.0310000000001 L 722.907,387.8850000000001 L 722.942,387.6740000000001 L 723.0310000000001,387.4820000000001 L 723.0930000000001,387.2680000000001 L 723.3290000000001,386.98500000000007 L 723.6060000000001,386.73800000000006 L 723.7300000000001,386.56800000000004 L 723.9050000000001,386.38900000000007 L 723.926,386.29100000000005 L 723.8960000000001,386.17900000000003 L 723.754,386.072 L 723.655,386.038 L 723.639,385.969 L 723.707,385.784 L 723.842,385.76099999999997 L 724.1229999999999,385.929 L 724.4089999999999,386.2 L 724.5779999999999,386.442 L 724.5849999999998,386.633 L 724.6949999999998,386.664 L 724.8059999999998,386.671 L 724.9919999999998,386.755 L 725.1839999999999,386.73 L 725.3079999999999,386.77700000000004 L 725.3909999999998,386.76000000000005 L 725.4219999999998,386.65000000000003 L 725.3289999999998,386.48800000000006 L 725.2609999999999,386.37300000000005 L 725.3389999999998,386.25700000000006 L 725.4279999999999,386.23400000000004 L 725.5269999999999,386.26300000000003 L 725.6619999999999,386.367 L 725.761,386.58000000000004 L 725.78,386.91100000000006 L 725.999,387.21000000000004 L 726.288,387.422 L 726.514,387.52000000000004 L 726.7860000000001,387.59000000000003 L 727.019,387.523 L 727.135,387.315 L 727.082,387.128 L 727.119,386.961 L 727.212,386.869 L 727.358,386.875 L 727.4659999999999,387.007 L 727.7829999999999,387.721 L 727.7179999999998,388.037 L 727.7889999999999,388.90299999999996 L 727.7089999999998,389.47299999999996 L 727.7219999999999,389.59599999999995 L 727.7589999999999,389.691 L 727.8129999999999,389.72999999999996 L 727.9059999999998,389.729 L 728.2919999999998,389.836 L 728.6169999999998,389.95500000000004 L 728.9839999999998,390.06300000000005 L 729.5139999999998,390.14700000000005 L 729.8389999999998,390.12000000000006 L 730.0009999999999,390.1170000000001 L 730.3299999999998,390.14200000000005 L 731.1939999999998,390.09700000000004 L 731.9089999999999,390.08500000000004 L 732.1999999999999,390.16700000000003 L 732.4329999999999,390.196 L 733.2289999999999,390.139 L 734.0329999999999,390.112 L 734.4679999999998,390.293 L 734.9419999999999,390.588 L 735.209,390.807 L 735.257,390.932 L 735.228,391.03900000000004 L 735.1389999999999,391.09800000000007 L 734.9749999999999,391.1000000000001 L 734.5999999999999,390.9570000000001 L 734.536,390.9990000000001 L 734.5429999999999,391.29100000000005 L 734.531,391.33700000000005 L 734.4509999999999,391.59900000000005 L 734.2249999999999,392.18800000000005 L 734.1809999999999,392.451 L 734.1329999999999,392.51800000000003 L 734.074,392.555 L 733.8969999999999,392.565 L 733.7579999999999,392.608 L 733.6999999999999,392.704 L 733.6099999999999,392.902 L 733.5469999999999,393.102 L 733.4609999999999,393.164 L 733.2539999999999,393.056 L 733.1249999999999,393.073 L 732.9629999999999,393.11899999999997 L 732.8009999999998,393.23299999999995 L 732.6899999999998,393.37499999999994 L 732.5639999999999,393.42299999999994 L 732.1879999999999,393.3949999999999 L 732.1169999999998,393.4149999999999 L 732.0689999999998,393.5159999999999 L 732.0309999999998,393.6429999999999 L 731.7379999999998,393.9429999999999 L 731.6269999999998,394.4239999999999 L 731.5369999999998,394.73599999999993 L 731.5519999999998,394.97799999999995 L 731.7989999999998,395.6089999999999 L 731.9719999999998,396.4269999999999 L 732.0379999999998,396.50999999999993 L 732.0959999999998,396.53599999999994 L 732.1219999999997,396.51699999999994 L 732.1159999999998,396.34799999999996 L 732.1269999999997,396.143 L 732.2079999999997,396.09499999999997 L 732.3119999999998,396.13699999999994 L 732.4109999999998,396.31499999999994 L 732.5219999999998,396.64099999999996 L 732.6409999999998,396.76899999999995 L 732.8269999999999,396.80499999999995 L 733.0379999999999,396.72799999999995 L 733.1949999999999,396.58099999999996 L 733.2589999999999,396.42099999999994 L 733.2139999999999,396.1069999999999 L 733.204,395.8719999999999 L 733.305,395.6479999999999 L 733.6669999999999,395.3139999999999 L 733.7189999999999,395.2109999999999 L 733.6959999999999,394.9259999999999 L 733.6969999999999,394.6579999999999 L 733.8339999999998,394.63999999999993 L 734.0189999999998,394.68299999999994 L 734.2509999999997,394.55199999999996 L 734.3219999999998,394.549 L 734.4199999999997,394.69 L 734.5849999999997,394.666 L 734.7069999999997,395.248 L 734.8319999999997,395.76099999999997 L 734.833,396.0 L 734.8539999999999,396.524 L 734.911,396.951 L 735.0,397.048 L 735.104,397.276 L 735.2,397.541 L 735.2750000000001,397.689 L 735.3260000000001,398.172 L 735.3890000000001,398.52000000000004 L 735.4720000000001,399.612 L 735.51,399.821 M 730.085,396.847 L 730.135,396.977 L 729.979,396.899 L 729.8620000000001,396.809 L 729.7900000000001,396.689 L 729.912,396.62600000000003 L 730.085,396.847 M 730.466,399.486 L 729.978,399.592 L 729.7289999999999,399.55899999999997 L 730.194,398.768 L 730.178,398.414 L 730.106,398.125 L 729.87,397.893 L 729.857,397.727 L 729.751,397.5 L 729.696,397.234 L 729.958,397.149 L 730.1709999999999,397.301 L 730.2009999999999,397.385 L 730.247,397.602 L 730.352,397.828 L 730.72,398.29299999999995 L 730.7130000000001,398.578 L 730.6120000000001,399.27299999999997 L 730.466,399.486 M 732.652,398.604 L 732.522,398.693 L 732.4000000000001,398.616 L 732.2440000000001,398.322 L 732.3210000000001,397.95 L 732.3700000000001,397.897 L 732.4480000000001,398.018 L 732.5570000000001,398.277 L 732.6280000000002,398.474 L 732.652,398.604 M 731.513,399.228 L 731.216,399.439 L 731.313,398.189 L 731.535,398.65500000000003 L 731.591,398.90400000000005 L 731.513,399.228 M 733.542,400.26 L 733.44,400.506 L 733.3900000000001,400.327 L 733.4330000000001,400.1 L 733.4770000000001,399.975 L 733.5060000000001,399.976 L 733.566,400.105 L 733.542,400.26 M 733.754,401.233 L 733.585,401.247 L 733.5020000000001,401.158 L 733.541,401.033 L 733.495,400.63 L 733.638,400.588 L 733.711,400.59000000000003 L 733.7520000000001,400.70900000000006 L 733.7900000000001,400.9270000000001 L 733.754,401.233" id="BD" title="Bangladesh"/>
</svg>
