<svg xmlns="http://www.w3.org/2000/svg" xmlns:ev="http://www.w3.org/2001/xml-events" xmlns:xlink="http://www.w3.org/1999/xlink" baseProfile="full" height="8.714996337890625" version="1.1" viewBox="482.7860107421875 294.3819885253906 10.7760009765625 8.714996337890625" width="10.7760009765625" fill="#00394f">
	<defs/>
	<path class="land" d="M 489.216,294.644 L 489.229,294.737 L 489.306,294.776 L 489.575,294.756 L 489.711,294.587 L 489.819,294.481 L 489.899,294.553 L 489.938,294.761 L 490.012,295.031 L 490.333,295.333 L 490.604,295.419 L 490.938,295.36 L 491.07,295.306 L 491.16,295.351 L 491.249,295.511 L 491.44,295.693 L 491.844,295.823 L 491.967,295.896 L 492.053,296.019 L 492.028,296.193 L 491.836,296.628 L 491.811,296.756 L 491.837,296.799 L 491.799,296.879 L 491.549,297.17 L 491.527,297.272 L 491.61,297.439 L 491.679,297.577 L 491.681,297.55 L 492.064,297.425 L 492.237,297.676 L 492.521,297.685 L 492.555,297.766 L 492.874,298.0 L 492.972,298.185 L 493.201,298.364 L 493.011,298.59 L 493.04,298.691 L 493.108,298.794 L 493.366,298.854 L 493.495,299.002 L 493.503,299.229 L 493.562,299.597 L 493.03,299.963 L 492.879,300.371 L 492.865,300.451 L 492.847,300.439 L 492.789,300.304 L 492.692,300.306 L 492.472,300.249 L 492.165,300.617 L 492.026,300.923 L 491.944,301.147 L 491.82,301.328 L 491.795,301.519 L 491.811,301.6 L 491.769,301.703 L 491.767,301.812 L 491.943,302.025 L 491.988,302.141 L 492.203,302.52 L 492.136,302.657 L 492.083,302.806 L 492.021,302.912 L 491.948,302.979 L 491.726,302.975 L 491.444,303.022 L 491.254,303.097 L 491.156,303.097 L 490.952,302.909 L 490.724,302.627 L 490.58,302.492 L 490.514,302.376 L 490.335,302.327 L 490.08,302.188 L 489.903,302.036 L 489.751,301.941 L 489.537,301.894 L 489.36,301.899 L 489.309,301.643 L 489.287,301.351 L 489.143,301.154 L 489.341,300.386 L 489.223,300.311 L 489.095,300.372 L 488.909,300.556 L 488.82,300.774 L 488.767,300.968 L 488.455,301.151 L 487.96,301.218 L 487.419,301.151 L 487.345,301.102 L 487.31,301.046 L 487.31,300.979 L 487.347,300.875 L 487.441,300.748 L 487.465,300.568 L 487.368,300.412 L 487.305,300.351 L 487.33,300.2 L 487.401,300.011 L 487.416,299.902 L 487.049,299.575 L 486.784,299.511 L 486.527,299.499 L 486.332,299.462 L 486.218,299.478 L 486.137,299.573 L 486.054,299.642 L 485.992,299.56 L 485.878,298.978 L 485.79,298.89 L 485.458,298.792 L 485.006,298.757 L 484.886,298.651 L 484.82,298.388 L 484.778,298.072 L 484.63,297.768 L 484.554,297.691 L 484.419,297.557 L 484.183,297.612 L 483.9,297.789 L 483.733,297.837 L 483.669,297.856 L 483.444,297.684 L 483.19,297.415 L 482.987,297.129 L 482.938,296.97 L 483.0,296.777 L 482.926,296.629 L 482.817,296.358 L 482.786,296.146 L 484.007,295.394 L 484.751,295.008 L 485.102,294.891 L 485.186,295.279 L 485.25,295.402 L 485.333,295.482 L 485.443,295.498 L 485.57,295.402 L 485.748,295.301 L 486.033,295.348 L 486.24,295.441 L 486.313,295.538 L 486.451,295.63 L 486.651,295.652 L 487.038,295.476 L 487.41,295.208 L 487.519,295.021 L 487.56,294.852 L 487.78,294.964 L 487.974,294.988 L 488.06,294.938 L 488.005,294.667 L 488.163,294.522 L 488.338,294.456 L 488.417,294.573 L 488.578,294.693 L 488.705,294.694 L 489.046,294.382 L 489.126,294.444 L 489.2,294.555 L 489.216,294.644" id="BE" title="Belgium"/>
</svg>
