<svg xmlns="http://www.w3.org/2000/svg" xmlns:ev="http://www.w3.org/2001/xml-events" xmlns:xlink="http://www.w3.org/1999/xlink" baseProfile="full" height="16.13800048828125" version="1.1" viewBox="460.197998046875 420.13800048828125 22.207000732421875 16.13800048828125" width="22.207000732421875" fill="#00394f">
	<defs/>
	<path class="land" d="M 476.31,420.618 L 476.271,420.752 L 476.269,420.989 L 476.219,421.364 L 476.159,421.813 L 476.403,422.103 L 476.695,422.415 L 476.773,422.536 L 476.695,422.843 L 476.75,423.023 L 476.904,423.323 L 477.166,423.704 L 477.435,424.095 L 477.621,424.146 L 477.798,424.178 L 477.906,424.248 L 478.063,424.316 L 478.22,424.36 L 478.356,424.446 L 478.443,424.53 L 478.556,424.771 L 478.859,424.93 L 479.071,425.087 L 478.986,425.167 L 478.722,425.135 L 478.474,425.066 L 478.441,425.182 L 478.431,425.624 L 478.47,425.991 L 478.528,426.04 L 478.778,426.108 L 479.373,426.585 L 479.911,427.037 L 480.092,427.154 L 480.389,427.198 L 480.723,427.217 L 480.866,427.175 L 481.189,426.948 L 481.361,426.923 L 481.52,426.929 L 481.606,426.965 L 481.761,427.151 L 481.906,427.431 L 481.947,427.638 L 481.934,427.749 L 481.885,427.791 L 481.62,427.844 L 481.505,427.886 L 481.477,427.946 L 481.518,428.085 L 481.569,428.175 L 481.858,428.578 L 482.276,429.122 L 482.405,429.261 L 482.332,429.423 L 482.119,429.847 L 481.96,430.024 L 481.257,430.624 L 480.913,430.553 L 480.19,430.674 L 480.082,430.536 L 479.913,430.518 L 479.704,430.542 L 479.628,430.594 L 479.605,430.653 L 479.53,430.736 L 479.396,430.974 L 479.293,431.034 L 479.165,431.071 L 479.007,431.066 L 478.915,431.097 L 478.915,431.215 L 478.887,431.317 L 478.78,431.369 L 478.735,431.483 L 478.743,431.596 L 478.681,431.648 L 478.545,431.62 L 478.464,431.588 L 478.388,431.734 L 478.294,431.833 L 478.227,431.832 L 477.504,431.861 L 477.241,431.939 L 477.083,431.941 L 477.077,431.875 L 477.058,431.836 L 476.146,431.615 L 475.507,431.484 L 474.859,431.339 L 474.822,431.475 L 474.729,431.563 L 474.589,431.569 L 474.492,431.548 L 474.427,431.653 L 474.319,431.792 L 474.169,431.859 L 474.022,431.945 L 473.939,432.02 L 473.879,432.021 L 473.731,431.845 L 473.534,431.827 L 473.166,431.856 L 473.0,431.808 L 472.774,431.785 L 472.24,431.821 L 471.387,431.749 L 471.247,431.788 L 471.21,431.82 L 470.365,431.828 L 469.436,431.837 L 468.658,431.845 L 467.977,431.852 L 467.976,431.822 L 467.757,431.818 L 467.733,431.877 L 467.54,432.585 L 467.519,432.97 L 467.622,433.209 L 467.737,433.361 L 467.866,433.424 L 467.879,433.51 L 467.775,433.621 L 467.784,433.734 L 467.906,433.851 L 467.936,433.975 L 467.874,434.104 L 467.889,434.414 L 467.979,434.905 L 467.982,435.223 L 467.896,435.368 L 467.937,435.617 L 468.104,435.968 L 468.134,436.116 L 468.074,436.185 L 467.935,436.276 L 467.794,436.273 L 467.63,436.061 L 467.558,435.966 L 467.426,435.75 L 467.313,435.534 L 467.161,435.439 L 467.011,435.351 L 466.829,435.076 L 466.653,434.945 L 466.467,434.982 L 466.196,434.931 L 465.649,434.863 L 465.061,434.883 L 464.817,434.946 L 464.576,435.046 L 463.965,435.267 L 463.724,435.375 L 463.541,435.651 L 463.333,435.645 L 463.126,435.557 L 462.996,435.432 L 462.717,435.459 L 462.448,435.338 L 462.188,435.099 L 461.996,435.02 L 461.751,434.847 L 461.684,434.517 L 461.529,434.286 L 461.387,433.964 L 461.175,433.82 L 460.931,433.743 L 460.594,433.759 L 460.373,433.63 L 460.198,433.442 L 460.244,433.279 L 460.323,433.047 L 460.332,432.824 L 460.384,432.462 L 460.352,432.009 L 460.291,431.693 L 460.477,431.561 L 460.692,431.443 L 460.826,431.228 L 460.965,430.745 L 461.023,430.328 L 460.98,430.173 L 460.909,430.05 L 460.852,429.87 L 460.819,429.65 L 460.858,429.458 L 461.021,429.28 L 461.225,429.132 L 461.37,429.06 L 461.754,428.986 L 462.234,428.876 L 462.511,428.75 L 462.713,428.625 L 462.826,428.525 L 462.941,428.322 L 463.127,428.164 L 463.271,428.004 L 463.291,427.561 L 463.29,427.308 L 463.183,427.168 L 463.125,427.049 L 463.836,426.701 L 463.841,426.456 L 463.742,426.182 L 463.603,425.961 L 463.551,425.771 L 463.748,425.546 L 463.923,425.377 L 464.05,425.234 L 464.33,425.016 L 464.622,424.959 L 464.885,425.041 L 465.664,425.555 L 465.799,425.588 L 465.961,425.549 L 466.167,425.413 L 466.433,425.307 L 466.531,424.963 L 466.522,424.457 L 466.583,424.225 L 466.723,424.183 L 467.171,424.28 L 467.288,424.285 L 467.418,424.253 L 467.513,424.164 L 467.509,424.0 L 467.488,423.855 L 467.634,423.385 L 467.901,423.031 L 468.44,422.589 L 468.608,422.5 L 468.803,422.455 L 469.769,422.759 L 469.926,422.684 L 470.162,421.93 L 470.424,421.858 L 470.738,421.845 L 470.942,421.78 L 471.048,421.728 L 471.508,421.441 L 472.318,421.051 L 472.754,420.883 L 472.839,420.82 L 473.151,420.543 L 473.565,420.225 L 473.829,420.161 L 474.194,420.138 L 474.424,420.19 L 474.486,420.28 L 474.562,420.326 L 475.038,420.191 L 475.72,420.406 L 476.31,420.618" id="BF" title="Burkina Faso"/>
</svg>
