<svg xmlns="http://www.w3.org/2000/svg" xmlns:ev="http://www.w3.org/2001/xml-events" xmlns:xlink="http://www.w3.org/1999/xlink" baseProfile="full" height="11.40399169921875" version="1.1" viewBox="538.4080200195312 324.7030029296875 17.5159912109375 11.40399169921875" width="17.5159912109375" fill="#00394f">
	<defs/>
	<path class="land" d="M 555.924,326.629 L 555.858,327.56 L 555.587,327.991 L 555.178,327.847 L 554.656,327.967 L 554.38,328.457 L 554.223,328.602 L 554.082,328.772 L 553.991,329.406 L 553.969,330.44 L 553.771,330.565 L 553.59,330.604 L 552.835,331.51 L 553.27,331.764 L 553.462,331.957 L 553.78,332.494 L 554.232,333.099 L 554.322,333.394 L 553.942,333.328 L 553.81,333.348 L 553.725,333.441 L 553.548,333.422 L 553.33,333.423 L 553.102,333.53 L 552.976,333.575 L 552.808,333.477 L 552.493,333.183 L 552.302,332.978 L 552.161,332.926 L 552.018,332.987 L 551.508,333.057 L 551.387,333.176 L 551.151,333.308 L 550.915,333.371 L 550.574,333.416 L 550.395,333.41 L 550.295,333.473 L 550.211,333.666 L 550.154,333.854 L 550.104,333.93 L 549.68,334.023 L 549.586,334.131 L 549.561,334.236 L 549.569,334.341 L 549.231,334.239 L 548.97,334.308 L 548.908,334.388 L 548.854,334.504 L 548.884,334.627 L 548.98,334.747 L 549.071,335.071 L 549.104,335.394 L 549.048,335.578 L 548.854,335.708 L 548.453,335.853 L 548.064,335.784 L 547.894,335.841 L 547.606,335.859 L 547.341,335.897 L 546.934,336.029 L 546.566,336.107 L 546.236,335.838 L 545.844,335.655 L 545.432,335.546 L 545.289,335.625 L 545.227,335.688 L 544.882,335.45 L 544.728,335.365 L 544.653,335.273 L 544.51,334.955 L 544.425,334.945 L 544.141,335.063 L 543.867,335.058 L 543.702,335.036 L 543.212,335.05 L 543.147,335.267 L 543.087,335.3 L 542.981,335.329 L 542.721,335.315 L 542.388,335.476 L 542.031,335.574 L 541.752,335.576 L 541.465,335.529 L 541.293,335.563 L 540.922,335.58 L 540.687,335.814 L 540.321,335.801 L 540.013,335.762 L 540.051,335.688 L 540.113,334.757 L 540.265,334.34 L 540.259,334.254 L 540.226,334.189 L 540.091,334.122 L 539.994,333.896 L 539.791,333.301 L 539.676,333.181 L 539.357,333.055 L 539.078,332.883 L 538.841,332.655 L 538.408,332.093 L 538.627,332.037 L 538.693,331.922 L 538.912,331.612 L 538.937,331.46 L 538.914,331.374 L 538.767,331.225 L 538.667,330.898 L 538.742,330.593 L 538.749,330.436 L 538.675,330.28 L 538.752,330.086 L 538.91,329.98 L 539.009,329.949 L 539.424,329.928 L 539.687,329.539 L 539.847,329.415 L 540.011,329.194 L 540.087,329.113 L 540.159,328.941 L 540.184,328.765 L 539.855,328.518 L 539.743,328.332 L 539.596,328.126 L 539.398,327.984 L 538.999,327.74 L 538.843,327.492 L 538.773,327.17 L 538.667,326.926 L 538.55,326.767 L 538.528,326.637 L 538.479,326.478 L 538.468,326.165 L 538.563,325.748 L 538.624,325.6 L 538.759,325.559 L 539.119,325.336 L 539.136,325.051 L 539.201,324.873 L 539.315,324.771 L 539.421,324.703 L 539.618,324.869 L 540.096,325.134 L 540.329,325.326 L 540.317,325.445 L 540.208,325.563 L 540.0,325.679 L 539.879,325.832 L 539.846,326.021 L 539.877,326.155 L 540.021,326.272 L 540.879,326.119 L 541.749,326.198 L 542.917,326.457 L 543.691,326.547 L 544.264,326.427 L 545.323,326.644 L 546.31,326.846 L 547.257,326.905 L 547.787,326.747 L 548.16,326.534 L 548.481,326.132 L 549.274,325.601 L 550.041,325.302 L 551.047,325.06 L 551.719,324.978 L 551.813,325.06 L 552.668,325.549 L 553.049,325.551 L 553.357,325.638 L 553.47,325.767 L 553.547,325.799 L 553.957,325.678 L 554.138,325.945 L 554.421,326.319 L 554.904,326.511 L 555.334,326.619 L 555.47,326.636 L 555.924,326.629" id="BG" title="Bulgaria"/>
</svg>
