<svg xmlns="http://www.w3.org/2000/svg" xmlns:ev="http://www.w3.org/2001/xml-events" xmlns:xlink="http://www.w3.org/1999/xlink" baseProfile="full" height="5.9840087890625" version="1.1" viewBox="557.1270141601562 469.1199951171875 5.04400634765625 5.9840087890625" width="5.04400634765625" fill="#00394f">
	<defs/>
	<path class="land" d="M 561.448,469.363 L 561.392,469.436 L 561.135,469.958 L 561.085,470.037 L 561.113,470.085 L 561.223,470.184 L 561.158,470.349 L 561.133,470.393 L 561.084,470.546 L 561.111,470.687 L 561.173,470.739 L 561.34,470.807 L 561.59,470.856 L 561.885,470.974 L 562.084,470.995 L 562.131,471.08 L 562.122,471.231 L 562.17,471.362 L 562.171,471.597 L 562.112,471.804 L 561.808,471.901 L 561.651,472.007 L 561.609,472.061 L 561.647,472.123 L 561.667,472.206 L 561.381,472.413 L 561.087,472.682 L 561.017,472.863 L 560.958,473.078 L 560.872,473.215 L 560.648,473.413 L 560.419,473.811 L 560.307,474.069 L 559.746,474.689 L 559.247,474.999 L 559.102,475.104 L 558.219,475.086 L 558.152,474.668 L 558.018,474.097 L 557.714,473.582 L 557.682,473.366 L 557.696,472.95 L 557.697,472.366 L 557.677,472.052 L 557.684,471.823 L 557.722,471.425 L 557.717,471.187 L 557.518,470.913 L 557.27,470.621 L 557.134,470.478 L 557.127,470.363 L 557.128,470.256 L 557.168,470.101 L 557.265,469.928 L 557.374,469.909 L 557.642,469.978 L 557.921,470.125 L 558.069,470.456 L 558.183,470.503 L 558.389,470.502 L 558.916,470.459 L 559.047,470.464 L 559.286,470.385 L 559.524,470.246 L 559.593,470.102 L 559.648,469.777 L 559.698,469.194 L 559.82,469.188 L 560.152,469.395 L 560.224,469.409 L 560.293,469.402 L 560.409,469.299 L 560.55,469.215 L 560.655,469.217 L 561.041,469.12 L 561.248,469.296 L 561.378,469.351 L 561.448,469.363" id="BI" title="Burundi"/>
</svg>
