<svg xmlns="http://www.w3.org/2000/svg" xmlns:ev="http://www.w3.org/2001/xml-events" xmlns:xlink="http://www.w3.org/1999/xlink" baseProfile="full" height="17.4320068359375" version="1.1" viewBox="477.8420104980469 427.87298583984375 8.618988037109375 17.4320068359375" width="8.618988037109375">
	<defs/>
	<path class="land" d="M 485.79,429.833 L 485.674,430.016 L 485.496,430.394 L 485.488,430.689 L 485.912,431.311 L 485.961,431.374 L 486.07,431.471 L 486.129,431.587 L 486.18,431.893 L 486.209,432.238 L 486.243,432.47 L 486.448,432.796 L 486.461,432.927 L 486.319,433.414 L 486.285,433.466 L 486.248,433.479 L 486.028,433.437 L 485.934,433.49 L 485.814,433.655 L 485.741,433.82 L 485.737,433.889 L 485.932,434.195 L 485.809,434.636 L 485.683,434.911 L 485.457,435.068 L 485.255,435.105 L 485.114,435.179 L 485.032,435.276 L 485.044,435.591 L 484.746,435.878 L 484.581,436.079 L 484.501,436.2 L 484.535,436.57 L 484.429,436.944 L 484.245,437.239 L 483.833,437.303 L 483.487,437.339 L 483.369,438.09 L 483.375,438.565 L 483.343,439.05 L 483.286,439.248 L 483.31,439.526 L 483.284,440.155 L 483.238,440.65 L 483.299,440.783 L 483.334,441.074 L 483.332,441.375 L 483.42,441.584 L 483.516,441.767 L 483.513,441.861 L 483.462,441.92 L 483.419,441.997 L 483.419,442.705 L 483.437,442.917 L 483.411,443.051 L 483.337,443.163 L 483.366,443.521 L 483.426,443.749 L 483.486,443.917 L 483.428,444.057 L 483.377,444.242 L 483.3,444.714 L 483.295,444.878 L 482.118,444.993 L 480.802,445.182 L 480.253,445.305 L 480.221,445.21 L 480.689,445.087 L 480.592,444.718 L 480.3,444.282 L 480.186,444.202 L 480.127,443.985 L 480.198,443.843 L 480.164,443.747 L 480.14,443.453 L 479.996,443.128 L 480.259,443.115 L 480.259,442.07 L 480.259,441.066 L 480.259,440.21 L 480.259,439.532 L 480.208,438.719 L 480.201,438.122 L 480.19,437.334 L 480.095,437.088 L 479.697,436.671 L 479.588,436.455 L 479.569,436.168 L 479.48,435.873 L 479.475,435.356 L 479.468,434.754 L 479.432,434.657 L 479.0,434.37 L 478.389,433.963 L 477.923,433.653 L 477.889,433.63 L 477.842,433.554 L 477.91,432.636 L 478.006,432.516 L 478.155,432.138 L 478.227,431.832 L 478.294,431.833 L 478.388,431.734 L 478.464,431.588 L 478.545,431.62 L 478.681,431.648 L 478.743,431.596 L 478.735,431.483 L 478.78,431.369 L 478.887,431.317 L 478.915,431.215 L 478.915,431.097 L 479.007,431.066 L 479.165,431.071 L 479.293,431.034 L 479.396,430.974 L 479.53,430.736 L 479.605,430.653 L 479.628,430.594 L 479.704,430.542 L 479.913,430.518 L 480.082,430.536 L 480.19,430.674 L 480.913,430.553 L 481.257,430.624 L 481.96,430.024 L 482.119,429.847 L 482.332,429.423 L 482.405,429.261 L 482.471,428.969 L 482.332,428.43 L 482.34,428.334 L 482.63,428.218 L 482.992,428.128 L 483.132,428.121 L 483.225,428.075 L 483.357,427.958 L 483.572,427.873 L 483.699,427.901 L 483.777,427.918 L 484.539,428.631 L 484.87,428.991 L 484.958,429.175 L 485.129,429.308 L 485.381,429.39 L 485.611,429.573 L 485.79,429.833" id="BJ" title="Benin"/>
</svg>
