<svg xmlns="http://www.w3.org/2000/svg" xmlns:ev="http://www.w3.org/2001/xml-events" xmlns:xlink="http://www.w3.org/1999/xlink" baseProfile="full" height="2.79498291015625" version="1.1" viewBox="795.8179931640625 448.64801025390625 3.54400634765625 2.79498291015625" width="3.54400634765625" fill="#00394f">
	<defs/>
	<path class="land" d="M 798.521,448.995 L 798.2919999999999,449.117 L 798.0659999999999,449.269 L 797.8399999999999,449.4 L 797.7349999999999,449.503 L 797.7719999999999,449.647 L 797.8269999999999,449.964 L 797.8569999999999,450.213 L 797.9359999999998,450.312 L 797.9979999999998,450.411 L 797.9729999999998,450.519 L 797.8389999999998,450.725 L 797.9149999999998,450.76500000000004 L 797.8179999999999,451.03800000000007 L 797.6739999999999,451.24000000000007 L 797.4749999999999,451.4050000000001 L 797.3469999999999,451.4430000000001 L 797.2439999999999,451.3730000000001 L 797.0759999999999,451.1920000000001 L 796.8929999999999,450.94100000000014 L 796.8079999999999,450.79500000000013 L 796.5449999999998,450.77500000000015 L 796.4509999999998,450.65900000000016 L 796.4449999999998,450.51700000000017 L 796.3709999999999,450.35100000000017 L 796.2669999999998,450.1730000000002 L 796.1129999999998,450.0350000000002 L 795.9059999999998,449.92800000000017 L 795.8179999999999,449.85100000000017 L 796.1379999999999,449.85600000000017 L 796.4789999999999,449.81100000000015 L 796.8299999999999,449.66200000000015 L 797.1679999999999,449.48200000000014 L 797.4519999999999,449.2760000000001 L 797.7189999999999,449.0440000000001 L 797.9979999999999,448.8610000000001 L 798.4329999999999,448.6480000000001 L 798.5789999999998,448.6650000000001 L 798.5779999999999,448.8160000000001 L 798.521,448.995 L 798.8389999999999,448.995 L 798.9179999999999,449.087 L 799.0849999999999,449.412 L 799.194,449.738 L 799.2289999999999,450.235 L 799.362,450.446 L 799.341,450.48900000000003 L 799.261,450.52500000000003 L 799.137,450.54 L 798.9229999999999,450.492 L 798.7449999999999,450.41900000000004 L 798.5889999999999,449.88100000000003 L 798.52,449.57700000000006 L 798.526,449.21400000000006 L 798.521,448.995" id="BN" title="Brunei Darussalam"/>
</svg>
