<svg xmlns="http://www.w3.org/2000/svg" xmlns:ev="http://www.w3.org/2001/xml-events" xmlns:xlink="http://www.w3.org/1999/xlink" baseProfile="full" height="38.40399169921875" version="1.1" viewBox="280.239990234375 489.87298583984375 34.0989990234375 38.40399169921875" width="34.0989990234375" fill="#00394f">
	<defs/>
	<path class="land" d="M 312.475,520.097 L 312.531,519.604 L 312.474,519.177 L 312.417,519.067 L 311.592,518.559 L 310.843,518.097 L 309.863,517.493 L 308.599,517.51 L 307.29,517.527 L 306.043,517.797 L 304.816,518.062 L 304.234,518.188 L 303.067,518.44 L 302.38,518.556 L 302.2,519.042 L 301.931,519.772 L 301.664,520.199 L 301.356,520.648 L 300.922,521.281 L 300.921,522.051 L 300.921,522.784 L 300.616,523.819 L 300.356,524.699 L 300.106,525.551 L 299.934,526.14 L 299.87,526.29 L 299.83,526.242 L 299.608,526.066 L 299.41,525.734 L 299.356,525.583 L 299.331,525.577 L 298.141,525.587 L 296.996,525.598 L 296.879,525.668 L 296.714,525.667 L 296.593,525.602 L 296.475,525.607 L 296.304,525.671 L 296.151,525.804 L 295.714,526.688 L 295.498,527.066 L 295.337,527.405 L 295.22,527.986 L 295.171,528.083 L 295.035,527.882 L 294.834,527.351 L 294.744,527.048 L 294.615,526.705 L 294.385,526.274 L 294.12,526.144 L 293.955,526.101 L 293.718,526.019 L 293.299,525.916 L 293.116,525.895 L 291.917,525.881 L 291.822,525.87 L 291.352,525.917 L 291.114,525.885 L 290.864,525.645 L 290.307,525.223 L 290.195,525.089 L 289.981,525.001 L 289.854,524.992 L 289.776,525.075 L 289.68,525.427 L 289.566,525.745 L 289.447,525.928 L 289.049,526.063 L 288.678,526.204 L 288.474,526.237 L 288.365,526.396 L 288.317,526.619 L 288.226,526.82 L 287.69,527.123 L 287.571,527.25 L 287.509,527.549 L 287.21,527.92 L 287.118,528.065 L 286.648,528.167 L 286.037,528.277 L 285.68,528.27 L 285.436,528.241 L 285.362,528.174 L 285.197,528.069 L 285.169,527.952 L 285.167,527.786 L 285.213,527.487 L 285.19,527.073 L 284.998,526.591 L 285.013,526.436 L 284.988,526.2 L 284.891,525.757 L 284.643,525.534 L 284.573,525.166 L 284.544,524.843 L 284.335,524.439 L 284.301,523.925 L 284.306,523.485 L 283.978,522.974 L 283.636,522.432 L 283.36,522.358 L 283.292,522.293 L 283.262,522.138 L 283.256,521.897 L 283.278,521.751 L 283.491,521.514 L 283.499,521.478 L 283.456,521.428 L 282.906,521.074 L 282.767,520.971 L 282.724,520.845 L 282.728,520.731 L 282.859,520.615 L 282.926,520.529 L 282.797,520.277 L 282.81,520.049 L 282.728,519.951 L 282.737,519.877 L 282.817,519.814 L 283.174,519.741 L 283.285,519.51 L 283.289,519.318 L 283.235,519.182 L 282.905,518.839 L 282.898,518.781 L 283.244,518.304 L 283.492,517.991 L 283.56,517.927 L 283.539,517.859 L 283.478,517.776 L 283.321,517.656 L 283.117,517.524 L 282.948,517.364 L 282.728,517.127 L 282.451,516.924 L 282.246,516.722 L 282.141,516.554 L 282.139,516.382 L 282.111,516.097 L 281.977,515.635 L 281.941,515.323 L 281.883,514.978 L 281.825,514.753 L 281.793,514.536 L 281.697,514.301 L 281.644,514.129 L 281.721,514.008 L 281.798,513.914 L 281.789,513.855 L 281.26,513.604 L 281.172,513.54 L 281.047,513.038 L 280.663,512.592 L 280.618,512.26 L 280.618,512.256 L 280.618,512.126 L 280.587,511.917 L 280.47,511.754 L 280.295,511.641 L 280.24,511.507 L 280.298,511.366 L 280.639,511.087 L 280.822,511.04 L 280.87,510.898 L 280.981,510.786 L 281.302,510.376 L 281.491,510.107 L 281.68,509.945 L 281.899,509.833 L 281.994,509.739 L 281.944,509.45 L 281.959,509.255 L 282.035,509.132 L 282.254,509.002 L 282.451,508.903 L 282.493,508.854 L 282.476,508.781 L 282.295,508.633 L 281.922,508.504 L 281.675,508.517 L 281.524,508.403 L 281.441,508.306 L 280.952,507.11 L 280.871,506.831 L 280.877,506.723 L 281.205,506.133 L 281.338,505.94 L 281.568,505.662 L 281.527,505.552 L 281.124,505.091 L 281.0,504.872 L 281.003,504.653 L 281.043,504.388 L 281.277,504.245 L 281.344,504.029 L 281.393,503.816 L 281.493,503.746 L 281.595,503.625 L 281.716,503.451 L 281.904,503.299 L 282.015,503.183 L 282.039,502.86 L 282.131,502.772 L 282.388,502.669 L 282.414,502.586 L 282.356,502.369 L 282.228,502.14 L 282.124,502.028 L 281.987,501.466 L 281.844,501.187 L 281.904,501.075 L 282.003,500.933 L 282.099,500.652 L 282.13,500.325 L 282.106,499.123 L 282.112,498.886 L 282.238,498.721 L 282.423,498.529 L 282.58,498.456 L 282.728,498.335 L 282.717,498.108 L 282.815,497.974 L 282.936,497.806 L 282.561,497.145 L 282.231,496.564 L 281.922,496.019 L 281.564,495.389 L 281.329,494.974 L 281.036,494.459 L 280.779,494.007 L 280.428,493.391 L 280.754,493.38 L 281.411,493.402 L 282.047,493.512 L 282.478,493.56 L 282.658,493.654 L 282.698,493.805 L 282.817,493.875 L 282.955,493.848 L 283.111,493.838 L 283.46,493.684 L 283.742,493.581 L 283.985,493.458 L 284.11,493.338 L 284.413,492.917 L 284.657,492.685 L 284.882,492.604 L 285.321,492.57 L 285.46,492.636 L 285.639,492.628 L 285.794,492.389 L 286.03,492.125 L 286.495,491.796 L 286.731,491.706 L 286.878,491.591 L 287.13,491.574 L 287.352,491.454 L 288.423,490.623 L 288.857,490.409 L 289.127,490.37 L 289.351,490.319 L 289.731,490.2 L 290.683,490.084 L 291.294,490.037 L 291.49,490.152 L 291.71,490.119 L 291.897,489.933 L 292.052,489.873 L 292.166,489.878 L 292.33,490.098 L 292.41,490.332 L 292.357,490.51 L 292.367,490.769 L 292.44,491.107 L 292.399,491.409 L 292.168,491.803 L 292.052,491.964 L 292.023,492.13 L 292.043,492.354 L 292.149,492.718 L 292.34,493.224 L 292.369,493.598 L 292.235,493.841 L 292.173,494.051 L 292.184,494.228 L 292.231,494.352 L 292.317,494.423 L 292.364,494.564 L 292.374,494.776 L 292.486,494.981 L 292.699,495.179 L 292.786,495.367 L 292.746,495.547 L 292.757,495.66 L 292.819,495.704 L 292.877,495.668 L 292.955,495.618 L 293.024,495.636 L 293.174,495.887 L 293.193,495.938 L 293.274,496.146 L 293.299,496.303 L 293.518,496.391 L 293.755,496.46 L 293.886,496.542 L 294.148,496.791 L 294.368,496.955 L 294.644,497.089 L 294.735,497.304 L 294.904,497.628 L 295.369,497.752 L 295.911,497.814 L 296.257,497.885 L 296.679,497.713 L 296.958,497.737 L 297.247,497.854 L 297.37,497.934 L 297.585,498.101 L 297.918,498.315 L 298.19,498.394 L 298.384,498.275 L 298.563,498.233 L 298.702,498.283 L 298.775,498.516 L 298.848,498.673 L 299.009,498.792 L 299.354,499.097 L 299.549,499.222 L 299.769,499.213 L 300.223,499.414 L 300.707,499.609 L 300.957,499.641 L 301.203,499.612 L 301.366,499.688 L 301.432,499.923 L 301.853,500.393 L 302.051,500.578 L 302.287,500.736 L 302.888,500.733 L 303.068,500.78 L 303.336,500.738 L 304.142,500.658 L 304.288,500.633 L 304.744,500.838 L 305.283,501.134 L 305.64,501.366 L 305.889,501.494 L 306.019,501.702 L 306.125,501.919 L 306.174,502.153 L 306.109,502.385 L 306.011,502.479 L 305.978,502.629 L 306.019,502.854 L 306.198,503.055 L 306.264,503.302 L 306.362,503.74 L 306.472,503.878 L 306.543,505.235 L 306.182,505.246 L 305.673,505.262 L 305.822,505.392 L 306.243,505.898 L 306.63,506.365 L 306.692,507.115 L 306.73,507.588 L 306.785,508.256 L 306.817,508.655 L 307.784,508.691 L 308.898,508.732 L 310.237,508.782 L 311.414,508.826 L 311.53,508.821 L 311.734,508.767 L 311.87,508.696 L 311.953,508.698 L 311.967,508.86 L 311.939,509.064 L 311.94,509.299 L 311.603,509.763 L 311.582,509.909 L 311.633,510.521 L 311.752,511.017 L 311.812,511.465 L 311.947,511.605 L 312.346,511.842 L 312.949,512.28 L 313.19,512.337 L 313.394,512.277 L 313.516,512.456 L 313.54,512.745 L 313.873,513.552 L 314.084,514.065 L 314.181,514.244 L 314.339,514.336 L 314.309,514.403 L 314.178,514.43 L 314.119,514.526 L 313.936,515.102 L 313.695,515.861 L 313.532,516.396 L 313.679,516.404 L 313.685,516.552 L 313.718,516.778 L 313.537,516.806 L 313.483,516.887 L 313.275,517.326 L 313.003,517.901 L 312.721,518.497 L 312.554,518.85 L 312.839,519.111 L 313.314,519.547 L 313.239,519.668 L 313.035,519.729 L 312.864,519.771 L 312.733,519.936 L 312.66,520.057 L 312.475,520.097" id="BO" title="Bolivia"/>
</svg>
