<svg xmlns="http://www.w3.org/2000/svg" xmlns:ev="http://www.w3.org/2001/xml-events" xmlns:xlink="http://www.w3.org/1999/xlink" baseProfile="full" height="114.77401733398438" version="1.1" viewBox="268.0320129394531 447.9880065917969 109.99697875976562 114.77401733398438" width="109.99697875976562">
	<defs/>
	<path class="land" d="M 317.181,457.255 L 317.265,457.282 L 317.453,457.305 L 317.899,457.41200000000003 L 318.481,457.533 L 318.64,457.49100000000004 L 318.735,457.40600000000006 L 318.757,457.15700000000004 L 318.775,456.98100000000005 L 318.644,456.8260000000001 L 318.481,456.6500000000001 L 318.331,456.4310000000001 L 318.151,456.3680000000001 L 318.17400000000004,456.2550000000001 L 318.29100000000005,456.1380000000001 L 318.41100000000006,456.07400000000007 L 318.4800000000001,455.99500000000006 L 318.5560000000001,455.7030000000001 L 318.6060000000001,455.65100000000007 L 318.6570000000001,455.6380000000001 L 318.7170000000001,455.6490000000001 L 318.8360000000001,455.72500000000014 L 319.29400000000015,455.95700000000016 L 319.4950000000002,455.92200000000014 L 320.26300000000015,455.86100000000016 L 320.37900000000013,455.72700000000015 L 320.54200000000014,455.6970000000002 L 320.81800000000015,455.56300000000016 L 320.92700000000013,455.55400000000014 L 321.02500000000015,455.5860000000001 L 321.14800000000014,455.56100000000015 L 321.3290000000001,455.43600000000015 L 321.40500000000014,455.4230000000002 L 321.43400000000014,455.56100000000015 L 321.55100000000016,455.7040000000001 L 321.69300000000015,455.8350000000001 L 321.76100000000014,455.86500000000007 L 321.99900000000014,455.8230000000001 L 322.12400000000014,455.86000000000007 L 322.1780000000001,455.9820000000001 L 322.19400000000013,456.0880000000001 L 322.29400000000015,456.17800000000005 L 322.42200000000014,456.18000000000006 L 322.4900000000001,456.21700000000004 L 322.60700000000014,456.27500000000003 L 322.70600000000013,456.408 L 322.93600000000015,456.514 L 323.3290000000001,456.66200000000003 L 323.5120000000001,456.66400000000004 L 323.68200000000013,456.70900000000006 L 323.7860000000001,456.7540000000001 L 323.8990000000001,456.67100000000005 L 324.3010000000001,456.44200000000006 L 324.4970000000001,456.3140000000001 L 324.62900000000013,456.2170000000001 L 324.7280000000001,456.1250000000001 L 324.80200000000013,456.1010000000001 L 324.85200000000015,456.1560000000001 L 324.89500000000015,456.23000000000013 L 325.03900000000016,456.27300000000014 L 325.37500000000017,456.35900000000015 L 325.52900000000017,456.38300000000015 L 325.7450000000002,456.3100000000002 L 325.9300000000002,456.1850000000002 L 326.0180000000002,456.14200000000017 L 326.1550000000002,456.26700000000017 L 326.2490000000002,456.4420000000002 L 326.3120000000002,456.5190000000002 L 326.4510000000002,456.5010000000002 L 326.72600000000017,456.5280000000002 L 326.92900000000014,456.5840000000002 L 327.0550000000001,456.5790000000002 L 327.22700000000015,456.5010000000002 L 327.32000000000016,456.3470000000002 L 327.5640000000002,456.2060000000002 L 327.7960000000002,456.0760000000002 L 327.9290000000002,455.9030000000002 L 328.1260000000002,455.6150000000002 L 328.1920000000002,455.4920000000002 L 328.2060000000002,455.28400000000016 L 328.4830000000002,454.6800000000002 L 328.5880000000002,454.5690000000002 L 328.6500000000002,454.3780000000002 L 328.7610000000002,454.1570000000002 L 328.7610000000002,453.9720000000002 L 328.8420000000002,453.79300000000023 L 329.0010000000002,453.63900000000024 L 329.1180000000002,453.54200000000026 L 329.3060000000002,453.28200000000027 L 329.4370000000002,453.03700000000026 L 329.7640000000002,452.49400000000026 L 329.78900000000016,452.34000000000026 L 329.91900000000015,452.2480000000003 L 329.96200000000016,452.13100000000026 L 330.10100000000017,451.9860000000003 L 330.2470000000002,451.8720000000003 L 330.3100000000002,451.7030000000003 L 330.4170000000002,451.5280000000003 L 330.6510000000002,451.39700000000033 L 330.73800000000017,451.33700000000033 L 331.0040000000002,450.8550000000003 L 331.03400000000016,450.6400000000003 L 331.27400000000017,450.63200000000035 L 331.6510000000002,450.88100000000037 L 331.95200000000017,451.2480000000004 L 332.3550000000002,452.42700000000036 L 332.4220000000002,453.51600000000036 L 332.5850000000002,454.08600000000035 L 333.0540000000002,455.27400000000034 L 333.0840000000002,455.49400000000037 L 333.15900000000016,455.7600000000004 L 333.3070000000002,456.04200000000037 L 333.4710000000002,456.50600000000037 L 333.47700000000015,456.5920000000004 L 333.37100000000015,456.71800000000036 L 333.52700000000016,456.7270000000004 L 333.6680000000002,456.80200000000036 L 333.76000000000016,457.09600000000034 L 333.8770000000002,457.29500000000036 L 334.08900000000017,457.56700000000035 L 334.5230000000002,457.65600000000035 L 334.85100000000017,457.68900000000036 L 335.22400000000016,457.84300000000036 L 335.49800000000016,458.04000000000036 L 335.71000000000015,458.70900000000034 L 335.64100000000013,459.12900000000036 L 335.66200000000015,459.42500000000035 L 335.55200000000013,459.54100000000034 L 335.2450000000001,459.73500000000035 L 335.1780000000001,459.83800000000036 L 334.5510000000001,460.33800000000036 L 334.4140000000001,460.57400000000035 L 334.0780000000001,460.89100000000036 L 333.74500000000006,461.49500000000035 L 333.25800000000004,462.04700000000037 L 333.086,462.18700000000035 L 332.82300000000004,462.21900000000034 L 332.663,462.3040000000003 L 332.285,462.75500000000034 L 331.77700000000004,462.9050000000003 L 331.73,463.16600000000034 L 331.437,463.76200000000034 L 331.178,464.08800000000036 L 331.013,464.1980000000004 L 330.59799999999996,464.79200000000037 L 330.54499999999996,465.05200000000036 L 330.54699999999997,465.50700000000035 L 330.27,465.78400000000033 L 329.98199999999997,465.9600000000003 L 329.94599999999997,466.34900000000033 L 329.816,466.4820000000003 L 329.705,466.5680000000003 L 329.11899999999997,466.46600000000035 L 328.20899999999995,466.88900000000035 L 327.89799999999997,466.99400000000037 L 328.89099999999996,467.0150000000004 L 329.21,467.2400000000004 L 329.909,467.0910000000004 L 330.755,466.5550000000004 L 331.078,466.4420000000004 L 331.734,466.07800000000043 L 332.001,465.83500000000043 L 332.48699999999997,465.54400000000044 L 332.59099999999995,465.41600000000045 L 332.86299999999994,465.2800000000004 L 333.01099999999997,465.45300000000043 L 333.02299999999997,465.5620000000004 L 332.799,465.77500000000043 L 332.85699999999997,465.91200000000043 L 333.00399999999996,466.08400000000046 L 333.05699999999996,466.32200000000046 L 333.07699999999994,466.50300000000044 L 333.16799999999995,466.82000000000045 L 333.46899999999994,467.2490000000004 L 333.4789999999999,467.3910000000004 L 333.43699999999995,467.57800000000043 L 333.58099999999996,467.7320000000004 L 333.72999999999996,467.82300000000043 L 334.24199999999996,468.2850000000004 L 334.64199999999994,468.02700000000044 L 334.88899999999995,467.95200000000045 L 335.04599999999994,467.84400000000045 L 335.3759999999999,467.77200000000045 L 335.6459999999999,467.88000000000045 L 336.1609999999999,468.0350000000004 L 336.5379999999999,467.8700000000004 L 337.2999999999999,467.4920000000004 L 337.0619999999999,468.1610000000004 L 336.8889999999999,468.7750000000004 L 336.7579999999999,469.02300000000037 L 336.62799999999993,469.6910000000004 L 336.49999999999994,469.87000000000035 L 336.39599999999996,470.07400000000035 L 336.566,470.0030000000003 L 336.712,469.90600000000035 L 336.899,469.64900000000034 L 337.039,469.20200000000034 L 337.591,468.00900000000036 L 337.749,467.90300000000036 L 338.208,467.76700000000034 L 338.99800000000005,466.81300000000033 L 339.3070000000001,466.8160000000003 L 339.50500000000005,467.0350000000003 L 339.69200000000006,467.1650000000003 L 339.74000000000007,466.9040000000003 L 340.01000000000005,466.7980000000003 L 339.725,466.66900000000027 L 339.67900000000003,466.55200000000025 L 339.65200000000004,466.35700000000026 L 339.84600000000006,466.09300000000025 L 339.7300000000001,465.85900000000026 L 340.13200000000006,465.5650000000003 L 340.10100000000006,465.3440000000003 L 340.24500000000006,465.16200000000026 L 340.4270000000001,464.9740000000003 L 340.6330000000001,464.88300000000027 L 340.6710000000001,464.72200000000026 L 340.8010000000001,464.6560000000003 L 340.9030000000001,464.6320000000003 L 341.1040000000001,464.8120000000003 L 341.3220000000001,464.6000000000003 L 341.5340000000001,464.5170000000003 L 341.62900000000013,464.55400000000026 L 341.74800000000016,464.64800000000025 L 341.87300000000016,464.6880000000003 L 341.97400000000016,464.6710000000003 L 342.23700000000014,464.53500000000025 L 342.48000000000013,464.75400000000025 L 342.62600000000015,464.80200000000025 L 342.5860000000001,464.67900000000026 L 342.5090000000001,464.5650000000003 L 342.56900000000013,464.47200000000026 L 342.68400000000014,464.41400000000027 L 343.0480000000001,464.4660000000003 L 343.2390000000001,464.5640000000003 L 343.4460000000001,464.7450000000003 L 343.73300000000006,464.75800000000027 L 343.95900000000006,464.73900000000026 L 344.10100000000006,464.84100000000024 L 344.33200000000005,464.84000000000026 L 344.44800000000004,464.99900000000025 L 344.8,465.22200000000026 L 344.87600000000003,465.3730000000003 L 345.15900000000005,465.44600000000025 L 345.42500000000007,465.53900000000027 L 345.7080000000001,465.56400000000025 L 345.9940000000001,465.54200000000026 L 346.0060000000001,465.73300000000023 L 346.2150000000001,465.78500000000025 L 346.4840000000001,465.7430000000003 L 346.68700000000007,465.9780000000003 L 347.2300000000001,466.1550000000003 L 347.60600000000005,466.42600000000033 L 347.85300000000007,466.3780000000003 L 348.1290000000001,466.45000000000033 L 348.42500000000007,467.0390000000003 L 348.4920000000001,467.45700000000033 L 348.6240000000001,467.39900000000034 L 348.74700000000007,467.21200000000033 L 348.9050000000001,466.87000000000035 L 349.2020000000001,466.75700000000035 L 349.3440000000001,466.8880000000003 L 349.64100000000013,467.0980000000003 L 349.8970000000001,467.3280000000003 L 350.0050000000001,467.47600000000034 L 350.1980000000001,467.50000000000034 L 350.0370000000001,467.68200000000036 L 350.19900000000007,467.66300000000035 L 350.39400000000006,467.53400000000033 L 350.56100000000004,467.8020000000003 L 350.687,468.0940000000003 L 350.712,468.3910000000003 L 350.59299999999996,468.5610000000003 L 350.489,468.66800000000035 L 350.373,468.8780000000003 L 350.236,468.91600000000034 L 350.099,468.9840000000003 L 350.255,469.13700000000034 L 350.362,469.28400000000033 L 350.596,468.8860000000003 L 350.761,468.7740000000003 L 350.999,468.7120000000003 L 351.12300000000005,468.9950000000003 L 351.14900000000006,469.26300000000026 L 350.7610000000001,469.37400000000025 L 350.7600000000001,469.58500000000026 L 350.6440000000001,469.70500000000027 L 350.5680000000001,469.84300000000025 L 350.5070000000001,470.13100000000026 L 350.4280000000001,470.37000000000023 L 350.1970000000001,471.43000000000023 L 350.1930000000001,471.60500000000025 L 350.4750000000001,471.41800000000023 L 350.99500000000006,470.8780000000002 L 351.1530000000001,470.3030000000002 L 351.35800000000006,469.7360000000002 L 351.5810000000001,469.5580000000002 L 351.7200000000001,469.5580000000002 L 351.9270000000001,469.62000000000023 L 351.9390000000001,469.8060000000002 L 351.9070000000001,469.91300000000024 L 351.6850000000001,470.1950000000002 L 351.5910000000001,470.3490000000002 L 351.68200000000013,470.5010000000002 L 352.1850000000001,470.0340000000002 L 352.4110000000001,469.87000000000023 L 352.6030000000001,469.90300000000025 L 352.9840000000001,469.68700000000024 L 353.75200000000007,469.6420000000002 L 353.81000000000006,469.3950000000002 L 353.9630000000001,469.2900000000002 L 354.3850000000001,469.3180000000002 L 355.2070000000001,469.53800000000024 L 355.5000000000001,469.71800000000025 L 355.93900000000014,469.8850000000002 L 356.17000000000013,470.08400000000023 L 357.1350000000001,470.4500000000002 L 357.8360000000001,470.4890000000002 L 358.1830000000001,470.3230000000002 L 358.6160000000001,470.4970000000002 L 358.8450000000001,470.6920000000002 L 359.2950000000001,470.7970000000002 L 359.7490000000001,470.8520000000002 L 360.09600000000006,470.7120000000002 L 360.9920000000001,470.6660000000002 L 362.1170000000001,470.45900000000023 L 362.78800000000007,470.5080000000002 L 363.54800000000006,470.6430000000002 L 364.09000000000003,470.9900000000002 L 364.54600000000005,471.1860000000002 L 364.82200000000006,471.3790000000002 L 365.26700000000005,471.5800000000002 L 366.21600000000007,472.1190000000002 L 366.5490000000001,472.4310000000002 L 367.1370000000001,472.8550000000002 L 367.7280000000001,473.0330000000002 L 368.04700000000014,473.4770000000002 L 368.3000000000001,473.6770000000002 L 368.9260000000001,474.4270000000002 L 369.6360000000001,474.95200000000017 L 370.1110000000001,475.47700000000015 L 371.0230000000001,475.81500000000017 L 371.3790000000001,476.37300000000016 L 371.9960000000001,476.44100000000014 L 372.25900000000007,476.52400000000017 L 372.57900000000006,476.7590000000002 L 373.0180000000001,476.89000000000016 L 373.5900000000001,476.8530000000002 L 374.22100000000006,476.88000000000017 L 374.7320000000001,476.77000000000015 L 375.9400000000001,476.97900000000016 L 376.1300000000001,477.08200000000016 L 376.3800000000001,477.3190000000002 L 376.8210000000001,478.2040000000002 L 377.08400000000006,479.1860000000002 L 377.21400000000006,479.9370000000002 L 377.51500000000004,480.5210000000002 L 377.67900000000003,481.6190000000002 L 377.819,481.9650000000002 L 377.83000000000004,482.2320000000002 L 377.94900000000007,482.2920000000002 L 378.02900000000005,483.0340000000002 L 377.99800000000005,483.3330000000002 L 377.88200000000006,483.7220000000002 L 377.8740000000001,483.8960000000002 L 377.8910000000001,484.0060000000002 L 377.8400000000001,484.1690000000002 L 377.82400000000007,484.3250000000002 L 377.9410000000001,484.67500000000024 L 377.94700000000006,484.9550000000002 L 377.7900000000001,485.2950000000002 L 377.5760000000001,486.1840000000002 L 377.0400000000001,487.6590000000002 L 376.52600000000007,488.50700000000023 L 375.8070000000001,489.3830000000002 L 375.3380000000001,489.84100000000024 L 375.1520000000001,489.88800000000026 L 374.9820000000001,489.79700000000025 L 375.10300000000007,490.03900000000027 L 374.99800000000005,490.2520000000003 L 374.52200000000005,490.8980000000003 L 374.04900000000004,491.32000000000033 L 373.55800000000005,492.0540000000003 L 373.5210000000001,492.0710000000003 L 372.89200000000005,492.3550000000003 L 372.52000000000004,492.58700000000033 L 372.04400000000004,493.00900000000036 L 371.607,493.67500000000035 L 371.51700000000005,493.76000000000033 L 371.35600000000005,493.7130000000003 L 371.36100000000005,494.05100000000033 L 370.98500000000007,494.58700000000033 L 370.87000000000006,494.66600000000034 L 370.87300000000005,494.51400000000035 L 370.93800000000005,494.39800000000037 L 370.968,494.2750000000004 L 370.966,494.12900000000036 L 370.861,494.23500000000035 L 370.638,494.63700000000034 L 370.71299999999997,494.9310000000003 L 370.55199999999996,495.3760000000003 L 369.936,496.6480000000003 L 369.18199999999996,497.71900000000034 L 369.008,498.05000000000035 L 368.38899999999995,498.77300000000037 L 367.93399999999997,499.12200000000036 L 367.806,499.12400000000036 L 367.661,499.0940000000004 L 367.588,498.5380000000004 L 367.226,498.2020000000004 L 367.122,498.14300000000037 L 366.974,498.49900000000036 L 366.84999999999997,498.5970000000004 L 366.671,498.6180000000004 L 366.86199999999997,498.77300000000037 L 366.91799999999995,498.9530000000004 L 366.72299999999996,499.3130000000004 L 366.717,499.6400000000004 L 366.36899999999997,500.0010000000004 L 366.167,500.2650000000004 L 366.065,500.5960000000004 L 366.003,500.9050000000004 L 366.156,500.8210000000004 L 366.229,500.8860000000004 L 366.286,500.9820000000004 L 366.251,501.1240000000004 L 366.13899999999995,501.3930000000004 L 366.15599999999995,502.0620000000004 L 366.11899999999997,502.2140000000004 L 366.22999999999996,502.3790000000004 L 366.34799999999996,502.0980000000004 L 366.41599999999994,502.1770000000004 L 366.08699999999993,503.9730000000004 L 366.21599999999995,504.7830000000004 L 366.26399999999995,505.7020000000004 L 366.412,506.6010000000004 L 366.575,507.40500000000037 L 366.58799999999997,507.4690000000004 L 366.36299999999994,508.4040000000004 L 366.07499999999993,509.3280000000004 L 365.90199999999993,510.08300000000037 L 365.79299999999995,510.89900000000034 L 365.68399999999997,511.2920000000003 L 365.64899999999994,511.6940000000003 L 365.77399999999994,512.6480000000003 L 365.82099999999997,512.8290000000003 L 365.472,513.2550000000003 L 365.09499999999997,513.4620000000003 L 364.88699999999994,513.6680000000003 L 364.42699999999996,514.4380000000003 L 364.17699999999996,515.5780000000003 L 364.171,516.1850000000003 L 364.289,517.4590000000003 L 364.20099999999996,517.9800000000002 L 364.05499999999995,518.3290000000003 L 363.8829999999999,518.5580000000003 L 363.4439999999999,518.8330000000003 L 363.0499999999999,519.5040000000004 L 362.8789999999999,520.2100000000004 L 362.6089999999999,520.4680000000004 L 362.5539999999999,520.8640000000004 L 362.33699999999993,521.2920000000004 L 361.77399999999994,521.9310000000004 L 361.40799999999996,522.1170000000004 L 361.234,522.2960000000004 L 361.123,522.6710000000004 L 360.77,523.2890000000004 L 360.51,524.0920000000004 L 360.578,524.3650000000005 L 360.582,524.4070000000005 L 360.677,525.3370000000004 L 360.642,525.5740000000004 L 360.299,525.8310000000004 L 359.007,526.3110000000004 L 358.663,526.5100000000003 L 357.892,527.3280000000003 L 357.844,527.5210000000003 L 357.876,527.7970000000003 L 358.00199999999995,527.9560000000002 L 357.87199999999996,528.1280000000003 L 357.71799999999996,528.4370000000002 L 357.49299999999994,528.4180000000002 L 356.20599999999996,528.4180000000002 L 355.50999999999993,528.5160000000002 L 355.1479999999999,528.4970000000002 L 354.9849999999999,528.4230000000002 L 354.8029999999999,528.3020000000002 L 354.7479999999999,528.1430000000003 L 354.84699999999987,527.9030000000002 L 354.78799999999984,527.7600000000002 L 354.59699999999987,527.7650000000002 L 354.38799999999986,527.8330000000002 L 354.35199999999986,527.9760000000002 L 354.36699999999985,528.0790000000002 L 354.4449999999998,528.2280000000002 L 354.48799999999983,528.4120000000001 L 354.4019999999998,528.5710000000001 L 353.9939999999998,528.5920000000001 L 353.5359999999998,528.738 L 352.96399999999977,528.7990000000001 L 352.50799999999975,528.9050000000001 L 352.2979999999998,528.7710000000001 L 352.50799999999975,528.7040000000001 L 352.8099999999998,528.7360000000001 L 353.1339999999998,528.6250000000001 L 353.05799999999977,528.4940000000001 L 352.59999999999974,528.3260000000001 L 352.0909999999997,528.4290000000001 L 351.80899999999974,528.6300000000001 L 351.1919999999997,528.6110000000001 L 350.43599999999975,528.7640000000001 L 350.31299999999976,528.9200000000001 L 350.3339999999998,529.2220000000001 L 350.48099999999977,529.2880000000001 L 350.62599999999975,529.4260000000002 L 350.48699999999974,529.5550000000002 L 350.35199999999975,529.6120000000002 L 349.55399999999975,529.7530000000002 L 348.81399999999974,530.3440000000002 L 348.5049999999997,530.4180000000001 L 348.22999999999973,530.6790000000001 L 348.2019999999997,530.902 L 348.1149999999997,531.037 L 347.93899999999974,531.044 L 347.5529999999997,530.922 L 347.05199999999974,530.919 L 346.6899999999997,531.016 L 344.8409999999997,531.977 L 344.17699999999974,532.3629999999999 L 343.41999999999973,533.15 L 342.14299999999974,534.034 L 341.47199999999975,534.563 L 341.34499999999974,534.6999999999999 L 341.23899999999975,534.7069999999999 L 341.02899999999977,534.8169999999999 L 341.1119999999998,534.9079999999999 L 341.25499999999977,534.9159999999999 L 341.19599999999974,535.2249999999999 L 340.92899999999975,535.4359999999999 L 340.42799999999977,535.9909999999999 L 340.3169999999998,535.9499999999998 L 340.4759999999998,535.6609999999998 L 340.2299999999998,535.6499999999999 L 339.86799999999977,535.5439999999999 L 339.7109999999998,535.6629999999999 L 339.7979999999998,535.9489999999998 L 339.66199999999975,536.0719999999999 L 339.41499999999974,536.0859999999999 L 339.19099999999975,536.0519999999999 L 338.94499999999977,535.843 L 339.05599999999976,536.222 L 339.57599999999974,536.314 L 339.79199999999975,536.403 L 339.87299999999976,536.549 L 339.46899999999977,537.226 L 339.13099999999974,537.314 L 339.09399999999977,537.41 L 339.27999999999975,537.41 L 339.38299999999975,537.598 L 339.2619999999998,538.356 L 339.0949999999998,538.5 L 338.9969999999998,538.504 L 338.8999999999998,538.634 L 339.0329999999998,538.8820000000001 L 339.17099999999976,539.0630000000001 L 339.15199999999976,539.4150000000001 L 339.09999999999974,539.7060000000001 L 339.09699999999975,539.9890000000001 L 339.27099999999973,540.5370000000001 L 339.3339999999997,541.1000000000001 L 339.4039999999997,541.3050000000002 L 339.44399999999973,541.5330000000001 L 339.32799999999975,541.7460000000001 L 339.3939999999997,542.0880000000001 L 339.19599999999974,542.671 L 339.2999999999997,543.513 L 339.25799999999975,544.3050000000001 L 339.1799999999998,544.7220000000001 L 339.0539999999998,545.0480000000001 L 338.76199999999983,545.4680000000001 L 338.75599999999986,545.8890000000001 L 338.12699999999984,546.2820000000002 L 337.43199999999985,546.8310000000001 L 336.78999999999985,547.4830000000002 L 336.0989999999999,548.4040000000002 L 335.2929999999999,549.8100000000002 L 334.5459999999999,551.8270000000002 L 333.6469999999999,553.3590000000003 L 333.28699999999986,553.9140000000002 L 332.8009999999999,554.5360000000002 L 332.1539999999999,555.2620000000002 L 331.2879999999999,555.9900000000001 L 330.3399999999999,556.6400000000001 L 329.99799999999993,556.9330000000001 L 329.66399999999993,557.3460000000001 L 329.5809999999999,557.1750000000001 L 329.6529999999999,556.893 L 329.6069999999999,556.682 L 329.5969999999999,556.409 L 329.7879999999999,556.358 L 330.0739999999999,556.5319999999999 L 330.2199999999999,556.4139999999999 L 330.3259999999999,556.2979999999999 L 330.67099999999994,556.2249999999999 L 331.32899999999995,555.512 L 331.81699999999995,555.2489999999999 L 332.0919999999999,554.8 L 332.13899999999995,554.5619999999999 L 332.12799999999993,554.079 L 332.28399999999993,553.9559999999999 L 332.63699999999994,553.9979999999999 L 332.70899999999995,553.8599999999999 L 332.67799999999994,553.7079999999999 L 332.74699999999996,553.3759999999999 L 333.22599999999994,553.0819999999999 L 333.4529999999999,552.7279999999998 L 333.3769999999999,551.8259999999998 L 333.4649999999999,551.7849999999997 L 333.6619999999999,551.9249999999997 L 333.75499999999994,551.8669999999997 L 333.8539999999999,551.4719999999998 L 333.8059999999999,551.2669999999997 L 333.5739999999999,551.2129999999997 L 332.7719999999999,551.6579999999998 L 332.51099999999985,551.6389999999998 L 332.46799999999985,551.2899999999997 L 332.07799999999986,551.1299999999998 L 331.9259999999999,550.8399999999998 L 331.88099999999986,550.6419999999998 L 331.74599999999987,550.5609999999998 L 331.75399999999985,550.9039999999998 L 331.7909999999998,551.2369999999997 L 332.14099999999985,551.6259999999997 L 332.05599999999987,551.7809999999997 L 331.8899999999999,551.9609999999997 L 331.7739999999999,552.3619999999996 L 331.78699999999986,552.8829999999996 L 331.69299999999987,552.7239999999996 L 331.57299999999987,552.6319999999996 L 331.5239999999999,553.1919999999996 L 331.29199999999986,553.4069999999996 L 331.2189999999999,553.6179999999996 L 331.27999999999986,553.8629999999996 L 331.15999999999985,554.0319999999996 L 330.56899999999985,554.4869999999996 L 329.97999999999985,554.7979999999997 L 329.85199999999986,554.9439999999996 L 329.7889999999999,555.2919999999996 L 329.6989999999999,555.6489999999995 L 329.4379999999999,555.9639999999996 L 329.2309999999999,556.5899999999996 L 329.2359999999999,556.8599999999996 L 329.3049999999999,557.2579999999996 L 329.4159999999999,557.5199999999995 L 329.2399999999999,557.6949999999995 L 329.0029999999999,558.0349999999995 L 328.8149999999999,558.4189999999995 L 328.34699999999987,559.8639999999996 L 327.94399999999985,560.7389999999996 L 327.63299999999987,561.1679999999996 L 327.1899999999999,561.6209999999995 L 325.9279999999999,562.7619999999995 L 325.85199999999986,562.7459999999995 L 325.66699999999986,562.6539999999995 L 325.5119999999999,562.5449999999995 L 325.47699999999986,562.4719999999995 L 325.4589999999999,562.3629999999995 L 325.4799999999999,561.9519999999995 L 325.4769999999999,560.8499999999996 L 325.5319999999999,560.6419999999996 L 325.6139999999999,560.5079999999996 L 325.8599999999999,560.3139999999996 L 326.0989999999999,560.0369999999996 L 326.36899999999986,559.6839999999996 L 326.6179999999999,559.4039999999997 L 326.5289999999999,559.2159999999997 L 326.32099999999986,559.0339999999997 L 325.9519999999998,558.8879999999997 L 325.5969999999998,558.6299999999997 L 325.2819999999998,558.2979999999997 L 325.1359999999998,557.9529999999996 L 325.0019999999998,557.5809999999997 L 324.8749999999998,557.2879999999997 L 324.8329999999998,557.1539999999997 L 324.7079999999998,557.0979999999996 L 324.5099999999998,556.9489999999996 L 324.3859999999998,556.8099999999996 L 324.2049999999998,556.7299999999996 L 323.8809999999998,556.6429999999996 L 323.5439999999998,556.4899999999996 L 323.12499999999983,556.1279999999996 L 322.8229999999998,555.7269999999996 L 322.6739999999998,555.4619999999996 L 322.5149999999998,555.2759999999996 L 321.6499999999998,554.9679999999996 L 321.25699999999983,554.6009999999997 L 321.10199999999986,554.7159999999997 L 320.87099999999987,554.6039999999997 L 320.64299999999986,554.4279999999997 L 320.5749999999999,554.2919999999997 L 320.47899999999987,554.1529999999997 L 320.3889999999999,553.9939999999997 L 320.3309999999999,553.8419999999996 L 320.0969999999999,553.5749999999996 L 319.7939999999999,553.2869999999996 L 319.66599999999994,553.2049999999996 L 319.59799999999996,553.2289999999996 L 319.53299999999996,553.3389999999996 L 319.491,553.4459999999996 L 319.377,553.5169999999996 L 319.236,553.6489999999995 L 319.091,553.8109999999996 L 318.906,553.9179999999996 L 318.686,553.9549999999996 L 318.53799999999995,553.9499999999996 L 318.508,553.8859999999996 L 318.5,553.6649999999996 L 318.555,553.1619999999996 L 318.427,552.9679999999996 L 318.25600000000003,552.7599999999996 L 318.059,552.4829999999996 L 317.411,551.8959999999996 L 316.528,551.0529999999997 L 316.216,550.7959999999997 L 315.923,550.7759999999997 L 315.65500000000003,550.8049999999997 L 315.408,550.9159999999997 L 315.221,551.3049999999997 L 315.144,551.3649999999997 L 314.668,551.3569999999996 L 314.195,551.2939999999996 L 314.036,551.0569999999997 L 314.162,550.9029999999997 L 314.60699999999997,550.5609999999997 L 314.85299999999995,550.2559999999997 L 314.9,549.9889999999997 L 315.113,549.7489999999997 L 315.493,549.5369999999997 L 315.916,549.1469999999997 L 316.382,548.5789999999997 L 316.666,548.1609999999997 L 316.766,547.8909999999997 L 316.949,547.6829999999998 L 317.21500000000003,547.5369999999998 L 317.44700000000006,547.2329999999998 L 317.6460000000001,546.7709999999998 L 317.9170000000001,546.4039999999999 L 318.2610000000001,546.1319999999998 L 318.45400000000006,545.9059999999998 L 318.49500000000006,545.7269999999999 L 318.59200000000004,545.6129999999998 L 318.74600000000004,545.5629999999999 L 318.82000000000005,545.4689999999998 L 318.81500000000005,545.3309999999998 L 318.857,545.2369999999997 L 318.94500000000005,545.1869999999998 L 319.0930000000001,545.2049999999998 L 319.3010000000001,545.2899999999998 L 319.4260000000001,545.2739999999999 L 319.4690000000001,545.1569999999999 L 319.4140000000001,545.0229999999999 L 319.2610000000001,544.8729999999999 L 319.3190000000001,544.7099999999999 L 319.72100000000006,544.4459999999999 L 320.01700000000005,544.3459999999999 L 320.20500000000004,544.1829999999999 L 320.38300000000004,543.9239999999999 L 320.672,543.7439999999999 L 321.071,543.6419999999999 L 321.177,543.545 L 321.16200000000003,543.42 L 321.244,543.3299999999999 L 321.48,543.2649999999999 L 321.608,543.1429999999999 L 321.629,542.9639999999999 L 321.70500000000004,542.7979999999999 L 321.836,542.6449999999999 L 321.982,542.5879999999999 L 322.14300000000003,542.6269999999998 L 322.29400000000004,542.5689999999998 L 322.43600000000004,542.4139999999999 L 322.60600000000005,542.3419999999999 L 322.80400000000003,542.3519999999999 L 322.906,542.3179999999999 L 323.246,542.2459999999999 L 323.43399999999997,542.1159999999999 L 323.58799999999997,541.8249999999998 L 323.72499999999997,541.7129999999999 L 323.84499999999997,541.7779999999999 L 324.05199999999996,541.6809999999999 L 324.34599999999995,541.4219999999999 L 324.40199999999993,541.4169999999999 L 324.6189999999999,541.2959999999999 L 324.8429999999999,540.848 L 324.9579999999999,540.549 L 324.9309999999999,540.304 L 324.8569999999999,540.129 L 324.8819999999999,539.8720000000001 L 324.9559999999999,539.1750000000001 L 324.9759999999999,538.8900000000001 L 325.0949999999999,538.6920000000001 L 325.08699999999993,538.4960000000001 L 324.87499999999994,538.056 L 324.66099999999994,537.6700000000001 L 324.54599999999994,537.017 L 324.4699999999999,536.769 L 324.2919999999999,536.703 L 324.12999999999994,536.487 L 323.92599999999993,536.468 L 323.8299999999999,536.385 L 323.73099999999994,536.317 L 323.58599999999996,536.337 L 323.46199999999993,536.463 L 323.23299999999995,536.467 L 323.08799999999997,536.519 L 322.91799999999995,536.631 L 322.756,536.5799999999999 L 322.654,536.4809999999999 L 322.435,536.4799999999999 L 322.45,536.0369999999999 L 322.836,535.381 L 322.94,535.076 L 322.89,534.903 L 323.005,534.294 L 323.286,533.252 L 323.376,532.5709999999999 L 323.274,532.2499999999999 L 323.271,532.0259999999998 L 323.416,531.8359999999998 L 323.486,531.7789999999998 L 323.12399999999997,531.5469999999998 L 322.929,531.3349999999998 L 322.679,531.1839999999999 L 322.40999999999997,531.0629999999999 L 322.28,531.1139999999999 L 322.14099999999996,531.184 L 321.87199999999996,531.295 L 321.566,531.487 L 321.40799999999996,531.557 L 321.12899999999996,531.628 L 320.81399999999996,531.6890000000001 L 320.554,531.6490000000001 L 320.33099999999996,531.6080000000001 L 320.191,531.4870000000001 L 320.11699999999996,531.224 L 320.11699999999996,531.0020000000001 L 320.07099999999997,530.6800000000001 L 319.904,530.498 L 319.848,530.3570000000001 L 319.839,530.186 L 319.858,529.995 L 319.904,529.854 L 319.876,529.683 L 319.80199999999996,529.562 L 319.82099999999997,529.351 L 319.784,529.059 L 319.673,528.8779999999999 L 319.617,528.6679999999999 L 319.617,528.4579999999999 L 319.534,528.2479999999998 L 319.525,528.0179999999998 L 319.599,527.8079999999998 L 319.627,527.5979999999997 L 319.544,527.4479999999998 L 319.38599999999997,527.3579999999997 L 319.265,527.1179999999997 L 319.246,526.8079999999998 L 319.116,526.6389999999998 L 318.977,526.4989999999998 L 318.81899999999996,526.4989999999998 L 318.578,526.4189999999998 L 318.36499999999995,526.4289999999997 L 318.02099999999996,526.4189999999998 L 317.86299999999994,526.3689999999998 L 317.7799999999999,526.2599999999998 L 317.5669999999999,526.1109999999998 L 317.4459999999999,525.8519999999997 L 317.2979999999999,525.8019999999998 L 317.0839999999999,525.8819999999998 L 317.0099999999999,525.9819999999999 L 316.92699999999985,526.1219999999998 L 316.7789999999998,526.2819999999998 L 316.58399999999983,526.2719999999998 L 316.3799999999998,526.3619999999999 L 316.18499999999983,526.3719999999998 L 315.92499999999984,526.3919999999998 L 315.66499999999985,526.3119999999998 L 315.34999999999985,526.2219999999998 L 315.07999999999987,526.1619999999998 L 314.8199999999999,526.2219999999998 L 314.6439999999999,526.1719999999998 L 314.41199999999986,526.1419999999998 L 314.1519999999999,526.1219999999998 L 313.94799999999987,525.9619999999999 L 313.72499999999985,525.8729999999998 L 313.60399999999987,525.9029999999998 L 313.44599999999986,526.0029999999998 L 313.2789999999999,525.9829999999998 L 313.0649999999999,525.9029999999998 L 312.98199999999986,525.7139999999998 L 313.00099999999986,525.5939999999998 L 313.04699999999985,525.4739999999998 L 313.1299999999999,525.3049999999998 L 313.0839999999999,525.1259999999999 L 313.1029999999999,524.9669999999999 L 313.1399999999999,524.8279999999999 L 313.17699999999985,524.6689999999999 L 313.14899999999983,524.5199999999999 L 313.1399999999998,524.3609999999999 L 313.1209999999998,524.2119999999999 L 313.0929999999998,524.0529999999999 L 313.2039999999998,523.8249999999999 L 313.2969999999998,523.637 L 313.2409999999998,523.4789999999999 L 313.2599999999998,523.3699999999999 L 313.33399999999983,523.1919999999999 L 313.42699999999985,522.9739999999999 L 313.41799999999984,522.568 L 313.3349999999998,522.331 L 313.2439999999998,522.267 L 313.2209999999998,522.196 L 313.26499999999976,522.102 L 313.21699999999976,522.006 L 313.19799999999975,521.9069999999999 L 313.24599999999975,521.8209999999999 L 313.1799999999998,521.651 L 313.0469999999998,521.602 L 313.0009999999998,521.553 L 312.9549999999998,521.365 L 312.91799999999984,521.148 L 312.93699999999984,520.981 L 312.87199999999984,520.834 L 312.7789999999998,520.7449999999999 L 312.6859999999998,520.5879999999999 L 312.5929999999998,520.4699999999998 L 312.5559999999998,520.3029999999998 L 312.4939999999998,520.0869999999998 L 312.6789999999998,520.0469999999998 L 312.7519999999998,519.9259999999998 L 312.8819999999998,519.7619999999998 L 313.05299999999977,519.7189999999998 L 313.2569999999998,519.6589999999999 L 313.33199999999977,519.5379999999999 L 312.85699999999974,519.1019999999999 L 312.5719999999997,518.8409999999999 L 312.7389999999997,518.4869999999999 L 313.0209999999997,517.8919999999998 L 313.29299999999967,517.3159999999998 L 313.5009999999997,516.8779999999998 L 313.5539999999997,516.7969999999998 L 313.7359999999997,516.7689999999998 L 313.7029999999997,516.5429999999998 L 313.6969999999997,516.3949999999998 L 313.5509999999997,516.3869999999997 L 313.7139999999997,515.8529999999997 L 313.9549999999997,515.0929999999997 L 314.1379999999997,514.5179999999997 L 314.1969999999997,514.4219999999997 L 314.3279999999997,514.3949999999996 L 314.35799999999966,514.3289999999996 L 314.19999999999965,514.2369999999996 L 314.10299999999967,514.0579999999997 L 313.89199999999965,513.5449999999996 L 313.5589999999996,512.7369999999996 L 313.5349999999996,512.4479999999996 L 313.4129999999996,512.2699999999996 L 313.2089999999996,512.3299999999996 L 312.9679999999996,512.2729999999996 L 312.3649999999996,511.8349999999996 L 311.9659999999996,511.59799999999956 L 311.8309999999996,511.4579999999996 L 311.7709999999996,511.00899999999956 L 311.6519999999996,510.51399999999956 L 311.6009999999996,509.90199999999953 L 311.6219999999996,509.7559999999995 L 311.9589999999996,509.2919999999995 L 311.95799999999963,509.05799999999954 L 311.98599999999965,508.85299999999955 L 311.97199999999964,508.6909999999996 L 311.8889999999996,508.68899999999957 L 311.7539999999996,508.7599999999996 L 311.54899999999964,508.81399999999957 L 311.43299999999965,508.81899999999956 L 310.25599999999963,508.7749999999996 L 308.91699999999963,508.72499999999957 L 307.80299999999966,508.6829999999996 L 306.8359999999997,508.6469999999996 L 306.8039999999997,508.2479999999996 L 306.7489999999997,507.5809999999996 L 306.7099999999997,507.10699999999963 L 306.6479999999997,506.35699999999963 L 306.2599999999997,505.88999999999965 L 305.8389999999997,505.3839999999997 L 305.6909999999997,505.2539999999997 L 306.1999999999997,505.23799999999966 L 306.5609999999997,505.22699999999963 L 306.48999999999967,503.8699999999996 L 306.37999999999965,503.73199999999963 L 306.28199999999964,503.29399999999964 L 306.21599999999967,503.04599999999965 L 306.0369999999997,502.84599999999966 L 305.9959999999997,502.61999999999966 L 306.0289999999997,502.4699999999997 L 306.1269999999997,502.37699999999967 L 306.1919999999997,502.14499999999964 L 306.14299999999974,501.91199999999964 L 306.03699999999975,501.69499999999965 L 305.90699999999975,501.4869999999996 L 305.65799999999973,501.35899999999964 L 305.30199999999974,501.1269999999996 L 304.7619999999997,500.8319999999996 L 304.3059999999997,500.6259999999996 L 304.1599999999997,500.65099999999956 L 303.3539999999997,500.73099999999954 L 303.08599999999973,500.7729999999995 L 302.9059999999997,500.7259999999995 L 302.3049999999997,500.7279999999995 L 302.06899999999973,500.5699999999995 L 301.87099999999975,500.3849999999995 L 301.44999999999976,499.91499999999945 L 301.38499999999976,499.67999999999944 L 301.22199999999975,499.60499999999945 L 300.97499999999974,499.63399999999945 L 300.72499999999974,499.60199999999946 L 300.24099999999976,499.40699999999947 L 299.78699999999975,499.2069999999995 L 299.5669999999997,499.21499999999946 L 299.37199999999973,499.08999999999946 L 299.0269999999997,498.78499999999946 L 298.8659999999997,498.6659999999994 L 298.7929999999997,498.5079999999994 L 298.71999999999974,498.2759999999994 L 298.58099999999973,498.2259999999994 L 298.40199999999976,498.26799999999935 L 298.20799999999974,498.3869999999994 L 297.93599999999975,498.30799999999937 L 297.6029999999997,498.09399999999937 L 297.38799999999975,497.9269999999994 L 297.26499999999976,497.8479999999994 L 296.9759999999998,497.73099999999937 L 296.6969999999998,497.70699999999937 L 296.27499999999975,497.8789999999994 L 295.92899999999975,497.80799999999937 L 295.3869999999998,497.74599999999936 L 294.9229999999998,497.62099999999936 L 294.7539999999998,497.29699999999934 L 294.6629999999998,497.08299999999934 L 294.3869999999998,496.94899999999933 L 294.16699999999975,496.78499999999934 L 293.90499999999975,496.5359999999993 L 293.77499999999975,496.4529999999993 L 293.5379999999997,496.3839999999993 L 293.31899999999973,496.29599999999925 L 293.29499999999973,496.13899999999927 L 293.21299999999974,495.9319999999993 L 293.19399999999973,495.8809999999993 L 293.04499999999973,495.6299999999993 L 292.97499999999974,495.61199999999934 L 292.89799999999974,495.66199999999935 L 292.83999999999975,495.69799999999935 L 292.77699999999976,495.65399999999937 L 292.76599999999974,495.54199999999935 L 292.80599999999976,495.36199999999934 L 292.71999999999974,495.17399999999935 L 292.5069999999997,494.9759999999994 L 292.3949999999997,494.7709999999994 L 292.3849999999997,494.5589999999994 L 292.3379999999997,494.4179999999994 L 292.2529999999997,494.3459999999994 L 292.2049999999997,494.22199999999935 L 292.1949999999997,494.04599999999937 L 292.2569999999997,493.8359999999994 L 292.39099999999974,493.5929999999994 L 292.36199999999974,493.2179999999994 L 292.17099999999976,492.7119999999994 L 292.06499999999977,492.34799999999944 L 292.0449999999998,492.12399999999946 L 292.0739999999998,491.95799999999946 L 292.18999999999977,491.79699999999946 L 292.42099999999976,491.4019999999995 L 292.46199999999976,491.1009999999995 L 292.3889999999998,490.7619999999995 L 292.3789999999998,490.5029999999995 L 292.4319999999998,490.3249999999995 L 292.3519999999998,490.0919999999995 L 292.1879999999998,489.87199999999945 L 292.07399999999984,489.86699999999945 L 291.91899999999987,489.92699999999945 L 291.73199999999986,490.11299999999943 L 291.51199999999983,490.14599999999945 L 291.31699999999984,490.03099999999944 L 290.7049999999998,490.07899999999944 L 289.7539999999998,490.19399999999945 L 289.3739999999998,490.3129999999995 L 289.1499999999998,490.36399999999946 L 288.8789999999998,490.40299999999945 L 288.44499999999977,490.61699999999945 L 287.37399999999974,491.44799999999947 L 287.15199999999976,491.56899999999945 L 286.89999999999975,491.58599999999944 L 286.75299999999976,491.70099999999945 L 286.51699999999977,491.7909999999994 L 286.05299999999977,492.11999999999944 L 285.8169999999998,492.38399999999945 L 285.6619999999998,492.6229999999994 L 285.48299999999983,492.6309999999994 L 285.3439999999998,492.56499999999943 L 284.9049999999998,492.59799999999944 L 284.6799999999998,492.67999999999944 L 284.43599999999975,492.91199999999947 L 284.13299999999975,493.3319999999995 L 284.00799999999975,493.4519999999995 L 283.7639999999997,493.5759999999995 L 283.48199999999974,493.6789999999995 L 283.13299999999975,493.8329999999995 L 282.97699999999975,493.8429999999995 L 282.83899999999977,493.8699999999995 L 282.71999999999974,493.7999999999995 L 282.6799999999997,493.6489999999995 L 282.4999999999997,493.55399999999946 L 282.0699999999997,493.50599999999946 L 281.4329999999997,493.39599999999945 L 280.7759999999997,493.37499999999943 L 280.4499999999997,493.3849999999994 L 280.18199999999973,493.3919999999994 L 279.71699999999976,493.3329999999994 L 279.37799999999976,493.3229999999994 L 279.08099999999973,493.4719999999994 L 278.6489999999997,493.6569999999994 L 278.4519999999997,493.70399999999944 L 278.30699999999973,493.71099999999944 L 278.1659999999997,493.6879999999994 L 278.0009999999997,493.5919999999994 L 277.7699999999997,493.3709999999994 L 277.5919999999997,493.4559999999994 L 277.4639999999997,493.5509999999994 L 277.4659999999997,493.0699999999994 L 277.4689999999997,492.3469999999994 L 277.4719999999997,491.7099999999994 L 277.4739999999997,491.2009999999994 L 277.4759999999997,490.6069999999994 L 277.4779999999997,490.1879999999994 L 277.5989999999997,490.0289999999994 L 277.6729999999997,489.85099999999943 L 277.5839999999997,489.61299999999943 L 277.6039999999997,489.3949999999994 L 277.6659999999997,489.2429999999994 L 277.74699999999973,489.0949999999994 L 277.5599999999997,489.1689999999994 L 277.4779999999997,489.2099999999994 L 277.3779999999997,489.32199999999943 L 277.1359999999997,489.4739999999994 L 276.9739999999997,489.6259999999994 L 276.78299999999973,489.74999999999943 L 276.5409999999997,490.02299999999946 L 276.3419999999997,490.17299999999943 L 276.1349999999997,490.26899999999944 L 275.7909999999997,490.58999999999946 L 275.5059999999997,490.6539999999995 L 274.75199999999967,490.70299999999946 L 273.9679999999997,490.7019999999995 L 273.2509999999997,490.7009999999995 L 273.1429999999997,490.6969999999995 L 273.1499999999997,490.4319999999995 L 273.16799999999967,490.2449999999995 L 272.92299999999966,490.0479999999995 L 272.90599999999966,489.8049999999995 L 272.84099999999967,489.6369999999995 L 272.7589999999997,489.4319999999995 L 272.5879999999997,489.30099999999953 L 272.3469999999997,489.24999999999955 L 271.9519999999997,489.13699999999955 L 271.3659999999997,489.01899999999955 L 270.8059999999997,489.01099999999957 L 270.2569999999997,489.0219999999996 L 270.5919999999997,488.6099999999996 L 270.9269999999997,488.1989999999996 L 270.9169999999997,487.8409999999996 L 270.6459999999997,487.5289999999996 L 270.49999999999966,487.3349999999996 L 270.27399999999966,487.0679999999996 L 269.99499999999966,486.8829999999996 L 269.8429999999997,486.6369999999996 L 269.8569999999997,486.4879999999996 L 269.8329999999997,486.3899999999996 L 269.7269999999997,486.3329999999996 L 269.6209999999997,486.2429999999996 L 269.4749999999997,486.1439999999996 L 269.3039999999997,486.01299999999964 L 269.3039999999997,485.88199999999966 L 269.2389999999997,485.74299999999965 L 269.1329999999997,485.57999999999964 L 269.1329999999997,485.44899999999967 L 269.0349999999997,485.2439999999997 L 268.9289999999997,485.0969999999997 L 268.8229999999997,484.9989999999997 L 268.6679999999997,484.8599999999997 L 268.6759999999997,484.7459999999997 L 268.7899999999997,484.6889999999997 L 268.83899999999966,484.5579999999997 L 268.82299999999964,484.42699999999974 L 268.69299999999964,484.34499999999974 L 268.53799999999967,484.30399999999975 L 268.33399999999966,484.0669999999997 L 268.18699999999967,483.94399999999973 L 268.08899999999966,483.8699999999997 L 268.03199999999964,483.7879999999997 L 268.08899999999966,483.7309999999997 L 268.15399999999966,483.6489999999997 L 268.17099999999965,483.51799999999974 L 268.13799999999964,483.39599999999973 L 268.13799999999964,483.28999999999974 L 268.23599999999965,483.2569999999997 L 268.34199999999964,483.2739999999997 L 268.44799999999964,483.2089999999997 L 268.58699999999965,483.1849999999997 L 268.7419999999996,483.1679999999997 L 268.8239999999996,483.09499999999974 L 268.81599999999963,482.96499999999975 L 268.7179999999996,482.71199999999976 L 268.6199999999996,482.60599999999977 L 268.5869999999996,482.4509999999998 L 268.6669999999996,482.1529999999998 L 268.71799999999956,481.9619999999998 L 268.89699999999954,481.7599999999998 L 269.44299999999953,481.3269999999998 L 269.93299999999954,481.03299999999984 L 270.1719999999995,481.0029999999999 L 270.34899999999953,480.8939999999999 L 270.46099999999956,480.7269999999999 L 270.49199999999956,480.5449999999999 L 270.4669999999996,480.3859999999999 L 270.3759999999996,480.15199999999993 L 270.2669999999996,479.85999999999996 L 270.1849999999996,479.69699999999995 L 270.2579999999996,479.50199999999995 L 270.3879999999996,479.23499999999996 L 270.6539999999996,478.83199999999994 L 270.9019999999996,478.3979999999999 L 270.9289999999996,478.27199999999993 L 270.96099999999956,478.00699999999995 L 271.07499999999953,477.4669999999999 L 271.1379999999995,477.17499999999995 L 271.1049999999995,477.06199999999995 L 271.1619999999995,476.96399999999994 L 271.3169999999995,476.88199999999995 L 271.6909999999995,476.80799999999994 L 271.94499999999954,476.64699999999993 L 272.33599999999956,476.34399999999994 L 272.6619999999996,476.02199999999993 L 272.93199999999956,475.91799999999995 L 273.42099999999954,475.61999999999995 L 273.70199999999954,475.4309999999999 L 273.81199999999956,475.3719999999999 L 274.08799999999957,475.2349999999999 L 274.5829999999996,475.1879999999999 L 274.99499999999955,475.1389999999999 L 275.22799999999955,475.0489999999999 L 275.56899999999956,475.01199999999994 L 275.79799999999955,474.91099999999994 L 276.05299999999954,474.90799999999996 L 276.5319999999995,474.80499999999995 L 276.69499999999954,474.65099999999995 L 276.83399999999955,474.4669999999999 L 277.02099999999956,474.30999999999995 L 277.23999999999955,474.26899999999995 L 277.4839999999996,474.29599999999994 L 277.77599999999956,474.29299999999995 L 278.12999999999954,474.24399999999997 L 278.30099999999953,474.366 L 278.3759999999995,474.515 L 278.59399999999954,474.666 L 278.7489999999995,474.658 L 278.9039999999995,474.625 L 279.1159999999995,474.755 L 279.2549999999995,474.739 L 279.3439999999995,474.666 L 279.3609999999995,474.484 L 279.4109999999995,474.385 L 279.5149999999995,473.815 L 279.6869999999995,472.874 L 279.8429999999995,472.021 L 280.01499999999953,471.07800000000003 L 280.1939999999995,470.10400000000004 L 280.3749999999995,469.11800000000005 L 280.5229999999995,468.309 L 280.6499999999995,467.61400000000003 L 280.72899999999953,467.187 L 280.85099999999954,466.628 L 280.89899999999955,466.137 L 280.9479999999995,465.996 L 280.9169999999995,465.87699999999995 L 280.8109999999995,465.70799999999997 L 280.8119999999995,465.63399999999996 L 280.8239999999995,465.53599999999994 L 280.8119999999995,465.44999999999993 L 280.7009999999995,465.35799999999995 L 280.6149999999995,465.30299999999994 L 280.5469999999995,465.22299999999996 L 280.5159999999995,465.11199999999997 L 280.4599999999995,465.001 L 280.43499999999955,464.88399999999996 L 280.35399999999953,464.792 L 280.32999999999953,464.67499999999995 L 280.3859999999995,464.56399999999996 L 280.4099999999995,464.44699999999995 L 280.3859999999995,464.33699999999993 L 280.3549999999995,464.2079999999999 L 280.2929999999995,464.0849999999999 L 280.1989999999995,464.00999999999993 L 279.9739999999995,463.9269999999999 L 279.7479999999995,463.7279999999999 L 279.4809999999995,463.5499999999999 L 279.1409999999995,463.2119999999999 L 279.0669999999995,463.05199999999985 L 279.0659999999995,462.61299999999983 L 279.0809999999995,462.13699999999983 L 279.1029999999995,461.41799999999984 L 279.1139999999995,461.05199999999985 L 279.30599999999953,461.03099999999984 L 279.4749999999995,461.02099999999984 L 279.65199999999953,460.99599999999987 L 279.80599999999953,460.9709999999999 L 279.9479999999995,460.9179999999999 L 280.0539999999995,460.8529999999999 L 280.1799999999995,460.8109999999999 L 280.2789999999995,460.8259999999999 L 280.3779999999995,460.7679999999999 L 280.48699999999945,460.7129999999999 L 280.59299999999945,460.6679999999999 L 280.74699999999945,460.6299999999999 L 280.89099999999945,460.7179999999999 L 280.97199999999947,460.8059999999999 L 281.06599999999946,460.8479999999999 L 281.1539999999995,460.8379999999999 L 281.21499999999946,460.8459999999999 L 281.27799999999945,460.9159999999999 L 281.35899999999947,460.9209999999999 L 281.47499999999945,460.9079999999999 L 281.58399999999943,460.8929999999999 L 281.63399999999945,460.8719999999999 L 281.6419999999994,460.8269999999999 L 281.6139999999994,460.7489999999999 L 281.5759999999994,460.67599999999993 L 281.60599999999937,460.56299999999993 L 281.60899999999936,460.4269999999999 L 281.61399999999935,460.2539999999999 L 281.52799999999934,460.1579999999999 L 281.4419999999993,459.9769999999999 L 281.3459999999993,459.8309999999999 L 281.1969999999993,459.7329999999999 L 281.0579999999993,459.6949999999999 L 280.9419999999993,459.75599999999986 L 280.8339999999993,459.76599999999985 L 280.7529999999993,459.71099999999984 L 280.62199999999933,459.70899999999983 L 280.47999999999934,459.69099999999986 L 280.33099999999934,459.66999999999985 L 280.06099999999935,459.70999999999987 L 279.96499999999935,459.6609999999999 L 279.8339999999994,459.6559999999999 L 279.6819999999994,459.7089999999999 L 279.6859999999994,459.0139999999999 L 279.68999999999943,458.3589999999999 L 279.69199999999944,457.89899999999994 L 279.82799999999946,457.90899999999993 L 279.99699999999945,457.8259999999999 L 280.2479999999994,457.81299999999993 L 280.4409999999994,457.72599999999994 L 280.5489999999994,457.71899999999994 L 280.7529999999994,457.7609999999999 L 280.96599999999944,457.8509999999999 L 281.17499999999944,457.86399999999986 L 281.72299999999944,457.86399999999986 L 282.31499999999943,457.86399999999986 L 282.9739999999994,457.86399999999986 L 283.63399999999945,457.86399999999986 L 284.20599999999945,457.86399999999986 L 284.38299999999947,457.86899999999986 L 284.27999999999946,457.71599999999984 L 284.15999999999946,457.51799999999986 L 284.20599999999945,457.36199999999985 L 284.2649999999995,457.20499999999987 L 284.3339999999995,457.1229999999999 L 284.5119999999995,457.20999999999987 L 284.6609999999995,457.47699999999986 L 284.7849999999995,457.6779999999999 L 284.9059999999995,457.7769999999999 L 285.0559999999995,457.7879999999999 L 285.2259999999995,457.7539999999999 L 285.3959999999995,457.6709999999999 L 285.6859999999995,457.3029999999999 L 285.97399999999953,456.9879999999999 L 286.12299999999954,456.8819999999999 L 286.28099999999955,456.7849999999999 L 286.39899999999955,456.74799999999993 L 286.55999999999955,456.75999999999993 L 286.6959999999996,456.84599999999995 L 286.7839999999996,456.9959999999999 L 287.1059999999996,457.5179999999999 L 287.3489999999996,457.9119999999999 L 287.4309999999996,458.1579999999999 L 287.4359999999996,458.7579999999999 L 287.4209999999996,459.28899999999993 L 287.4529999999996,459.35799999999995 L 287.5009999999996,459.37799999999993 L 288.0319999999996,459.25299999999993 L 288.7529999999996,459.89699999999993 L 289.2859999999996,460.37299999999993 L 289.5159999999996,460.5249999999999 L 289.6439999999996,460.5669999999999 L 289.9539999999996,460.5349999999999 L 290.3219999999996,460.4729999999999 L 290.5009999999996,460.4049999999999 L 290.69899999999956,460.2559999999999 L 291.0199999999996,460.0489999999999 L 291.2819999999996,459.93499999999995 L 291.3849999999996,459.91999999999996 L 291.4889999999996,459.95699999999994 L 291.7099999999996,460.08099999999996 L 291.83099999999956,460.311 L 291.7199999999996,460.578 L 291.7389999999996,460.74399999999997 L 291.9709999999996,460.73499999999996 L 292.1569999999996,460.45899999999995 L 292.2869999999996,460.24099999999993 L 292.55899999999957,460.0639999999999 L 292.82399999999956,459.81299999999993 L 293.00899999999956,459.5729999999999 L 293.22599999999954,459.43299999999994 L 293.55299999999954,459.26199999999994 L 293.81199999999956,459.15799999999996 L 294.0539999999996,459.169 L 294.2339999999996,459.056 L 294.4669999999996,458.844 L 294.6299999999996,458.674 L 294.7429999999996,458.613 L 294.9699999999996,458.63 L 295.2529999999996,458.60699999999997 L 295.5309999999996,458.4 L 295.7839999999996,458.15 L 295.9179999999996,457.72799999999995 L 296.00599999999963,457.3539999999999 L 296.08199999999965,457.2779999999999 L 296.17399999999964,457.2179999999999 L 296.28199999999964,457.1789999999999 L 296.54199999999963,457.15199999999993 L 296.99799999999965,456.9529999999999 L 297.31199999999967,456.7509999999999 L 297.6099999999997,456.7079999999999 L 297.6979999999997,456.65399999999994 L 297.8059999999997,456.4669999999999 L 297.8599999999997,456.1379999999999 L 297.8189999999997,455.9389999999999 L 297.2709999999997,455.8769999999999 L 296.9119999999997,455.8769999999999 L 296.3179999999997,455.8259999999999 L 296.0349999999997,455.7439999999999 L 295.9739999999997,455.6869999999999 L 295.96799999999973,455.6239999999999 L 296.02499999999975,455.48099999999994 L 296.07999999999976,455.21399999999994 L 295.99899999999974,454.8519999999999 L 295.70299999999975,454.2849999999999 L 295.49199999999973,453.7269999999999 L 295.4639999999997,453.3379999999999 L 295.4689999999997,452.9269999999999 L 295.4859999999997,452.6579999999999 L 295.3339999999997,452.4479999999999 L 294.5129999999997,451.7849999999999 L 294.2289999999997,451.4719999999999 L 294.1349999999997,451.25499999999994 L 293.8109999999997,450.85599999999994 L 293.8929999999997,450.73299999999995 L 294.0799999999997,450.73699999999997 L 294.2389999999997,450.84099999999995 L 294.3849999999997,451.06299999999993 L 294.4889999999997,451.11299999999994 L 294.63199999999966,451.11299999999994 L 295.38899999999967,451.11199999999997 L 295.5659999999997,451.15 L 295.6729999999997,451.22499999999997 L 295.7639999999997,451.318 L 295.89999999999975,451.577 L 296.04599999999976,451.703 L 296.3459999999998,451.69899999999996 L 296.8159999999998,451.69399999999996 L 297.0799999999998,451.67099999999994 L 297.23799999999983,451.74299999999994 L 297.43399999999986,451.80299999999994 L 297.84699999999987,451.66499999999996 L 297.9619999999999,451.662 L 298.0859999999999,451.72299999999996 L 298.5309999999999,452.186 L 298.7859999999999,452.381 L 299.00099999999986,452.64 L 299.31399999999985,452.64099999999996 L 299.57399999999984,452.419 L 299.64299999999986,451.67199999999997 L 299.72099999999983,451.455 L 299.8519999999998,451.394 L 300.0079999999998,451.387 L 300.1929999999998,451.27 L 300.3929999999998,451.118 L 300.5669999999998,451.067 L 301.2899999999998,451.23 L 301.4909999999998,451.15200000000004 L 302.22299999999984,450.95500000000004 L 302.97099999999983,450.701 L 303.1809999999998,450.38100000000003 L 303.4939999999998,450.295 L 303.7399999999998,450.06100000000004 L 303.93799999999976,450.08500000000004 L 304.2379999999998,450.095 L 304.42399999999975,450.05400000000003 L 304.51799999999974,450.01000000000005 L 304.62099999999975,449.90000000000003 L 304.78999999999974,449.58700000000005 L 304.9949999999997,449.468 L 305.2519999999997,449.34200000000004 L 305.4279999999997,449.194 L 305.5729999999997,449.011 L 305.6399999999997,448.85200000000003 L 305.6379999999997,448.72600000000006 L 305.5529999999997,448.48100000000005 L 305.4489999999997,448.25100000000003 L 305.3369999999997,448.175 L 305.2529999999997,448.146 L 305.5079999999997,448.09200000000004 L 305.7179999999997,448.17300000000006 L 306.04599999999965,448.18500000000006 L 306.1889999999996,448.12300000000005 L 306.3959999999996,448.153 L 306.6579999999996,447.988 L 306.8259999999996,448.042 L 306.9369999999996,448.042 L 307.0379999999996,448.167 L 307.1169999999996,448.308 L 307.3619999999996,448.479 L 307.3379999999996,448.739 L 307.2929999999996,448.969 L 307.2609999999996,449.235 L 307.2469999999996,449.437 L 307.14299999999963,449.644 L 306.9869999999996,449.837 L 306.94099999999963,449.91499999999996 L 306.91899999999964,450.01699999999994 L 307.02399999999966,450.07899999999995 L 307.20999999999964,450.0969999999999 L 307.44199999999967,450.1049999999999 L 307.5999999999997,450.1649999999999 L 307.8039999999997,450.1769999999999 L 308.04999999999967,450.3429999999999 L 308.1689999999997,450.4429999999999 L 308.1789999999997,450.5199999999999 L 308.1009999999997,450.70399999999995 L 308.0699999999997,450.87399999999997 L 308.1309999999997,450.98199999999997 L 308.2029999999997,451.05999999999995 L 308.4019999999997,451.44399999999996 L 308.49699999999973,451.57699999999994 L 308.5769999999997,451.61999999999995 L 308.5959999999997,451.69399999999996 L 308.52799999999974,451.83399999999995 L 308.44599999999974,452.01199999999994 L 308.26099999999974,452.19899999999996 L 308.23599999999976,452.347 L 308.08899999999977,452.44 L 307.74399999999974,452.661 L 307.80399999999975,453.011 L 307.81599999999975,453.18800000000005 L 307.8099999999998,453.326 L 307.6919999999998,453.511 L 307.4879999999998,454.05600000000004 L 307.4129999999998,454.32800000000003 L 307.3469999999998,454.956 L 307.35099999999983,455.16700000000003 L 307.4449999999998,455.45000000000005 L 307.6449999999998,456.07900000000006 L 307.7589999999998,456.18000000000006 L 308.02199999999976,456.32700000000006 L 308.0549999999998,456.75200000000007 L 308.03199999999975,457.1960000000001 L 308.01999999999975,457.3680000000001 L 308.06299999999976,457.4420000000001 L 308.18099999999976,457.4780000000001 L 308.26499999999976,457.5310000000001 L 308.27799999999974,457.6620000000001 L 308.26999999999975,457.7990000000001 L 308.4659999999998,457.8780000000001 L 308.6369999999998,457.9280000000001 L 308.7949999999998,458.1160000000001 L 309.0799999999998,458.4090000000001 L 309.1939999999998,458.4630000000001 L 309.2509999999998,458.58400000000006 L 309.4919999999998,458.8310000000001 L 309.8589999999998,458.92100000000005 L 310.2289999999998,459.03000000000003 L 310.37499999999983,459.185 L 310.5269999999998,459.311 L 310.6419999999998,459.31699999999995 L 310.7389999999998,459.29699999999997 L 310.89899999999983,459.188 L 311.0269999999998,459.094 L 311.24999999999983,459.09999999999997 L 311.51199999999983,459.08399999999995 L 311.55699999999985,459.00699999999995 L 311.5819999999998,458.90799999999996 L 311.52799999999985,458.655 L 311.62099999999987,458.578 L 311.83799999999985,458.53499999999997 L 311.88099999999986,458.4 L 311.92999999999984,458.32599999999996 L 311.99199999999985,458.23999999999995 L 312.06599999999986,458.22799999999995 L 312.1589999999999,458.27699999999993 L 312.30199999999985,458.30799999999994 L 312.46299999999985,458.35099999999994 L 312.54899999999986,458.43699999999995 L 312.69199999999984,458.44399999999996 L 312.85099999999983,458.42799999999994 L 312.91499999999985,458.37299999999993 L 312.9619999999999,458.27699999999993 L 312.9969999999999,458.06999999999994 L 313.0989999999999,458.06399999999996 L 313.30399999999986,458.018 L 313.5219999999999,457.92699999999996 L 313.81399999999985,457.91299999999995 L 314.0869999999999,457.91499999999996 L 314.2239999999999,457.854 L 314.3509999999999,457.721 L 314.59699999999987,457.344 L 314.7259999999999,457.257 L 314.8649999999999,457.192 L 314.9829999999999,457.204 L 315.2239999999999,457.141 L 315.42199999999985,457.05100000000004 L 315.49599999999987,457.07400000000007 L 315.64999999999986,457.26700000000005 L 315.72799999999984,457.309 L 315.8419999999998,457.32300000000004 L 316.2149999999998,457.42100000000005 L 316.4129999999998,457.39000000000004 L 316.6269999999998,457.32800000000003 L 316.8329999999998,457.305 L 316.9809999999998,457.348 L 317.08799999999985,457.29200000000003 L 317.181,457.255 M 334.536,457.265 L 334.25600000000003,457.392 L 334.095,457.343 L 333.947,457.011 L 333.997,456.735 L 334.2,456.64300000000003 L 334.35699999999997,456.663 L 334.41499999999996,456.69800000000004 L 334.55499999999995,457.151 L 334.536,457.265 M 334.946,461.575 L 334.641,461.669 L 334.584,461.58099999999996 L 334.584,461.22999999999996 L 334.67,461.03799999999995 L 335.058,460.984 L 335.098,460.92699999999996 L 335.209,460.89099999999996 L 335.271,461.01199999999994 L 335.262,461.21299999999997 L 334.946,461.575 M 334.179,462.282 L 334.12899999999996,462.692 L 333.62399999999997,462.519 L 333.662,462.1 L 333.89799999999997,461.982 L 334.10699999999997,461.759 L 334.179,461.486 L 334.183,461.114 L 334.26099999999997,461.04999999999995 L 334.32899999999995,461.02399999999994 L 334.38999999999993,461.0489999999999 L 334.41399999999993,461.6069999999999 L 334.4429999999999,461.9489999999999 L 334.179,462.282 M 336.11,461.923 L 336.225,462.069 L 335.82800000000003,462.65200000000004 L 335.60900000000004,462.73600000000005 L 335.369,462.75300000000004 L 335.05800000000005,462.57900000000006 L 334.57400000000007,462.59200000000004 L 334.42300000000006,462.55100000000004 L 334.40700000000004,462.297 L 334.61,462.026 L 335.016,462.041 L 335.71500000000003,461.823 L 336.11,461.923 M 336.936,462.984 L 336.19199999999995,463.07099999999997 L 335.852,462.93199999999996 L 335.929,462.81499999999994 L 336.183,462.62799999999993 L 336.492,462.4959999999999 L 336.769,462.4369999999999 L 337.058,462.5109999999999 L 337.137,462.6679999999999 L 337.113,462.8259999999999 L 336.936,462.984 M 333.543,463.037 L 332.77500000000003,463.58299999999997 L 332.51500000000004,463.404 L 332.46100000000007,463.3 L 332.50500000000005,463.195 L 332.49600000000004,463.151 L 332.58200000000005,462.964 L 333.011,462.811 L 333.22700000000003,462.78499999999997 L 333.50300000000004,462.83299999999997 L 333.54900000000004,462.967 L 333.543,463.037 M 336.417,463.31 L 336.679,463.322 L 337.04999999999995,463.269 L 337.299,463.139 L 337.577,463.113 L 337.852,463.127 L 338.779,463.272 L 339.336,463.317 L 339.54,463.363 L 339.73900000000003,463.429 L 339.88500000000005,463.5 L 339.92100000000005,463.654 L 339.78600000000006,463.902 L 339.68500000000006,464.162 L 339.59100000000007,464.525 L 339.5180000000001,464.59799999999996 L 339.3960000000001,464.57899999999995 L 339.4720000000001,464.90399999999994 L 339.4450000000001,465.03399999999993 L 339.3840000000001,465.1599999999999 L 339.2350000000001,465.4219999999999 L 339.0090000000001,465.7559999999999 L 338.9420000000001,465.8259999999999 L 338.7700000000001,465.9419999999999 L 338.6300000000001,466.0899999999999 L 338.6600000000001,466.2299999999999 L 338.7300000000001,466.3709999999999 L 338.64700000000005,466.5469999999999 L 338.38000000000005,466.8039999999999 L 338.22,466.86599999999993 L 338.07300000000004,466.89199999999994 L 337.937,466.86699999999996 L 337.696,466.609 L 337.67100000000005,466.811 L 337.60600000000005,467.018 L 337.52400000000006,467.131 L 337.2130000000001,467.11899999999997 L 337.0400000000001,467.008 L 336.75900000000007,466.885 L 336.7060000000001,467.217 L 336.53100000000006,467.44599999999997 L 336.3550000000001,467.518 L 336.07900000000006,467.566 L 335.92100000000005,467.664 L 335.62300000000005,467.58799999999997 L 335.34600000000006,467.436 L 335.1890000000001,467.423 L 335.06700000000006,467.546 L 334.4240000000001,467.569 L 334.1290000000001,467.694 L 333.94900000000007,467.659 L 333.6840000000001,467.407 L 333.6420000000001,467.24 L 333.4840000000001,466.901 L 333.3420000000001,466.498 L 333.2410000000001,466.132 L 333.3260000000001,465.81600000000003 L 333.4980000000001,465.826 L 333.7010000000001,465.87300000000005 L 333.7440000000001,465.85100000000006 L 333.7540000000001,465.7490000000001 L 333.70900000000006,465.6650000000001 L 333.38200000000006,465.67800000000005 L 333.17500000000007,465.49000000000007 L 333.13900000000007,465.20000000000005 L 333.18100000000004,464.59600000000006 L 333.208,464.47200000000004 L 333.353,464.29900000000004 L 333.40000000000003,464.146 L 333.36400000000003,463.98400000000004 L 333.42600000000004,463.689 L 333.56100000000004,463.434 L 334.07700000000006,463.112 L 334.67600000000004,462.997 L 336.417,463.31 M 330.232,466.668 L 329.935,466.721 L 330.318,466.023 L 330.65999999999997,465.69800000000004 L 330.66499999999996,465.05400000000003 L 331.03599999999994,464.48100000000005 L 331.37699999999995,464.24800000000005 L 331.85599999999994,464.18000000000006 L 332.11799999999994,464.52900000000005 L 331.79299999999995,465.51900000000006 L 331.6979999999999,465.52500000000003 L 331.2629999999999,466.047 L 330.77899999999994,466.41200000000003 L 330.232,466.668 M 349.736,466.345 L 349.556,466.47900000000004 L 349.49699999999996,466.54800000000006 L 349.34899999999993,466.49600000000004 L 349.3759999999999,466.41900000000004 L 349.4199999999999,466.427 L 349.4679999999999,466.20300000000003 L 349.7209999999999,466.23 L 349.736,466.345 M 350.813,470.869 L 350.537,471.14300000000003 L 350.628,470.826 L 350.582,470.607 L 350.618,470.43800000000005 L 350.807,470.27400000000006 L 350.86400000000003,470.25000000000006 L 350.848,470.45200000000006 L 350.861,470.51400000000007 L 350.813,470.869 M 366.965,499.508 L 366.85499999999996,499.57 L 366.84399999999994,499.388 L 367.1309999999999,499.159 L 367.17799999999994,498.888 L 367.3279999999999,499.013 L 367.36799999999994,499.152 L 367.36599999999993,499.21 L 366.965,499.508 M 366.517,500.586 L 366.421,500.755 L 366.31,500.73 L 366.266,500.617 L 366.184,500.507 L 366.228,500.421 L 366.302,500.372 L 366.507,500.379 L 366.517,500.586 M 351.851,529.036 L 351.939,529.1189999999999 L 351.77700000000004,529.1109999999999 L 351.595,529.1839999999999 L 351.31600000000003,529.2489999999999 L 351.204,529.127 L 351.445,528.957 L 351.533,528.83 L 351.596,528.8570000000001 L 351.677,528.9490000000001 L 351.851,529.036 M 348.677,531.311 L 348.675,531.47 L 348.558,531.389 L 348.248,531.451 L 348.14,531.331 L 348.558,530.818 L 348.642,530.893 L 348.707,530.986 L 348.752,531.116 L 348.704,531.1999999999999 L 348.677,531.311 M 339.348,539.058 L 339.296,539.096 L 339.12,538.7090000000001 L 339.474,538.3380000000001 L 339.592,538.488 L 339.498,538.782 L 339.394,538.99 L 339.348,539.058 M 339.625,543.339 L 339.432,543.4820000000001 L 339.46700000000004,542.7330000000001 L 339.571,542.4830000000001 L 339.684,542.296 L 339.824,542.181 L 339.928,542.344 L 339.839,542.705 L 339.594,543.148 L 339.625,543.339" id="BR" title="Brazil"/>
</svg>
