<svg xmlns="http://www.w3.org/2000/svg" xmlns:ev="http://www.w3.org/2001/xml-events" xmlns:xlink="http://www.w3.org/1999/xlink" baseProfile="full" height="18.339996337890625" version="1.1" viewBox="254.0290069580078 384.60101318359375 17.505996704101562 18.339996337890625" width="17.505996704101562">
	<defs/>
	<path class="land" d="M 258.967,387.83 L 258.90799999999996,387.85699999999997 L 258.66399999999993,387.546 L 258.4679999999999,387.456 L 258.7739999999999,387.236 L 258.90699999999987,387.04699999999997 L 258.9039999999999,386.63399999999996 L 258.97899999999987,386.407 L 258.9539999999999,386.21099999999996 L 259.0209999999999,386.01099999999997 L 258.9299999999999,385.78599999999994 L 258.6739999999999,385.60699999999997 L 258.1669999999999,384.89599999999996 L 257.36599999999993,384.72299999999996 L 256.9509999999999,384.71599999999995 L 257.1789999999999,384.60099999999994 L 257.3889999999999,384.61499999999995 L 257.7129999999999,384.68299999999994 L 258.1009999999999,384.71599999999995 L 258.3379999999999,384.92499999999995 L 258.5639999999999,385.203 L 258.7689999999999,385.315 L 258.8529999999999,385.386 L 258.8439999999999,385.46700000000004 L 258.8779999999999,385.54300000000006 L 259.14499999999987,385.67300000000006 L 259.4139999999999,385.88200000000006 L 259.4929999999999,386.49500000000006 L 259.13099999999986,386.7850000000001 L 259.0649999999999,387.6710000000001 L 258.967,387.83 M 255.41,385.261 L 255.75,385.35900000000004 L 255.933,385.345 L 256.042,385.28200000000004 L 256.54499999999996,385.30800000000005 L 256.95099999999996,385.21400000000006 L 257.01199999999994,385.38000000000005 L 257.00199999999995,385.46700000000004 L 256.138,385.54800000000006 L 255.34599999999998,385.7920000000001 L 254.91199999999998,385.9570000000001 L 254.70799999999997,385.9760000000001 L 254.55199999999996,385.8890000000001 L 254.02899999999997,385.3870000000001 L 254.16899999999995,385.4370000000001 L 254.55499999999995,385.7210000000001 L 254.79499999999996,385.6690000000001 L 255.01799999999997,385.4810000000001 L 255.05199999999996,385.3390000000001 L 255.01899999999998,385.2720000000001 L 255.11999999999998,385.0470000000001 L 255.41,385.261 M 260.585,389.121 L 261.04699999999997,389.469 L 261.441,389.601 L 261.86699999999996,390.037 L 262.051,390.19199999999995 L 262.084,390.33299999999997 L 262.012,390.977 L 261.916,391.364 L 261.93,391.703 L 261.83,391.602 L 261.729,391.38 L 261.563,391.253 L 261.507,391.186 L 261.805,391.171 L 261.831,390.82099999999997 L 261.97700000000003,390.54499999999996 L 261.95500000000004,390.25699999999995 L 261.607,389.93999999999994 L 261.369,389.66099999999994 L 261.002,389.57099999999997 L 260.663,389.29299999999995 L 260.461,389.25899999999996 L 260.214,389.30799999999994 L 260.303,389.14199999999994 L 260.365,388.9219999999999 L 260.41,388.87999999999994 L 260.585,389.121 M 257.512,391.525 L 257.50600000000003,391.897 L 257.53700000000003,392.175 L 257.509,392.274 L 257.20500000000004,392.46 L 257.12700000000007,392.56399999999996 L 256.84100000000007,392.669 L 256.66800000000006,392.815 L 256.5810000000001,392.578 L 256.41300000000007,392.43199999999996 L 256.38500000000005,392.18299999999994 L 256.25700000000006,392.26699999999994 L 256.0710000000001,392.21599999999995 L 255.76500000000007,392.02799999999996 L 255.57200000000006,391.772 L 255.84300000000005,391.728 L 255.89900000000006,391.887 L 256.11300000000006,391.692 L 256.0640000000001,391.589 L 256.0250000000001,391.576 L 255.9550000000001,391.38500000000005 L 256.2770000000001,390.88300000000004 L 256.3470000000001,390.559 L 256.2010000000001,390.038 L 256.3380000000001,390.004 L 256.7010000000001,390.187 L 256.8640000000001,390.367 L 256.8690000000001,390.61400000000003 L 257.0220000000001,390.80400000000003 L 257.2430000000001,391.261 L 257.512,391.525 M 258.625,390.582 L 258.308,390.646 L 258.081,390.583 L 258.023,390.53200000000004 L 258.12,390.44700000000006 L 258.333,390.37600000000003 L 258.67600000000004,390.369 L 258.826,390.45300000000003 L 258.844,390.49 L 258.625,390.582 M 264.348,393.081 L 264.367,393.236 L 264.17900000000003,393.205 L 263.901,393.26599999999996 L 263.801,393.268 L 263.863,393.16099999999994 L 264.056,393.01699999999994 L 264.066,392.87999999999994 L 263.827,392.68199999999996 L 263.55,392.18899999999996 L 263.42,392.07199999999995 L 263.358,391.88599999999997 L 263.125,391.68699999999995 L 263.173,391.58099999999996 L 263.221,391.556 L 263.378,391.60699999999997 L 263.734,392.31699999999995 L 263.757,392.38499999999993 L 264.348,393.081 M 257.754,392.929 L 257.759,392.99899999999997 L 257.481,393.19199999999995 L 257.683,393.3299999999999 L 257.873,393.0299999999999 L 258.024,393.27399999999994 L 258.107,393.72999999999996 L 258.093,393.80999999999995 L 258.107,393.87799999999993 L 258.136,393.9649999999999 L 258.14300000000003,394.0909999999999 L 257.98900000000003,394.4879999999999 L 257.43500000000006,394.4469999999999 L 257.4220000000001,394.1119999999999 L 257.33600000000007,394.0469999999999 L 257.20700000000005,393.5679999999999 L 257.03400000000005,393.41399999999993 L 256.79300000000006,393.0199999999999 L 256.93300000000005,392.91799999999995 L 257.12000000000006,392.95199999999994 L 257.21600000000007,392.90399999999994 L 257.4750000000001,392.86599999999993 L 257.63200000000006,392.81199999999995 L 257.754,392.929 M 266.814,393.484 L 266.591,393.815 L 266.472,393.787 L 266.539,393.37 L 266.693,393.30400000000003 L 266.75399999999996,393.30800000000005 L 266.814,393.484 M 263.348,395.368 L 263.231,395.38599999999997 L 263.022,395.30499999999995 L 262.531,394.93499999999995 L 262.303,394.90299999999996 L 262.378,394.69399999999996 L 262.55199999999996,394.76699999999994 L 262.948,395.08599999999996 L 263.097,395.246 L 263.348,395.368 M 265.661,397.055 L 265.64300000000003,397.133 L 265.28900000000004,396.52799999999996 L 264.843,396.381 L 264.58700000000005,396.23499999999996 L 264.64000000000004,396.15199999999993 L 264.81800000000004,396.11599999999993 L 264.848,395.9239999999999 L 264.772,395.7159999999999 L 264.537,395.2959999999999 L 264.405,395.01099999999985 L 264.344,394.9449999999999 L 264.326,394.7059999999999 L 264.605,395.0769999999999 L 264.721,395.4059999999999 L 264.908,395.7279999999999 L 265.033,396.28199999999987 L 265.39000000000004,396.46999999999986 L 265.64700000000005,396.73799999999983 L 265.661,397.055 M 267.858,397.572 L 267.922,397.626 L 267.74300000000005,397.748 L 267.34000000000003,397.598 L 267.249,397.60900000000004 L 267.16900000000004,397.449 L 267.13800000000003,397.331 L 267.158,397.22200000000004 L 267.398,397.30600000000004 L 267.52700000000004,397.463 L 267.858,397.572 M 267.439,399.111 L 267.242,399.202 L 267.286,399.046 L 267.663,398.781 L 267.872,398.548 L 267.99100000000004,398.465 L 268.033,398.40099999999995 L 268.199,398.31499999999994 L 268.28200000000004,398.16499999999996 L 268.259,398.042 L 268.086,397.839 L 268.088,397.696 L 268.148,397.595 L 268.44,397.548 L 268.363,397.7 L 268.478,398.13 L 268.09000000000003,398.665 L 267.75800000000004,398.831 L 267.439,399.111 M 270.711,398.462 L 270.885,398.505 L 270.98,398.502 L 271.30100000000004,398.592 L 271.492,398.717 L 271.535,398.768 L 271.432,398.87899999999996 L 271.137,398.669 L 270.879,398.642 L 270.517,398.647 L 270.372,398.60699999999997 L 270.469,398.381 L 270.711,398.462 M 271.062,401.237 L 270.688,401.384 L 270.65,401.211 L 270.84099999999995,401.072 L 271.062,401.237 M 270.75,402.179 L 270.661,402.39799999999997 L 270.364,402.816 L 269.70099999999996,402.921 L 268.97099999999995,402.941 L 268.91499999999996,402.827 L 268.89899999999994,402.727 L 268.95199999999994,402.57 L 268.94699999999995,402.508 L 268.917,402.445 L 269.18499999999995,402.378 L 269.3589999999999,402.18399999999997 L 269.6359999999999,402.15099999999995 L 269.98099999999994,402.28799999999995 L 270.1669999999999,402.29299999999995 L 270.4419999999999,402.143 L 270.6629999999999,401.818 L 270.79399999999987,401.85999999999996 L 270.75,402.179" id="BS" title="Bahamas"/>
</svg>
