<svg xmlns="http://www.w3.org/2000/svg" xmlns:ev="http://www.w3.org/2001/xml-events" xmlns:xlink="http://www.w3.org/1999/xlink" baseProfile="full" height="5.066986083984375" version="1.1" viewBox="724.7440185546875 380.2799987792969 9.386962890625 5.066986083984375" width="9.386962890625" fill="#00394f">
	<defs/>
	<path class="land" d="M 732.863,382.024 L 732.847,382.095 L 732.768,382.286 L 732.716,382.492 L 732.759,382.662 L 732.937,382.863 L 733.176,383.024 L 733.479,383.036 L 733.759,382.974 L 733.87,383.0 L 734.022,383.269 L 734.131,383.501 L 733.983,383.741 L 733.903,383.951 L 733.875,384.1 L 733.893,384.165 L 733.983,384.285 L 734.088,384.491 L 734.103,384.68 L 734.036,384.805 L 733.892,384.867 L 733.738,384.849 L 733.611,384.852 L 733.453,384.874 L 733.205,384.943 L 732.975,385.033 L 732.542,385.017 L 732.369,384.83 L 732.288,384.829 L 731.895,385.071 L 731.466,385.028 L 730.686,385.109 L 730.359,385.128 L 730.024,385.101 L 729.854,385.05 L 729.54,384.88 L 729.254,384.757 L 728.964,384.87 L 728.861,384.891 L 728.629,385.181 L 728.124,385.277 L 727.621,385.347 L 727.472,385.309 L 727.188,385.291 L 727.178,385.223 L 727.187,385.157 L 727.122,385.105 L 727.007,385.051 L 726.809,385.028 L 726.555,384.956 L 726.409,384.887 L 725.893,384.989 L 725.592,384.836 L 725.25,384.625 L 725.077,384.534 L 725.015,384.208 L 724.954,384.103 L 724.819,383.992 L 724.744,383.862 L 724.805,383.729 L 725.145,383.48 L 725.172,383.421 L 725.33,382.957 L 725.549,382.787 L 725.765,382.552 L 725.928,382.178 L 726.242,381.793 L 726.588,381.398 L 726.826,381.076 L 726.983,380.926 L 727.309,380.765 L 727.581,380.67 L 727.77,380.455 L 727.997,380.334 L 728.23,380.28 L 728.577,380.31 L 728.903,380.386 L 729.261,380.494 L 729.302,380.581 L 729.271,380.733 L 729.22,380.889 L 729.219,380.968 L 729.273,381.012 L 729.623,381.042 L 730.052,381.018 L 730.292,381.039 L 730.828,381.182 L 730.984,381.283 L 731.148,381.36 L 731.309,381.347 L 731.511,381.181 L 731.724,381.041 L 731.856,381.018 L 731.951,381.063 L 732.121,381.197 L 732.475,381.323 L 732.789,381.418 L 732.892,381.508 L 732.856,381.895 L 732.863,382.024" id="BT" title="Bhutan"/>
</svg>
