<svg xmlns="http://www.w3.org/2000/svg" xmlns:ev="http://www.w3.org/2001/xml-events" xmlns:xlink="http://www.w3.org/1999/xlink" baseProfile="full" height="27.38702392578125" version="1.1" viewBox="531.7659912109375 513.083984375 26.34503173828125 27.38702392578125" width="26.34503173828125">
	<defs/>
	<path class="land" d="M 546.588,513.102 L 546.533,513.247 L 546.49,513.458 L 546.542,513.616 L 546.654,513.828 L 546.816,514.013 L 546.94,514.123 L 547.087,514.396 L 547.235,514.738 L 547.429,515.004 L 547.998,515.614 L 548.061,515.833 L 548.14,516.05 L 548.498,516.467 L 548.554,516.606 L 548.53,516.889 L 548.898,517.741 L 549.14,518.239 L 549.345,518.331 L 550.0,518.862 L 550.572,519.29 L 551.241,519.579 L 551.732,519.769 L 551.975,519.908 L 552.097,520.041 L 552.195,520.297 L 552.246,520.743 L 552.263,521.031 L 552.791,521.02 L 553.228,521.046 L 553.381,521.104 L 553.438,521.186 L 553.425,521.376 L 553.431,521.66 L 553.451,521.889 L 553.406,522.133 L 553.375,522.421 L 553.354,522.779 L 553.421,522.918 L 553.844,523.369 L 554.021,523.661 L 554.21,524.104 L 554.32,524.246 L 554.409,524.303 L 554.791,524.351 L 555.774,524.537 L 556.38,524.707 L 556.861,524.882 L 557.062,524.928 L 557.159,524.975 L 557.192,525.018 L 557.132,525.404 L 557.153,525.529 L 557.207,525.641 L 557.289,525.729 L 557.388,525.783 L 557.753,525.825 L 557.973,526.06 L 558.111,526.169 L 557.452,526.228 L 557.125,526.424 L 556.936,526.776 L 556.638,527.035 L 556.233,527.2 L 555.805,527.313 L 555.353,527.375 L 554.871,527.678 L 554.36,528.223 L 554.099,528.566 L 554.088,528.708 L 553.974,528.83 L 553.755,528.933 L 553.631,529.058 L 553.603,529.203 L 553.486,529.272 L 553.282,529.266 L 553.138,529.373 L 553.055,529.591 L 552.875,529.724 L 552.595,529.771 L 552.354,529.894 L 552.151,530.094 L 551.996,530.196 L 551.886,530.199 L 551.715,530.362 L 551.438,530.748 L 551.392,530.927 L 551.012,532.385 L 550.804,532.558 L 550.402,532.859 L 550.076,533.22 L 549.936,533.433 L 549.783,533.528 L 549.035,533.706 L 548.758,533.801 L 548.421,533.939 L 548.337,534.063 L 548.254,534.517 L 548.022,535.167 L 547.834,535.648 L 547.712,536.067 L 547.5,536.588 L 547.316,536.763 L 547.107,536.923 L 546.833,537.002 L 546.46,537.052 L 546.121,537.038 L 545.859,537.045 L 545.495,537.229 L 545.155,537.242 L 544.615,537.135 L 544.178,537.032 L 543.983,537.011 L 543.597,536.67 L 543.349,536.676 L 542.97,536.649 L 542.757,536.571 L 542.56,536.397 L 542.131,536.055 L 541.712,535.778 L 541.341,535.614 L 540.995,535.538 L 540.666,535.606 L 540.41,535.679 L 540.311,535.715 L 540.112,535.858 L 539.909,536.129 L 539.74,536.553 L 539.676,536.813 L 539.488,537.366 L 539.239,538.03 L 539.12,538.221 L 538.982,538.363 L 538.764,538.489 L 538.053,539.018 L 537.697,539.615 L 537.473,539.789 L 537.203,539.87 L 536.974,539.921 L 536.848,540.021 L 536.707,540.323 L 536.585,540.43 L 536.45,540.471 L 536.043,540.435 L 535.913,540.404 L 534.835,540.463 L 534.506,540.368 L 534.273,540.329 L 533.906,540.455 L 533.752,540.372 L 533.629,540.121 L 533.569,539.617 L 533.588,539.189 L 533.788,538.866 L 533.954,538.63 L 534.117,538.321 L 534.138,538.183 L 534.105,538.059 L 534.073,537.806 L 534.055,537.546 L 533.824,536.98 L 533.54,536.231 L 533.157,535.398 L 533.038,535.169 L 532.798,534.808 L 531.91,534.122 L 531.774,534.029 L 531.774,533.953 L 531.774,533.289 L 531.773,532.411 L 531.772,531.534 L 531.771,530.66 L 531.77,529.787 L 531.769,528.917 L 531.768,528.048 L 531.768,527.181 L 531.767,526.316 L 531.766,525.586 L 532.406,525.586 L 533.197,525.586 L 534.138,525.586 L 534.554,525.586 L 534.578,525.471 L 534.578,524.936 L 534.576,523.712 L 534.574,522.491 L 534.572,521.274 L 534.571,520.06 L 534.569,518.85 L 534.567,517.642 L 534.565,516.438 L 534.564,515.235 L 534.563,514.643 L 535.289,514.607 L 536.122,514.486 L 537.474,514.29 L 538.733,514.046 L 539.555,513.904 L 540.529,513.735 L 540.864,513.706 L 540.955,513.729 L 541.087,513.787 L 541.539,514.385 L 541.821,514.841 L 541.878,515.037 L 541.932,515.058 L 542.065,515.026 L 542.215,514.953 L 542.674,514.498 L 542.77,514.379 L 543.063,514.159 L 543.418,513.934 L 543.74,513.775 L 544.063,513.643 L 544.212,513.676 L 544.388,513.79 L 544.544,513.861 L 545.278,513.31 L 545.606,513.183 L 546.468,513.084 L 546.588,513.102" id="BW" title="Botswana"/>
</svg>
