<svg xmlns="http://www.w3.org/2000/svg" xmlns:ev="http://www.w3.org/2001/xml-events" xmlns:xlink="http://www.w3.org/1999/xlink" baseProfile="full" height="23.1199951171875" version="1.1" viewBox="540.739990234375 272.2760009765625 26.760009765625 23.1199951171875" width="26.760009765625">
	<defs/>
	<path class="land" d="M 554.696,272.291 L 555.079,272.728 L 555.169,272.745 L 555.382,272.573 L 555.424,272.562 L 555.864,272.547 L 556.068,272.699 L 556.22,272.995 L 556.36,273.231 L 556.512,273.295 L 556.94,272.998 L 557.177,272.899 L 557.333,272.902 L 557.882,273.169 L 558.14,273.315 L 558.199,273.447 L 558.205,273.603 L 558.135,273.834 L 558.08,274.085 L 558.247,274.381 L 558.441,274.582 L 558.856,274.25 L 559.009,274.158 L 559.176,274.155 L 559.4,274.032 L 559.562,273.846 L 559.717,273.782 L 560.014,273.826 L 560.55,273.782 L 561.175,274.073 L 561.229,274.163 L 561.541,274.503 L 561.65,274.672 L 561.753,274.726 L 561.919,274.892 L 562.142,274.996 L 562.296,274.964 L 562.37,275.019 L 562.439,275.149 L 562.444,275.371 L 562.422,276.003 L 562.313,276.185 L 562.198,276.333 L 562.169,276.448 L 562.18,276.587 L 562.357,276.859 L 562.585,277.28 L 562.638,277.523 L 562.638,277.706 L 562.327,278.242 L 562.224,278.367 L 562.152,278.63 L 562.114,278.897 L 562.136,279.008 L 562.656,279.432 L 563.041,279.661 L 563.127,279.773 L 563.135,279.843 L 562.931,280.296 L 562.911,280.418 L 563.219,280.605 L 563.39,280.9 L 563.54,281.38 L 563.833,281.839 L 564.464,282.245 L 564.923,282.509 L 565.019,282.629 L 565.052,282.771 L 565.017,283.084 L 564.898,283.465 L 564.817,283.676 L 565.004,283.764 L 565.485,283.74 L 566.07,283.814 L 566.771,284.232 L 566.773,284.419 L 566.701,284.59 L 566.749,284.769 L 566.825,284.921 L 567.432,285.386 L 567.49,285.521 L 567.5,285.747 L 567.484,285.912 L 567.316,285.946 L 567.129,286.023 L 566.824,286.221 L 566.704,286.5 L 566.21,286.884 L 565.906,287.058 L 565.663,287.065 L 565.085,286.987 L 564.882,286.798 L 564.798,286.624 L 564.576,286.545 L 564.281,286.538 L 563.874,286.568 L 563.791,286.621 L 563.724,286.834 L 563.551,287.199 L 563.427,287.404 L 563.529,287.53 L 563.691,287.792 L 563.943,288.124 L 564.203,288.419 L 564.286,288.599 L 564.282,288.728 L 564.159,288.879 L 564.177,289.183 L 564.429,289.582 L 564.344,289.646 L 564.318,290.135 L 564.321,290.656 L 564.389,290.782 L 564.524,290.886 L 564.639,291.076 L 564.83,291.508 L 564.843,291.621 L 564.311,291.589 L 563.672,291.602 L 563.313,291.853 L 563.173,291.795 L 562.923,291.731 L 562.646,291.871 L 562.268,292.294 L 562.014,292.557 L 561.767,292.925 L 561.689,293.124 L 561.533,293.49 L 561.39,293.908 L 561.468,294.2 L 561.585,294.471 L 561.611,294.763 L 561.669,294.991 L 561.513,295.157 L 561.422,295.396 L 561.156,295.354 L 560.83,295.125 L 560.761,294.793 L 560.51,294.562 L 560.345,294.441 L 560.073,294.423 L 559.638,294.531 L 559.069,294.614 L 558.64,294.636 L 558.406,294.754 L 558.06,294.87 L 557.926,294.732 L 557.734,294.355 L 557.577,293.979 L 557.468,293.814 L 557.374,293.768 L 557.258,293.777 L 557.125,293.896 L 557.025,294.019 L 556.884,294.062 L 556.666,294.161 L 556.507,294.295 L 556.333,294.641 L 556.218,294.617 L 556.099,294.537 L 555.962,294.15 L 555.774,294.061 L 555.473,294.056 L 555.1,293.974 L 554.797,293.856 L 554.687,293.884 L 554.506,294.049 L 554.312,294.073 L 553.884,293.926 L 553.801,293.994 L 553.688,294.211 L 553.555,294.42 L 553.439,294.441 L 553.374,294.387 L 553.41,294.016 L 553.162,293.885 L 552.744,293.864 L 552.45,293.918 L 552.307,293.903 L 552.233,293.831 L 551.873,293.206 L 551.683,293.166 L 551.342,293.197 L 550.839,293.121 L 550.259,292.98 L 549.94,292.928 L 549.775,292.787 L 549.418,292.739 L 548.458,292.474 L 548.067,292.427 L 547.49,292.423 L 546.612,292.364 L 546.049,292.397 L 545.788,292.485 L 545.487,292.54 L 544.978,292.588 L 544.771,292.583 L 544.445,292.612 L 544.071,292.683 L 543.964,292.814 L 543.841,293.103 L 543.411,293.601 L 542.994,293.931 L 542.918,293.959 L 542.674,293.784 L 542.471,293.725 L 542.232,293.706 L 542.063,293.762 L 541.957,293.845 L 541.971,294.228 L 541.947,294.261 L 541.763,293.807 L 541.778,293.395 L 541.88,293.159 L 542.005,292.946 L 541.954,292.627 L 542.076,292.204 L 542.08,291.897 L 542.026,291.765 L 541.927,291.612 L 541.655,291.442 L 541.535,291.309 L 541.167,291.131 L 540.802,290.91 L 540.74,290.774 L 540.757,290.681 L 540.821,290.539 L 541.1,290.124 L 541.402,289.72 L 541.595,289.558 L 542.62,289.038 L 542.778,288.856 L 542.818,288.548 L 542.82,288.324 L 542.801,287.924 L 542.738,287.354 L 542.66,286.96 L 542.464,286.218 L 541.93,284.675 L 541.609,283.062 L 541.818,283.157 L 542.308,283.192 L 542.697,283.081 L 542.899,283.065 L 543.079,283.101 L 543.347,283.037 L 543.592,283.011 L 543.719,283.156 L 543.947,283.284 L 544.398,283.1 L 544.797,282.871 L 545.211,282.896 L 545.27,282.783 L 545.373,282.208 L 545.496,282.082 L 545.991,282.14 L 546.174,282.036 L 546.366,281.752 L 546.658,281.574 L 546.902,281.575 L 547.156,281.375 L 547.281,281.509 L 547.342,281.748 L 547.258,281.938 L 547.294,282.013 L 547.47,282.107 L 547.771,282.104 L 547.964,282.026 L 548.009,281.917 L 548.009,281.719 L 547.961,281.534 L 547.833,281.375 L 547.593,281.292 L 547.426,281.29 L 547.398,281.188 L 547.455,280.971 L 547.603,280.569 L 547.785,280.206 L 547.896,280.069 L 547.915,279.942 L 547.894,279.722 L 547.89,279.325 L 548.053,278.765 L 548.273,278.347 L 548.568,278.21 L 548.929,278.137 L 549.16,277.937 L 549.274,277.707 L 549.317,277.512 L 549.372,277.344 L 549.487,277.27 L 550.355,277.316 L 550.488,276.953 L 550.563,276.852 L 550.729,276.744 L 550.845,276.615 L 550.802,276.515 L 550.58,276.451 L 550.058,276.394 L 549.953,276.273 L 549.986,276.128 L 550.125,275.752 L 550.258,275.266 L 550.327,274.889 L 550.334,274.666 L 550.409,274.606 L 550.834,274.535 L 550.977,274.459 L 551.343,273.943 L 551.622,273.855 L 552.343,273.988 L 552.673,273.978 L 552.763,273.99 L 553.093,274.013 L 553.129,273.961 L 553.277,273.45 L 553.423,273.301 L 553.99,272.626 L 554.371,272.339 L 554.612,272.276 L 554.696,272.291" id="BY" title="Belarus"/>
</svg>
