<svg xmlns="http://www.w3.org/2000/svg" xmlns:ev="http://www.w3.org/2001/xml-events" xmlns:xlink="http://www.w3.org/1999/xlink" baseProfile="full" height="7.574005126953125" version="1.1" viewBox="225.2550048828125 410.2179870605469 4.0679931640625 7.574005126953125" width="4.0679931640625" fill="#00394f">
	<defs/>
	<path class="land" d="M 227.899,410.247 L 227.749,410.581 L 227.899,410.624 L 228.035,410.593 L 228.364,410.605 L 228.49,410.971 L 228.45700000000002,411.278 L 228.14700000000002,412.086 L 228.10800000000003,412.363 L 227.96700000000004,412.778 L 228.15800000000004,413.05100000000004 L 227.97900000000004,413.41300000000007 L 227.91800000000003,413.64700000000005 L 227.90400000000002,413.999 L 227.99400000000003,414.66700000000003 L 227.84900000000002,415.629 L 227.59300000000002,416.04900000000004 L 227.43400000000003,416.208 L 227.15000000000003,416.625 L 226.77700000000004,416.749 L 226.26000000000005,417.42 L 226.16900000000004,417.596 L 226.21900000000005,417.786 L 226.09800000000004,417.788 L 225.60300000000004,417.757 L 225.26800000000003,417.79200000000003 L 225.25500000000002,417.77500000000003 L 225.282,417.05400000000003 L 225.32500000000002,415.937 L 225.35600000000002,415.116 L 225.38600000000002,414.312 L 225.40900000000002,413.709 L 225.44000000000003,412.887 L 225.467,412.177 L 225.46400000000003,411.922 L 225.54500000000002,411.72 L 225.77800000000002,411.636 L 226.08,411.812 L 226.20600000000002,411.885 L 226.31900000000002,411.843 L 226.46300000000002,411.736 L 226.639,411.425 L 227.08100000000002,410.78200000000004 L 227.258,410.32500000000005 L 227.431,410.23400000000004 L 227.681,410.218 L 227.899,410.247 M 228.867,411.854 L 228.73399999999998,411.90799999999996 L 228.844,411.739 L 228.85999999999999,411.631 L 229.01399999999998,411.179 L 229.124,411.181 L 229.153,411.221 L 228.867,411.854 M 229.142,413.324 L 228.926,413.733 L 228.91199999999998,413.616 L 229.00199999999998,413.313 L 229.124,413.207 L 229.2,413.09499999999997 L 229.21699999999998,412.96299999999997 L 229.32299999999998,413.027 L 229.296,413.157 L 229.142,413.324" id="BZ" title="Belize"/>
</svg>
