<svg xmlns="http://www.w3.org/2000/svg" xmlns:ev="http://www.w3.org/2001/xml-events" xmlns:xlink="http://www.w3.org/1999/xlink" baseProfile="full" height="52.69000244140625" version="1.1" viewBox="509.97698974609375 447.8399963378906 53.49298095703125 52.69000244140625" width="53.49298095703125">
	<defs/>
	<path class="land" d="M 552.606,448.408 L 552.708,448.604 L 552.853,448.805 L 553.339,449.145 L 553.493,449.334 L 553.612,449.544 L 553.687,449.708 L 553.837,449.839 L 554.047,449.923 L 554.227,450.023 L 554.337,450.17 L 554.502,450.323 L 554.82,450.531 L 554.975,450.536 L 555.154,450.565 L 555.312,450.62 L 555.481,450.604 L 555.754,450.468 L 556.076,450.24 L 556.322,450.099 L 556.917,450.149 L 557.249,450.264 L 557.513,450.425 L 557.719,450.415 L 558.168,450.117 L 558.406,449.8 L 558.637,449.732 L 558.987,449.87 L 559.276,450.166 L 559.53,450.596 L 559.709,450.76 L 559.954,451.014 L 560.441,451.561 L 561.075,451.835 L 561.321,451.97 L 561.401,452.105 L 561.448,452.285 L 561.464,452.48 L 561.541,452.561 L 561.712,452.533 L 561.858,452.505 L 562.019,452.561 L 562.131,452.703 L 562.187,452.814 L 562.248,452.933 L 562.407,453.009 L 562.438,453.162 L 562.329,453.348 L 562.217,453.515 L 562.081,453.847 L 562.01,454.187 L 562.102,454.3 L 562.199,454.394 L 562.251,454.489 L 562.282,454.6 L 562.27,454.73 L 562.054,455.202 L 561.943,455.614 L 561.939,455.823 L 562.224,455.977 L 562.594,455.969 L 562.711,456.063 L 562.828,456.213 L 562.931,456.29 L 563.087,456.288 L 563.195,456.34 L 563.238,456.446 L 563.364,456.56 L 563.47,456.686 L 563.419,456.847 L 563.41,456.97 L 563.146,457.312 L 562.54,457.979 L 561.236,459.216 L 561.235,459.217 L 560.795,459.366 L 560.568,459.596 L 560.407,459.957 L 560.027,460.263 L 559.734,460.387 L 559.703,460.46 L 559.68,460.792 L 559.71,461.279 L 559.573,461.502 L 559.374,461.936 L 559.271,462.207 L 559.191,462.26 L 559.102,462.396 L 559.046,462.838 L 559.008,462.987 L 558.865,463.902 L 558.906,464.163 L 558.795,464.598 L 558.79,464.854 L 558.744,465.144 L 558.665,465.395 L 558.67,465.797 L 558.715,466.453 L 558.707,466.54 L 558.597,466.601 L 558.401,466.764 L 558.216,466.873 L 558.075,466.901 L 557.84,467.191 L 557.64,467.466 L 557.49,467.734 L 557.451,467.857 L 557.482,468.204 L 557.503,468.615 L 557.457,468.792 L 557.387,468.897 L 557.059,469.12 L 556.843,469.28 L 556.741,469.364 L 556.688,469.493 L 556.783,469.797 L 556.79,470.019 L 556.868,470.15 L 557.128,470.256 L 557.127,470.363 L 557.134,470.478 L 557.27,470.621 L 557.518,470.913 L 557.717,471.187 L 557.722,471.425 L 557.684,471.823 L 557.677,472.052 L 557.697,472.366 L 557.696,472.95 L 557.682,473.366 L 557.714,473.582 L 558.018,474.097 L 558.152,474.668 L 558.219,475.086 L 558.222,475.219 L 558.119,475.7 L 558.002,476.167 L 557.995,476.344 L 558.05,476.58 L 558.267,477.12 L 558.425,477.513 L 558.501,477.75 L 558.61,478.026 L 558.755,478.449 L 558.791,478.65 L 558.761,478.8 L 558.465,479.331 L 558.435,479.498 L 558.508,479.91 L 558.605,480.308 L 558.745,480.534 L 559.079,481.158 L 559.328,481.369 L 559.787,481.681 L 560.192,481.995 L 560.348,482.158 L 560.491,482.34 L 560.773,482.806 L 560.945,483.185 L 561.036,483.528 L 561.257,483.997 L 561.463,484.432 L 561.729,484.964 L 561.917,485.34 L 562.002,485.591 L 561.516,485.666 L 560.813,485.773 L 560.038,485.892 L 559.238,486.014 L 558.445,486.136 L 557.693,486.251 L 557.01,486.355 L 556.802,486.413 L 556.904,486.709 L 556.857,487.02 L 556.722,487.261 L 556.508,487.557 L 556.411,487.675 L 556.193,487.906 L 556.011,488.069 L 555.64,488.343 L 555.406,488.5 L 555.404,488.642 L 555.798,489.306 L 555.977,489.783 L 556.05,490.214 L 556.046,490.462 L 556.031,490.972 L 556.013,491.579 L 555.986,491.818 L 556.093,492.251 L 556.074,492.589 L 555.809,492.967 L 555.735,493.338 L 555.601,493.839 L 555.416,494.535 L 555.284,494.901 L 555.357,495.139 L 555.423,495.299 L 555.493,495.514 L 555.635,495.838 L 555.801,496.029 L 555.894,496.111 L 556.44,496.52 L 556.667,496.717 L 557.013,497.109 L 557.269,497.369 L 557.625,497.43 L 558.052,497.528 L 558.288,497.604 L 558.45,497.567 L 558.505,497.475 L 558.497,497.279 L 558.469,497.135 L 558.514,497.024 L 558.659,496.951 L 559.03,496.939 L 559.191,496.841 L 559.319,496.817 L 559.32,497.247 L 559.32,497.659 L 559.321,498.16 L 559.321,498.735 L 559.322,499.207 L 559.322,499.709 L 559.323,500.289 L 559.32,500.354 L 559.263,500.485 L 559.116,500.53 L 558.917,500.417 L 558.905,500.298 L 558.856,500.085 L 558.764,499.976 L 558.643,499.942 L 558.439,499.997 L 558.159,500.154 L 557.8,500.292 L 557.654,500.371 L 557.401,500.361 L 557.127,500.286 L 556.926,500.109 L 556.868,499.844 L 556.691,499.572 L 556.451,499.178 L 556.33,499.017 L 556.17,498.833 L 556.008,498.812 L 555.827,498.761 L 555.716,498.492 L 555.612,498.152 L 555.548,498.021 L 555.44,497.852 L 555.285,497.749 L 554.947,497.613 L 554.475,497.424 L 553.881,497.186 L 553.599,497.174 L 553.283,497.134 L 553.085,497.021 L 552.972,496.931 L 552.842,496.601 L 552.664,496.215 L 552.143,495.756 L 552.026,495.248 L 551.921,495.175 L 551.742,495.216 L 551.604,495.279 L 551.549,495.416 L 551.41,495.874 L 551.333,496.085 L 551.281,496.144 L 551.167,496.212 L 550.981,496.274 L 550.716,496.305 L 550.342,496.293 L 549.874,496.225 L 549.622,496.174 L 548.939,496.098 L 548.741,496.061 L 548.462,495.961 L 548.261,495.861 L 547.599,495.645 L 547.298,495.671 L 547.153,495.518 L 547.022,495.443 L 546.842,495.299 L 546.762,495.102 L 546.655,494.679 L 546.681,494.453 L 546.758,494.201 L 546.672,494.131 L 546.552,494.131 L 546.38,494.218 L 546.075,494.267 L 545.516,494.378 L 545.318,494.44 L 545.099,494.488 L 544.931,494.531 L 544.511,494.774 L 544.365,494.8 L 544.116,494.713 L 543.996,494.583 L 544.116,494.436 L 544.167,494.253 L 544.082,493.896 L 543.953,493.731 L 543.581,493.613 L 543.438,493.602 L 543.378,493.402 L 543.275,493.22 L 543.063,493.185 L 542.961,493.164 L 542.855,493.22 L 542.795,493.367 L 542.778,493.48 L 542.589,493.566 L 542.203,493.549 L 541.82,493.467 L 541.551,493.44 L 541.372,493.461 L 540.688,493.74 L 540.463,493.777 L 539.729,493.756 L 539.313,493.697 L 539.017,493.687 L 538.807,493.774 L 538.545,493.981 L 538.326,494.092 L 538.225,494.08 L 538.163,493.993 L 538.077,493.875 L 538.05,493.563 L 537.941,493.222 L 538.013,493.043 L 538.229,492.915 L 538.304,492.651 L 538.237,492.255 L 538.233,491.977 L 538.291,491.816 L 538.213,491.426 L 537.997,490.807 L 537.692,490.304 L 537.298,489.915 L 537.04,489.544 L 536.918,489.189 L 536.964,488.34 L 537.083,487.593 L 537.177,487.0 L 537.15,486.007 L 536.883,485.361 L 536.825,484.667 L 536.976,483.925 L 536.998,483.417 L 536.898,483.157 L 536.83,483.118 L 536.744,483.092 L 536.069,483.067 L 535.17,483.034 L 534.386,483.024 L 533.535,483.014 L 533.396,482.92 L 533.333,482.747 L 533.336,482.576 L 533.51,482.052 L 533.485,482.009 L 533.183,481.998 L 532.363,482.083 L 531.822,482.167 L 531.479,482.195 L 530.876,482.338 L 530.503,482.64 L 530.381,483.019 L 530.391,483.332 L 530.37,483.561 L 530.2,483.8 L 530.066,484.075 L 530.061,484.22 L 529.979,484.952 L 529.423,485.05 L 528.867,485.05 L 528.737,485.041 L 528.05,484.866 L 527.795,484.865 L 527.577,484.957 L 527.156,485.047 L 526.754,485.113 L 526.349,485.33 L 526.241,485.349 L 525.972,485.236 L 525.596,485.247 L 525.215,485.301 L 525.037,485.325 L 524.914,485.259 L 524.564,484.713 L 524.098,483.986 L 523.845,483.53 L 523.751,483.411 L 523.589,483.254 L 523.367,482.957 L 523.275,482.675 L 523.314,482.408 L 523.184,482.048 L 522.885,481.595 L 522.688,481.163 L 522.594,480.75 L 522.571,480.398 L 522.618,480.104 L 522.561,479.888 L 522.398,479.749 L 522.31,479.572 L 522.246,479.499 L 522.111,479.332 L 521.814,479.148 L 521.488,479.051 L 520.772,479.049 L 519.837,479.046 L 518.99,479.06 L 518.048,479.076 L 517.094,479.092 L 516.837,479.116 L 516.109,479.127 L 515.526,479.08 L 515.31,479.05 L 514.93,479.027 L 514.33,479.022 L 514.005,479.04 L 513.227,479.041 L 513.156,479.045 L 513.033,479.097 L 512.701,479.025 L 512.375,479.049 L 512.193,478.969 L 511.793,479.019 L 511.599,479.085 L 511.288,479.318 L 510.821,479.439 L 510.648,479.429 L 510.533,479.39 L 510.262,479.134 L 510.052,478.888 L 509.977,478.751 L 510.094,478.717 L 510.461,478.665 L 510.737,478.64 L 510.791,478.575 L 510.833,477.815 L 510.843,477.044 L 510.745,476.942 L 510.649,476.88 L 510.645,476.827 L 510.788,476.73 L 510.987,476.617 L 511.051,476.566 L 511.271,476.362 L 511.706,475.89 L 512.037,475.774 L 512.345,475.65 L 512.388,475.605 L 512.429,475.513 L 512.567,475.52 L 512.611,475.564 L 512.679,475.664 L 512.8,475.804 L 513.019,475.97 L 513.239,476.149 L 513.349,476.172 L 513.526,476.081 L 513.732,475.946 L 514.035,475.848 L 514.107,475.756 L 514.146,475.559 L 514.17,475.349 L 514.196,475.101 L 514.258,475.067 L 514.367,475.043 L 514.568,475.113 L 514.66,475.186 L 514.825,475.186 L 514.93,475.12 L 515.122,474.998 L 515.366,474.949 L 515.627,474.831 L 515.878,474.681 L 515.996,474.667 L 516.121,474.864 L 516.233,475.001 L 516.253,475.087 L 516.141,475.251 L 516.016,475.467 L 516.121,475.736 L 516.146,475.997 L 516.143,476.155 L 516.228,476.219 L 516.286,476.249 L 516.376,476.212 L 516.555,476.223 L 516.77,476.305 L 516.977,476.296 L 517.177,476.195 L 517.55,475.803 L 518.095,475.119 L 518.547,474.69 L 518.904,474.515 L 519.146,474.311 L 519.273,474.076 L 519.481,473.917 L 519.915,473.79 L 520.245,473.646 L 520.575,473.177 L 521.015,472.333 L 521.138,471.58 L 521.213,471.122 L 521.17,469.543 L 521.141,469.025 L 521.208,468.743 L 521.372,468.549 L 521.82,468.138 L 522.121,467.801 L 522.351,467.407 L 522.792,466.508 L 522.986,466.218 L 523.073,466.088 L 523.339,465.849 L 523.712,465.638 L 524.192,465.457 L 524.933,464.831 L 525.522,464.201 L 525.442,463.444 L 525.58,462.816 L 525.901,462.018 L 526.006,461.173 L 525.896,460.282 L 525.942,459.553 L 526.25,458.706 L 526.378,458.391 L 526.421,457.876 L 526.419,457.057 L 526.81,455.937 L 527.18,455.265 L 527.594,454.515 L 527.752,454.061 L 527.962,453.455 L 527.929,452.968 L 527.891,452.408 L 527.995,451.638 L 527.956,451.185 L 527.809,450.791 L 527.884,450.542 L 528.181,450.441 L 528.551,450.047 L 529.215,449.018 L 529.931,448.516 L 530.429,448.357 L 530.948,448.374 L 531.287,448.464 L 531.443,448.626 L 531.836,448.869 L 532.464,449.19 L 532.934,449.592 L 533.194,449.997 L 533.396,450.217 L 533.646,450.293 L 534.055,450.26 L 534.512,450.355 L 534.988,450.582 L 535.281,450.666 L 535.389,450.607 L 535.619,450.64 L 536.145,450.826 L 536.564,450.724 L 537.185,450.801 L 538.627,451.133 L 538.704,451.077 L 538.738,451.064 L 538.861,450.93 L 539.174,450.265 L 539.439,449.856 L 539.563,449.702 L 539.869,449.486 L 540.229,449.431 L 540.574,449.45 L 540.863,449.545 L 541.127,449.655 L 541.419,449.656 L 541.718,449.55 L 542.162,449.355 L 542.63,449.228 L 543.032,449.088 L 543.694,448.843 L 543.953,448.73 L 544.282,448.686 L 545.204,448.91 L 545.801,448.762 L 546.045,448.805 L 546.562,448.646 L 546.656,448.539 L 546.985,447.998 L 547.335,447.84 L 547.865,447.92 L 548.163,448.004 L 549.155,448.235 L 550.443,448.476 L 550.822,448.513 L 550.976,448.54 L 551.11,448.502 L 551.533,448.198 L 551.676,448.155 L 551.797,448.16 L 552.606,448.408" id="CD" title="Democratic Republic of Congo"/>
</svg>
