<svg xmlns="http://www.w3.org/2000/svg" xmlns:ev="http://www.w3.org/2001/xml-events" xmlns:xlink="http://www.w3.org/1999/xlink" baseProfile="full" height="24.5159912109375" version="1.1" viewBox="516.2000122070312 431.8240051269531 36.406005859375 24.5159912109375" width="36.406005859375">
	<defs/>
	<path class="land" d="M 539.856,432.041 L 540.054,432.394 L 540.149,432.518 L 540.967,433.352 L 541.125,433.55 L 541.53,434.155 L 541.778,434.563 L 542.063,435.15 L 542.09,435.469 L 542.053,435.741 L 541.996,436.514 L 541.922,436.736 L 541.563,437.152 L 541.547,437.339 L 541.622,437.495 L 541.73,437.559 L 541.798,437.636 L 541.757,437.996 L 541.886,438.137 L 542.155,438.231 L 542.836,438.295 L 543.19,438.347 L 543.469,438.419 L 543.602,438.454 L 543.675,438.581 L 543.561,438.996 L 543.64,439.255 L 543.873,439.474 L 544.109,439.567 L 544.335,439.621 L 545.123,439.756 L 545.45,439.908 L 545.882,440.394 L 546.424,440.836 L 546.556,441.07 L 546.532,441.283 L 546.371,441.541 L 546.396,441.647 L 546.645,441.906 L 546.93,442.17 L 547.452,442.464 L 548.356,442.925 L 548.771,443.233 L 548.912,443.466 L 549.144,443.72 L 549.467,443.952 L 549.684,444.131 L 549.534,444.636 L 549.579,444.802 L 549.66,444.946 L 549.849,445.145 L 549.924,445.4 L 550.111,445.719 L 550.334,445.864 L 550.707,445.918 L 550.903,446.066 L 551.313,446.32 L 551.709,446.539 L 551.878,446.689 L 551.983,446.823 L 552.073,446.981 L 552.118,447.139 L 552.127,447.48 L 552.195,447.903 L 552.408,448.192 L 552.606,448.408 L 551.797,448.16 L 551.676,448.155 L 551.533,448.198 L 551.11,448.502 L 550.976,448.54 L 550.822,448.513 L 550.443,448.476 L 549.155,448.235 L 548.163,448.004 L 547.865,447.92 L 547.335,447.84 L 546.985,447.998 L 546.656,448.539 L 546.562,448.646 L 546.045,448.805 L 545.801,448.762 L 545.204,448.91 L 544.282,448.686 L 543.953,448.73 L 543.694,448.843 L 543.032,449.088 L 542.63,449.228 L 542.162,449.355 L 541.718,449.55 L 541.419,449.656 L 541.127,449.655 L 540.863,449.545 L 540.574,449.45 L 540.229,449.431 L 539.869,449.486 L 539.563,449.702 L 539.439,449.856 L 539.174,450.265 L 538.861,450.93 L 538.738,451.064 L 538.704,451.077 L 538.627,451.133 L 537.185,450.801 L 536.564,450.724 L 536.145,450.826 L 535.619,450.64 L 535.389,450.607 L 535.281,450.666 L 534.988,450.582 L 534.512,450.355 L 534.055,450.26 L 533.646,450.293 L 533.396,450.217 L 533.194,449.997 L 532.934,449.592 L 532.464,449.19 L 531.836,448.869 L 531.443,448.626 L 531.287,448.464 L 530.948,448.374 L 530.429,448.357 L 529.931,448.516 L 529.215,449.018 L 528.551,450.047 L 528.181,450.441 L 527.884,450.542 L 527.809,450.791 L 527.956,451.185 L 527.995,451.638 L 527.891,452.408 L 527.929,452.968 L 527.771,452.879 L 527.619,452.617 L 527.548,452.564 L 527.109,452.682 L 526.882,452.788 L 526.761,452.892 L 526.668,452.908 L 526.529,452.765 L 526.419,452.739 L 526.247,452.765 L 526.07,452.763 L 525.956,452.744 L 525.88,452.757 L 525.673,452.672 L 524.919,452.456 L 524.79,452.384 L 524.639,452.392 L 524.248,452.58 L 524.041,452.632 L 523.417,452.749 L 522.749,452.806 L 522.493,452.809 L 522.317,452.893 L 522.204,453.01 L 522.127,453.271 L 521.996,453.721 L 521.941,453.842 L 521.951,454.021 L 521.912,454.322 L 521.893,454.592 L 521.918,454.773 L 521.729,455.138 L 521.5,455.58 L 521.31,455.959 L 521.118,456.34 L 520.985,456.079 L 520.903,455.773 L 520.871,455.422 L 520.889,455.329 L 520.838,455.225 L 520.834,455.202 L 520.77,454.937 L 520.835,454.752 L 520.782,454.559 L 520.626,454.369 L 520.485,454.223 L 520.403,454.092 L 520.336,454.036 L 520.181,454.016 L 519.972,453.948 L 519.695,453.662 L 519.427,453.384 L 519.083,453.028 L 518.808,452.72 L 518.47,452.343 L 518.158,451.994 L 517.971,451.658 L 517.895,451.465 L 517.986,451.446 L 518.121,451.442 L 518.178,451.407 L 518.181,451.317 L 518.042,451.052 L 517.976,450.714 L 517.861,450.508 L 517.498,450.191 L 517.152,449.95 L 517.042,449.826 L 516.98,449.649 L 516.847,448.531 L 516.788,448.213 L 516.679,448.074 L 516.6,448.009 L 516.57,447.93 L 516.584,447.731 L 516.63,447.553 L 516.628,447.483 L 516.722,447.327 L 516.722,446.291 L 516.671,446.238 L 516.61,446.148 L 516.513,446.155 L 516.402,446.146 L 516.292,445.995 L 516.2,445.805 L 516.227,445.67 L 516.323,445.558 L 516.428,445.459 L 516.561,445.377 L 516.954,445.211 L 517.065,445.128 L 517.135,445.026 L 517.181,444.888 L 517.409,444.354 L 517.749,443.822 L 517.894,443.712 L 518.039,443.36 L 518.238,442.929 L 518.318,442.728 L 518.377,442.528 L 518.487,442.367 L 518.861,442.101 L 519.144,441.635 L 519.451,441.66 L 519.765,441.734 L 520.168,441.771 L 520.484,441.681 L 520.689,441.499 L 521.14,441.354 L 521.667,441.186 L 521.738,440.936 L 521.893,440.805 L 522.072,440.689 L 522.134,440.674 L 522.147,440.757 L 522.256,441.018 L 522.479,441.275 L 522.806,441.559 L 522.899,441.541 L 523.102,441.326 L 523.612,441.193 L 523.741,441.134 L 524.103,440.821 L 524.539,440.62 L 524.635,440.602 L 524.792,440.549 L 525.232,440.341 L 525.545,440.369 L 526.048,440.336 L 526.887,440.238 L 527.493,440.205 L 527.8,440.166 L 527.876,440.124 L 527.995,439.823 L 528.086,439.738 L 528.314,439.608 L 528.76,439.154 L 529.053,438.77 L 529.135,438.642 L 529.142,438.632 L 529.202,438.608 L 529.328,438.446 L 529.203,438.279 L 528.703,437.938 L 528.71,437.892 L 528.682,437.834 L 528.709,437.787 L 528.9,437.648 L 529.157,437.49 L 529.431,437.431 L 530.146,437.443 L 530.756,437.409 L 530.898,437.417 L 531.374,437.336 L 531.699,437.264 L 532.033,437.1 L 532.79,437.117 L 533.42,436.699 L 533.602,436.625 L 533.681,436.56 L 533.705,436.496 L 534.0,436.33 L 534.33,435.987 L 534.591,435.678 L 534.662,435.46 L 535.376,434.721 L 535.625,434.736 L 535.747,434.645 L 536.03,434.151 L 536.118,434.061 L 536.251,434.03 L 536.412,433.974 L 536.552,433.828 L 536.673,433.61 L 536.674,433.341 L 536.619,433.125 L 536.619,433.02 L 536.687,432.924 L 536.801,432.827 L 537.343,432.561 L 537.481,432.432 L 537.563,432.316 L 537.715,432.295 L 537.881,432.307 L 537.986,432.235 L 538.104,432.114 L 538.48,431.951 L 538.828,431.824 L 539.194,431.877 L 539.492,431.943 L 539.736,432.02 L 539.856,432.041" id="CF" title="Central African Republic"/>
</svg>
