<svg xmlns="http://www.w3.org/2000/svg" xmlns:ev="http://www.w3.org/2001/xml-events" xmlns:xlink="http://www.w3.org/1999/xlink" baseProfile="full" height="24.2550048828125" version="1.1" viewBox="506.9360046386719 452.3840026855469 21.025970458984375 24.2550048828125" width="21.025970458984375">
	<defs/>
	<path class="land" d="M 527.929,452.968 L 527.962,453.455 L 527.752,454.061 L 527.594,454.515 L 527.18,455.265 L 526.81,455.937 L 526.419,457.057 L 526.421,457.876 L 526.378,458.391 L 526.25,458.706 L 525.942,459.553 L 525.896,460.282 L 526.006,461.173 L 525.901,462.018 L 525.58,462.816 L 525.442,463.444 L 525.522,464.201 L 524.933,464.831 L 524.192,465.457 L 523.712,465.638 L 523.339,465.849 L 523.073,466.088 L 522.986,466.218 L 522.792,466.508 L 522.351,467.407 L 522.121,467.801 L 521.82,468.138 L 521.372,468.549 L 521.208,468.743 L 521.141,469.025 L 521.17,469.543 L 521.213,471.122 L 521.138,471.58 L 521.015,472.333 L 520.575,473.177 L 520.245,473.646 L 519.915,473.79 L 519.481,473.917 L 519.273,474.076 L 519.146,474.311 L 518.904,474.515 L 518.547,474.69 L 518.095,475.119 L 517.55,475.803 L 517.177,476.195 L 516.977,476.296 L 516.77,476.305 L 516.555,476.223 L 516.376,476.212 L 516.286,476.249 L 516.228,476.219 L 516.143,476.155 L 516.146,475.997 L 516.121,475.736 L 516.016,475.467 L 516.141,475.251 L 516.253,475.087 L 516.233,475.001 L 516.121,474.864 L 515.996,474.667 L 515.878,474.681 L 515.627,474.831 L 515.366,474.949 L 515.122,474.998 L 514.93,475.12 L 514.825,475.186 L 514.66,475.186 L 514.568,475.113 L 514.367,475.043 L 514.258,475.067 L 514.196,475.101 L 514.17,475.349 L 514.146,475.559 L 514.107,475.756 L 514.035,475.848 L 513.732,475.946 L 513.526,476.081 L 513.349,476.172 L 513.239,476.149 L 513.019,475.97 L 512.8,475.804 L 512.679,475.664 L 512.611,475.564 L 512.567,475.52 L 512.429,475.513 L 512.388,475.605 L 512.319,475.562 L 512.104,475.373 L 511.85,475.075 L 511.758,475.029 L 511.618,475.034 L 511.396,475.144 L 511.178,475.315 L 510.785,475.473 L 510.457,475.561 L 510.427,475.669 L 510.35,475.855 L 510.242,475.971 L 509.951,476.007 L 509.846,476.173 L 509.595,476.493 L 509.429,476.639 L 509.385,476.577 L 509.284,476.499 L 509.078,476.251 L 508.874,475.942 L 508.82,475.802 L 508.762,475.722 L 508.753,475.412 L 508.446,475.044 L 507.676,474.39 L 507.594,474.195 L 506.936,473.597 L 507.104,473.166 L 507.229,472.966 L 507.38,472.828 L 507.986,472.49 L 508.078,472.503 L 508.496,472.942 L 508.629,472.977 L 508.778,472.965 L 508.954,472.983 L 509.041,472.897 L 509.054,472.784 L 508.927,472.657 L 508.908,472.521 L 508.998,472.374 L 509.048,472.21 L 509.179,472.018 L 509.193,471.927 L 509.055,471.828 L 508.772,471.677 L 508.579,471.531 L 508.505,471.392 L 508.558,471.214 L 508.713,471.069 L 508.704,470.99 L 508.567,470.86 L 508.467,470.721 L 508.365,470.634 L 508.08,470.582 L 508.135,470.395 L 508.239,470.119 L 508.265,469.908 L 508.186,469.354 L 508.192,469.254 L 508.27,469.203 L 508.439,469.264 L 508.61,469.348 L 509.076,469.228 L 509.238,469.209 L 509.373,469.315 L 509.558,469.398 L 510.63,469.167 L 510.651,468.932 L 510.712,468.719 L 510.72,468.56 L 510.676,468.457 L 510.623,468.38 L 510.591,468.22 L 510.59,468.049 L 510.693,467.968 L 511.035,467.764 L 511.141,467.771 L 511.38,467.883 L 511.604,468.057 L 511.804,468.423 L 511.941,468.739 L 512.162,469.121 L 512.629,469.277 L 513.187,469.376 L 513.489,469.35 L 513.92,469.024 L 514.164,468.77 L 514.243,468.633 L 514.385,468.704 L 514.546,469.038 L 514.649,469.168 L 514.675,469.292 L 514.603,469.446 L 514.673,469.545 L 514.973,469.616 L 515.236,469.549 L 515.354,469.413 L 515.551,469.235 L 515.553,469.085 L 515.447,468.988 L 515.447,468.854 L 515.557,468.749 L 515.663,468.461 L 515.696,468.251 L 515.8,468.117 L 515.997,468.024 L 516.068,467.94 L 516.178,467.442 L 516.121,467.262 L 516.121,467.113 L 516.246,466.922 L 516.269,466.61 L 516.216,466.099 L 516.181,465.748 L 516.143,465.38 L 516.239,464.897 L 516.339,464.394 L 516.321,464.269 L 516.182,464.116 L 516.011,463.977 L 515.571,463.862 L 515.407,463.679 L 515.279,463.485 L 515.186,463.423 L 514.704,463.347 L 514.598,463.237 L 514.641,462.923 L 514.684,462.46 L 514.667,462.139 L 514.752,461.879 L 514.849,461.684 L 515.062,461.478 L 515.174,461.235 L 515.236,461.175 L 515.639,461.134 L 515.785,461.033 L 515.9,460.93 L 515.949,460.792 L 516.087,460.563 L 516.209,460.408 L 516.223,460.303 L 516.197,460.157 L 516.075,459.87 L 515.929,459.631 L 515.841,459.545 L 515.663,458.983 L 515.498,458.851 L 515.176,458.779 L 514.573,458.715 L 514.208,458.816 L 513.653,459.005 L 513.229,459.136 L 512.953,459.21 L 512.791,459.19 L 512.717,459.104 L 512.825,459.031 L 512.878,458.86 L 512.809,458.615 L 512.702,458.391 L 512.641,458.075 L 512.667,457.684 L 512.771,457.316 L 512.994,456.838 L 513.008,456.643 L 513.681,456.649 L 514.353,456.655 L 515.087,456.65 L 515.796,456.646 L 516.349,456.662 L 516.615,456.538 L 516.868,456.726 L 516.992,456.767 L 517.034,456.752 L 517.131,456.884 L 517.446,456.87 L 517.496,456.9 L 517.523,457.06 L 517.815,457.056 L 517.959,457.091 L 518.076,457.087 L 518.246,456.995 L 518.368,457.025 L 518.59,457.145 L 518.748,457.248 L 518.969,457.214 L 519.481,457.232 L 519.878,457.331 L 520.271,457.605 L 520.534,457.763 L 520.77,457.997 L 520.857,457.955 L 520.939,457.891 L 520.985,457.863 L 520.982,457.663 L 520.85,457.322 L 520.799,457.033 L 520.828,456.796 L 520.928,456.625 L 521.099,456.522 L 521.116,456.362 L 521.118,456.34 L 521.31,455.959 L 521.5,455.58 L 521.729,455.138 L 521.918,454.773 L 521.893,454.592 L 521.912,454.322 L 521.951,454.021 L 521.941,453.842 L 521.996,453.721 L 522.127,453.271 L 522.204,453.01 L 522.317,452.893 L 522.493,452.809 L 522.749,452.806 L 523.417,452.749 L 524.041,452.632 L 524.248,452.58 L 524.639,452.392 L 524.79,452.384 L 524.919,452.456 L 525.673,452.672 L 525.88,452.757 L 525.956,452.744 L 526.07,452.763 L 526.247,452.765 L 526.419,452.739 L 526.529,452.765 L 526.668,452.908 L 526.761,452.892 L 526.882,452.788 L 527.109,452.682 L 527.548,452.564 L 527.619,452.617 L 527.771,452.879 L 527.929,452.968" id="CG" title="Republic of Congo"/>
</svg>
