<svg xmlns="http://www.w3.org/2000/svg" xmlns:ev="http://www.w3.org/2001/xml-events" xmlns:xlink="http://www.w3.org/1999/xlink" baseProfile="full" height="7.9530029296875" version="1.1" viewBox="492.4540100097656 310.4469909667969 12.58599853515625 7.9530029296875" width="12.58599853515625">
	<defs/>
	<path class="land" d="M 502.429,311.491 L 502.514,311.545 L 502.714,311.728 L 502.667,312.039 L 502.438,312.539 L 502.317,312.943 L 502.304,313.252 L 502.327,313.397 L 502.368,313.395 L 502.586,313.417 L 502.698,313.417 L 503.049,313.5 L 503.33,313.622 L 503.385,313.751 L 503.421,313.908 L 503.756,314.122 L 504.139,314.261 L 504.269,314.216 L 504.745,313.715 L 504.929,313.798 L 505.04,314.064 L 505.035,314.206 L 504.904,314.737 L 504.881,315.022 L 504.994,315.21 L 505.006,315.357 L 504.973,315.49 L 504.783,315.502 L 504.528,315.43 L 504.313,315.201 L 504.15,315.229 L 504.009,315.288 L 503.936,315.504 L 503.872,315.762 L 503.893,315.905 L 503.994,316.016 L 504.072,316.25 L 504.129,316.554 L 504.172,316.693 L 504.125,316.755 L 503.991,316.797 L 503.879,316.756 L 503.685,316.393 L 503.594,316.255 L 503.44,316.23 L 503.169,316.319 L 502.753,316.522 L 502.584,316.521 L 502.442,316.48 L 502.308,316.308 L 502.194,315.975 L 502.158,315.766 L 502.079,315.772 L 501.812,315.712 L 501.688,315.795 L 501.687,316.135 L 501.663,316.559 L 501.529,316.832 L 501.157,317.304 L 501.021,317.509 L 500.966,317.657 L 500.955,317.785 L 501.012,318.006 L 501.089,318.217 L 501.024,318.337 L 500.828,318.4 L 500.689,318.272 L 500.636,318.044 L 500.335,317.732 L 500.472,317.471 L 500.449,317.406 L 499.952,317.27 L 499.738,317.072 L 499.438,316.724 L 499.382,316.575 L 499.395,316.089 L 499.377,315.971 L 499.337,315.913 L 499.192,315.917 L 498.989,316.086 L 498.802,316.338 L 498.42,316.623 L 498.38,316.683 L 498.509,316.96 L 498.503,317.067 L 498.191,317.508 L 498.132,317.653 L 497.737,317.928 L 497.556,318.031 L 497.008,317.829 L 496.856,317.805 L 496.612,317.94 L 496.266,318.069 L 495.707,318.198 L 495.501,318.104 L 495.404,318.016 L 495.356,317.882 L 495.215,317.647 L 495.057,317.508 L 494.947,317.356 L 494.8,317.19 L 494.705,317.051 L 494.831,316.605 L 494.739,316.449 L 494.692,316.225 L 494.716,316.073 L 494.666,316.036 L 494.161,315.948 L 493.742,315.976 L 493.442,316.125 L 493.197,316.373 L 493.167,316.427 L 493.183,316.471 L 493.305,316.698 L 493.098,316.938 L 492.781,317.124 L 492.557,317.143 L 492.458,317.107 L 492.454,316.851 L 492.64,316.756 L 492.808,316.589 L 492.864,316.353 L 492.884,316.187 L 492.708,315.986 L 492.729,315.862 L 492.839,315.628 L 492.902,315.421 L 492.99,315.242 L 493.339,314.949 L 493.689,314.653 L 493.742,314.339 L 493.77,313.956 L 493.819,313.864 L 494.292,313.634 L 494.41,313.543 L 494.47,313.413 L 494.842,312.982 L 495.21,312.554 L 495.285,312.41 L 495.347,312.325 L 495.347,312.255 L 495.3,312.201 L 495.125,312.166 L 495.065,312.029 L 495.256,311.785 L 495.495,311.636 L 495.727,311.633 L 495.82,311.702 L 495.815,311.783 L 495.915,311.87 L 496.091,311.898 L 496.308,311.868 L 496.524,311.777 L 496.657,311.56 L 496.734,311.395 L 497.073,311.207 L 497.304,311.302 L 497.947,311.327 L 498.415,311.276 L 498.708,311.148 L 499.071,311.148 L 499.315,311.22 L 499.358,311.209 L 499.426,311.193 L 499.492,311.124 L 499.722,311.077 L 499.752,311.02 L 499.743,310.961 L 499.702,310.932 L 499.419,310.962 L 499.312,310.917 L 499.284,310.813 L 499.375,310.631 L 499.583,310.483 L 499.759,310.447 L 499.886,310.487 L 500.195,310.761 L 500.27,310.77 L 500.313,310.721 L 500.377,310.693 L 500.484,310.747 L 500.604,310.917 L 500.625,310.943 L 501.316,310.883 L 501.471,310.883 L 501.94,311.182 L 502.429,311.491" id="CH" title="Switzerland"/>
</svg>
