<svg xmlns="http://www.w3.org/2000/svg" xmlns:ev="http://www.w3.org/2001/xml-events" xmlns:xlink="http://www.w3.org/1999/xlink" baseProfile="full" height="17.927001953125" version="1.1" viewBox="451.5509948730469 432.5979919433594 17.115997314453125 17.927001953125" width="17.115997314453125">
	<defs/>
	<path class="land" d="M 460.198,433.442 L 460.373,433.63 L 460.59499999999997,433.759 L 460.93199999999996,433.743 L 461.176,433.82 L 461.387,433.965 L 461.529,434.286 L 461.68399999999997,434.517 L 461.751,434.847 L 461.996,435.02 L 462.188,435.099 L 462.448,435.33799999999997 L 462.717,435.46 L 462.995,435.43199999999996 L 463.125,435.55699999999996 L 463.333,435.645 L 463.54100000000005,435.65099999999995 L 463.72400000000005,435.37499999999994 L 463.96600000000007,435.26599999999996 L 464.57700000000006,435.04599999999994 L 464.81800000000004,434.9459999999999 L 465.06200000000007,434.8829999999999 L 465.6500000000001,434.86299999999994 L 466.1970000000001,434.9309999999999 L 466.46800000000013,434.9819999999999 L 466.6540000000001,434.9439999999999 L 466.8300000000001,435.0749999999999 L 467.0120000000001,435.34999999999985 L 467.1610000000001,435.4379999999999 L 467.3130000000001,435.5329999999999 L 467.4260000000001,435.7499999999999 L 467.5580000000001,435.96499999999986 L 467.6300000000001,436.0599999999999 L 467.7940000000001,436.2719999999999 L 467.9350000000001,436.27499999999986 L 468.0740000000001,436.1829999999999 L 468.1340000000001,436.1149999999999 L 468.1610000000001,436.2549999999999 L 468.1060000000001,436.48199999999986 L 468.11700000000013,436.6229999999999 L 468.19400000000013,436.67699999999985 L 468.15200000000016,436.85799999999983 L 467.99100000000016,437.1659999999998 L 467.9900000000002,437.34799999999984 L 468.1500000000002,437.40499999999986 L 468.2640000000002,437.59799999999984 L 468.33200000000016,437.9279999999998 L 468.4010000000002,438.03799999999984 L 468.4080000000002,438.1059999999998 L 468.52400000000017,438.9049999999998 L 468.66700000000014,439.7059999999998 L 468.57600000000014,439.8099999999998 L 468.45100000000014,439.8409999999998 L 468.3700000000001,439.87799999999976 L 468.3470000000001,439.95299999999975 L 468.4000000000001,440.0619999999997 L 468.36500000000007,440.16199999999975 L 468.20900000000006,440.23099999999977 L 467.87000000000006,440.4849999999998 L 467.84700000000004,440.5859999999998 L 467.75700000000006,440.8019999999998 L 467.6820000000001,440.9339999999998 L 467.5710000000001,441.1789999999998 L 467.3950000000001,441.8269999999998 L 467.3300000000001,442.3639999999998 L 467.3200000000001,442.5299999999998 L 467.2520000000001,442.6449999999998 L 467.1750000000001,442.8119999999998 L 466.80700000000013,443.2709999999998 L 466.61900000000014,443.6459999999998 L 466.64300000000014,443.8089999999998 L 466.65200000000016,443.9729999999998 L 466.5960000000002,444.0909999999998 L 466.60600000000017,444.4079999999998 L 466.6510000000002,444.6729999999998 L 466.71700000000016,444.93299999999977 L 466.98400000000015,445.66899999999976 L 467.12300000000016,446.11599999999976 L 467.2090000000002,446.4759999999998 L 467.2850000000002,446.7179999999998 L 467.3560000000002,446.8159999999998 L 467.3850000000002,446.9089999999998 L 467.78100000000023,446.97599999999983 L 467.8590000000002,447.0289999999998 L 467.9670000000002,447.4979999999998 L 467.94700000000023,447.7099999999998 L 467.86900000000026,447.7909999999998 L 467.87100000000027,447.9699999999998 L 467.8530000000003,448.1929999999998 L 467.7950000000003,448.28099999999984 L 467.5730000000003,448.29199999999986 L 467.4220000000003,448.37599999999986 L 467.22400000000033,448.34199999999987 L 467.2050000000003,448.28699999999986 L 467.0980000000003,448.2669999999999 L 466.8040000000003,448.1399999999999 L 466.8520000000003,447.7329999999999 L 466.7160000000003,447.7159999999999 L 466.6110000000003,447.76999999999987 L 466.40200000000027,448.25799999999987 L 466.30200000000025,448.34199999999987 L 464.83400000000023,448.08999999999986 L 464.5150000000002,447.8869999999999 L 464.1330000000002,447.8409999999999 L 463.4670000000002,447.8639999999999 L 462.91800000000023,447.9249999999999 L 462.76100000000025,448.0479999999999 L 464.1470000000003,447.9759999999999 L 464.2960000000003,447.9899999999999 L 464.36600000000027,448.0639999999999 L 462.61400000000026,448.2249999999999 L 461.94600000000025,448.3209999999999 L 461.7480000000003,448.2949999999999 L 461.5980000000003,448.1389999999999 L 460.8720000000003,448.1199999999999 L 460.7230000000003,448.1709999999999 L 460.6330000000003,448.2859999999999 L 460.9190000000003,448.2609999999999 L 461.37000000000035,448.25499999999994 L 461.4910000000003,448.34299999999996 L 460.07900000000035,448.45799999999997 L 459.10000000000036,448.678 L 458.68500000000034,448.841 L 457.31900000000036,449.37600000000003 L 456.48600000000033,449.62800000000004 L 456.2680000000003,449.72100000000006 L 455.8890000000003,449.98300000000006 L 455.40200000000027,450.1480000000001 L 454.8560000000003,450.4560000000001 L 454.52300000000025,450.5250000000001 L 454.44800000000026,450.4270000000001 L 454.43900000000025,449.9070000000001 L 454.39300000000026,449.2100000000001 L 454.41000000000025,448.9430000000001 L 454.45400000000024,448.6920000000001 L 454.4550000000002,448.4840000000001 L 454.6210000000002,448.4060000000001 L 454.6650000000002,448.31900000000013 L 454.69000000000017,448.0480000000001 L 454.84500000000014,447.8010000000001 L 454.8480000000001,447.3710000000001 L 454.8940000000001,447.2820000000001 L 454.92900000000014,447.1680000000001 L 454.86300000000017,446.88600000000014 L 454.77700000000016,446.35400000000016 L 454.7350000000002,446.31900000000013 L 454.6970000000002,446.34200000000016 L 454.6100000000002,446.35200000000015 L 454.26700000000017,446.1680000000001 L 454.0020000000002,446.13600000000014 L 453.8160000000002,445.97900000000016 L 453.8030000000002,445.8000000000002 L 453.71300000000025,445.69500000000016 L 453.65000000000026,445.48800000000017 L 453.55700000000024,445.25100000000015 L 453.2960000000002,445.10700000000014 L 453.0510000000002,445.0720000000001 L 452.87700000000024,445.1030000000001 L 452.67300000000023,445.0940000000001 L 452.43900000000025,445.0140000000001 L 452.27700000000027,444.92400000000015 L 452.12400000000025,444.75000000000017 L 451.98200000000026,444.6120000000002 L 451.86900000000026,444.6290000000002 L 451.7310000000003,444.5960000000002 L 451.59500000000025,444.5330000000002 L 451.5510000000003,444.4840000000002 L 452.11900000000026,443.93000000000023 L 452.31200000000024,443.6590000000002 L 452.33300000000025,443.4930000000002 L 452.33500000000026,443.32600000000025 L 452.3970000000003,443.15500000000026 L 452.4130000000003,442.89400000000023 L 452.0990000000003,441.94400000000024 L 452.0190000000003,441.65000000000026 L 451.9350000000003,441.56400000000025 L 451.8810000000003,441.53100000000023 L 452.0400000000003,441.4090000000002 L 452.2590000000003,441.4410000000002 L 452.5950000000003,441.53600000000023 L 452.6680000000003,441.44200000000023 L 452.9220000000003,440.9620000000002 L 452.9150000000003,440.7840000000002 L 452.8900000000003,440.66100000000023 L 453.0390000000003,440.3320000000002 L 453.1570000000003,440.2050000000002 L 453.2180000000003,440.0680000000002 L 453.1990000000003,439.8800000000002 L 453.1100000000003,439.81000000000023 L 452.9920000000003,439.8230000000002 L 452.8510000000003,439.7770000000002 L 452.6360000000003,439.6690000000002 L 452.5270000000003,439.5730000000002 L 452.5610000000003,439.1380000000002 L 452.5810000000003,439.0030000000002 L 452.6570000000003,438.92500000000024 L 452.7750000000003,438.9040000000002 L 453.10800000000035,438.89100000000025 L 453.3780000000003,438.94100000000026 L 453.61500000000035,438.97000000000025 L 453.7410000000003,438.97000000000025 L 453.8430000000003,439.0990000000003 L 453.9790000000003,439.2310000000003 L 454.09900000000033,439.2300000000003 L 454.1410000000003,439.1320000000003 L 454.1130000000003,438.7030000000003 L 454.0330000000003,438.47600000000034 L 453.8520000000003,438.25700000000035 L 453.3840000000003,438.07000000000033 L 453.3730000000003,437.8090000000003 L 453.4200000000003,437.5260000000003 L 453.5210000000003,437.4210000000003 L 453.8690000000003,437.24100000000027 L 453.80800000000033,437.1440000000003 L 453.69700000000034,437.0410000000003 L 453.47600000000034,436.9370000000003 L 453.5270000000003,436.5980000000003 L 453.53800000000035,436.2950000000003 L 453.35100000000034,436.3290000000003 L 453.15900000000033,436.34700000000026 L 452.99700000000036,436.25400000000025 L 452.86100000000033,436.0700000000002 L 452.83600000000035,435.56400000000025 L 452.83600000000035,434.97900000000027 L 452.81000000000034,434.72000000000025 L 452.86200000000036,434.5820000000003 L 453.0270000000004,434.45500000000027 L 453.2070000000004,434.29000000000025 L 453.2710000000004,434.18500000000023 L 453.35400000000044,434.1830000000002 L 453.57000000000045,434.12000000000023 L 453.7660000000005,433.9760000000002 L 453.94900000000047,433.6760000000002 L 454.1960000000005,433.43500000000023 L 454.4740000000005,433.4530000000002 L 454.5560000000005,433.4090000000002 L 454.6540000000005,433.40100000000024 L 454.7700000000005,433.56000000000023 L 454.8870000000005,433.6810000000002 L 454.97000000000054,433.6840000000002 L 455.03200000000055,433.9130000000002 L 455.53900000000056,434.0090000000002 L 455.75600000000054,434.0720000000002 L 455.93900000000053,434.23900000000015 L 456.00300000000055,434.24300000000017 L 456.08000000000055,434.20800000000014 L 456.14000000000055,434.15000000000015 L 456.15200000000056,434.0860000000001 L 456.07300000000055,433.93600000000015 L 456.1080000000006,433.80100000000016 L 456.19000000000057,433.6800000000002 L 456.32100000000054,433.6720000000002 L 456.51800000000054,433.6380000000002 L 456.74400000000054,433.6380000000002 L 456.91200000000055,433.6600000000002 L 456.97900000000055,433.5390000000002 L 456.91500000000053,433.19900000000024 L 456.9320000000005,433.01100000000025 L 456.9590000000005,432.85300000000024 L 457.0220000000005,432.7890000000002 L 457.2730000000005,432.9880000000002 L 457.5030000000005,433.06000000000023 L 457.6680000000005,433.0660000000002 L 457.7140000000005,433.0280000000002 L 457.6440000000005,432.8110000000002 L 457.6630000000005,432.7460000000002 L 457.7240000000005,432.7080000000002 L 457.8320000000005,432.6860000000002 L 458.1250000000005,432.5980000000002 L 458.1550000000005,432.6150000000002 L 458.2100000000005,432.95700000000016 L 458.1850000000005,433.0690000000002 L 458.2470000000005,433.3010000000002 L 458.32300000000055,433.5160000000002 L 458.3170000000006,433.6040000000002 L 458.2540000000006,433.7370000000002 L 458.1800000000006,433.8590000000002 L 458.18800000000056,433.9090000000002 L 458.3050000000006,433.99200000000025 L 458.52900000000056,434.07800000000026 L 458.7610000000006,434.09800000000024 L 458.8900000000006,433.97300000000024 L 459.0240000000006,433.87100000000027 L 459.11700000000064,433.78000000000026 L 459.1490000000006,433.64500000000027 L 459.2960000000006,433.5460000000003 L 459.71600000000063,433.42200000000025 L 460.10200000000066,433.40300000000025 L 460.198,433.442 M 467.037,448.355 L 466.96,448.466 L 466.58799999999997,448.395 L 466.676,448.30199999999996 L 467.037,448.355" id="CI" title="C&#244;te d'Ivoire"/>
</svg>
