<svg xmlns="http://www.w3.org/2000/svg" xmlns:ev="http://www.w3.org/2001/xml-events" xmlns:xlink="http://www.w3.org/1999/xlink" baseProfile="full" height="139.5369873046875" version="1.1" viewBox="168.57400512695312 512.2540283203125 120.67300415039062 139.5369873046875" width="120.67300415039062">
	<defs/>
	<path class="land" d="M 287.118,528.065 L 287.64,528.609 L 287.413,529.349 L 287.05,530.532 L 286.77000000000004,531.4490000000001 L 286.72400000000005,531.5720000000001 L 286.66600000000005,531.7520000000001 L 286.06100000000004,532.013 L 285.17900000000003,532.393 L 284.72700000000003,532.592 L 284.158,532.848 L 284.02000000000004,533.0569999999999 L 283.855,533.17 L 283.67400000000004,533.3159999999999 L 283.605,533.4759999999999 L 283.43600000000004,533.5769999999999 L 283.283,533.9379999999999 L 283.283,534.2149999999999 L 283.38100000000003,534.4039999999999 L 283.55100000000004,534.4839999999999 L 283.605,534.7119999999999 L 283.659,534.8719999999998 L 283.782,534.9979999999998 L 283.751,535.0989999999998 L 283.65099999999995,535.1749999999998 L 283.4669999999999,535.2169999999999 L 283.3419999999999,535.4449999999998 L 283.1979999999999,536.0109999999999 L 283.1749999999999,536.2139999999998 L 283.3389999999999,536.7269999999999 L 283.4259999999999,537.0039999999999 L 283.66199999999986,538.0109999999999 L 283.6969999999999,538.2849999999999 L 283.3729999999999,538.6689999999999 L 283.24399999999986,538.9019999999998 L 283.19799999999987,539.1079999999998 L 283.1999999999999,539.2709999999998 L 283.22899999999987,539.4199999999998 L 283.49899999999985,539.8949999999999 L 283.81199999999984,540.3199999999998 L 283.96599999999984,540.5419999999998 L 283.96599999999984,540.8419999999998 L 283.88899999999984,541.0129999999998 L 283.72199999999987,541.0759999999998 L 283.35199999999986,541.1929999999998 L 283.19799999999987,541.3639999999998 L 283.0289999999999,541.3899999999998 L 282.8679999999999,541.2529999999998 L 282.6999999999999,541.2869999999998 L 282.4849999999999,541.4069999999998 L 282.4039999999999,541.6989999999998 L 282.2159999999999,542.1969999999999 L 282.0549999999999,542.3339999999998 L 281.9349999999999,542.7149999999998 L 281.7209999999999,543.2619999999998 L 281.6179999999999,543.5919999999999 L 281.5639999999999,543.8339999999998 L 281.3479999999999,543.9889999999998 L 281.0969999999999,544.2959999999998 L 280.90399999999994,544.5949999999998 L 280.82699999999994,544.6819999999998 L 280.6809999999999,544.7079999999997 L 280.5739999999999,544.9769999999997 L 280.2099999999999,545.3829999999997 L 280.12299999999993,545.8549999999997 L 279.99099999999993,546.1059999999997 L 279.9679999999999,546.5609999999997 L 279.7669999999999,547.3949999999996 L 279.7299999999999,547.5799999999996 L 279.52699999999993,547.7259999999995 L 279.25899999999996,548.0499999999995 L 279.17199999999997,548.2869999999995 L 279.296,548.9969999999995 L 279.45,549.7159999999996 L 279.46,550.0529999999995 L 279.4,550.5119999999995 L 279.359,550.7119999999995 L 279.46099999999996,550.7949999999995 L 279.62999999999994,550.8479999999995 L 279.6839999999999,551.0239999999995 L 279.5609999999999,551.1479999999996 L 279.50699999999995,551.3689999999996 L 279.36899999999997,551.6169999999996 L 278.96,551.7149999999996 L 278.816,551.6259999999995 L 278.77,551.7059999999996 L 278.793,551.8829999999996 L 278.702,552.0919999999995 L 278.49,552.6519999999995 L 278.35,553.1609999999995 L 278.269,553.3839999999994 L 278.302,553.5709999999995 L 278.37100000000004,553.6769999999995 L 278.37800000000004,553.7749999999994 L 278.26200000000006,553.8989999999994 L 278.15600000000006,554.0959999999994 L 278.04100000000005,554.1229999999995 L 277.91800000000006,554.0699999999995 L 277.78800000000007,554.1859999999995 L 277.76200000000006,554.4289999999995 L 277.69000000000005,554.7379999999995 L 277.65700000000004,555.0989999999995 L 277.60400000000004,555.5619999999994 L 277.771,555.8799999999994 L 277.982,556.4569999999994 L 278.14000000000004,556.5949999999995 L 278.31600000000003,556.5859999999994 L 278.454,556.7029999999994 L 278.531,556.8379999999994 L 278.428,557.0799999999994 L 278.246,557.1179999999994 L 278.22299999999996,557.2529999999994 L 278.27699999999993,557.5599999999994 L 278.34599999999995,557.8579999999994 L 278.5199999999999,558.0009999999994 L 278.59899999999993,558.3999999999994 L 278.7679999999999,558.5359999999994 L 278.7469999999999,559.0479999999993 L 278.9169999999999,559.6499999999993 L 279.0969999999999,559.8249999999992 L 279.1809999999999,559.9069999999992 L 279.12499999999994,560.1709999999993 L 278.98199999999997,560.3809999999993 L 278.95099999999996,560.7179999999993 L 279.00499999999994,560.9649999999992 L 279.18799999999993,561.1979999999992 L 279.3309999999999,561.2239999999991 L 279.5349999999999,561.1289999999991 L 279.7499999999999,561.2389999999991 L 279.7809999999999,561.4399999999991 L 279.8119999999999,561.6229999999991 L 279.6969999999999,561.8609999999992 L 279.5739999999999,562.2999999999992 L 279.5409999999999,562.7379999999991 L 279.5769999999999,563.4049999999992 L 279.63299999999987,563.9239999999992 L 279.64499999999987,564.2509999999992 L 279.6589999999999,564.3989999999992 L 279.5819999999999,564.5009999999992 L 279.39499999999987,564.5529999999992 L 279.2359999999999,564.5739999999992 L 279.0979999999999,564.6569999999991 L 279.0669999999999,564.8239999999992 L 278.9589999999999,565.1009999999992 L 278.8479999999999,565.3069999999992 L 278.6529999999999,565.6069999999992 L 278.5289999999999,565.9179999999992 L 278.4299999999999,566.1229999999993 L 278.4389999999999,566.2649999999993 L 278.3679999999999,566.5379999999993 L 278.2949999999999,566.7659999999993 L 278.1409999999999,567.5339999999993 L 277.9349999999999,567.6939999999993 L 277.7709999999999,567.7729999999992 L 277.6869999999999,567.8759999999992 L 277.7509999999999,568.0849999999991 L 277.9249999999999,568.1479999999991 L 277.9869999999999,568.3159999999991 L 277.9639999999999,568.5789999999992 L 278.0789999999999,568.8229999999992 L 278.06799999999987,569.1189999999992 L 278.17899999999986,569.6789999999992 L 278.07899999999984,570.0459999999991 L 278.11299999999983,570.3639999999991 L 278.10999999999984,570.6789999999992 L 277.9639999999998,570.9249999999992 L 277.66499999999985,570.9719999999992 L 277.49999999999983,571.1989999999992 L 277.2189999999998,571.4459999999991 L 277.1879999999998,571.6449999999991 L 277.1419999999998,571.824999999999 L 277.0269999999998,571.890999999999 L 276.85099999999983,571.890999999999 L 276.7049999999998,571.9189999999991 L 276.5009999999998,572.1529999999991 L 276.2829999999998,572.2789999999991 L 276.2329999999998,572.467999999999 L 276.2519999999998,572.6979999999991 L 276.1369999999998,572.8409999999991 L 275.99099999999976,573.1079999999992 L 275.8989999999998,573.3939999999991 L 275.99099999999976,573.6619999999991 L 276.0909999999998,574.1409999999992 L 276.10599999999977,574.3419999999992 L 275.9799999999998,574.7389999999992 L 275.8759999999998,574.9949999999992 L 275.97599999999983,575.3219999999992 L 276.05999999999983,575.5049999999992 L 275.9809999999998,575.9069999999992 L 275.9139999999998,576.1599999999993 L 275.9679999999998,576.6239999999993 L 276.1679999999998,577.1459999999994 L 276.35899999999975,577.6109999999994 L 276.3869999999998,578.1529999999995 L 276.43599999999975,578.5839999999995 L 276.52699999999976,579.0509999999995 L 276.71899999999977,579.2369999999995 L 276.8649999999998,579.3929999999995 L 276.8349999999998,579.6179999999995 L 276.7279999999998,579.8919999999995 L 276.5739999999998,580.0979999999995 L 276.1939999999998,580.1659999999995 L 275.88499999999976,580.3519999999995 L 275.63599999999974,580.4809999999995 L 275.4469999999997,580.6369999999995 L 275.3109999999997,580.8029999999995 L 275.2439999999997,580.9849999999996 L 275.2889999999997,581.7779999999996 L 275.25899999999973,582.0709999999996 L 275.1319999999997,582.4869999999996 L 275.0129999999997,582.8229999999996 L 274.9619999999997,582.9239999999996 L 274.9469999999997,583.0729999999996 L 274.9239999999997,583.2119999999996 L 274.7909999999997,583.2439999999997 L 274.6019999999997,583.1819999999997 L 274.49499999999966,583.2219999999996 L 274.41799999999967,583.3309999999997 L 274.48299999999966,583.5909999999997 L 274.5519999999997,584.0499999999996 L 274.6479999999997,584.2449999999997 L 274.6219999999997,584.3999999999996 L 274.5859999999997,584.7339999999996 L 274.462,585.0 L 274.296,584.999 L 274.18899999999996,585.109 L 274.143,585.2990000000001 L 274.193,585.5470000000001 L 274.411,585.7500000000001 L 274.488,585.8800000000001 L 274.449,586.0510000000002 L 274.28000000000003,586.1210000000002 L 274.18,586.2620000000002 L 274.085,586.5750000000002 L 273.95799999999997,586.9290000000002 L 273.823,587.1910000000001 L 273.79699999999997,587.5500000000002 L 273.989,587.9340000000002 L 273.96799999999996,588.3100000000002 L 273.95399999999995,589.4150000000002 L 273.93499999999995,589.7910000000002 L 273.99399999999997,590.4150000000002 L 273.91999999999996,590.5870000000002 L 273.881,590.7510000000002 L 274.06899999999996,591.2060000000002 L 274.27799999999996,591.9440000000003 L 274.33399999999995,592.2380000000003 L 274.304,592.4440000000003 L 274.02299999999997,592.6190000000003 L 273.78999999999996,592.6920000000002 L 273.652,592.5680000000002 L 273.56,592.6190000000003 L 273.453,592.8360000000002 L 273.33,593.0120000000003 L 273.284,593.1870000000002 L 273.414,593.4150000000002 L 273.483,593.8500000000001 L 273.337,594.0370000000001 L 273.22999999999996,594.2450000000001 L 273.26899999999995,594.5150000000001 L 273.31499999999994,595.0040000000001 L 273.22299999999996,595.8170000000001 L 273.347,596.1070000000001 L 273.481,596.2460000000001 L 273.919,596.4120000000001 L 274.248,596.4950000000001 L 274.335,596.7660000000001 L 274.298,596.9860000000001 L 274.14,597.0950000000001 L 273.902,597.1900000000002 L 273.902,597.5460000000002 L 274.10499999999996,597.8810000000002 L 274.335,598.1240000000003 L 274.385,598.3430000000003 L 274.372,598.5670000000003 L 274.211,598.7550000000003 L 274.432,599.1620000000004 L 274.533,599.4380000000003 L 274.432,599.6510000000003 L 274.288,599.9710000000003 L 274.16200000000003,600.1240000000004 L 274.16200000000003,600.2980000000003 L 274.11,600.6520000000004 L 274.098,600.9990000000004 L 274.14,601.2060000000004 L 275.527,601.3700000000003 L 275.844,601.4340000000003 L 276.017,601.6410000000003 L 275.992,601.9010000000003 L 275.819,602.1780000000003 L 275.708,602.6990000000003 L 275.43600000000004,602.7860000000003 L 275.16400000000004,602.6470000000003 L 274.869,602.6950000000003 L 274.61300000000006,602.7290000000003 L 274.24500000000006,602.7440000000003 L 273.7560000000001,602.8110000000003 L 273.4570000000001,602.7340000000003 L 273.43200000000013,602.9250000000003 L 273.5190000000001,603.2560000000003 L 274.1630000000001,603.3600000000004 L 274.7690000000001,603.5520000000004 L 274.95100000000014,603.9030000000004 L 275.19800000000015,604.3010000000004 L 275.45000000000016,604.5480000000003 L 275.46200000000016,604.9510000000004 L 275.06600000000014,605.3730000000004 L 275.01700000000017,605.6720000000004 L 274.4970000000002,605.7600000000003 L 274.34900000000016,605.9360000000004 L 274.27500000000015,606.5190000000003 L 274.33700000000016,606.9790000000004 L 274.53500000000014,607.1380000000004 L 274.67100000000016,607.4390000000004 L 274.52300000000014,607.7940000000004 L 274.1730000000001,608.0390000000004 L 273.9860000000001,608.2730000000005 L 274.1030000000001,608.4600000000005 L 274.26100000000014,608.7560000000005 L 274.3050000000001,608.9170000000005 L 274.39100000000013,609.3550000000005 L 274.49200000000013,609.9670000000004 L 274.48000000000013,610.2640000000005 L 274.3870000000001,610.4860000000004 L 274.0390000000001,610.8360000000005 L 273.8040000000001,610.9980000000005 L 273.7580000000001,611.4310000000005 L 273.7400000000001,611.7550000000005 L 273.7640000000001,612.0480000000005 L 273.91500000000013,612.2820000000005 L 273.90300000000013,612.5180000000005 L 273.69600000000014,612.5680000000004 L 273.5190000000001,612.6810000000005 L 273.3460000000001,613.0990000000005 L 272.8420000000001,613.5270000000005 L 272.6650000000001,613.7190000000005 L 272.6770000000001,614.0480000000005 L 272.47800000000007,614.5190000000005 L 272.3110000000001,614.9300000000004 L 272.1830000000001,615.3140000000004 L 272.2080000000001,615.7190000000004 L 272.4920000000001,615.8970000000004 L 272.7150000000001,616.2920000000004 L 272.8140000000001,616.7910000000004 L 272.6410000000001,617.3660000000004 L 272.2390000000001,617.5830000000004 L 272.0010000000001,617.8280000000004 L 271.9290000000001,618.0140000000005 L 271.9920000000001,618.6190000000005 L 271.9750000000001,618.9040000000005 L 271.9120000000001,619.1720000000005 L 271.8080000000001,619.3800000000005 L 271.5910000000001,619.6120000000004 L 271.2070000000001,619.8150000000004 L 270.8810000000001,619.9550000000004 L 270.73500000000007,620.1150000000004 L 270.5640000000001,620.4680000000003 L 270.4120000000001,620.8580000000003 L 270.4500000000001,621.3410000000002 L 269.5340000000001,621.3980000000003 L 269.4720000000001,621.7580000000003 L 269.2740000000001,622.0420000000003 L 269.2120000000001,622.5560000000003 L 269.4130000000001,623.0530000000002 L 269.5090000000001,623.4710000000002 L 269.34500000000014,623.9760000000002 L 269.40500000000014,624.4960000000002 L 269.4230000000001,624.9110000000002 L 269.7450000000001,625.3730000000002 L 269.9550000000001,625.9460000000001 L 270.0600000000001,626.4310000000002 L 270.1230000000001,626.8100000000002 L 270.2070000000001,627.0400000000002 L 270.3390000000001,627.3010000000002 L 270.4000000000001,627.6030000000002 L 270.59800000000007,627.7010000000001 L 270.95400000000006,627.4190000000001 L 271.20500000000004,627.2280000000001 L 271.38000000000005,627.1600000000001 L 271.89400000000006,627.205 L 272.20400000000006,627.027 L 272.34400000000005,627.046 L 272.5330000000001,627.1460000000001 L 272.68000000000006,627.3560000000001 L 272.79100000000005,627.8330000000001 L 272.85900000000004,628.368 L 272.77200000000005,628.9150000000001 L 272.62700000000007,629.0340000000001 L 272.5780000000001,629.1910000000001 L 272.62700000000007,629.5260000000002 L 272.78800000000007,629.7620000000002 L 272.7850000000001,630.1000000000001 L 272.6070000000001,630.8690000000001 L 272.4910000000001,631.1860000000001 L 272.6970000000001,631.5440000000001 L 272.88100000000014,631.863 L 273.2520000000001,632.1010000000001 L 273.55700000000013,632.4390000000001 L 273.7670000000001,632.719 L 273.7170000000001,633.099 L 273.8640000000001,633.214 L 274.4310000000001,633.2220000000001 L 275.2780000000001,633.2350000000001 L 276.6020000000001,633.2540000000001 L 277.89400000000006,633.2730000000001 L 279.36100000000005,633.3000000000002 L 280.05600000000004,633.6060000000002 L 280.68500000000006,633.8830000000003 L 281.47700000000003,633.8830000000003 L 282.26800000000003,634.2110000000002 L 282.855,634.4280000000002 L 283.207,634.5090000000002 L 283.568,634.5880000000002 L 283.618,634.8910000000002 L 282.03499999999997,634.4610000000002 L 281.67999999999995,634.2270000000002 L 281.37899999999996,634.2000000000002 L 280.801,634.4920000000002 L 280.48199999999997,635.1890000000002 L 280.315,635.3870000000002 L 279.914,635.5750000000002 L 279.51,635.6120000000002 L 278.15299999999996,636.2910000000002 L 277.66999999999996,636.3490000000002 L 277.34,636.5300000000002 L 277.018,636.7900000000002 L 276.89399999999995,637.3510000000002 L 276.94399999999996,637.6930000000002 L 276.57699999999994,638.9220000000003 L 276.48599999999993,639.6100000000002 L 276.4839999999999,639.9610000000002 L 276.58899999999994,640.5360000000003 L 276.45399999999995,641.5230000000003 L 276.2099999999999,641.7390000000003 L 275.6069999999999,642.0160000000003 L 275.1969999999999,641.8150000000003 L 274.4949999999999,641.6350000000003 L 273.9949999999999,641.2540000000004 L 273.3519999999999,640.9850000000004 L 273.1459999999999,640.8270000000003 L 272.5779999999999,640.0670000000003 L 272.51699999999994,639.8160000000004 L 272.47599999999994,639.4990000000004 L 272.77599999999995,639.0480000000003 L 272.93699999999995,639.0150000000003 L 273.407,639.0290000000003 L 273.798,638.9560000000004 L 274.048,639.1980000000003 L 274.117,639.7260000000003 L 274.007,640.0080000000004 L 273.907,640.1820000000004 L 273.938,640.3150000000004 L 274.219,640.1300000000005 L 274.36199999999997,638.9480000000004 L 275.31699999999995,638.3620000000004 L 275.62999999999994,638.0200000000004 L 275.93499999999995,637.4940000000005 L 275.98199999999997,637.3440000000005 L 276.005,637.1470000000005 L 275.802,636.9850000000005 L 275.351,636.7700000000004 L 273.919,637.8730000000004 L 273.27,638.1640000000004 L 272.852,638.4810000000004 L 272.346,639.0510000000005 L 272.25,639.2200000000005 L 272.143,639.6000000000005 L 272.092,640.0190000000005 L 271.59299999999996,639.8280000000004 L 270.83099999999996,639.2220000000004 L 270.67799999999994,639.0000000000005 L 270.83099999999996,638.6900000000005 L 271.063,638.4320000000005 L 271.079,637.5690000000004 L 271.13800000000003,637.2670000000004 L 271.29900000000004,637.0260000000004 L 271.591,636.7610000000004 L 271.736,636.6990000000004 L 271.859,636.8140000000004 L 271.875,637.0160000000004 L 272.361,637.0010000000004 L 273.304,636.2400000000005 L 273.69199999999995,636.2220000000004 L 274.20399999999995,636.3920000000004 L 274.7819999999999,636.2890000000004 L 274.8859999999999,636.2120000000004 L 275.0059999999999,636.0340000000004 L 274.57499999999993,635.8250000000005 L 274.1619999999999,635.7190000000005 L 273.0009999999999,635.6460000000005 L 272.74999999999994,635.7270000000005 L 272.40599999999995,636.1280000000005 L 272.292,636.0280000000005 L 272.219,635.8250000000005 L 271.825,635.6820000000005 L 271.63599999999997,635.7110000000005 L 271.455,635.9040000000005 L 271.484,636.2050000000005 L 271.383,636.5270000000005 L 271.018,636.8470000000005 L 270.77,637.3570000000005 L 270.782,637.7550000000006 L 270.762,637.9620000000006 L 270.671,638.0720000000006 L 270.483,638.2040000000005 L 269.878,638.1140000000005 L 269.536,637.6960000000005 L 269.403,637.4110000000005 L 269.016,637.1020000000005 L 269.856,636.7190000000005 L 270.151,636.5010000000005 L 270.421,636.0160000000005 L 270.622,635.7070000000006 L 270.47900000000004,635.4910000000006 L 270.31100000000004,635.4900000000006 L 270.32700000000006,635.8350000000006 L 270.14200000000005,636.1170000000006 L 269.75500000000005,635.9830000000006 L 269.184,636.4020000000006 L 268.833,636.2900000000006 L 268.261,636.4130000000007 L 267.98100000000005,636.1870000000007 L 267.92100000000005,635.9010000000007 L 268.02200000000005,635.6030000000007 L 267.91700000000003,635.0990000000007 L 267.759,634.9770000000008 L 267.598,635.0050000000008 L 267.526,634.7060000000008 L 267.35200000000003,634.1810000000008 L 267.27500000000003,634.0390000000008 L 267.192,633.7960000000007 L 267.278,633.7360000000008 L 267.475,633.8050000000007 L 267.64700000000005,633.9630000000008 L 267.90900000000005,633.9830000000007 L 268.48600000000005,634.3250000000007 L 268.72600000000006,634.2430000000007 L 268.85600000000005,634.1650000000008 L 268.90500000000003,633.8810000000008 L 268.908,633.6120000000008 L 269.007,633.6120000000008 L 269.335,633.9560000000008 L 269.543,633.9240000000008 L 269.911,634.0150000000008 L 270.098,633.9780000000007 L 270.44300000000004,633.8500000000007 L 270.98600000000005,633.4720000000007 L 271.26800000000003,633.0820000000007 L 271.403,633.0290000000007 L 271.57,633.0790000000006 L 271.682,633.1910000000006 L 271.684,633.4620000000006 L 271.81100000000004,633.7140000000005 L 271.98400000000004,633.9190000000006 L 272.03200000000004,634.1710000000005 L 271.997,634.4180000000005 L 271.688,634.7660000000004 L 271.63,634.8870000000004 L 271.734,635.0160000000004 L 271.86199999999997,634.9550000000004 L 272.03799999999995,634.7830000000004 L 272.138,634.5470000000004 L 272.16499999999996,634.4240000000003 L 272.176,634.2480000000003 L 272.163,634.0340000000002 L 271.91200000000003,633.4270000000002 L 271.88000000000005,633.2900000000003 L 271.88000000000005,633.0160000000003 L 272.16600000000005,632.7630000000003 L 272.24700000000007,632.5670000000002 L 272.26000000000005,632.1880000000002 L 272.112,631.9270000000002 L 271.49800000000005,631.3270000000002 L 270.47200000000004,630.7270000000002 L 270.35400000000004,630.7900000000002 L 270.27400000000006,630.8990000000002 L 270.3690000000001,630.9770000000002 L 270.5050000000001,631.0170000000002 L 271.4190000000001,631.5120000000002 L 271.6570000000001,631.7990000000002 L 271.8130000000001,631.8760000000002 L 271.9980000000001,632.0660000000003 L 271.9510000000001,632.3460000000002 L 271.0300000000001,632.6200000000002 L 270.30000000000007,633.2140000000003 L 269.7540000000001,633.5750000000003 L 269.37500000000006,633.4430000000003 L 269.19500000000005,633.0770000000003 L 269.0040000000001,632.6040000000004 L 268.7170000000001,632.3290000000004 L 268.5540000000001,632.3540000000004 L 268.4230000000001,632.3030000000003 L 268.31900000000013,632.1570000000004 L 268.0980000000001,632.2780000000004 L 267.61200000000014,631.9510000000004 L 267.4710000000001,631.8080000000003 L 267.8270000000001,631.3480000000003 L 268.2190000000001,631.5250000000003 L 268.31400000000014,630.2380000000003 L 268.1920000000001,629.9470000000002 L 267.68200000000013,629.6300000000002 L 267.43200000000013,629.6710000000003 L 267.09000000000015,629.6280000000003 L 266.8600000000001,629.4830000000003 L 266.5980000000001,629.4250000000003 L 266.37600000000015,629.3400000000003 L 266.0860000000001,629.1440000000002 L 265.7360000000001,629.0390000000002 L 265.2630000000001,628.2300000000002 L 265.0600000000001,627.8070000000002 L 264.9500000000001,627.3450000000003 L 265.6740000000001,627.3350000000003 L 266.09800000000007,627.2600000000002 L 266.2010000000001,627.0690000000002 L 266.0520000000001,626.7020000000002 L 265.84400000000005,626.4150000000002 L 265.99600000000004,626.1440000000002 L 266.213,625.9350000000003 L 266.439,626.0280000000002 L 266.99600000000004,626.4940000000003 L 267.09200000000004,626.8090000000003 L 267.48800000000006,627.7730000000004 L 267.58400000000006,627.8600000000004 L 267.6310000000001,627.9500000000004 L 268.4500000000001,628.4920000000004 L 268.5650000000001,628.4840000000004 L 268.5140000000001,628.0300000000004 L 268.7500000000001,627.4140000000004 L 268.9790000000001,627.2110000000005 L 269.0940000000001,627.2130000000004 L 269.1060000000001,627.1100000000005 L 268.8830000000001,626.8550000000005 L 268.9920000000001,626.5140000000005 L 268.92100000000005,626.5030000000005 L 268.72400000000005,626.7220000000005 L 268.32800000000003,627.7940000000006 L 268.08500000000004,627.9900000000006 L 267.752,627.5040000000006 L 267.563,627.1530000000006 L 267.46999999999997,627.0290000000006 L 267.503,626.4810000000006 L 268.163,626.5920000000006 L 267.93600000000004,626.4120000000006 L 267.16600000000005,626.0970000000005 L 266.97400000000005,625.9440000000005 L 266.8310000000001,625.8870000000005 L 266.5750000000001,625.5170000000005 L 266.2570000000001,625.2040000000005 L 266.8050000000001,624.6410000000005 L 267.0870000000001,624.2460000000005 L 267.9690000000001,624.4560000000006 L 268.1400000000001,624.3340000000006 L 267.9920000000001,624.0450000000006 L 267.8180000000001,624.1330000000006 L 267.5430000000001,623.9530000000007 L 267.1150000000001,623.4150000000006 L 267.1300000000001,623.1420000000006 L 267.2080000000001,622.6400000000007 L 267.3780000000001,622.5340000000007 L 267.7380000000001,622.4300000000006 L 268.1490000000001,622.5930000000006 L 268.3280000000001,622.7250000000006 L 268.48300000000006,622.6620000000006 L 268.3260000000001,622.2920000000006 L 268.0580000000001,622.1510000000006 L 267.7590000000001,621.8870000000006 L 267.79000000000013,621.5950000000006 L 267.88600000000014,621.3540000000006 L 267.95800000000014,621.0910000000006 L 268.00800000000015,620.7220000000005 L 267.98100000000017,620.4350000000005 L 268.06600000000014,620.3030000000006 L 268.19800000000015,620.2430000000006 L 268.20600000000013,620.1360000000006 L 267.94600000000014,620.1580000000007 L 267.85200000000015,620.5200000000007 L 267.81600000000014,620.8510000000007 L 267.63100000000014,621.1170000000006 L 267.55200000000013,621.4180000000007 L 267.5050000000001,621.7780000000007 L 267.4020000000001,622.1920000000007 L 267.1770000000001,622.0340000000007 L 267.0450000000001,621.8720000000006 L 266.9940000000001,621.7620000000006 L 267.0170000000001,621.5510000000006 L 266.95600000000013,620.2500000000006 L 266.95000000000016,619.1680000000006 L 267.06500000000017,618.3290000000005 L 267.38300000000015,617.9960000000005 L 267.52800000000013,617.8990000000006 L 267.66000000000014,617.9420000000006 L 267.8630000000001,617.9390000000005 L 267.9970000000001,617.8180000000006 L 267.5410000000001,617.6180000000005 L 267.2650000000001,617.7320000000005 L 267.0600000000001,617.8920000000005 L 266.6910000000001,617.7720000000005 L 266.6210000000001,617.3430000000005 L 266.4030000000001,616.9730000000005 L 266.36500000000007,616.5000000000006 L 266.38200000000006,615.8180000000006 L 266.89900000000006,615.8770000000005 L 267.32000000000005,616.0100000000006 L 268.43300000000005,615.9990000000006 L 269.34700000000004,616.6520000000006 L 269.75000000000006,616.5650000000006 L 269.73100000000005,616.4330000000007 L 269.422,616.2680000000007 L 269.23,615.9030000000007 L 269.117,615.7970000000007 L 269.064,615.5780000000007 L 269.04600000000005,615.3220000000007 L 268.8190000000001,614.3860000000006 L 268.72800000000007,614.4100000000007 L 268.6410000000001,614.7300000000007 L 268.45200000000006,615.2650000000007 L 268.18800000000005,615.5260000000006 L 267.78400000000005,615.6310000000007 L 267.38500000000005,615.6910000000006 L 267.03800000000007,615.5880000000006 L 266.95700000000005,615.3660000000007 L 266.96600000000007,615.1090000000007 L 266.8160000000001,614.9830000000007 L 266.4240000000001,614.8730000000007 L 266.3130000000001,614.8100000000007 L 266.1840000000001,614.5790000000007 L 266.3710000000001,614.2280000000007 L 266.5240000000001,614.0190000000008 L 266.7120000000001,614.0610000000008 L 266.8900000000001,614.1560000000009 L 267.1180000000001,614.4300000000009 L 267.3420000000001,614.4830000000009 L 267.5970000000001,614.2640000000008 L 267.6470000000001,614.1160000000008 L 267.4870000000001,614.0230000000008 L 267.34100000000007,613.9860000000008 L 267.1140000000001,613.8700000000008 L 266.66800000000006,613.4510000000008 L 266.8910000000001,613.0260000000009 L 267.4170000000001,612.5400000000009 L 267.5780000000001,612.4290000000009 L 267.4390000000001,612.0200000000009 L 267.5970000000001,611.5740000000009 L 267.4350000000001,611.2070000000009 L 267.14300000000014,610.8120000000009 L 266.74800000000016,610.7250000000009 L 266.66400000000016,610.8400000000009 L 266.65000000000015,611.002000000001 L 266.71300000000014,611.1240000000009 L 266.67600000000016,611.2120000000009 L 266.5860000000002,611.2090000000009 L 266.0850000000002,611.1220000000009 L 265.7490000000002,610.8590000000008 L 265.2010000000002,610.6200000000008 L 265.13000000000017,610.4330000000008 L 265.07000000000016,610.1590000000008 L 265.26200000000017,609.6870000000008 L 265.1650000000002,609.6800000000009 L 264.8090000000002,610.0450000000009 L 264.2710000000002,610.2360000000009 L 263.87500000000017,610.2990000000009 L 263.7010000000002,610.4470000000009 L 263.6320000000002,610.570000000001 L 263.7370000000002,610.642000000001 L 263.9660000000002,610.660000000001 L 264.13300000000015,611.118000000001 L 264.0910000000002,611.294000000001 L 264.0090000000002,611.4120000000011 L 263.8230000000002,611.4350000000011 L 263.4340000000002,611.119000000001 L 263.2290000000002,610.760000000001 L 263.2340000000002,610.476000000001 L 263.3730000000002,610.0890000000011 L 263.99000000000024,609.5700000000011 L 264.16100000000023,609.351000000001 L 264.52300000000025,609.1090000000011 L 265.00600000000026,608.563000000001 L 265.4280000000003,608.260000000001 L 265.2230000000003,608.010000000001 L 265.0070000000003,607.634000000001 L 265.0290000000003,607.1130000000011 L 265.88100000000026,606.9070000000011 L 266.25,607.0 L 266.721,606.984 L 266.984,606.86 L 267.17499999999995,606.833 L 267.57699999999994,606.6899999999999 L 267.74999999999994,606.4879999999999 L 267.79099999999994,606.334 L 267.78899999999993,606.1999999999999 L 267.7419999999999,606.0339999999999 L 267.6769999999999,605.6059999999999 L 267.7429999999999,605.4629999999999 L 267.9149999999999,605.2929999999999 L 268.1409999999999,605.2399999999999 L 268.2449999999999,605.2529999999999 L 268.51299999999986,605.4089999999999 L 268.4589999999999,605.6309999999999 L 268.35199999999986,605.8979999999999 L 268.13299999999987,606.963 L 268.02299999999985,607.204 L 267.84999999999985,607.4129999999999 L 267.96499999999986,607.8499999999999 L 267.79199999999986,608.1569999999999 L 267.01999999999987,608.4839999999999 L 266.9179999999999,608.5029999999999 L 266.9759999999999,608.6199999999999 L 267.4229999999999,608.5919999999999 L 267.7689999999999,608.5229999999999 L 268.1119999999999,608.247 L 268.2199999999999,607.827 L 268.3619999999999,607.01 L 268.5479999999999,606.895 L 268.7649999999999,606.869 L 268.8779999999999,607.061 L 268.8409999999999,607.4920000000001 L 268.8399999999999,607.9090000000001 L 268.5519999999999,609.1500000000001 L 268.2039999999999,609.6500000000001 L 268.1649999999999,609.782 L 268.1789999999999,609.938 L 268.4549999999999,609.915 L 268.6649999999999,609.646 L 268.8169999999999,609.3019999999999 L 268.9689999999999,608.824 L 268.9519999999999,608.4789999999999 L 268.9979999999999,608.266 L 269.06099999999986,607.569 L 269.1659999999999,607.217 L 269.1589999999999,606.726 L 268.9689999999999,606.541 L 268.70299999999986,606.4290000000001 L 268.63599999999985,606.1290000000001 L 268.77499999999986,605.5380000000001 L 269.28299999999984,605.5530000000001 L 269.76399999999984,605.1510000000001 L 270.07899999999984,605.0050000000001 L 270.2579999999998,605.0350000000001 L 270.88699999999983,605.4230000000001 L 271.01199999999983,605.4280000000001 L 270.99199999999985,605.2880000000001 L 270.89399999999983,605.1890000000001 L 270.64599999999984,605.0580000000001 L 270.1899999999998,604.642 L 269.57599999999985,604.5740000000001 L 269.68899999999985,604.0350000000001 L 269.8079999999999,603.5440000000001 L 270.1059999999999,603.4760000000001 L 270.6059999999999,603.3150000000002 L 271.55899999999986,602.5810000000001 L 271.72499999999985,602.0300000000001 L 271.76999999999987,601.412 L 271.31099999999986,601.2510000000001 L 270.82399999999984,600.8480000000001 L 270.43099999999987,600.634 L 270.08299999999986,600.365 L 270.15099999999984,599.964 L 270.19599999999986,599.312 L 270.63299999999987,599.172 L 270.83599999999984,598.28 L 270.54299999999984,597.5989999999999 L 270.61299999999983,597.093 L 270.99499999999983,596.6619999999999 L 271.0629999999998,596.3639999999999 L 271.16799999999984,596.0369999999999 L 271.50399999999985,596.0039999999999 L 271.51199999999983,595.8259999999999 L 271.48199999999986,595.502 L 271.26099999999985,595.12 L 271.25199999999984,594.592 L 271.45999999999987,593.9689999999999 L 271.79399999999987,594.012 L 271.8579999999999,593.986 L 271.62099999999987,593.61 L 271.4279999999999,593.197 L 271.4609999999999,593.032 L 271.6459999999999,592.892 L 271.8599999999999,592.8140000000001 L 272.0919999999999,593.0250000000001 L 272.4239999999999,593.6990000000001 L 272.47399999999993,593.5260000000001 L 272.3399999999999,592.84 L 272.2299999999999,591.989 L 271.8799999999999,592.1 L 271.55899999999986,592.0400000000001 L 271.4379999999999,591.9090000000001 L 271.31799999999987,591.7180000000001 L 271.43099999999987,591.4850000000001 L 271.54399999999987,591.3120000000001 L 271.7789999999999,591.0940000000002 L 272.2669999999999,591.0170000000002 L 272.6199999999999,590.7440000000001 L 272.7379999999999,590.1830000000001 L 272.6219999999999,590.238 L 272.4309999999999,590.7320000000001 L 272.1089999999999,590.8990000000001 L 271.94499999999994,590.8740000000001 L 271.75199999999995,590.7820000000002 L 271.37199999999996,590.3520000000002 L 271.162,590.2520000000002 L 270.95799999999997,590.2410000000002 L 270.78299999999996,590.3500000000003 L 270.33699999999993,591.1080000000003 L 270.14699999999993,591.2360000000003 L 269.3619999999999,591.2970000000004 L 269.0739999999999,591.2090000000004 L 268.7619999999999,591.0920000000004 L 268.7999999999999,590.9050000000004 L 268.8949999999999,590.7060000000005 L 269.07199999999995,590.6030000000005 L 269.07499999999993,590.4890000000005 L 268.8309999999999,590.4600000000005 L 268.5499999999999,590.2510000000005 L 268.4249999999999,589.9860000000006 L 268.3659999999999,589.5120000000005 L 268.11399999999986,588.7650000000006 L 268.06399999999985,588.2310000000006 L 268.24199999999985,587.8510000000006 L 268.62399999999985,586.3650000000006 L 268.7409999999999,585.6110000000006 L 268.94599999999986,584.9500000000006 L 268.94199999999984,584.5150000000007 L 269.4719999999998,584.1180000000006 L 269.6739999999998,583.8810000000007 L 270.1239999999998,582.5500000000006 L 270.18999999999977,581.8350000000006 L 269.4759999999998,579.6780000000006 L 269.36599999999976,579.2680000000006 L 269.33099999999973,578.7590000000006 L 269.50099999999975,577.9170000000006 L 269.52099999999973,577.5980000000006 L 269.3749999999997,577.1380000000006 L 268.96799999999973,576.3880000000006 L 268.95999999999975,576.0060000000007 L 269.13099999999974,575.6140000000006 L 268.96499999999975,575.1280000000006 L 269.04599999999976,574.8280000000007 L 269.13499999999976,574.5930000000006 L 269.77299999999974,574.7190000000006 L 270.06299999999976,574.6590000000007 L 270.21799999999973,574.5170000000006 L 270.3389999999997,574.1200000000006 L 270.3999999999997,573.5000000000006 L 270.4379999999997,573.2330000000005 L 270.4929999999997,572.8440000000005 L 270.8059999999997,572.6880000000006 L 270.9139999999997,572.3200000000005 L 271.1759999999997,571.8080000000006 L 271.4459999999997,570.3820000000005 L 271.7129999999997,570.0310000000005 L 271.98299999999966,569.6270000000005 L 271.87999999999965,569.0290000000006 L 272.05399999999963,568.7530000000006 L 272.21399999999966,568.5520000000006 L 272.3549999999997,568.1880000000006 L 272.5469999999997,567.8440000000005 L 273.0039999999997,567.3510000000005 L 273.11999999999966,566.7500000000005 L 273.4749999999997,565.7150000000005 L 273.5449999999997,565.0530000000005 L 273.6549999999997,564.6060000000004 L 273.6229999999997,564.1900000000004 L 273.83599999999973,563.6850000000004 L 274.0409999999997,563.2600000000004 L 274.10499999999973,563.0240000000005 L 274.5719999999997,562.4640000000005 L 274.6509999999997,562.0170000000005 L 274.48399999999975,561.7140000000005 L 274.48099999999977,561.2460000000005 L 274.3509999999998,560.5990000000005 L 274.65199999999976,560.3570000000005 L 274.7739999999998,560.1800000000005 L 275.16599999999977,559.1500000000005 L 275.1409999999998,558.7470000000005 L 275.2539999999998,558.2470000000005 L 274.9959999999998,557.6560000000005 L 274.9599999999998,556.3320000000006 L 274.8159999999998,555.3170000000006 L 274.5779999999998,554.2480000000006 L 274.5999999999998,553.6520000000006 L 274.4549999999998,552.9120000000006 L 274.4459999999998,552.4860000000006 L 274.5569999999998,551.5220000000005 L 275.3119999999998,550.9170000000005 L 275.4589999999998,550.2400000000005 L 275.54899999999975,549.3280000000004 L 275.51799999999974,548.6650000000004 L 275.44399999999973,548.3680000000004 L 275.0719999999997,547.8810000000004 L 274.9779999999997,547.0120000000004 L 275.0499999999997,546.7850000000004 L 275.3579999999997,546.5410000000004 L 275.5749999999997,546.2030000000004 L 275.6869999999997,545.6790000000004 L 275.9129999999997,545.2670000000004 L 276.0019999999997,544.2730000000004 L 276.1929999999997,543.4840000000004 L 276.2879999999997,543.2090000000004 L 276.58799999999974,542.8640000000004 L 276.6439999999997,542.7720000000004 L 276.6899999999997,542.5090000000004 L 276.6759999999997,541.8890000000004 L 276.7219999999997,541.5110000000003 L 276.9609999999997,540.7680000000003 L 276.9889999999997,540.4250000000003 L 277.2539999999997,539.6630000000004 L 277.3139999999997,539.1160000000003 L 277.4269999999997,538.8280000000003 L 277.3829999999997,538.5040000000004 L 277.4579999999997,537.7800000000003 L 277.2779999999997,537.3720000000003 L 277.23799999999966,537.1340000000002 L 277.46499999999963,536.3950000000002 L 277.61899999999963,536.2150000000003 L 277.86799999999965,535.8720000000003 L 277.9729999999997,535.4870000000003 L 277.9919999999997,535.2430000000003 L 277.6739999999997,534.0300000000003 L 277.6309999999997,533.6170000000003 L 277.70899999999966,532.6580000000004 L 277.81799999999964,532.0400000000003 L 277.78199999999964,531.5480000000003 L 277.81799999999964,531.2950000000003 L 277.87299999999965,530.9780000000003 L 278.09099999999967,530.5940000000003 L 278.1409999999997,530.3210000000003 L 278.0639999999997,530.2070000000002 L 277.80499999999967,530.0680000000002 L 277.59099999999967,529.7200000000003 L 277.5759999999997,529.3770000000003 L 277.6449999999997,529.1270000000003 L 277.6609999999997,528.7740000000003 L 277.9789999999997,528.7050000000004 L 278.1489999999997,528.5090000000004 L 278.3099999999997,528.1430000000004 L 278.5129999999997,527.2580000000004 L 278.5999999999997,526.1630000000004 L 278.72099999999966,525.5050000000003 L 278.80599999999964,525.1800000000003 L 278.87799999999964,524.5020000000003 L 278.99599999999964,524.0590000000003 L 279.01699999999965,523.6510000000003 L 278.99399999999963,523.3400000000003 L 278.6889999999996,521.7630000000003 L 278.6989999999996,521.1840000000003 L 278.82799999999963,520.2870000000003 L 278.8259999999996,519.0260000000003 L 278.7999999999996,518.7320000000003 L 278.6849999999996,518.4570000000003 L 278.6509999999996,518.0830000000003 L 278.4669999999996,517.4350000000003 L 278.3009999999996,516.1360000000003 L 278.2979999999996,515.4510000000004 L 278.2259999999996,514.8710000000003 L 278.0669999999996,514.7170000000003 L 278.1809999999996,514.6820000000004 L 278.4479999999996,514.6580000000004 L 278.7239999999996,514.6570000000004 L 279.0739999999996,514.5340000000003 L 279.4469999999996,514.3060000000004 L 279.6899999999996,513.9750000000004 L 279.7939999999996,513.6730000000003 L 279.7939999999996,513.4080000000004 L 279.6849999999996,513.0710000000004 L 279.65499999999963,512.8330000000003 L 279.78399999999965,512.7190000000003 L 280.12499999999966,512.6750000000003 L 280.40099999999967,512.4500000000003 L 280.61299999999966,512.2540000000002 L 280.65699999999964,512.5860000000002 L 281.04199999999963,513.0320000000003 L 281.16699999999963,513.5340000000002 L 281.2539999999996,513.5970000000002 L 281.7829999999996,513.8480000000002 L 281.79199999999963,513.9070000000002 L 281.71499999999963,514.0010000000002 L 281.63799999999964,514.1230000000002 L 281.6919999999996,514.2940000000002 L 281.7879999999996,514.5290000000002 L 281.8199999999996,514.7470000000002 L 281.8789999999996,514.9720000000002 L 281.9369999999996,515.3170000000002 L 281.97199999999964,515.6300000000002 L 282.10699999999963,516.0910000000002 L 282.1339999999996,516.3760000000002 L 282.1359999999996,516.5480000000002 L 282.24099999999964,516.7160000000002 L 282.44599999999963,516.9180000000002 L 282.7229999999996,517.1210000000002 L 282.94299999999964,517.3580000000002 L 283.11099999999965,517.5190000000001 L 283.31499999999966,517.6500000000001 L 283.47199999999964,517.7710000000001 L 283.53399999999965,517.854 L 283.55499999999967,517.921 L 283.4869999999997,517.985 L 283.2389999999997,518.298 L 282.8929999999997,518.775 L 282.89899999999966,518.833 L 283.2299999999997,519.1759999999999 L 283.2829999999997,519.3119999999999 L 283.27899999999966,519.5039999999999 L 283.16799999999967,519.7349999999999 L 282.81099999999964,519.8079999999999 L 282.73099999999965,519.8709999999999 L 282.72099999999966,519.9449999999998 L 282.80299999999966,520.0429999999998 L 282.7899999999997,520.2709999999997 L 282.9189999999997,520.5229999999997 L 282.8529999999997,520.6089999999997 L 282.7209999999997,520.7249999999997 L 282.71799999999973,520.8389999999997 L 282.76099999999974,520.9649999999997 L 282.89999999999975,521.0679999999996 L 283.44999999999976,521.4219999999997 L 283.49299999999977,521.4709999999997 L 283.4849999999998,521.5079999999997 L 283.27199999999976,521.7449999999997 L 283.2499999999998,521.8909999999996 L 283.25599999999974,522.1319999999996 L 283.2859999999997,522.2879999999996 L 283.35499999999973,522.3529999999996 L 283.63099999999974,522.4259999999996 L 283.97199999999975,522.9679999999996 L 284.2999999999997,523.4789999999996 L 284.2959999999997,523.9189999999996 L 284.3299999999997,524.4329999999997 L 284.5379999999997,524.8369999999996 L 284.5669999999997,525.1599999999996 L 284.6369999999997,525.5279999999997 L 284.8849999999997,525.7519999999997 L 284.9819999999997,526.1939999999997 L 285.00699999999966,526.4299999999997 L 284.9919999999997,526.5849999999997 L 285.18499999999966,527.0669999999997 L 285.20699999999965,527.4819999999996 L 285.16099999999966,527.7799999999996 L 285.16299999999967,527.9469999999997 L 285.18999999999966,528.0639999999996 L 285.35599999999965,528.1689999999996 L 285.42899999999963,528.2349999999997 L 285.67299999999966,528.2639999999997 L 286.0299999999997,528.2709999999996 L 286.6409999999997,528.1609999999996 L 287.118,528.065 M 169.007,541.368 L 168.574,541.465 L 168.58800000000002,541.292 L 168.69700000000003,541.142 L 169.01700000000002,541.2280000000001 L 169.16700000000003,541.244 L 169.007,541.368 M 254.537,562.45 L 254.03400000000002,562.522 L 254.01700000000002,562.5010000000001 L 254.04600000000002,562.4420000000001 L 254.16100000000003,562.3390000000002 L 254.30100000000002,562.2140000000002 L 254.33100000000002,562.2100000000002 L 254.383,562.2200000000001 L 254.441,562.2430000000002 L 254.591,562.3270000000001 L 254.63500000000002,562.3850000000001 L 254.61900000000003,562.4330000000001 L 254.537,562.45 M 268.655,597.183 L 268.44399999999996,597.264 L 268.24699999999996,597.284 L 268.04699999999997,597.225 L 267.69699999999995,597.23 L 267.34899999999993,597.08 L 267.02199999999993,596.868 L 266.9309999999999,596.745 L 266.97099999999995,596.569 L 267.20599999999996,596.1619999999999 L 267.42999999999995,595.3939999999999 L 267.57899999999995,594.2969999999999 L 267.45899999999995,593.882 L 267.47399999999993,593.7109999999999 L 267.52899999999994,593.5039999999999 L 267.5559999999999,593.2919999999999 L 267.53899999999993,593.0779999999999 L 267.56699999999995,592.8799999999999 L 267.81399999999996,592.4629999999999 L 267.85099999999994,592.2759999999998 L 267.85799999999995,592.0729999999999 L 267.965,591.6539999999999 L 267.93199999999996,591.5149999999999 L 267.84099999999995,591.3979999999999 L 267.91499999999996,591.295 L 268.77299999999997,591.602 L 269.34299999999996,591.673 L 269.37299999999993,591.991 L 269.48299999999995,592.241 L 269.54799999999994,592.689 L 269.63699999999994,592.7909999999999 L 269.59099999999995,593.112 L 269.328,593.251 L 269.351,593.547 L 269.502,593.826 L 269.282,593.926 L 269.044,593.986 L 268.989,594.064 L 268.81699999999995,594.125 L 268.60799999999995,594.28 L 268.67099999999994,594.418 L 268.9339999999999,594.731 L 269.2279999999999,594.949 L 269.3889999999999,595.275 L 269.5979999999999,595.616 L 269.4959999999999,595.833 L 269.30499999999995,596.141 L 268.99999999999994,596.346 L 268.71899999999994,596.469 L 268.75199999999995,596.976 L 268.655,597.183 M 266.143,598.192 L 265.746,598.26 L 265.656,598.145 L 265.657,598.047 L 265.72499999999997,597.967 L 265.929,597.914 L 266.06199999999995,597.98 L 266.13199999999995,598.0740000000001 L 266.15399999999994,598.1600000000001 L 266.143,598.192 M 268.551,599.041 L 268.61,599.2320000000001 L 268.486,599.258 L 268.288,599.2280000000001 L 268.192,599.379 L 268.14300000000003,599.409 L 267.68800000000005,599.275 L 267.617,599.215 L 267.62600000000003,599.0160000000001 L 268.11100000000005,598.999 L 268.4200000000001,598.8720000000001 L 268.4630000000001,598.892 L 268.551,599.041 M 268.762,601.251 L 268.624,601.419 L 268.406,601.449 L 268.067,601.644 L 268.031,601.813 L 268.014,602.021 L 268.248,602.2719999999999 L 268.364,602.564 L 268.503,603.002 L 268.604,603.42 L 268.59499999999997,603.549 L 268.61999999999995,603.7669999999999 L 268.7869999999999,604.1049999999999 L 268.80299999999994,604.2579999999999 L 268.78399999999993,604.41 L 268.7169999999999,604.692 L 268.66399999999993,604.73 L 268.4989999999999,604.758 L 268.48599999999993,604.9290000000001 L 268.44499999999994,604.9850000000001 L 267.9749999999999,605.0030000000002 L 267.7429999999999,604.9250000000002 L 267.7709999999999,604.4100000000002 L 267.4739999999999,604.2080000000002 L 267.26999999999987,603.8680000000002 L 267.03999999999985,603.2820000000002 L 266.84699999999987,603.1020000000002 L 266.62199999999984,602.6400000000002 L 266.28799999999984,602.2460000000002 L 266.67299999999983,601.9960000000002 L 266.61299999999983,601.5600000000002 L 266.83799999999985,601.4110000000002 L 267.1759999999999,601.2550000000002 L 267.4249999999999,601.3780000000003 L 267.6489999999999,601.3350000000003 L 267.7489999999999,601.2310000000002 L 267.71899999999994,600.7870000000003 L 267.78999999999996,600.4380000000002 L 268.037,600.2580000000003 L 268.303,600.2370000000003 L 268.403,600.4340000000003 L 268.534,600.6280000000003 L 268.856,600.7810000000003 L 268.855,600.9810000000003 L 268.762,601.251 M 270.865,602.765 L 270.185,603.08 L 269.844,602.974 L 269.712,602.7420000000001 L 269.64799999999997,602.547 L 269.578,602.217 L 269.69399999999996,602.04 L 269.94399999999996,601.786 L 270.03599999999994,601.622 L 270.08099999999996,601.429 L 270.06499999999994,601.249 L 270.0969999999999,601.077 L 270.2439999999999,601.017 L 270.7469999999999,601.2090000000001 L 271.2689999999999,601.4970000000001 L 271.45499999999987,601.696 L 271.4899999999999,601.855 L 271.2619999999999,602.206 L 271.1159999999999,602.495 L 270.865,602.765 M 269.052,602.928 L 268.96000000000004,602.973 L 268.877,602.966 L 268.79200000000003,602.831 L 268.764,602.653 L 268.581,602.3870000000001 L 268.529,602.2620000000001 L 268.533,602.1120000000001 L 268.63800000000003,601.897 L 268.79400000000004,601.8380000000001 L 268.89900000000006,601.8460000000001 L 269.02600000000007,602.0990000000002 L 269.06300000000005,602.3740000000001 L 269.09600000000006,602.6580000000001 L 269.052,602.928 M 265.094,603.199 L 265.024,603.2629999999999 L 264.937,603.2439999999999 L 264.865,603.1189999999999 L 264.815,602.9049999999999 L 264.913,602.8239999999998 L 264.991,602.8239999999998 L 265.078,602.9379999999999 L 265.123,603.1219999999998 L 265.094,603.199 M 267.142,606.385 L 266.986,606.563 L 266.714,606.648 L 266.444,606.509 L 266.118,606.5740000000001 L 266.084,606.2690000000001 L 266.206,606.0190000000001 L 266.45300000000003,605.7220000000001 L 266.632,605.325 L 266.611,604.7650000000001 L 266.758,604.6370000000001 L 266.837,604.44 L 267.15,604.3190000000001 L 267.221,604.7350000000001 L 267.137,605.4790000000002 L 267.348,605.9190000000002 L 267.378,606.0660000000003 L 267.337,606.2350000000002 L 267.142,606.385 M 264.898,615.152 L 264.69100000000003,615.206 L 264.66700000000003,615.07 L 264.48,614.844 L 264.64300000000003,614.695 L 264.961,614.5400000000001 L 265.202,614.5580000000001 L 265.419,614.6760000000002 L 265.448,614.8150000000002 L 265.06899999999996,614.9980000000002 L 264.97599999999994,615.0990000000002 L 264.898,615.152 M 266.427,618.32 L 266.374,618.421 L 266.028,618.359 L 265.42900000000003,618.465 L 265.177,618.081 L 265.067,617.472 L 264.992,617.347 L 264.843,617.0 L 264.76800000000003,616.773 L 264.61600000000004,616.421 L 264.557,616.052 L 264.519,615.941 L 264.656,615.722 L 265.283,615.506 L 265.50600000000003,615.1569999999999 L 265.697,615.203 L 265.644,615.915 L 265.759,616.155 L 265.97200000000004,616.355 L 266.01200000000006,616.437 L 266.04800000000006,616.69 L 266.1550000000001,617.0830000000001 L 266.29300000000006,617.268 L 266.32900000000006,617.3820000000001 L 266.33500000000004,617.479 L 266.285,617.614 L 266.427,618.32 M 263.781,619.047 L 263.46500000000003,619.052 L 263.386,618.296 L 263.75800000000004,617.21 L 263.78400000000005,616.797 L 263.65900000000005,616.486 L 263.60800000000006,616.231 L 263.63900000000007,616.127 L 264.1140000000001,615.9119999999999 L 264.2620000000001,616.1399999999999 L 264.43900000000014,616.7449999999999 L 264.77500000000015,617.6149999999999 L 264.76700000000017,618.4499999999999 L 264.58000000000015,618.656 L 263.99400000000014,618.867 L 263.781,619.047 M 266.683,620.685 L 266.709,621.314 L 266.662,621.947 L 266.554,622.727 L 266.57199999999995,622.886 L 266.6979999999999,622.924 L 266.7319999999999,623.0219999999999 L 266.69499999999994,623.434 L 266.62799999999993,623.751 L 266.49699999999996,624.011 L 266.42099999999994,624.323 L 266.35099999999994,624.3919999999999 L 266.04599999999994,624.4469999999999 L 265.87899999999996,624.4129999999999 L 265.74499999999995,624.0579999999999 L 265.70599999999996,623.8399999999999 L 265.71399999999994,623.555 L 265.5489999999999,623.173 L 265.5439999999999,623.027 L 265.60799999999995,622.7760000000001 L 265.74099999999993,622.652 L 265.7609999999999,622.2660000000001 L 265.8279999999999,622.1510000000001 L 265.9789999999999,621.9920000000001 L 266.00199999999995,621.927 L 265.98799999999994,621.87 L 265.93199999999996,621.864 L 265.32499999999993,622.34 L 265.2659999999999,622.475 L 265.2389999999999,622.654 L 265.2319999999999,623.286 L 265.1249999999999,623.6519999999999 L 265.0279999999999,623.722 L 264.7449999999999,623.7379999999999 L 264.37099999999987,623.7009999999999 L 263.9469999999999,623.3649999999999 L 263.6699999999999,623.4579999999999 L 263.6129999999999,623.0499999999998 L 263.7519999999999,622.7239999999998 L 264.2679999999999,622.7519999999998 L 264.3549999999999,622.1729999999999 L 264.1909999999999,622.0369999999999 L 264.0089999999999,621.805 L 263.9009999999999,621.592 L 263.9979999999999,621.434 L 264.29699999999985,621.2049999999999 L 264.4569999999999,621.1809999999999 L 264.6049999999999,621.309 L 264.9719999999999,621.212 L 264.9509999999999,620.8489999999999 L 264.6239999999999,620.689 L 264.6969999999999,620.414 L 265.1099999999999,620.151 L 265.3569999999999,619.886 L 265.36799999999994,619.5849999999999 L 265.2679999999999,619.285 L 265.2989999999999,619.168 L 265.50499999999994,618.921 L 265.79299999999995,618.802 L 265.9239999999999,618.8190000000001 L 266.1909999999999,618.993 L 266.4289999999999,619.014 L 266.4869999999999,619.066 L 266.5299999999999,619.259 L 266.683,620.685 M 264.914,619.357 L 264.89099999999996,619.6949999999999 L 264.47599999999994,620.347 L 264.1189999999999,620.733 L 263.7929999999999,621.039 L 263.58499999999987,621.036 L 263.4139999999999,620.8889999999999 L 263.6059999999999,620.6469999999999 L 263.84499999999986,620.406 L 263.76899999999983,620.0939999999999 L 263.69699999999983,620.0039999999999 L 263.59599999999983,619.9709999999999 L 263.42299999999983,619.8089999999999 L 263.47599999999983,619.5679999999999 L 263.5769999999998,619.4529999999999 L 263.71099999999984,619.3649999999999 L 263.83599999999984,619.4169999999999 L 264.3779999999998,619.2479999999999 L 264.5489999999998,619.111 L 264.8789999999998,619.088 L 264.914,619.357 M 265.059,625.655 L 264.51000000000005,626.007 L 264.34900000000005,625.861 L 263.95300000000003,625.8629999999999 L 264.057,625.482 L 264.09700000000004,625.203 L 264.15700000000004,625.095 L 264.17900000000003,624.854 L 264.29800000000006,624.4150000000001 L 264.62600000000003,624.561 L 264.87100000000004,624.604 L 265.20300000000003,624.75 L 265.56300000000005,624.843 L 265.66800000000006,625.2249999999999 L 265.31800000000004,625.3999999999999 L 265.059,625.655 M 264.365,627.345 L 264.285,627.753 L 264.05800000000005,627.7180000000001 L 263.982,627.614 L 263.942,627.355 L 263.872,627.23 L 263.97,626.971 L 264.03400000000005,626.684 L 264.01200000000006,626.4639999999999 L 264.36000000000007,626.4799999999999 L 264.77400000000006,626.5369999999999 L 264.88900000000007,626.5969999999999 L 264.76200000000006,626.7909999999998 L 264.6410000000001,626.9059999999998 L 264.3910000000001,626.9769999999999 L 264.365,627.345 M 266.452,629.999 L 266.446,630.374 L 266.357,630.494 L 266.27900000000005,630.53 L 266.08200000000005,630.4159999999999 L 265.96900000000005,630.4029999999999 L 265.78200000000004,630.6019999999999 L 265.62500000000006,630.7029999999999 L 265.3910000000001,630.6769999999999 L 265.0800000000001,630.5419999999999 L 264.8030000000001,631.108 L 264.6730000000001,631.298 L 264.4020000000001,631.563 L 264.3720000000001,631.252 L 264.54400000000015,630.789 L 264.62400000000014,630.4739999999999 L 264.78200000000015,630.006 L 265.10000000000014,630.182 L 265.54600000000016,630.009 L 265.95200000000017,629.688 L 266.30300000000017,629.686 L 266.4180000000002,629.8570000000001 L 266.452,629.999 M 265.71,631.585 L 265.83,632.464 L 265.916,632.5870000000001 L 266.202,632.6520000000002 L 266.513,633.1000000000001 L 266.527,633.2230000000002 L 266.151,633.9880000000002 L 266.071,634.5330000000001 L 265.63000000000005,634.4940000000001 L 265.44500000000005,633.9530000000001 L 265.16600000000005,633.4320000000001 L 265.07200000000006,632.8240000000002 L 264.91900000000004,632.3030000000002 L 265.19200000000006,632.0090000000002 L 265.4530000000001,632.0740000000003 L 265.4680000000001,631.6760000000003 L 265.71,631.585 M 267.621,632.946 L 267.537,632.996 L 267.22499999999997,632.891 L 267.06899999999996,632.7959999999999 L 266.83099999999996,632.5569999999999 L 266.79299999999995,632.31 L 266.6859999999999,632.0169999999999 L 266.75499999999994,632.0129999999999 L 267.00399999999996,632.1289999999999 L 267.10599999999994,632.218 L 267.24199999999996,632.406 L 267.645,632.675 L 267.69599999999997,632.7539999999999 L 267.686,632.8569999999999 L 267.621,632.946 M 283.09,636.249 L 283.085,637.624 L 283.08,638.9870000000001 L 283.07599999999996,640.2700000000001 L 283.07199999999995,641.5620000000001 L 283.0679999999999,642.8180000000001 L 283.0639999999999,644.1150000000001 L 283.0419999999999,645.5790000000002 L 283.0259999999999,646.6750000000002 L 282.60399999999987,646.6750000000002 L 282.4929999999999,646.7870000000001 L 281.8249999999999,646.9480000000001 L 280.68899999999985,646.7 L 280.40499999999986,646.476 L 280.0239999999999,645.987 L 279.88799999999986,646.1189999999999 L 279.52999999999986,646.3259999999999 L 279.16199999999986,646.4899999999999 L 278.85999999999984,646.5079999999999 L 278.57999999999987,646.305 L 278.51999999999987,646.202 L 278.45599999999985,646.18 L 277.85199999999986,646.4609999999999 L 277.18399999999986,646.1739999999999 L 276.6519999999999,645.9989999999999 L 275.79699999999985,645.8999999999999 L 275.20299999999986,645.5399999999998 L 274.10699999999986,645.5709999999998 L 273.90999999999985,645.4519999999998 L 273.8369999999999,645.0999999999998 L 273.89499999999987,644.9369999999998 L 274.12899999999985,644.8379999999997 L 274.19399999999985,644.6429999999997 L 274.43099999999987,644.6899999999997 L 274.7379999999999,644.9479999999998 L 274.8319999999999,644.9389999999997 L 275.03499999999985,644.6959999999997 L 275.33499999999987,644.4809999999997 L 275.4419999999999,644.4589999999996 L 275.9929999999999,644.7239999999996 L 276.21499999999986,644.6939999999996 L 276.53299999999984,644.5749999999996 L 276.58999999999986,644.4709999999995 L 276.64099999999985,644.2889999999995 L 276.72499999999985,644.1829999999995 L 277.00799999999987,644.1309999999995 L 277.2839999999999,644.2349999999996 L 277.31599999999986,644.5519999999996 L 277.27799999999985,644.8919999999996 L 277.63699999999983,644.9839999999996 L 278.0729999999998,644.9729999999996 L 278.3729999999998,645.0999999999996 L 278.41099999999983,644.8929999999996 L 277.93199999999985,644.3519999999995 L 277.7309999999998,644.0169999999995 L 277.46099999999984,643.8199999999995 L 277.11399999999986,643.7189999999995 L 276.82399999999984,643.0929999999995 L 276.8419999999998,642.5459999999995 L 276.8109999999998,642.0149999999995 L 277.4369999999998,641.7239999999995 L 277.2929999999998,641.2719999999995 L 277.5089999999998,640.9299999999995 L 277.75499999999977,640.7989999999995 L 278.00299999999976,642.0589999999995 L 278.18099999999976,642.5029999999995 L 277.9539999999998,642.5929999999995 L 277.47899999999976,642.5919999999995 L 277.74399999999974,643.2149999999996 L 278.1799999999997,643.4289999999996 L 278.5549999999997,643.8919999999996 L 278.5629999999997,644.2289999999996 L 278.77099999999973,644.3809999999996 L 279.27299999999974,644.3909999999996 L 279.61899999999974,644.3249999999996 L 279.78199999999975,644.0999999999996 L 279.96999999999974,644.0289999999995 L 280.30699999999973,644.3079999999995 L 280.8749999999997,644.5149999999995 L 281.02799999999974,644.6609999999995 L 281.1389999999997,644.9049999999995 L 281.14599999999973,645.1679999999996 L 281.1749999999997,645.3079999999995 L 281.33999999999975,645.2399999999996 L 281.57599999999974,644.8829999999996 L 281.6919999999997,644.7589999999996 L 281.8339999999997,644.6979999999995 L 281.9239999999997,644.6179999999995 L 281.9269999999997,644.5139999999994 L 281.50199999999967,644.2619999999995 L 279.2779999999997,643.0869999999995 L 279.00499999999965,642.6199999999995 L 278.82099999999963,642.0339999999995 L 278.8269999999996,641.4309999999996 L 278.9889999999996,641.2449999999995 L 279.38599999999957,641.0079999999996 L 280.11499999999955,640.6739999999996 L 280.95599999999956,640.1949999999996 L 281.0609999999996,640.1029999999996 L 281.0509999999996,639.8039999999996 L 280.9459999999996,639.6029999999996 L 280.61199999999957,639.4559999999996 L 280.2629999999996,639.4189999999995 L 279.92999999999955,639.4339999999995 L 279.5969999999995,639.4969999999995 L 278.9899999999995,639.8139999999995 L 278.6459999999995,639.7939999999995 L 278.3189999999995,639.6229999999995 L 278.0769999999995,639.2809999999995 L 277.9519999999995,638.8199999999995 L 277.95299999999946,638.5259999999995 L 277.99899999999946,638.2559999999995 L 278.1469999999995,637.9809999999995 L 278.3459999999995,637.8609999999995 L 278.5239999999995,637.8769999999995 L 278.6919999999995,637.8129999999995 L 278.7919999999995,637.7189999999995 L 278.8769999999995,637.5929999999995 L 278.8519999999995,637.4839999999995 L 278.7869999999995,637.3899999999994 L 278.5159999999995,637.1959999999995 L 278.4089999999995,637.0089999999994 L 278.17699999999945,636.7079999999994 L 278.30399999999946,636.6239999999995 L 278.7119999999995,636.5769999999994 L 278.9969999999995,636.7839999999994 L 279.2629999999995,637.0289999999994 L 279.42599999999953,637.0279999999995 L 279.57199999999955,636.9249999999995 L 279.90799999999956,636.6119999999995 L 280.18899999999957,636.2189999999995 L 280.44499999999954,635.7729999999995 L 280.65199999999953,635.5059999999994 L 280.8879999999995,635.4819999999994 L 281.5809999999995,636.3179999999994 L 281.8259999999995,636.3489999999994 L 282.63999999999953,635.8989999999993 L 282.73099999999954,635.9229999999993 L 283.00699999999955,636.1509999999993 L 283.09,636.249 M 266.937,637.498 L 266.983,637.5400000000001 L 267.094,637.5300000000001 L 267.24899999999997,637.6050000000001 L 267.835,637.6970000000001 L 268.359,637.9150000000001 L 268.632,638.1200000000001 L 268.991,638.1830000000001 L 269.28499999999997,638.4440000000001 L 269.40999999999997,638.5100000000001 L 269.561,638.5310000000001 L 269.955,639.014 L 269.977,639.069 L 270.424,639.4509999999999 L 270.44599999999997,639.512 L 270.19199999999995,639.5329999999999 L 269.67699999999996,639.3549999999999 L 269.41999999999996,639.3449999999999 L 269.234,639.29 L 269.191,639.259 L 269.154,639.038 L 269.09499999999997,638.929 L 268.59999999999997,638.42 L 268.39399999999995,638.309 L 268.0369999999999,638.2099999999999 L 267.6309999999999,638.2789999999999 L 267.3569999999999,638.2139999999998 L 267.2619999999999,638.2369999999999 L 266.8569999999999,637.8339999999998 L 266.4529999999999,637.4939999999998 L 266.2799999999999,637.0909999999998 L 266.0229999999999,636.7819999999998 L 266.02199999999993,636.6919999999998 L 266.13999999999993,636.6229999999998 L 266.41599999999994,636.7969999999998 L 266.68799999999993,637.0949999999998 L 266.8349999999999,637.2079999999999 L 266.937,637.498 M 271.042,640.111 L 271.118,640.494 L 271.158,640.567 L 271.362,640.505 L 271.71000000000004,640.47 L 272.28000000000003,640.613 L 272.345,640.6640000000001 L 272.58700000000005,641.0830000000001 L 272.773,641.2620000000001 L 273.057,641.6510000000001 L 272.774,641.9110000000001 L 272.607,642.2850000000001 L 272.598,642.474 L 272.487,642.5840000000001 L 272.31300000000005,642.6980000000001 L 272.05400000000003,642.9170000000001 L 271.735,642.9410000000001 L 271.421,643.0570000000001 L 271.275,643.1620000000001 L 271.18899999999996,643.1690000000001 L 271.087,643.1120000000001 L 270.978,643.0040000000001 L 270.943,642.8790000000001 L 271.15799999999996,642.7630000000001 L 271.43899999999996,642.3500000000001 L 271.489,641.9220000000001 L 271.186,641.8450000000001 L 271.005,641.9040000000001 L 270.87,641.9020000000002 L 270.71500000000003,641.7710000000002 L 270.62100000000004,641.9720000000002 L 270.586,642.1650000000002 L 270.627,642.4600000000002 L 270.599,642.5560000000002 L 270.489,642.6100000000001 L 270.23499999999996,642.4980000000002 L 269.97099999999995,642.2990000000002 L 269.94999999999993,642.1840000000002 L 270.0039999999999,641.7860000000002 L 269.9989999999999,641.5790000000002 L 269.9439999999999,641.2810000000002 L 269.9149999999999,641.2500000000002 L 269.8159999999999,641.2570000000002 L 269.50499999999994,641.3140000000002 L 269.19399999999996,640.9330000000002 L 269.02599999999995,640.5310000000002 L 268.45399999999995,640.4160000000002 L 268.9,639.8560000000002 L 269.572,639.7770000000003 L 269.8,640.0600000000003 L 270.548,640.2550000000003 L 270.503,639.9550000000004 L 270.515,639.8480000000004 L 270.618,639.7140000000004 L 270.676,639.7030000000004 L 270.764,639.7970000000005 L 270.908,639.8370000000004 L 270.974,639.9290000000004 L 271.042,640.111 M 275.343,642.722 L 275.96500000000003,643.103 L 276.377,643.0999999999999 L 276.375,643.338 L 276.425,643.7439999999999 L 276.36,643.9089999999999 L 276.206,644.0779999999999 L 276.10900000000004,644.3179999999999 L 276.03700000000003,644.3549999999999 L 275.58400000000006,644.0649999999999 L 275.11100000000005,643.669 L 274.87300000000005,643.7379999999999 L 274.55800000000005,643.641 L 274.30400000000003,643.6619999999999 L 274.146,643.886 L 273.778,644.0029999999999 L 273.711,643.555 L 273.377,643.131 L 273.044,642.7919999999999 L 273.22499999999997,642.2729999999999 L 273.441,642.1899999999999 L 273.645,642.0169999999999 L 274.462,642.1999999999999 L 274.88599999999997,642.3549999999999 L 275.343,642.722 M 276.462,646.745 L 276.592,647.053 L 276.64,647.11 L 276.986,647.231 L 277.142,647.158 L 277.518,647.124 L 277.74399999999997,647.005 L 278.073,646.944 L 278.45,647.711 L 278.408,647.945 L 278.11,648.1990000000001 L 277.909,648.2550000000001 L 277.719,648.1780000000001 L 277.73199999999997,648.0490000000001 L 277.69699999999995,647.9370000000001 L 277.56699999999995,647.7910000000002 L 277.44499999999994,647.8050000000002 L 277.24799999999993,647.9130000000001 L 277.15399999999994,647.8990000000001 L 276.9549999999999,647.7800000000001 L 276.60599999999994,647.6920000000001 L 276.5369999999999,647.5840000000002 L 276.52899999999994,647.4240000000002 L 276.46299999999997,647.3440000000002 L 276.099,647.0870000000002 L 275.866,646.8680000000002 L 275.669,646.8390000000002 L 275.597,646.8650000000001 L 275.524,646.9690000000002 L 275.347,647.0690000000002 L 275.296,647.0520000000001 L 275.239,646.9690000000002 L 275.21,646.8490000000002 L 275.28499999999997,646.6070000000002 L 275.38699999999994,646.5840000000002 L 275.88399999999996,646.6320000000002 L 276.18899999999996,646.7440000000001 L 276.462,646.745 M 280.079,646.993 L 282.33,647.474 L 283.024,647.182 L 283.573,647.191 L 283.736,647.592 L 283.179,648.015 L 283.137,648.149 L 283.215,648.257 L 283.787,648.3249999999999 L 283.93199999999996,648.4609999999999 L 284.06499999999994,648.637 L 283.95199999999994,648.8979999999999 L 283.9409999999999,649.0189999999999 L 284.0009999999999,649.1359999999999 L 284.4299999999999,649.5319999999998 L 284.6059999999999,649.7359999999998 L 284.6949999999999,649.9319999999998 L 284.7309999999999,650.2759999999998 L 284.7229999999999,650.5519999999998 L 284.6269999999999,650.5889999999998 L 284.4179999999999,650.5049999999999 L 284.2139999999999,650.3449999999999 L 284.0349999999999,649.949 L 283.9099999999999,649.87 L 283.5489999999999,649.79 L 283.1909999999999,649.597 L 282.9119999999999,649.608 L 282.6549999999999,649.526 L 282.4249999999999,649.598 L 282.3429999999999,649.468 L 282.2439999999999,649.2049999999999 L 282.2419999999999,649.0909999999999 L 282.3629999999999,648.6769999999999 L 282.3599999999999,648.569 L 282.2969999999999,648.5559999999999 L 282.02899999999994,648.6399999999999 L 281.92099999999994,648.5839999999998 L 281.62899999999996,648.2839999999999 L 281.51099999999997,648.2269999999999 L 281.21799999999996,648.1979999999999 L 281.05199999999996,648.7279999999998 L 281.04299999999995,648.8599999999998 L 281.21199999999993,649.1979999999998 L 281.5439999999999,649.7189999999997 L 281.3759999999999,649.7289999999997 L 280.8959999999999,649.5689999999997 L 280.7729999999999,649.4689999999997 L 280.6249999999999,649.2059999999997 L 280.33999999999986,649.0539999999996 L 280.23999999999984,648.9599999999996 L 280.21099999999984,648.8499999999996 L 280.20799999999986,648.5089999999996 L 280.14499999999987,648.4589999999996 L 279.7399999999999,648.5459999999996 L 279.65699999999987,648.4629999999996 L 279.6229999999999,648.3189999999996 L 279.56399999999985,648.2389999999996 L 279.3029999999998,648.1079999999996 L 279.2799999999998,648.0259999999996 L 279.3959999999998,647.9289999999996 L 279.4679999999998,647.6859999999996 L 279.56999999999977,646.8119999999996 L 280.079,646.993 M 287.44,648.141 L 287.35699999999997,648.329 L 287.17999999999995,648.577 L 286.94199999999995,648.769 L 286.71099999999996,648.822 L 286.544,648.722 L 286.46,648.5459999999999 L 286.421,648.372 L 286.364,648.2769999999999 L 286.27599999999995,648.256 L 286.162,648.261 L 286.022,648.326 L 285.724,648.577 L 285.596,648.642 L 285.51,648.658 L 284.662,648.47 L 284.57899999999995,648.4 L 284.4789999999999,648.233 L 284.3689999999999,647.736 L 284.0129999999999,647.294 L 284.55799999999994,647.044 L 285.21199999999993,647.045 L 286.47399999999993,647.236 L 286.9769999999999,647.279 L 287.3639999999999,647.699 L 287.4249999999999,647.9509999999999 L 287.44,648.141 M 289.146,648.51 L 288.922,648.725 L 288.75500000000005,648.711 L 288.7010000000001,648.633 L 288.6830000000001,648.5350000000001 L 288.7160000000001,648.431 L 288.7860000000001,648.336 L 288.9500000000001,648.217 L 289.0010000000001,648.198 L 289.24700000000007,648.316 L 289.146,648.51 M 286.854,651.219 L 286.751,651.258 L 286.67499999999995,651.164 L 286.55999999999995,651.098 L 286.0919999999999,650.959 L 286.08199999999994,650.875 L 286.1309999999999,650.755 L 286.22399999999993,650.648 L 286.40399999999994,650.542 L 286.5489999999999,650.267 L 286.6139999999999,650.288 L 286.6799999999999,650.4 L 286.7919999999999,650.78 L 286.9269999999999,651.054 L 286.9129999999999,651.149 L 286.854,651.219 M 286.051,651.781 L 285.949,651.7909999999999 L 285.701,651.698 L 285.33000000000004,651.6569999999999 L 285.28800000000007,651.6189999999999 L 285.27900000000005,651.5459999999999 L 285.32300000000004,651.4709999999999 L 285.52500000000003,651.4139999999999 L 286.134,651.4629999999999 L 286.212,651.4969999999998 L 286.233,651.5549999999998 L 286.134,651.7199999999998 L 286.051,651.781" id="CL" title="Chile"/>
</svg>
