<svg xmlns="http://www.w3.org/2000/svg" xmlns:ev="http://www.w3.org/2001/xml-events" xmlns:xlink="http://www.w3.org/1999/xlink" baseProfile="full" height="32.11102294921875" version="1.1" viewBox="499.6470031738281 425.885986328125 21.470977783203125 32.11102294921875" width="21.470977783203125">
	<defs/>
	<path class="land" d="M 519.144,441.635 L 518.861,442.101 L 518.487,442.367 L 518.377,442.528 L 518.318,442.728 L 518.238,442.929 L 518.039,443.36 L 517.894,443.712 L 517.749,443.822 L 517.409,444.354 L 517.181,444.888 L 517.135,445.026 L 517.065,445.128 L 516.954,445.211 L 516.561,445.377 L 516.428,445.459 L 516.323,445.558 L 516.227,445.67 L 516.2,445.805 L 516.292,445.995 L 516.402,446.146 L 516.513,446.155 L 516.61,446.148 L 516.671,446.238 L 516.722,446.291 L 516.722,447.327 L 516.628,447.483 L 516.63,447.553 L 516.584,447.731 L 516.57,447.93 L 516.6,448.009 L 516.679,448.074 L 516.788,448.213 L 516.847,448.531 L 516.98,449.649 L 517.042,449.826 L 517.152,449.95 L 517.498,450.191 L 517.861,450.508 L 517.976,450.714 L 518.042,451.052 L 518.181,451.317 L 518.178,451.407 L 518.121,451.442 L 517.986,451.446 L 517.895,451.465 L 517.971,451.658 L 518.158,451.994 L 518.47,452.343 L 518.808,452.72 L 519.083,453.028 L 519.427,453.384 L 519.695,453.662 L 519.972,453.948 L 520.181,454.016 L 520.336,454.036 L 520.403,454.092 L 520.485,454.223 L 520.626,454.369 L 520.782,454.559 L 520.835,454.752 L 520.77,454.937 L 520.834,455.202 L 520.838,455.225 L 520.889,455.329 L 520.871,455.422 L 520.903,455.773 L 520.985,456.079 L 521.118,456.34 L 521.116,456.362 L 521.099,456.522 L 520.928,456.625 L 520.828,456.796 L 520.799,457.033 L 520.85,457.322 L 520.982,457.663 L 520.985,457.863 L 520.939,457.891 L 520.857,457.955 L 520.77,457.997 L 520.534,457.763 L 520.271,457.605 L 519.878,457.331 L 519.481,457.232 L 518.969,457.214 L 518.748,457.248 L 518.59,457.145 L 518.368,457.025 L 518.246,456.995 L 518.076,457.087 L 517.959,457.091 L 517.815,457.056 L 517.523,457.06 L 517.496,456.9 L 517.446,456.87 L 517.131,456.884 L 517.034,456.752 L 516.992,456.767 L 516.868,456.726 L 516.615,456.538 L 516.349,456.662 L 515.796,456.646 L 515.087,456.65 L 514.353,456.655 L 513.681,456.649 L 513.008,456.643 L 512.941,456.468 L 512.802,456.378 L 512.551,456.37 L 511.812,456.405 L 511.246,456.377 L 511.065,456.354 L 510.864,456.309 L 510.392,456.268 L 509.808,456.301 L 509.675,456.292 L 509.208,456.298 L 508.14,456.251 L 507.549,456.258 L 507.563,456.365 L 507.525,456.441 L 507.494,456.627 L 506.842,456.626 L 505.984,456.626 L 505.174,456.626 L 504.626,456.626 L 503.708,456.626 L 503.4,456.499 L 503.307,456.417 L 503.288,456.325 L 503.277,456.263 L 503.205,456.245 L 503.264,455.589 L 503.393,455.043 L 503.443,454.536 L 503.62,454.083 L 503.526,453.634 L 503.417,453.438 L 502.844,452.802 L 503.107,452.562 L 502.761,452.595 L 502.687,452.358 L 502.519,452.075 L 502.622,452.029 L 502.721,451.874 L 503.034,451.921 L 503.024,451.845 L 502.754,451.607 L 502.78,451.487 L 502.891,451.353 L 502.837,451.296 L 502.643,451.436 L 502.503,451.431 L 502.395,451.341 L 502.315,451.326 L 502.363,451.508 L 502.254,451.671 L 502.151,451.728 L 501.975,451.718 L 501.831,451.677 L 501.792,451.586 L 501.657,451.517 L 501.277,451.396 L 500.958,451.254 L 500.894,450.866 L 500.767,450.699 L 500.715,450.51 L 500.685,450.294 L 500.729,449.962 L 500.647,449.909 L 500.555,449.891 L 500.417,449.907 L 500.29,449.889 L 500.138,449.705 L 500.005,449.634 L 500.087,449.972 L 499.993,450.067 L 499.764,450.04 L 499.666,449.912 L 499.647,449.816 L 499.752,449.408 L 499.711,449.399 L 499.793,449.182 L 499.949,448.918 L 500.16,448.583 L 500.399,448.161 L 500.563,447.416 L 500.674,446.951 L 500.775,446.527 L 500.95,446.144 L 501.127,445.888 L 501.628,445.392 L 502.006,445.017 L 502.199,444.866 L 502.333,444.739 L 502.569,444.594 L 502.81,444.421 L 502.995,444.09 L 503.146,443.781 L 503.261,443.714 L 503.412,443.66 L 503.874,443.328 L 504.167,443.117 L 504.235,443.222 L 504.285,443.352 L 504.341,443.412 L 504.587,443.453 L 504.924,443.451 L 505.118,443.413 L 505.221,443.303 L 505.326,443.002 L 505.387,442.945 L 505.466,442.93 L 505.834,443.14 L 506.14,443.439 L 506.442,443.735 L 506.595,443.84 L 506.662,443.956 L 506.794,444.495 L 506.87,444.629 L 507.001,444.685 L 507.237,444.649 L 507.482,444.554 L 507.698,444.416 L 507.911,444.237 L 508.056,444.076 L 508.119,443.957 L 508.151,443.516 L 508.199,443.419 L 508.416,443.243 L 508.78,442.949 L 508.988,442.78 L 508.97,442.72 L 508.84,442.54 L 508.725,442.342 L 508.842,442.138 L 508.963,441.981 L 509.422,441.45 L 509.424,441.274 L 509.448,441.061 L 509.815,440.457 L 510.026,439.655 L 510.032,439.5 L 510.251,439.113 L 510.51,438.617 L 511.013,438.537 L 511.206,438.413 L 511.429,438.194 L 511.573,437.99 L 511.641,437.796 L 511.691,437.421 L 511.78,436.994 L 511.835,436.619 L 511.986,436.272 L 512.238,436.097 L 512.676,435.951 L 512.742,435.883 L 512.805,435.653 L 512.854,435.175 L 512.868,434.887 L 512.885,434.762 L 512.941,434.546 L 513.347,434.163 L 513.527,433.563 L 513.687,432.934 L 514.148,432.173 L 514.688,431.415 L 514.938,431.211 L 515.149,431.117 L 515.393,431.107 L 515.559,431.051 L 516.14,430.673 L 516.383,430.545 L 516.562,430.414 L 516.605,430.299 L 516.623,430.132 L 516.567,429.74 L 516.667,429.453 L 516.726,429.006 L 516.75,428.658 L 516.729,428.537 L 516.638,428.37 L 516.621,428.334 L 516.447,428.117 L 516.156,427.986 L 515.756,427.95 L 515.544,427.873 L 515.509,427.691 L 515.489,427.586 L 515.468,427.472 L 515.439,427.219 L 515.17,425.886 L 515.678,425.89 L 516.286,426.049 L 516.439,426.169 L 516.52,426.625 L 516.74,426.884 L 517.127,427.096 L 517.368,427.535 L 517.462,428.199 L 517.675,428.596 L 517.724,428.659 L 517.965,429.232 L 518.025,429.408 L 518.043,429.753 L 518.016,429.986 L 518.139,430.274 L 517.953,430.766 L 517.897,431.067 L 517.881,431.49 L 517.99,432.236 L 518.168,432.811 L 518.361,433.276 L 518.572,433.637 L 518.919,434.035 L 519.29,434.398 L 519.635,434.627 L 519.315,434.761 L 518.695,434.778 L 518.339,434.701 L 518.169,434.697 L 517.998,434.745 L 517.336,434.814 L 516.668,434.782 L 516.049,434.691 L 515.673,434.706 L 515.383,434.927 L 515.147,435.259 L 514.927,435.522 L 515.004,435.813 L 515.17,435.974 L 515.49,436.328 L 515.776,436.671 L 515.923,436.901 L 516.495,437.405 L 517.047,437.855 L 517.155,437.93 L 517.31,438.011 L 517.406,438.044 L 517.707,438.302 L 518.123,438.725 L 518.505,439.387 L 518.776,440.059 L 519.04,440.712 L 519.156,440.822 L 519.34,440.892 L 519.362,441.032 L 519.348,441.239 L 519.291,441.408 L 519.144,441.635" id="CM" title="Cameroon"/>
</svg>
