<svg xmlns="http://www.w3.org/2000/svg" xmlns:ev="http://www.w3.org/2001/xml-events" xmlns:xlink="http://www.w3.org/1999/xlink" baseProfile="full" height="126.11599731445312" version="1.1" viewBox="682.2769775390625 284.8819885253906 171.60101318359375 126.11599731445312" width="171.60101318359375">
	<defs/>
	<path class="land" d="M 807.344,392.104 L 807.379,392.17199999999997 L 807.285,392.35699999999997 L 807.1189999999999,392.32599999999996 L 807.1139999999999,392.195 L 807.0799999999999,392.157 L 807.126,392.03499999999997 L 807.156,392.001 L 807.344,392.104 M 812.024,388.8 L 811.997,388.749 L 811.91,388.70000000000005 L 811.8539999999999,388.607 L 811.699,388.651 L 811.625,388.79900000000004 L 811.701,388.92400000000004 L 811.635,389.09700000000004 L 811.637,389.28900000000004 L 811.7669999999999,389.357 L 811.9759999999999,389.21400000000006 L 812.0079999999999,389.14400000000006 L 811.9429999999999,389.0570000000001 L 812.0259999999998,388.89700000000005 L 812.024,388.8 M 792.221,400.44 L 792.1610000000001,400.557 L 792.0260000000001,400.663 L 792.085,400.747 L 792.1080000000001,400.903 L 792.19,401.012 L 792.244,400.952 L 792.273,400.673 L 792.306,400.621 L 792.447,400.49899999999997 L 792.381,400.46399999999994 L 792.221,400.44 M 815.942,380.692 L 815.861,380.619 L 815.661,380.838 L 815.6529999999999,381.06800000000004 L 815.7449999999999,381.06800000000004 L 815.9899999999999,380.992 L 815.9879999999999,380.805 L 815.942,380.692 M 787.138,406.08 L 787.047,405.889 L 786.907,405.757 L 786.683,405.69100000000003 L 786.502,405.557 L 786.3159999999999,405.327 L 786.2409999999999,405.325 L 786.0919999999999,405.444 L 786.0649999999998,405.519 L 786.0639999999999,405.80400000000003 L 785.5849999999998,405.571 L 785.5179999999998,405.55800000000005 L 785.5019999999998,405.68100000000004 L 785.5139999999998,405.807 L 785.3779999999998,405.619 L 785.0119999999998,405.56800000000004 L 784.8949999999999,405.57500000000005 L 784.6469999999998,405.75600000000003 L 784.1509999999998,405.846 L 783.4349999999998,405.782 L 783.2469999999998,405.82399999999996 L 783.0489999999999,406.02 L 782.7809999999998,406.066 L 782.4909999999999,406.02 L 782.3459999999999,406.084 L 782.2209999999999,406.202 L 782.1049999999999,406.423 L 782.223,406.456 L 782.3829999999999,406.445 L 782.1099999999999,406.703 L 781.7839999999999,406.88199999999995 L 781.3349999999999,407.27399999999994 L 781.0219999999999,407.46099999999996 L 780.7489999999999,407.69699999999995 L 780.67,407.79799999999994 L 780.627,407.91399999999993 L 780.5859999999999,408.96899999999994 L 780.5929999999998,409.09099999999995 L 780.6989999999998,409.43299999999994 L 780.7709999999998,410.0659999999999 L 781.3899999999999,410.41599999999994 L 781.6919999999999,410.5589999999999 L 782.1229999999999,410.6839999999999 L 782.5649999999999,410.7589999999999 L 782.731,410.8129999999999 L 783.066,410.9979999999999 L 783.2620000000001,410.97499999999985 L 783.5200000000001,410.9139999999999 L 783.5810000000001,410.8779999999999 L 783.7410000000001,410.6159999999999 L 783.897,410.4739999999999 L 784.3240000000001,410.3989999999999 L 784.4710000000001,410.41699999999986 L 784.6040000000002,410.3249999999999 L 784.6010000000001,410.24199999999985 L 784.5500000000001,410.15499999999986 L 784.8530000000001,409.96499999999986 L 785.1220000000001,409.7119999999999 L 785.2310000000001,409.67199999999985 L 785.3510000000001,409.66099999999983 L 785.5360000000001,409.5869999999998 L 785.682,409.4409999999998 L 785.756,409.2509999999998 L 785.872,408.78599999999983 L 786.0039999999999,408.40799999999984 L 785.9939999999999,408.29999999999984 L 786.021,408.19199999999984 L 786.107,408.08799999999985 L 786.213,407.8389999999998 L 786.722,407.04999999999984 L 786.976,406.9669999999998 L 787.259,406.7609999999998 L 787.214,406.4369999999998 L 787.138,406.08 M 785.599,402.579 L 785.495,402.475 L 785.284,402.531 L 785.157,402.67900000000003 L 785.202,402.75100000000003 L 785.368,402.761 L 785.5970000000001,402.73400000000004 L 785.8270000000001,402.85100000000006 L 785.9260000000002,402.69900000000007 L 785.9280000000001,402.63700000000006 L 785.8770000000001,402.50500000000005 L 785.599,402.579 M 791.499,400.889 L 791.558,400.902 L 791.833,400.839 L 791.8439999999999,400.627 L 791.5949999999999,400.73400000000004 L 791.499,400.889 M 818.401,374.43 L 818.005,374.419 L 818.028,374.67499999999995 L 818.158,374.83799999999997 L 818.534,374.87699999999995 L 818.881,375.06199999999995 L 818.922,374.99899999999997 L 818.995,374.78 L 818.89,374.662 L 818.401,374.43 M 816.902,369.556 L 816.806,369.436 L 816.664,369.371 L 816.586,369.16499999999996 L 816.235,369.03 L 815.876,369.00399999999996 L 815.92,369.15899999999993 L 816.228,369.53399999999993 L 816.7439999999999,369.84299999999996 L 817.4739999999999,370.12399999999997 L 817.704,370.03 L 817.651,369.919 L 817.5509999999999,369.835 L 816.902,369.556 M 853.729,310.34 L 853.5930000000001,310.036 L 853.4280000000001,309.615 L 853.3570000000001,309.418 L 853.4670000000001,309.165 L 853.5840000000001,309.009 L 853.647,308.87 L 853.6790000000001,308.63 L 853.6350000000001,308.447 L 853.3500000000001,308.162 L 853.0480000000001,308.02 L 852.7080000000001,307.96299999999997 L 852.5910000000001,307.943 L 852.347,308.0 L 851.326,308.363 L 850.847,308.64 L 850.571,308.953 L 850.277,309.10299999999995 L 849.807,309.085 L 849.366,309.067 L 849.018,309.24 L 848.6170000000001,309.59700000000004 L 848.325,309.76000000000005 L 848.1400000000001,309.7300000000001 L 847.9430000000001,309.9680000000001 L 847.7320000000001,310.4750000000001 L 847.4920000000001,310.6980000000001 L 847.2220000000001,310.6380000000001 L 846.5760000000001,310.6860000000001 L 845.5530000000001,310.8420000000001 L 844.9120000000001,310.8360000000001 L 844.6520000000002,310.66700000000014 L 844.2460000000002,310.64600000000013 L 843.6910000000003,310.77100000000013 L 843.3570000000003,310.79700000000014 L 843.2420000000003,310.7230000000001 L 843.1610000000003,310.51300000000015 L 843.1120000000003,310.16700000000014 L 842.9240000000003,309.80600000000015 L 842.5980000000003,309.43100000000015 L 842.5400000000003,308.97700000000015 L 842.7510000000003,308.44400000000013 L 842.7990000000003,308.0790000000001 L 842.6850000000003,307.88100000000014 L 842.6380000000003,307.7040000000001 L 842.3920000000003,307.48000000000013 L 842.2180000000003,307.0940000000001 L 842.0920000000003,306.9760000000001 L 842.1290000000004,306.6470000000001 L 842.2750000000003,306.2520000000001 L 842.0950000000004,305.8780000000001 L 841.5390000000003,305.8560000000001 L 841.0920000000003,305.7490000000001 L 840.6460000000003,305.40600000000006 L 839.9600000000003,304.43700000000007 L 839.6190000000003,304.09600000000006 L 839.3950000000002,304.06100000000004 L 839.2330000000002,303.903 L 839.1330000000002,303.622 L 838.9720000000002,303.62 L 838.8150000000002,303.62 L 838.7170000000002,303.736 L 838.6050000000002,303.77299999999997 L 838.4320000000002,303.667 L 838.2540000000002,303.655 L 838.0710000000003,303.738 L 837.9170000000003,303.684 L 837.7910000000003,303.492 L 837.5620000000002,303.365 L 837.2280000000003,303.301 L 837.0900000000003,303.168 L 837.1490000000002,302.96500000000003 L 837.0860000000002,302.81300000000005 L 836.9030000000002,302.713 L 836.4060000000003,302.738 L 835.5930000000003,302.889 L 834.9260000000003,302.848 L 834.4060000000003,302.617 L 834.1160000000003,302.404 L 834.0570000000004,302.20799999999997 L 833.9070000000004,302.02 L 833.6660000000004,301.84 L 833.5300000000004,301.529 L 833.5010000000004,301.087 L 833.5590000000004,300.666 L 833.7780000000005,300.066 L 833.2300000000005,299.674 L 833.0680000000004,299.448 L 833.1070000000004,299.257 L 833.0780000000004,299.106 L 832.9800000000005,298.99399999999997 L 832.9860000000004,298.815 L 833.0950000000005,298.569 L 833.0940000000005,298.255 L 832.9830000000005,297.873 L 832.6770000000005,297.335 L 832.1780000000005,296.64099999999996 L 831.9090000000004,296.133 L 831.8720000000004,295.811 L 831.8060000000004,295.553 L 831.7120000000003,295.413 L 831.6540000000003,295.17400000000004 L 831.6930000000003,294.908 L 831.6350000000003,294.737 L 831.5640000000003,294.576 L 831.5740000000003,294.317 L 831.4870000000003,294.14 L 831.3040000000003,294.04499999999996 L 831.2460000000003,293.84799999999996 L 831.2800000000003,293.42799999999994 L 831.1470000000003,293.07399999999996 L 830.7460000000003,292.419 L 830.6270000000003,291.94 L 830.5920000000003,291.506 L 830.4210000000003,291.294 L 830.4120000000003,291.10499999999996 L 830.3900000000002,290.77599999999995 L 830.2860000000002,290.68499999999995 L 830.2230000000002,290.56899999999996 L 830.2720000000002,290.42999999999995 L 830.1920000000001,290.25699999999995 L 829.9800000000001,290.04999999999995 L 829.8830000000002,289.871 L 829.8590000000002,289.709 L 829.7540000000001,289.582 L 829.4430000000001,289.459 L 829.3580000000001,289.289 L 829.379,289.138 L 829.446,288.99699999999996 L 829.482,288.912 L 829.471,288.80199999999996 L 829.449,288.693 L 829.3259999999999,288.562 L 829.1499999999999,288.41 L 828.9539999999998,288.08200000000005 L 828.7039999999998,287.99300000000005 L 828.5509999999998,287.99300000000005 L 828.4179999999998,287.8070000000001 L 828.4589999999998,287.6890000000001 L 828.4479999999999,287.4680000000001 L 828.3289999999998,287.2890000000001 L 828.1809999999998,287.2180000000001 L 828.0399999999998,287.26400000000007 L 827.6929999999999,287.09600000000006 L 827.1399999999999,286.7130000000001 L 826.7169999999999,286.53600000000006 L 826.4249999999998,286.56600000000003 L 826.2439999999998,286.68100000000004 L 826.1759999999998,286.88200000000006 L 825.9809999999998,286.8620000000001 L 825.5,286.5 L 825.012,286.411 L 824.741,286.218 L 824.5219999999999,285.89000000000004 L 824.3219999999999,285.75300000000004 L 824.137,285.807 L 823.6899999999999,285.587 L 822.977,285.091 L 822.6039999999999,284.92400000000004 L 822.4689999999999,285.01800000000003 L 822.3989999999999,285.019 L 822.2719999999999,285.005 L 822.088,284.999 L 821.7669999999999,284.882 L 821.3299999999999,284.934 L 820.7779999999999,285.15500000000003 L 820.1809999999999,285.29200000000003 L 819.5379999999999,285.346 L 819.1569999999999,285.32 L 819.0379999999999,285.214 L 818.3389999999999,285.372 L 817.371,285.69 L 816.4209999999999,286.003 L 815.2429999999999,286.155 L 814.453,286.68199999999996 L 813.659,287.63199999999995 L 813.0889999999999,288.227 L 812.742,288.471 L 812.601,288.79 L 812.666,289.184 L 812.961,289.32500000000005 L 813.486,289.21200000000005 L 813.938,289.26700000000005 L 814.317,289.49000000000007 L 814.438,289.8260000000001 L 814.3,290.2750000000001 L 814.343,290.7150000000001 L 814.5649999999999,291.1470000000001 L 814.5799999999999,291.6450000000001 L 814.3889999999999,292.2070000000001 L 813.9099999999999,292.7720000000001 L 813.1419999999998,293.3400000000001 L 812.6639999999999,293.8920000000001 L 812.3839999999999,294.6950000000001 L 811.9519999999999,295.3900000000001 L 811.7929999999999,295.7820000000001 L 811.7639999999999,296.1020000000001 L 811.5919999999999,296.4480000000001 L 811.2789999999999,296.8190000000001 L 811.1069999999999,297.1910000000001 L 811.0779999999999,297.5630000000001 L 810.9199999999998,297.9010000000001 L 810.6349999999999,298.2050000000001 L 810.4569999999999,298.5270000000001 L 810.3879999999999,298.8650000000001 L 810.2779999999999,299.0920000000001 L 810.1299999999999,299.2090000000001 L 810.2089999999998,299.3240000000001 L 810.5169999999998,299.4380000000001 L 810.6429999999998,299.7670000000001 L 810.5859999999998,300.3090000000001 L 810.3989999999998,300.6950000000001 L 810.0849999999998,300.9260000000001 L 809.6129999999998,301.0760000000001 L 808.9849999999998,301.1460000000001 L 808.1309999999997,301.6600000000001 L 807.3879999999997,302.31700000000006 L 806.5089999999997,303.09100000000007 L 806.3379999999996,303.09100000000007 L 806.0179999999996,302.99500000000006 L 805.3969999999996,302.6770000000001 L 804.7479999999996,302.6110000000001 L 804.1189999999996,302.3170000000001 L 803.7469999999996,302.1230000000001 L 803.1699999999996,301.7500000000001 L 802.9069999999996,302.3520000000001 L 802.3809999999996,303.5540000000001 L 801.9359999999996,304.5660000000001 L 801.7009999999996,305.13400000000007 L 801.5289999999995,305.5660000000001 L 801.3489999999996,305.9750000000001 L 801.3239999999996,306.22100000000006 L 801.1229999999996,306.61500000000007 L 800.7489999999996,307.0900000000001 L 800.6679999999996,307.6040000000001 L 800.6829999999995,308.0650000000001 L 800.6519999999996,308.4780000000001 L 800.2419999999996,308.73900000000015 L 799.9209999999996,308.9710000000002 L 800.0129999999996,309.7490000000002 L 800.1779999999995,310.0420000000002 L 800.4459999999996,310.3580000000002 L 800.7259999999995,310.6100000000002 L 800.9689999999996,310.8230000000002 L 801.2379999999996,310.72100000000023 L 801.4649999999996,310.39600000000024 L 801.9029999999996,310.11000000000024 L 802.1449999999995,310.10300000000024 L 802.3159999999996,310.1690000000002 L 802.6959999999996,310.1880000000002 L 803.0849999999996,310.08400000000023 L 803.3899999999995,310.06200000000024 L 803.7849999999995,310.13200000000023 L 803.9269999999996,310.20100000000025 L 804.2579999999996,310.32600000000025 L 804.6149999999996,310.6010000000002 L 804.8649999999996,310.90800000000024 L 805.0469999999996,310.96700000000027 L 805.1399999999995,310.86900000000026 L 805.3399999999996,310.59600000000023 L 805.6209999999995,310.33300000000025 L 805.9619999999995,309.90100000000024 L 806.2189999999995,309.5680000000002 L 806.4209999999995,309.5180000000002 L 806.8109999999995,309.5190000000002 L 806.9869999999995,309.43800000000016 L 807.2819999999995,309.3960000000002 L 807.5429999999994,309.5190000000002 L 808.2689999999994,309.5840000000002 L 808.4639999999995,309.7540000000002 L 808.8079999999995,310.2590000000002 L 809.0029999999996,310.5280000000002 L 809.3409999999996,310.6630000000002 L 809.5449999999995,310.75500000000017 L 809.7259999999995,310.82800000000015 L 809.9069999999996,310.95800000000014 L 809.9499999999996,311.1150000000001 L 810.0219999999996,311.35500000000013 L 810.1319999999996,311.4930000000001 L 810.3369999999996,311.6280000000001 L 810.4929999999996,311.7110000000001 L 810.5419999999996,311.8840000000001 L 810.5909999999996,311.9690000000001 L 810.7339999999996,312.0900000000001 L 811.1559999999996,312.6060000000001 L 811.3609999999996,312.7440000000001 L 811.6729999999997,313.0420000000001 L 811.8029999999997,313.2890000000001 L 811.8099999999996,313.5480000000001 L 811.8909999999996,313.7460000000001 L 812.0989999999996,314.0420000000001 L 812.1979999999996,314.2420000000001 L 812.1589999999997,314.5130000000001 L 812.1919999999997,314.75200000000007 L 812.1119999999996,315.00000000000006 L 811.7759999999996,315.18300000000005 L 811.6609999999996,315.26900000000006 L 811.4189999999996,315.27700000000004 L 811.0089999999997,315.18500000000006 L 810.6099999999997,315.2370000000001 L 810.1329999999997,315.1350000000001 L 809.7589999999997,314.9170000000001 L 809.5589999999996,314.7430000000001 L 809.2409999999996,314.6390000000001 L 809.0909999999997,314.6930000000001 L 808.9019999999997,314.9180000000001 L 808.6939999999997,314.8780000000001 L 808.5029999999997,314.9180000000001 L 808.0,314.867 L 807.731,314.81 L 807.305,314.967 L 807.0649999999999,315.01599999999996 L 806.6129999999999,315.20899999999995 L 806.342,315.54099999999994 L 806.139,315.6209999999999 L 805.942,315.6049999999999 L 805.8,315.4829999999999 L 805.5939999999999,315.3359999999999 L 805.2879999999999,315.3439999999999 L 805.1969999999999,315.40699999999987 L 805.1589999999999,315.54199999999986 L 805.0579999999999,315.9519999999999 L 805.0599999999998,316.1359999999999 L 804.9939999999998,316.25499999999994 L 804.8129999999998,316.29499999999996 L 804.4959999999998,316.28399999999993 L 803.9989999999998,316.25699999999995 L 803.6629999999998,316.15099999999995 L 803.4609999999998,316.19599999999997 L 803.1859999999998,316.41799999999995 L 802.9909999999998,316.45399999999995 L 802.8319999999998,316.54799999999994 L 802.7029999999997,316.87499999999994 L 802.5009999999997,317.0779999999999 L 802.2569999999997,317.3289999999999 L 801.9949999999998,317.8669999999999 L 801.8499999999998,318.1739999999999 L 801.8959999999998,318.33899999999994 L 801.9279999999999,318.53899999999993 L 801.8069999999999,318.7659999999999 L 801.5609999999999,318.9769999999999 L 801.3639999999999,319.0159999999999 L 801.0679999999999,319.2189999999999 L 800.6609999999998,319.5839999999999 L 800.3569999999999,319.8899999999999 L 799.9609999999999,319.96499999999986 L 799.68,320.04299999999984 L 799.0569999999999,320.13799999999986 L 798.9039999999999,320.16199999999986 L 798.2199999999999,320.2089999999999 L 797.7139999999999,320.04399999999987 L 797.448,320.06899999999985 L 797.212,320.16199999999986 L 797.092,320.26299999999986 L 797.05,320.45499999999987 L 797.0079999999999,320.6319999999999 L 796.8169999999999,320.9059999999999 L 796.4289999999999,321.26999999999987 L 796.1109999999999,321.5119999999999 L 795.8659999999999,321.8239999999999 L 795.7259999999999,321.9369999999999 L 795.4469999999999,322.0569999999999 L 795.2959999999999,322.1209999999999 L 794.9449999999999,322.3979999999999 L 794.6659999999999,322.6449999999999 L 794.482,322.7149999999999 L 794.259,322.6499999999999 L 794.113,322.6289999999999 L 793.6780000000001,322.5339999999999 L 793.3840000000001,322.5209999999999 L 792.9730000000002,322.4599999999999 L 792.0110000000002,322.17099999999994 L 791.7020000000002,322.03599999999994 L 791.4290000000002,321.6669999999999 L 791.1820000000002,321.4799999999999 L 790.8470000000002,321.4599999999999 L 790.3440000000002,321.4599999999999 L 790.1190000000001,321.3859999999999 L 789.7410000000001,321.4549999999999 L 789.3280000000001,321.82899999999995 L 789.133,322.10699999999997 L 788.964,322.392 L 788.7570000000001,322.999 L 788.6650000000001,323.404 L 788.595,323.633 L 788.374,323.995 L 788.35,324.198 L 788.426,324.37399999999997 L 788.585,324.57199999999995 L 788.6800000000001,324.8829999999999 L 788.912,325.21399999999994 L 789.14,325.47099999999995 L 789.5699999999999,325.88499999999993 L 789.6919999999999,326.1019999999999 L 789.8369999999999,326.3499999999999 L 789.8679999999998,326.5919999999999 L 789.8409999999998,326.74999999999994 L 789.6869999999998,326.8709999999999 L 789.3859999999997,326.9319999999999 L 789.2409999999998,327.0989999999999 L 789.0189999999998,327.32299999999987 L 788.7569999999998,327.58099999999985 L 788.6339999999998,327.59499999999986 L 788.4869999999997,327.6639999999999 L 787.7459999999998,327.9829999999999 L 787.4639999999997,328.0719999999999 L 787.2419999999997,328.1769999999999 L 786.9779999999997,328.5019999999999 L 786.7709999999997,328.7429999999999 L 786.5149999999998,329.0619999999999 L 786.4029999999998,329.2039999999999 L 786.1749999999998,329.5229999999999 L 785.8759999999999,329.8869999999999 L 785.7099999999998,330.0819999999999 L 785.6199999999998,330.1989999999999 L 785.5379999999998,330.3509999999999 L 785.2249999999998,330.4689999999999 L 784.9669999999998,330.5939999999999 L 784.5769999999998,330.78199999999987 L 784.0169999999998,330.98899999999986 L 783.5659999999998,331.1879999999999 L 783.2789999999998,331.35199999999986 L 782.8509999999998,331.55899999999986 L 782.5609999999998,331.62499999999983 L 781.9769999999999,331.61699999999985 L 781.2549999999999,331.66999999999985 L 780.7299999999999,331.70899999999983 L 780.334,331.6589999999998 L 779.737,331.6309999999998 L 779.28,331.5909999999998 L 778.9739999999999,331.6669999999998 L 778.2549999999999,331.7479999999998 L 778.0939999999999,331.7659999999998 L 776.814,331.9619999999998 L 776.2479999999999,332.0659999999998 L 775.7299999999999,332.1139999999998 L 775.348,332.1899999999998 L 775.132,332.28499999999985 L 774.8119999999999,332.42199999999985 L 774.6429999999999,332.48199999999986 L 774.0769999999999,332.74999999999983 L 772.8149999999999,333.30199999999985 L 771.9699999999999,333.74899999999985 L 771.8309999999999,333.8249999999999 L 771.262,334.1389999999999 L 770.933,334.2619999999999 L 770.704,334.54199999999986 L 770.521,334.7189999999999 L 770.329,334.7949999999999 L 769.987,334.6149999999999 L 769.745,334.6239999999999 L 768.972,334.5589999999999 L 768.972,333.74099999999993 L 768.43,333.8569999999999 L 767.5659999999999,334.0419999999999 L 766.7629999999999,334.2129999999999 L 766.03,333.8209999999999 L 765.4639999999999,333.5179999999999 L 764.972,333.2569999999999 L 764.226,333.0839999999999 L 763.576,332.9329999999999 L 762.402,332.68399999999986 L 761.885,332.46599999999984 L 761.624,332.17699999999985 L 761.158,331.52099999999984 L 761.0070000000001,331.39099999999985 L 760.7800000000001,331.30199999999985 L 760.5450000000001,331.24399999999986 L 760.0350000000001,331.24699999999984 L 759.4130000000001,331.19599999999986 L 758.5170000000002,331.0579999999999 L 757.8050000000002,330.94799999999987 L 756.5910000000001,330.7429999999999 L 756.3030000000001,330.7179999999999 L 755.6680000000001,330.8999999999999 L 754.8550000000001,331.1329999999999 L 753.3930000000001,330.94999999999993 L 752.7460000000001,330.86499999999995 L 751.4330000000001,330.691 L 749.9480000000001,330.49399999999997 L 748.508,330.28999999999996 L 747.462,330.402 L 746.879,330.465 L 746.206,330.55499999999995 L 746.113,330.45399999999995 L 746.086,330.06299999999993 L 745.965,329.75999999999993 L 745.597,329.43199999999996 L 745.35,329.11899999999997 L 744.879,328.69599999999997 L 744.731,328.429 L 744.681,328.01399999999995 L 744.2470000000001,326.93299999999994 L 743.9760000000001,326.19899999999996 L 743.9090000000001,326.04999999999995 L 743.7930000000001,325.80999999999995 L 743.6410000000001,325.68499999999995 L 743.3190000000001,325.60799999999995 L 743.2320000000001,325.47799999999995 L 743.2320000000001,325.22299999999996 L 743.2830000000001,324.86999999999995 L 743.3480000000002,324.61199999999997 L 743.3010000000002,324.54799999999994 L 742.4580000000002,324.6209999999999 L 741.9410000000001,324.44999999999993 L 741.5090000000001,324.26399999999995 L 740.8980000000001,323.787 L 740.5350000000001,323.60299999999995 L 740.07,323.1089999999999 L 739.393,322.9919999999999 L 739.1410000000001,322.7979999999999 L 738.8240000000001,322.3739999999999 L 738.547,322.1019999999999 L 738.153,321.9299999999999 L 737.5310000000001,321.7769999999999 L 736.4680000000001,321.63099999999986 L 736.109,321.56899999999985 L 735.523,321.66699999999986 L 735.087,321.67499999999984 L 734.382,321.57099999999986 L 733.981,321.43899999999985 L 733.485,321.43599999999986 L 733.162,321.43699999999984 L 732.731,321.40699999999987 L 732.523,321.32099999999986 L 732.33,321.21599999999984 L 731.9680000000001,321.24199999999985 L 731.715,321.13799999999986 L 731.479,320.94199999999984 L 731.2330000000001,320.84799999999984 L 730.9620000000001,320.8539999999998 L 730.8510000000001,320.9409999999998 L 730.7470000000001,320.9319999999998 L 730.6800000000001,320.6669999999998 L 730.427,320.23799999999983 L 730.389,320.0459999999998 L 730.235,319.82399999999984 L 730.143,319.62199999999984 L 730.168,319.34299999999985 L 730.277,318.79999999999984 L 730.519,318.3079999999998 L 730.677,318.17999999999984 L 730.775,318.0339999999998 L 730.978,317.7789999999998 L 731.096,317.5749999999998 L 731.082,317.2959999999998 L 730.943,317.00399999999985 L 730.842,316.62699999999984 L 730.861,316.40999999999985 L 731.01,316.1519999999999 L 731.186,315.5789999999999 L 731.171,315.4279999999999 L 731.1020000000001,315.3069999999999 L 731.0840000000001,315.0399999999999 L 731.0500000000001,314.6819999999999 L 730.839,314.1329999999999 L 730.725,313.84099999999995 L 730.5260000000001,313.71599999999995 L 730.292,313.63899999999995 L 730.09,313.24299999999994 L 729.836,312.7749999999999 L 729.677,312.4819999999999 L 729.6220000000001,312.3019999999999 L 729.5970000000001,311.97399999999993 L 729.4780000000001,311.57699999999994 L 729.3530000000001,311.3589999999999 L 729.2600000000001,311.19199999999995 L 729.2120000000001,310.95099999999996 L 729.1640000000001,310.86299999999994 L 728.82,310.7559999999999 L 728.5740000000001,310.5759999999999 L 728.4710000000001,310.3339999999999 L 728.4350000000002,310.1389999999999 L 728.3620000000002,310.0249999999999 L 728.1680000000002,309.9889999999999 L 728.0330000000002,310.16399999999993 L 727.8110000000003,310.25199999999995 L 727.6620000000003,310.23599999999993 L 727.5150000000002,310.12999999999994 L 727.4240000000002,310.01899999999995 L 727.2700000000002,309.89399999999995 L 727.0520000000002,309.49799999999993 L 726.8230000000002,309.3929999999999 L 726.4030000000002,309.4109999999999 L 726.0290000000002,309.5949999999999 L 725.8020000000002,309.5659999999999 L 725.6110000000002,309.5039999999999 L 725.3960000000002,309.3059999999999 L 725.2470000000002,309.14199999999994 L 725.0240000000002,309.08899999999994 L 724.5850000000003,308.79999999999995 L 724.2880000000002,308.5919999999999 L 724.2630000000003,308.18299999999994 L 724.1230000000003,307.90099999999995 L 723.8330000000003,307.82099999999997 L 723.5410000000003,307.53099999999995 L 723.1150000000002,307.37499999999994 L 722.8460000000002,307.25399999999996 L 722.6140000000003,307.181 L 722.5800000000003,307.07099999999997 L 722.5940000000003,306.977 L 722.7010000000002,306.82 L 722.8120000000002,306.674 L 722.8390000000003,306.53799999999995 L 722.7490000000003,306.417 L 722.5080000000003,306.291 L 722.1980000000003,306.179 L 722.1350000000003,305.99199999999996 L 721.9500000000004,305.79699999999997 L 721.9820000000004,305.64 L 722.1280000000004,305.525 L 722.2760000000004,305.44 L 722.3100000000004,305.293 L 722.2050000000004,305.157 L 722.1540000000003,304.95099999999996 L 722.1780000000003,304.79699999999997 L 722.1480000000004,304.59999999999997 L 722.0020000000004,304.585 L 721.7370000000004,304.66499999999996 L 721.4800000000005,304.729 L 721.3090000000004,304.77099999999996 L 721.1980000000004,304.90399999999994 L 721.0310000000004,304.9669999999999 L 720.7670000000004,304.9269999999999 L 720.5070000000004,304.8419999999999 L 719.9970000000004,304.82399999999996 L 719.6860000000004,304.87699999999995 L 719.5400000000004,304.9069999999999 L 719.3220000000005,305.08199999999994 L 719.1670000000005,305.2559999999999 L 719.0990000000005,305.5519999999999 L 719.1810000000005,305.8859999999999 L 719.0690000000005,306.5799999999999 L 718.9170000000005,306.84099999999995 L 718.5970000000004,307.2939999999999 L 718.4110000000004,307.39199999999994 L 718.0990000000004,307.47299999999996 L 717.7990000000004,307.60699999999997 L 717.2110000000005,307.73699999999997 L 716.5760000000005,307.80299999999994 L 716.3500000000005,307.8999999999999 L 716.1890000000005,308.20899999999995 L 716.0750000000005,308.46599999999995 L 716.0050000000005,308.662 L 715.8250000000005,309.29999999999995 L 715.7230000000005,309.86899999999997 L 715.8230000000005,310.57399999999996 L 715.8980000000006,311.35499999999996 L 715.8930000000006,311.62399999999997 L 716.0480000000006,312.022 L 716.1260000000005,312.266 L 716.0890000000005,312.612 L 715.8660000000006,312.884 L 715.7320000000005,313.244 L 715.6060000000006,313.39700000000005 L 715.2430000000005,313.46600000000007 L 714.9010000000005,313.50800000000004 L 714.5560000000005,313.81700000000006 L 714.2800000000005,314.0300000000001 L 713.8480000000005,314.3010000000001 L 713.6450000000006,314.3520000000001 L 713.5330000000006,314.2140000000001 L 713.4590000000006,313.9070000000001 L 713.3110000000006,313.7710000000001 L 713.1020000000007,313.76000000000005 L 712.9340000000007,313.75700000000006 L 712.3910000000006,313.67400000000004 L 712.0430000000007,313.68 L 711.7820000000007,313.746 L 711.4840000000007,313.779 L 710.9690000000007,313.667 L 710.6360000000008,313.57199999999995 L 710.4120000000007,313.48099999999994 L 709.8770000000007,313.21199999999993 L 709.1740000000008,312.89199999999994 L 708.8860000000008,312.79799999999994 L 708.7150000000007,312.89399999999995 L 708.6890000000008,313.07699999999994 L 708.6440000000008,313.5199999999999 L 708.5620000000008,313.7969999999999 L 708.0720000000008,315.1929999999999 L 707.7690000000008,316.15899999999993 L 707.3840000000008,317.08199999999994 L 707.2620000000009,317.69899999999996 L 707.0320000000008,318.47799999999995 L 706.8030000000008,319.04099999999994 L 706.7100000000008,319.3469999999999 L 706.7020000000008,319.4719999999999 L 706.7420000000008,319.64699999999993 L 707.0930000000008,319.8379999999999 L 707.4610000000008,319.9549999999999 L 707.5420000000008,320.0279999999999 L 707.5820000000008,320.2259999999999 L 707.5680000000008,320.5499999999999 L 707.5010000000008,320.8559999999999 L 707.3950000000008,321.0959999999999 L 707.2900000000008,321.2149999999999 L 707.1700000000008,321.2219999999999 L 706.9400000000007,321.0679999999999 L 706.7350000000007,320.8959999999999 L 706.5760000000007,320.8439999999999 L 706.1720000000007,320.9399999999999 L 705.7980000000007,321.07099999999986 L 705.6730000000007,321.0749999999999 L 705.4560000000007,320.9909999999999 L 705.2370000000006,320.8169999999999 L 705.1500000000007,320.4799999999999 L 704.9620000000007,320.3269999999999 L 704.7100000000007,320.4799999999999 L 703.9600000000007,320.7369999999999 L 703.1340000000007,321.0429999999999 L 702.6090000000007,321.2009999999999 L 702.4040000000007,321.1769999999999 L 702.0,321.207 L 701.647,321.292 L 701.3820000000001,321.40999999999997 L 700.859,321.573 L 700.384,321.68199999999996 L 700.078,321.929 L 699.858,322.167 L 699.867,322.25699999999995 L 700.0269999999999,322.39799999999997 L 700.2099999999999,322.508 L 700.5759999999999,322.48199999999997 L 700.9329999999999,322.465 L 701.2299999999999,322.614 L 701.4959999999999,322.71 L 701.5689999999998,322.834 L 701.4959999999999,322.955 L 701.3419999999999,322.983 L 701.2879999999999,323.067 L 701.3149999999999,323.18 L 701.213,323.474 L 701.16,323.919 L 701.213,324.35699999999997 L 701.242,324.76 L 701.223,324.96299999999997 L 701.213,325.25199999999995 L 701.326,325.44699999999995 L 701.427,325.8179999999999 L 701.6080000000001,326.04999999999995 L 701.8810000000001,326.852 L 702.042,327.31899999999996 L 702.19,327.847 L 702.0830000000001,328.132 L 702.09,328.297 L 702.264,328.435 L 702.34,328.704 L 702.421,328.868 L 702.399,329.031 L 702.325,329.094 L 701.9480000000001,328.995 L 701.6390000000001,329.158 L 701.3110000000001,329.322 L 701.2670000000002,329.409 L 701.2580000000002,329.504 L 701.2910000000002,329.58700000000005 L 701.4800000000001,329.73300000000006 L 701.7410000000001,329.82400000000007 L 701.7280000000001,329.9700000000001 L 701.4050000000001,330.0370000000001 L 700.9180000000001,330.2600000000001 L 700.7830000000001,330.4990000000001 L 700.6790000000001,330.76200000000006 L 700.6700000000001,330.91400000000004 L 700.719,331.321 L 700.793,331.771 L 700.932,332.245 L 700.943,332.391 L 700.871,332.495 L 700.804,332.562 L 700.86,332.789 L 700.908,333.053 L 700.878,333.115 L 700.8240000000001,333.157 L 699.964,333.222 L 699.7700000000001,333.29499999999996 L 699.5620000000001,333.65899999999993 L 698.8260000000001,333.9509999999999 L 698.4060000000002,334.1009999999999 L 698.2360000000002,334.0949999999999 L 697.8280000000002,334.3339999999999 L 696.6890000000002,334.9289999999999 L 696.1290000000002,335.3039999999999 L 695.8480000000003,335.4609999999999 L 695.6220000000003,335.6319999999999 L 695.5840000000003,335.8049999999999 L 695.5760000000002,335.9679999999999 L 694.9510000000002,336.7329999999999 L 694.4820000000002,336.8249999999999 L 694.0860000000002,336.8069999999999 L 693.8160000000003,336.9229999999999 L 693.4300000000003,337.0399999999999 L 692.5940000000003,336.9599999999999 L 692.3090000000003,336.9729999999999 L 691.7600000000003,336.8679999999999 L 691.5380000000004,336.9229999999999 L 691.3040000000003,337.07799999999986 L 690.9790000000003,337.6849999999999 L 690.8470000000003,337.8269999999999 L 690.7860000000003,337.96499999999986 L 690.7360000000003,338.25899999999984 L 690.6120000000003,338.5699999999998 L 690.4530000000003,338.8149999999998 L 690.3380000000003,339.0419999999998 L 690.1030000000003,339.2609999999998 L 689.8850000000003,339.3989999999998 L 689.7160000000003,339.11099999999976 L 689.5700000000004,339.19299999999976 L 689.4300000000004,339.3099999999998 L 689.1660000000004,339.2689999999998 L 689.0030000000004,339.3279999999998 L 688.6310000000004,339.5779999999998 L 688.0850000000004,339.5689999999998 L 688.0250000000004,339.4829999999998 L 687.9170000000005,338.7949999999998 L 687.8220000000005,338.4679999999998 L 687.7430000000005,338.3949999999998 L 687.6450000000006,338.38699999999983 L 686.8600000000006,338.9289999999998 L 686.4960000000005,339.0249999999998 L 686.1970000000006,339.0419999999998 L 685.8060000000006,338.8799999999998 L 685.7210000000006,338.91999999999985 L 685.6540000000006,339.00699999999983 L 685.6260000000005,339.1179999999998 L 685.7400000000006,339.42499999999984 L 685.7080000000005,339.48499999999984 L 685.5320000000005,339.47999999999985 L 685.2860000000005,339.5509999999999 L 685.0980000000005,339.6919999999999 L 684.5340000000006,340.1859999999999 L 684.0590000000005,340.35099999999994 L 683.6170000000005,340.41599999999994 L 683.4360000000005,340.47099999999995 L 683.3550000000005,340.53 L 683.2070000000004,340.765 L 683.0550000000004,341.133 L 682.9760000000005,341.31199999999995 L 682.9170000000005,341.41599999999994 L 682.9290000000004,341.55199999999996 L 683.0490000000004,341.727 L 683.1400000000004,342.11999999999995 L 683.1190000000005,342.2219999999999 L 683.0220000000005,342.3859999999999 L 682.8820000000005,342.5469999999999 L 682.5810000000005,342.6439999999999 L 682.3450000000005,342.69299999999987 L 682.3590000000005,342.88099999999986 L 682.3220000000005,343.2379999999999 L 682.2770000000005,343.4859999999999 L 682.5100000000004,343.9349999999999 L 682.6590000000004,344.1509999999999 L 682.8050000000004,344.3039999999999 L 682.8320000000004,344.4249999999999 L 682.8020000000005,344.5229999999999 L 682.6210000000004,344.6189999999999 L 682.5560000000004,344.7209999999999 L 682.5260000000004,344.8359999999999 L 682.5850000000004,344.9689999999999 L 682.6890000000004,345.39299999999986 L 682.8230000000004,345.72199999999987 L 683.0120000000004,345.8799999999999 L 683.2950000000004,345.98399999999987 L 683.4500000000004,345.9619999999999 L 683.5610000000004,345.7159999999999 L 683.7470000000004,345.5279999999999 L 683.9040000000005,345.5409999999999 L 684.1570000000005,345.5329999999999 L 684.8210000000005,345.7459999999999 L 685.4690000000005,346.0679999999999 L 685.6570000000005,346.2459999999999 L 685.7230000000005,346.4459999999999 L 685.5440000000006,346.9079999999999 L 685.5520000000006,347.2019999999999 L 685.5930000000006,347.5159999999999 L 685.7410000000007,347.74799999999993 L 685.8770000000006,348.14599999999996 L 685.9030000000006,348.47499999999997 L 685.9620000000006,348.573 L 686.0100000000006,348.688 L 685.9380000000006,348.989 L 685.8870000000005,349.292 L 685.9480000000005,349.393 L 686.1460000000005,349.542 L 686.4580000000005,349.82099999999997 L 686.5180000000005,350.051 L 686.4070000000005,350.197 L 686.2090000000005,350.375 L 685.9550000000005,350.528 L 685.8800000000005,350.59200000000004 L 685.7360000000004,350.61500000000007 L 685.5320000000005,350.53100000000006 L 685.4520000000005,350.4030000000001 L 685.4180000000005,350.3850000000001 L 685.2560000000004,350.4690000000001 L 684.9470000000005,350.5740000000001 L 684.4230000000005,350.8510000000001 L 684.4350000000004,350.92200000000014 L 684.7770000000004,351.20300000000015 L 684.8570000000004,351.29600000000016 L 684.8980000000005,351.3240000000002 L 685.0620000000005,351.2640000000002 L 685.2780000000005,351.27700000000016 L 685.3220000000005,351.27700000000016 L 685.5290000000005,351.3580000000002 L 685.7400000000005,351.47600000000017 L 685.8750000000005,351.5690000000002 L 686.0430000000005,351.5130000000002 L 686.1710000000005,351.4850000000002 L 686.3280000000005,351.4360000000002 L 686.4550000000005,351.4700000000002 L 686.5710000000005,351.4920000000002 L 686.7140000000005,351.38000000000017 L 686.9270000000005,351.3000000000002 L 687.1410000000005,351.4060000000002 L 687.3680000000005,351.7390000000002 L 687.6350000000006,352.1260000000002 L 687.7980000000006,352.2320000000002 L 688.0950000000006,352.3100000000002 L 688.3760000000005,352.4660000000002 L 688.4540000000005,352.5490000000002 L 688.6180000000005,352.7230000000002 L 688.6260000000005,352.73100000000017 L 688.6310000000005,352.73900000000015 L 688.7630000000005,352.98200000000014 L 688.8140000000005,353.0740000000001 L 689.0270000000005,353.3290000000001 L 689.4010000000005,353.6760000000001 L 689.8410000000006,353.8220000000001 L 690.1880000000006,354.18200000000013 L 690.4010000000005,354.36900000000014 L 690.7610000000005,354.40900000000016 L 691.0680000000006,354.74300000000017 L 691.0820000000006,354.9830000000002 L 691.0160000000005,355.18300000000016 L 691.1090000000005,355.43600000000015 L 691.2690000000005,355.67600000000016 L 691.6290000000005,355.7830000000002 L 692.0690000000005,355.7830000000002 L 692.5620000000006,355.9290000000002 L 692.8560000000006,356.1960000000002 L 692.9760000000006,356.5430000000002 L 693.2620000000005,356.6870000000002 L 693.3780000000005,356.6910000000002 L 693.7820000000005,356.6660000000002 L 694.1120000000005,356.59100000000024 L 694.5760000000006,356.4760000000002 L 694.9500000000006,356.4760000000002 L 695.2210000000006,356.0490000000002 L 695.5280000000006,355.7820000000002 L 695.8880000000006,355.7020000000002 L 696.1820000000006,355.5820000000002 L 696.4490000000006,355.38200000000023 L 696.9160000000006,355.3420000000002 L 697.3030000000006,355.4620000000002 L 697.5430000000006,355.5950000000002 L 697.7030000000005,355.5020000000002 L 697.7030000000005,355.1550000000002 L 697.8490000000005,354.9820000000002 L 698.0890000000005,354.9160000000002 L 698.4230000000005,355.1830000000002 L 698.5960000000005,355.3830000000002 L 698.8100000000005,355.4360000000002 L 699.2230000000005,355.5300000000002 L 699.5430000000006,355.6230000000002 L 699.8100000000006,355.5030000000002 L 699.9980000000006,355.4360000000002 L 700.1710000000006,355.7160000000002 L 700.3310000000006,355.9830000000002 L 700.5580000000006,356.1030000000002 L 700.8380000000005,356.30300000000017 L 700.9180000000006,356.5160000000002 L 700.8520000000005,356.74300000000017 L 700.8920000000005,356.9830000000002 L 700.8780000000005,357.1560000000002 L 700.7580000000005,357.38300000000015 L 700.7450000000005,357.5430000000002 L 700.6110000000004,357.7300000000002 L 700.5850000000005,357.9300000000002 L 700.5980000000005,358.27700000000016 L 700.4920000000005,358.54400000000015 L 700.3860000000005,358.7980000000002 L 700.3060000000005,358.9850000000002 L 700.2520000000005,359.2780000000002 L 700.0520000000005,359.3850000000002 L 699.8330000000004,359.4810000000002 L 699.5530000000005,359.61500000000024 L 699.5530000000005,359.88200000000023 L 699.4470000000005,360.05500000000023 L 699.1940000000004,360.04200000000026 L 698.9140000000004,360.05500000000023 L 698.7800000000004,360.17500000000024 L 698.8060000000004,360.32200000000023 L 698.9260000000004,360.53500000000025 L 698.9940000000004,360.8150000000002 L 698.8780000000004,361.3150000000002 L 698.6030000000004,361.61500000000024 L 698.4360000000004,361.6810000000002 L 698.1690000000003,361.61500000000024 L 697.8690000000004,361.5150000000002 L 697.6850000000004,361.59800000000024 L 697.4180000000003,361.64800000000025 L 697.2590000000004,361.69800000000026 L 697.1930000000003,361.8560000000003 L 697.2520000000003,362.0890000000003 L 697.3520000000003,362.2970000000003 L 697.4690000000003,362.4890000000003 L 697.6530000000002,362.7890000000003 L 697.6020000000002,362.9720000000003 L 697.4600000000002,363.0970000000003 L 697.2600000000001,363.18000000000035 L 697.2270000000001,363.3640000000004 L 697.2520000000001,363.58100000000036 L 697.6020000000001,364.05800000000033 L 697.936,364.40800000000036 L 698.566,364.45000000000033 L 698.582,364.5540000000003 L 698.412,364.9440000000003 L 698.4050000000001,365.1160000000003 L 698.6750000000001,365.4150000000003 L 698.738,365.7020000000003 L 698.913,365.84500000000025 L 699.0,366.14100000000025 L 698.946,366.3510000000002 L 698.673,366.42200000000025 L 698.292,366.7500000000002 L 698.051,366.71300000000025 L 698.0310000000001,366.69900000000024 L 698.0310000000001,366.70300000000026 L 697.892,366.71600000000024 L 697.773,366.78700000000026 L 697.604,367.0770000000003 L 697.409,367.1530000000003 L 697.188,367.17600000000033 L 696.96,366.99800000000033 L 696.773,366.81200000000035 L 696.722,366.70900000000034 L 696.675,366.5130000000003 L 696.574,366.38500000000033 L 696.38,366.44500000000033 L 696.085,366.4720000000003 L 695.7660000000001,366.5150000000003 L 695.7070000000001,366.55800000000033 L 695.7010000000001,366.64100000000036 L 695.7790000000001,366.81700000000035 L 695.8450000000001,367.04600000000033 L 695.8850000000001,367.3660000000003 L 695.9710000000001,367.5780000000003 L 695.9980000000002,367.6450000000003 L 696.5090000000001,368.28100000000035 L 696.6430000000001,368.41000000000037 L 696.6710000000002,368.49500000000035 L 696.6260000000002,368.72600000000034 L 696.5340000000002,368.9960000000003 L 696.5530000000002,369.2100000000003 L 696.7230000000002,369.4460000000003 L 696.8610000000002,369.61100000000033 L 696.7260000000002,369.8330000000003 L 696.6460000000002,370.0900000000003 L 696.7360000000002,370.2050000000003 L 696.6940000000002,370.57400000000035 L 696.7340000000002,370.64300000000037 L 696.8290000000002,370.67200000000037 L 696.9770000000002,370.6470000000004 L 697.1310000000002,370.5490000000004 L 697.2620000000002,370.53000000000037 L 697.3400000000001,370.5580000000004 L 697.4440000000002,370.2790000000004 L 697.5360000000002,370.2390000000004 L 697.7140000000002,370.3160000000004 L 698.0660000000001,370.8420000000004 L 698.3640000000001,371.2860000000004 L 698.4510000000001,371.3700000000004 L 698.5040000000001,371.4210000000004 L 698.7980000000001,371.6510000000004 L 699.0010000000001,371.7960000000004 L 699.2780000000001,371.74400000000037 L 699.6440000000001,371.7340000000004 L 699.8610000000001,371.8760000000004 L 699.9860000000001,371.97500000000036 L 700.0080000000002,371.99300000000034 L 700.4480000000002,372.34100000000035 L 700.6380000000003,372.31500000000034 L 700.7640000000002,372.41500000000036 L 700.8000000000002,372.66000000000037 L 700.7410000000002,372.91500000000036 L 700.7550000000002,373.03500000000037 L 700.9510000000002,373.0580000000004 L 701.3680000000003,373.2260000000004 L 701.7360000000003,373.3750000000004 L 701.9270000000004,373.4220000000004 L 702.1320000000004,373.53200000000044 L 702.3140000000004,373.7080000000004 L 702.6690000000004,373.9340000000004 L 702.9830000000004,374.1070000000004 L 703.0520000000004,374.3410000000004 L 703.1790000000003,374.5520000000004 L 703.3330000000003,374.75300000000044 L 703.5210000000003,374.74300000000045 L 703.7400000000004,374.5710000000004 L 704.1940000000003,373.7810000000004 L 704.8250000000003,373.6190000000004 L 705.4230000000002,373.7010000000004 L 705.9520000000002,373.81600000000043 L 706.1080000000002,374.08000000000044 L 706.2100000000002,374.35800000000046 L 706.2760000000002,374.4990000000005 L 706.4500000000002,374.6650000000005 L 707.1960000000001,375.06000000000046 L 707.6290000000001,375.4150000000005 L 708.2290000000002,375.8910000000005 L 708.6760000000002,376.1000000000005 L 709.0730000000002,376.11800000000045 L 709.2970000000003,376.30500000000046 L 709.6340000000002,376.67600000000044 L 709.9190000000002,377.10100000000045 L 710.2740000000002,377.4940000000004 L 710.5200000000002,377.48100000000045 L 710.8550000000002,377.35400000000044 L 711.2630000000003,377.18700000000047 L 711.5040000000002,377.26900000000046 L 711.7270000000002,377.37700000000046 L 711.8010000000002,377.5810000000005 L 711.9360000000001,377.96400000000045 L 712.0840000000002,378.3620000000005 L 712.3180000000002,378.5010000000005 L 712.5950000000003,378.7050000000005 L 712.7480000000003,378.8680000000005 L 713.2680000000003,379.16500000000053 L 713.3410000000002,379.2860000000005 L 713.4460000000003,379.36900000000054 L 713.5730000000002,379.42100000000056 L 713.6770000000002,379.48200000000054 L 713.8410000000002,379.50300000000055 L 714.4420000000002,379.32500000000056 L 714.6020000000002,379.34700000000055 L 714.6940000000002,379.38000000000056 L 714.6970000000002,379.44500000000056 L 714.5890000000003,379.7230000000006 L 714.4970000000003,380.0790000000006 L 714.5920000000003,380.2570000000006 L 714.8440000000003,380.3310000000006 L 715.4010000000003,380.3840000000006 L 716.1520000000003,380.3790000000006 L 716.3810000000003,380.5590000000006 L 716.6080000000003,380.8290000000006 L 716.8370000000003,381.2900000000006 L 716.9280000000003,381.4840000000006 L 717.0410000000004,381.5400000000006 L 717.2360000000004,381.4630000000006 L 717.2680000000005,381.27400000000057 L 717.2770000000005,380.9920000000006 L 717.4410000000005,380.8950000000006 L 717.5450000000005,380.96600000000063 L 717.6670000000005,381.18600000000066 L 717.9780000000005,381.38400000000064 L 718.2030000000005,381.48200000000065 L 718.4170000000006,381.44800000000066 L 718.5070000000006,381.37200000000064 L 718.6120000000006,380.98700000000065 L 718.7810000000006,380.93100000000067 L 718.9940000000006,380.95600000000064 L 719.0760000000006,381.03300000000064 L 719.1620000000006,381.18600000000066 L 719.4210000000006,381.25900000000064 L 719.6780000000006,381.3560000000006 L 719.9190000000006,381.4820000000006 L 720.2600000000006,381.7670000000006 L 720.6790000000005,381.81900000000064 L 721.1660000000005,381.81300000000067 L 721.4220000000005,381.81900000000064 L 721.6100000000005,381.84000000000066 L 721.7790000000005,381.8200000000007 L 722.2780000000005,381.61600000000067 L 722.4820000000004,381.6010000000007 L 722.7350000000005,381.6240000000007 L 722.9770000000004,381.6650000000007 L 722.9470000000005,381.5580000000007 L 722.9750000000005,381.4680000000007 L 723.0650000000005,381.4180000000007 L 723.4410000000005,381.3550000000007 L 723.8650000000005,381.2200000000007 L 724.0340000000004,381.1480000000007 L 724.1610000000004,381.0760000000007 L 724.2910000000004,380.9620000000007 L 724.4120000000004,380.9670000000007 L 724.7920000000004,381.13200000000074 L 724.9250000000004,381.23600000000073 L 724.9950000000005,381.5510000000007 L 725.0520000000005,381.67300000000074 L 725.0,382.0 L 724.772,382.774 L 724.817,383.063 L 725.006,383.274 L 725.1709999999999,383.421 L 725.329,382.956 L 725.548,382.78700000000003 L 725.764,382.552 L 725.927,382.178 L 726.241,381.793 L 726.587,381.398 L 726.825,381.076 L 726.9820000000001,380.92600000000004 L 727.3070000000001,380.76500000000004 L 727.5790000000002,380.67100000000005 L 727.7670000000002,380.45500000000004 L 727.9950000000001,380.33500000000004 L 728.2280000000001,380.28100000000006 L 728.575,380.31000000000006 L 728.9010000000001,380.38700000000006 L 729.258,380.4940000000001 L 729.2990000000001,380.5810000000001 L 729.2690000000001,380.7340000000001 L 729.2170000000001,380.88900000000007 L 729.2160000000001,380.96900000000005 L 729.2710000000001,381.01300000000003 L 729.6210000000001,381.043 L 730.0500000000001,381.019 L 730.2900000000001,381.04 L 730.826,381.183 L 730.982,381.28499999999997 L 731.146,381.36199999999997 L 731.3059999999999,381.34799999999996 L 731.5079999999999,381.18199999999996 L 731.7209999999999,381.04099999999994 L 731.8539999999999,381.01899999999995 L 731.949,381.06399999999996 L 732.1189999999999,381.198 L 732.473,381.32399999999996 L 732.7869999999999,381.419 L 732.8899999999999,381.50899999999996 L 732.8549999999999,381.89599999999996 L 732.8619999999999,382.025 L 733.0889999999998,382.025 L 733.4029999999998,382.06699999999995 L 733.6409999999998,382.11999999999995 L 733.8319999999999,382.11799999999994 L 734.1789999999999,381.8739999999999 L 734.3369999999999,381.8589999999999 L 734.5189999999999,381.81299999999993 L 734.5979999999998,381.76699999999994 L 734.6529999999998,381.80299999999994 L 734.8519999999997,381.8329999999999 L 735.0589999999997,381.8209999999999 L 735.2439999999997,381.7539999999999 L 735.4299999999997,381.6489999999999 L 735.7599999999998,381.42899999999986 L 735.8249999999998,381.3029999999999 L 735.8249999999998,381.1869999999999 L 735.7629999999998,381.1099999999999 L 735.6999999999998,381.0729999999999 L 735.7249999999998,380.9719999999999 L 735.8639999999998,380.8019999999999 L 736.3689999999998,380.54599999999994 L 736.7989999999998,380.22999999999996 L 737.0349999999997,379.99299999999994 L 737.1429999999997,379.70599999999996 L 737.2799999999996,379.39399999999995 L 737.4079999999997,379.27099999999996 L 737.7129999999996,379.193 L 738.5669999999997,379.078 L 738.8359999999997,378.952 L 739.2329999999997,378.718 L 739.4329999999998,378.534 L 739.5439999999998,378.385 L 739.5559999999997,378.219 L 739.8199999999997,378.167 L 740.0499999999997,377.89799999999997 L 740.3289999999997,377.62699999999995 L 740.8199999999997,377.39799999999997 L 741.2549999999997,377.09 L 741.4059999999996,377.13899999999995 L 741.5639999999996,377.28499999999997 L 741.6479999999996,377.44599999999997 L 741.6659999999996,377.52799999999996 L 742.2219999999996,377.62999999999994 L 742.3099999999996,377.6139999999999 L 742.7189999999996,377.7579999999999 L 743.0959999999995,377.9319999999999 L 743.3039999999995,377.9749999999999 L 743.4059999999995,377.9699999999999 L 743.4929999999995,377.91599999999994 L 743.5949999999995,377.7629999999999 L 743.6989999999995,377.65199999999993 L 743.7639999999996,377.6069999999999 L 743.7609999999995,377.4309999999999 L 744.3069999999996,377.08699999999993 L 744.7969999999996,376.8399999999999 L 745.2189999999996,376.6599999999999 L 745.3429999999996,376.7339999999999 L 745.4799999999996,376.8709999999999 L 745.6669999999996,377.2199999999999 L 745.7799999999996,377.3049999999999 L 746.0659999999996,377.2559999999999 L 746.1189999999996,377.2949999999999 L 746.0739999999996,377.4199999999999 L 745.8799999999997,377.5749999999999 L 745.6279999999997,377.7139999999999 L 745.4639999999997,377.82799999999986 L 745.5179999999997,378.2069999999999 L 745.5049999999997,378.3369999999999 L 745.5759999999997,378.3779999999999 L 746.0939999999997,378.0019999999999 L 746.3429999999997,377.9279999999999 L 746.4319999999998,378.0189999999999 L 746.4589999999998,378.2199999999999 L 746.6639999999999,378.6339999999999 L 746.7509999999999,378.8439999999999 L 746.2299999999999,379.3439999999999 L 746.0389999999999,379.60199999999986 L 746.0459999999998,379.69299999999987 L 746.0359999999998,379.78299999999984 L 745.9029999999998,379.91099999999983 L 745.9099999999997,379.9619999999998 L 746.0169999999997,380.04299999999984 L 746.1479999999997,380.1039999999998 L 746.2109999999997,380.1019999999998 L 746.3189999999996,379.9809999999998 L 746.8099999999996,379.80999999999983 L 746.9509999999996,379.8419999999998 L 747.2969999999996,380.1039999999998 L 747.4569999999995,380.1189999999998 L 747.8719999999995,380.1969999999998 L 748.1379999999995,380.0979999999998 L 748.3329999999995,380.1889999999998 L 748.7379999999995,380.51699999999977 L 748.8309999999994,380.57699999999977 L 748.9269999999995,380.4609999999998 L 749.1369999999995,380.1459999999998 L 749.2669999999995,379.9179999999998 L 749.3349999999995,379.8209999999998 L 749.4359999999995,379.6499999999998 L 749.6079999999995,379.6289999999998 L 749.7759999999995,379.68299999999977 L 749.8759999999995,379.77999999999975 L 749.9759999999995,379.9779999999997 L 750.0849999999996,380.1399999999997 L 750.2189999999996,380.1399999999997 L 750.3549999999996,380.1169999999997 L 750.4179999999996,380.13899999999967 L 750.5479999999995,380.27399999999966 L 750.7959999999996,380.5979999999997 L 750.9059999999996,380.67999999999967 L 751.0099999999996,380.81799999999964 L 751.0649999999996,381.09399999999965 L 751.0989999999996,381.37099999999964 L 751.4099999999996,382.33199999999965 L 751.5029999999996,382.53399999999965 L 751.5719999999995,382.68799999999965 L 751.7169999999995,382.72599999999966 L 751.8349999999996,382.57199999999966 L 751.8809999999996,382.40699999999964 L 752.0029999999996,382.35099999999966 L 752.1489999999995,382.38099999999963 L 752.4169999999996,382.5349999999996 L 752.5609999999996,382.61799999999965 L 752.6329999999996,383.09199999999964 L 752.6489999999995,383.64699999999965 L 752.6279999999996,383.8189999999997 L 752.7449999999995,384.27599999999967 L 752.7809999999995,384.79999999999967 L 752.8059999999995,385.08699999999965 L 752.8089999999995,385.3599999999997 L 752.7879999999996,385.7179999999997 L 752.7249999999996,386.19699999999966 L 752.6199999999995,386.60599999999965 L 752.6579999999996,386.94599999999963 L 752.5949999999996,387.1009999999996 L 752.3389999999996,387.1799999999996 L 752.3169999999996,387.3099999999996 L 752.3919999999996,387.5229999999996 L 752.5709999999996,387.7899999999996 L 752.5759999999996,387.95799999999963 L 752.4889999999996,388.0719999999996 L 752.3009999999996,388.08299999999963 L 752.0399999999996,388.1889999999996 L 751.8599999999997,388.5329999999996 L 751.6699999999996,388.8149999999996 L 751.5659999999996,388.8709999999996 L 751.2179999999996,388.7909999999996 L 751.1349999999996,388.8629999999996 L 751.0129999999997,389.3429999999996 L 750.9129999999997,389.5499999999996 L 750.7639999999997,389.7239999999996 L 750.6269999999997,389.8269999999996 L 750.5029999999997,389.8989999999996 L 750.2269999999997,389.8509999999996 L 750.0809999999998,390.1399999999996 L 749.9349999999998,390.52099999999956 L 749.9229999999999,390.71799999999956 L 749.9989999999999,391.02799999999957 L 749.959,391.1139999999996 L 749.81,391.1809999999996 L 749.5649999999999,391.3199999999996 L 749.414,391.76099999999957 L 749.42,392.18899999999957 L 749.51,392.3349999999996 L 749.679,392.3989999999996 L 749.8,392.5299999999996 L 749.8119999999999,392.7359999999996 L 749.9159999999999,392.9929999999996 L 749.867,393.2919999999996 L 749.5229999999999,393.7269999999996 L 749.5129999999999,393.9639999999996 L 749.6959999999999,394.0369999999996 L 749.8539999999999,394.0029999999996 L 750.049,393.8999999999996 L 750.278,393.7339999999996 L 750.782,393.49199999999956 L 751.331,393.3539999999996 L 751.765,393.3279999999996 L 752.136,393.33799999999957 L 752.318,393.38899999999956 L 752.3729999999999,393.47799999999955 L 752.881,393.33699999999953 L 752.987,393.32899999999955 L 753.079,393.3209999999996 L 753.0759999999999,393.41499999999957 L 752.704,393.80199999999957 L 752.635,393.9819999999996 L 752.6469999999999,394.17499999999956 L 752.799,394.35399999999953 L 752.946,394.4919999999995 L 753.071,394.8379999999995 L 752.974,395.1539999999995 L 753.0360000000001,395.2689999999995 L 753.1450000000001,395.3979999999995 L 753.2110000000001,395.57999999999953 L 753.2200000000001,395.80099999999953 L 753.1580000000001,396.15399999999954 L 753.6950000000002,396.33799999999957 L 754.1590000000002,396.4209999999996 L 754.4970000000002,396.4429999999996 L 754.7140000000002,396.5239999999996 L 754.8450000000001,396.5939999999996 L 754.9370000000001,396.7199999999996 L 754.9640000000002,396.85799999999955 L 754.8510000000001,396.95499999999953 L 754.6220000000001,397.26399999999956 L 754.4900000000001,397.67699999999957 L 754.5040000000001,397.9859999999996 L 754.4880000000002,398.25399999999956 L 754.2220000000002,398.6399999999996 L 754.1170000000002,398.9049999999996 L 754.0240000000002,399.1759999999996 L 754.0270000000003,399.2939999999996 L 754.0820000000002,399.3759999999996 L 754.1950000000003,399.4239999999996 L 754.3910000000003,399.4529999999996 L 754.6310000000003,399.42199999999957 L 755.2030000000003,399.48699999999957 L 755.8560000000003,399.6059999999996 L 756.1150000000004,399.6709999999996 L 756.2000000000004,399.7909999999996 L 756.1790000000004,400.0519999999996 L 756.1380000000004,400.2949999999996 L 756.1800000000004,400.48199999999963 L 756.2850000000004,400.6529999999996 L 756.4620000000004,400.70999999999964 L 756.6140000000005,400.7759999999996 L 756.6430000000005,400.9069999999996 L 756.5960000000005,401.0849999999996 L 756.6730000000005,401.22499999999957 L 756.7600000000004,401.31699999999955 L 756.9480000000004,401.36999999999955 L 757.3290000000004,401.2559999999996 L 757.5960000000005,401.30699999999956 L 757.8370000000004,401.38499999999954 L 758.0420000000005,401.34399999999954 L 758.2450000000005,401.2439999999995 L 758.6890000000004,400.7929999999995 L 759.2060000000005,400.54899999999947 L 759.3760000000004,400.4909999999995 L 759.4900000000005,400.51999999999947 L 759.5180000000005,400.5509999999995 L 759.5110000000005,400.64299999999946 L 759.5650000000005,401.01399999999944 L 759.5420000000005,401.0559999999994 L 759.7040000000005,401.19199999999944 L 759.6430000000005,401.53499999999946 L 759.7280000000005,401.60799999999944 L 759.7680000000005,401.7309999999994 L 759.7460000000004,401.92299999999943 L 759.7820000000004,402.0869999999994 L 759.8470000000004,402.1659999999994 L 759.9410000000005,402.20599999999945 L 760.3960000000005,402.06599999999946 L 760.6730000000006,402.0559999999995 L 760.7900000000005,402.14799999999946 L 760.8950000000006,402.2049999999995 L 761.0270000000005,402.24899999999946 L 761.1290000000005,402.3079999999995 L 761.1940000000005,402.2889999999995 L 761.3490000000005,402.1459999999995 L 761.3970000000005,402.1209999999995 L 761.4020000000005,402.05099999999953 L 761.2930000000005,401.9219999999995 L 761.1800000000004,401.8139999999995 L 761.1840000000004,401.5739999999995 L 761.2380000000004,401.1579999999995 L 761.2490000000004,400.9419999999995 L 761.2390000000004,400.4239999999995 L 761.2180000000004,400.2779999999995 L 761.1140000000004,400.1099999999995 L 760.8430000000004,399.7869999999995 L 760.7670000000004,399.5899999999995 L 760.7230000000004,399.3929999999995 L 760.7280000000004,399.2679999999995 L 760.6590000000004,399.12499999999955 L 760.6240000000005,398.99299999999954 L 760.7450000000005,398.92499999999956 L 760.8910000000004,398.77099999999956 L 760.9650000000004,398.53599999999955 L 761.0350000000004,398.3639999999995 L 761.1370000000004,398.29099999999954 L 761.2250000000004,398.26499999999953 L 761.2850000000003,398.2799999999995 L 761.5140000000004,398.5879999999995 L 761.8050000000004,398.4339999999995 L 762.0260000000004,398.4339999999995 L 762.2140000000004,398.5159999999995 L 762.3160000000004,398.61599999999953 L 762.4520000000003,398.5089999999995 L 762.6230000000004,398.35399999999953 L 762.8070000000004,398.1119999999995 L 763.0130000000004,397.80799999999954 L 763.0990000000004,397.62199999999956 L 763.1600000000004,397.54699999999957 L 763.2810000000004,397.49199999999956 L 763.4110000000004,397.52199999999954 L 763.6390000000004,397.6449999999995 L 763.9830000000004,397.8019999999995 L 764.2900000000004,397.9879999999995 L 764.4140000000004,398.1749999999995 L 764.5850000000005,398.3539999999995 L 764.7160000000005,398.40799999999945 L 764.7820000000005,398.39399999999944 L 764.9790000000005,398.25899999999945 L 765.1490000000005,398.12399999999946 L 765.1530000000005,397.97099999999944 L 765.3090000000004,397.83299999999946 L 765.5130000000004,397.6059999999995 L 765.6100000000004,397.4519999999995 L 765.6830000000003,397.43599999999947 L 765.7660000000003,397.4809999999995 L 766.0880000000003,397.9569999999995 L 766.1500000000003,397.9859999999995 L 766.2410000000003,397.91499999999945 L 766.3680000000003,397.54299999999944 L 766.5080000000003,397.39899999999943 L 766.5560000000003,397.43499999999943 L 767.3350000000003,398.13599999999946 L 767.4090000000002,398.13099999999946 L 767.4930000000002,398.09999999999945 L 767.5480000000001,397.99199999999945 L 767.6090000000002,397.74899999999946 L 767.7250000000001,397.48899999999946 L 767.9750000000001,397.3439999999995 L 768.1700000000002,397.31599999999946 L 768.2420000000002,397.4399999999995 L 768.4110000000002,397.6109999999995 L 768.6160000000002,397.6349999999995 L 769.0520000000002,397.3319999999995 L 769.1950000000003,397.2839999999995 L 769.3470000000003,397.2889999999995 L 769.5020000000003,397.2769999999995 L 769.6500000000003,397.1609999999995 L 769.8060000000003,397.00799999999947 L 769.8590000000003,396.70599999999945 L 769.8920000000003,396.43499999999943 L 769.9990000000003,396.3249999999994 L 770.1270000000003,396.25199999999944 L 770.3670000000003,396.14899999999943 L 770.9090000000003,395.88599999999946 L 771.0490000000003,395.76099999999946 L 771.1520000000003,395.69099999999946 L 771.3630000000003,395.80499999999944 L 771.6150000000002,396.02499999999947 L 771.7670000000003,396.19099999999946 L 771.8690000000003,396.36999999999944 L 771.9180000000002,396.51899999999944 L 772.3190000000002,396.64899999999943 L 772.5750000000002,396.83299999999946 L 772.7450000000001,396.9739999999995 L 772.9130000000001,396.9679999999995 L 773.0810000000001,396.9299999999995 L 773.1890000000001,396.8169999999995 L 773.378,396.8149999999995 L 773.6020000000001,396.8319999999995 L 773.7020000000001,396.8769999999995 L 773.8870000000001,397.1369999999995 L 773.97,397.1729999999995 L 774.135,397.1549999999995 L 774.452,397.06299999999953 L 774.707,397.01899999999955 L 774.937,397.12299999999954 L 775.375,397.4119999999995 L 775.252,397.61799999999954 L 775.154,397.8399999999995 L 774.962,397.9959999999995 L 774.8199999999999,398.0349999999995 L 774.7299999999999,398.2519999999995 L 774.6899999999999,398.5719999999995 L 774.7389999999999,398.7349999999995 L 774.8489999999999,398.7869999999995 L 774.9709999999999,398.8949999999995 L 775.0209999999998,399.0379999999995 L 775.0379999999999,399.3539999999995 L 775.031,399.70999999999947 L 775.048,399.82799999999946 L 775.143,399.8059999999995 L 775.2330000000001,399.7639999999995 L 775.4150000000001,399.8189999999995 L 775.6410000000001,399.9119999999995 L 775.7840000000001,400.0059999999995 L 775.9120000000001,399.9939999999995 L 776.0120000000002,400.0859999999995 L 776.0490000000002,400.2619999999995 L 776.1670000000003,400.3849999999995 L 776.4950000000002,400.6159999999995 L 776.7580000000003,400.63599999999946 L 776.9800000000002,400.94099999999946 L 777.2100000000003,400.84099999999944 L 777.3160000000003,400.97299999999944 L 777.7930000000002,400.92699999999945 L 778.1250000000002,400.80299999999943 L 778.2440000000003,400.8319999999994 L 778.5430000000002,401.08599999999944 L 778.7240000000003,401.24399999999946 L 778.9900000000002,401.1899999999995 L 779.2100000000003,401.0719999999995 L 779.4920000000003,401.0929999999995 L 779.6490000000003,400.90199999999953 L 779.7120000000003,400.68699999999956 L 779.7950000000003,400.67699999999957 L 779.8740000000003,400.72999999999956 L 780.0470000000003,400.9459999999996 L 780.2090000000003,400.8679999999996 L 780.2750000000003,400.7539999999996 L 780.1820000000004,400.5499999999996 L 780.1490000000003,400.2809999999996 L 780.1470000000004,400.0529999999996 L 780.4660000000003,400.0639999999996 L 780.5280000000004,400.1609999999996 L 780.4540000000004,400.3199999999996 L 780.5280000000004,400.4569999999996 L 780.6930000000003,400.5939999999996 L 780.8880000000004,400.8149999999996 L 780.9650000000004,400.8779999999996 L 781.1750000000004,400.8659999999996 L 781.3860000000004,400.89599999999956 L 781.6920000000005,400.8899999999996 L 781.8920000000005,400.9979999999996 L 781.9810000000006,401.1389999999996 L 781.8810000000005,401.3069999999996 L 781.8350000000005,401.44799999999964 L 782.0230000000005,401.4919999999996 L 782.2250000000005,401.43799999999965 L 782.5790000000005,401.40599999999966 L 782.8290000000005,401.32899999999967 L 783.1340000000005,401.15399999999966 L 783.0710000000005,400.68799999999965 L 783.1970000000005,400.69599999999963 L 783.2750000000004,400.7519999999996 L 783.5350000000004,401.1939999999996 L 783.6930000000004,401.1839999999996 L 783.7380000000004,401.08699999999965 L 783.9350000000004,401.31599999999963 L 784.2190000000004,401.32499999999965 L 784.1920000000003,401.63699999999966 L 783.7960000000004,401.7539999999997 L 783.7410000000004,402.0809999999997 L 783.5190000000005,402.3709999999997 L 783.5840000000005,402.6069999999997 L 783.4660000000005,403.0129999999997 L 783.5290000000005,403.1419999999997 L 783.6450000000004,403.2459999999997 L 783.7610000000004,403.4189999999997 L 783.8660000000004,403.6259999999997 L 783.8290000000004,403.8929999999997 L 784.0230000000004,404.2139999999997 L 784.2620000000004,404.33299999999974 L 784.3240000000004,404.4109999999997 L 784.3680000000004,404.54499999999973 L 784.2220000000004,404.5579999999997 L 784.0930000000004,404.51599999999974 L 784.0830000000004,404.66199999999975 L 784.2400000000005,404.86699999999973 L 784.7590000000005,404.95999999999975 L 785.3810000000004,404.86799999999977 L 785.6750000000004,404.68799999999976 L 785.7790000000005,404.47499999999974 L 785.8650000000005,404.37599999999975 L 785.8480000000004,404.20299999999975 L 785.2910000000004,403.7449999999997 L 785.3280000000004,403.6009999999997 L 785.4520000000005,403.5049999999997 L 785.5020000000004,403.3899999999997 L 785.4380000000004,403.2489999999997 L 784.9190000000004,403.1859999999997 L 784.8450000000005,402.9289999999997 L 784.9560000000005,402.65099999999967 L 785.3420000000004,402.3709999999997 L 785.4640000000004,402.2479999999997 L 785.5270000000004,402.0229999999997 L 785.5650000000004,401.75199999999967 L 785.6310000000004,401.78599999999966 L 785.6960000000005,402.07399999999967 L 785.8260000000005,402.1429999999997 L 786.0030000000005,402.1229999999997 L 786.2410000000006,401.9279999999997 L 786.5750000000005,401.6059999999997 L 786.8750000000005,401.5779999999997 L 787.2090000000004,401.4749999999997 L 787.2660000000004,401.23099999999965 L 787.3900000000004,401.23299999999966 L 787.5000000000005,401.31199999999967 L 787.6230000000005,401.31999999999965 L 787.8370000000006,401.2849999999996 L 788.1130000000005,401.30799999999965 L 788.3190000000005,401.16199999999964 L 788.9090000000006,401.08999999999963 L 789.1310000000005,400.9419999999996 L 789.2160000000006,400.8019999999996 L 789.3960000000005,400.6099999999996 L 789.5330000000005,400.63799999999964 L 789.6700000000004,400.61599999999964 L 789.8180000000004,400.43799999999965 L 789.8680000000004,400.21699999999964 L 790.0960000000003,400.2369999999996 L 790.3550000000004,400.34699999999964 L 790.5680000000003,400.47699999999963 L 790.8810000000003,400.54099999999966 L 791.0260000000003,400.4629999999997 L 791.1200000000003,400.3619999999997 L 791.0860000000004,400.01199999999966 L 791.0350000000003,399.82899999999967 L 791.1380000000003,399.8189999999997 L 791.2310000000002,399.88899999999967 L 791.2600000000002,399.98099999999965 L 791.2080000000002,400.1219999999997 L 791.4150000000002,400.3089999999997 L 791.6720000000001,400.4339999999997 L 791.8060000000002,400.30499999999967 L 791.8810000000002,400.18599999999964 L 792.0630000000002,400.0569999999996 L 792.2960000000002,399.9299999999996 L 792.5630000000002,400.1199999999996 L 792.7040000000002,400.04199999999963 L 792.7880000000001,399.9489999999996 L 792.8560000000001,399.4039999999996 L 793.0830000000001,399.1369999999996 L 793.2520000000001,399.5369999999996 L 793.581,399.4949999999996 L 793.754,399.3239999999996 L 793.864,399.2659999999996 L 794.0,399.2249999999996 L 794.162,399.1769999999996 L 794.178,399.17399999999964 L 794.184,399.10799999999966 L 794.221,399.0349999999997 L 794.313,399.0219999999997 L 794.369,399.0879999999997 L 794.376,399.0849999999997 L 794.452,398.8679999999997 L 794.487,398.7069999999997 L 794.382,398.54499999999973 L 794.387,397.9709999999997 L 794.1959999999999,397.6739999999997 L 794.0969999999999,397.5719999999997 L 794.0469999999999,397.38099999999974 L 793.8029999999999,397.15299999999974 L 793.7819999999999,397.0789999999997 L 793.7629999999999,397.00899999999973 L 794.0749999999999,396.92199999999974 L 794.127,396.75499999999977 L 794.084,396.57499999999976 L 794.2929999999999,396.4319999999998 L 794.5759999999999,396.3549999999998 L 794.4959999999999,396.5079999999998 L 794.4799999999999,396.67999999999984 L 794.5279999999999,396.8349999999998 L 794.5729999999999,397.1599999999998 L 794.6889999999999,397.3409999999998 L 794.9519999999999,397.5469999999998 L 795.1589999999999,397.9289999999998 L 795.4479999999999,398.1589999999998 L 795.6839999999999,398.2169999999998 L 795.6919999999999,398.2099999999998 L 795.7819999999999,398.1239999999998 L 795.9159999999999,398.0989999999998 L 795.986,398.05699999999985 L 796.169,398.05699999999985 L 796.281,398.08999999999986 L 796.387,398.12899999999985 L 796.5959999999999,397.97099999999983 L 796.8199999999999,398.0009999999998 L 797.0329999999999,398.1709999999998 L 797.1959999999999,398.16499999999985 L 797.1689999999999,397.88799999999986 L 797.2459999999999,397.7859999999999 L 797.3049999999998,397.6519999999999 L 797.4699999999998,397.47999999999985 L 797.6369999999998,397.52999999999986 L 797.7469999999998,397.86999999999983 L 798.0369999999998,397.89899999999983 L 798.1559999999998,397.83099999999985 L 798.2069999999999,397.69399999999985 L 798.4809999999999,397.61999999999983 L 798.7039999999998,397.3999999999998 L 798.9969999999998,397.2919999999998 L 799.2619999999998,397.4169999999998 L 799.5219999999998,397.5899999999998 L 799.8459999999998,397.5899999999998 L 799.9489999999997,397.4499999999998 L 800.0229999999997,397.2699999999998 L 800.2459999999996,397.1829999999998 L 800.5689999999996,397.2719999999998 L 800.8399999999996,397.3399999999998 L 801.4309999999996,397.1049999999998 L 801.6969999999995,397.0799999999998 L 801.8349999999996,396.9849999999998 L 801.8789999999996,396.8909999999998 L 801.9629999999995,396.7949999999998 L 802.2259999999995,396.9169999999998 L 802.5779999999995,396.9019999999998 L 802.7159999999996,396.7179999999998 L 802.7679999999996,396.1929999999998 L 802.9029999999996,396.0759999999998 L 803.1349999999995,396.0459999999998 L 803.2179999999995,395.89599999999984 L 803.1719999999995,395.74499999999983 L 803.0239999999994,395.6639999999998 L 803.2559999999994,395.64399999999983 L 803.3889999999994,395.5769999999998 L 803.6729999999994,395.36299999999983 L 803.8129999999994,394.77399999999983 L 804.1559999999994,394.84499999999986 L 804.2959999999994,394.9809999999999 L 804.4809999999993,394.9199999999999 L 804.6969999999993,394.7729999999999 L 804.8819999999993,394.5679999999999 L 804.9929999999993,394.5849999999999 L 805.0379999999992,394.80799999999994 L 805.0979999999992,394.95199999999994 L 805.2359999999992,394.85299999999995 L 805.3629999999991,394.50199999999995 L 805.3559999999992,394.3949999999999 L 805.2819999999992,394.3329999999999 L 805.3749999999992,394.1839999999999 L 805.6919999999992,394.1339999999999 L 805.8289999999992,394.1959999999999 L 805.9399999999991,393.8829999999999 L 806.1469999999991,393.65199999999993 L 806.4209999999991,393.6599999999999 L 806.6029999999992,393.3719999999999 L 807.0299999999992,392.9449999999999 L 807.0139999999992,392.6969999999999 L 806.9409999999992,392.5359999999999 L 806.5329999999992,392.4859999999999 L 806.4469999999992,392.37399999999985 L 806.4309999999992,392.24599999999987 L 806.5819999999992,392.22899999999987 L 806.6889999999992,392.24699999999984 L 806.8879999999991,392.22299999999984 L 806.9099999999992,391.98399999999987 L 807.1149999999992,391.77799999999985 L 807.4169999999992,391.78099999999984 L 807.6999999999992,391.94399999999985 L 808.0269999999992,391.85799999999983 L 808.4429999999993,391.9209999999998 L 808.7139999999993,391.79499999999985 L 808.8889999999992,391.41199999999986 L 808.8119999999992,391.3009999999999 L 808.6669999999992,391.2189999999999 L 808.6569999999992,391.1369999999999 L 808.8549999999992,391.0929999999999 L 809.1759999999992,390.9049999999999 L 809.4199999999993,390.8499999999999 L 809.5509999999992,390.6169999999999 L 809.4359999999992,390.24099999999993 L 809.6129999999993,389.9869999999999 L 809.7449999999992,389.9429999999999 L 810.3379999999992,389.9969999999999 L 810.4779999999992,389.9159999999999 L 810.3609999999992,389.6849999999999 L 810.1519999999992,389.5349999999999 L 810.0879999999993,389.3539999999999 L 810.1829999999993,389.2439999999999 L 810.4159999999993,389.18799999999993 L 810.6429999999992,389.25499999999994 L 810.8619999999993,389.21299999999997 L 811.0789999999993,389.371 L 811.3419999999993,389.496 L 811.4259999999992,389.42499999999995 L 811.4159999999993,389.282 L 811.1919999999992,388.806 L 811.2289999999992,388.47299999999996 L 811.4099999999993,388.08799999999997 L 811.4979999999993,387.79099999999994 L 811.4149999999993,387.52799999999996 L 811.0839999999993,387.51 L 810.8509999999993,387.68 L 810.6109999999993,387.697 L 810.4199999999993,387.616 L 810.0699999999993,387.159 L 810.3309999999992,387.21299999999997 L 810.5579999999992,387.34299999999996 L 810.7169999999992,387.36899999999997 L 810.9799999999992,387.36699999999996 L 811.2709999999993,387.14099999999996 L 811.6239999999992,386.80199999999996 L 811.9179999999992,386.604 L 812.1529999999992,386.498 L 812.1389999999992,386.383 L 812.0379999999992,386.24899999999997 L 812.0119999999993,386.13599999999997 L 811.8819999999993,385.835 L 811.7169999999993,385.63899999999995 L 811.4709999999993,385.602 L 811.4299999999993,385.431 L 811.3349999999992,385.26 L 811.3299999999992,385.09 L 811.5079999999992,385.20799999999997 L 811.6729999999992,385.26599999999996 L 811.8309999999992,385.12199999999996 L 811.8929999999992,384.94499999999994 L 811.9929999999993,384.8979999999999 L 811.9679999999993,385.05099999999993 L 811.9859999999993,385.23999999999995 L 812.0449999999993,385.38899999999995 L 812.1489999999993,385.40899999999993 L 812.1569999999994,385.6359999999999 L 812.3969999999994,385.7109999999999 L 812.6079999999994,385.5629999999999 L 812.7309999999994,385.4449999999999 L 812.7599999999994,385.10399999999987 L 812.8759999999994,384.7739999999999 L 813.2689999999994,384.1129999999999 L 813.5669999999994,383.9299999999999 L 813.8019999999995,383.6139999999999 L 814.0019999999995,383.4189999999999 L 814.1919999999996,383.12299999999993 L 814.2529999999996,382.90399999999994 L 814.1359999999996,382.59299999999996 L 814.3529999999996,382.40799999999996 L 814.3429999999996,382.256 L 814.4099999999996,382.077 L 814.8239999999996,381.614 L 814.8239999999996,381.46799999999996 L 814.6299999999997,381.34299999999996 L 814.5849999999997,381.23999999999995 L 814.7689999999997,381.2289999999999 L 814.9919999999996,381.2589999999999 L 815.1779999999997,381.1549999999999 L 815.3939999999997,380.77399999999994 L 815.5709999999997,380.3519999999999 L 815.7039999999997,380.23799999999994 L 815.9029999999997,380.17599999999993 L 816.0589999999996,380.56999999999994 L 816.2889999999996,380.54499999999996 L 816.7259999999997,380.246 L 817.0059999999996,380.34799999999996 L 816.9839999999996,380.11199999999997 L 816.8049999999996,379.62199999999996 L 816.6279999999996,379.239 L 816.7509999999996,379.00899999999996 L 816.9509999999997,378.94199999999995 L 817.0619999999997,378.83699999999993 L 817.1529999999997,378.5709999999999 L 816.8089999999996,378.3139999999999 L 817.0919999999996,378.3649999999999 L 817.1999999999996,378.24599999999987 L 817.1589999999995,378.0629999999999 L 816.7549999999995,377.71799999999985 L 816.5499999999995,377.67699999999985 L 816.6599999999995,377.47899999999987 L 816.7909999999995,377.3389999999999 L 817.1339999999994,377.3409999999999 L 817.3069999999994,377.2769999999999 L 817.5129999999995,377.3749999999999 L 817.6889999999995,377.6839999999999 L 817.8699999999995,377.66399999999993 L 818.0119999999996,376.52599999999995 L 817.9359999999996,376.155 L 817.7869999999996,376.085 L 817.6009999999995,376.159 L 817.2329999999995,376.46 L 816.7149999999995,376.544 L 816.9069999999995,376.376 L 817.1929999999994,376.226 L 817.8359999999994,375.596 L 818.3339999999995,375.30400000000003 L 818.1489999999995,375.24800000000005 L 817.9439999999995,375.22700000000003 L 817.5739999999995,375.04 L 817.1959999999995,374.95300000000003 L 816.5079999999995,374.15400000000005 L 816.2489999999995,373.97400000000005 L 816.0179999999995,373.90400000000005 L 815.7409999999994,373.91200000000003 L 815.0259999999994,374.36800000000005 L 814.2649999999994,374.45700000000005 L 813.8749999999994,373.9080000000001 L 813.4759999999994,374.0880000000001 L 813.2179999999994,374.0370000000001 L 813.1279999999994,374.0800000000001 L 813.0329999999993,374.1070000000001 L 813.1759999999994,373.9700000000001 L 813.7489999999993,373.6330000000001 L 814.2549999999993,373.6230000000001 L 814.7919999999993,373.7400000000001 L 815.0059999999994,373.61700000000013 L 815.1199999999994,373.36700000000013 L 815.2859999999995,373.08000000000015 L 816.1629999999994,372.62100000000015 L 816.4689999999995,372.3290000000002 L 816.7739999999994,372.1620000000002 L 817.1889999999994,372.0880000000002 L 817.4539999999994,372.0670000000002 L 817.7579999999994,371.9150000000002 L 817.6359999999994,371.4440000000002 L 817.4999999999994,371.1140000000002 L 817.1479999999995,370.6020000000002 L 816.2789999999994,370.06000000000023 L 815.8689999999995,369.5920000000002 L 815.4489999999995,369.2920000000002 L 815.1189999999995,369.1910000000002 L 814.6989999999995,368.9620000000002 L 814.5979999999995,368.6230000000002 L 814.4949999999995,368.4220000000002 L 813.8819999999995,368.30300000000017 L 813.4619999999995,368.5260000000002 L 813.0239999999995,368.6770000000002 L 812.5869999999995,368.5780000000002 L 812.6929999999995,368.4990000000002 L 812.7619999999995,368.4470000000002 L 813.0019999999995,368.4800000000002 L 813.9439999999995,368.0200000000002 L 814.3389999999995,368.1020000000002 L 814.7069999999995,368.2640000000002 L 815.2169999999995,368.7990000000002 L 815.6999999999995,368.8880000000002 L 816.0389999999995,368.8210000000002 L 816.2789999999995,368.8340000000002 L 817.2019999999995,369.3160000000002 L 817.4339999999995,369.3580000000002 L 817.7219999999995,369.3450000000002 L 817.6939999999995,368.9740000000002 L 817.6279999999995,368.7000000000002 L 817.3989999999994,368.39400000000023 L 817.1829999999994,368.2020000000002 L 816.6669999999995,367.97100000000023 L 816.5559999999995,367.86500000000024 L 816.4239999999995,367.69100000000026 L 816.4159999999995,367.14400000000023 L 816.2489999999995,366.96800000000025 L 816.1129999999995,366.8610000000002 L 815.2609999999995,366.4980000000002 L 814.8779999999995,366.18500000000023 L 814.8769999999995,365.8440000000002 L 815.0009999999995,365.58100000000024 L 814.9279999999995,365.00400000000025 L 814.5439999999995,364.27000000000027 L 814.2109999999996,363.42000000000024 L 813.8989999999995,362.92500000000024 L 813.8849999999995,362.66200000000026 L 813.6769999999996,362.15800000000024 L 813.3879999999996,361.13800000000026 L 813.2309999999995,360.78300000000024 L 813.0469999999996,360.60800000000023 L 812.3799999999995,360.1950000000002 L 811.8359999999996,360.03100000000023 L 811.3119999999996,359.73900000000026 L 810.8739999999996,359.2910000000003 L 810.6629999999996,359.1710000000003 L 810.2399999999996,359.17400000000026 L 810.1399999999995,358.83300000000025 L 810.2819999999996,358.27700000000027 L 810.6669999999996,357.92900000000026 L 810.8819999999996,357.28700000000026 L 811.1539999999997,357.09100000000024 L 811.3829999999997,356.71000000000026 L 811.6959999999997,356.30200000000025 L 811.9509999999997,356.2020000000002 L 812.1069999999996,356.1130000000002 L 812.2349999999997,355.94200000000023 L 812.4229999999997,355.78000000000026 L 812.5599999999996,355.57600000000025 L 812.6369999999996,355.3630000000002 L 813.0979999999996,355.1090000000002 L 813.2829999999996,354.9380000000002 L 813.2259999999995,354.8590000000002 L 812.9929999999996,354.8230000000002 L 812.7479999999996,354.4720000000002 L 812.8119999999996,354.3630000000002 L 812.9979999999996,354.1830000000002 L 813.2419999999996,354.1010000000002 L 813.4039999999997,354.0940000000002 L 813.4479999999996,354.22800000000024 L 813.4109999999996,354.50200000000024 L 813.4609999999996,354.60900000000026 L 813.5869999999995,354.6970000000003 L 813.9409999999996,354.5070000000003 L 814.2739999999995,354.4340000000003 L 814.3939999999996,354.30100000000033 L 814.3979999999996,353.70400000000035 L 814.4799999999996,353.4530000000004 L 814.6619999999996,353.30400000000037 L 814.8609999999995,353.40800000000036 L 814.9979999999995,353.34500000000037 L 815.0229999999995,353.2020000000004 L 814.9599999999995,353.0160000000004 L 814.7189999999995,352.7780000000004 L 814.7589999999994,352.6890000000004 L 814.9479999999994,352.68100000000044 L 815.2609999999994,352.81000000000046 L 815.4409999999993,352.76300000000043 L 815.6939999999994,352.59200000000044 L 816.4489999999994,352.3210000000004 L 817.1699999999994,351.97900000000044 L 817.9079999999994,351.54900000000043 L 818.2359999999994,351.5090000000004 L 818.5519999999995,351.5510000000004 L 818.6659999999995,351.6610000000004 L 818.7129999999995,351.8280000000004 L 818.7759999999995,351.93200000000036 L 818.8649999999996,351.98800000000034 L 819.0529999999995,351.99300000000034 L 819.3789999999996,351.7030000000003 L 819.5549999999996,351.5920000000003 L 819.5649999999996,351.39700000000033 L 819.4639999999996,351.32900000000035 L 819.3499999999996,351.16800000000035 L 819.5429999999996,350.9240000000003 L 819.7439999999996,350.77200000000033 L 819.7049999999996,350.2920000000003 L 819.9679999999996,349.9940000000003 L 819.7859999999996,349.9110000000003 L 819.4799999999996,349.9760000000003 L 819.0429999999996,349.9850000000003 L 818.5689999999995,349.8060000000003 L 818.4019999999995,349.5730000000003 L 818.2539999999995,349.5500000000003 L 818.1229999999995,349.6670000000003 L 817.9959999999995,349.8450000000003 L 817.5789999999995,349.8050000000003 L 817.0849999999995,349.7920000000003 L 816.7059999999994,349.6000000000003 L 816.3779999999995,349.3740000000003 L 815.9039999999994,349.3000000000003 L 815.4249999999994,348.8580000000003 L 814.5859999999993,348.4740000000003 L 813.5199999999993,348.9440000000003 L 813.2809999999993,348.9760000000003 L 813.2039999999993,349.0220000000003 L 813.2879999999992,349.1010000000003 L 813.3559999999992,349.2200000000003 L 812.9189999999992,349.6700000000003 L 812.1519999999991,350.1770000000003 L 812.1429999999991,350.3700000000003 L 812.1639999999991,350.5190000000003 L 811.8079999999991,350.8640000000003 L 810.9369999999991,350.9700000000003 L 810.4809999999991,350.9230000000003 L 809.987999999999,350.70300000000026 L 809.6689999999991,350.43600000000026 L 809.5419999999991,350.24600000000027 L 809.5479999999991,349.6730000000003 L 809.6489999999991,349.1540000000003 L 809.7689999999991,349.0840000000003 L 809.924999999999,348.9440000000003 L 809.871999999999,348.7750000000003 L 809.781999999999,348.67600000000033 L 809.773999999999,348.56000000000034 L 809.7519999999989,348.22500000000036 L 809.505999999999,347.73300000000035 L 809.1129999999989,347.43500000000034 L 808.7399999999989,347.4360000000003 L 808.3919999999989,347.54800000000034 L 806.909999999999,347.2340000000003 L 806.2129999999989,346.7770000000003 L 805.9019999999989,346.3760000000003 L 805.6269999999989,345.6580000000003 L 805.614999999999,345.4210000000003 L 805.791999999999,344.84200000000027 L 806.263999999999,343.8290000000003 L 806.4919999999989,343.6240000000003 L 806.9829999999989,343.4960000000003 L 807.283999999999,343.6100000000003 L 807.704999999999,344.0710000000003 L 808.1929999999991,343.8880000000003 L 808.626999999999,343.67600000000033 L 808.9809999999991,343.73500000000035 L 809.188999999999,343.6930000000004 L 809.429999999999,343.7140000000004 L 809.6109999999991,343.6560000000004 L 809.7889999999991,343.5120000000004 L 810.3069999999991,342.8410000000004 L 810.4109999999991,342.2880000000004 L 810.5819999999992,341.9220000000004 L 810.7749999999992,341.59200000000044 L 811.3359999999992,341.04600000000045 L 812.0649999999993,340.73600000000044 L 813.5199999999993,339.94500000000045 L 813.8289999999993,339.8450000000004 L 814.6469999999993,338.5310000000004 L 814.8449999999992,338.3090000000004 L 815.0729999999992,338.1840000000004 L 815.2999999999992,337.9400000000004 L 815.5319999999991,337.5990000000004 L 815.7809999999992,337.3780000000004 L 816.7989999999992,337.4620000000004 L 816.9719999999992,337.5910000000004 L 817.3379999999992,337.5810000000004 L 817.4409999999991,337.4710000000004 L 817.5609999999991,337.1290000000004 L 817.6349999999991,337.1080000000004 L 817.7019999999991,337.5970000000004 L 818.491999999999,338.16500000000036 L 818.598999999999,338.4790000000004 L 818.868999999999,338.7030000000004 L 818.838999999999,338.8560000000004 L 818.6689999999991,339.2390000000004 L 818.6339999999991,339.3780000000004 L 818.0499999999992,340.1920000000004 L 817.7309999999992,340.5190000000004 L 817.5399999999992,340.8690000000004 L 816.7439999999991,341.2540000000004 L 816.6229999999991,341.5810000000004 L 816.7349999999991,341.8340000000004 L 816.7449999999991,342.0020000000004 L 816.6099999999991,341.9980000000004 L 816.4329999999991,342.0660000000004 L 816.0419999999991,342.3440000000004 L 816.0949999999991,342.4350000000004 L 816.1329999999991,342.6790000000004 L 816.0649999999991,342.92300000000046 L 816.2909999999991,342.95200000000045 L 816.7299999999991,342.95900000000046 L 817.4969999999992,342.86500000000046 L 817.5889999999991,342.9170000000005 L 817.4189999999992,343.0580000000005 L 817.1569999999992,343.34300000000053 L 817.0529999999992,343.51800000000054 L 817.1989999999992,343.9200000000005 L 816.0299999999992,344.4540000000005 L 815.8189999999992,344.5030000000005 L 815.5899999999991,344.5960000000005 L 815.6319999999992,344.98200000000054 L 815.7499999999992,345.2740000000005 L 815.8719999999992,345.23200000000054 L 815.9539999999992,345.14800000000054 L 816.1879999999992,345.0000000000005 L 816.7419999999992,344.9190000000005 L 817.1139999999991,344.7960000000005 L 817.1719999999991,344.7000000000005 L 817.0669999999991,344.4730000000005 L 817.1919999999991,344.29900000000055 L 817.3809999999991,344.2760000000005 L 817.549999999999,344.3420000000005 L 817.7159999999991,344.3240000000005 L 817.8799999999991,344.1800000000005 L 818.0469999999991,344.1200000000005 L 818.2309999999991,343.9740000000005 L 818.4359999999991,343.7650000000005 L 818.7289999999991,343.3480000000005 L 819.0379999999991,342.9910000000005 L 820.4549999999991,342.1410000000005 L 820.7949999999992,342.07200000000046 L 820.9949999999992,341.87700000000046 L 821.5399999999992,341.83000000000044 L 821.6589999999992,341.6840000000004 L 821.8819999999992,341.55300000000045 L 822.2789999999992,341.5350000000005 L 822.5339999999992,341.4690000000005 L 822.6199999999992,341.2700000000005 L 822.7309999999992,341.12200000000047 L 823.0379999999992,341.33700000000044 L 824.0079999999992,341.26900000000046 L 824.4619999999992,340.96600000000046 L 824.6929999999992,340.64700000000045 L 824.7269999999992,340.67400000000043 L 824.7949999999992,340.30800000000045 L 825.0599999999991,340.02500000000043 L 825.7089999999992,339.5210000000004 L 825.8759999999992,339.2840000000004 L 826.2059999999992,339.0050000000004 L 826.3539999999992,339.01100000000037 L 826.5069999999993,338.98700000000036 L 826.5529999999993,338.86500000000035 L 826.5879999999993,338.76900000000035 L 826.7199999999992,338.68200000000036 L 827.0369999999992,338.52800000000036 L 827.3969999999993,338.3250000000004 L 827.6849999999993,338.26800000000037 L 828.0379999999992,337.96300000000036 L 828.1819999999992,337.82900000000035 L 828.3269999999992,337.82900000000035 L 828.3659999999992,337.76600000000036 L 828.4479999999992,337.60800000000035 L 828.5599999999991,337.50400000000036 L 828.7159999999991,337.4840000000004 L 828.9709999999991,337.4090000000004 L 829.2909999999991,337.3630000000004 L 829.5089999999991,337.1060000000004 L 829.5829999999991,336.92200000000037 L 829.727999999999,336.72000000000037 L 830.0339999999991,336.49900000000036 L 830.2449999999991,336.17200000000037 L 830.477999999999,335.81700000000035 L 830.588999999999,335.7030000000004 L 830.6979999999991,335.68000000000035 L 830.761999999999,335.54600000000033 L 830.8369999999991,335.1670000000003 L 830.943999999999,334.7980000000003 L 831.006999999999,334.6240000000003 L 831.276999999999,334.4340000000003 L 831.344999999999,334.3410000000003 L 831.405999999999,334.3100000000003 L 831.530999999999,334.33500000000026 L 831.698999999999,334.22300000000024 L 831.8559999999991,334.0990000000002 L 831.9999999999991,334.1420000000002 L 832.145999999999,334.24500000000023 L 832.2979999999991,334.4500000000002 L 832.3659999999991,334.6130000000002 L 832.4859999999991,334.74900000000025 L 832.5089999999991,334.94700000000023 L 832.6299999999991,335.03300000000024 L 832.8859999999991,335.07600000000025 L 833.304999999999,335.21100000000024 L 833.575999999999,335.21800000000025 L 833.730999999999,335.31900000000024 L 834.0549999999989,335.37400000000025 L 834.702999999999,335.29500000000024 L 834.9679999999989,335.34100000000024 L 835.0789999999989,335.46500000000026 L 835.2429999999989,335.5630000000003 L 835.3499999999989,335.56900000000024 L 835.4929999999989,335.40000000000026 L 835.6459999999989,335.12600000000026 L 835.7469999999989,334.9160000000003 L 835.7429999999989,334.7490000000003 L 835.6539999999989,334.5690000000003 L 835.4409999999989,334.4020000000003 L 835.2999999999989,334.1430000000003 L 835.1659999999989,333.87500000000034 L 835.086999999999,333.78800000000035 L 835.022999999999,333.65800000000036 L 835.0109999999991,333.45800000000037 L 835.0569999999991,333.3230000000004 L 835.3799999999991,333.2330000000004 L 835.7939999999991,333.1800000000004 L 836.1289999999991,333.2370000000004 L 836.688999999999,333.1990000000004 L 837.0329999999991,333.1240000000004 L 837.2879999999991,333.13500000000045 L 837.5219999999991,333.13400000000047 L 837.6259999999992,333.01900000000046 L 837.9529999999992,332.7420000000005 L 838.1109999999992,332.6430000000005 L 838.2849999999992,332.4550000000005 L 838.3119999999992,332.2580000000005 L 838.3469999999992,332.09800000000047 L 838.4449999999991,331.92800000000045 L 838.6169999999992,331.71700000000044 L 838.7629999999991,331.62000000000046 L 838.9259999999991,331.63300000000044 L 839.0969999999992,331.7300000000004 L 839.2059999999992,331.8270000000004 L 839.3289999999993,331.7990000000004 L 839.4319999999992,331.6330000000004 L 839.4989999999992,331.6010000000004 L 839.6939999999993,331.5860000000004 L 839.7569999999993,331.48400000000044 L 839.8319999999993,330.99500000000046 L 839.9069999999994,330.60900000000044 L 839.9229999999993,330.3380000000004 L 840.0979999999993,329.8890000000004 L 840.1539999999993,329.6180000000004 L 840.2579999999994,329.4920000000004 L 840.3779999999994,329.50100000000043 L 840.4789999999994,329.5810000000004 L 840.6059999999993,329.6270000000004 L 840.7749999999993,329.5830000000004 L 840.8939999999993,329.65200000000044 L 840.9679999999993,329.79800000000046 L 841.2179999999993,329.8980000000005 L 841.2409999999993,329.97100000000046 L 841.2349999999993,330.4580000000005 L 841.3719999999993,330.6860000000005 L 841.5559999999992,330.8920000000005 L 841.8069999999992,331.0790000000005 L 841.9419999999992,331.1210000000005 L 842.0219999999993,331.2540000000005 L 842.1839999999993,331.1330000000005 L 842.1619999999992,330.9210000000005 L 842.0049999999992,330.7270000000005 L 841.7759999999992,330.6850000000005 L 841.7219999999992,330.6300000000005 L 841.7359999999992,330.5260000000005 L 841.8139999999992,330.4180000000005 L 841.9269999999992,330.32800000000054 L 842.1629999999992,330.2040000000005 L 842.5699999999993,330.1110000000005 L 842.7969999999992,330.0310000000005 L 842.9809999999992,330.0070000000005 L 843.1899999999991,330.0510000000005 L 843.3659999999992,329.9310000000005 L 843.5429999999992,329.8580000000005 L 843.5849999999992,329.6520000000005 L 843.5929999999993,329.3390000000005 L 843.6559999999993,329.2460000000005 L 843.7299999999992,329.1110000000005 L 843.8429999999993,328.9410000000005 L 843.9449999999993,328.4980000000005 L 844.0219999999993,328.1910000000005 L 844.0719999999992,328.0360000000005 L 844.0849999999992,327.8240000000005 L 844.0349999999993,327.68600000000055 L 843.9369999999993,327.6030000000005 L 843.8619999999993,327.5440000000005 L 843.8549999999993,327.30700000000047 L 843.8659999999993,326.98300000000046 L 843.8399999999993,326.77500000000043 L 843.9489999999994,325.61800000000045 L 844.0659999999993,325.35100000000045 L 843.7029999999993,323.79800000000046 L 843.5949999999993,323.30100000000044 L 843.5209999999994,323.05000000000047 L 843.3619999999994,322.68200000000047 L 843.2599999999994,322.49800000000045 L 843.2989999999994,322.32300000000043 L 843.4429999999994,322.14700000000045 L 843.5819999999994,322.0640000000004 L 843.9909999999994,322.0240000000004 L 844.1039999999995,321.9610000000004 L 844.6049999999994,321.7720000000004 L 844.7189999999995,321.6570000000004 L 844.9749999999995,321.3780000000004 L 845.0739999999995,321.1690000000004 L 845.1859999999995,320.89600000000036 L 845.4329999999994,320.74800000000033 L 845.5809999999994,320.49800000000033 L 845.7409999999994,320.41300000000035 L 845.9019999999994,320.62400000000036 L 846.0929999999994,320.74200000000036 L 846.3449999999993,320.81400000000036 L 846.6649999999994,320.90400000000034 L 847.1749999999994,321.07500000000033 L 847.6969999999994,321.2220000000003 L 848.0229999999995,321.3380000000003 L 848.1849999999995,321.3900000000003 L 848.5089999999994,321.4670000000003 L 848.6499999999994,321.5270000000003 L 848.7829999999994,321.59100000000035 L 848.9949999999994,321.4140000000003 L 849.2809999999994,321.1910000000003 L 849.2339999999994,320.8350000000003 L 849.2799999999994,320.4340000000003 L 849.4839999999994,319.74300000000034 L 849.7119999999993,319.54100000000034 L 849.8309999999993,319.51000000000033 L 849.9599999999994,319.43300000000033 L 850.1879999999993,319.30300000000034 L 850.2689999999993,319.11700000000036 L 850.2229999999993,318.9020000000004 L 850.2979999999993,318.6910000000004 L 850.3219999999993,318.4790000000004 L 850.4019999999994,318.2050000000004 L 850.5079999999994,318.12900000000036 L 850.6679999999993,318.0390000000004 L 850.7789999999993,317.89800000000037 L 850.8849999999993,317.68200000000036 L 850.9559999999993,317.43700000000035 L 850.9269999999993,317.15400000000034 L 851.0659999999993,316.9670000000003 L 851.2979999999993,316.81200000000035 L 851.3779999999994,316.7170000000003 L 851.4149999999994,316.46900000000034 L 851.4309999999994,316.36000000000035 L 851.4939999999993,316.23500000000035 L 851.4489999999994,315.9770000000004 L 851.3919999999994,315.6980000000004 L 851.6469999999994,315.23000000000036 L 851.8299999999994,314.82700000000034 L 851.8749999999993,314.23500000000035 L 851.8959999999993,314.13700000000034 L 851.9659999999993,313.85500000000036 L 852.0089999999993,313.74300000000034 L 852.1509999999994,313.37000000000035 L 852.3339999999994,313.12700000000035 L 852.2979999999994,312.85500000000036 L 852.2249999999995,312.58900000000034 L 852.2379999999995,312.41000000000037 L 852.3999999999995,312.20200000000034 L 852.4979999999995,312.09800000000035 L 852.5839999999995,311.95000000000033 L 852.7209999999994,311.88400000000036 L 852.8419999999994,311.84800000000035 L 853.1249999999994,311.81000000000034 L 853.2889999999994,311.65400000000034 L 853.4409999999995,311.4940000000003 L 853.7199999999995,311.07500000000033 L 853.8109999999995,310.82700000000034 L 853.8779999999995,310.69900000000035 L 853.729,310.34 M 818.427,375.582 L 818.2660000000001,375.61199999999997 L 818.2110000000001,375.731 L 818.3260000000001,375.765 L 818.5650000000002,375.974 L 818.5750000000002,375.914 L 818.5540000000002,375.844 L 818.427,375.582 M 794.138,397.024 L 793.9680000000001,397.029 L 794.0290000000001,397.163 L 794.1330000000002,397.243 L 794.1960000000001,397.255 L 794.4150000000002,397.468 L 794.3920000000002,397.32800000000003 L 794.2950000000002,397.18300000000005 L 794.138,397.024 M 819.076,375.025 L 819.022,375.09 L 819.1220000000001,375.35499999999996 L 819.1970000000001,375.376 L 819.2240000000002,375.227 L 819.2170000000002,375.03999999999996 L 819.076,375.025" id="CN" title="China"/>
</svg>
