<svg xmlns="http://www.w3.org/2000/svg" xmlns:ev="http://www.w3.org/2001/xml-events" xmlns:xlink="http://www.w3.org/1999/xlink" baseProfile="full" height="46.760986328125" version="1.1" viewBox="253.92300415039062 427.7300109863281 34.095001220703125 46.760986328125" width="34.095001220703125" fill="#00394f">
	<defs/>
	<path class="land" d="M 275.542,429.361 L 275.441,429.396 L 275.316,429.471 L 274.935,429.612 L 274.42,429.74600000000004 L 273.75,429.91800000000006 L 273.598,430.1020000000001 L 272.935,431.2550000000001 L 272.38,431.4880000000001 L 272.178,431.66000000000014 L 272.026,431.87800000000016 L 271.695,432.27900000000017 L 271.557,432.58700000000016 L 271.192,433.25600000000014 L 270.992,434.09400000000016 L 270.916,434.5640000000002 L 270.806,435.2450000000002 L 270.644,435.58700000000016 L 270.428,435.9080000000002 L 270.195,436.2210000000002 L 269.995,436.56500000000017 L 269.825,436.8340000000002 L 269.79699999999997,436.92600000000016 L 269.88,437.00000000000017 L 270.283,436.92600000000016 L 270.442,436.84500000000014 L 270.66200000000003,436.74100000000016 L 270.8,436.79700000000014 L 270.938,437.09300000000013 L 271.094,437.1300000000001 L 271.241,437.09300000000013 L 271.397,437.16700000000014 L 271.596,437.90300000000013 L 271.765,438.5260000000001 L 272.157,438.91500000000013 L 272.46299999999997,439.21800000000013 L 272.537,439.4860000000001 L 272.60999999999996,439.8640000000001 L 272.62899999999996,440.0490000000001 L 272.53299999999996,440.1600000000001 L 272.381,440.3900000000001 L 272.34299999999996,440.8290000000001 L 272.31699999999995,440.97500000000014 L 272.28899999999993,441.3820000000001 L 272.3089999999999,441.6320000000001 L 272.3909999999999,441.8270000000001 L 272.52699999999993,441.93900000000014 L 272.80299999999994,441.9970000000001 L 273.05199999999996,442.0650000000001 L 273.19499999999994,442.40300000000013 L 273.3979999999999,442.83300000000014 L 273.61599999999993,443.0140000000001 L 273.9359999999999,443.13300000000015 L 274.1649999999999,443.09000000000015 L 274.6989999999999,443.0140000000001 L 275.1579999999999,443.03300000000013 L 275.8299999999999,443.14800000000014 L 276.0799999999999,443.1440000000001 L 276.4029999999999,443.1220000000001 L 276.9719999999999,442.8890000000001 L 277.1789999999999,442.8540000000001 L 277.40899999999993,442.8750000000001 L 277.74499999999995,442.99400000000014 L 277.92699999999996,443.08800000000014 L 278.15999999999997,443.1850000000001 L 278.49999999999994,443.25400000000013 L 278.71899999999994,443.24200000000013 L 278.88499999999993,443.2380000000001 L 278.98099999999994,443.2820000000001 L 279.51599999999996,443.94900000000007 L 279.97999999999996,444.52700000000004 L 280.38399999999996,445.01200000000006 L 280.82099999999997,445.5350000000001 L 280.85499999999996,445.5660000000001 L 281.05199999999996,445.4990000000001 L 281.18199999999996,445.5280000000001 L 281.30199999999996,445.63400000000007 L 281.50899999999996,445.5900000000001 L 281.80299999999994,445.3960000000001 L 282.23099999999994,445.3570000000001 L 282.7939999999999,445.47300000000007 L 283.5369999999999,445.47300000000007 L 284.45899999999995,445.35800000000006 L 285.0319999999999,445.23300000000006 L 285.2559999999999,445.09800000000007 L 285.6259999999999,445.1120000000001 L 286.0729999999999,445.23300000000006 L 286.3139999999999,445.4050000000001 L 286.3429999999999,445.57400000000007 L 286.4329999999999,445.83900000000006 L 286.3359999999999,446.107 L 286.0519999999999,446.37800000000004 L 285.8939999999999,446.725 L 285.8629999999999,447.14700000000005 L 285.7159999999999,447.45900000000006 L 285.4529999999999,447.66100000000006 L 285.3499999999999,447.95500000000004 L 285.4079999999999,448.34100000000007 L 285.3799999999999,448.9050000000001 L 285.2649999999999,449.6470000000001 L 285.2649999999999,450.0900000000001 L 285.3799999999999,450.23500000000007 L 285.4329999999999,450.4430000000001 L 285.42399999999986,450.7140000000001 L 285.46699999999987,450.9540000000001 L 285.60999999999984,451.26600000000013 L 285.80899999999986,451.8870000000001 L 285.97499999999985,452.1540000000001 L 286.11999999999983,452.2520000000001 L 286.2669999999998,452.3720000000001 L 286.6909999999998,453.0070000000001 L 286.7939999999998,453.14100000000013 L 286.7629999999998,453.25800000000015 L 286.7229999999998,453.34500000000014 L 286.6739999999998,453.4010000000001 L 286.2219999999998,453.7790000000001 L 285.3239999999998,454.6010000000001 L 285.2499999999998,454.7050000000001 L 285.25599999999974,454.8770000000001 L 285.51599999999974,454.76600000000013 L 285.79499999999973,454.85900000000015 L 285.93099999999976,454.8770000000001 L 285.99299999999977,454.9450000000001 L 286.0739999999998,455.1670000000001 L 286.1669999999998,455.20400000000006 L 286.3029999999998,455.29600000000005 L 286.56899999999985,455.53000000000003 L 286.79199999999986,455.776 L 286.95899999999983,455.894 L 287.0769999999998,456.004 L 287.1139999999998,456.16400000000004 L 287.0649999999998,456.32400000000007 L 287.2049999999998,456.69500000000005 L 287.29999999999984,456.81000000000006 L 287.34999999999985,456.9510000000001 L 287.29999999999984,457.0930000000001 L 287.41799999999984,457.25900000000007 L 287.5459999999998,457.58600000000007 L 287.7019999999998,457.98500000000007 L 287.72099999999983,458.20700000000005 L 287.78599999999983,458.309 L 287.86299999999983,458.605 L 287.9939999999998,458.88300000000004 L 287.9629999999998,459.07300000000004 L 288.0179999999998,459.26000000000005 L 287.4869999999998,459.38500000000005 L 287.4389999999998,459.36500000000007 L 287.4069999999998,459.29600000000005 L 287.4219999999998,458.76500000000004 L 287.4169999999998,458.165 L 287.3349999999998,457.91900000000004 L 287.0919999999998,457.52500000000003 L 286.7699999999998,457.00300000000004 L 286.6819999999998,456.85300000000007 L 286.54599999999976,456.76700000000005 L 286.38499999999976,456.75500000000005 L 286.26699999999977,456.79200000000003 L 286.10899999999975,456.889 L 285.95999999999975,456.995 L 285.67199999999974,457.31 L 285.3819999999997,457.678 L 285.2119999999997,457.761 L 285.0419999999997,457.795 L 284.8919999999997,457.784 L 284.77099999999973,457.685 L 284.6469999999997,457.484 L 284.4979999999997,457.217 L 284.3199999999997,457.13 L 284.2509999999997,457.212 L 284.19199999999967,457.36899999999997 L 284.1459999999997,457.525 L 284.2659999999997,457.72299999999996 L 284.3689999999997,457.876 L 284.19199999999967,457.871 L 283.61999999999966,457.871 L 282.95999999999964,457.871 L 282.30099999999965,457.871 L 281.70899999999966,457.871 L 281.16099999999966,457.871 L 280.95199999999966,457.858 L 280.73899999999963,457.76800000000003 L 280.5349999999996,457.72600000000006 L 280.4269999999996,457.73300000000006 L 280.23399999999964,457.82000000000005 L 279.98299999999966,457.833 L 279.8139999999997,457.91600000000005 L 279.67799999999966,457.90600000000006 L 279.67599999999965,458.36600000000004 L 279.6719999999996,459.021 L 279.6679999999996,459.716 L 279.8199999999996,459.663 L 279.95099999999957,459.668 L 280.04699999999957,459.717 L 280.31699999999955,459.67699999999996 L 280.46599999999955,459.698 L 280.60799999999955,459.71599999999995 L 280.7389999999995,459.71799999999996 L 280.81999999999954,459.77299999999997 L 280.92799999999954,459.763 L 281.0439999999995,459.702 L 281.18299999999954,459.74 L 281.33199999999954,459.838 L 281.42799999999954,459.98400000000004 L 281.51399999999956,460.165 L 281.59999999999957,460.261 L 281.5949999999996,460.434 L 281.5919999999996,460.57000000000005 L 281.5619999999996,460.68300000000005 L 281.5999999999996,460.75600000000003 L 281.62799999999964,460.834 L 281.61999999999966,460.879 L 281.56999999999965,460.90000000000003 L 281.4609999999997,460.915 L 281.3449999999997,460.928 L 281.26399999999967,460.923 L 281.2009999999997,460.853 L 281.1399999999997,460.845 L 281.0519999999997,460.855 L 280.9579999999997,460.81300000000005 L 280.87699999999967,460.725 L 280.73299999999966,460.637 L 280.57899999999967,460.675 L 280.4729999999997,460.72 L 280.3639999999997,460.77500000000003 L 280.2649999999997,460.833 L 280.1659999999997,460.81800000000004 L 280.03999999999974,460.86 L 279.93399999999974,460.925 L 279.79199999999975,460.978 L 279.63799999999975,461.003 L 279.46099999999973,461.02799999999996 L 279.29199999999975,461.03799999999995 L 279.09999999999974,461.05899999999997 L 279.0889999999997,461.42499999999995 L 279.0669999999997,462.14399999999995 L 279.05199999999974,462.61999999999995 L 279.0529999999997,463.05899999999997 L 279.1269999999997,463.219 L 279.4669999999997,463.557 L 279.7339999999997,463.735 L 279.9599999999997,463.934 L 280.1849999999997,464.01700000000005 L 280.2789999999997,464.09200000000004 L 280.3409999999997,464.21500000000003 L 280.37199999999973,464.34400000000005 L 280.39599999999973,464.45400000000006 L 280.37199999999973,464.5710000000001 L 280.31599999999975,464.6820000000001 L 280.33999999999975,464.7990000000001 L 280.42099999999976,464.8910000000001 L 280.44599999999974,465.0080000000001 L 280.5019999999997,465.1190000000001 L 280.53299999999973,465.2300000000001 L 280.6009999999997,465.31000000000006 L 280.6869999999997,465.36500000000007 L 280.7979999999997,465.45700000000005 L 280.8099999999997,465.54300000000006 L 280.7979999999997,465.6410000000001 L 280.79699999999974,465.7150000000001 L 280.90299999999974,465.88400000000007 L 280.93399999999974,466.0030000000001 L 280.88499999999976,466.1440000000001 L 280.83699999999976,466.6350000000001 L 280.71499999999975,467.19400000000013 L 280.63599999999974,467.62100000000015 L 280.50899999999973,468.31600000000014 L 280.3609999999997,469.12500000000017 L 280.1799999999997,470.11100000000016 L 280.00099999999975,471.08500000000015 L 279.8289999999997,472.02800000000013 L 279.6729999999997,472.88100000000014 L 279.5009999999997,473.8220000000001 L 279.3969999999997,474.3920000000001 L 279.3469999999997,474.4910000000001 L 279.2029999999997,474.2840000000001 L 278.9849999999997,474.0890000000001 L 278.78099999999966,473.9720000000001 L 278.6939999999997,473.8180000000001 L 278.57699999999966,473.5040000000001 L 278.41299999999967,473.39700000000005 L 278.29799999999966,473.314 L 278.18699999999967,473.326 L 278.0689999999997,473.41200000000003 L 277.88699999999966,473.46700000000004 L 277.76399999999967,473.45900000000006 L 277.26899999999966,473.24300000000005 L 277.18799999999965,473.22200000000004 L 277.50599999999963,472.728 L 278.07499999999965,471.845 L 278.43699999999967,471.283 L 278.8379999999997,470.66 L 279.04299999999967,470.34200000000004 L 279.06999999999965,470.28800000000007 L 279.06999999999965,470.2060000000001 L 278.98299999999966,470.0850000000001 L 278.7899999999997,470.0340000000001 L 278.5659999999997,469.9410000000001 L 278.42499999999967,469.7900000000001 L 278.2299999999997,469.7250000000001 L 278.0779999999997,469.61800000000005 L 277.8009999999997,469.51300000000003 L 277.6349999999997,469.41600000000005 L 277.43199999999973,469.38100000000003 L 277.27099999999973,469.20300000000003 L 276.68399999999974,468.858 L 276.53299999999973,468.826 L 276.3679999999997,468.879 L 276.1259999999997,468.934 L 275.8929999999997,469.122 L 275.6019999999997,469.183 L 275.3299999999997,469.181 L 275.1879999999997,469.06899999999996 L 275.0519999999997,469.02799999999996 L 274.8739999999997,468.87499999999994 L 274.55999999999966,468.75699999999995 L 274.33199999999965,468.67499999999995 L 274.19099999999963,468.71299999999997 L 274.00999999999965,468.88399999999996 L 273.82699999999966,469.054 L 273.6819999999997,469.15999999999997 L 273.4869999999997,469.154 L 273.2539999999997,469.31 L 273.0249999999997,469.366 L 272.7939999999997,469.39 L 272.5279999999997,469.445 L 272.23299999999966,469.351 L 271.99099999999964,469.268 L 271.88299999999964,469.22999999999996 L 271.7849999999996,469.256 L 271.63299999999964,469.34299999999996 L 271.36099999999965,469.37999999999994 L 271.1479999999996,469.38899999999995 L 270.9969999999996,469.34799999999996 L 270.8609999999996,469.19699999999995 L 270.64099999999956,469.11999999999995 L 270.39899999999955,469.02599999999995 L 270.34799999999956,468.83099999999996 L 270.3829999999996,468.68499999999995 L 270.4769999999996,468.47499999999997 L 270.42499999999956,468.258 L 270.3229999999996,467.916 L 270.2799999999996,467.776 L 270.20399999999955,467.657 L 270.0849999999995,467.614 L 269.8519999999995,467.64599999999996 L 269.5969999999995,467.51699999999994 L 269.43999999999954,467.3929999999999 L 269.3589999999995,467.2419999999999 L 269.44499999999954,466.9569999999999 L 269.3689999999995,466.7139999999999 L 269.21699999999953,466.57999999999987 L 269.1189999999995,466.34299999999985 L 268.96699999999953,466.15499999999986 L 268.76699999999954,466.0579999999999 L 268.5659999999995,466.0689999999999 L 268.40899999999954,466.0099999999999 L 268.22999999999956,465.8099999999999 L 268.06199999999956,465.7349999999999 L 267.87199999999956,465.5409999999999 L 267.5179999999996,465.45499999999987 L 267.33399999999955,465.37899999999985 L 267.22899999999953,465.25899999999984 L 267.08699999999953,465.04499999999985 L 267.10299999999955,464.92699999999985 L 267.03399999999954,464.80999999999983 L 266.97299999999956,464.60099999999983 L 266.8519999999996,464.2919999999998 L 266.7189999999996,464.1159999999998 L 266.5819999999996,463.9839999999998 L 266.4659999999996,463.8719999999998 L 266.2939999999996,463.7049999999998 L 266.0829999999996,463.60799999999983 L 265.9039999999996,463.50599999999986 L 265.8339999999996,463.35499999999985 L 265.7739999999996,463.2309999999998 L 265.6729999999996,463.23999999999984 L 265.5289999999996,463.2289999999998 L 265.3709999999996,463.19699999999983 L 265.2039999999996,463.10699999999986 L 265.0639999999996,462.9979999999999 L 264.8289999999996,462.8129999999999 L 264.7009999999996,462.7889999999999 L 264.58699999999965,462.7889999999999 L 264.41899999999964,462.96999999999986 L 263.91599999999966,462.77999999999986 L 263.4849999999997,462.4979999999999 L 263.03799999999967,462.4249999999999 L 262.7489999999997,462.2529999999999 L 262.4819999999997,461.9829999999999 L 262.3379999999997,461.7999999999999 L 262.22099999999966,461.7099999999999 L 261.65199999999965,461.4479999999999 L 261.53899999999965,461.42299999999994 L 261.32199999999966,461.54499999999996 L 261.25199999999967,461.61799999999994 L 261.2389999999997,461.82699999999994 L 261.2129999999997,461.94599999999997 L 261.02399999999966,462.018 L 260.71899999999965,462.00199999999995 L 260.50799999999964,461.92599999999993 L 260.36599999999964,461.9149999999999 L 260.33699999999965,461.9749999999999 L 260.25699999999966,461.9999999999999 L 260.08399999999966,461.9829999999999 L 259.82899999999967,461.9249999999999 L 259.5979999999997,461.8479999999999 L 259.2849999999997,461.6839999999999 L 259.1399999999997,461.7049999999999 L 258.7839999999997,461.6699999999999 L 258.4929999999997,461.5759999999999 L 258.4189999999997,461.4899999999999 L 258.2929999999997,460.8999999999999 L 258.25399999999973,460.8589999999999 L 258.12899999999973,460.83399999999995 L 257.9179999999997,460.75199999999995 L 257.78499999999974,460.6569999999999 L 257.7159999999997,460.49299999999994 L 257.6329999999997,460.33799999999997 L 257.2779999999997,460.373 L 256.6959999999997,460.168 L 256.29299999999967,459.973 L 255.92399999999967,459.757 L 255.36399999999966,459.331 L 255.15099999999967,459.226 L 254.88699999999966,459.096 L 254.73099999999965,458.886 L 254.47399999999965,458.67400000000004 L 254.38799999999964,458.61600000000004 L 254.30699999999965,458.42500000000007 L 253.92299999999966,458.14700000000005 L 254.11299999999966,457.78900000000004 L 254.57499999999965,457.51900000000006 L 255.18099999999964,457.72800000000007 L 255.25499999999965,457.31000000000006 L 255.03599999999966,456.94000000000005 L 255.06899999999965,456.24100000000004 L 255.13999999999965,456.10100000000006 L 255.29999999999964,455.91400000000004 L 255.50799999999964,455.78400000000005 L 255.62999999999965,455.74700000000007 L 255.83799999999965,455.8110000000001 L 255.96899999999965,455.6710000000001 L 256.4629999999997,455.7340000000001 L 256.61299999999966,455.67500000000007 L 256.71599999999967,455.58000000000004 L 256.83699999999965,455.50800000000004 L 256.99099999999964,455.34000000000003 L 257.07999999999964,455.146 L 257.15399999999966,455.07 L 257.32499999999965,455.097 L 257.34099999999967,455.013 L 257.4289999999997,454.899 L 257.72799999999967,454.644 L 257.7249999999997,454.531 L 257.6409999999997,454.285 L 257.6619999999997,454.19500000000005 L 257.8349999999997,454.16400000000004 L 258.0399999999997,454.095 L 258.14899999999966,453.86 L 258.28399999999965,453.65500000000003 L 258.43799999999965,453.353 L 258.60799999999966,453.334 L 258.69799999999964,452.981 L 258.9269999999996,452.67199999999997 L 259.39299999999963,451.756 L 259.2519999999996,451.77599999999995 L 259.1399999999996,451.89899999999994 L 259.0129999999996,451.88399999999996 L 258.8679999999996,451.81199999999995 L 258.90999999999957,451.39899999999994 L 258.82699999999954,451.34999999999997 L 258.6019999999995,451.66799999999995 L 258.4079999999995,451.34399999999994 L 258.38999999999953,451.14699999999993 L 258.4719999999995,450.95199999999994 L 258.4599999999995,450.82099999999997 L 258.1459999999995,450.919 L 258.1609999999995,450.79699999999997 L 258.3559999999995,450.67199999999997 L 258.4449999999995,450.542 L 258.6149999999995,450.4 L 258.6859999999995,450.186 L 258.7269999999995,449.85299999999995 L 258.8039999999995,449.4959999999999 L 258.7469999999995,449.31999999999994 L 258.6549999999995,449.16999999999996 L 258.5779999999995,448.50399999999996 L 258.59899999999953,448.116 L 258.5589999999995,447.811 L 258.47899999999953,447.553 L 258.10599999999954,447.214 L 258.69499999999954,446.826 L 258.90599999999955,446.533 L 258.6379999999996,445.93 L 258.28799999999956,445.421 L 258.27799999999957,445.116 L 258.36999999999955,445.155 L 258.48799999999954,445.14599999999996 L 258.5949999999996,444.50199999999995 L 258.5699999999996,444.30299999999994 L 258.3729999999996,443.98099999999994 L 258.12899999999956,443.97299999999996 L 257.91499999999957,443.568 L 257.7919999999996,443.477 L 257.6929999999996,443.222 L 257.34799999999956,442.72499999999997 L 257.07499999999953,442.46599999999995 L 257.2799999999995,441.86599999999993 L 257.4589999999995,441.7509999999999 L 257.5169999999995,441.6019999999999 L 257.4469999999995,441.2329999999999 L 257.4669999999995,441.1469999999999 L 257.50899999999945,441.1099999999999 L 257.5509999999994,441.1119999999999 L 257.6229999999994,441.1679999999999 L 257.75699999999944,441.3269999999999 L 257.86899999999946,441.5239999999999 L 257.95899999999943,441.5839999999999 L 258.09499999999946,441.5189999999999 L 258.62099999999947,441.1259999999999 L 258.5869999999995,441.0039999999999 L 258.6349999999995,440.7579999999999 L 258.81099999999947,440.5569999999999 L 258.99899999999946,440.4879999999999 L 259.05499999999944,440.37599999999986 L 259.0099999999994,440.20299999999986 L 258.81199999999944,439.7719999999999 L 258.63599999999946,439.53999999999985 L 258.52299999999946,439.30899999999986 L 258.46299999999945,439.09599999999983 L 258.26299999999947,438.8949999999998 L 258.34699999999947,438.7049999999998 L 258.50199999999944,438.48299999999983 L 258.55499999999944,438.44399999999985 L 258.63899999999944,438.5049999999998 L 258.87099999999947,438.90799999999984 L 259.2399999999995,439.16999999999985 L 259.6269999999995,439.59299999999985 L 259.7859999999995,439.8849999999998 L 259.91199999999947,439.9379999999998 L 260.02099999999945,440.04299999999984 L 259.97299999999944,440.12199999999984 L 259.85199999999946,440.20499999999987 L 259.81699999999944,440.37399999999985 L 259.89599999999945,440.4689999999999 L 259.9789999999995,440.52999999999986 L 260.2049999999995,440.4909999999999 L 260.3289999999995,440.2929999999999 L 260.24599999999947,439.42399999999986 L 260.1159999999995,438.98899999999986 L 259.96499999999946,438.85399999999987 L 259.8299999999995,438.68199999999985 L 259.9209999999995,438.55199999999985 L 260.16199999999947,438.4929999999998 L 260.47799999999944,438.34099999999984 L 261.63599999999946,437.5099999999998 L 262.03299999999945,436.7289999999998 L 262.3369999999994,436.4459999999998 L 262.67999999999944,436.2619999999998 L 263.09999999999945,436.3049999999998 L 263.4259999999995,436.20699999999977 L 263.5269999999995,435.95799999999974 L 263.4379999999995,435.62099999999975 L 263.3129999999995,435.41699999999975 L 263.4329999999995,435.12199999999973 L 263.5579999999995,434.6729999999997 L 263.54899999999947,434.2959999999997 L 263.70999999999947,434.0709999999997 L 263.6539999999995,433.98299999999966 L 263.41899999999947,434.1649999999997 L 263.2329999999995,434.2469999999997 L 263.3379999999995,434.0969999999997 L 263.6669999999995,433.7249999999997 L 263.8379999999995,433.1579999999997 L 263.9689999999995,432.9219999999997 L 264.4329999999995,432.5919999999997 L 264.52499999999947,432.4329999999997 L 264.87599999999946,432.1849999999997 L 265.44099999999946,431.65299999999974 L 265.65699999999947,431.5049999999997 L 266.7519999999995,431.84799999999973 L 267.0999999999995,431.82599999999974 L 267.0379999999995,431.8889999999997 L 266.8769999999995,431.90999999999974 L 266.64499999999947,432.00299999999976 L 266.57799999999946,432.20799999999974 L 266.73499999999945,432.42199999999974 L 266.9019999999994,432.48399999999975 L 267.0439999999994,432.3459999999998 L 267.18499999999943,431.9529999999998 L 267.4119999999994,431.5179999999998 L 267.4649999999994,431.0619999999998 L 267.6259999999994,430.9049999999998 L 267.8609999999994,430.8479999999998 L 268.28099999999944,430.93799999999976 L 268.59999999999945,431.03199999999975 L 268.9329999999995,431.04399999999976 L 269.9539999999995,430.97499999999974 L 271.6139999999995,429.78999999999974 L 272.38499999999954,429.53499999999974 L 272.86799999999954,429.28499999999974 L 273.17599999999953,428.7979999999997 L 273.25899999999956,428.43199999999973 L 273.48599999999954,428.28999999999974 L 273.72399999999953,428.28999999999974 L 273.8329999999995,428.20099999999974 L 273.8669999999995,428.08799999999974 L 274.4409999999995,427.77099999999973 L 274.7699999999995,427.72999999999973 L 275.0609999999995,427.7359999999997 L 275.7109999999995,428.0119999999997 L 276.0119999999995,428.4999999999997 L 276.0619999999995,428.83599999999973 L 275.6499999999995,429.20099999999974 L 275.542,429.361 M 256.475,455.583 L 256.399,455.64500000000004 L 256.254,455.535 L 256.20500000000004,455.39500000000004 L 256.29400000000004,455.29100000000005 L 256.408,455.32500000000005 L 256.46000000000004,455.41 L 256.475,455.583" id="CO" title="Colombia"/>
</svg>
