<svg xmlns="http://www.w3.org/2000/svg" xmlns:ev="http://www.w3.org/2001/xml-events" xmlns:xlink="http://www.w3.org/1999/xlink" baseProfile="full" height="8.821014404296875" version="1.1" viewBox="234.60000610351562 431.2749938964844 9.385986328125 8.821014404296875" width="9.385986328125" fill="#00394f">
	<defs/>
	<path class="land" d="M 240.959,432.048 L 241.029,432.161 L 241.11,432.338 L 241.146,432.566 L 241.503,433.329 L 241.788,433.755 L 242.412,434.531 L 242.681,434.674 L 243.136,435.297 L 243.293,435.4 L 243.383,435.584 L 243.855,435.735 L 243.986,435.847 L 243.97,435.899 L 243.921,435.954 L 243.852,436.009 L 243.76,436.047 L 243.538,435.933 L 243.319,435.804 L 243.199,435.863 L 243.154,436.031 L 243.073,436.117 L 242.972,436.151 L 242.93,436.207 L 242.921,436.773 L 242.929,437.306 L 243.094,437.318 L 243.37,437.503 L 243.488,437.612 L 243.525,437.713 L 243.491,437.762 L 243.289,437.878 L 243.092,438.025 L 242.994,438.208 L 243.166,438.505 L 243.203,438.706 L 243.197,438.917 L 243.149,439.018 L 242.768,439.259 L 242.685,439.344 L 242.695,439.405 L 242.906,439.572 L 243.005,439.733 L 243.088,439.927 L 243.1,440.096 L 242.909,439.783 L 242.645,439.484 L 242.415,439.3 L 242.397,438.871 L 242.305,438.638 L 241.959,438.423 L 241.663,438.272 L 241.443,438.303 L 241.578,438.55 L 241.925,438.867 L 241.948,438.988 L 241.943,439.151 L 241.704,439.126 L 241.492,439.06 L 241.235,439.039 L 241.064,438.942 L 240.701,438.563 L 240.959,438.241 L 241.039,438.029 L 241.032,437.589 L 240.973,437.376 L 240.693,437.052 L 240.248,436.695 L 239.624,436.404 L 239.331,436.169 L 238.6,435.989 L 238.322,435.87 L 238.105,435.649 L 238.073,435.49 L 238.15,435.245 L 237.948,434.934 L 237.078,434.321 L 236.591,434.096 L 236.487,433.963 L 236.41,433.922 L 236.484,434.345 L 236.697,434.6 L 237.252,434.837 L 237.405,434.976 L 237.467,435.156 L 237.145,435.5 L 236.98,435.587 L 236.932,435.775 L 236.827,435.832 L 236.716,435.724 L 236.266,435.184 L 235.395,434.925 L 235.237,434.766 L 234.913,434.272 L 234.764,433.822 L 234.817,433.521 L 235.175,433.052 L 235.287,432.848 L 235.264,432.722 L 235.275,432.537 L 235.142,432.408 L 234.811,432.239 L 234.6,432.104 L 234.658,432.037 L 235.037,431.855 L 235.061,431.691 L 235.059,431.637 L 235.121,431.625 L 235.176,431.582 L 235.21,431.536 L 235.313,431.378 L 235.404,431.289 L 235.509,431.275 L 235.636,431.34 L 236.114,431.511 L 236.646,431.7 L 237.403,431.968 L 237.717,431.796 L 237.987,431.665 L 238.175,431.684 L 238.582,431.837 L 238.827,431.886 L 238.977,431.87 L 239.237,432.095 L 239.379,432.264 L 239.403,432.376 L 239.482,432.437 L 239.685,432.45 L 240.181,432.564 L 240.484,432.542 L 240.76,432.421 L 240.912,432.276 L 240.959,432.048" id="CR" title="Costa Rica"/>
</svg>
