<svg xmlns="http://www.w3.org/2000/svg" xmlns:ev="http://www.w3.org/2001/xml-events" xmlns:xlink="http://www.w3.org/1999/xlink" baseProfile="full" height="10.00799560546875" version="1.1" viewBox="237.45599365234375 396.15399169921875 30.17401123046875 10.00799560546875" width="30.17401123046875">
	<defs/>
	<path class="land" d="M 246.024,396.241 L 246.75900000000001,396.382 L 247.353,396.342 L 247.637,396.25899999999996 L 247.611,396.34399999999994 L 247.87199999999999,396.55299999999994 L 247.96699999999998,396.56699999999995 L 248.35099999999997,396.46099999999996 L 249.35399999999996,396.42099999999994 L 249.45699999999997,396.47999999999996 L 249.63399999999996,396.68399999999997 L 249.88999999999996,396.80999999999995 L 250.15499999999994,396.90599999999995 L 250.43199999999993,396.9309999999999 L 250.70799999999994,396.8879999999999 L 250.96699999999993,396.90899999999993 L 251.29099999999994,397.1069999999999 L 251.39299999999994,397.12999999999994 L 251.68299999999994,397.07599999999996 L 251.59799999999993,397.258 L 252.08599999999993,397.512 L 252.44399999999993,398.012 L 252.70399999999992,398.217 L 252.97899999999993,398.401 L 253.21099999999993,398.526 L 253.47099999999992,398.586 L 254.2599999999999,398.562 L 254.44699999999992,398.577 L 254.61399999999992,398.648 L 254.7729999999999,398.67600000000004 L 254.86499999999992,398.64900000000006 L 256.3889999999999,399.42500000000007 L 256.8739999999999,399.83900000000006 L 257.1699999999999,400.05400000000003 L 257.8109999999999,400.36400000000003 L 258.0679999999999,400.432 L 258.2029999999999,400.391 L 258.1769999999999,400.32300000000004 L 257.9889999999999,400.151 L 257.9609999999999,400.088 L 258.2019999999999,400.141 L 258.6369999999999,400.49100000000004 L 258.7569999999999,400.62000000000006 L 258.9739999999999,400.74000000000007 L 259.19299999999987,400.8260000000001 L 259.0889999999999,400.96400000000006 L 258.9109999999999,400.97600000000006 L 258.5699999999999,400.91900000000004 L 258.8409999999999,401.14400000000006 L 258.8869999999999,401.3070000000001 L 259.01299999999986,401.3210000000001 L 259.20099999999985,401.1420000000001 L 259.3199999999999,400.9910000000001 L 259.79899999999986,401.3810000000001 L 260.05699999999985,401.5590000000001 L 259.9909999999999,401.66300000000007 L 259.96999999999986,401.7660000000001 L 260.25799999999987,401.6700000000001 L 260.36699999999985,401.6810000000001 L 260.47199999999987,401.7360000000001 L 260.5869999999999,401.9030000000001 L 260.8559999999999,401.94000000000005 L 261.1269999999999,401.93600000000004 L 261.6769999999999,402.074 L 262.1979999999999,402.355 L 262.68799999999993,402.41200000000003 L 263.18199999999996,402.422 L 263.43199999999996,402.57000000000005 L 263.53799999999995,402.77000000000004 L 263.41799999999995,402.91100000000006 L 263.34999999999997,403.05800000000005 L 263.534,403.23900000000003 L 263.133,403.31600000000003 L 263.07599999999996,403.425 L 263.097,403.54200000000003 L 263.17699999999996,403.60600000000005 L 263.40599999999995,403.55000000000007 L 263.73799999999994,403.6000000000001 L 264.26099999999997,403.64400000000006 L 264.611,403.60800000000006 L 265.323,403.73100000000005 L 265.539,403.797 L 265.961,404.028 L 266.156,404.18 L 266.575,404.59000000000003 L 266.936,404.75100000000003 L 267.24899999999997,404.79 L 267.35799999999995,404.76300000000003 L 267.45699999999994,404.80800000000005 L 267.5439999999999,404.86500000000007 L 267.62999999999994,405.04400000000004 L 267.58199999999994,405.232 L 267.40299999999996,405.38500000000005 L 267.304,405.49600000000004 L 266.85699999999997,405.509 L 266.23199999999997,405.56 L 265.628,405.726 L 265.33299999999997,405.858 L 265.198,405.945 L 264.88,406.026 L 264.859,405.957 L 264.86499999999995,405.87 L 264.7819999999999,405.709 L 264.7099999999999,405.854 L 264.5919999999999,405.96 L 264.3929999999999,406.04999999999995 L 263.65899999999993,406.0559999999999 L 263.3639999999999,405.9339999999999 L 263.0609999999999,405.8509999999999 L 261.95699999999994,405.7639999999999 L 261.69199999999995,405.7709999999999 L 260.9549999999999,405.8619999999999 L 260.21399999999994,405.9109999999999 L 259.90399999999994,405.96699999999987 L 259.5969999999999,406.0509999999999 L 258.99999999999994,406.0479999999999 L 258.29499999999996,406.1439999999999 L 257.58799999999997,406.16199999999986 L 258.04099999999994,405.48899999999986 L 258.9959999999999,404.83999999999986 L 259.17599999999993,404.6999999999999 L 259.3039999999999,404.5209999999999 L 259.3339999999999,404.3859999999999 L 259.2919999999999,404.2709999999999 L 259.0639999999999,404.0669999999999 L 259.0179999999999,403.9159999999999 L 258.94999999999993,403.81799999999987 L 258.6189999999999,403.7329999999999 L 258.28399999999993,403.6819999999999 L 257.9309999999999,403.6809999999999 L 257.18999999999994,403.61099999999993 L 256.79599999999994,403.60599999999994 L 256.46199999999993,403.4669999999999 L 255.90799999999993,402.9729999999999 L 255.64899999999994,402.8339999999999 L 255.51599999999993,402.7229999999999 L 255.41199999999992,402.5949999999999 L 255.28199999999993,401.8669999999999 L 255.1719999999999,401.5169999999999 L 255.0039999999999,401.2119999999999 L 254.7479999999999,400.9809999999999 L 254.4799999999999,400.9019999999999 L 253.4519999999999,401.09999999999985 L 253.2129999999999,401.0699999999999 L 252.9799999999999,401.0029999999999 L 251.4279999999999,400.52999999999986 L 250.78799999999993,400.26999999999987 L 250.52699999999993,400.14099999999985 L 250.30399999999992,399.9569999999998 L 250.07299999999992,399.6549999999998 L 249.81399999999994,399.3849999999998 L 249.81499999999994,399.4939999999998 L 249.77499999999995,399.5649999999998 L 248.47599999999994,399.5969999999998 L 248.26899999999995,399.5349999999998 L 248.13599999999994,399.4609999999998 L 248.04199999999994,399.3519999999998 L 247.97199999999995,399.1329999999998 L 247.84799999999996,398.9489999999998 L 247.80799999999996,399.1449999999998 L 247.74399999999997,399.3259999999998 L 247.56999999999996,399.4269999999998 L 247.37099999999995,399.4439999999998 L 247.12999999999994,399.2039999999998 L 246.07699999999994,399.15399999999977 L 245.98399999999995,399.1129999999998 L 245.63799999999995,398.87999999999977 L 245.34299999999996,398.5879999999998 L 245.63599999999997,398.4849999999998 L 246.24199999999996,398.3499999999998 L 246.37299999999996,398.2599999999998 L 246.44899999999996,398.14399999999983 L 246.39399999999995,397.9719999999998 L 246.27299999999994,397.8469999999998 L 246.14899999999994,397.77399999999983 L 246.01199999999994,397.72799999999984 L 245.83099999999993,397.70799999999986 L 243.48799999999994,397.67699999999985 L 243.35299999999995,397.77099999999984 L 243.14299999999994,397.9619999999998 L 242.72699999999995,398.2069999999998 L 242.45299999999995,398.46099999999984 L 242.34999999999994,398.5919999999998 L 242.22199999999995,398.6859999999998 L 241.93399999999994,398.8429999999998 L 241.68799999999993,399.0849999999998 L 241.38999999999993,399.1929999999998 L 241.22699999999992,399.12699999999984 L 241.06599999999992,399.1279999999998 L 240.94899999999993,399.1879999999998 L 240.82599999999994,399.2149999999998 L 240.22499999999994,399.2439999999998 L 240.13499999999993,399.3059999999998 L 240.04899999999992,399.4789999999998 L 239.9509999999999,399.8159999999998 L 239.8589999999999,399.9269999999998 L 239.5579999999999,399.96899999999977 L 239.2709999999999,400.06099999999975 L 238.6869999999999,400.38099999999974 L 238.5359999999999,400.42799999999977 L 238.56899999999987,400.19299999999976 L 238.53999999999988,399.96399999999977 L 238.3749999999999,399.9559999999998 L 238.1869999999999,399.9939999999998 L 238.0299999999999,400.0579999999998 L 237.7399999999999,400.2289999999998 L 237.5929999999999,400.2719999999998 L 237.4559999999999,400.18499999999983 L 237.4839999999999,400.0729999999998 L 238.4509999999999,399.66099999999983 L 238.5589999999999,399.6299999999998 L 238.7309999999999,399.66099999999983 L 238.89899999999992,399.6469999999998 L 239.02999999999992,399.53099999999984 L 238.87099999999992,398.98499999999984 L 238.93199999999993,398.61299999999983 L 239.15599999999992,398.3249999999998 L 239.60399999999993,397.8879999999998 L 239.81999999999994,397.7439999999998 L 242.02899999999994,396.8309999999998 L 242.25499999999994,396.78399999999976 L 243.69099999999995,396.59999999999974 L 243.90999999999994,396.5359999999997 L 244.57599999999994,396.2649999999997 L 245.27499999999995,396.1539999999997 L 246.024,396.241 M 253.006,397.752 L 253.011,397.832 L 252.51999999999998,397.61 L 252.30899999999997,397.379 L 252.22399999999996,397.326 L 252.36199999999997,397.321 L 252.91499999999996,397.70000000000005 L 253.006,397.752 M 255.025,398.09 L 255.41,398.154 L 255.54399999999998,398.115 L 255.67199999999997,398.104 L 255.80699999999996,398.131 L 255.99599999999995,398.38199999999995 L 255.82999999999996,398.41299999999995 L 255.69799999999995,398.41299999999995 L 255.60099999999994,398.36799999999994 L 255.25499999999994,398.3569999999999 L 255.02699999999993,398.28399999999993 L 254.90199999999993,398.22099999999995 L 254.84099999999992,398.1449999999999 L 255.025,398.09 M 256.717,398.896 L 256.65999999999997,398.946 L 256.508,398.834 L 256.28799999999995,398.785 L 256.15899999999993,398.61 L 256.0349999999999,398.543 L 256.0249999999999,398.479 L 256.2289999999999,398.437 L 256.3709999999999,398.456 L 256.52899999999994,398.589 L 256.61999999999995,398.835 L 256.717,398.896 M 257.132,399.372 L 257.04,399.38 L 256.761,399.255 L 256.678,399.15 L 256.776,399.00899999999996 L 256.797,398.85599999999994 L 256.83500000000004,398.84599999999995 L 256.88000000000005,399.0319999999999 L 257.0930000000001,399.11099999999993 L 257.10600000000005,399.15199999999993 L 257.237,399.3089999999999 L 257.132,399.372 M 257.723,399.9 L 257.608,399.99199999999996 L 257.482,399.859 L 257.40200000000004,399.84499999999997 L 257.29100000000005,399.792 L 257.0760000000001,399.64399999999995 L 257.02400000000006,399.49099999999993 L 257.20300000000003,399.4789999999999 L 257.42900000000003,399.5059999999999 L 257.824,399.5929999999999 L 257.789,399.7659999999999 L 257.723,399.9 M 243.991,401.042 L 243.73000000000002,401.20099999999996 L 243.17300000000003,401.42499999999995 L 242.87400000000002,401.43299999999994 L 242.57200000000003,401.34899999999993 L 242.36400000000003,401.1619999999999 L 242.24500000000003,400.9769999999999 L 242.25500000000002,400.8879999999999 L 242.44400000000002,401.03599999999994 L 242.60700000000003,401.1089999999999 L 242.741,401.05999999999995 L 242.836,400.97999999999996 L 242.53,400.38199999999995 L 242.544,400.256 L 242.787,399.92699999999996 L 243.448,400.027 L 243.56300000000002,400.085 L 243.65500000000003,400.293 L 243.80200000000002,400.456 L 243.97500000000002,400.892 L 243.991,401.042" id="CU" title="Cuba"/>
</svg>
