<svg xmlns="http://www.w3.org/2000/svg" xmlns:ev="http://www.w3.org/2001/xml-events" xmlns:xlink="http://www.w3.org/1999/xlink" baseProfile="full" height="6.89300537109375" version="1.1" viewBox="404.5790100097656 413.9939880371094 7.4639892578125 6.89300537109375" width="7.4639892578125" fill="#00394f">
	<defs/>
	<path class="land" d="M 405.061,414.715 L 404.78799999999995,414.775 L 404.67199999999997,414.746 L 404.63399999999996,414.51399999999995 L 404.57899999999995,414.36099999999993 L 404.5919999999999,414.29299999999995 L 405.21899999999994,413.99399999999997 L 405.43999999999994,414.044 L 405.59399999999994,414.28299999999996 L 405.4889999999999,414.41499999999996 L 405.061,414.715 M 405.854,415.089 L 405.62399999999997,415.159 L 405.481,415.15 L 405.276,415.04699999999997 L 405.34000000000003,414.936 L 405.562,414.81199999999995 L 405.71500000000003,414.78599999999994 L 405.84000000000003,415.00699999999995 L 405.854,415.089 M 411.464,415.553 L 411.374,415.702 L 411.264,415.483 L 411.204,415.431 L 411.175,415.11699999999996 L 411.338,415.02299999999997 L 411.41700000000003,415.015 L 411.41900000000004,415.34 L 411.464,415.553 M 408.098,415.659 L 408.214,415.74399999999997 L 408.252,415.806 L 408.08,415.83799999999997 L 407.662,415.72599999999994 L 407.551,415.7939999999999 L 407.44,416.0349999999999 L 407.227,415.6699999999999 L 407.24199999999996,415.5359999999999 L 407.287,415.4969999999999 L 407.58299999999997,415.5929999999999 L 408.098,415.659 M 411.381,416.779 L 411.61499999999995,416.832 L 411.70399999999995,416.813 L 411.85299999999995,416.825 L 412.013,416.977 L 412.04299999999995,417.13899999999995 L 411.96399999999994,417.3419999999999 L 411.65399999999994,417.5089999999999 L 411.47499999999997,417.4889999999999 L 411.26399999999995,417.33699999999993 L 411.38499999999993,417.0369999999999 L 411.381,416.779 M 409.903,420.339 L 409.73400000000004,420.604 L 409.362,420.58299999999997 L 409.17100000000005,420.474 L 408.94700000000006,420.14099999999996 L 408.95400000000006,419.883 L 409.0330000000001,419.659 L 409.01900000000006,419.465 L 409.05100000000004,419.414 L 409.16600000000005,419.448 L 409.18500000000006,419.57899999999995 L 409.5230000000001,419.89899999999994 L 409.6480000000001,419.96099999999996 L 409.903,420.339 M 410.639,419.967 L 410.56100000000004,419.978 L 410.444,419.848 L 410.47,419.668 L 410.45700000000005,419.621 L 410.56100000000004,419.429 L 410.76500000000004,419.44599999999997 L 410.81700000000006,419.58899999999994 L 410.82700000000006,419.8829999999999 L 410.639,419.967 M 407.479,420.777 L 407.26099999999997,420.887 L 407.10799999999995,420.839 L 406.96299999999997,420.725 L 406.893,420.56 L 406.95,420.418 L 407.24399999999997,420.25100000000003 L 407.41999999999996,420.305 L 407.51399999999995,420.565 L 407.479,420.777" id="CV" title="Cape Verde"/>
</svg>
