<svg xmlns="http://www.w3.org/2000/svg" xmlns:ev="http://www.w3.org/2001/xml-events" xmlns:xlink="http://www.w3.org/1999/xlink" baseProfile="full" height="3.730987548828125" version="1.1" viewBox="566.3519897460938 356.0450134277344 6.32904052734375 3.730987548828125" width="6.32904052734375" fill="#00394f">
	<defs/>
	<path class="land" d="M 572.42,356.28 L 570.957,357.314 L 570.862,357.621 L 570.927,357.833 L 571.133,358.09 L 571.187,358.157 L 571.261,358.352 L 570.942,358.41 L 570.622,358.429 L 570.444,358.403 L 570.276,358.415 L 569.757,358.972 L 569.478,359.161 L 569.146,359.273 L 568.808,359.34 L 568.638,359.349 L 568.488,359.419 L 568.383,359.548 L 568.381,359.673 L 568.336,359.776 L 568.15,359.755 L 568.073,359.553 L 567.941,359.466 L 567.612,359.511 L 567.452,359.505 L 566.926,359.313 L 566.767,359.233 L 566.668,359.068 L 566.397,358.472 L 566.352,358.029 L 566.604,358.143 L 566.84,358.005 L 567.067,357.78 L 567.338,357.688 L 567.507,357.728 L 567.675,357.768 L 567.977,357.696 L 568.107,357.362 L 568.15,356.978 L 568.66,357.088 L 569.178,357.145 L 569.601,357.164 L 570.019,357.102 L 571.298,356.691 L 571.66,356.445 L 571.885,356.361 L 572.274,356.158 L 572.681,356.045 L 572.42,356.28" id="CY" title="Cyprus"/>
</svg>
