<svg xmlns="http://www.w3.org/2000/svg" xmlns:ev="http://www.w3.org/2001/xml-events" xmlns:xlink="http://www.w3.org/1999/xlink" baseProfile="full" height="10.678009033203125" version="1.1" viewBox="509.6289978027344 296.4100036621094 18.923004150390625 10.678009033203125" width="18.923004150390625">
	<defs/>
	<path class="land" d="M 517.262,297.204 L 517.504,297.193 L 517.749,297.082 L 517.769,296.901 L 517.753,296.563 L 517.779,296.514 L 518.15,296.61 L 518.522,296.762 L 518.574,297.098 L 518.674,297.263 L 518.792,297.414 L 518.904,297.482 L 519.099,297.493 L 519.604,297.692 L 519.847,297.732 L 520.096,297.87 L 520.306,298.01 L 520.459,298.04 L 520.53,298.193 L 520.624,298.298 L 520.79,298.217 L 521.396,298.104 L 521.614,298.255 L 521.761,298.415 L 521.781,298.465 L 521.704,298.606 L 521.667,298.715 L 521.604,298.788 L 521.396,298.865 L 521.279,298.989 L 521.193,299.125 L 521.251,299.255 L 521.421,299.353 L 521.541,299.375 L 521.587,299.47 L 521.972,299.894 L 522.278,300.447 L 522.397,300.533 L 522.509,300.554 L 522.639,300.473 L 522.789,300.293 L 522.966,300.164 L 523.116,300.097 L 523.381,299.944 L 523.392,299.845 L 523.17,299.47 L 523.043,299.166 L 523.073,299.111 L 523.356,299.159 L 523.836,299.325 L 524.575,299.866 L 524.708,299.866 L 524.966,299.825 L 525.247,299.737 L 525.381,299.637 L 525.431,299.674 L 525.474,299.971 L 525.4,300.134 L 525.064,300.292 L 525.083,300.37 L 525.17,300.471 L 525.321,300.539 L 525.505,300.731 L 525.632,300.95 L 525.743,301.051 L 525.865,301.099 L 526.171,300.982 L 526.257,300.89 L 526.296,300.825 L 526.355,300.839 L 526.462,300.947 L 526.495,301.01 L 526.792,301.132 L 526.964,301.282 L 527.073,301.352 L 527.194,301.284 L 527.665,301.403 L 527.795,301.503 L 527.836,301.669 L 527.813,301.77 L 527.885,302.03 L 528.481,302.653 L 528.543,302.971 L 528.552,303.098 L 528.481,303.104 L 528.32,303.17 L 528.114,303.194 L 527.891,303.181 L 527.717,303.296 L 527.553,303.484 L 527.383,303.614 L 527.292,303.729 L 527.24,303.849 L 526.668,304.187 L 526.588,304.328 L 526.525,304.52 L 526.498,304.778 L 526.458,305.01 L 526.359,305.132 L 526.05,305.237 L 525.973,305.293 L 525.915,305.411 L 525.742,305.592 L 525.539,305.764 L 525.165,305.961 L 524.764,306.021 L 524.243,305.957 L 523.938,305.88 L 523.791,305.965 L 523.587,306.221 L 523.369,306.661 L 523.278,306.992 L 523.208,306.898 L 523.083,306.548 L 522.942,306.503 L 522.749,306.47 L 522.604,306.418 L 522.29,306.216 L 522.129,306.155 L 521.944,306.139 L 521.768,306.258 L 521.634,306.398 L 521.219,306.396 L 520.764,306.331 L 520.113,305.865 L 519.944,305.861 L 519.764,305.882 L 519.479,305.771 L 518.928,305.469 L 518.669,305.398 L 518.506,305.441 L 518.357,305.509 L 518.25,305.517 L 518.189,305.418 L 517.984,305.297 L 517.778,305.283 L 517.719,305.356 L 517.649,306.021 L 517.58,306.261 L 517.297,306.25 L 517.196,306.362 L 516.974,306.683 L 516.931,306.99 L 516.545,306.931 L 516.362,306.879 L 516.2,306.918 L 516.022,307.088 L 515.523,307.078 L 515.128,306.977 L 514.959,306.596 L 514.778,306.444 L 514.55,306.31 L 514.471,306.279 L 514.345,306.071 L 514.106,305.813 L 513.721,305.459 L 513.421,305.477 L 513.31,305.383 L 513.261,305.253 L 513.136,305.028 L 512.994,304.872 L 512.823,304.811 L 512.578,304.611 L 512.25,304.175 L 511.95,303.873 L 511.66,303.878 L 511.477,303.72 L 511.289,303.512 L 511.151,303.311 L 510.937,302.821 L 510.781,302.541 L 510.66,302.368 L 510.523,302.224 L 510.473,302.109 L 510.641,301.847 L 510.702,301.717 L 510.774,301.617 L 510.816,301.511 L 510.814,301.432 L 510.662,301.172 L 510.456,300.984 L 510.153,300.794 L 509.96,300.553 L 509.89,300.333 L 509.869,300.211 L 509.736,300.047 L 509.629,299.806 L 509.629,299.661 L 509.656,299.62 L 509.756,299.62 L 509.868,299.719 L 510.026,299.909 L 510.156,300.187 L 510.235,300.081 L 510.384,299.785 L 510.648,299.45 L 510.918,299.258 L 511.161,299.242 L 511.36,299.189 L 511.525,299.093 L 511.814,299.132 L 512.023,299.201 L 512.091,299.158 L 512.176,298.983 L 512.23,298.832 L 512.692,298.744 L 512.851,298.452 L 512.94,298.453 L 513.043,298.41 L 513.141,298.299 L 513.235,298.253 L 513.31,298.309 L 513.408,298.345 L 513.51,298.275 L 513.662,297.939 L 513.746,297.887 L 514.152,297.835 L 514.706,297.637 L 514.986,297.461 L 515.261,297.365 L 515.557,297.194 L 516.026,297.028 L 516.048,296.96 L 515.831,296.789 L 515.758,296.681 L 515.708,296.57 L 515.785,296.447 L 515.888,296.41 L 516.021,296.461 L 516.414,296.534 L 516.522,296.605 L 516.561,296.778 L 516.661,296.939 L 516.741,296.957 L 516.712,297.219 L 516.837,297.321 L 517.021,297.4 L 517.142,297.384 L 517.229,297.278 L 517.262,297.204" id="CZ" title="Czechia"/>
</svg>
