<svg xmlns="http://www.w3.org/2000/svg" xmlns:ev="http://www.w3.org/2001/xml-events" xmlns:xlink="http://www.w3.org/1999/xlink" baseProfile="full" height="34.837005615234375" version="1.1" viewBox="492.1390075683594 277.6650085449219 25.709014892578125 34.837005615234375" width="25.709014892578125">
	<defs/>
	<path class="land" d="M 499.015,278.99 L 498.95,279.086 L 498.981,278.399 L 499.288,277.665 L 499.418,277.682 L 499.285,277.88100000000003 L 499.24600000000004,278.02000000000004 L 499.19200000000006,278.297 L 499.21600000000007,278.44100000000003 L 499.9170000000001,278.48100000000005 L 499.8350000000001,278.60900000000004 L 499.1240000000001,278.69500000000005 L 499.015,278.99 M 503.034,278.803 L 503.051,278.892 L 503.462,279.021 L 503.635,279.22700000000003 L 503.827,279.53900000000004 L 503.846,279.987 L 503.6,280.309 L 503.396,280.51300000000003 L 504.16700000000003,280.43600000000004 L 504.244,280.62000000000006 L 504.36100000000005,280.8190000000001 L 504.77600000000007,280.6770000000001 L 505.81800000000004,281.26400000000007 L 506.44800000000004,280.97800000000007 L 506.60900000000004,280.96100000000007 L 506.752,281.43500000000006 L 506.595,281.91100000000006 L 506.04,282.41700000000003 L 506.163,282.72900000000004 L 506.341,282.79800000000006 L 506.86400000000003,282.7320000000001 L 507.69300000000004,283.0390000000001 L 507.86600000000004,282.9430000000001 L 508.53800000000007,282.2340000000001 L 508.8070000000001,282.0810000000001 L 509.6910000000001,281.9720000000001 L 509.8520000000001,281.6960000000001 L 510.2100000000001,281.4190000000001 L 510.4400000000001,281.1160000000001 L 510.9930000000001,280.5370000000001 L 511.5650000000001,280.6410000000001 L 511.8990000000001,280.75200000000007 L 512.2650000000001,280.80800000000005 L 512.5980000000001,281.42500000000007 L 513.4420000000001,282.10400000000004 L 514.2170000000001,282.045 L 514.4920000000001,282.68600000000004 L 514.614,283.47400000000005 L 514.8520000000001,283.72100000000006 L 515.061,283.88200000000006 L 515.692,284.05000000000007 L 515.717,284.06000000000006 L 515.7379999999999,284.16600000000005 L 515.7769999999999,284.55600000000004 L 515.8299999999999,284.87800000000004 L 516.155,286.16 L 516.149,286.47200000000004 L 516.145,286.55500000000006 L 516.026,286.9920000000001 L 515.8149999999999,287.3590000000001 L 515.536,287.5660000000001 L 515.382,287.7960000000001 L 515.3539999999999,288.0490000000001 L 515.7049999999999,288.4920000000001 L 516.4359999999999,289.12500000000006 L 516.7309999999999,289.6650000000001 L 516.5919999999999,290.11300000000006 L 516.5499999999998,290.44100000000003 L 516.6039999999998,290.64900000000006 L 516.7209999999998,290.81600000000003 L 516.9009999999997,290.942 L 516.9729999999997,291.136 L 516.9359999999997,291.398 L 516.9699999999997,291.58000000000004 L 517.1049999999997,291.70900000000006 L 517.0919999999996,291.75900000000007 L 517.0269999999996,291.9410000000001 L 516.9379999999995,292.2720000000001 L 516.8869999999995,292.5140000000001 L 516.6809999999995,292.8420000000001 L 516.7439999999995,293.1210000000001 L 516.9049999999994,293.44900000000007 L 517.0279999999995,293.6140000000001 L 517.0669999999994,293.7700000000001 L 516.9889999999995,294.1400000000001 L 517.0279999999995,294.2350000000001 L 517.5369999999995,294.5070000000001 L 517.6199999999994,294.6320000000001 L 517.6689999999994,294.89300000000014 L 517.8479999999994,295.45000000000016 L 517.6999999999994,296.15400000000017 L 517.5699999999994,296.53900000000016 L 517.2799999999994,297.14800000000014 L 517.2659999999994,297.2040000000001 L 517.2329999999994,297.27800000000013 L 517.1459999999994,297.3840000000001 L 517.0249999999994,297.40000000000015 L 516.8419999999994,297.32100000000014 L 516.7169999999994,297.21900000000016 L 516.7459999999994,296.95700000000016 L 516.6649999999994,296.9390000000002 L 516.5649999999994,296.7780000000002 L 516.5259999999994,296.6050000000002 L 516.4179999999994,296.53400000000016 L 516.0249999999994,296.4610000000002 L 515.8909999999994,296.4100000000002 L 515.7879999999994,296.4470000000002 L 515.7109999999994,296.57000000000016 L 515.7599999999994,296.68100000000015 L 515.8329999999994,296.78900000000016 L 516.0509999999994,296.96000000000015 L 516.0289999999993,297.02800000000013 L 515.5589999999993,297.1950000000001 L 515.2639999999993,297.3650000000001 L 514.9889999999994,297.4610000000001 L 514.7089999999994,297.6370000000001 L 514.1559999999994,297.8350000000001 L 513.7499999999994,297.8870000000001 L 513.6659999999995,297.93900000000014 L 513.5149999999995,298.2740000000001 L 513.4129999999996,298.3440000000001 L 513.3139999999995,298.3080000000001 L 513.2399999999996,298.2530000000001 L 513.1459999999995,298.2980000000001 L 513.0479999999995,298.4090000000001 L 512.9449999999996,298.4520000000001 L 512.8559999999995,298.45100000000014 L 512.6969999999995,298.7430000000001 L 512.2349999999996,298.83100000000013 L 512.1809999999996,298.98200000000014 L 512.0959999999995,299.15700000000015 L 512.0279999999996,299.20000000000016 L 511.81999999999954,299.13100000000014 L 511.53099999999955,299.09200000000016 L 511.36499999999955,299.18800000000016 L 511.16599999999954,299.24100000000016 L 510.92299999999955,299.2570000000002 L 510.65199999999953,299.44800000000015 L 510.3879999999995,299.78300000000013 L 510.2399999999995,300.0790000000001 L 510.1599999999995,300.1850000000001 L 510.0309999999995,299.9070000000001 L 509.8729999999995,299.7170000000001 L 509.76099999999946,299.6180000000001 L 509.66099999999943,299.6180000000001 L 509.6349999999994,299.6590000000001 L 509.6349999999994,299.8040000000001 L 509.74199999999945,300.0450000000001 L 509.87399999999946,300.2100000000001 L 509.89499999999947,300.3320000000001 L 509.9659999999995,300.55200000000013 L 510.1589999999995,300.7930000000001 L 510.4609999999995,300.9830000000001 L 510.6669999999995,301.1710000000001 L 510.81999999999954,301.4310000000001 L 510.8209999999995,301.5110000000001 L 510.77899999999954,301.6170000000001 L 510.70699999999954,301.7170000000001 L 510.64599999999956,301.8470000000001 L 510.47799999999955,302.1090000000001 L 510.52799999999957,302.2240000000001 L 510.66499999999957,302.3680000000001 L 510.78599999999955,302.5410000000001 L 510.94199999999955,302.8210000000001 L 511.15599999999955,303.3110000000001 L 511.2939999999995,303.5120000000001 L 511.4819999999995,303.72000000000014 L 511.66599999999954,303.87800000000016 L 511.95599999999956,303.87300000000016 L 512.2559999999995,304.1750000000002 L 512.5839999999995,304.61100000000016 L 512.8289999999995,304.8100000000002 L 512.9999999999995,304.87100000000015 L 513.1419999999996,305.02800000000013 L 513.2669999999996,305.25300000000016 L 513.3159999999996,305.38300000000015 L 513.4269999999996,305.47700000000015 L 513.7269999999995,305.4590000000002 L 514.1129999999995,305.81300000000016 L 514.3509999999995,306.07100000000014 L 514.4769999999995,306.27900000000017 L 514.4439999999995,306.3620000000002 L 514.4279999999995,306.6210000000002 L 514.4319999999996,306.8950000000002 L 514.3939999999996,307.0400000000002 L 514.2219999999995,307.23100000000017 L 514.1329999999995,307.27200000000016 L 514.0849999999995,307.31300000000016 L 513.5559999999995,307.06400000000014 L 513.5139999999994,307.1060000000001 L 513.4809999999994,307.1370000000001 L 513.3389999999994,307.8560000000001 L 513.2419999999994,307.9940000000001 L 513.0959999999994,308.1210000000001 L 512.7939999999994,308.2450000000001 L 512.5839999999994,308.29500000000013 L 512.4199999999994,308.3580000000001 L 511.9009999999994,308.65800000000013 L 511.6679999999994,308.83800000000014 L 511.51699999999937,309.06400000000014 L 511.5159999999994,309.19400000000013 L 511.7679999999994,309.5750000000001 L 512.0589999999994,309.9690000000001 L 512.0599999999994,310.31400000000014 L 511.9319999999994,310.5720000000001 L 511.9019999999994,310.6710000000001 L 511.98799999999943,310.7090000000001 L 512.1489999999994,310.7230000000001 L 512.2839999999994,310.7670000000001 L 512.3409999999994,310.9490000000001 L 512.3239999999994,311.2640000000001 L 512.2779999999993,311.55900000000014 L 512.2299999999993,311.68300000000016 L 512.0999999999993,311.69300000000015 L 511.84999999999934,311.56600000000014 L 511.65499999999935,311.4180000000001 L 511.57999999999936,311.3270000000001 L 511.57599999999934,311.21800000000013 L 511.6179999999993,311.1490000000001 L 511.5489999999993,311.0150000000001 L 511.3089999999993,310.8900000000001 L 511.0519999999993,310.9440000000001 L 510.86299999999926,311.0270000000001 L 510.73999999999927,311.0220000000001 L 510.60799999999927,310.9020000000001 L 510.40399999999926,310.8100000000001 L 510.13799999999924,310.74900000000014 L 509.97199999999924,310.6850000000001 L 509.9369999999992,310.7230000000001 L 509.9559999999992,310.98200000000014 L 509.90499999999923,311.09500000000014 L 508.58899999999926,311.2450000000001 L 508.18799999999925,311.3850000000001 L 507.8959999999993,311.5660000000001 L 507.67999999999927,311.64400000000006 L 507.62699999999927,311.75500000000005 L 507.4129999999993,311.90100000000007 L 507.1719999999993,311.94700000000006 L 507.11299999999926,311.90000000000003 L 506.9579999999993,311.96700000000004 L 506.6939999999993,312.03200000000004 L 506.5229999999993,312.011 L 506.44199999999927,311.89300000000003 L 506.27899999999926,311.71200000000005 L 506.2129999999993,311.58700000000005 L 506.2199999999993,311.50600000000003 L 505.85099999999926,311.49 L 505.61899999999923,311.394 L 505.1249999999992,311.416 L 505.0029999999992,311.375 L 504.9779999999992,311.418 L 504.9039999999992,311.932 L 504.8059999999992,312.142 L 504.6479999999992,312.359 L 504.4449999999992,312.47999999999996 L 504.2839999999992,312.50199999999995 L 504.2909999999992,312.34399999999994 L 504.3319999999992,312.15299999999996 L 504.2149999999992,312.10799999999995 L 504.03999999999917,312.08699999999993 L 503.95599999999916,312.0299999999999 L 503.97799999999916,311.8839999999999 L 503.93699999999916,311.7989999999999 L 503.86499999999916,311.69699999999995 L 503.68899999999917,311.566 L 503.31699999999915,311.37199999999996 L 503.06399999999917,311.275 L 502.96899999999914,311.378 L 502.78799999999916,311.481 L 502.50299999999913,311.447 L 502.43299999999914,311.488 L 501.94399999999916,311.178 L 501.47499999999917,310.88 L 501.3199999999992,310.88 L 500.6289999999992,310.94 L 500.60899999999924,310.914 L 500.48799999999926,310.74399999999997 L 500.38199999999927,310.69 L 500.31799999999924,310.718 L 500.27499999999924,310.767 L 500.2009999999992,310.759 L 499.8909999999992,310.485 L 499.7639999999992,310.445 L 499.5879999999992,310.48199999999997 L 499.3799999999992,310.63 L 499.2889999999992,310.811 L 499.3169999999992,310.91499999999996 L 499.42399999999924,310.96 L 499.70699999999925,310.93 L 499.74799999999925,310.96 L 499.75799999999924,311.019 L 499.72699999999924,311.076 L 499.49799999999925,311.12300000000005 L 499.4319999999993,311.19200000000006 L 499.36499999999927,311.20900000000006 L 499.32199999999926,311.2200000000001 L 499.07799999999924,311.1480000000001 L 498.71499999999924,311.1480000000001 L 498.42199999999923,311.2750000000001 L 497.9539999999992,311.3260000000001 L 497.31099999999924,311.3010000000001 L 497.07999999999925,311.2060000000001 L 496.9389999999992,311.14900000000006 L 496.83699999999925,310.8690000000001 L 496.86299999999926,310.45400000000006 L 497.0159999999993,309.9030000000001 L 497.0589999999993,309.4980000000001 L 496.9909999999993,309.2400000000001 L 497.0819999999993,308.85200000000015 L 497.3319999999993,308.3340000000002 L 497.4989999999993,307.78700000000015 L 497.5819999999993,307.2090000000002 L 497.7029999999993,306.83200000000016 L 497.9409999999993,306.5670000000002 L 498.5059999999993,305.82500000000016 L 498.5519999999993,305.7690000000002 L 498.53599999999926,305.3980000000002 L 498.3839999999993,305.3450000000002 L 498.16099999999926,305.23800000000017 L 497.59399999999926,305.10600000000017 L 497.06599999999924,305.0210000000002 L 496.8259999999992,304.91600000000017 L 496.61599999999925,304.63500000000016 L 496.48599999999925,304.63100000000014 L 496.23099999999926,304.73200000000014 L 495.9129999999993,304.8000000000001 L 495.68099999999924,304.7410000000001 L 495.53599999999926,304.7520000000001 L 495.45499999999925,304.80400000000014 L 495.41399999999925,304.75800000000015 L 495.35599999999926,304.51700000000017 L 495.2349999999993,304.4540000000002 L 495.0469999999993,304.3980000000002 L 494.92999999999927,304.4220000000002 L 494.84899999999925,304.5420000000002 L 494.72399999999925,304.6260000000002 L 494.6099999999993,304.5990000000002 L 494.2509999999993,304.0410000000002 L 494.1589999999993,303.9170000000002 L 494.1359999999993,303.8030000000002 L 494.0459999999993,303.5950000000002 L 493.8319999999993,303.38700000000017 L 493.6189999999993,303.3210000000002 L 493.5129999999993,303.3440000000002 L 493.5249999999993,303.08600000000024 L 493.6079999999993,302.71100000000024 L 493.6879999999993,302.5150000000002 L 493.7939999999993,302.3550000000002 L 493.9069999999993,302.24300000000017 L 493.9319999999993,302.04100000000017 L 493.9139999999993,301.8500000000002 L 493.7839999999993,301.8200000000002 L 493.4579999999993,301.6790000000002 L 493.2649999999993,301.5300000000002 L 493.12199999999933,301.3430000000002 L 492.93399999999934,301.0860000000002 L 492.85399999999936,300.8240000000002 L 492.84999999999934,300.56300000000016 L 492.87199999999933,300.44600000000014 L 492.88599999999934,300.3650000000001 L 493.03699999999935,299.9570000000001 L 493.56899999999933,299.5910000000001 L 493.5099999999993,299.2220000000001 L 493.5019999999993,298.9950000000001 L 493.3729999999993,298.8470000000001 L 493.1149999999993,298.7870000000001 L 493.04699999999934,298.6840000000001 L 493.01799999999935,298.5830000000001 L 493.20699999999937,298.3560000000001 L 492.9779999999994,298.17700000000013 L 492.874,298.0 L 492.55600000000004,297.766 L 492.52200000000005,297.685 L 492.67500000000007,297.0 L 492.55800000000005,296.8 L 492.41300000000007,296.69800000000004 L 492.2440000000001,296.648 L 492.1660000000001,296.553 L 492.1390000000001,296.444 L 492.1690000000001,296.377 L 492.3680000000001,296.397 L 492.4300000000001,296.32599999999996 L 492.9040000000001,295.92199999999997 L 492.9240000000001,295.844 L 492.8580000000001,295.8 L 492.7720000000001,295.777 L 492.7500000000001,295.692 L 492.7530000000001,295.58 L 493.0060000000001,294.995 L 493.0810000000001,294.745 L 493.09800000000007,294.568 L 493.08200000000005,294.393 L 492.93600000000004,294.118 L 492.795,293.89799999999997 L 492.79,293.72299999999996 L 492.687,293.631 L 492.39500000000004,293.15999999999997 L 492.39500000000004,292.97799999999995 L 492.56000000000006,292.83599999999996 L 492.79100000000005,292.746 L 492.86800000000005,292.671 L 493.00600000000003,292.62399999999997 L 493.37300000000005,292.76 L 493.53700000000003,292.878 L 493.583,292.854 L 493.73100000000005,292.726 L 493.99100000000004,292.746 L 494.62000000000006,292.488 L 494.71400000000006,292.364 L 494.78400000000005,292.23199999999997 L 494.79,292.174 L 494.546,291.919 L 494.539,291.825 L 494.57099999999997,291.719 L 494.64,291.635 L 494.784,291.578 L 494.937,291.46599999999995 L 495.28000000000003,291.14799999999997 L 495.39900000000006,290.87199999999996 L 495.43600000000004,290.57199999999995 L 495.44300000000004,290.34799999999996 L 495.34900000000005,290.16999999999996 L 495.254,290.05499999999995 L 495.125,290.0729999999999 L 494.874,290.0639999999999 L 494.639,289.9639999999999 L 494.51,289.8019999999999 L 494.478,289.6599999999999 L 494.53700000000003,289.56999999999994 L 494.555,289.4599999999999 L 494.517,289.34899999999993 L 494.532,289.2559999999999 L 494.638,289.1809999999999 L 495.381,289.18299999999994 L 495.43699999999995,289.10099999999994 L 495.48699999999997,288.6689999999999 L 495.67299999999994,288.00999999999993 L 495.84799999999996,287.64199999999994 L 495.87699999999995,287.48699999999997 L 495.87399999999997,286.61199999999997 L 495.89799999999997,286.167 L 495.77099999999996,285.95799999999997 L 495.49399999999997,285.729 L 495.553,285.251 L 495.645,284.87699999999995 L 495.924,284.417 L 496.145,284.291 L 497.10999999999996,284.216 L 498.17599999999993,284.247 L 498.6189999999999,284.942 L 498.4549999999999,285.298 L 498.71399999999994,285.464 L 498.83899999999994,285.403 L 498.93399999999997,285.093 L 498.99699999999996,284.749 L 499.08799999999997,284.64500000000004 L 499.41799999999995,284.90200000000004 L 499.53399999999993,285.07800000000003 L 499.54099999999994,285.64200000000005 L 499.66299999999995,284.87700000000007 L 499.57199999999995,284.3400000000001 L 499.63399999999996,283.8180000000001 L 499.76699999999994,283.5460000000001 L 499.88899999999995,283.3730000000001 L 500.67099999999994,283.5600000000001 L 501.5349999999999,283.4640000000001 L 501.8619999999999,283.6660000000001 L 502.6009999999999,284.6730000000001 L 502.8479999999999,284.83800000000014 L 503.1589999999999,284.89000000000016 L 502.7299999999999,284.6750000000002 L 501.8339999999999,283.4490000000002 L 501.5659999999999,283.2970000000002 L 501.15399999999994,283.2510000000002 L 500.89699999999993,283.1310000000002 L 500.73499999999996,282.9450000000002 L 500.68799999999993,282.77800000000025 L 500.69699999999995,281.53300000000024 L 500.54299999999995,281.34700000000026 L 500.34299999999996,281.28300000000024 L 500.21799999999996,281.3680000000002 L 499.962,281.3690000000002 L 499.908,281.0860000000002 L 499.971,280.8760000000002 L 500.485,280.7320000000002 L 500.824,280.5390000000002 L 500.839,280.1980000000002 L 500.625,279.9290000000002 L 500.369,279.4350000000002 L 500.06800000000004,278.9700000000002 L 500.03400000000005,278.4280000000002 L 500.035,278.4280000000002 L 500.559,278.4380000000002 L 500.687,278.45900000000023 L 501.481,278.71300000000025 L 501.675,278.89100000000025 L 501.91900000000004,278.8990000000002 L 502.35900000000004,278.73300000000023 L 502.68800000000005,278.66000000000025 L 502.81500000000005,278.76300000000026 L 502.994,278.80600000000027 L 503.034,278.80600000000027 L 503.034,278.803 M 499.801,279.351 L 499.692,279.47 L 499.42400000000004,279.456 L 499.27400000000006,279.344 L 499.32300000000004,279.22499999999997 L 499.46500000000003,279.13399999999996 L 499.583,279.11999999999995 L 499.761,279.17599999999993 L 499.801,279.351 M 514.174,280.943 L 514.244,281.26599999999996 L 514.169,281.431 L 513.8539999999999,281.157 L 513.5369999999999,281.161 L 513.348,281.582 L 513.207,281.59999999999997 L 512.718,281.217 L 512.639,281.03 L 512.623,280.87399999999997 L 512.6930000000001,280.33399999999995 L 512.6800000000001,280.16399999999993 L 512.8340000000001,279.97799999999995 L 512.8580000000001,279.70799999999997 L 513.129,279.424 L 513.371,279.41299999999995 L 513.447,279.65399999999994 L 513.563,279.81999999999994 L 513.9689999999999,280.0059999999999 L 514.03,280.0899999999999 L 514.067,280.20699999999994 L 513.878,280.43499999999995 L 513.8140000000001,280.55199999999996 L 513.874,280.739 L 514.174,280.943 M 507.365,280.774 L 506.934,280.783 L 506.769,280.591 L 506.604,280.54200000000003 L 506.693,280.305 L 506.80899999999997,280.218 L 507.22599999999994,280.373 L 507.3569999999999,280.676 L 507.365,280.774 M 515.583,283.011 L 515.5459999999999,283.16 L 515.5889999999999,283.389 L 515.473,283.372 L 515.125,283.426 L 514.781,283.34999999999997 L 514.7149999999999,283.06499999999994 L 514.7699999999999,282.79099999999994 L 514.6319999999998,282.6019999999999 L 514.5049999999999,282.49099999999993 L 514.4859999999999,282.3329999999999 L 514.5069999999998,282.1679999999999 L 515.0999999999998,282.6099999999999 L 515.583,283.011" id="DE" title="Germany"/>
</svg>
