<svg xmlns="http://www.w3.org/2000/svg" xmlns:ev="http://www.w3.org/2001/xml-events" xmlns:xlink="http://www.w3.org/1999/xlink" baseProfile="full" height="5.0360107421875" version="1.1" viewBox="592.9119873046875 426.9440002441406 4.61602783203125 5.0360107421875" width="4.61602783203125">
	<defs/>
	<path class="land" d="M 597.069,430.392 L 596.826,430.773 L 596.515,431.261 L 596.162,431.815 L 595.941,431.819 L 595.77,431.787 L 595.652,431.693 L 595.41,431.59 L 595.137,431.583 L 594.877,431.679 L 594.437,431.798 L 594.039,431.837 L 593.718,431.903 L 593.453,431.98 L 593.213,431.938 L 593.006,431.869 L 592.96,431.279 L 592.912,430.639 L 592.917,430.138 L 592.99,429.862 L 593.055,429.754 L 593.431,429.373 L 593.561,429.217 L 593.99,428.585 L 594.359,428.042 L 594.634,427.637 L 594.719,427.557 L 594.835,427.479 L 594.917,427.502 L 595.453,427.893 L 595.547,427.882 L 595.726,427.761 L 595.888,427.343 L 596.002,427.19 L 596.051,427.194 L 596.395,427.077 L 596.706,426.944 L 596.746,427.082 L 597.216,427.644 L 597.371,427.92 L 597.528,428.426 L 597.446,428.707 L 597.323,428.891 L 597.142,429.054 L 596.513,429.455 L 595.814,429.71 L 595.368,430.221 L 595.036,430.186 L 595.087,430.379 L 595.21,430.401 L 595.404,430.364 L 595.789,430.216 L 596.13,430.145 L 596.499,430.14 L 596.833,430.204 L 597.069,430.392" id="DJ" title="Djibouti"/>
</svg>
