<svg xmlns="http://www.w3.org/2000/svg" xmlns:ev="http://www.w3.org/2001/xml-events" xmlns:xlink="http://www.w3.org/1999/xlink" baseProfile="full" height="15.647003173828125" version="1.1" viewBox="498.4909973144531 264.1099853515625 19.691009521484375 15.647003173828125" width="19.691009521484375">
	<defs/>
	<path class="land" d="M 503.034,278.803 L 502.992,278.803 L 502.81300000000005,278.76 L 502.68600000000004,278.657 L 502.357,278.72999999999996 L 501.91700000000003,278.89599999999996 L 501.673,278.888 L 501.479,278.71 L 500.685,278.45599999999996 L 500.557,278.43499999999995 L 500.033,278.42499999999995 L 500.03200000000004,278.42499999999995 L 500.00700000000006,278.02299999999997 L 499.94200000000006,277.73199999999997 L 499.75800000000004,277.29799999999994 L 500.03000000000003,277.1929999999999 L 499.97700000000003,276.3429999999999 L 499.87800000000004,275.90199999999993 L 499.119,275.44699999999995 L 498.521,275.00399999999996 L 498.659,273.50399999999996 L 498.718,273.09799999999996 L 498.49100000000004,272.30799999999994 L 498.51500000000004,271.39399999999995 L 498.61100000000005,269.94599999999997 L 498.80100000000004,269.88899999999995 L 498.94100000000003,269.89599999999996 L 499.47900000000004,270.157 L 499.70300000000003,270.183 L 499.857,270.416 L 500.03700000000003,270.512 L 500.16700000000003,270.265 L 500.218,269.842 L 500.644,269.293 L 500.943,269.09000000000003 L 501.147,268.99300000000005 L 501.353,269.21500000000003 L 501.51,269.46400000000006 L 501.54699999999997,268.91900000000004 L 501.674,267.87600000000003 L 501.269,267.71200000000005 L 500.938,267.85400000000004 L 500.611,268.516 L 500.319,269.345 L 499.845,269.42100000000005 L 499.46700000000004,269.65500000000003 L 499.12600000000003,269.41200000000003 L 498.906,269.19800000000004 L 498.901,268.88500000000005 L 498.951,268.696 L 499.35200000000003,268.01800000000003 L 499.89000000000004,267.365 L 500.432,267.371 L 500.827,267.162 L 501.063,267.137 L 501.8,267.182 L 502.178,267.038 L 502.517,266.738 L 503.249,265.461 L 503.66200000000003,264.926 L 504.49500000000006,264.738 L 505.26500000000004,264.118 L 505.48,264.11 L 505.118,264.572 L 505.06,264.751 L 505.016,265.024 L 505.27500000000003,265.616 L 505.22,265.976 L 505.23900000000003,266.682 L 504.994,267.04900000000004 L 504.718,267.82700000000006 L 504.599,267.94100000000003 L 504.573,268.845 L 504.59999999999997,269.06 L 504.55999999999995,269.878 L 504.84299999999996,270.212 L 505.14199999999994,270.38599999999997 L 506.13999999999993,270.38 L 506.2439999999999,270.526 L 506.36599999999993,270.777 L 506.27699999999993,271.203 L 506.1699999999999,271.524 L 505.8809999999999,271.794 L 505.50999999999993,271.995 L 505.27899999999994,272.004 L 504.9649999999999,271.622 L 504.8159999999999,271.74600000000004 L 504.6619999999999,271.94100000000003 L 504.4029999999999,272.983 L 504.2799999999999,273.684 L 504.21399999999994,273.74100000000004 L 504.0679999999999,273.63700000000006 L 503.8159999999999,273.6290000000001 L 503.4969999999999,273.7950000000001 L 503.6609999999999,273.9430000000001 L 503.8339999999999,274.2000000000001 L 503.7649999999999,274.3290000000001 L 503.48399999999987,274.46800000000013 L 503.23499999999984,274.74900000000014 L 503.13099999999986,274.9610000000001 L 502.81799999999987,275.2120000000001 L 502.6199999999999,275.5300000000001 L 502.71699999999987,275.92300000000006 L 502.75799999999987,276.2680000000001 L 502.8439999999999,276.6480000000001 L 502.7659999999999,276.9510000000001 L 502.3769999999999,277.3850000000001 L 502.2339999999999,277.7600000000001 L 502.56699999999995,277.7550000000001 L 502.77199999999993,277.8410000000001 L 502.89199999999994,277.9520000000001 L 503.01599999999996,278.1090000000001 L 502.93999999999994,278.3030000000001 L 503.034,278.803 M 506.717,266.63 L 506.603,266.751 L 506.217,266.58 L 506.387,266.34 L 506.811,266.229 L 507.06,266.26599999999996 L 506.786,266.50399999999996 L 506.717,266.63 M 510.974,274.082 L 510.981,274.58 L 510.908,274.72499999999997 L 510.801,274.82099999999997 L 510.521,274.92199999999997 L 510.278,275.063 L 510.06100000000004,275.31 L 509.98100000000005,275.663 L 510.15000000000003,275.921 L 510.458,276.062 L 510.53700000000003,276.552 L 510.283,276.793 L 509.63100000000003,277.033 L 509.56300000000005,277.612 L 509.58400000000006,278.067 L 509.57200000000006,278.397 L 509.52000000000004,278.853 L 508.99300000000005,279.06 L 508.65200000000004,278.366 L 508.64900000000006,278.087 L 508.5470000000001,277.76099999999997 L 508.5280000000001,277.48299999999995 L 508.4070000000001,277.03799999999995 L 507.9080000000001,276.917 L 507.71400000000006,276.90099999999995 L 507.44300000000004,276.984 L 507.37600000000003,276.952 L 507.05100000000004,276.342 L 507.105,275.666 L 506.932,275.324 L 506.908,275.16900000000004 L 506.91200000000003,274.997 L 506.76900000000006,274.855 L 506.59700000000004,274.78000000000003 L 506.51300000000003,274.39700000000005 L 506.711,274.30400000000003 L 507.202,274.34900000000005 L 507.346,274.32300000000004 L 507.477,274.24300000000005 L 507.87399999999997,273.61100000000005 L 507.86199999999997,273.47100000000006 L 507.90399999999994,273.2900000000001 L 508.3329999999999,273.22300000000007 L 508.5239999999999,273.4680000000001 L 508.4849999999999,273.86000000000007 L 508.5089999999999,274.36000000000007 L 508.7689999999999,274.4960000000001 L 508.8699999999999,274.5160000000001 L 508.97899999999987,274.14700000000005 L 509.0549999999999,273.96700000000004 L 509.1579999999999,273.86600000000004 L 509.1929999999999,273.528 L 509.13199999999995,273.321 L 509.00199999999995,273.16600000000005 L 509.48799999999994,272.74600000000004 L 509.99099999999993,272.41200000000003 L 510.28399999999993,272.39400000000006 L 510.5779999999999,272.47600000000006 L 510.8519999999999,272.5880000000001 L 510.99999999999994,272.68500000000006 L 511.08299999999997,272.84100000000007 L 510.89899999999994,273.21200000000005 L 510.84799999999996,273.41400000000004 L 510.974,274.082 M 505.469,274.092 L 505.421,274.181 L 505.243,274.08799999999997 L 505.224,273.76599999999996 L 505.291,273.47599999999994 L 505.212,273.21599999999995 L 505.299,273.049 L 505.549,273.438 L 505.62,273.621 L 505.523,273.839 L 505.469,274.092 M 511.246,275.018 L 510.98199999999997,275.229 L 510.924,275.21799999999996 L 510.83799999999997,274.929 L 510.97799999999995,274.753 L 511.05999999999995,274.604 L 511.11899999999997,274.608 L 511.19899999999996,274.77 L 511.246,275.018 M 505.575,274.953 L 505.692,275.21099999999996 L 505.836,275.76099999999997 L 506.064,276.37499999999994 L 505.969,276.6309999999999 L 506.034,276.9589999999999 L 505.969,277.2999999999999 L 505.516,277.6959999999999 L 505.00800000000004,277.7139999999999 L 504.48,277.5229999999999 L 503.73400000000004,277.1539999999999 L 503.67400000000004,276.9469999999999 L 503.57000000000005,276.8319999999999 L 503.37000000000006,276.2009999999999 L 503.3740000000001,275.4199999999999 L 503.7490000000001,275.3209999999999 L 504.5680000000001,274.9469999999999 L 504.7570000000001,275.0059999999999 L 504.9550000000001,275.1969999999999 L 505.1830000000001,275.2079999999999 L 505.5130000000001,274.9369999999999 L 505.575,274.953 M 518.043,277.846 L 517.939,277.92900000000003 L 517.4749999999999,277.79200000000003 L 516.9099999999999,277.45300000000003 L 516.9929999999998,276.78700000000003 L 517.1379999999998,276.49800000000005 L 518.1689999999998,277.24500000000006 L 518.1819999999998,277.52600000000007 L 518.043,277.846 M 505.825,279.166 L 505.7,279.193 L 505.531,278.8 L 505.509,278.676 L 505.708,278.424 L 505.836,278.138 L 506.16900000000004,277.698 L 506.36,277.181 L 506.433,277.18899999999996 L 506.348,277.65 L 505.911,278.929 L 505.825,279.166 M 503.936,278.507 L 503.644,278.574 L 503.495,278.456 L 503.221,278.411 L 503.123,277.66 L 503.151,277.615 L 503.289,277.668 L 503.762,278.019 L 503.927,278.402 L 503.936,278.507 M 510.919,278.12 L 510.81199999999995,278.193 L 510.381,278.14 L 509.895,278.478 L 509.71099999999996,278.371 L 509.78099999999995,278.155 L 509.83199999999994,278.07599999999996 L 509.99499999999995,277.984 L 510.1039999999999,277.84999999999997 L 510.14699999999993,277.64 L 510.24799999999993,277.753 L 510.5489999999999,277.8 L 510.6959999999999,277.867 L 510.8189999999999,277.966 L 510.919,278.12 M 505.124,278.695 L 504.93600000000004,278.746 L 504.72100000000006,278.64 L 504.37000000000006,278.241 L 504.3260000000001,278.135 L 504.5100000000001,278.202 L 504.7390000000001,278.411 L 504.9260000000001,278.456 L 505.1820000000001,278.632 L 505.124,278.695 M 507.585,278.481 L 508.082,278.783 L 508.418,278.76500000000004 L 508.647,278.89000000000004 L 508.702,279.083 L 508.722,279.511 L 508.48199999999997,279.636 L 508.217,279.59400000000005 L 507.856,279.75700000000006 L 506.67199999999997,279.05800000000005 L 506.68899999999996,278.47300000000007 L 506.736,278.24300000000005 L 507.29699999999997,278.18800000000005 L 507.585,278.481" id="DK" title="Denmark"/>
</svg>
