<svg xmlns="http://www.w3.org/2000/svg" xmlns:ev="http://www.w3.org/2001/xml-events" xmlns:xlink="http://www.w3.org/1999/xlink" baseProfile="full" height="6.7139892578125" version="1.1" viewBox="273.6310119628906 405.9880065917969 10.2760009765625 6.7139892578125" width="10.2760009765625">
	<defs/>
	<path class="land" d="M 274.283,411.52 L 274.295,411.036 L 274.37,410.839 L 274.301,410.632 L 273.99,410.412 L 273.8,410.128 L 273.631,409.877 L 273.669,409.841 L 274.007,409.83 L 274.126,409.737 L 274.353,409.48 L 274.398,409.273 L 274.38,409.116 L 274.232,408.929 L 274.174,408.731 L 274.356,408.559 L 274.595,408.307 L 274.628,408.21 L 274.623,408.114 L 274.344,407.849 L 274.325,407.734 L 274.455,407.446 L 274.442,407.255 L 274.313,406.658 L 274.252,406.569 L 274.376,406.519 L 274.458,406.341 L 274.566,406.182 L 274.71,406.097 L 274.874,406.043 L 275.199,406.048 L 275.649,406.186 L 275.777,406.184 L 276.209,406.058 L 276.567,405.988 L 276.905,406.068 L 277.042,406.176 L 277.32,406.347 L 277.46,406.398 L 277.9,406.395 L 278.021,406.412 L 278.39,406.694 L 278.701,406.807 L 278.882,406.812 L 279.206,406.703 L 279.367,406.706 L 279.551,406.949 L 279.587,407.294 L 279.741,407.608 L 279.977,407.809 L 281.14,407.725 L 281.399,407.89 L 281.311,408.026 L 281.146,408.099 L 280.593,408.067 L 280.352,408.083 L 280.303,408.219 L 280.302,408.345 L 280.625,408.375 L 280.942,408.438 L 281.266,408.54 L 281.594,408.609 L 281.964,408.654 L 282.329,408.727 L 282.937,408.974 L 283.608,409.534 L 283.788,409.662 L 283.907,409.837 L 283.85,410.054 L 283.61,410.408 L 283.474,410.521 L 283.276,410.591 L 283.14,410.735 L 283.009,410.982 L 282.929,411.003 L 282.835,410.993 L 282.674,410.853 L 282.559,410.638 L 282.234,410.436 L 281.849,410.462 L 281.281,410.343 L 280.938,410.4 L 280.594,410.414 L 280.243,410.353 L 279.889,410.332 L 279.536,410.408 L 279.194,410.537 L 279.068,410.62 L 278.848,410.821 L 278.731,410.896 L 277.898,410.997 L 277.659,410.849 L 277.436,410.647 L 277.116,410.62 L 276.651,410.776 L 276.361,410.833 L 276.243,410.899 L 276.208,410.976 L 276.207,411.258 L 276.142,411.429 L 275.689,412.075 L 275.434,412.531 L 275.329,412.671 L 275.207,412.702 L 274.984,412.44 L 274.842,412.346 L 274.666,412.298 L 274.591,412.159 L 274.594,411.961 L 274.548,411.769 L 274.439,411.618 L 274.283,411.52" id="DO" title="Dominican Republic"/>
</svg>
