<svg xmlns="http://www.w3.org/2000/svg" xmlns:ev="http://www.w3.org/2001/xml-events" xmlns:xlink="http://www.w3.org/1999/xlink" baseProfile="full" height="57.6510009765625" version="1.1" viewBox="451.3299865722656 351.08099365234375 57.957000732421875 57.6510009765625" width="57.957000732421875">
	<defs/>
	<path class="land" d="M 499.77,351.624 L 499.829,351.81 L 499.839,351.984 L 499.573,352.146 L 499.398,352.24 L 499.188,352.687 L 498.799,352.99 L 498.734,353.082 L 498.737,353.165 L 499.001,353.302 L 499.089,353.432 L 499.13,353.606 L 499.012,354.228 L 498.938,354.704 L 498.841,355.327 L 498.845,355.564 L 498.945,355.848 L 499.044,356.069 L 499.075,356.319 L 499.04,356.934 L 499.161,357.289 L 499.258,357.616 L 499.027,358.023 L 498.928,358.382 L 498.866,358.895 L 498.841,359.218 L 498.692,359.516 L 498.498,359.795 L 498.279,359.969 L 498.009,360.119 L 497.698,360.316 L 497.446,360.843 L 496.901,361.281 L 496.787,361.431 L 496.736,361.781 L 496.749,362.266 L 496.845,362.651 L 497.106,363.219 L 497.335,363.843 L 497.397,364.156 L 497.485,364.275 L 497.807,364.479 L 498.364,364.755 L 498.467,364.868 L 498.743,365.296 L 499.005,366.062 L 499.087,366.568 L 499.597,366.97 L 500.068,367.34 L 500.52,367.665 L 501.011,368.017 L 501.082,368.125 L 501.245,368.87 L 501.408,369.608 L 501.586,370.419 L 501.766,371.231 L 501.978,372.184 L 502.098,372.723 L 502.243,373.376 L 502.414,374.14 L 502.139,374.302 L 501.829,374.509 L 502.055,374.901 L 502.491,375.538 L 502.754,376.051 L 502.846,376.274 L 503.051,376.909 L 503.218,377.523 L 503.261,377.722 L 503.322,378.194 L 503.247,379.49 L 503.367,381.129 L 503.529,381.943 L 503.274,382.676 L 503.056,383.375 L 503.07,383.726 L 503.19,384.273 L 503.308,384.677 L 503.468,384.889 L 503.437,385.568 L 503.37,385.814 L 502.88,386.169 L 502.337,386.494 L 502.187,386.769 L 502.144,387.075 L 502.216,387.324 L 502.589,387.874 L 503.15,388.697 L 503.767,389.601 L 503.818,389.828 L 503.843,390.468 L 504.1,391.271 L 504.378,391.621 L 504.482,391.882 L 504.679,392.069 L 504.875,392.206 L 504.997,392.222 L 505.69,392.004 L 506.875,392.364 L 507.996,392.73 L 508.078,392.802 L 508.323,393.265 L 508.724,394.02 L 509.021,394.623 L 509.287,395.162 L 507.834,396.09 L 506.38,397.016 L 504.927,397.94 L 503.474,398.861 L 502.021,399.781 L 500.567,400.699 L 499.114,401.615 L 497.661,402.528 L 496.697,403.133 L 496.084,403.667 L 495.315,404.334 L 494.589,404.996 L 494.018,405.517 L 493.278,406.189 L 492.905,406.528 L 492.08,407.277 L 491.832,407.41 L 490.739,407.631 L 489.736,407.833 L 488.81,408.02 L 488.177,408.148 L 487.564,408.271 L 486.673,408.445 L 486.037,408.57 L 485.351,408.704 L 485.244,408.727 L 485.12,408.732 L 485.027,408.727 L 484.837,408.653 L 484.608,408.478 L 484.455,408.388 L 484.417,408.25 L 484.506,408.066 L 484.617,407.901 L 484.659,407.771 L 484.735,407.672 L 484.833,407.592 L 484.837,407.479 L 484.756,407.293 L 484.685,407.036 L 484.688,406.569 L 484.69,406.413 L 484.69,406.357 L 484.485,406.178 L 484.098,405.98 L 483.742,405.864 L 483.58,405.824 L 483.187,405.754 L 482.644,405.629 L 482.453,405.543 L 482.101,405.108 L 481.928,404.997 L 481.113,404.923 L 480.842,404.851 L 480.62,404.748 L 480.43,404.608 L 480.323,404.369 L 480.291,404.174 L 480.22,404.081 L 479.321,403.609 L 479.092,403.449 L 478.971,403.3 L 478.967,403.079 L 478.991,402.808 L 478.953,402.567 L 478.915,402.449 L 478.504,402.163 L 477.585,401.521 L 476.666,400.879 L 475.747,400.236 L 474.828,399.592 L 473.909,398.947 L 472.99,398.301 L 472.071,397.654 L 471.152,397.006 L 470.233,396.356 L 469.313,395.707 L 468.395,395.055 L 467.476,394.403 L 466.557,393.75 L 465.637,393.095 L 464.718,392.439 L 463.799,391.782 L 463.022,391.227 L 462.165,390.639 L 461.528,390.208 L 460.896,389.778 L 460.216,389.317 L 459.774,389.031 L 459.247,388.689 L 458.719,388.346 L 458.191,388.003 L 457.663,387.66 L 457.135,387.317 L 456.607,386.973 L 456.08,386.629 L 455.552,386.284 L 455.024,385.939 L 454.497,385.594 L 453.969,385.249 L 453.441,384.903 L 452.913,384.557 L 452.385,384.21 L 451.857,383.863 L 451.33,383.516 L 451.33,382.874 L 451.33,382.351 L 451.33,381.581 L 451.33,380.911 L 451.33,380.241 L 451.33,379.779 L 451.33,379.297 L 451.344,379.079 L 451.396,378.986 L 451.681,378.829 L 452.127,378.471 L 452.292,378.312 L 452.503,378.151 L 453.25,377.666 L 453.405,377.53 L 454.131,376.971 L 454.301,376.889 L 454.691,376.834 L 454.854,376.729 L 455.073,376.505 L 455.395,376.249 L 455.604,376.127 L 455.654,376.105 L 455.788,376.087 L 456.459,376.163 L 456.741,376.22 L 457.078,376.268 L 457.183,376.235 L 457.273,376.155 L 457.4,375.976 L 457.427,375.763 L 457.435,375.577 L 457.455,375.496 L 457.514,375.459 L 457.661,375.473 L 457.857,375.498 L 458.258,375.49 L 458.394,375.464 L 458.849,375.424 L 459.492,375.303 L 460.002,375.145 L 460.408,375.02 L 460.843,374.691 L 461.162,374.344 L 461.493,373.826 L 461.756,373.376 L 462.289,373.095 L 462.734,372.924 L 462.989,372.857 L 463.567,372.619 L 464.056,372.259 L 464.515,371.921 L 464.866,371.876 L 465.31,371.82 L 465.409,371.757 L 465.521,371.637 L 465.527,371.425 L 465.393,371.276 L 465.231,371.198 L 465.116,371.112 L 465.002,371.096 L 464.941,370.994 L 464.975,370.806 L 464.992,370.632 L 465.065,370.458 L 465.045,370.212 L 464.931,369.966 L 464.896,369.789 L 464.904,369.613 L 464.96,369.476 L 465.124,369.385 L 465.315,369.35 L 465.583,369.394 L 466.046,369.335 L 467.231,368.909 L 467.313,368.778 L 467.389,368.483 L 467.474,368.224 L 467.597,368.137 L 467.664,368.118 L 468.059,368.048 L 468.618,367.95 L 468.828,367.936 L 469.438,367.964 L 469.882,367.985 L 470.6,368.019 L 471.11,368.036 L 471.554,368.051 L 472.12,368.071 L 472.259,368.011 L 472.259,367.822 L 472.157,367.47 L 472.219,367.25 L 472.437,367.046 L 472.709,366.818 L 472.582,366.54 L 472.365,366.354 L 472.062,366.13 L 471.905,366.039 L 471.63,365.768 L 471.462,365.459 L 471.348,364.807 L 471.139,364.441 L 470.987,363.989 L 471.122,363.158 L 470.92,362.655 L 470.889,362.437 L 470.887,362.18 L 470.949,361.735 L 470.909,361.108 L 470.671,360.46 L 470.783,360.239 L 470.835,360.124 L 470.818,360.025 L 470.601,359.819 L 470.509,359.648 L 470.557,359.488 L 470.67,359.255 L 470.66,359.157 L 470.309,358.873 L 469.717,358.412 L 469.551,358.21 L 469.47,357.957 L 470.037,358.022 L 470.33,357.991 L 471.002,357.687 L 471.536,357.276 L 471.951,357.067 L 472.316,356.616 L 472.647,356.331 L 473.125,356.023 L 474.504,355.358 L 474.715,355.353 L 475.169,355.504 L 475.564,355.457 L 475.834,355.224 L 476.125,354.662 L 476.576,354.319 L 477.145,353.975 L 477.919,353.646 L 478.426,353.343 L 479.228,353.08 L 481.241,352.913 L 482.275,352.764 L 482.978,352.798 L 483.688,352.316 L 484.043,352.157 L 485.58,352.12 L 486.305,351.767 L 489.053,351.767 L 489.389,351.885 L 489.719,352.075 L 490.281,352.532 L 490.561,352.632 L 490.924,352.537 L 491.768,352.104 L 492.72,351.878 L 493.238,351.62 L 493.458,351.243 L 493.904,351.104 L 494.155,351.394 L 495.142,351.686 L 495.748,351.602 L 496.014,351.514 L 495.918,351.081 L 496.559,351.196 L 497.051,351.405 L 497.566,351.823 L 497.9,351.906 L 498.508,351.718 L 499.77,351.624" id="DZ" title="Algeria"/>
</svg>
