<svg xmlns="http://www.w3.org/2000/svg" xmlns:ev="http://www.w3.org/2001/xml-events" xmlns:xlink="http://www.w3.org/1999/xlink" baseProfile="full" height="17.99200439453125" version="1.1" viewBox="218.47300720214844 458.6080017089844 46.03898620605469 17.99200439453125" width="46.03898620605469">
	<defs/>
	<path class="land" d="M 264.415,462.967 L 264.25800000000004,463.067 L 264.095,463.07800000000003 L 263.87800000000004,463.10900000000004 L 263.57500000000005,463.01300000000003 L 263.456,463.01300000000003 L 263.439,463.11 L 263.64000000000004,463.228 L 263.83500000000004,463.363 L 263.90500000000003,463.568 L 264.021,463.811 L 264.3,464.08299999999997 L 264.474,464.219 L 264.485,464.316 L 264.43,464.49399999999997 L 264.416,464.642 L 264.512,465.325 L 264.448,465.36699999999996 L 264.34499999999997,465.36999999999995 L 264.236,465.36699999999996 L 264.146,465.29299999999995 L 264.06800000000004,465.24899999999997 L 264.033,465.354 L 263.952,465.65799999999996 L 263.77,466.342 L 263.611,466.941 L 263.411,467.15299999999996 L 263.122,467.48999999999995 L 262.726,467.95099999999996 L 262.152,468.61899999999997 L 261.728,468.929 L 261.394,469.173 L 261.003,469.455 L 260.49899999999997,469.81899999999996 L 259.933,470.02299999999997 L 259.145,470.30699999999996 L 258.587,470.508 L 258.176,470.64799999999997 L 257.748,470.794 L 257.182,470.98699999999997 L 256.964,471.169 L 256.601,471.615 L 256.432,471.83 L 256.278,472.015 L 256.24600000000004,472.099 L 256.26700000000005,472.15299999999996 L 256.34100000000007,472.24299999999994 L 256.34800000000007,472.33599999999996 L 256.2460000000001,472.39399999999995 L 256.1580000000001,472.40299999999996 L 256.1190000000001,472.35699999999997 L 256.0900000000001,472.255 L 255.9960000000001,472.151 L 255.88700000000009,472.12100000000004 L 255.8240000000001,472.146 L 255.8190000000001,472.24100000000004 L 255.6760000000001,472.69800000000004 L 255.6710000000001,472.92 L 255.6110000000001,473.00800000000004 L 255.6150000000001,473.20700000000005 L 255.4710000000001,473.39200000000005 L 255.4080000000001,473.5570000000001 L 255.3640000000001,473.69700000000006 L 255.24800000000008,473.79400000000004 L 255.20600000000007,473.946 L 255.09900000000007,474.27000000000004 L 254.97400000000007,474.52400000000006 L 254.88600000000008,474.74100000000004 L 254.8700000000001,474.90400000000005 L 254.9370000000001,475.01900000000006 L 254.9600000000001,475.1120000000001 L 254.9000000000001,475.27900000000005 L 254.8670000000001,475.40400000000005 L 254.7070000000001,475.48900000000003 L 254.3750000000001,475.69100000000003 L 254.24600000000012,475.83000000000004 L 254.19500000000014,475.987 L 254.22800000000012,476.12100000000004 L 254.2140000000001,476.232 L 254.05600000000013,476.274 L 254.0,476.369 L 253.893,476.54 L 253.772,476.6 L 253.462,476.509 L 253.23299999999998,476.50800000000004 L 253.05599999999998,476.425 L 252.86399999999998,476.17900000000003 L 252.706,475.97200000000004 L 252.577,475.70400000000006 L 252.537,475.33700000000005 L 252.364,475.22900000000004 L 252.19400000000002,475.10100000000006 L 251.99,475.13700000000006 L 251.74800000000002,475.16100000000006 L 251.61400000000003,475.0760000000001 L 251.28300000000004,474.9210000000001 L 251.00100000000003,474.7450000000001 L 250.78800000000004,474.6570000000001 L 250.62500000000003,474.69900000000007 L 250.52700000000002,474.80500000000006 L 250.35600000000002,474.9940000000001 L 250.10300000000004,475.12500000000006 L 249.98900000000003,475.1190000000001 L 249.83600000000004,475.0320000000001 L 249.80800000000005,474.9300000000001 L 249.93300000000005,474.76800000000014 L 250.18800000000005,474.41200000000015 L 249.90500000000006,474.40300000000013 L 249.80700000000004,474.29200000000014 L 249.79300000000003,474.1630000000001 L 249.74700000000004,474.0240000000001 L 249.80300000000005,473.85700000000014 L 249.95100000000005,473.7690000000001 L 250.17400000000006,473.83800000000014 L 250.32700000000006,473.84300000000013 L 250.42900000000006,473.68600000000015 L 250.53100000000006,473.61700000000013 L 250.63300000000007,473.56600000000014 L 250.67500000000007,473.48700000000014 L 250.56700000000006,473.23600000000016 L 250.53500000000005,473.09900000000016 L 250.56800000000004,473.02000000000015 L 250.56300000000005,472.86300000000017 L 250.55900000000005,472.7470000000002 L 250.49400000000006,472.6450000000002 L 250.48900000000006,472.4930000000002 L 250.43300000000005,472.4100000000002 L 250.41400000000004,472.3220000000002 L 250.41000000000005,472.2200000000002 L 250.34000000000006,472.1690000000002 L 250.26600000000005,472.1170000000002 L 250.32700000000006,472.0810000000002 L 250.72900000000004,471.94000000000017 L 250.89600000000004,471.79900000000015 L 251.10300000000004,471.67100000000016 L 251.28100000000003,471.47400000000016 L 251.39800000000002,471.2860000000002 L 251.675,470.4110000000002 L 251.936,469.85900000000015 L 251.892,469.59500000000014 L 251.676,469.2380000000001 L 251.62699999999998,468.7120000000001 L 251.647,468.5520000000001 L 251.62,468.4310000000001 L 251.476,468.6490000000001 L 251.513,469.4240000000001 L 251.386,469.7730000000001 L 251.208,469.8570000000001 L 251.09199999999998,469.7960000000001 L 251.158,469.23000000000013 L 251.028,469.33300000000014 L 250.82,469.71700000000016 L 250.47899999999998,470.0020000000002 L 250.45999999999998,470.0970000000002 L 250.37699999999998,470.2140000000002 L 250.11399999999998,470.1060000000002 L 249.91299999999998,469.9890000000002 L 249.254,469.3500000000002 L 248.821,469.2160000000002 L 248.56,468.99300000000017 L 248.505,468.89900000000017 L 248.474,468.77000000000015 L 248.74099999999999,468.63600000000014 L 249.01399999999998,468.45600000000013 L 249.04099999999997,468.0600000000001 L 249.03399999999996,467.74900000000014 L 248.83199999999997,467.21700000000016 L 248.92699999999996,466.52300000000014 L 248.87499999999997,466.25100000000015 L 248.64399999999998,465.67400000000015 L 248.81499999999997,465.38300000000015 L 249.42599999999996,465.17100000000016 L 249.62199999999996,465.02900000000017 L 249.75899999999996,464.57100000000014 L 249.89799999999997,464.29700000000014 L 250.16999999999996,464.40700000000015 L 250.38299999999995,464.3940000000002 L 250.09499999999994,464.2920000000002 L 249.86099999999993,463.8790000000002 L 249.82199999999995,463.6910000000002 L 250.27399999999994,463.1270000000002 L 250.51099999999994,462.9800000000002 L 250.80199999999994,462.6820000000002 L 251.04699999999994,462.2320000000002 L 251.10599999999994,461.5220000000002 L 251.00499999999994,461.0150000000002 L 250.92899999999995,460.47800000000024 L 251.07499999999993,460.3390000000002 L 251.44699999999995,460.2680000000002 L 251.74899999999994,460.0950000000002 L 251.90199999999993,459.9350000000002 L 252.26099999999994,459.9590000000002 L 252.67599999999993,459.7110000000002 L 253.33899999999994,459.5860000000002 L 254.26299999999995,459.30300000000017 L 254.46699999999996,459.05300000000017 L 254.37499999999994,458.6080000000002 L 254.46099999999996,458.66600000000017 L 254.71799999999996,458.87800000000016 L 254.87399999999997,459.08800000000014 L 255.13799999999998,459.21800000000013 L 255.35099999999997,459.32300000000015 L 255.91099999999997,459.74900000000014 L 256.28,459.96500000000015 L 256.683,460.16000000000014 L 257.265,460.3650000000001 L 257.62,460.3300000000001 L 257.70300000000003,460.48500000000007 L 257.77200000000005,460.64900000000006 L 257.90500000000003,460.7440000000001 L 258.11600000000004,460.8260000000001 L 258.24100000000004,460.85100000000006 L 258.28000000000003,460.89200000000005 L 258.406,461.482 L 258.48,461.56800000000004 L 258.771,461.66200000000003 L 259.127,461.69700000000006 L 259.272,461.67600000000004 L 259.585,461.84000000000003 L 259.816,461.91700000000003 L 260.07099999999997,461.975 L 260.24399999999997,461.992 L 260.32399999999996,461.96700000000004 L 260.35299999999995,461.90700000000004 L 260.49499999999995,461.91800000000006 L 260.70599999999996,461.9940000000001 L 261.01099999999997,462.0100000000001 L 261.2,461.9380000000001 L 261.226,461.8190000000001 L 261.239,461.61000000000007 L 261.30899999999997,461.5370000000001 L 261.52599999999995,461.4150000000001 L 261.63899999999995,461.44000000000005 L 262.20799999999997,461.70200000000006 L 262.325,461.79200000000003 L 262.469,461.975 L 262.736,462.245 L 263.025,462.41700000000003 L 263.472,462.49 L 263.90299999999996,462.772 L 264.415,462.967 M 254.242,459.178 L 254.084,459.199 L 254.011,459.06600000000003 L 254.203,458.91100000000006 L 254.269,458.8810000000001 L 254.242,459.178 M 219.545,462.6 L 219.719,462.78000000000003 L 219.814,463.29200000000003 L 220.37699999999998,463.83200000000005 L 220.44699999999997,464.13400000000007 L 220.39699999999996,464.27400000000006 L 220.42299999999997,464.32900000000006 L 220.69399999999996,464.5420000000001 L 220.87099999999995,464.7660000000001 L 220.57399999999996,465.29100000000005 L 219.94099999999995,465.51200000000006 L 219.26599999999993,465.50500000000005 L 219.13299999999992,465.44800000000004 L 218.9519999999999,465.247 L 218.91899999999993,465.07 L 219.02299999999994,464.899 L 219.37199999999993,464.639 L 219.90399999999994,464.407 L 219.96999999999994,464.229 L 219.75699999999995,464.056 L 219.60999999999996,463.712 L 219.27399999999994,463.471 L 219.10699999999994,462.736 L 218.99499999999995,462.699 L 218.76699999999994,462.8 L 218.65499999999994,462.711 L 218.63599999999994,462.664 L 218.88199999999995,462.497 L 218.93299999999994,462.377 L 219.29699999999994,462.319 L 219.45299999999995,462.415 L 219.545,462.6 M 221.505,463.602 L 221.375,463.686 L 220.846,463.589 L 220.681,463.427 L 220.81400000000002,463.206 L 220.92600000000002,463.118 L 221.24200000000002,463.2 L 221.56300000000002,463.447 L 221.505,463.602 M 219.114,463.955 L 218.832,464.00399999999996 L 218.595,463.90799999999996 L 218.494,463.75999999999993 L 218.473,463.5369999999999 L 218.494,463.4629999999999 L 219.017,463.3819999999999 L 219.188,463.5689999999999 L 219.18599999999998,463.8429999999999 L 219.114,463.955 M 222.176,464.821 L 222.03,464.826 L 221.595,464.55600000000004 L 221.624,464.29100000000005 L 221.798,464.11300000000006 L 222.361,464.02200000000005 L 222.59699999999998,464.19000000000005 L 222.576,464.50700000000006 L 222.384,464.7390000000001 L 222.232,464.78100000000006 L 222.176,464.821 M 224.747,465.21 L 224.41600000000003,465.325 L 224.30200000000002,465.27299999999997 L 224.23100000000002,465.21599999999995 L 224.21400000000003,465.14699999999993 L 224.39700000000002,464.9749999999999 L 224.57500000000002,464.8819999999999 L 224.735,464.6839999999999 L 225.02800000000002,464.5659999999999 L 225.11400000000003,464.5929999999999 L 225.17200000000003,464.6339999999999 L 225.19400000000002,464.6999999999999 L 225.09400000000002,464.8599999999999 L 224.91600000000003,464.9719999999999 L 224.747,465.21 M 221.926,466.406 L 221.813,466.411 L 221.658,466.291 L 221.777,466.073 L 221.904,466.126 L 221.99699999999999,466.18899999999996 L 222.052,466.27299999999997 L 221.926,466.406 M 250.812,470.962 L 250.758,471.07 L 250.491,471.06 L 250.41400000000002,471.025 L 250.41600000000003,470.902 L 250.479,470.51099999999997 L 250.55200000000002,470.347 L 250.77100000000002,470.188 L 250.954,470.111 L 251.18800000000002,470.125 L 251.436,470.27 L 251.144,470.532 L 250.981,470.572 L 250.918,470.606 L 250.812,470.962" id="EC" title="Ecuador"/>
</svg>
