<svg xmlns="http://www.w3.org/2000/svg" xmlns:ev="http://www.w3.org/2001/xml-events" xmlns:xlink="http://www.w3.org/1999/xlink" baseProfile="full" height="11.363006591796875" version="1.1" viewBox="537.0339965820312 253.8489990234375 17.66998291015625 11.363006591796875" width="17.66998291015625" fill="#00394f">
	<defs/>
	<path class="land" d="M 554.316,254.705 L 554.465,254.876 L 554.653,255.15200000000002 L 554.7040000000001,255.31 L 554.6400000000001,255.403 L 554.4520000000001,255.482 L 554.4090000000001,255.567 L 554.3260000000001,255.71 L 554.1060000000001,255.73600000000002 L 553.993,255.842 L 553.8580000000001,256.307 L 553.6,257.075 L 553.219,257.657 L 552.9140000000001,257.97499999999997 L 552.7780000000001,258.219 L 552.6930000000001,258.51099999999997 L 552.6730000000001,258.804 L 552.9650000000001,260.404 L 552.9620000000001,260.692 L 552.8930000000001,260.987 L 552.8430000000002,261.286 L 552.8840000000002,261.545 L 553.0770000000002,261.987 L 553.2820000000003,262.64500000000004 L 553.3650000000002,263.064 L 553.5010000000002,263.21700000000004 L 553.6320000000002,263.33000000000004 L 553.6590000000002,263.40100000000007 L 553.6550000000002,263.47400000000005 L 553.5870000000002,263.5570000000001 L 552.9960000000002,263.77600000000007 L 552.9190000000002,263.96100000000007 L 552.8550000000002,264.16800000000006 L 552.5970000000002,264.47300000000007 L 552.5180000000003,264.75700000000006 L 552.4690000000003,265.08200000000005 L 552.4630000000003,265.19800000000004 L 552.3920000000003,265.21200000000005 L 552.0,265.145 L 551.568,264.93399999999997 L 551.379,264.775 L 551.193,264.777 L 550.968,264.881 L 550.1619999999999,265.18199999999996 L 549.9639999999999,265.11199999999997 L 549.5039999999999,264.816 L 549.271,264.493 L 548.752,263.849 L 548.7099999999999,263.695 L 548.6419999999999,263.572 L 548.088,263.412 L 547.8829999999999,263.173 L 547.713,263.14 L 547.463,263.02 L 546.814,262.50899999999996 L 546.653,262.46099999999996 L 546.614,262.54699999999997 L 546.625,262.66799999999995 L 546.584,262.73799999999994 L 546.501,262.73599999999993 L 546.351,262.54799999999994 L 546.171,262.38199999999995 L 545.61,262.69399999999996 L 545.407,262.777 L 545.229,262.796 L 544.34,263.204 L 544.0690000000001,263.42400000000004 L 543.9570000000001,263.401 L 543.9830000000001,263.194 L 544.3530000000001,262.15700000000004 L 544.4190000000001,261.33000000000004 L 544.5540000000001,261.21600000000007 L 544.594,261.10100000000006 L 544.5360000000001,260.83600000000007 L 544.152,260.66600000000005 L 543.9970000000001,260.69100000000003 L 543.8570000000001,260.97600000000006 L 543.7120000000001,261.18100000000004 L 543.373,261.30600000000004 L 543.081,261.09000000000003 L 542.398,260.80100000000004 L 542.226,260.415 L 542.185,260.026 L 541.824,259.65000000000003 L 541.674,259.20500000000004 L 541.7339999999999,258.89400000000006 L 542.0619999999999,258.6890000000001 L 542.1549999999999,258.5110000000001 L 541.7419999999998,258.5390000000001 L 541.6579999999999,258.4960000000001 L 541.6399999999999,258.33600000000007 L 541.4569999999999,257.78800000000007 L 541.6189999999999,257.57200000000006 L 541.6899999999999,257.3620000000001 L 541.5569999999999,257.1830000000001 L 541.5919999999999,256.9780000000001 L 541.6959999999999,256.77100000000013 L 541.6329999999999,256.29000000000013 L 542.0429999999999,256.03500000000014 L 542.4409999999999,255.85500000000013 L 543.286,255.76300000000012 L 543.203,255.3210000000001 L 543.544,255.3010000000001 L 544.119,254.76800000000011 L 544.6890000000001,254.8620000000001 L 545.5140000000001,254.4960000000001 L 547.1030000000002,254.5010000000001 L 547.3200000000002,254.2890000000001 L 547.2820000000002,254.0760000000001 L 547.2870000000001,253.8490000000001 L 547.5860000000001,253.9120000000001 L 548.0860000000001,253.8720000000001 L 549.9580000000001,254.3190000000001 L 550.4190000000001,254.3190000000001 L 551.056,254.7720000000001 L 551.4000000000001,254.8890000000001 L 552.4130000000001,254.8890000000001 L 553.9760000000001,255.08900000000008 L 554.2830000000001,254.78300000000007 L 554.316,254.705 M 540.035,258.297 L 539.805,258.564 L 539.668,258.458 L 539.596,258.33000000000004 L 539.299,258.934 L 538.965,259.03700000000003 L 538.77,258.918 L 538.788,258.693 L 538.598,258.09999999999997 L 538.3069999999999,257.926 L 537.8979999999999,257.90999999999997 L 537.6019999999999,257.66499999999996 L 538.7429999999998,257.498 L 538.8609999999999,257.214 L 539.0929999999998,256.916 L 539.2669999999998,256.884 L 539.4149999999998,256.95300000000003 L 539.4429999999999,257.184 L 539.4799999999999,257.276 L 539.997,257.406 L 540.199,257.794 L 540.275,258.25899999999996 L 540.035,258.297 M 541.213,259.788 L 540.98,259.844 L 540.427,259.462 L 540.5550000000001,259.203 L 540.7130000000001,259.101 L 541.1830000000001,259.26 L 541.2490000000001,259.65299999999996 L 541.213,259.788 M 539.175,259.407 L 539.3739999999999,259.537 L 539.5579999999999,259.496 L 539.7449999999999,259.405 L 540.1489999999999,259.48999999999995 L 541.0709999999999,260.14599999999996 L 541.156,260.32099999999997 L 540.6049999999999,260.40099999999995 L 540.4799999999999,260.60099999999994 L 540.348,260.74099999999993 L 540.192,260.78599999999994 L 539.926,261.06699999999995 L 539.567,261.33599999999996 L 539.492,261.49699999999996 L 538.841,261.467 L 538.486,261.56899999999996 L 538.199,261.86899999999997 L 538.0809999999999,262.44699999999995 L 537.8709999999999,262.89699999999993 L 537.6569999999998,263.0589999999999 L 537.4339999999999,263.0839999999999 L 537.3809999999999,262.9159999999999 L 537.4019999999998,262.7479999999999 L 537.8709999999999,262.11199999999985 L 537.9689999999998,261.90499999999986 L 537.7349999999998,261.8129999999999 L 537.5389999999998,261.5909999999999 L 537.1109999999998,261.3309999999999 L 537.0339999999998,261.1219999999999 L 537.1359999999997,261.1059999999999 L 537.2299999999998,261.0459999999999 L 537.3439999999998,260.8699999999999 L 537.3969999999998,260.6679999999999 L 537.0549999999998,260.0759999999999 L 537.2289999999998,259.9839999999999 L 537.4469999999998,260.00499999999994 L 537.6699999999997,260.17699999999996 L 537.9149999999997,259.97499999999997 L 538.0189999999998,259.945 L 538.1899999999998,260.017 L 538.3629999999998,259.625 L 538.7739999999998,259.496 L 538.9779999999997,259.375 L 539.175,259.407" id="EE" title="Estonia"/>
</svg>
