<svg xmlns="http://www.w3.org/2000/svg" xmlns:ev="http://www.w3.org/2001/xml-events" xmlns:xlink="http://www.w3.org/1999/xlink" baseProfile="full" height="30.27301025390625" version="1.1" viewBox="545.0289916992188 369.49798583984375 34.1500244140625 30.27301025390625" width="34.1500244140625" fill="#00394f">
	<defs/>
	<path class="land" d="M 571.676,370.587 L 571.717,370.686 L 571.809,370.96 L 572.042,371.656 L 572.246,372.2 L 572.495,372.952 L 572.573,373.24 L 572.606,373.439 L 572.968,374.263 L 573.183,374.938 L 573.34,375.486 L 573.562,376.284 L 573.658,376.562 L 573.501,376.707 L 573.187,377.224 L 572.852,378.861 L 572.373,380.134 L 572.319,380.929 L 572.242,381.215 L 572.014,381.617 L 571.738,382.01 L 571.247,381.807 L 570.447,381.115 L 569.981,380.457 L 569.481,380.031 L 569.009,379.466 L 568.88,379.059 L 568.885,378.797 L 568.679,378.158 L 568.526,377.855 L 567.95,377.174 L 567.785,376.81 L 567.659,376.649 L 567.532,376.419 L 567.323,375.53 L 567.095,374.964 L 566.835,375.121 L 566.881,375.359 L 566.654,375.688 L 566.517,376.069 L 566.622,376.38 L 567.093,376.853 L 567.188,377.06 L 567.298,377.507 L 567.28,378.114 L 567.356,378.319 L 567.709,378.769 L 567.835,379.036 L 567.911,379.266 L 568.028,379.474 L 568.378,379.864 L 568.881,380.606 L 569.358,381.106 L 569.703,381.347 L 569.849,381.588 L 569.882,382.209 L 569.856,382.505 L 570.159,383.062 L 570.271,383.343 L 570.563,383.572 L 570.697,383.833 L 570.82,384.258 L 571.005,385.511 L 571.259,385.818 L 572.044,387.457 L 572.706,388.49 L 573.026,389.26 L 573.515,390.194 L 574.472,392.238 L 575.041,392.866 L 575.268,393.219 L 575.68,393.49 L 576.126,393.882 L 575.701,393.844 L 575.593,393.867 L 575.444,393.934 L 575.373,394.172 L 575.342,394.366 L 575.394,395.391 L 575.511,395.913 L 575.885,396.898 L 576.164,397.193 L 576.3,397.384 L 576.49,397.523 L 577.377,397.859 L 577.896,398.567 L 579.062,399.461 L 579.176,399.708 L 579.179,399.765 L 578.258,399.766 L 577.337,399.766 L 576.416,399.766 L 575.495,399.766 L 574.575,399.766 L 573.653,399.767 L 572.733,399.767 L 571.812,399.767 L 570.891,399.767 L 569.97,399.767 L 569.049,399.767 L 568.129,399.767 L 567.208,399.768 L 566.287,399.768 L 565.366,399.768 L 564.445,399.768 L 563.92,399.768 L 564.01,399.5 L 564.065,399.311 L 564.003,399.179 L 563.824,399.146 L 563.707,399.188 L 563.432,399.749 L 563.288,399.771 L 562.961,399.771 L 561.889,399.771 L 560.816,399.771 L 559.744,399.771 L 558.672,399.77 L 557.6,399.77 L 556.528,399.77 L 555.456,399.77 L 554.384,399.77 L 553.312,399.769 L 552.239,399.769 L 551.167,399.769 L 550.095,399.769 L 549.023,399.769 L 547.951,399.769 L 546.878,399.768 L 545.806,399.768 L 545.806,399.092 L 545.806,398.414 L 545.806,397.735 L 545.806,397.056 L 545.806,396.375 L 545.806,395.693 L 545.806,395.01 L 545.806,394.326 L 545.806,393.64 L 545.806,392.954 L 545.806,392.266 L 545.806,391.576 L 545.806,390.886 L 545.806,390.194 L 545.806,389.501 L 545.806,388.807 L 545.806,388.111 L 545.806,387.414 L 545.806,386.716 L 545.806,386.017 L 545.806,385.315 L 545.806,384.613 L 545.806,383.909 L 545.806,383.204 L 545.806,382.497 L 545.806,381.789 L 545.806,381.079 L 545.806,380.368 L 545.806,379.655 L 545.806,378.941 L 545.806,378.225 L 545.806,377.508 L 545.782,377.374 L 545.626,376.885 L 545.485,376.263 L 545.331,375.497 L 545.311,375.248 L 545.053,374.456 L 545.029,374.231 L 545.094,374.071 L 545.518,373.402 L 545.646,373.076 L 545.753,372.685 L 545.789,372.367 L 545.664,371.879 L 545.518,371.44 L 545.469,370.99 L 545.448,370.547 L 545.665,370.244 L 545.925,369.96 L 546.022,369.786 L 546.176,369.59 L 546.284,369.498 L 546.495,369.896 L 546.935,369.964 L 548.369,369.61 L 549.952,369.967 L 550.825,370.103 L 552.171,370.406 L 552.99,370.946 L 553.215,371.014 L 553.804,371.003 L 554.19,371.322 L 555.726,371.475 L 556.546,371.826 L 557.011,372.106 L 557.29,372.192 L 557.537,372.178 L 557.87,372.073 L 558.291,371.876 L 558.748,371.602 L 559.697,370.897 L 560.033,370.773 L 560.252,370.806 L 560.519,370.796 L 560.63,370.605 L 560.771,370.474 L 560.859,370.325 L 561.003,370.145 L 561.497,370.095 L 562.486,369.787 L 562.375,369.933 L 561.474,370.278 L 561.86,370.321 L 562.255,370.203 L 562.706,370.128 L 562.788,369.981 L 562.847,369.706 L 562.933,369.667 L 563.245,369.719 L 564.172,370.143 L 564.403,370.151 L 565.056,369.92 L 565.195,369.871 L 565.407,369.999 L 565.889,370.526 L 565.721,370.515 L 565.205,370.063 L 565.159,370.289 L 564.865,370.685 L 565.232,370.856 L 565.531,370.92 L 565.691,371.141 L 565.792,371.337 L 566.087,371.251 L 566.298,370.984 L 566.188,370.835 L 566.114,370.681 L 566.21,370.677 L 566.415,370.804 L 567.002,371.311 L 567.2,371.416 L 567.428,371.398 L 567.905,371.256 L 568.038,371.278 L 568.678,371.091 L 568.753,371.228 L 568.859,371.364 L 569.375,371.212 L 570.184,371.214 L 570.847,371.049 L 571.615,370.647 L 571.676,370.587" id="EG" title="Egypt"/>
</svg>
