<svg xmlns="http://www.w3.org/2000/svg" xmlns:ev="http://www.w3.org/2001/xml-events" xmlns:xlink="http://www.w3.org/1999/xlink" baseProfile="full" height="20.98199462890625" version="1.1" viewBox="427.7120056152344 382.35101318359375 23.621002197265625 20.98199462890625" width="23.621002197265625" fill="#00394f">
	<defs/>
	<path class="land" d="M 451.33,383.516 L 451.331,384.039 L 451.331,384.66 L 451.332,385.279 L 451.333,385.983 L 451.333,386.683 L 451.333,387.192 L 451.333,387.546 L 450.762,387.546 L 450.239,387.546 L 449.716,387.546 L 449.194,387.546 L 448.671,387.546 L 448.148,387.546 L 447.625,387.546 L 447.102,387.546 L 446.579,387.546 L 446.056,387.546 L 445.533,387.546 L 445.01,387.546 L 444.487,387.546 L 443.964,387.546 L 443.441,387.546 L 442.919,387.546 L 442.396,387.546 L 441.976,387.546 L 441.976,387.917 L 441.976,388.338 L 441.976,388.76 L 441.976,389.181 L 441.976,389.602 L 441.976,390.022 L 441.976,390.442 L 441.976,390.861 L 441.976,391.28 L 441.976,391.698 L 441.976,392.116 L 441.976,392.534 L 441.976,392.95 L 441.976,393.367 L 441.976,393.783 L 441.976,394.199 L 441.976,394.614 L 441.976,394.984 L 441.956,395.315 L 441.788,395.413 L 441.387,395.589 L 440.975,395.77 L 440.452,395.853 L 440.28,395.912 L 439.946,396.15 L 439.507,396.463 L 439.127,396.734 L 438.876,397.086 L 438.785,397.279 L 438.748,397.482 L 438.777,397.676 L 438.914,398.064 L 438.951,398.26 L 438.972,398.601 L 438.995,398.971 L 439.02,399.37 L 439.045,399.769 L 439.071,400.192 L 439.098,400.616 L 439.125,401.041 L 439.145,401.357 L 439.17,401.755 L 438.745,401.756 L 438.102,401.756 L 437.458,401.757 L 436.814,401.758 L 436.171,401.759 L 435.528,401.76 L 434.884,401.761 L 434.24,401.761 L 433.597,401.762 L 432.953,401.763 L 432.31,401.764 L 431.667,401.765 L 431.023,401.766 L 430.379,401.767 L 429.736,401.767 L 429.092,401.768 L 428.449,401.769 L 428.089,401.77 L 427.973,402.329 L 427.87,402.73 L 427.81,403.057 L 427.854,403.333 L 427.712,403.182 L 427.962,401.626 L 427.98,401.495 L 428.184,400.056 L 428.569,399.274 L 428.876,398.929 L 429.352,398.75 L 429.789,397.962 L 429.942,397.235 L 430.229,396.9 L 430.319,396.638 L 430.206,396.438 L 430.477,396.045 L 430.805,395.443 L 430.957,395.056 L 431.34,394.457 L 431.387,394.324 L 431.353,394.174 L 431.202,394.301 L 431.041,394.523 L 430.85,394.698 L 430.928,394.483 L 431.078,394.167 L 431.419,393.835 L 431.957,393.47 L 433.073,392.227 L 433.493,392.012 L 433.871,391.487 L 434.006,391.02 L 434.043,389.946 L 434.178,389.378 L 434.424,388.935 L 434.718,388.126 L 434.942,387.765 L 435.088,387.025 L 435.247,386.744 L 435.532,386.609 L 435.936,386.24 L 436.543,386.011 L 437.262,385.53 L 437.599,385.242 L 437.824,384.812 L 438.065,383.954 L 438.496,383.049 L 438.717,382.365 L 450.951,382.351 L 450.953,382.352 L 450.953,382.351 L 451.33,382.351 L 451.33,382.874 L 451.33,383.516" id="EH" title="Western Sahara"/>
</svg>
