<svg xmlns="http://www.w3.org/2000/svg" xmlns:ev="http://www.w3.org/2001/xml-events" xmlns:xlink="http://www.w3.org/1999/xlink" baseProfile="full" height="16.277008056640625" version="1.1" viewBox="577.927001953125 411.61700439453125 18.77899169921875 16.277008056640625" width="18.77899169921875">
	<defs/>
	<path class="land" d="M 596.706,426.944 L 596.394,427.077 L 596.05,427.194 L 596.001,427.19 L 595.887,427.343 L 595.7239999999999,427.761 L 595.545,427.88300000000004 L 595.4509999999999,427.89400000000006 L 594.9159999999999,427.50300000000004 L 594.833,427.48100000000005 L 594.717,427.55800000000005 L 594.633,427.63800000000003 L 594.384,427.341 L 594.202,427.079 L 593.948,426.766 L 593.701,426.625 L 593.436,426.448 L 593.176,426.037 L 592.9110000000001,425.584 L 592.518,425.213 L 591.783,424.678 L 591.1080000000001,424.0 L 590.5920000000001,423.291 L 590.2590000000001,422.921 L 590.1170000000001,422.827 L 589.4290000000001,422.59499999999997 L 588.9490000000001,422.27 L 588.5790000000001,422.002 L 588.3520000000001,421.93 L 588.1320000000001,421.921 L 587.663,421.974 L 587.273,421.806 L 587.109,421.806 L 586.8480000000001,421.757 L 586.643,421.697 L 586.402,421.769 L 585.908,421.889 L 585.705,421.863 L 585.595,421.696 L 585.53,421.56800000000004 L 585.358,421.43500000000006 L 585.2159999999999,421.43500000000006 L 585.137,421.5540000000001 L 584.621,421.8550000000001 L 583.7579999999999,422.02200000000005 L 583.5529999999999,422.01000000000005 L 583.3999999999999,421.88900000000007 L 582.9639999999998,421.37200000000007 L 582.8389999999998,421.28800000000007 L 582.7399999999998,421.2800000000001 L 582.5379999999998,421.2190000000001 L 582.3489999999998,421.1200000000001 L 582.1829999999998,420.90800000000013 L 582.0159999999997,420.78700000000015 L 581.8369999999998,421.20200000000017 L 581.5229999999998,421.92600000000016 L 581.3549999999998,422.31400000000014 L 581.1379999999998,422.81300000000016 L 581.0699999999998,422.82800000000015 L 580.9589999999998,422.79200000000014 L 580.5279999999998,422.17000000000013 L 580.2569999999998,421.93600000000015 L 580.0549999999998,421.95800000000014 L 579.9079999999998,422.07300000000015 L 579.8149999999998,422.2810000000002 L 579.7139999999998,422.40900000000016 L 579.6049999999998,422.4590000000002 L 579.3699999999998,422.4340000000002 L 579.0089999999998,422.3350000000002 L 578.6359999999997,422.3560000000002 L 578.2519999999997,422.4980000000002 L 578.2009999999997,422.50200000000024 L 578.1109999999996,421.67400000000026 L 578.0509999999997,421.1200000000003 L 577.9869999999997,420.5330000000003 L 577.9269999999998,419.9780000000003 L 578.1939999999998,419.6370000000003 L 578.3179999999999,419.3130000000003 L 578.6359999999999,418.2590000000003 L 578.7629999999998,418.0490000000003 L 579.0129999999998,417.4840000000003 L 579.0479999999998,417.32000000000033 L 579.2949999999997,416.60600000000034 L 579.2719999999997,416.1310000000003 L 579.2219999999998,415.6510000000003 L 579.3569999999997,415.36600000000027 L 579.4769999999997,415.13800000000026 L 579.4689999999997,414.94600000000025 L 579.5229999999997,414.49700000000024 L 579.5619999999997,414.3850000000002 L 579.7089999999997,414.3780000000002 L 580.0119999999997,414.4360000000002 L 580.2349999999997,414.3910000000002 L 580.4919999999996,414.3910000000002 L 580.6899999999996,414.3770000000002 L 580.8069999999996,414.2400000000002 L 580.9679999999995,413.7160000000002 L 581.0719999999995,413.61100000000016 L 581.1529999999996,413.5790000000002 L 581.3799999999995,413.4820000000002 L 581.5739999999995,413.3290000000002 L 581.7319999999995,413.2200000000002 L 581.7909999999995,413.1980000000002 L 581.9579999999995,413.1840000000002 L 582.1249999999995,413.1200000000002 L 582.2019999999995,413.04600000000016 L 582.4129999999996,412.98700000000014 L 582.6199999999995,413.02000000000015 L 582.7589999999996,412.95500000000015 L 582.8519999999995,412.9130000000002 L 582.9569999999995,412.9100000000002 L 583.0539999999995,412.8490000000002 L 583.0929999999995,412.7560000000002 L 583.1559999999995,412.6960000000002 L 583.3169999999994,412.5600000000002 L 583.3909999999994,412.4610000000002 L 583.4239999999994,412.36100000000016 L 583.4569999999994,412.28200000000015 L 583.5279999999995,412.14800000000014 L 583.8099999999995,411.8120000000001 L 584.0529999999995,411.61700000000013 L 584.9009999999995,413.30900000000014 L 585.2449999999995,414.30700000000013 L 585.5489999999995,415.3460000000001 L 585.7739999999995,416.90300000000013 L 585.9879999999996,417.6950000000001 L 586.3339999999996,418.0850000000001 L 586.5709999999996,418.8220000000001 L 586.7739999999995,418.85000000000014 L 586.9209999999996,419.05200000000013 L 587.1729999999995,419.7430000000001 L 587.3539999999996,420.0000000000001 L 587.4489999999996,419.7790000000001 L 587.4379999999996,419.6520000000001 L 587.3669999999996,419.4390000000001 L 587.4319999999997,419.1650000000001 L 587.5729999999996,419.0010000000001 L 587.8949999999996,419.2250000000001 L 588.0709999999997,419.39400000000006 L 588.1179999999997,419.73300000000006 L 588.1919999999997,419.92100000000005 L 588.5279999999997,420.3190000000001 L 588.8119999999997,420.43500000000006 L 589.1799999999997,420.46400000000006 L 589.4879999999997,420.55100000000004 L 589.7349999999997,420.69700000000006 L 590.1979999999996,421.10100000000006 L 591.2569999999996,421.45500000000004 L 592.1079999999996,422.53900000000004 L 592.6089999999996,423.28900000000004 L 594.2559999999996,424.42400000000004 L 594.5409999999996,424.96700000000004 L 594.6889999999996,425.499 L 595.0349999999996,425.47400000000005 L 595.6289999999997,426.05500000000006 L 595.8019999999997,426.49600000000004 L 596.2879999999997,426.65600000000006 L 596.3709999999996,426.39500000000004 L 596.6059999999997,426.60900000000004 L 596.706,426.944 M 588.174,417.229 L 588.268,417.50899999999996 L 587.994,417.40199999999993 L 587.9490000000001,417.34399999999994 L 588.0690000000001,417.23299999999995 L 588.095,417.16499999999996 L 588.174,417.229 M 588.355,418.349 L 588.471,418.503 L 588.552,418.488 L 588.616,418.437 L 588.661,418.32800000000003 L 589.1039999999999,418.543 L 589.079,418.686 L 588.814,418.693 L 588.509,418.632 L 588.226,418.653 L 587.889,418.591 L 587.811,418.348 L 588.0260000000001,418.46500000000003 L 588.1370000000001,418.43600000000004 L 588.157,418.40500000000003 L 588.005,418.24100000000004 L 587.7909999999999,418.208 L 587.8059999999999,418.079 L 587.9019999999999,418.028 L 587.9609999999999,417.96500000000003 L 587.8379999999999,417.788 L 588.0789999999998,417.82800000000003 L 588.2309999999999,417.93500000000006 L 588.3309999999999,418.06000000000006 L 588.355,418.349" id="ER" title="Eritrea"/>
</svg>
