<svg xmlns="http://www.w3.org/2000/svg" xmlns:ev="http://www.w3.org/2001/xml-events" xmlns:xlink="http://www.w3.org/1999/xlink" baseProfile="full" height="55.8289794921875" version="1.1" viewBox="424.73199462890625 326.5530090332031 63.097991943359375 55.8289794921875" width="63.097991943359375">
	<defs/>
	<path class="land" d="M 470.665,327.922 L 470.66900000000004,328.05600000000004 L 470.77900000000005,328.24000000000007 L 470.89300000000003,328.30800000000005 L 471.13300000000004,328.40200000000004 L 471.31800000000004,328.415 L 471.57000000000005,328.459 L 471.74100000000004,328.565 L 471.75100000000003,328.73 L 471.708,328.91400000000004 L 471.60400000000004,329.083 L 471.545,329.21200000000005 L 471.6,329.28600000000006 L 471.69,329.34400000000005 L 471.787,329.36000000000007 L 471.85299999999995,329.34100000000007 L 471.90299999999996,329.2390000000001 L 471.998,329.1140000000001 L 472.051,329.09800000000007 L 472.04699999999997,329.1690000000001 L 472.092,329.2570000000001 L 472.401,329.4040000000001 L 473.079,329.6780000000001 L 473.345,329.6830000000001 L 473.56,329.7150000000001 L 473.623,329.8300000000001 L 474.055,330.2520000000001 L 474.158,330.2410000000001 L 474.35,330.2510000000001 L 474.58200000000005,330.2170000000001 L 474.75000000000006,330.1380000000001 L 474.86000000000007,330.15100000000007 L 474.9820000000001,330.23300000000006 L 475.1240000000001,330.3040000000001 L 475.3080000000001,330.4430000000001 L 475.4720000000001,330.6140000000001 L 475.5850000000001,330.6700000000001 L 476.2660000000001,330.55500000000006 L 476.41800000000006,330.65600000000006 L 476.57900000000006,330.6550000000001 L 476.76000000000005,330.6290000000001 L 477.15400000000005,330.6820000000001 L 477.47400000000005,330.6690000000001 L 477.50300000000004,330.6270000000001 L 477.53000000000003,330.2470000000001 L 477.581,330.11200000000014 L 477.65700000000004,330.07600000000014 L 477.84600000000006,330.1030000000001 L 478.5350000000001,330.32800000000015 L 478.8190000000001,330.46900000000016 L 479.0920000000001,330.5790000000002 L 479.3300000000001,330.5910000000002 L 479.4880000000001,330.6650000000002 L 479.7090000000001,331.0250000000002 L 479.6710000000001,331.2060000000002 L 479.6910000000001,331.2730000000002 L 479.7140000000001,331.3980000000002 L 479.70800000000014,331.5370000000002 L 479.76600000000013,331.6280000000002 L 479.87100000000015,331.63900000000024 L 480.00500000000017,331.61200000000025 L 480.15200000000016,331.5580000000003 L 480.41000000000014,331.4040000000003 L 480.48700000000014,331.3790000000003 L 480.91900000000015,331.5540000000003 L 481.1100000000001,331.67100000000033 L 481.1760000000001,331.79800000000034 L 481.2750000000001,331.92800000000034 L 481.4040000000001,331.94700000000034 L 481.58800000000014,331.82400000000035 L 481.8750000000001,331.69200000000035 L 482.3630000000001,331.80800000000033 L 482.9060000000001,331.97600000000034 L 483.14100000000013,331.9960000000003 L 483.1490000000001,331.9140000000003 L 483.1920000000001,331.7970000000003 L 483.2810000000001,331.7380000000003 L 483.41500000000013,331.7210000000003 L 483.6010000000001,331.6590000000003 L 483.8130000000001,331.5570000000003 L 484.0340000000001,331.5150000000003 L 484.2650000000001,331.59100000000035 L 484.5440000000001,331.65300000000036 L 484.71100000000007,331.6520000000004 L 484.79100000000005,331.8920000000004 L 484.92600000000004,331.9830000000004 L 484.97900000000004,332.19100000000043 L 484.73100000000005,332.29900000000043 L 484.58500000000004,332.3140000000004 L 484.54,332.66900000000044 L 484.61,332.76900000000046 L 484.749,332.86300000000045 L 484.78700000000003,332.97200000000043 L 484.81500000000005,333.4920000000004 L 484.53100000000006,333.8050000000004 L 484.13300000000004,334.1560000000004 L 482.18500000000006,335.2810000000004 L 481.72100000000006,335.8240000000004 L 481.54400000000004,335.9490000000004 L 480.09600000000006,336.2900000000004 L 479.08400000000006,336.6540000000004 L 478.59900000000005,336.7860000000004 L 477.99300000000005,337.41700000000037 L 477.7060000000001,337.6710000000004 L 477.93500000000006,337.7410000000004 L 478.20200000000006,338.04200000000037 L 478.1120000000001,338.17500000000035 L 477.72300000000007,338.38100000000037 L 477.55300000000005,338.44400000000036 L 477.46100000000007,338.41100000000034 L 477.3740000000001,338.43900000000036 L 476.7220000000001,339.52400000000034 L 476.1460000000001,340.30200000000036 L 475.82200000000006,340.6400000000004 L 475.49000000000007,341.14300000000037 L 474.7830000000001,342.4360000000004 L 474.7780000000001,342.8080000000004 L 475.1260000000001,344.0870000000004 L 475.3260000000001,344.42200000000037 L 475.60600000000005,344.7030000000004 L 476.136,344.94200000000035 L 476.267,345.17700000000036 L 476.084,345.40100000000035 L 475.55400000000003,345.79800000000034 L 474.632,346.33400000000034 L 474.24,346.75600000000037 L 474.157,347.1620000000004 L 473.887,347.34500000000037 L 473.785,347.9120000000004 L 473.62100000000004,348.2870000000004 L 473.59000000000003,348.4140000000004 L 473.41600000000005,348.6980000000004 L 473.39300000000003,348.90500000000037 L 473.67800000000005,349.18900000000036 L 473.53700000000003,349.31200000000035 L 473.396,349.3660000000003 L 473.071,349.39900000000034 L 471.978,349.43500000000034 L 471.099,350.04800000000034 L 470.65999999999997,350.5900000000003 L 470.26199999999994,351.5950000000003 L 469.77899999999994,352.1860000000003 L 469.5659999999999,352.2950000000003 L 469.2349999999999,352.0360000000003 L 468.8209999999999,351.99600000000027 L 468.4199999999999,352.0820000000003 L 468.2099999999999,352.2880000000003 L 467.88199999999995,352.4030000000003 L 467.5609999999999,352.3040000000003 L 466.8669999999999,352.25000000000034 L 466.5579999999999,352.26000000000033 L 466.0749999999999,352.4270000000003 L 465.6609999999999,352.3160000000003 L 464.9619999999999,352.2590000000003 L 463.4489999999999,352.3920000000003 L 463.2579999999999,352.4540000000003 L 463.0689999999999,352.7020000000003 L 462.5869999999999,353.1290000000003 L 461.85399999999987,353.1440000000003 L 461.19099999999986,353.4160000000003 L 461.02499999999986,353.59000000000026 L 460.74699999999984,354.06900000000024 L 460.65999999999985,354.41800000000023 L 460.60199999999986,354.4210000000002 L 460.52999999999986,354.3350000000002 L 460.4279999999999,354.3630000000002 L 460.3749999999999,354.62900000000025 L 460.12599999999986,354.7500000000002 L 459.91799999999984,354.7940000000002 L 459.40499999999986,354.57900000000024 L 458.97699999999986,354.25600000000026 L 458.7529999999999,354.23300000000023 L 458.3889999999999,353.7290000000002 L 458.2319999999999,353.4080000000002 L 458.1209999999999,353.0600000000002 L 458.14399999999995,352.9270000000002 L 458.11299999999994,352.8160000000002 L 457.78999999999996,352.6750000000002 L 457.71099999999996,352.3550000000002 L 457.94699999999995,351.9380000000002 L 458.13999999999993,351.7610000000002 L 458.25999999999993,351.7100000000002 L 457.96799999999996,351.7280000000002 L 457.75699999999995,351.99600000000015 L 457.48699999999997,351.56600000000014 L 456.38599999999997,350.72700000000015 L 456.457,350.53400000000016 L 456.445,350.4300000000002 L 456.26,350.6550000000002 L 456.134,350.7130000000002 L 455.571,350.6770000000002 L 454.923,350.7800000000002 L 454.752,349.9060000000002 L 454.671,349.57000000000016 L 454.65,349.35200000000015 L 454.81699999999995,348.8480000000001 L 454.99999999999994,348.6420000000001 L 455.24299999999994,348.2170000000001 L 455.54299999999995,347.8630000000001 L 455.85999999999996,347.7790000000001 L 455.99999999999994,347.7270000000001 L 456.11699999999996,347.4530000000001 L 456.18299999999994,347.2190000000001 L 456.13499999999993,347.1960000000001 L 455.76499999999993,347.2440000000001 L 455.10099999999994,346.25900000000007 L 455.12199999999996,346.1020000000001 L 455.205,345.8690000000001 L 455.26,345.57400000000007 L 455.274,345.34100000000007 L 455.447,345.14000000000004 L 455.712,344.93800000000005 L 455.935,344.65000000000003 L 456.047,344.369 L 456.07000000000005,344.11300000000006 L 455.9440000000001,343.93000000000006 L 455.5810000000001,343.82900000000006 L 455.2060000000001,343.09700000000004 L 455.12300000000005,342.63800000000003 L 455.04600000000005,342.59000000000003 L 454.81500000000005,342.38100000000003 L 454.5930000000001,341.987 L 454.5610000000001,341.925 L 454.7900000000001,341.856 L 455.7340000000001,341.853 L 455.9310000000001,341.766 L 455.96100000000007,341.73600000000005 L 456.1330000000001,341.42900000000003 L 456.3130000000001,340.92400000000004 L 456.3550000000001,340.615 L 456.29800000000006,340.487 L 455.98500000000007,340.17400000000004 L 455.97100000000006,340.08200000000005 L 456.0210000000001,339.934 L 456.20700000000005,339.776 L 456.458,339.596 L 456.595,339.44100000000003 L 456.562,339.319 L 456.48900000000003,339.192 L 456.47700000000003,339.073 L 456.523,338.92699999999996 L 456.54,338.42699999999996 L 456.572,338.299 L 456.523,337.84299999999996 L 456.46200000000005,337.46999999999997 L 456.26300000000003,336.986 L 456.29900000000004,336.87899999999996 L 456.391,336.789 L 456.692,336.621 L 456.932,336.22499999999997 L 457.281,335.893 L 457.738,335.626 L 458.058,335.32899999999995 L 458.18399999999997,335.10099999999994 L 458.27299999999997,335.04099999999994 L 458.24699999999996,334.93499999999995 L 458.18699999999995,334.78099999999995 L 458.00499999999994,334.62999999999994 L 457.7699999999999,334.5439999999999 L 457.5089999999999,334.54799999999994 L 457.3469999999999,334.51699999999994 L 457.2999999999999,334.39899999999994 L 457.31799999999987,334.07899999999995 L 457.30399999999986,333.76199999999994 L 457.25399999999985,333.61599999999993 L 457.13299999999987,333.5059999999999 L 456.8939999999999,333.5349999999999 L 456.6869999999999,333.44499999999994 L 456.5299999999999,333.4239999999999 L 456.4389999999999,333.49499999999995 L 455.9759999999999,333.47399999999993 L 455.7829999999999,333.42299999999994 L 455.6479999999999,333.35999999999996 L 455.5619999999999,333.395 L 455.5129999999999,333.457 L 455.50499999999994,333.554 L 455.47299999999996,333.68199999999996 L 455.30699999999996,333.79799999999994 L 454.92799999999994,333.91299999999995 L 454.62199999999996,333.90399999999994 L 454.34099999999995,333.82199999999995 L 454.251,333.76099999999997 L 454.116,333.707 L 453.54499999999996,333.774 L 453.47599999999994,333.725 L 453.27899999999994,333.84400000000005 L 452.9889999999999,333.98600000000005 L 452.8259999999999,333.994 L 452.7669999999999,333.96400000000006 L 452.74599999999987,333.90100000000007 L 452.62399999999985,333.68000000000006 L 452.65599999999984,333.56300000000005 L 452.8899999999998,333.22 L 452.8639999999998,333.13800000000003 L 452.7679999999998,333.02700000000004 L 452.6819999999998,332.867 L 452.6569999999998,332.784 L 452.5079999999998,332.77 L 452.3489999999998,332.854 L 451.7439999999998,333.027 L 451.5989999999998,333.09 L 451.3369999999998,333.256 L 451.07199999999983,333.51 L 450.8609999999998,333.563 L 450.78799999999984,333.488 L 450.76299999999986,332.892 L 451.08499999999987,332.495 L 451.31399999999985,332.255 L 451.2069999999998,332.206 L 450.9639999999998,332.213 L 450.9809999999998,332.02700000000004 L 451.0949999999998,331.93700000000007 L 451.2049999999998,331.7340000000001 L 451.0759999999998,331.6470000000001 L 450.9749999999998,331.5130000000001 L 450.98099999999977,331.16300000000007 L 451.0089999999998,331.0210000000001 L 450.9759999999998,330.8670000000001 L 450.48099999999977,331.0750000000001 L 450.35399999999976,331.0440000000001 L 450.34899999999976,330.7840000000001 L 450.62299999999976,330.3870000000001 L 450.6509999999998,330.2650000000001 L 450.32999999999976,330.2060000000001 L 450.08999999999975,330.0110000000001 L 449.94399999999973,329.83600000000007 L 449.7879999999997,329.5850000000001 L 449.78699999999975,329.3590000000001 L 449.9489999999997,328.8300000000001 L 450.1799999999997,328.6760000000001 L 450.3799999999997,328.5810000000001 L 450.8029999999997,328.21400000000006 L 451.38599999999974,328.28200000000004 L 451.74699999999973,328.20300000000003 L 452.07099999999974,328.01500000000004 L 452.2569999999997,327.97300000000007 L 452.5559999999997,327.8090000000001 L 452.5459999999997,327.5870000000001 L 452.4429999999997,327.4220000000001 L 452.5329999999997,327.2670000000001 L 452.86799999999965,327.0770000000001 L 453.23999999999967,326.8250000000001 L 453.6669999999997,326.7760000000001 L 454.1009999999997,326.5530000000001 L 454.3919999999997,326.6970000000001 L 454.6469999999997,326.64800000000014 L 454.9399999999997,326.81900000000013 L 455.3249999999997,327.21000000000015 L 455.8889999999997,327.36700000000013 L 456.3389999999997,327.24400000000014 L 457.13399999999973,327.21800000000013 L 457.5309999999997,327.27000000000015 L 458.23699999999974,327.1730000000002 L 458.64099999999974,327.2080000000002 L 459.2959999999997,327.0140000000002 L 459.8029999999997,327.2560000000002 L 460.7859999999997,327.3690000000002 L 461.3759999999997,327.5670000000002 L 463.0099999999997,327.89900000000017 L 463.5999999999997,327.9030000000002 L 464.43499999999966,327.7160000000002 L 464.78899999999965,327.5760000000002 L 465.11299999999966,327.6590000000002 L 465.5879999999997,327.4980000000002 L 465.8159999999997,327.53100000000023 L 466.1129999999997,327.7600000000002 L 467.15799999999973,328.06900000000024 L 467.43199999999973,327.80700000000024 L 467.63599999999974,327.7500000000002 L 468.38799999999975,327.91000000000025 L 469.14599999999973,328.2360000000003 L 469.53999999999974,328.2590000000003 L 470.11599999999976,328.1700000000003 L 470.57299999999975,327.9560000000003 L 470.665,327.922 M 487.75,341.264 L 487.699,341.306 L 486.836,340.885 L 486.55400000000003,340.83799999999997 L 486.485,340.77399999999994 L 486.493,340.55499999999995 L 486.515,340.45799999999997 L 487.09299999999996,340.414 L 487.55999999999995,340.57 L 487.8109999999999,340.99 L 487.8299999999999,341.062 L 487.75,341.264 M 484.527,341.452 L 484.796,341.573 L 485.08,341.464 L 485.231,341.498 L 485.38,341.557 L 485.416,341.78700000000003 L 485.284,342.043 L 485.099,342.303 L 484.943,342.588 L 484.80699999999996,342.915 L 484.554,343.108 L 484.325,343.224 L 483.841,342.981 L 483.559,342.92 L 483.475,342.829 L 483.408,342.467 L 483.281,342.352 L 483.094,342.301 L 482.93,342.394 L 482.716,342.585 L 482.60200000000003,342.394 L 482.42100000000005,342.358 L 482.35300000000007,342.243 L 482.35600000000005,342.09499999999997 L 483.51700000000005,341.21599999999995 L 483.85300000000007,341.02099999999996 L 484.5660000000001,340.794 L 484.67500000000007,340.828 L 484.58200000000005,340.962 L 484.58900000000006,341.02299999999997 L 484.67800000000005,341.08799999999997 L 484.65700000000004,341.19199999999995 L 484.56700000000006,341.2819999999999 L 484.527,341.452 M 479.755,344.602 L 479.653,344.823 L 479.226,344.745 L 479.132,344.656 L 479.224,344.406 L 479.347,344.37600000000003 L 479.35499999999996,344.19800000000004 L 479.484,344.01900000000006 L 480.09,343.8740000000001 L 480.227,343.9960000000001 L 480.256,344.1710000000001 L 479.89399999999995,344.5530000000001 L 479.755,344.602 M 480.173,345.487 L 480.11,345.53400000000005 L 479.92400000000004,345.49100000000004 L 479.64500000000004,345.49100000000004 L 479.634,345.34600000000006 L 479.677,345.24500000000006 L 479.731,345.14200000000005 L 479.901,345.34400000000005 L 480.17,345.38200000000006 L 480.173,345.487 M 437.206,378.372 L 437.01500000000004,378.582 L 436.802,378.506 L 436.904,378.046 L 437.003,377.909 L 437.39099999999996,377.70799999999997 L 437.71399999999994,377.62699999999995 L 437.80899999999997,377.41299999999995 L 437.91499999999996,377.3299999999999 L 438.02899999999994,377.45699999999994 L 437.9429999999999,377.60499999999996 L 437.87499999999994,378.06699999999995 L 437.65999999999997,378.215 L 437.206,378.372 M 425.648,379.703 L 425.57800000000003,379.727 L 425.514,379.476 L 425.181,378.86 L 425.383,378.58500000000004 L 425.751,378.57800000000003 L 425.9,378.77000000000004 L 425.95,378.968 L 425.88,379.082 L 425.901,379.313 L 425.862,379.462 L 425.648,379.703 M 435.856,380.73 L 435.475,381.089 L 435.09400000000005,381.006 L 435.02900000000005,380.94699999999995 L 435.41100000000006,380.85599999999994 L 435.75800000000004,380.5829999999999 L 435.98100000000005,379.9779999999999 L 436.33000000000004,379.3079999999999 L 436.40000000000003,379.0239999999999 L 436.538,378.9129999999999 L 436.728,378.9029999999999 L 436.81,378.9239999999999 L 436.894,379.0729999999999 L 436.89300000000003,379.4099999999999 L 436.79400000000004,379.96899999999994 L 436.61100000000005,380.46299999999997 L 435.856,380.73 M 429.857,380.063 L 429.622,380.787 L 429.403,381.07 L 429.273,381.165 L 428.95000000000005,381.244 L 428.56600000000003,380.795 L 428.36600000000004,380.338 L 428.25600000000003,380.19100000000003 L 428.43100000000004,380.07500000000005 L 428.68600000000004,380.095 L 429.23400000000004,379.99800000000005 L 429.345,379.95900000000006 L 429.90200000000004,379.49700000000007 L 430.45000000000005,379.44000000000005 L 430.463,379.59200000000004 L 429.857,380.063 M 427.471,381.196 L 427.356,381.223 L 427.21999999999997,381.144 L 427.07599999999996,380.89300000000003 L 427.17299999999994,380.70700000000005 L 427.26199999999994,380.62200000000007 L 427.38599999999997,380.63500000000005 L 427.62399999999997,380.77200000000005 L 427.69699999999995,380.91400000000004 L 427.70399999999995,381.00200000000007 L 427.471,381.196 M 432.478,380.799 L 432.461,381.043 L 432.527,381.289 L 432.51,381.662 L 432.376,381.864 L 432.032,382.065 L 431.76099999999997,382.029 L 431.60799999999995,381.948 L 431.33599999999996,381.621 L 431.33,381.28299999999996 L 431.579,381.06299999999993 L 431.68600000000004,380.7779999999999 L 432.33200000000005,380.8319999999999 L 432.38800000000003,380.7769999999999 L 432.43600000000004,380.76099999999985 L 432.478,380.799 M 425.497,381.867 L 425.226,382.382 L 424.884,382.19 L 424.801,382.126 L 424.73199999999997,382.02 L 425.061,381.99899999999997 L 425.394,381.73999999999995 L 425.497,381.867" id="ES" title="Spain"/>
</svg>
