<svg xmlns="http://www.w3.org/2000/svg" xmlns:ev="http://www.w3.org/2001/xml-events" xmlns:xlink="http://www.w3.org/1999/xlink" baseProfile="full" height="32.240997314453125" version="1.1" viewBox="568.3109741210938 420.78900146484375 42.03900146484375 32.240997314453125" width="42.03900146484375" fill="#00394f">
	<defs/>
	<path class="land" d="M 583.557,422.01 L 583.762,422.022 L 584.625,421.855 L 585.141,421.554 L 585.219,421.435 L 585.361,421.435 L 585.533,421.568 L 585.598,421.696 L 585.708,421.864 L 585.911,421.89 L 586.404,421.771 L 586.646,421.699 L 586.85,421.758 L 587.111,421.807 L 587.275,421.807 L 587.665,421.976 L 588.133,421.922 L 588.354,421.931 L 588.581,422.003 L 588.95,422.271 L 589.431,422.596 L 590.119,422.828 L 590.261,422.922 L 590.593,423.292 L 591.109,424.001 L 591.784,424.679 L 592.52,425.214 L 592.913,425.584 L 593.178,426.037 L 593.438,426.448 L 593.703,426.625 L 593.949,426.765 L 594.204,427.078 L 594.386,427.34 L 594.634,427.637 L 594.359,428.042 L 593.99,428.585 L 593.561,429.217 L 593.431,429.373 L 593.055,429.754 L 592.99,429.862 L 592.917,430.138 L 592.912,430.639 L 592.96,431.279 L 593.006,431.869 L 593.213,431.938 L 593.453,431.98 L 593.718,431.903 L 594.039,431.837 L 594.437,431.798 L 594.877,431.679 L 595.137,431.583 L 595.41,431.59 L 595.652,431.693 L 595.77,431.787 L 595.941,431.819 L 596.162,431.815 L 596.115,431.926 L 595.994,432.088 L 595.845,432.25 L 595.714,432.418 L 595.423,432.888 L 595.414,432.948 L 595.45,433.041 L 595.607,433.255 L 595.771,433.602 L 595.863,433.92 L 595.934,434.074 L 596.133,434.25 L 596.42,434.613 L 596.572,434.858 L 596.889,434.989 L 596.992,435.299 L 597.229,435.755 L 597.485,436.119 L 597.733,436.404 L 598.009,436.514 L 598.12,436.523 L 598.699,437.05 L 599.14,437.451 L 599.249,437.515 L 600.044,437.778 L 600.959,438.08 L 601.693,438.322 L 602.628,438.63 L 603.55,438.935 L 604.415,439.225 L 605.629,439.633 L 606.607,439.962 L 607.379,440.222 L 607.543,440.303 L 608.462,440.303 L 609.395,440.303 L 610.35,440.303 L 609.658,440.972 L 608.875,441.729 L 608.053,442.523 L 607.523,443.034 L 606.684,443.845 L 605.985,444.519 L 605.266,445.255 L 604.616,445.921 L 603.77,446.843 L 603.222,447.439 L 602.364,448.374 L 601.825,448.96 L 601.743,448.994 L 600.972,448.95 L 600.222,448.906 L 599.264,448.851 L 599.154,448.853 L 598.875,448.908 L 598.706,448.962 L 598.016,449.12 L 597.889,449.161 L 597.316,449.412 L 596.731,449.708 L 596.423,449.936 L 596.185,450.266 L 596.083,450.501 L 595.976,450.604 L 595.794,450.694 L 594.569,450.917 L 594.213,450.947 L 593.64,451.125 L 593.334,451.423 L 593.247,451.573 L 592.836,451.569 L 592.118,451.613 L 591.811,451.661 L 591.661,451.669 L 591.386,451.668 L 591.16,451.614 L 591.01,451.533 L 590.824,451.35 L 590.408,450.979 L 590.106,450.747 L 589.443,451.014 L 588.846,451.279 L 587.999,451.656 L 587.516,451.926 L 587.371,452.197 L 586.998,452.69 L 586.665,452.993 L 586.54,453.03 L 585.785,452.967 L 585.513,452.905 L 585.063,452.85 L 584.458,452.743 L 584.053,452.628 L 583.613,452.614 L 582.979,452.575 L 582.588,452.492 L 582.191,452.218 L 581.681,451.889 L 581.155,451.55 L 580.613,451.201 L 579.973,450.799 L 579.274,450.36 L 579.114,450.316 L 579.044,450.308 L 578.285,450.288 L 577.496,450.267 L 576.963,450.253 L 576.795,450.202 L 576.673,450.102 L 576.508,449.777 L 576.3,449.546 L 576.068,449.251 L 576.049,448.853 L 576.113,448.418 L 576.173,448.274 L 576.139,448.131 L 576.148,447.934 L 576.018,447.751 L 575.242,447.541 L 575.116,447.557 L 574.987,447.636 L 574.84,447.692 L 574.734,447.639 L 574.669,447.561 L 574.667,447.432 L 574.68,447.336 L 574.635,447.283 L 574.388,447.087 L 574.156,446.829 L 574.016,446.544 L 573.88,446.31 L 573.812,445.787 L 573.64,445.465 L 573.472,445.071 L 573.223,444.32 L 573.115,444.061 L 572.913,443.887 L 572.7,443.726 L 572.479,443.393 L 571.904,443.099 L 571.683,442.87 L 571.3,442.473 L 571.205,442.272 L 571.177,442.073 L 571.058,441.886 L 570.846,441.675 L 570.183,441.221 L 570.0,441.167 L 569.763,441.118 L 569.415,441.073 L 568.948,440.969 L 568.54,440.791 L 568.355,440.665 L 568.311,440.578 L 568.349,440.432 L 568.497,440.181 L 568.777,439.588 L 568.971,439.179 L 569.103,439.063 L 569.462,439.034 L 569.844,439.046 L 570.123,439.076 L 570.517,439.081 L 570.989,439.046 L 571.176,438.909 L 571.324,438.759 L 571.386,438.654 L 571.406,438.389 L 571.405,438.176 L 571.375,437.359 L 571.357,436.859 L 571.336,436.287 L 571.339,436.172 L 571.343,436.025 L 571.458,435.414 L 571.566,435.064 L 571.64,434.879 L 571.938,434.295 L 571.994,434.108 L 572.004,433.937 L 571.894,433.152 L 572.085,432.782 L 572.331,432.416 L 572.546,432.259 L 572.725,432.153 L 572.809,432.198 L 573.015,432.367 L 573.285,432.534 L 573.411,432.497 L 573.596,432.351 L 573.734,432.197 L 573.716,431.921 L 573.84,431.354 L 573.816,431.026 L 573.949,430.62 L 574.094,430.047 L 574.159,429.685 L 574.242,429.49 L 574.635,429.09 L 574.973,428.524 L 575.188,428.11 L 575.6,427.434 L 575.808,427.187 L 575.977,427.081 L 576.229,427.013 L 576.698,426.951 L 577.035,426.894 L 577.084,426.806 L 577.113,426.668 L 577.118,426.365 L 577.183,425.844 L 577.329,425.335 L 577.501,424.949 L 577.594,424.773 L 577.705,424.604 L 577.83,424.317 L 577.988,423.697 L 577.979,423.276 L 578.205,422.504 L 578.255,422.5 L 578.639,422.358 L 579.012,422.337 L 579.373,422.436 L 579.608,422.461 L 579.718,422.411 L 579.819,422.283 L 579.912,422.075 L 580.06,421.96 L 580.262,421.938 L 580.532,422.172 L 580.963,422.793 L 581.074,422.83 L 581.143,422.814 L 581.359,422.315 L 581.528,421.928 L 581.842,421.204 L 582.021,420.789 L 582.188,420.909 L 582.354,421.121 L 582.542,421.22 L 582.745,421.281 L 582.843,421.289 L 582.968,421.373 L 583.404,421.89 L 583.557,422.01" id="ET" title="Ethiopia"/>
</svg>
