<svg xmlns="http://www.w3.org/2000/svg" xmlns:ev="http://www.w3.org/2001/xml-events" xmlns:xlink="http://www.w3.org/1999/xlink" baseProfile="full" height="68.7659912109375" version="1.1" viewBox="533.5709838867188 184.10400390625 30.63299560546875 68.7659912109375" width="30.63299560546875">
	<defs/>
	<path class="land" d="M 556.992,192.466 L 556.804,192.56300000000002 L 556.2239999999999,192.943 L 555.8699999999999,193.199 L 555.4439999999998,193.387 L 555.5539999999999,193.636 L 556.2619999999998,193.688 L 556.3709999999999,193.759 L 556.4499999999998,193.886 L 556.4629999999999,194.09 L 556.3919999999998,194.419 L 555.6259999999999,196.22 L 555.6019999999999,196.597 L 555.8519999999999,197.64100000000002 L 556.2029999999999,198.865 L 557.2639999999999,199.406 L 558.0519999999999,199.827 L 558.5579999999999,200.821 L 559.3929999999999,202.12199999999999 L 559.8349999999999,202.606 L 559.8599999999999,202.756 L 559.7289999999999,203.645 L 559.194,204.531 L 558.694,205.275 L 558.1759999999999,206.167 L 557.771,206.924 L 557.332,207.827 L 557.281,208.119 L 557.2729999999999,208.394 L 557.3489999999999,208.697 L 557.911,209.79 L 558.13,210.345 L 558.391,210.943 L 558.616,211.59300000000002 L 558.746,212.174 L 558.971,212.737 L 559.111,213.024 L 559.343,213.426 L 559.6229999999999,214.022 L 559.7159999999999,214.493 L 560.1389999999999,216.117 L 560.1819999999999,216.528 L 560.161,216.832 L 559.9749999999999,216.906 L 559.564,216.954 L 559.1179999999999,217.15300000000002 L 559.0959999999999,217.22000000000003 L 559.387,217.598 L 559.13,218.24300000000002 L 559.093,219.16200000000003 L 558.819,219.64200000000002 L 558.793,219.75300000000001 L 558.805,219.846 L 558.8539999999999,219.919 L 559.3609999999999,220.047 L 559.4049999999999,220.177 L 559.4069999999998,220.446 L 559.3619999999999,220.694 L 559.1069999999999,220.878 L 558.8339999999998,221.14899999999997 L 558.7729999999998,221.39899999999997 L 558.7819999999998,221.62099999999998 L 558.8749999999998,221.99599999999998 L 559.0559999999998,222.432 L 559.2849999999999,222.70499999999998 L 560.0979999999998,222.96399999999997 L 560.2029999999999,223.17699999999996 L 560.2469999999998,223.46899999999997 L 560.2299999999998,223.75399999999996 L 559.8519999999997,224.32199999999997 L 559.8549999999998,224.53999999999996 L 560.0099999999998,225.06599999999997 L 560.1959999999998,225.56699999999998 L 560.9889999999998,226.10899999999998 L 561.2619999999998,226.40499999999997 L 561.3339999999998,226.64 L 561.3739999999998,227.01899999999998 L 561.3689999999998,227.42899999999997 L 561.3069999999998,227.79199999999997 L 561.0579999999998,228.259 L 560.4829999999997,229.177 L 559.9039999999998,229.53199999999998 L 559.8689999999998,229.60899999999998 L 560.0479999999998,229.90099999999998 L 561.0669999999998,231.06699999999998 L 561.7319999999997,231.60999999999999 L 562.6279999999997,232.33999999999997 L 563.2059999999997,232.91499999999996 L 563.3929999999997,233.32699999999997 L 563.6429999999997,233.78499999999997 L 563.9239999999996,234.15799999999996 L 564.1269999999996,234.48099999999997 L 564.2039999999996,234.68899999999996 L 564.1969999999997,234.91199999999998 L 563.9259999999997,235.58299999999997 L 563.7719999999997,236.09999999999997 L 563.5009999999997,236.85499999999996 L 563.2229999999997,237.37899999999996 L 562.5189999999998,238.33299999999997 L 561.4799999999998,239.51299999999998 L 561.2389999999998,239.86799999999997 L 560.7529999999998,240.48499999999996 L 559.9199999999998,241.71799999999996 L 559.7049999999998,241.98899999999995 L 559.0229999999998,242.96499999999995 L 558.7119999999998,243.27499999999995 L 558.4669999999998,243.56399999999994 L 557.7919999999998,244.47899999999993 L 557.0659999999998,245.16999999999993 L 556.3539999999998,245.80999999999992 L 556.1399999999998,246.13299999999992 L 555.8739999999998,246.37999999999994 L 555.5569999999998,246.61399999999995 L 555.4239999999998,246.74499999999995 L 554.7069999999998,247.61399999999995 L 553.7119999999998,248.81199999999995 L 553.6109999999998,248.83099999999996 L 553.3519999999997,249.02399999999997 L 552.9469999999998,249.07099999999997 L 552.7709999999997,249.21799999999996 L 552.1519999999997,248.79799999999997 L 552.0489999999998,248.771 L 551.6849999999997,248.875 L 551.3359999999997,249.18 L 550.6909999999997,249.273 L 550.3709999999996,249.37199999999999 L 550.1669999999997,249.51299999999998 L 550.1249999999997,249.17999999999998 L 550.2129999999996,248.75699999999998 L 550.3549999999997,248.474 L 550.3679999999997,248.29 L 550.2639999999997,248.309 L 550.0569999999997,248.724 L 549.9469999999997,249.208 L 549.7259999999997,249.451 L 549.2399999999997,249.54999999999998 L 548.7669999999997,249.16199999999998 L 548.5419999999997,249.16499999999996 L 548.6829999999997,249.44299999999996 L 548.7779999999997,249.74799999999996 L 548.7659999999997,249.91799999999995 L 548.5139999999998,249.88799999999995 L 548.2329999999998,250.06999999999994 L 547.9869999999999,250.33599999999993 L 547.8669999999998,250.33699999999993 L 547.7009999999998,249.96499999999992 L 547.3969999999998,250.13899999999992 L 547.1369999999998,250.37199999999993 L 546.6099999999998,250.44399999999993 L 546.2959999999998,250.74999999999994 L 545.7399999999998,250.95699999999994 L 545.4349999999998,250.95199999999994 L 544.7379999999998,251.19999999999993 L 544.5059999999999,251.58199999999994 L 544.3029999999999,251.72199999999992 L 544.0139999999999,251.60399999999993 L 543.1229999999999,251.78999999999994 L 542.271,252.03399999999993 L 541.909,252.01999999999992 L 541.547,251.91899999999993 L 541.163,252.25699999999992 L 540.755,252.70899999999992 L 540.306,252.86999999999992 L 540.1450000000001,252.81199999999993 L 540.2740000000001,252.57499999999993 L 540.5710000000001,252.32999999999993 L 540.7750000000001,251.99699999999993 L 540.8030000000001,251.71899999999994 L 540.6630000000001,251.60999999999993 L 540.4710000000001,251.57599999999994 L 540.2300000000001,251.28799999999993 L 539.9990000000001,250.66199999999992 L 539.8740000000001,250.62699999999992 L 539.8110000000001,250.79199999999992 L 539.7400000000001,251.27099999999993 L 539.6680000000001,251.40899999999993 L 539.5460000000002,251.51899999999995 L 539.3990000000001,251.62899999999996 L 539.2550000000001,251.68299999999996 L 538.7400000000001,251.67599999999996 L 538.6720000000001,251.43399999999997 L 538.6720000000001,251.33299999999997 L 538.7640000000001,251.01399999999998 L 538.6840000000001,250.95799999999997 L 538.7600000000001,250.70799999999997 L 538.8810000000001,250.72199999999998 L 539.0250000000001,250.68399999999997 L 539.0970000000001,250.55599999999998 L 539.0920000000001,250.402 L 538.892,250.362 L 538.8800000000001,250.257 L 539.0580000000001,249.817 L 539.0830000000001,249.695 L 539.0140000000001,249.67 L 538.9030000000001,249.718 L 538.1660000000002,249.57999999999998 L 537.2570000000002,249.016 L 537.0330000000001,248.987 L 536.8960000000002,248.482 L 536.6770000000001,248.546 L 536.3570000000001,248.84199999999998 L 536.1170000000001,248.617 L 535.859,248.469 L 535.788,248.238 L 535.792,247.896 L 535.77,247.49099999999999 L 535.6999999999999,247.016 L 535.6489999999999,246.339 L 535.6969999999999,245.808 L 535.9029999999999,245.414 L 535.9819999999999,245.16199999999998 L 536.0779999999999,244.51699999999997 L 536.0999999999999,243.75999999999996 L 536.045,243.50199999999995 L 536.059,243.32999999999996 L 536.223,243.32999999999996 L 536.187,243.18199999999996 L 536.115,243.10099999999997 L 536.035,242.93299999999996 L 536.103,242.84399999999997 L 536.299,242.83799999999997 L 536.3149999999999,242.78099999999998 L 536.337,242.70099999999996 L 536.185,242.25699999999998 L 536.1669999999999,242.045 L 535.9569999999999,241.39999999999998 L 535.7159999999999,240.78599999999997 L 535.3549999999999,240.34099999999998 L 535.483,239.60599999999997 L 535.6289999999999,238.93899999999996 L 535.5999999999999,238.61699999999996 L 535.5439999999999,238.22399999999996 L 535.1009999999999,237.79199999999997 L 535.0359999999998,237.18199999999996 L 534.9279999999999,236.52399999999997 L 534.9689999999999,236.11999999999998 L 535.0409999999999,235.80899999999997 L 535.1869999999999,235.49899999999997 L 535.9219999999999,234.51899999999998 L 535.9669999999999,234.00499999999997 L 536.4649999999999,233.96699999999996 L 536.2339999999999,233.50699999999995 L 536.18,233.24799999999996 L 536.168,232.94499999999996 L 536.884,232.73699999999997 L 537.152,232.90799999999996 L 537.782,232.69699999999995 L 538.342,232.28399999999993 L 538.332,232.06399999999994 L 538.246,231.86699999999993 L 538.127,231.48699999999994 L 538.2109999999999,231.38099999999994 L 538.4149999999998,231.45899999999995 L 538.3209999999998,231.26999999999995 L 538.3379999999999,231.06999999999996 L 538.5609999999998,231.15299999999996 L 538.9239999999999,230.59399999999997 L 538.9369999999999,230.16599999999997 L 539.5649999999999,229.94199999999998 L 540.29,229.064 L 540.6239999999999,228.79 L 540.9469999999999,228.59099999999998 L 541.6349999999999,227.70799999999997 L 541.9289999999999,227.66699999999997 L 542.0799999999998,227.06899999999996 L 542.6649999999998,226.26999999999995 L 542.8429999999998,226.16799999999995 L 543.1159999999999,225.44399999999996 L 543.8349999999999,224.60399999999996 L 544.2909999999999,223.52699999999996 L 544.5419999999999,223.14299999999997 L 544.6199999999999,222.73299999999998 L 544.8999999999999,222.69799999999998 L 545.1519999999998,222.396 L 545.6979999999999,222.18599999999998 L 546.2379999999998,222.24399999999997 L 546.4629999999999,222.38799999999998 L 546.6699999999998,222.343 L 546.6489999999999,221.97299999999998 L 546.5009999999999,221.74399999999997 L 546.6219999999998,221.52299999999997 L 546.9069999999998,221.35599999999997 L 546.8779999999998,220.98599999999996 L 546.8159999999998,220.76299999999995 L 546.5789999999998,220.46599999999995 L 546.6969999999999,219.79799999999994 L 546.7249999999999,219.06299999999993 L 546.8369999999999,218.20999999999992 L 546.5399999999998,217.75699999999992 L 545.4099999999999,216.98299999999992 L 545.1999999999998,217.0099999999999 L 544.9489999999998,216.9119999999999 L 544.6869999999999,216.3229999999999 L 544.8039999999999,215.8129999999999 L 544.8179999999999,215.62499999999991 L 544.7159999999999,215.63099999999991 L 544.5499999999998,215.8799999999999 L 544.1899999999998,216.1639999999999 L 543.7219999999999,215.9459999999999 L 543.4919999999998,215.99399999999991 L 543.1929999999999,214.72699999999992 L 543.0399999999998,214.23999999999992 L 542.7949999999998,213.63199999999992 L 542.3579999999998,213.33499999999992 L 542.2719999999998,213.1659999999999 L 542.2139999999998,212.90699999999993 L 542.1949999999998,212.5469999999999 L 542.1389999999998,212.01299999999992 L 542.1619999999998,211.57399999999993 L 542.2159999999998,211.31199999999993 L 542.4049999999997,211.13599999999994 L 542.6769999999998,210.63699999999994 L 542.7339999999998,210.27399999999994 L 542.7569999999998,209.71599999999995 L 542.8819999999998,209.22699999999995 L 543.0209999999998,208.97899999999996 L 542.9859999999999,208.78099999999995 L 542.8899999999999,208.49899999999994 L 542.6859999999999,208.09699999999995 L 542.376,207.60599999999994 L 542.1469999999999,207.13499999999993 L 542.0459999999999,206.69399999999993 L 541.9939999999999,206.29799999999994 L 542.002,205.93799999999993 L 542.088,205.69199999999992 L 542.38,205.38199999999992 L 542.419,205.24999999999991 L 542.303,204.5629999999999 L 542.099,204.4379999999999 L 541.7520000000001,204.3709999999999 L 541.5580000000001,204.3649999999999 L 541.5210000000001,204.2889999999999 L 541.5110000000001,204.1509999999999 L 541.551,203.8679999999999 L 541.6600000000001,203.54299999999992 L 541.7510000000001,203.33499999999992 L 541.763,203.15899999999993 L 541.647,202.55499999999992 L 541.6120000000001,201.81199999999993 L 541.652,201.22799999999992 L 542.0200000000001,200.79599999999994 L 542.0370000000001,200.63799999999995 L 541.5750000000002,200.16699999999994 L 541.2420000000002,199.63199999999995 L 541.1380000000001,199.31899999999996 L 540.7570000000002,199.27199999999996 L 540.5190000000001,198.35799999999998 L 540.1750000000001,197.91199999999998 L 539.835,197.52499999999998 L 539.634,197.34499999999997 L 538.4540000000001,196.78799999999998 L 537.9860000000001,196.682 L 537.4310000000002,196.356 L 537.0180000000001,195.946 L 536.6640000000001,195.682 L 536.3610000000001,195.355 L 535.9380000000001,195.04899999999998 L 535.8170000000001,194.78699999999998 L 535.3600000000001,194.301 L 535.1460000000001,193.98 L 534.403,193.373 L 534.376,193.13299999999998 L 534.371,192.90099999999998 L 534.337,192.80399999999997 L 533.571,192.35799999999998 L 533.722,192.10199999999998 L 534.321,192.08599999999998 L 534.816,192.319 L 534.9250000000001,192.219 L 534.9900000000001,192.012 L 534.7790000000001,191.18 L 534.8170000000001,190.96200000000002 L 535.0350000000001,190.70000000000002 L 535.3810000000001,190.491 L 535.926,190.461 L 536.298,190.49200000000002 L 536.377,190.51500000000001 L 536.9319999999999,191.43300000000002 L 537.4089999999999,192.324 L 537.6619999999999,192.702 L 538.281,193.77 L 538.5129999999999,194.38500000000002 L 538.5919999999999,194.824 L 538.8439999999998,194.822 L 539.7149999999998,195.014 L 540.4469999999998,195.17600000000002 L 540.6509999999997,195.42100000000002 L 541.1549999999997,195.372 L 541.5439999999998,195.151 L 542.2299999999998,194.872 L 542.4139999999998,194.52800000000002 L 542.6429999999998,194.15900000000002 L 543.0449999999998,194.217 L 543.4849999999999,194.508 L 543.9839999999999,194.89000000000001 L 544.429,195.066 L 545.026,195.342 L 545.304,195.698 L 545.694,195.8 L 546.102,195.44400000000002 L 546.343,194.473 L 546.557,194.038 L 546.86,193.71900000000002 L 547.207,193.57800000000003 L 547.472,193.52700000000004 L 547.673,193.27800000000005 L 547.958,192.72400000000005 L 548.014,192.05000000000004 L 547.9590000000001,190.82600000000005 L 548.0110000000001,190.42000000000004 L 548.244,189.75400000000005 L 548.557,187.97800000000004 L 548.697,187.46200000000005 L 548.868,187.14800000000005 L 549.1030000000001,186.96100000000004 L 549.5300000000001,186.41700000000003 L 550.1400000000001,185.33300000000003 L 550.3050000000001,185.241 L 550.743,185.186 L 551.287,185.226 L 551.777,185.417 L 551.83,185.40200000000002 L 552.0500000000001,185.30200000000002 L 552.4490000000001,184.96400000000003 L 553.133,184.29000000000002 L 553.571,184.104 L 553.969,184.13000000000002 L 554.4100000000001,184.86800000000002 L 555.0330000000001,185.687 L 555.4330000000001,186.083 L 556.5240000000001,186.824 L 557.4820000000001,187.30900000000003 L 558.0200000000001,188.90300000000002 L 557.7540000000001,189.53400000000002 L 557.6220000000002,189.75100000000003 L 557.1530000000001,190.37600000000003 L 556.6520000000002,191.25400000000002 L 556.6140000000001,191.71 L 556.7800000000002,192.169 L 556.992,192.466 M 545.436,221.47 L 545.017,221.69 L 544.6800000000001,221.553 L 544.6740000000001,221.126 L 544.883,220.919 L 545.2610000000001,220.836 L 545.7790000000001,221.043 L 545.8550000000001,221.15300000000002 L 545.5580000000001,221.23600000000002 L 545.436,221.47 M 535.247,232.708 L 535.2769999999999,232.824 L 535.4409999999999,232.792 L 535.6629999999999,232.58 L 535.8199999999999,232.679 L 535.8019999999999,232.981 L 535.6959999999999,232.969 L 535.6669999999999,232.91899999999998 L 535.53,233.09099999999998 L 535.506,233.195 L 535.348,233.261 L 535.0559999999999,232.966 L 534.872,232.48000000000002 L 535.3,232.479 L 535.2589999999999,232.59500000000003 L 535.247,232.708 M 535.901,248.846 L 535.862,249.111 L 535.6709999999999,249.082 L 535.477,249.13 L 535.321,248.867 L 535.238,248.423 L 535.267,248.327 L 535.389,248.226 L 535.482,248.47 L 535.901,248.846 M 537.426,249.941 L 537.221,249.966 L 536.932,249.685 L 536.8960000000001,249.575 L 537.0090000000001,249.511 L 536.9340000000001,249.285 L 536.9560000000001,249.185 L 537.1790000000001,249.364 L 537.301,249.572 L 537.182,249.62 L 537.384,249.835 L 537.426,249.941 M 537.934,249.749 L 538.289,249.88 L 538.438,249.833 L 538.608,250.13 L 538.3199999999999,250.31799999999998 L 538.3,250.552 L 538.414,250.697 L 538.454,250.907 L 538.1669999999999,250.907 L 538.03,250.73000000000002 L 537.97,250.50500000000002 L 537.836,250.34600000000003 L 537.658,250.22500000000002 L 537.745,250.06300000000002 L 537.795,249.83100000000002 L 537.934,249.749 M 536.974,251.048 L 536.6930000000001,251.241 L 536.5860000000001,251.19500000000002 L 536.6130000000002,250.86900000000003 L 536.7800000000002,250.72000000000003 L 537.0610000000001,250.70300000000003 L 536.974,251.048 M 536.399,251.232 L 536.153,251.288 L 536.0,251.125 L 536.058,251.004 L 536.229,250.869 L 536.4150000000001,250.888 L 536.455,251.046 L 536.399,251.232" id="FI" title="Finland"/>
</svg>
