<svg xmlns="http://www.w3.org/2000/svg" xmlns:ev="http://www.w3.org/2001/xml-events" xmlns:xlink="http://www.w3.org/1999/xlink" baseProfile="full" height="26.96600341796875" version="1.1" viewBox="965.677001953125 497.7349853515625 20.0980224609375 26.96600341796875" width="20.0980224609375">
	<defs/>
	<path class="land" d="M 972.789,497.816 L 972.679,497.84499999999997 L 972.502,497.82099999999997 L 972.466,497.775 L 972.522,497.765 L 972.638,497.735 L 972.7800000000001,497.75 L 972.8050000000001,497.78 L 972.789,497.816 M 980.99,508.306 L 980.867,508.36199999999997 L 980.867,508.32599999999996 L 980.867,508.31699999999995 L 980.953,508.239 L 981.0219999999999,508.239 L 980.99,508.306 M 981.065,509.333 L 980.8670000000001,509.44100000000003 L 980.8670000000001,509.29200000000003 L 981.0250000000001,509.15400000000005 L 981.1450000000001,509.12500000000006 L 981.0710000000001,509.26400000000007 L 981.065,509.333 M 983.796,511.578 L 983.725,511.678 L 983.663,511.642 L 983.742,511.474 L 983.7539999999999,511.402 L 983.632,511.31399999999996 L 983.6239999999999,511.25199999999995 L 983.6599999999999,511.21399999999994 L 983.8059999999998,511.31299999999993 L 983.8949999999999,511.38999999999993 L 983.9129999999999,511.4319999999999 L 983.8859999999999,511.5069999999999 L 983.796,511.578 M 985.775,513.568 L 985.619,513.5989999999999 L 985.477,513.4739999999999 L 985.567,513.342 L 985.693,513.3729999999999 L 985.765,513.501 L 985.775,513.568 M 983.707,513.638 L 983.622,513.682 L 983.563,513.672 L 983.494,513.625 L 983.452,513.542 L 983.54,513.472 L 983.6759999999999,513.5509999999999 L 983.707,513.638 M 984.342,514.393 L 984.309,514.447 L 984.159,514.359 L 984.101,514.2990000000001 L 984.261,514.253 L 984.3389999999999,514.268 L 984.342,514.393 M 981.429,516.472 L 981.4359999999999,516.559 L 981.3939999999999,516.554 L 981.3439999999999,516.5169999999999 L 981.319,516.535 L 981.3009999999999,516.562 L 981.2919999999999,516.623 L 981.285,516.657 L 981.246,516.6450000000001 L 981.239,516.5850000000002 L 981.2520000000001,516.5430000000001 L 981.2710000000001,516.4810000000001 L 981.3410000000001,516.4250000000001 L 981.429,516.472 M 984.979,517.138 L 984.9480000000001,517.1650000000001 L 984.8710000000001,517.1350000000001 L 984.8080000000001,517.094 L 984.8000000000001,517.052 L 984.826,516.998 L 984.8870000000001,516.97 L 984.918,516.981 L 984.9,516.999 L 984.8629999999999,517.018 L 984.8689999999999,517.071 L 984.9169999999999,517.1030000000001 L 984.963,517.1120000000001 L 984.979,517.138 M 984.483,521.595 L 984.4889999999999,521.6030000000001 L 984.473,521.6020000000001 L 984.4509999999999,521.5920000000001 L 984.4329999999999,521.5720000000001 L 984.4289999999999,521.5500000000001 L 984.4379999999999,521.528 L 984.4469999999999,521.529 L 984.4619999999999,521.549 L 984.4759999999999,521.571 L 984.483,521.595 M 980.865,508.362 L 980.441,508.749 L 980.289,508.949 L 980.16,509.17 L 979.799,509.40700000000004 L 979.645,509.725 L 979.656,510.04600000000005 L 980.0179999999999,509.71000000000004 L 980.4209999999999,509.43600000000004 L 980.545,509.38000000000005 L 980.6719999999999,509.38300000000004 L 980.661,509.47700000000003 L 980.603,509.57000000000005 L 980.558,509.81300000000005 L 980.664,510.03900000000004 L 980.3629999999999,510.01700000000005 L 980.0649999999999,510.03600000000006 L 979.712,510.16200000000003 L 979.365,510.218 L 979.235,510.219 L 979.111,510.177 L 979.03,510.112 L 978.967,509.96200000000005 L 978.903,509.94000000000005 L 978.628,509.94700000000006 L 978.216,510.24100000000004 L 978.0790000000001,510.49300000000005 L 977.921,510.5040000000001 L 977.7330000000001,510.45200000000006 L 977.5060000000001,510.64500000000004 L 977.2350000000001,510.71400000000006 L 977.1190000000001,510.55000000000007 L 977.0430000000001,510.3500000000001 L 976.9460000000001,510.2030000000001 L 976.6480000000001,510.1660000000001 L 976.6940000000002,509.9860000000001 L 976.7730000000001,509.9120000000001 L 976.8450000000001,509.80500000000006 L 976.8890000000001,509.68300000000005 L 977.0320000000002,509.76000000000005 L 977.1780000000001,509.81000000000006 L 977.3410000000001,509.71900000000005 L 977.5110000000001,509.71100000000007 L 977.681,509.44500000000005 L 977.9480000000001,509.2780000000001 L 978.315,509.1460000000001 L 978.6890000000001,509.0520000000001 L 978.8820000000001,509.0330000000001 L 979.067,508.9790000000001 L 979.392,508.7290000000001 L 979.6070000000001,508.6010000000001 L 979.8410000000001,508.5240000000001 L 980.0650000000002,508.4790000000001 L 980.2720000000002,508.5190000000001 L 980.4390000000002,508.4980000000001 L 980.8650000000002,508.3200000000001 L 980.865,508.362 M 980.867,509.442 L 980.831,509.445 L 980.8240000000001,509.389 L 980.8670000000001,509.29200000000003 L 980.8670000000001,509.442 L 980.867,509.442 M 981.258,509.873 L 981.166,509.909 L 980.8670000000001,510.157 L 980.8670000000001,510.157 L 980.6740000000001,510.41999999999996 L 980.5780000000001,510.67599999999993 L 980.6590000000001,510.7819999999999 L 980.8670000000001,510.67299999999994 L 980.9370000000001,510.56199999999995 L 981.2380000000002,510.34499999999997 L 981.3660000000002,510.097 L 981.258,509.873 M 973.105,511.211 L 972.96,511.26 L 973.037,511.02799999999996 L 973.118,510.955 L 973.1700000000001,510.94 L 973.253,510.924 L 973.221,511.08799999999997 L 973.105,511.211 M 979.246,511.853 L 979.1519999999999,511.932 L 979.108,511.53000000000003 L 979.2049999999999,511.533 L 979.275,511.575 L 979.3149999999999,511.67699999999996 L 979.246,511.853 M 976.041,511.868 L 976.041,511.997 L 976.123,512.053 L 976.205,512.062 L 976.407,512.3100000000001 L 976.7220000000001,512.523 L 976.9140000000001,512.686 L 976.9250000000001,512.825 L 976.8660000000001,512.9720000000001 L 976.9480000000001,513.2360000000001 L 976.9870000000001,513.5090000000001 L 977.1270000000001,513.9430000000001 L 976.9300000000001,514.0260000000001 L 976.619,514.0360000000001 L 976.547,514.114 L 976.442,514.071 L 976.184,514.104 L 975.938,514.2470000000001 L 975.704,514.441 L 975.433,514.441 L 975.128,514.481 L 974.8240000000001,514.454 L 974.61,514.3499999999999 L 974.2330000000001,514.2369999999999 L 973.73,514.1409999999998 L 973.522,514.0599999999998 L 973.3480000000001,513.9339999999999 L 973.186,513.6149999999999 L 973.162,513.4569999999999 L 973.187,513.3059999999999 L 973.3340000000001,513.2549999999999 L 973.4570000000001,513.1789999999999 L 973.4740000000002,513.0789999999998 L 973.5290000000001,513.0089999999998 L 973.5990000000002,512.9839999999998 L 973.6340000000001,512.9359999999998 L 973.5840000000002,512.7739999999998 L 973.5700000000002,512.6269999999997 L 973.8620000000002,512.3569999999997 L 974.1790000000002,512.1269999999997 L 974.7410000000002,511.91499999999974 L 975.0840000000002,511.9349999999997 L 975.6100000000001,511.7719999999997 L 975.7790000000001,511.6949999999997 L 975.9460000000001,511.74199999999973 L 976.041,511.868 M 977.577,512.912 L 977.432,512.964 L 977.352,512.7850000000001 L 977.462,512.6050000000001 L 977.586,512.5890000000002 L 977.647,512.7720000000002 L 977.577,512.912 M 979.041,514.007 L 979.0160000000001,514.031 L 978.773,513.7969999999999 L 978.7810000000001,513.704 L 978.8240000000001,513.621 L 978.922,513.543 L 979.01,513.676 L 979.079,513.898 L 979.041,514.007 M 976.624,516.572 L 976.623,516.699 L 976.2620000000001,516.7829999999999 L 976.1410000000001,516.6789999999999 L 976.0630000000001,516.6599999999999 L 975.8480000000001,516.8459999999999 L 975.7850000000001,516.9219999999999 L 975.7640000000001,516.9789999999999 L 975.7080000000001,517.0079999999999 L 975.3120000000001,517.097 L 975.1380000000001,517.0079999999999 L 975.2550000000001,516.948 L 975.4000000000001,516.827 L 975.546,516.845 L 975.692,516.732 L 975.838,516.56 L 976.045,516.5229999999999 L 976.1909999999999,516.4569999999999 L 976.4319999999999,516.5049999999999 L 976.624,516.572 M 965.795,524.668 L 965.774,524.701 L 965.693,524.69 L 965.677,524.623 L 965.724,524.585 L 965.7900000000001,524.61 L 965.795,524.668" id="FJ" title="Fiji"/>
</svg>
