<svg xmlns="http://www.w3.org/2000/svg" xmlns:ev="http://www.w3.org/2001/xml-events" xmlns:xlink="http://www.w3.org/1999/xlink" baseProfile="full" height="4.7020263671875" version="1.1" viewBox="304.09698486328125 629.9669799804688 9.409027099609375 4.7020263671875" width="9.409027099609375">
	<defs/>
	<path class="land" d="M 310.537,629.967 L 310.96599999999995,630.23 L 311.50299999999993,630.138 L 311.7289999999999,630.21 L 311.86099999999993,630.4290000000001 L 311.7819999999999,630.6320000000001 L 311.6119999999999,630.6030000000001 L 311.4659999999999,630.658 L 311.4949999999999,630.926 L 311.5939999999999,631.041 L 312.1609999999999,631.336 L 312.2649999999999,631.354 L 312.24599999999987,631.23 L 312.1469999999999,631.027 L 312.1099999999999,630.8090000000001 L 312.1939999999999,630.628 L 312.3419999999999,630.571 L 312.98799999999994,630.48 L 313.13899999999995,630.566 L 313.45899999999995,631.08 L 313.15899999999993,631.1510000000001 L 313.03299999999996,631.374 L 313.29699999999997,631.471 L 313.506,631.614 L 313.395,631.8330000000001 L 313.375,631.9430000000001 L 312.91,632.0980000000001 L 312.49800000000005,632.1980000000001 L 312.31000000000006,632.4560000000001 L 311.97800000000007,632.6440000000001 L 311.00200000000007,632.9720000000001 L 311.11600000000004,633.2390000000001 L 311.13100000000003,633.3670000000002 L 311.08900000000006,633.7140000000002 L 309.74600000000004,633.2990000000002 L 309.564,633.3430000000002 L 309.923,634.0510000000002 L 309.657,634.1820000000001 L 309.394,634.0970000000001 L 309.15500000000003,634.1560000000001 L 309.00300000000004,634.6690000000001 L 308.62000000000006,634.3410000000001 L 308.29300000000006,633.8750000000001 L 308.2920000000001,633.6150000000001 L 308.60800000000006,633.1300000000001 L 308.51200000000006,632.9250000000001 L 309.24700000000007,632.268 L 309.3790000000001,632.073 L 309.60800000000006,631.962 L 309.84600000000006,631.924 L 309.94700000000006,631.84 L 309.93000000000006,631.6800000000001 L 309.83500000000004,631.408 L 309.843,630.966 L 310.432,630.367 L 310.346,629.982 L 310.537,629.967 M 306.997,630.531 L 306.612,630.531 L 306.536,630.385 L 306.537,630.015 L 306.82899999999995,629.983 L 307.114,630.137 L 307.09499999999997,630.2919999999999 L 306.997,630.531 M 306.507,630.828 L 306.913,630.913 L 307.286,630.597 L 307.543,630.496 L 307.755,630.564 L 307.904,630.755 L 308.12,630.725 L 308.731,630.53 L 308.811,630.596 L 309.029,630.369 L 309.216,630.474 L 309.36400000000003,630.672 L 309.29200000000003,630.9010000000001 L 309.12300000000005,631.047 L 309.016,631.251 L 308.891,631.415 L 308.675,631.568 L 308.509,631.812 L 308.111,632.385 L 307.531,633.119 L 307.339,633.1850000000001 L 306.939,633.229 L 306.767,633.178 L 306.62,633.195 L 306.502,633.5930000000001 L 306.319,633.8950000000001 L 306.233,633.9580000000001 L 306.043,633.9860000000001 L 305.95300000000003,634.0320000000002 L 305.88500000000005,634.1440000000001 L 305.38500000000005,634.1150000000001 L 305.03200000000004,633.9290000000001 L 304.61400000000003,633.517 L 305.172,633.013 L 305.653,633.0360000000001 L 306.05,632.6980000000001 L 306.373,632.527 L 306.501,632.354 L 306.642,632.221 L 306.643,632.048 L 306.53499999999997,631.971 L 306.38899999999995,631.979 L 306.24499999999995,632.0540000000001 L 305.9069999999999,632.152 L 305.67599999999993,631.9540000000001 L 305.8279999999999,631.8800000000001 L 305.9989999999999,631.8840000000001 L 306.52199999999993,631.6980000000001 L 306.62199999999996,631.6200000000001 L 306.46099999999996,631.3570000000001 L 306.14599999999996,631.1970000000001 L 305.89099999999996,630.9290000000001 L 305.84399999999994,630.8290000000001 L 305.8569999999999,630.6700000000001 L 305.7159999999999,630.3560000000001 L 305.8639999999999,630.3400000000001 L 306.0609999999999,630.5420000000001 L 306.507,630.828 M 304.451,632.288 L 304.65200000000004,632.35 L 304.85200000000003,632.327 L 304.73900000000003,632.793 L 304.651,633.017 L 304.414,632.999 L 304.179,632.6940000000001 L 304.097,632.532 L 304.359,632.416 L 304.451,632.288 M 311.692,633.31 L 311.709,633.7099999999999 L 311.484,633.583 L 311.404,633.389 L 311.529,633.2570000000001 L 311.632,633.267 L 311.692,633.31 M 308.201,634.315 L 308.021,634.403 L 307.971,634.364 L 307.914,634.192 L 307.911,633.97 L 307.89,633.87 L 308.002,633.902 L 308.205,634.0790000000001 L 308.201,634.315" id="FK" title="Falkland Islands"/>
</svg>
