<svg xmlns="http://www.w3.org/2000/svg" xmlns:ev="http://www.w3.org/2001/xml-events" xmlns:xlink="http://www.w3.org/1999/xlink" baseProfile="full" height="12.136993408203125" version="1.1" viewBox="863.1690063476562 435.8009948730469 69.968994140625 12.136993408203125" width="69.968994140625" fill="#00394f">
	<defs/>
	<path class="land" d="M 863.396,436.062 L 863.183,436.29200000000003 L 863.169,436.21700000000004 L 863.233,436.07900000000006 L 863.323,435.9220000000001 L 863.4069999999999,435.8280000000001 L 863.516,435.8010000000001 L 863.5939999999999,435.9310000000001 L 863.506,436.0440000000001 L 863.396,436.062 M 901.953,441.893 L 901.904,441.90799999999996 L 901.882,441.89399999999995 L 901.8929999999999,441.82199999999995 L 901.9089999999999,441.79699999999997 L 901.9549999999999,441.79499999999996 L 902.035,441.81499999999994 L 902.0409999999999,441.8329999999999 L 901.953,441.893 M 901.297,442.134 L 901.274,442.171 L 901.103,442.157 L 901.079,442.13599999999997 L 901.0939999999999,442.11999999999995 L 901.1759999999999,442.10299999999995 L 901.1859999999999,442.05199999999996 L 901.1439999999999,442.04099999999994 L 901.1799999999998,442.01399999999995 L 901.2469999999998,442.00899999999996 L 901.2849999999999,442.04099999999994 L 901.3059999999998,442.08699999999993 L 901.297,442.134 M 920.008,443.63 L 919.845,443.693 L 919.64,443.664 L 919.577,443.435 L 919.483,443.374 L 919.5039999999999,443.261 L 919.6479999999999,443.16900000000004 L 919.9529999999999,443.244 L 920.0659999999999,443.40700000000004 L 919.9939999999999,443.51500000000004 L 920.008,443.63 M 933.109,447.802 L 933.138,447.93800000000005 L 932.9590000000001,447.87200000000007 L 932.9350000000001,447.82400000000007 L 933.0390000000001,447.77600000000007 L 933.109,447.802" id="FM" title="Federated States of Micronesia"/>
</svg>
