<svg xmlns="http://www.w3.org/2000/svg" xmlns:ev="http://www.w3.org/2001/xml-events" xmlns:xlink="http://www.w3.org/1999/xlink" baseProfile="full" height="5.5989990234375" version="1.1" viewBox="454.8680114746094 238.13800048828125 2.852996826171875 5.5989990234375" width="2.852996826171875">
	<defs/>
	<path class="land" d="M 457.721,238.723 L 457.587,239.157 L 457.388,239.089 L 457.33299999999997,239.042 L 457.28999999999996,238.929 L 457.311,238.606 L 457.304,238.138 L 457.53299999999996,238.523 L 457.721,238.723 M 457.09,238.908 L 457.02,239.714 L 456.906,239.71 L 456.702,239.487 L 456.549,239.441 L 456.501,239.56 L 456.50899999999996,239.703 L 456.58799999999997,239.793 L 456.832,240.33100000000002 L 456.854,240.48800000000003 L 456.824,240.56400000000002 L 456.587,240.40900000000002 L 456.015,239.71300000000002 L 455.57,238.562 L 456.17,238.377 L 456.605,238.68 L 457.09,238.908 M 455.53,239.44 L 455.782,239.672 L 455.871,239.83599999999998 L 455.726,239.99399999999997 L 455.551,240.03499999999997 L 455.339,239.99799999999996 L 454.99,239.82699999999997 L 454.868,239.43499999999997 L 455.109,239.44399999999996 L 455.394,239.36899999999997 L 455.53,239.44 M 457.112,241.428 L 457.057,241.651 L 456.98,241.649 L 456.716,241.373 L 456.50600000000003,241.22199999999998 L 456.43600000000004,241.094 L 456.377,240.875 L 456.498,240.848 L 456.642,240.89800000000002 L 457.003,241.098 L 457.10499999999996,241.306 L 457.112,241.428 M 456.897,243.559 L 456.953,243.737 L 456.888,243.71699999999998 L 456.69899999999996,243.51399999999998 L 456.36899999999997,243.02999999999997 L 456.25399999999996,242.62899999999996 L 456.23799999999994,242.44299999999996 L 456.31999999999994,242.46399999999994 L 456.3879999999999,242.62899999999993 L 456.7009999999999,242.73699999999994 L 456.78399999999993,242.81899999999993 L 456.78299999999996,243.01999999999992 L 456.888,243.25799999999992 L 456.897,243.559" id="FO" title="Faroe Islands"/>
</svg>
