<svg xmlns="http://www.w3.org/2000/svg" xmlns:ev="http://www.w3.org/2001/xml-events" xmlns:xlink="http://www.w3.org/1999/xlink" baseProfile="full" height="39.426971435546875" version="1.1" viewBox="462.33099365234375 296.15301513671875 40.188995361328125 39.426971435546875" width="40.188995361328125">
	<defs/>
	<path class="land" d="M 483.733,297.837 L 483.9,297.788 L 484.183,297.612 L 484.419,297.55600000000004 L 484.554,297.69100000000003 L 484.63,297.76800000000003 L 484.778,298.072 L 484.82,298.388 L 484.88599999999997,298.65099999999995 L 485.006,298.75699999999995 L 485.457,298.792 L 485.79,298.88899999999995 L 485.87800000000004,298.977 L 485.992,299.55899999999997 L 486.05400000000003,299.64099999999996 L 486.13700000000006,299.573 L 486.21900000000005,299.477 L 486.333,299.462 L 486.528,299.49899999999997 L 486.785,299.51099999999997 L 487.05,299.575 L 487.416,299.90299999999996 L 487.402,300.01099999999997 L 487.33099999999996,300.2 L 487.306,300.351 L 487.36899999999997,300.412 L 487.46599999999995,300.568 L 487.4429999999999,300.748 L 487.34899999999993,300.87399999999997 L 487.3109999999999,300.97799999999995 L 487.3109999999999,301.04499999999996 L 487.34599999999995,301.10099999999994 L 487.42099999999994,301.1499999999999 L 487.96199999999993,301.2159999999999 L 488.45699999999994,301.1499999999999 L 488.76899999999995,300.9659999999999 L 488.82199999999995,300.7719999999999 L 488.90999999999997,300.55399999999986 L 489.09599999999995,300.36999999999983 L 489.22399999999993,300.3079999999998 L 489.3419999999999,300.3829999999998 L 489.14399999999995,301.1519999999998 L 489.28899999999993,301.34799999999984 L 489.30999999999995,301.6399999999998 L 489.36199999999997,301.8959999999998 L 489.539,301.8909999999998 L 489.753,301.9379999999998 L 489.905,302.0319999999998 L 490.082,302.1839999999998 L 490.337,302.3239999999998 L 490.51599999999996,302.37299999999976 L 490.58099999999996,302.48899999999975 L 490.72599999999994,302.62399999999974 L 490.95399999999995,302.9059999999997 L 491.15799999999996,303.0939999999997 L 491.25699999999995,303.0939999999997 L 491.44699999999995,303.0199999999997 L 491.7289999999999,302.9729999999997 L 491.9509999999999,302.9769999999997 L 492.04599999999994,303.11999999999966 L 492.26499999999993,303.18599999999964 L 492.3419999999999,303.23899999999963 L 492.42799999999994,303.3379999999996 L 492.57399999999996,303.37799999999964 L 492.74999999999994,303.3379999999996 L 492.87799999999993,303.20699999999965 L 493.0489999999999,303.14699999999965 L 493.22099999999995,303.16699999999963 L 493.31999999999994,303.23899999999963 L 493.5079999999999,303.34599999999966 L 493.6139999999999,303.32299999999964 L 493.82699999999994,303.3889999999996 L 494.04099999999994,303.59699999999964 L 494.1309999999999,303.80499999999967 L 494.15399999999994,303.91899999999964 L 494.2459999999999,304.04299999999967 L 494.6049999999999,304.60099999999966 L 494.7189999999999,304.62799999999964 L 494.8439999999999,304.54399999999964 L 494.9249999999999,304.42399999999964 L 495.0419999999999,304.39999999999964 L 495.2299999999999,304.4559999999996 L 495.3509999999999,304.5189999999996 L 495.4089999999999,304.7599999999996 L 495.4499999999999,304.8059999999996 L 495.5309999999999,304.75399999999956 L 495.6759999999999,304.74299999999954 L 495.9079999999999,304.80199999999957 L 496.2259999999999,304.7339999999996 L 496.4809999999999,304.6329999999996 L 496.6109999999999,304.6369999999996 L 496.82099999999986,304.9179999999996 L 497.06099999999986,305.0229999999996 L 497.5889999999999,305.1079999999996 L 498.1559999999999,305.2399999999996 L 498.3789999999999,305.34699999999964 L 498.5309999999999,305.39999999999964 L 498.5469999999999,305.7709999999996 L 498.5009999999999,305.8269999999996 L 497.9359999999999,306.5689999999996 L 497.6979999999999,306.8339999999996 L 497.57699999999994,307.2109999999996 L 497.4939999999999,307.7889999999996 L 497.32699999999994,308.3359999999996 L 497.07699999999994,308.8539999999996 L 496.98599999999993,309.24199999999956 L 497.0539999999999,309.49999999999955 L 497.0109999999999,309.9049999999995 L 496.8579999999999,310.4559999999995 L 496.8319999999999,310.8709999999995 L 496.93399999999986,311.1509999999995 L 497.0749999999999,311.2079999999995 L 496.7359999999999,311.3959999999995 L 496.6589999999999,311.5609999999995 L 496.5259999999999,311.7779999999995 L 496.3099999999999,311.8689999999995 L 496.0929999999999,311.8989999999995 L 495.9169999999999,311.87099999999947 L 495.8169999999999,311.7839999999995 L 495.8219999999999,311.70299999999946 L 495.72899999999987,311.63399999999945 L 495.4979999999999,311.63599999999946 L 495.2589999999999,311.78499999999946 L 495.0679999999999,312.0289999999995 L 495.12699999999995,312.1649999999995 L 495.30299999999994,312.2009999999995 L 495.34899999999993,312.2549999999995 L 495.34899999999993,312.3249999999995 L 495.2869999999999,312.4089999999995 L 495.2129999999999,312.5529999999995 L 494.8439999999999,312.9809999999995 L 494.47199999999987,313.41199999999947 L 494.41199999999986,313.54199999999946 L 494.29399999999987,313.63299999999947 L 493.82099999999986,313.8629999999995 L 493.7719999999999,313.9549999999995 L 493.7449999999999,314.33799999999945 L 493.6919999999999,314.6519999999995 L 493.3409999999999,314.9469999999995 L 492.9919999999999,315.2399999999995 L 492.9049999999999,315.41899999999947 L 492.8419999999999,315.62599999999946 L 492.73299999999995,315.85999999999945 L 492.71099999999996,315.98399999999947 L 492.888,316.1849999999995 L 492.86699999999996,316.3509999999995 L 492.811,316.5869999999995 L 492.644,316.75399999999945 L 492.458,316.8489999999995 L 492.46200000000005,317.10499999999945 L 492.56100000000004,317.14099999999945 L 492.785,317.12199999999945 L 493.10200000000003,316.93599999999947 L 493.309,316.69599999999946 L 493.187,316.4689999999995 L 493.172,316.4249999999995 L 493.202,316.3709999999995 L 493.447,316.12299999999954 L 493.747,315.97399999999953 L 494.166,315.9459999999995 L 494.671,316.03399999999954 L 494.721,316.0709999999995 L 494.697,316.2229999999995 L 494.744,316.4469999999995 L 494.83500000000004,316.6039999999995 L 494.71000000000004,317.04899999999947 L 494.80500000000006,317.1879999999995 L 494.95200000000006,317.35499999999945 L 495.06200000000007,317.50699999999944 L 495.2200000000001,317.64599999999945 L 495.3610000000001,317.88099999999946 L 495.4090000000001,318.01399999999944 L 495.1830000000001,318.24399999999946 L 494.8010000000001,318.45999999999947 L 494.7580000000001,318.5989999999995 L 494.7630000000001,318.75599999999946 L 494.8060000000001,318.8799999999995 L 495.0170000000001,319.0389999999995 L 495.2440000000001,319.39799999999946 L 495.3880000000001,319.71799999999945 L 495.7030000000001,320.02399999999943 L 495.7800000000001,320.11499999999944 L 495.7600000000001,320.19099999999946 L 495.6770000000001,320.32099999999946 L 495.5690000000001,320.7549999999995 L 495.44000000000005,320.82299999999947 L 495.29600000000005,320.8509999999995 L 494.90600000000006,321.1679999999995 L 494.7320000000001,321.1289999999995 L 494.48500000000007,321.1329999999995 L 494.3040000000001,321.2369999999995 L 494.32400000000007,321.4339999999995 L 494.48300000000006,321.6139999999995 L 494.5760000000001,321.80999999999955 L 494.6140000000001,322.01399999999956 L 494.7900000000001,322.16499999999957 L 495.03800000000007,322.25499999999954 L 495.18000000000006,322.2609999999995 L 495.27200000000005,322.3149999999995 L 495.32800000000003,322.3849999999995 L 495.43500000000006,322.82099999999946 L 495.37100000000004,322.92999999999944 L 495.237,322.97599999999943 L 495.15700000000004,323.1549999999994 L 494.99800000000005,323.4179999999994 L 494.9080000000001,323.6289999999994 L 495.0080000000001,323.8149999999994 L 495.05000000000007,323.95299999999935 L 494.99700000000007,324.09499999999935 L 495.0680000000001,324.3149999999994 L 495.2560000000001,324.5329999999994 L 495.7670000000001,324.8389999999994 L 496.24200000000013,325.0879999999994 L 496.3890000000001,325.1289999999994 L 497.0310000000001,324.96899999999937 L 497.1370000000001,324.9829999999994 L 497.2150000000001,325.1729999999994 L 497.2490000000001,325.30099999999936 L 497.1770000000001,325.49299999999937 L 497.0,325.764 L 496.812,325.975 L 496.69800000000004,326.154 L 496.72200000000004,326.317 L 496.72900000000004,326.533 L 496.576,326.59700000000004 L 496.571,326.55500000000006 L 496.50800000000004,326.5180000000001 L 496.45400000000006,326.5390000000001 L 496.4120000000001,326.5860000000001 L 496.4060000000001,326.66900000000015 L 496.0800000000001,326.80700000000013 L 495.8550000000001,326.9500000000001 L 494.96600000000007,327.8020000000001 L 494.55000000000007,328.0510000000001 L 494.4680000000001,328.2010000000001 L 494.3830000000001,328.48100000000005 L 494.13900000000007,328.72100000000006 L 493.92500000000007,328.83500000000004 L 493.3960000000001,328.95200000000006 L 492.8640000000001,329.2060000000001 L 492.6240000000001,329.09600000000006 L 492.0040000000001,329.10800000000006 L 491.6170000000001,328.8020000000001 L 490.87300000000005,328.60800000000006 L 490.63100000000003,328.16100000000006 L 490.29200000000003,328.13200000000006 L 490.07000000000005,328.1460000000001 L 489.93700000000007,328.0780000000001 L 489.9030000000001,327.92500000000007 L 489.9000000000001,327.7780000000001 L 489.6650000000001,327.84600000000006 L 489.48500000000007,327.84600000000006 L 489.37800000000004,327.9050000000001 L 489.29400000000004,327.97300000000007 L 489.194,327.93000000000006 L 489.136,327.94500000000005 L 489.141,328.03100000000006 L 488.925,328.05300000000005 L 488.69,328.0 L 488.075,327.769 L 487.981,327.733 L 487.554,327.644 L 487.38199999999995,327.551 L 487.24199999999996,327.322 L 487.13599999999997,327.25 L 487.073,327.207 L 486.67499999999995,327.323 L 486.537,327.503 L 486.322,327.714 L 484.846,328.746 L 484.576,329.17699999999996 L 484.264,329.80999999999995 L 484.24,330.10499999999996 L 484.374,331.04499999999996 L 484.67400000000004,331.537 L 484.71200000000005,331.65099999999995 L 484.5450000000001,331.65199999999993 L 484.2660000000001,331.5899999999999 L 484.0350000000001,331.5139999999999 L 483.8140000000001,331.55599999999987 L 483.6020000000001,331.65799999999984 L 483.4160000000001,331.71999999999986 L 483.2820000000001,331.73699999999985 L 483.1930000000001,331.7959999999999 L 483.1500000000001,331.9129999999999 L 483.1420000000001,331.9949999999999 L 482.9070000000001,331.9749999999999 L 482.3640000000001,331.8069999999999 L 481.8760000000001,331.6909999999999 L 481.5890000000001,331.8229999999999 L 481.4050000000001,331.9459999999999 L 481.27600000000007,331.9269999999999 L 481.1770000000001,331.7969999999999 L 481.1110000000001,331.6699999999999 L 480.92000000000013,331.5529999999999 L 480.4880000000001,331.3779999999999 L 480.5100000000001,331.29399999999987 L 480.5840000000001,331.1759999999999 L 480.5820000000001,331.1029999999999 L 480.4990000000001,330.9949999999999 L 480.10100000000006,330.8789999999999 L 479.91300000000007,330.8499999999999 L 479.79400000000004,330.9299999999999 L 479.708,331.0279999999999 L 479.487,330.6679999999999 L 479.329,330.5939999999999 L 479.091,330.5819999999999 L 478.818,330.47199999999987 L 478.534,330.33099999999985 L 477.84499999999997,330.1059999999998 L 477.65599999999995,330.07899999999984 L 477.5799999999999,330.11499999999984 L 477.52899999999994,330.24999999999983 L 477.50199999999995,330.6299999999998 L 477.47299999999996,330.6719999999998 L 477.15299999999996,330.6849999999998 L 476.75899999999996,330.6319999999998 L 476.578,330.6579999999998 L 476.417,330.65899999999976 L 476.265,330.55799999999977 L 475.584,330.6729999999998 L 475.471,330.6169999999998 L 475.307,330.4459999999998 L 475.123,330.3069999999998 L 474.981,330.23599999999976 L 474.859,330.15399999999977 L 474.74899999999997,330.1409999999998 L 474.58099999999996,330.2199999999998 L 474.34899999999993,330.2539999999998 L 474.1569999999999,330.2439999999998 L 474.0539999999999,330.2549999999998 L 473.6219999999999,329.8329999999998 L 473.5589999999999,329.7179999999998 L 473.34399999999994,329.6859999999998 L 473.0779999999999,329.6809999999998 L 472.3999999999999,329.4069999999998 L 472.0909999999999,329.2599999999998 L 472.0459999999999,329.1719999999998 L 472.0499999999999,329.1009999999998 L 471.9969999999999,329.1169999999998 L 471.9019999999999,329.2419999999998 L 471.85199999999986,329.34399999999977 L 471.7859999999999,329.3629999999998 L 471.6889999999999,329.34699999999975 L 471.59899999999993,329.28899999999976 L 471.5439999999999,329.21499999999975 L 471.60299999999995,329.08599999999973 L 471.70699999999994,328.91699999999975 L 471.74999999999994,328.7329999999997 L 471.73999999999995,328.5679999999997 L 471.56899999999996,328.4619999999997 L 471.31699999999995,328.4179999999997 L 471.13199999999995,328.40499999999975 L 470.89199999999994,328.31099999999975 L 470.77799999999996,328.24299999999977 L 470.66799999999995,328.05899999999974 L 470.66399999999993,327.9249999999997 L 471.1209999999999,327.80699999999973 L 471.5319999999999,327.3219999999997 L 471.9219999999999,325.55399999999975 L 472.2039999999999,323.44499999999977 L 472.4129999999999,323.0449999999998 L 472.6769999999999,322.9349999999998 L 472.4639999999999,322.6429999999998 L 472.3309999999999,322.7909999999998 L 472.2749999999999,322.9479999999998 L 472.2049999999999,323.0269999999998 L 472.3619999999999,321.07199999999983 L 472.47399999999993,320.3519999999998 L 472.6649999999999,319.59599999999983 L 473.0559999999999,319.89599999999984 L 473.37999999999994,320.20099999999985 L 473.5469999999999,320.46499999999986 L 473.7589999999999,321.34099999999984 L 473.9199999999999,321.52499999999986 L 474.1599999999999,321.7089999999999 L 474.0649999999999,321.50799999999987 L 473.89999999999986,321.35399999999987 L 473.6419999999999,320.1849999999999 L 473.4799999999999,319.85199999999986 L 473.2279999999999,319.5719999999999 L 472.4159999999999,318.9809999999999 L 472.3429999999999,318.8659999999999 L 472.3029999999999,318.6399999999999 L 472.5719999999999,318.64999999999986 L 472.8039999999999,318.7599999999999 L 472.77699999999993,318.6339999999999 L 472.7079999999999,318.5019999999999 L 472.5999999999999,318.0209999999999 L 472.50999999999993,316.8939999999999 L 472.52199999999993,316.7009999999999 L 472.4819999999999,316.4629999999999 L 472.2219999999999,316.4099999999999 L 472.0139999999999,316.4009999999999 L 471.7899999999999,316.3069999999999 L 470.6839999999999,315.6389999999999 L 470.3059999999999,314.9469999999999 L 469.9189999999999,314.4349999999999 L 469.8259999999999,314.2109999999999 L 469.8319999999999,313.9839999999999 L 470.0329999999999,313.5039999999999 L 469.8559999999999,313.19999999999993 L 469.6829999999999,313.13999999999993 L 469.5329999999999,312.9889999999999 L 469.6689999999999,312.73799999999994 L 469.7819999999999,312.57699999999994 L 470.0089999999999,312.53399999999993 L 470.3059999999999,312.58699999999993 L 470.5879999999999,312.73299999999995 L 470.8089999999999,312.77199999999993 L 470.1559999999999,312.3809999999999 L 469.0959999999999,312.5129999999999 L 468.8669999999999,312.4629999999999 L 468.6749999999999,312.3759999999999 L 468.5989999999999,312.0879999999999 L 468.7499999999999,311.9589999999999 L 468.8859999999999,311.7189999999999 L 468.7319999999999,311.5509999999999 L 468.5319999999999,311.48699999999985 L 468.2179999999999,311.48999999999984 L 467.9249999999999,311.5409999999998 L 467.8509999999999,311.44399999999985 L 468.02999999999986,311.1759999999999 L 467.8779999999999,311.07799999999986 L 467.6749999999999,311.12399999999985 L 467.3809999999999,311.17899999999986 L 467.0999999999999,311.09499999999986 L 466.8339999999999,310.78999999999985 L 466.6579999999999,310.79199999999986 L 466.5369999999999,310.82999999999987 L 466.35799999999995,310.7119999999999 L 466.1689999999999,310.6829999999999 L 466.03399999999993,310.72199999999987 L 465.85499999999996,310.54699999999985 L 464.751,310.1949999999999 L 464.275,310.1519999999999 L 463.83799999999997,310.31099999999986 L 463.597,310.25599999999986 L 463.41999999999996,310.02799999999985 L 463.27199999999993,309.64599999999984 L 462.5679999999999,309.35099999999983 L 462.70699999999994,309.1569999999998 L 463.0349999999999,309.1109999999998 L 463.4119999999999,308.9769999999998 L 463.54799999999994,308.8039999999998 L 463.25299999999993,308.6029999999998 L 463.0349999999999,308.55299999999977 L 462.94499999999994,308.48099999999977 L 462.85299999999995,308.2999999999998 L 462.98299999999995,308.21699999999976 L 463.07499999999993,308.26099999999974 L 463.34099999999995,308.28699999999975 L 463.79499999999996,308.24299999999977 L 463.626,308.0599999999998 L 463.45,308.0189999999998 L 463.36899999999997,307.9729999999998 L 462.99899999999997,307.9529999999998 L 462.83099999999996,308.0159999999998 L 462.453,307.9919999999998 L 462.371,307.7949999999998 L 462.33099999999996,307.6249999999998 L 462.448,307.2469999999998 L 462.97999999999996,306.9079999999998 L 464.306,306.5369999999998 L 464.876,306.5909999999998 L 465.27099999999996,306.5239999999998 L 465.74499999999995,306.2899999999998 L 465.95399999999995,306.08899999999977 L 466.62799999999993,305.9709999999998 L 467.2679999999999,306.1839999999998 L 467.8579999999999,306.9879999999998 L 468.1399999999999,307.25999999999976 L 468.83099999999985,306.7879999999998 L 469.85999999999984,306.8019999999998 L 470.07199999999983,307.0679999999998 L 470.15799999999984,306.8439999999998 L 470.34699999999987,306.58099999999985 L 470.4979999999999,306.70099999999985 L 470.5749999999999,306.86399999999986 L 471.6609999999999,306.81799999999987 L 471.8319999999999,306.77099999999984 L 471.5399999999999,306.57999999999987 L 471.3019999999999,306.12199999999984 L 471.2519999999999,304.42899999999986 L 470.9509999999999,303.95399999999984 L 470.6059999999999,303.1929999999998 L 470.4469999999999,302.73999999999984 L 470.4319999999999,302.58299999999986 L 470.4849999999999,302.3559999999999 L 470.9089999999999,302.3679999999999 L 471.23699999999985,302.4259999999999 L 471.86199999999985,302.2549999999999 L 472.16199999999986,302.3719999999999 L 472.1439999999999,302.7259999999999 L 472.2359999999999,303.1719999999999 L 472.33999999999986,303.3879999999999 L 472.49899999999985,303.6329999999999 L 473.00199999999984,303.61099999999993 L 473.54499999999985,303.75499999999994 L 474.23199999999986,303.77699999999993 L 475.23499999999984,304.0249999999999 L 475.66199999999986,303.8809999999999 L 476.07599999999985,303.5739999999999 L 476.86399999999986,303.3719999999999 L 476.92699999999985,303.2659999999999 L 476.47299999999984,303.3079999999999 L 476.05699999999985,303.1129999999999 L 476.00099999999986,302.9019999999999 L 476.04899999999986,302.7119999999999 L 476.21799999999985,302.2739999999999 L 477.42399999999986,301.5809999999999 L 478.28799999999984,301.3759999999999 L 479.1899999999998,300.99299999999994 L 479.64399999999983,300.59999999999997 L 479.94399999999985,300.09099999999995 L 480.0409999999998,299.9789999999999 L 480.1659999999998,299.88499999999993 L 480.04999999999984,299.70199999999994 L 480.1279999999998,297.74199999999996 L 480.2119999999998,297.38699999999994 L 480.3879999999998,297.09599999999995 L 480.6559999999998,296.8709999999999 L 481.0619999999998,296.6269999999999 L 482.5589999999998,296.2899999999999 L 482.7809999999998,296.1529999999999 L 482.8119999999998,296.3649999999999 L 482.92099999999976,296.6359999999999 L 482.99599999999975,296.78399999999993 L 482.93299999999977,296.9769999999999 L 482.98199999999974,297.1359999999999 L 483.1849999999997,297.4219999999999 L 483.4379999999997,297.6909999999999 L 483.6639999999997,297.86299999999994 L 483.733,297.837 M 472.393,318.103 L 472.294,318.455 L 472.106,318.131 L 471.858,317.847 L 471.801,317.584 L 471.801,317.514 L 472.092,317.706 L 472.393,318.103 M 502.306,330.228 L 502.233,330.78700000000003 L 502.286,330.95000000000005 L 502.388,331.064 L 502.435,331.189 L 502.52,332.67100000000005 L 502.50399999999996,332.78900000000004 L 502.16099999999994,333.38200000000006 L 502.08399999999995,333.55500000000006 L 502.06699999999995,334.2870000000001 L 502.00899999999996,334.4830000000001 L 501.88699999999994,334.6760000000001 L 501.66999999999996,335.3000000000001 L 501.48199999999997,335.5800000000001 L 500.96799999999996,335.2380000000001 L 500.66499999999996,335.0900000000001 L 500.51699999999994,334.9310000000001 L 500.41999999999996,334.8210000000001 L 500.48299999999995,334.6740000000001 L 500.6209999999999,334.5210000000001 L 500.6429999999999,334.4000000000001 L 500.3179999999999,334.26400000000007 L 500.1689999999999,334.17300000000006 L 500.17099999999994,334.01300000000003 L 500.28299999999996,333.764 L 500.23199999999997,333.558 L 500.044,333.568 L 499.89799999999997,333.537 L 499.87899999999996,333.42999999999995 L 499.986,333.29299999999995 L 500.12399999999997,333.114 L 500.11999999999995,332.916 L 499.953,332.831 L 499.80199999999996,332.67 L 499.741,332.451 L 499.858,332.30100000000004 L 500.048,332.20500000000004 L 499.908,331.98 L 499.814,331.975 L 499.73900000000003,331.92600000000004 L 499.80100000000004,331.82200000000006 L 499.94800000000004,331.66600000000005 L 500.153,331.19900000000007 L 500.43800000000005,330.97800000000007 L 500.944,330.83600000000007 L 501.081,330.7730000000001 L 501.206,330.60800000000006 L 501.345,330.50200000000007 L 501.514,330.5160000000001 L 501.67,330.57900000000006 L 501.766,330.64700000000005 L 501.838,330.576 L 501.908,330.37100000000004 L 501.865,330.19100000000003 L 501.887,329.696 L 501.977,329.415 L 502.123,329.399 L 502.257,329.554 L 502.25100000000003,329.691 L 502.30100000000004,330.015 L 502.306,330.228" id="FR" title="France"/>
</svg>
