<svg xmlns="http://www.w3.org/2000/svg" xmlns:ev="http://www.w3.org/2001/xml-events" xmlns:xlink="http://www.w3.org/1999/xlink" baseProfile="full" height="17.345977783203125" version="1.1" viewBox="500.125 456.2510070800781 16.2139892578125 17.345977783203125" width="16.2139892578125" fill="#00394f">
	<defs/>
	<path class="land" d="M 513.008,456.643 L 512.994,456.838 L 512.771,457.316 L 512.667,457.684 L 512.641,458.075 L 512.702,458.391 L 512.809,458.615 L 512.878,458.86 L 512.825,459.031 L 512.717,459.104 L 512.791,459.19 L 512.953,459.21 L 513.229,459.136 L 513.653,459.005 L 514.208,458.816 L 514.573,458.715 L 515.176,458.779 L 515.498,458.851 L 515.663,458.983 L 515.841,459.545 L 515.929,459.631 L 516.075,459.87 L 516.197,460.157 L 516.223,460.303 L 516.209,460.408 L 516.087,460.563 L 515.949,460.792 L 515.9,460.93 L 515.785,461.033 L 515.639,461.134 L 515.236,461.175 L 515.174,461.235 L 515.062,461.478 L 514.849,461.684 L 514.752,461.879 L 514.667,462.139 L 514.684,462.46 L 514.641,462.923 L 514.598,463.237 L 514.704,463.347 L 515.186,463.423 L 515.279,463.485 L 515.407,463.679 L 515.571,463.862 L 516.011,463.977 L 516.182,464.116 L 516.321,464.269 L 516.339,464.394 L 516.239,464.897 L 516.143,465.38 L 516.181,465.748 L 516.216,466.099 L 516.269,466.61 L 516.246,466.922 L 516.121,467.113 L 516.121,467.262 L 516.178,467.442 L 516.068,467.94 L 515.997,468.024 L 515.8,468.117 L 515.696,468.251 L 515.663,468.461 L 515.557,468.749 L 515.447,468.854 L 515.447,468.988 L 515.553,469.085 L 515.551,469.235 L 515.354,469.413 L 515.236,469.549 L 514.973,469.616 L 514.673,469.545 L 514.603,469.446 L 514.675,469.292 L 514.649,469.168 L 514.546,469.038 L 514.385,468.704 L 514.243,468.633 L 514.164,468.77 L 513.92,469.024 L 513.489,469.35 L 513.187,469.376 L 512.629,469.277 L 512.162,469.121 L 511.941,468.739 L 511.804,468.423 L 511.604,468.057 L 511.38,467.883 L 511.141,467.771 L 511.035,467.764 L 510.693,467.968 L 510.59,468.049 L 510.591,468.22 L 510.623,468.38 L 510.676,468.457 L 510.72,468.56 L 510.712,468.719 L 510.651,468.932 L 510.63,469.167 L 509.558,469.398 L 509.373,469.315 L 509.238,469.209 L 509.076,469.228 L 508.61,469.348 L 508.439,469.264 L 508.27,469.203 L 508.192,469.254 L 508.186,469.354 L 508.265,469.908 L 508.239,470.119 L 508.135,470.395 L 508.08,470.582 L 508.365,470.634 L 508.467,470.721 L 508.567,470.86 L 508.704,470.99 L 508.713,471.069 L 508.558,471.214 L 508.505,471.392 L 508.579,471.531 L 508.772,471.677 L 509.055,471.828 L 509.193,471.927 L 509.179,472.018 L 509.048,472.21 L 508.998,472.374 L 508.908,472.521 L 508.927,472.657 L 509.054,472.784 L 509.041,472.897 L 508.954,472.983 L 508.778,472.965 L 508.629,472.977 L 508.496,472.942 L 508.078,472.503 L 507.986,472.49 L 507.38,472.828 L 507.229,472.966 L 507.104,473.166 L 506.936,473.597 L 506.661,473.346 L 506.423,472.887 L 506.146,472.604 L 505.563,472.149 L 505.407,471.813 L 504.74,471.074 L 503.782,470.335 L 503.089,469.694 L 502.984,469.552 L 503.101,469.569 L 503.77,469.889 L 503.861,469.853 L 503.938,469.781 L 503.65,469.613 L 503.374,469.481 L 503.115,469.399 L 502.856,469.406 L 502.711,469.271 L 502.617,469.065 L 502.569,468.889 L 502.454,468.704 L 502.087,468.324 L 501.998,468.177 L 501.797,467.977 L 501.919,467.95 L 502.313,468.142 L 502.348,468.065 L 502.314,467.953 L 501.918,467.771 L 501.704,467.759 L 501.654,467.631 L 501.683,467.483 L 501.4,466.93 L 501.106,466.515 L 501.06,466.319 L 501.853,467.221 L 501.959,467.236 L 502.099,467.228 L 502.427,467.127 L 502.364,467.006 L 502.216,466.877 L 502.073,466.937 L 501.886,466.949 L 501.788,466.895 L 501.744,466.802 L 501.931,466.364 L 501.85,466.387 L 501.791,466.464 L 501.688,466.502 L 501.53,466.524 L 501.139,466.29 L 500.795,465.658 L 500.704,465.528 L 500.612,465.308 L 500.521,465.217 L 500.125,464.318 L 500.276,464.385 L 500.457,464.645 L 500.808,464.59 L 500.945,464.44 L 501.064,464.445 L 501.187,464.411 L 501.341,464.269 L 501.791,463.649 L 501.91,462.833 L 501.871,462.348 L 501.805,461.866 L 501.954,461.712 L 502.013,461.814 L 502.042,461.985 L 502.112,462.112 L 502.272,462.225 L 502.57,462.255 L 503.03,462.434 L 503.194,462.547 L 503.239,462.32 L 503.769,462.127 L 503.608,462.058 L 503.138,462.134 L 502.492,461.845 L 502.277,461.662 L 502.077,461.313 L 501.87,461.131 L 501.884,460.968 L 502.348,460.817 L 502.471,460.834 L 502.52,461.014 L 502.645,461.088 L 502.692,461.063 L 502.713,460.91 L 502.714,460.498 L 502.573,459.907 L 502.616,459.793 L 502.743,459.752 L 502.856,459.674 L 502.935,459.66 L 503.092,459.674 L 503.171,459.811 L 503.214,459.886 L 503.373,459.921 L 503.503,459.994 L 503.615,459.974 L 503.708,459.889 L 503.844,459.871 L 504.267,459.873 L 504.65,459.874 L 505.412,459.876 L 506.175,459.879 L 506.938,459.881 L 507.512,459.883 L 507.51,459.546 L 507.507,459.025 L 507.504,458.409 L 507.5,457.818 L 507.497,457.272 L 507.494,456.627 L 507.525,456.441 L 507.563,456.365 L 507.549,456.258 L 508.14,456.251 L 509.208,456.298 L 509.675,456.292 L 509.808,456.301 L 510.392,456.268 L 510.864,456.309 L 511.065,456.354 L 511.246,456.377 L 511.812,456.405 L 512.551,456.37 L 512.802,456.378 L 512.941,456.468 L 513.008,456.643" id="GA" title="Gabon"/>
</svg>
