<svg xmlns="http://www.w3.org/2000/svg" xmlns:ev="http://www.w3.org/2001/xml-events" xmlns:xlink="http://www.w3.org/1999/xlink" baseProfile="full" height="53.769989013671875" version="1.1" viewBox="452.8380126953125 247.11599731445312 27.764984130859375 53.769989013671875" width="27.764984130859375" fill="#00394f">
	<defs/>
	<path class="land" d="M 472.709,297.951 L 472.474,298.103 L 472.4,298.282 L 472.34299999999996,298.352 L 472.188,298.39799999999997 L 472.034,298.39899999999994 L 471.448,298.04099999999994 L 471.313,298.05699999999996 L 471.447,297.893 L 471.811,297.75899999999996 L 472.01599999999996,297.58199999999994 L 472.489,297.75299999999993 L 472.709,297.951 M 463.921,285.981 L 464.039,286.068 L 464.335,286.054 L 464.23699999999997,286.248 L 463.91099999999994,286.464 L 463.69199999999995,286.677 L 463.42699999999996,286.855 L 463.299,286.65000000000003 L 463.15,286.658 L 462.92199999999997,286.264 L 462.881,285.67400000000004 L 463.179,285.52000000000004 L 463.59099999999995,285.52900000000005 L 463.921,285.981 M 457.808,276.769 L 458.204,276.892 L 458.499,276.89 L 458.761,277.247 L 458.901,277.809 L 459.228,278.363 L 459.656,278.843 L 459.673,279.136 L 459.52,279.293 L 459.20099999999996,279.488 L 459.20199999999994,279.697 L 459.41299999999995,279.592 L 459.59499999999997,279.544 L 460.03299999999996,279.59 L 460.186,279.80199999999996 L 460.292,280.11899999999997 L 460.34799999999996,280.37899999999996 L 460.30999999999995,280.66099999999994 L 460.19199999999995,280.57099999999997 L 460.07199999999995,280.31899999999996 L 459.93899999999996,280.203 L 459.784,280.14 L 459.854,280.48699999999997 L 459.82599999999996,280.95 L 459.893,280.993 L 460.101,281.001 L 459.964,281.47299999999996 L 459.679,281.60099999999994 L 459.34799999999996,281.64899999999994 L 459.268,281.8159999999999 L 459.20799999999997,282.0309999999999 L 459.03499999999997,282.3509999999999 L 458.80699999999996,282.53199999999987 L 458.525,282.4949999999999 L 458.24899999999997,282.3519999999999 L 458.008,282.3229999999999 L 457.84,282.4079999999999 L 457.731,282.4869999999999 L 457.625,282.4729999999999 L 457.322,282.5029999999999 L 457.037,282.4969999999999 L 456.996,282.3719999999999 L 457.04499999999996,281.9959999999999 L 456.98099999999994,281.89399999999995 L 456.70899999999995,281.8419999999999 L 456.60799999999995,281.75199999999995 L 456.45099999999996,281.49199999999996 L 456.41999999999996,281.36999999999995 L 456.39799999999997,281.20199999999994 L 456.23199999999997,280.98499999999996 L 456.03099999999995,280.82899999999995 L 455.91299999999995,280.82099999999997 L 455.67799999999994,281.075 L 455.4839999999999,281.332 L 455.5519999999999,281.461 L 455.6149999999999,281.63 L 455.5099999999999,281.752 L 455.19099999999986,282.03000000000003 L 455.14099999999985,282.13800000000003 L 455.05499999999984,282.19700000000006 L 454.90299999999985,282.12000000000006 L 454.52399999999983,282.13800000000003 L 454.34999999999985,282.08900000000006 L 454.1469999999999,281.88400000000007 L 453.6519999999999,281.74700000000007 L 453.56899999999985,281.41800000000006 L 453.4739999999998,281.35600000000005 L 452.91299999999984,280.79100000000005 L 452.83799999999985,280.60200000000003 L 452.91099999999983,280.48900000000003 L 453.11999999999983,280.31800000000004 L 453.8229999999998,280.03400000000005 L 453.9339999999998,279.9200000000001 L 453.9569999999998,279.8190000000001 L 453.74999999999983,279.70400000000006 L 453.56399999999985,279.5760000000001 L 453.50099999999986,279.49300000000005 L 453.49599999999987,279.4200000000001 L 453.60199999999986,279.32500000000005 L 453.81399999999985,279.31800000000004 L 453.98199999999986,279.36100000000005 L 454.11499999999984,279.27600000000007 L 454.3489999999998,279.19000000000005 L 454.5059999999998,279.08200000000005 L 454.6409999999998,278.80300000000005 L 454.78399999999976,278.5520000000001 L 454.79899999999975,278.41600000000005 L 454.92399999999975,277.93700000000007 L 454.99299999999977,277.81800000000004 L 455.4369999999998,277.504 L 455.5489999999998,277.67600000000004 L 455.7679999999998,277.718 L 455.9639999999998,277.56 L 456.19899999999984,277.061 L 456.36199999999985,277.03 L 456.54199999999986,277.07099999999997 L 456.89599999999984,277.008 L 457.52399999999983,276.775 L 457.808,276.769 M 461.371,275.749 L 461.017,275.75300000000004 L 460.889,275.71000000000004 L 460.736,275.59000000000003 L 460.56399999999996,274.91 L 460.626,274.66900000000004 L 460.69599999999997,274.55100000000004 L 460.77399999999994,274.45900000000006 L 460.96099999999996,274.42100000000005 L 461.14699999999993,274.55000000000007 L 461.2169999999999,274.6700000000001 L 461.37299999999993,275.13000000000005 L 461.40199999999993,275.52400000000006 L 461.371,275.749 M 458.499,273.355 L 458.6,273.99600000000004 L 458.699,274.39200000000005 L 458.706,274.52700000000004 L 458.613,274.71500000000003 L 458.15,274.96500000000003 L 458.00399999999996,274.966 L 457.998,274.90500000000003 L 458.102,274.651 L 458.012,274.362 L 458.056,274.142 L 458.013,274.102 L 457.923,274.133 L 457.591,274.48199999999997 L 457.48,274.51599999999996 L 457.468,274.44499999999994 L 457.55,274.15899999999993 L 457.56,273.9629999999999 L 457.609,273.8429999999999 L 457.69899999999996,273.7319999999999 L 457.806,273.6489999999999 L 457.893,273.6369999999999 L 457.98499999999996,273.7229999999999 L 458.25299999999993,273.4829999999999 L 458.499,273.355 M 458.945,273.935 L 458.88599999999997,273.988 L 458.74399999999997,273.973 L 458.691,273.892 L 458.662,273.768 L 458.659,273.541 L 458.745,273.378 L 459.109,273.132 L 458.94399999999996,273.045 L 458.938,272.983 L 459.032,272.778 L 459.423,272.459 L 459.528,272.401 L 459.632,272.41 L 459.43,272.976 L 458.945,273.935 M 459.484,271.276 L 458.366,271.557 L 457.981,271.53200000000004 L 457.94599999999997,271.39400000000006 L 458.02299999999997,271.3020000000001 L 458.342,271.2130000000001 L 458.471,270.53600000000006 L 457.989,270.22300000000007 L 457.964,270.1360000000001 L 458.002,269.9870000000001 L 458.058,269.9200000000001 L 458.34999999999997,269.76200000000006 L 458.47299999999996,269.72700000000003 L 458.573,269.74800000000005 L 458.779,269.93100000000004 L 459.011,270.314 L 459.322,270.375 L 459.533,270.537 L 459.484,271.276 M 457.155,270.056 L 456.996,270.084 L 456.984,270.012 L 457.26099999999997,269.668 L 457.43999999999994,269.611 L 457.50299999999993,269.645 L 457.37299999999993,269.84499999999997 L 457.155,270.056 M 454.884,268.111 L 454.637,268.181 L 454.546,268.14 L 454.53,268.075 L 454.58599999999996,267.89799999999997 L 454.775,267.835 L 454.912,267.931 L 454.93399999999997,268.018 L 454.884,268.111 M 458.078,268.115 L 457.99499999999995,268.181 L 457.88999999999993,268.168 L 457.78599999999994,268.083 L 457.64799999999997,267.841 L 457.95799999999997,267.673 L 458.082,267.772 L 458.129,267.885 L 458.13100000000003,268.01 L 458.078,268.115 M 455.353,267.339 L 455.234,267.368 L 455.079,267.34 L 454.983,267.26 L 454.886,266.943 L 454.86800000000005,266.751 L 454.91100000000006,266.393 L 454.90100000000007,265.964 L 455.22100000000006,265.951 L 455.3040000000001,266.01300000000003 L 455.3590000000001,267.28400000000005 L 455.353,267.339 M 458.455,265.319 L 458.45099999999996,265.54900000000004 L 458.40099999999995,265.82000000000005 L 458.465,266.107 L 458.47999999999996,266.312 L 458.59799999999996,266.377 L 458.66999999999996,266.471 L 459.19599999999997,266.576 L 459.68499999999995,266.54600000000005 L 459.77899999999994,266.63000000000005 L 459.78999999999996,266.76400000000007 L 459.71299999999997,266.91100000000006 L 459.43399999999997,267.17900000000003 L 459.102,267.612 L 459.003,267.702 L 458.89599999999996,267.706 L 458.81899999999996,267.66700000000003 L 458.76399999999995,266.89700000000005 L 458.40399999999994,266.99600000000004 L 458.1139999999999,266.985 L 457.9549999999999,266.891 L 457.84399999999994,266.71000000000004 L 457.6189999999999,266.244 L 456.9649999999999,266.06 L 456.7799999999999,265.802 L 456.72399999999993,265.646 L 456.74699999999996,265.56 L 456.883,265.368 L 457.053,265.436 L 457.158,265.394 L 457.22200000000004,265.308 L 457.22100000000006,265.23699999999997 L 457.13200000000006,265.07 L 457.12800000000004,265.018 L 457.797,264.806 L 457.85600000000005,264.474 L 458.00100000000003,264.447 L 458.16700000000003,264.556 L 458.394,264.901 L 458.455,265.319 M 455.477,264.389 L 455.794,264.683 L 455.542,265.171 L 455.155,265.169 L 454.60999999999996,264.813 L 454.60799999999995,264.74 L 454.65299999999996,264.633 L 454.73499999999996,264.548 L 454.81999999999994,264.528 L 454.9549999999999,264.586 L 455.1429999999999,264.492 L 455.2929999999999,264.522 L 455.477,264.389 M 458.303,260.79 L 457.94599999999997,261.719 L 457.806,261.742 L 457.683,261.97400000000005 L 457.303,262.22900000000004 L 457.635,262.23400000000004 L 457.728,262.319 L 457.73,262.502 L 457.66700000000003,262.608 L 457.23800000000006,263.03000000000003 L 456.94300000000004,263.19000000000005 L 456.62500000000006,263.63000000000005 L 456.46400000000006,263.63500000000005 L 456.30500000000006,263.91400000000004 L 456.17500000000007,264.03700000000003 L 456.10100000000006,264.03700000000003 L 456.01700000000005,263.975 L 455.82000000000005,263.702 L 456.17800000000005,263.433 L 456.21100000000007,263.282 L 456.4560000000001,263.12399999999997 L 456.43500000000006,263.075 L 456.04600000000005,262.853 L 455.89300000000003,262.704 L 455.90700000000004,262.62600000000003 L 456.09400000000005,262.454 L 456.00600000000003,262.432 L 455.946,262.339 L 455.838,262.303 L 455.805,262.217 L 455.785,261.989 L 455.814,261.756 L 455.927,261.65299999999996 L 455.973,261.54299999999995 L 456.019,261.50899999999996 L 456.194,261.568 L 456.372,261.755 L 456.58000000000004,261.683 L 456.821,261.718 L 456.826,261.675 L 456.649,261.216 L 456.681,261.122 L 456.777,261.015 L 457.33299999999997,260.686 L 458.02599999999995,260.132 L 458.19399999999996,260.045 L 458.24499999999995,260.12100000000004 L 458.31499999999994,260.408 L 458.303,260.79 M 466.972,259.975 L 466.996,260.413 L 466.96299999999997,260.546 L 466.89599999999996,260.71 L 466.68399999999997,261.015 L 466.126,261.45 L 465.10499999999996,262.44599999999997 L 464.501,262.938 L 464.41799999999995,263.174 L 464.37299999999993,263.50199999999995 L 464.7339999999999,263.56699999999995 L 464.8739999999999,263.67799999999994 L 464.7879999999999,263.84399999999994 L 464.2529999999999,264.42099999999994 L 464.0959999999999,264.9409999999999 L 464.5059999999999,264.9219999999999 L 464.84399999999994,264.8219999999999 L 465.51699999999994,264.4979999999999 L 466.1499999999999,264.2569999999999 L 466.4539999999999,264.2469999999999 L 467.0449999999999,264.4389999999999 L 467.1789999999999,264.4449999999999 L 467.4299999999999,264.3559999999999 L 467.6839999999999,264.33999999999986 L 469.40199999999993,264.39999999999986 L 469.87999999999994,264.28699999999986 L 470.1959999999999,264.42199999999985 L 470.4599999999999,264.75799999999987 L 470.7109999999999,265.3769999999999 L 470.7029999999999,265.4799999999999 L 470.55099999999993,265.7609999999999 L 470.27099999999996,266.1129999999999 L 470.03,266.59699999999987 L 469.96,266.85699999999986 L 469.91299999999995,267.1419999999999 L 469.83699999999993,267.40499999999986 L 469.35799999999995,268.6349999999999 L 468.89099999999996,269.3129999999999 L 468.68299999999994,269.7929999999999 L 468.42599999999993,270.17399999999986 L 468.17799999999994,270.4139999999999 L 467.91399999999993,270.5739999999999 L 467.1499999999999,270.7439999999999 L 466.9359999999999,270.86599999999993 L 466.6809999999999,271.07499999999993 L 466.41299999999995,271.1789999999999 L 466.727,271.16599999999994 L 467.03799999999995,271.04999999999995 L 467.60499999999996,271.008 L 468.25699999999995,271.40799999999996 L 468.19599999999997,271.73499999999996 L 467.93399999999997,271.99299999999994 L 467.33799999999997,272.03399999999993 L 466.78099999999995,272.6069999999999 L 466.53,272.7829999999999 L 466.26399999999995,272.8699999999999 L 465.93199999999996,272.8439999999999 L 465.32899999999995,272.69099999999986 L 465.06499999999994,272.53099999999984 L 465.30299999999994,272.79199999999986 L 465.57399999999996,272.9279999999999 L 467.143,273.2489999999999 L 467.238,273.2149999999999 L 467.738,272.8769999999999 L 468.405,272.8719999999999 L 469.674,273.4939999999999 L 470.039,273.96899999999994 L 470.563,274.64599999999996 L 470.848,274.90999999999997 L 471.05400000000003,275.14899999999994 L 471.18100000000004,275.506 L 471.427,276.68199999999996 L 471.708,277.82399999999996 L 472.07500000000005,279.054 L 472.242,279.39399999999995 L 472.461,279.63199999999995 L 473.569,280.17799999999994 L 473.81600000000003,280.3589999999999 L 474.24600000000004,280.8829999999999 L 474.66100000000006,281.43999999999994 L 475.0470000000001,281.86699999999996 L 475.46400000000006,282.212 L 475.26200000000006,282.39099999999996 L 475.1240000000001,282.67199999999997 L 475.22800000000007,283.05299999999994 L 475.39700000000005,283.41599999999994 L 475.7300000000001,283.9959999999999 L 476.02400000000006,284.6269999999999 L 475.91600000000005,284.53199999999987 L 475.8020000000001,284.47999999999985 L 475.6460000000001,284.49599999999987 L 475.4940000000001,284.4659999999999 L 475.2130000000001,284.2679999999999 L 474.9430000000001,284.0249999999999 L 474.4060000000001,284.12299999999993 L 474.1080000000001,284.07899999999995 L 473.8490000000001,284.08599999999996 L 474.3400000000001,284.22599999999994 L 474.87700000000007,284.23599999999993 L 476.0610000000001,285.29299999999995 L 476.46100000000007,285.917 L 476.69900000000007,286.738 L 476.5370000000001,287.106 L 476.2850000000001,287.344 L 476.05000000000007,287.615 L 475.82900000000006,287.922 L 476.48600000000005,288.37100000000004 L 476.62800000000004,288.35800000000006 L 476.773,288.2950000000001 L 476.913,288.14200000000005 L 477.148,287.76900000000006 L 477.269,287.63700000000006 L 477.678,287.58900000000006 L 478.021,287.61800000000005 L 478.362,287.7010000000001 L 478.663,287.67500000000007 L 479.26800000000003,287.8350000000001 L 479.579,287.9790000000001 L 480.35,288.6260000000001 L 480.517,288.9800000000001 L 480.594,289.4360000000001 L 480.603,289.9400000000001 L 480.473,290.3990000000001 L 480.324,290.8130000000001 L 480.232,291.3460000000001 L 480.16700000000003,291.5380000000001 L 480.076,291.6880000000001 L 479.668,292.1070000000001 L 479.397,292.2790000000001 L 479.283,292.2040000000001 L 479.16,292.2140000000001 L 479.14700000000005,292.3150000000001 L 479.27600000000007,292.52800000000013 L 479.27700000000004,292.78500000000014 L 479.03600000000006,292.97500000000014 L 478.79100000000005,293.05600000000015 L 478.38100000000003,292.95500000000015 L 477.812,293.30900000000014 L 478.221,293.49100000000016 L 478.30400000000003,293.68400000000014 L 478.20200000000006,294.02300000000014 L 477.94500000000005,294.17400000000015 L 477.65900000000005,294.24100000000016 L 477.3670000000001,294.2570000000002 L 477.12500000000006,294.3400000000002 L 476.89300000000003,294.5000000000002 L 477.184,294.4160000000002 L 477.386,294.49000000000024 L 477.51300000000003,294.7740000000002 L 477.62800000000004,294.8560000000002 L 478.19800000000004,294.9770000000002 L 478.55,294.9760000000002 L 479.23,294.9070000000002 L 479.557,294.9080000000002 L 479.673,294.9600000000002 L 479.675,295.1950000000002 L 479.625,295.77100000000024 L 479.535,295.89000000000027 L 478.634,296.3720000000003 L 478.449,296.7080000000003 L 478.398,296.9110000000003 L 477.87100000000004,296.8750000000003 L 477.624,297.09000000000026 L 477.197,297.23300000000023 L 476.867,297.38400000000024 L 476.54400000000004,297.5750000000002 L 476.278,297.63200000000023 L 475.13100000000003,297.40500000000026 L 474.43800000000005,297.42400000000026 L 473.499,297.62200000000024 L 473.257,297.5890000000002 L 472.895,297.4000000000002 L 472.52299999999997,297.2720000000002 L 472.09599999999995,297.21600000000024 L 471.7269999999999,297.04000000000025 L 471.95699999999994,297.37700000000024 L 471.4459999999999,297.7020000000002 L 471.2099999999999,297.76600000000025 L 470.9649999999999,297.75600000000026 L 470.4649999999999,297.8440000000003 L 470.0,297.796 L 470.07,298.026 L 470.194,298.22700000000003 L 470.093,298.314 L 469.987,298.336 L 469.105,298.185 L 468.98,298.213 L 468.87100000000004,298.353 L 468.55,298.278 L 468.238,298.043 L 467.907,297.884 L 467.55899999999997,297.809 L 467.28299999999996,297.83500000000004 L 466.14599999999996,298.20700000000005 L 465.919,298.57900000000006 L 465.805,299.10600000000005 L 465.641,299.57300000000004 L 465.37300000000005,299.932 L 465.05400000000003,299.97900000000004 L 464.754,299.73 L 464.184,299.456 L 463.99,299.27000000000004 L 463.928,299.259 L 463.864,299.325 L 463.64,299.409 L 463.409,299.413 L 463.05199999999996,299.487 L 462.431,299.71000000000004 L 462.18,299.86100000000005 L 461.641,300.278 L 461.531,300.39300000000003 L 461.335,300.812 L 461.036,300.886 L 460.762,300.61800000000005 L 460.45,300.52400000000006 L 460.121,300.61500000000007 L 459.92199999999997,300.75800000000004 L 459.82899999999995,300.64200000000005 L 459.82599999999996,300.40400000000005 L 460.066,300.12000000000006 L 460.707,299.9050000000001 L 461.27,299.34600000000006 L 461.546,299.00500000000005 L 461.656,298.81200000000007 L 461.791,298.6890000000001 L 461.967,298.6430000000001 L 462.058,298.43000000000006 L 462.839,297.57200000000006 L 462.903,297.37500000000006 L 462.942,297.0210000000001 L 463.00600000000003,296.68000000000006 L 463.64200000000005,296.45900000000006 L 463.946,295.74000000000007 L 464.03000000000003,295.68300000000005 L 464.91700000000003,295.55100000000004 L 465.57500000000005,295.56200000000007 L 466.22900000000004,295.7030000000001 L 466.564,295.71600000000007 L 466.90000000000003,295.6670000000001 L 467.16400000000004,295.4720000000001 L 467.61500000000007,294.7680000000001 L 467.8690000000001,294.4570000000001 L 468.1600000000001,294.1760000000001 L 468.4320000000001,293.8550000000001 L 468.87300000000005,293.25900000000007 L 468.57500000000005,293.4650000000001 L 468.21500000000003,293.7910000000001 L 468.00600000000003,293.98000000000013 L 467.34200000000004,294.17000000000013 L 467.05600000000004,294.36400000000015 L 466.55500000000006,294.80100000000016 L 466.45900000000006,294.83700000000016 L 465.7030000000001,294.73200000000014 L 465.1410000000001,294.16500000000013 L 464.7820000000001,293.9330000000001 L 464.63400000000007,293.9060000000001 L 464.4800000000001,293.97500000000014 L 464.1520000000001,294.04600000000016 L 463.8180000000001,294.03400000000016 L 463.9890000000001,293.7710000000002 L 464.2210000000001,293.6240000000002 L 463.70100000000014,293.5220000000002 L 463.55600000000015,293.44200000000023 L 463.39100000000013,293.25700000000023 L 462.9830000000001,293.2260000000002 L 462.7890000000001,293.27300000000025 L 462.4610000000001,293.5170000000003 L 461.94300000000015,293.7760000000003 L 461.31800000000015,293.4170000000003 L 461.19600000000014,293.26000000000033 L 461.1990000000001,292.9550000000003 L 461.10500000000013,292.7130000000003 L 460.93200000000013,292.6280000000003 L 461.15300000000013,292.31300000000033 L 461.4210000000001,292.10300000000035 L 462.0090000000001,291.89400000000035 L 462.90000000000015,291.39700000000033 L 463.40000000000015,291.18500000000034 L 463.86400000000015,290.81900000000036 L 464.05600000000015,290.59500000000037 L 464.19500000000016,290.28800000000035 L 464.33300000000014,289.9120000000004 L 464.53000000000014,289.60500000000036 L 464.33900000000017,289.5320000000004 L 464.25300000000016,289.3010000000004 L 464.2760000000002,289.0660000000004 L 464.3640000000002,288.85700000000037 L 464.2850000000002,288.59500000000037 L 464.1440000000002,288.32100000000037 L 464.15200000000016,288.10700000000037 L 464.19000000000017,287.8780000000004 L 463.83200000000016,287.8900000000004 L 463.47500000000014,287.9620000000004 L 463.1510000000001,288.12400000000036 L 462.8370000000001,288.3440000000004 L 462.5580000000001,288.3850000000004 L 462.5620000000001,288.2090000000004 L 462.6830000000001,287.9910000000004 L 462.9990000000001,287.67900000000037 L 463.3370000000001,287.42000000000036 L 463.4570000000001,287.22300000000035 L 463.55200000000013,286.99400000000037 L 463.72000000000014,286.81000000000034 L 464.16200000000015,286.46200000000033 L 465.0090000000001,286.07000000000033 L 465.1350000000001,286.0470000000003 L 465.4670000000001,286.0930000000003 L 465.7940000000001,286.0330000000003 L 466.0800000000001,285.8920000000003 L 466.3650000000001,285.8620000000003 L 467.0070000000001,286.2690000000003 L 466.81600000000014,285.6390000000003 L 467.09900000000016,285.4880000000003 L 467.5090000000002,286.0580000000003 L 467.6610000000002,286.1180000000003 L 467.9830000000002,286.03500000000025 L 467.85900000000015,285.93900000000025 L 467.71400000000017,285.9330000000003 L 467.52400000000017,285.84700000000026 L 467.36400000000015,285.66400000000027 L 467.0980000000001,285.0820000000003 L 467.1130000000001,284.7360000000003 L 467.2920000000001,284.37600000000026 L 467.49000000000007,284.04400000000027 L 467.32400000000007,283.9780000000003 L 467.1910000000001,283.8510000000003 L 467.1530000000001,283.51800000000026 L 467.2050000000001,283.22300000000024 L 467.5610000000001,282.96300000000025 L 467.6660000000001,282.56700000000023 L 467.7100000000001,282.1300000000002 L 467.65100000000007,281.9290000000002 L 467.2970000000001,281.9610000000002 L 467.12500000000006,282.0430000000002 L 466.97100000000006,282.1720000000002 L 466.81300000000005,282.1640000000002 L 466.37600000000003,281.68000000000023 L 466.127,281.3130000000002 L 465.68,280.5350000000002 L 465.617,280.0680000000002 L 465.97400000000005,279.0580000000002 L 466.52600000000007,278.4090000000002 L 467.17600000000004,278.18200000000024 L 467.05000000000007,278.13900000000024 L 466.0590000000001,278.1300000000002 L 465.7320000000001,278.2100000000002 L 465.4290000000001,278.4760000000002 L 465.2580000000001,278.5580000000002 L 465.0780000000001,278.5880000000002 L 464.9140000000001,278.7200000000002 L 464.7540000000001,278.9030000000002 L 464.5870000000001,279.0210000000002 L 464.2560000000001,278.9900000000002 L 464.09600000000006,279.02900000000017 L 463.98100000000005,278.9230000000002 L 463.88400000000007,278.74800000000016 L 463.7580000000001,278.70100000000014 L 463.6170000000001,278.7550000000001 L 463.3190000000001,278.9910000000001 L 463.01700000000005,279.1300000000001 L 462.65200000000004,278.9810000000001 L 462.17300000000006,278.7030000000001 L 462.07900000000006,278.80500000000006 L 461.97300000000007,279.06300000000005 L 461.9120000000001,279.46400000000006 L 461.5720000000001,279.11500000000007 L 461.28300000000013,278.6480000000001 L 461.1850000000001,278.3540000000001 L 461.1780000000001,278.0220000000001 L 461.3350000000001,277.8930000000001 L 461.5060000000001,278.0110000000001 L 461.7600000000001,277.2220000000001 L 462.2660000000001,276.1900000000001 L 462.44500000000005,275.8870000000001 L 462.57000000000005,275.4900000000001 L 462.54900000000004,275.23000000000013 L 462.43800000000005,275.0100000000001 L 461.96700000000004,274.5100000000001 L 461.973,274.1010000000001 L 462.023,273.6390000000001 L 462.151,273.3610000000001 L 462.205,273.3080000000001 L 462.83,273.3150000000001 L 462.58599999999996,273.1710000000001 L 462.09999999999997,272.7520000000001 L 462.109,272.6030000000001 L 462.22299999999996,272.2140000000001 L 462.16999999999996,272.2530000000001 L 462.066,272.4330000000001 L 461.86699999999996,272.8680000000001 L 461.746,272.9690000000001 L 461.402,273.0720000000001 L 461.339,273.28500000000014 L 461.284,273.3410000000001 L 461.113,273.3650000000001 L 461.06,273.56400000000014 L 461.022,273.5770000000001 L 460.973,273.3630000000001 L 460.968,273.0070000000001 L 461.036,272.67900000000014 L 461.166,272.42200000000014 L 461.67,271.83700000000016 L 461.425,272.01800000000014 L 460.869,272.55900000000014 L 460.58500000000004,272.91400000000016 L 460.509,273.03400000000016 L 460.486,273.13500000000016 L 460.48699999999997,273.25100000000015 L 460.614,273.8720000000001 L 460.577,274.1590000000001 L 460.098,276.0440000000001 L 460.007,276.2320000000001 L 459.924,276.3300000000001 L 459.84499999999997,276.3530000000001 L 459.609,276.3170000000001 L 459.50399999999996,276.1760000000001 L 459.50499999999994,276.0170000000001 L 459.5489999999999,275.77800000000013 L 459.74799999999993,274.88500000000016 L 459.83399999999995,274.63600000000014 L 459.96199999999993,274.4040000000001 L 460.2439999999999,273.9980000000001 L 460.2369999999999,273.9710000000001 L 460.0489999999999,274.0510000000001 L 459.96899999999994,274.0250000000001 L 459.91099999999994,273.9440000000001 L 459.9479999999999,272.73300000000006 L 460.10099999999994,272.3330000000001 L 460.15799999999996,271.75000000000006 L 460.28999999999996,271.2490000000001 L 460.443,270.8830000000001 L 460.56,270.4140000000001 L 460.735,270.2050000000001 L 460.78200000000004,269.8850000000001 L 460.97900000000004,269.5380000000001 L 461.13100000000003,269.1750000000001 L 461.04900000000004,269.2110000000001 L 460.076,270.15500000000014 L 459.82800000000003,270.32600000000014 L 459.49,270.28000000000014 L 459.232,270.17400000000015 L 459.03000000000003,269.95100000000014 L 458.94000000000005,269.52200000000016 L 458.69100000000003,269.51100000000014 L 458.478,269.4370000000001 L 458.48,269.37900000000013 L 458.755,269.14500000000015 L 459.19599999999997,269.06500000000017 L 459.609,268.6890000000002 L 459.24199999999996,268.4350000000002 L 459.27299999999997,268.35400000000016 L 459.59299999999996,268.13700000000017 L 459.99999999999994,267.4080000000002 L 460.08199999999994,266.7350000000002 L 459.8879999999999,266.4180000000002 L 459.8179999999999,266.21000000000015 L 459.4289999999999,265.9780000000001 L 459.3639999999999,265.6810000000001 L 459.40899999999993,265.5140000000001 L 459.53599999999994,265.3510000000001 L 459.7269999999999,265.22500000000014 L 460.02699999999993,265.1030000000001 L 459.75499999999994,264.9730000000001 L 459.65299999999996,264.81900000000013 L 459.57599999999996,264.5960000000001 L 459.56899999999996,264.4670000000001 L 459.71,263.8910000000001 L 459.792,263.6530000000001 L 459.953,263.3490000000001 L 460.681,263.3660000000001 L 460.765,263.2320000000001 L 460.848,263.2270000000001 L 461.22,263.3500000000001 L 461.165,263.2180000000001 L 460.55600000000004,262.49300000000005 L 460.50100000000003,262.3550000000001 L 460.675,261.9630000000001 L 460.687,261.78800000000007 L 460.66200000000003,261.60100000000006 L 460.71200000000005,261.4580000000001 L 460.90500000000003,261.3910000000001 L 461.49300000000005,261.39700000000005 L 461.63800000000003,261.3310000000001 L 461.57200000000006,261.1410000000001 L 461.43500000000006,260.8910000000001 L 461.4080000000001,260.6810000000001 L 461.44000000000005,260.4950000000001 L 461.44700000000006,260.1200000000001 L 461.47400000000005,259.9540000000001 L 461.61400000000003,259.7050000000001 L 461.72900000000004,259.6310000000001 L 461.872,259.5880000000001 L 462.195,259.6710000000001 L 462.318,259.77100000000013 L 462.46,260.00800000000015 L 462.56399999999996,259.98900000000015 L 462.96599999999995,259.73100000000017 L 463.08699999999993,259.6940000000002 L 463.25199999999995,259.99300000000017 L 463.93899999999996,259.75500000000017 L 464.86199999999997,259.64900000000017 L 465.417,259.4920000000002 L 466.001,259.4350000000002 L 466.546,259.2560000000002 L 467.12399999999997,259.3380000000002 L 467.14399999999995,259.4420000000002 L 467.114,259.5860000000002 L 466.972,259.975 M 467.479,258.758 L 467.452,258.774 L 467.349,258.675 L 467.181,258.32 L 467.44599999999997,258.24899999999997 L 467.57099999999997,258.29299999999995 L 467.52399999999994,258.44399999999996 L 467.479,258.758 M 466.817,258.474 L 466.656,258.546 L 466.497,258.541 L 466.249,258.228 L 466.155,258.0 L 466.17199999999997,257.849 L 466.27599999999995,257.798 L 466.51599999999996,257.872 L 466.64,258.13300000000004 L 466.656,258.302 L 466.685,258.368 L 466.834,258.435 L 466.817,258.474 M 467.119,257.197 L 467.081,257.331 L 467.29400000000004,257.32800000000003 L 467.60300000000007,257.442 L 467.7900000000001,257.456 L 467.9460000000001,257.598 L 467.86000000000007,257.863 L 467.76700000000005,257.938 L 467.66200000000003,257.953 L 467.29400000000004,257.688 L 466.812,257.798 L 466.716,257.764 L 466.653,257.69100000000003 L 466.627,257.6 L 466.627,257.41400000000004 L 466.601,257.35900000000004 L 466.426,257.535 L 466.34999999999997,257.514 L 466.30699999999996,257.43 L 466.28799999999995,257.25600000000003 L 466.30699999999996,257.00500000000005 L 466.40999999999997,256.6460000000001 L 466.58299999999997,256.57400000000007 L 466.84099999999995,256.61600000000004 L 467.13699999999994,256.819 L 467.22599999999994,256.944 L 467.22399999999993,257.04400000000004 L 467.119,257.197 M 468.546,256.095 L 468.229,256.101 L 468.393,255.777 L 468.58399999999995,255.695 L 468.94499999999994,255.731 L 468.8809999999999,255.87699999999998 L 468.546,256.095 M 468.04,256.339 L 467.79900000000004,256.475 L 467.696,256.363 L 467.66900000000004,256.011 L 467.38200000000006,255.86 L 467.2420000000001,255.76600000000002 L 467.13400000000007,255.58800000000002 L 467.16100000000006,255.53300000000002 L 467.34800000000007,255.46 L 467.66800000000006,255.78300000000002 L 467.79900000000004,256.043 L 468.03600000000006,256.12 L 468.06600000000003,256.16 L 468.04,256.339 M 472.028,248.801 L 472.086,249.202 L 472.231,249.09799999999998 L 472.45,249.48199999999997 L 472.562,249.48199999999997 L 472.74600000000004,249.32999999999998 L 472.70900000000006,249.68699999999998 L 472.5180000000001,250.67399999999998 L 472.4640000000001,250.84099999999998 L 472.4280000000001,251.14 L 472.3900000000001,251.19899999999998 L 472.3340000000001,251.802 L 472.2050000000001,252.0 L 472.0970000000001,252.472 L 472.0530000000001,252.518 L 471.8950000000001,252.337 L 472.0530000000001,251.61599999999999 L 472.1180000000001,251.196 L 472.07600000000014,250.978 L 471.98700000000014,250.781 L 471.7450000000001,250.775 L 471.5410000000001,250.866 L 471.4980000000001,250.75 L 471.49200000000013,250.594 L 471.44300000000015,250.542 L 471.17200000000014,250.553 L 471.09200000000016,250.51 L 471.03900000000016,250.36599999999999 L 471.02900000000017,250.25099999999998 L 471.27400000000017,250.16099999999997 L 471.5040000000002,250.19499999999996 L 471.8400000000002,249.96599999999995 L 471.6300000000002,249.19699999999995 L 471.3510000000002,249.12399999999994 L 471.2870000000002,249.04899999999995 L 471.3410000000002,248.91799999999995 L 471.4940000000002,248.84699999999995 L 471.7290000000002,248.45399999999995 L 471.87000000000023,248.39199999999994 L 472.04500000000024,248.40299999999993 L 472.028,248.801 M 472.774,248.936 L 472.703,249.001 L 472.429,248.422 L 472.63199999999995,247.757 L 472.87799999999993,247.778 L 472.9169999999999,247.952 L 472.8929999999999,248.113 L 472.7679999999999,248.127 L 472.7569999999999,248.17600000000002 L 472.7959999999999,248.485 L 472.7979999999999,248.84300000000002 L 472.774,248.936 M 473.526,247.23 L 473.526,247.296 L 473.38,247.78 L 473.382,247.965 L 473.147,247.947 L 473.11,247.888 L 473.06600000000003,247.61100000000002 L 473.096,247.31600000000003 L 473.129,247.23900000000003 L 473.197,247.20800000000003 L 473.271,247.26600000000002 L 473.38800000000003,247.116 L 473.449,247.119 L 473.526,247.23" id="GB" title="United Kingdom"/>
</svg>
