<svg xmlns="http://www.w3.org/2000/svg" xmlns:ev="http://www.w3.org/2001/xml-events" xmlns:xlink="http://www.w3.org/1999/xlink" baseProfile="full" height="9.454010009765625" version="1.1" viewBox="587.8980102539062 327.2959899902344 18.7879638671875 9.454010009765625" width="18.7879638671875">
	<defs/>
	<path class="land" d="M 606.004,333.688 L 605.936,333.822 L 605.775,334.065 L 605.647,334.189 L 605.505,334.209 L 605.364,334.266 L 605.315,334.396 L 605.309,334.564 L 605.333,334.685 L 605.369,334.73 L 605.513,334.77 L 605.655,335.123 L 605.878,335.301 L 606.226,335.503 L 606.535,335.734 L 606.686,335.946 L 606.657,336.1 L 606.556,336.418 L 606.298,336.683 L 606.083,336.75 L 606.007,336.725 L 605.867,336.643 L 605.584,336.438 L 605.277,336.276 L 605.041,336.329 L 604.886,336.39 L 604.579,336.318 L 604.216,336.178 L 604.027,336.04 L 603.944,335.938 L 604.0,335.757 L 603.177,335.43 L 602.78,335.339 L 602.601,335.438 L 601.996,335.93 L 601.924,335.98 L 601.462,336.048 L 601.461,336.088 L 601.566,336.194 L 601.546,336.227 L 600.771,336.238 L 600.513,336.302 L 599.823,336.219 L 599.596,336.256 L 599.402,336.333 L 598.93,336.421 L 598.604,336.524 L 598.188,336.578 L 597.759,336.583 L 597.612,336.614 L 597.618,336.543 L 597.595,336.434 L 597.508,336.355 L 597.386,336.305 L 597.162,336.324 L 596.955,336.271 L 596.808,336.133 L 596.774,336.027 L 596.859,335.941 L 596.797,335.87 L 596.539,335.7 L 596.117,335.275 L 595.878,335.18 L 595.783,334.913 L 595.688,334.856 L 595.487,334.831 L 595.275,334.857 L 595.229,334.887 L 595.164,334.93 L 594.998,335.263 L 594.881,335.376 L 594.595,335.323 L 594.358,335.245 L 594.165,335.201 L 593.79,335.173 L 593.364,335.167 L 593.077,335.404 L 592.953,335.373 L 592.735,335.257 L 592.383,335.161 L 592.197,335.086 L 592.735,334.383 L 592.895,333.964 L 592.9,333.71 L 592.907,333.39 L 592.627,332.724 L 592.387,331.776 L 592.137,330.784 L 591.942,330.486 L 591.127,330.141 L 590.938,329.749 L 590.307,329.242 L 589.43,329.021 L 589.256,328.927 L 588.494,328.287 L 587.898,327.874 L 588.026,327.624 L 588.196,327.36 L 588.38,327.296 L 588.919,327.4 L 589.416,327.519 L 589.778,327.434 L 590.209,327.642 L 590.603,327.88 L 590.999,328.048 L 591.771,328.207 L 592.059,328.426 L 592.395,328.645 L 593.712,328.756 L 593.818,328.722 L 593.915,328.69 L 594.357,328.611 L 594.748,328.625 L 595.161,328.891 L 595.425,328.875 L 595.707,328.835 L 596.07,328.977 L 596.355,329.135 L 596.379,329.294 L 596.629,329.526 L 597.355,329.879 L 597.944,330.079 L 598.127,330.219 L 598.575,330.45 L 598.62,330.523 L 598.611,330.618 L 598.483,330.791 L 598.451,330.944 L 598.511,331.033 L 598.697,331.117 L 599.065,331.136 L 599.198,331.026 L 599.473,330.947 L 599.746,330.805 L 600.11,330.616 L 600.605,330.444 L 600.803,330.444 L 600.993,330.497 L 601.126,330.592 L 601.349,330.945 L 601.572,330.451 L 601.629,330.414 L 601.833,330.514 L 602.192,330.651 L 602.441,330.724 L 602.576,330.826 L 602.956,331.276 L 603.571,331.253 L 603.831,331.322 L 603.971,331.396 L 604.033,331.483 L 603.923,331.929 L 603.771,332.393 L 603.784,332.504 L 604.03,332.679 L 604.366,332.863 L 604.546,333.011 L 604.669,333.144 L 604.934,333.245 L 605.247,333.307 L 605.395,333.315 L 605.55,333.427 L 605.953,333.636 L 606.004,333.688" id="GE" title="Georgia"/>
</svg>
