<svg xmlns="http://www.w3.org/2000/svg" xmlns:ev="http://www.w3.org/2001/xml-events" xmlns:xlink="http://www.w3.org/1999/xlink" baseProfile="full" height="10.233001708984375" version="1.1" viewBox="322.4200134277344 446.52301025390625 8.316986083984375 10.233001708984375" width="8.316986083984375">
	<defs/>
	<path class="land" d="M 330.737,451.339 L 330.65,451.399 L 330.416,451.531 L 330.309,451.706 L 330.246,451.875 L 330.101,451.989 L 329.962,452.134 L 329.918,452.25 L 329.789,452.343 L 329.764,452.497 L 329.437,453.041 L 329.306,453.285 L 329.118,453.545 L 329.001,453.642 L 328.842,453.796 L 328.761,453.975 L 328.761,454.16 L 328.65,454.381 L 328.588,454.572 L 328.483,454.683 L 328.206,455.287 L 328.192,455.495 L 328.126,455.618 L 327.929,455.906 L 327.796,456.079 L 327.563,456.209 L 327.319,456.35 L 327.227,456.504 L 327.054,456.582 L 326.928,456.587 L 326.725,456.531 L 326.45,456.504 L 326.311,456.522 L 326.248,456.446 L 326.154,456.271 L 326.017,456.146 L 325.929,456.189 L 325.744,456.314 L 325.527,456.388 L 325.373,456.363 L 325.037,456.277 L 324.894,456.233 L 324.851,456.159 L 324.801,456.104 L 324.727,456.128 L 324.628,456.221 L 324.496,456.317 L 324.3,456.445 L 323.897,456.674 L 323.784,456.756 L 323.68,456.711 L 323.509,456.666 L 323.327,456.664 L 322.934,456.515 L 322.704,456.409 L 322.604,456.276 L 322.488,456.219 L 322.42,456.182 L 322.452,456.157 L 322.554,456.138 L 322.645,456.136 L 322.787,455.933 L 323.021,455.806 L 323.429,455.103 L 323.601,454.812 L 323.622,454.653 L 323.67,454.321 L 323.579,453.917 L 323.622,453.804 L 323.972,453.317 L 324.123,453.051 L 324.132,452.822 L 324.176,452.657 L 324.133,452.571 L 324.053,452.546 L 323.919,452.332 L 323.833,452.155 L 323.595,451.973 L 323.432,451.787 L 323.165,451.359 L 323.189,451.119 L 323.113,451.033 L 323.031,450.944 L 323.037,450.836 L 322.981,450.566 L 322.913,450.314 L 322.887,450.154 L 322.954,449.88 L 322.914,449.576 L 322.827,449.416 L 322.803,449.171 L 322.821,448.953 L 322.895,448.829 L 322.88,448.676 L 323.218,448.189 L 323.475,447.907 L 323.711,447.709 L 323.91,447.561 L 324.179,446.821 L 324.374,446.561 L 324.578,446.523 L 325.68,447.136 L 326.197,447.193 L 327.238,447.524 L 327.615,447.948 L 328.488,448.654 L 328.947,448.876 L 328.951,449.061 L 328.851,449.355 L 329.145,449.098 L 329.599,449.505 L 329.728,449.704 L 329.869,450.072 L 329.82,450.309 L 329.757,450.431 L 329.754,450.526 L 329.889,450.395 L 329.965,450.292 L 329.988,450.045 L 330.098,449.739 L 330.246,449.733 L 330.364,449.916 L 330.608,450.709 L 330.7,450.871 L 330.735,451.123 L 330.722,451.235 L 330.737,451.339" id="GF" title="French Guiana"/>
</svg>
