<svg xmlns="http://www.w3.org/2000/svg" xmlns:ev="http://www.w3.org/2001/xml-events" xmlns:xlink="http://www.w3.org/1999/xlink" baseProfile="full" height="18.03900146484375" version="1.1" viewBox="466.59600830078125 431.3389892578125 12.436004638671875 18.03900146484375" width="12.436004638671875" fill="#00394f">
	<defs/>
	<path class="land" d="M 475.507,431.484 L 475.686,431.655 L 475.726,431.753 L 475.661,432.122 L 475.529,432.379 L 475.446,432.621 L 475.458,432.741 L 475.538,432.862 L 475.811,433.051 L 475.95,433.174 L 476.116,433.36 L 476.306,433.542 L 476.631,433.779 L 476.769,433.822 L 476.762,433.888 L 476.717,433.979 L 476.687,434.861 L 476.662,435.089 L 476.639,435.204 L 476.608,435.533 L 476.574,435.58 L 476.513,435.576 L 476.456,435.589 L 476.442,435.654 L 476.465,435.722 L 476.661,435.769 L 476.618,435.819 L 476.473,435.864 L 476.405,435.963 L 476.435,436.076 L 476.354,436.167 L 476.377,436.228 L 476.429,436.272 L 476.512,436.256 L 476.741,436.104 L 476.837,436.088 L 476.956,436.119 L 477.175,436.351 L 477.184,436.464 L 477.095,436.851 L 477.008,437.15 L 476.992,437.549 L 477.084,437.772 L 477.071,437.895 L 476.971,438.001 L 476.745,438.155 L 476.762,438.26 L 476.865,438.456 L 477.056,438.674 L 477.429,438.944 L 477.625,439.295 L 477.63,439.438 L 477.516,439.581 L 477.381,439.705 L 477.337,439.884 L 477.398,441.06 L 477.103,441.57 L 477.1,441.716 L 477.13,441.884 L 477.208,441.987 L 477.358,442.015 L 477.481,442.113 L 477.438,442.471 L 477.373,442.835 L 477.362,443.012 L 477.326,443.096 L 477.209,443.164 L 477.167,443.279 L 477.197,443.421 L 477.175,443.526 L 477.237,443.662 L 477.372,443.831 L 477.588,444.251 L 477.67,444.284 L 477.708,444.373 L 477.684,444.458 L 477.768,444.644 L 478.008,444.83 L 478.26,444.992 L 478.464,445.015 L 478.512,445.16 L 478.646,445.345 L 478.743,445.426 L 478.898,445.479 L 479.025,445.507 L 479.032,445.663 L 478.802,445.769 L 478.647,445.93 L 478.529,446.175 L 478.365,446.445 L 477.801,446.585 L 477.585,446.586 L 476.428,446.593 L 475.345,447.123 L 474.721,447.312 L 474.337,447.61 L 473.821,447.822 L 473.461,448.08 L 472.712,448.203 L 471.485,448.607 L 471.101,448.768 L 470.713,449.049 L 470.082,449.378 L 469.833,449.374 L 469.339,449.066 L 468.967,448.912 L 468.057,448.676 L 467.378,448.584 L 467.05,448.483 L 466.96,448.466 L 467.037,448.355 L 467.227,448.348 L 467.425,448.381 L 467.576,448.297 L 467.797,448.286 L 467.855,448.197 L 467.873,447.975 L 467.871,447.795 L 467.948,447.715 L 467.968,447.503 L 467.859,447.034 L 467.782,446.98 L 467.386,446.914 L 467.356,446.82 L 467.285,446.722 L 467.209,446.48 L 467.123,446.12 L 466.984,445.673 L 466.717,444.937 L 466.651,444.676 L 466.606,444.411 L 466.596,444.094 L 466.651,443.976 L 466.643,443.812 L 466.618,443.648 L 466.806,443.273 L 467.174,442.813 L 467.251,442.647 L 467.32,442.532 L 467.33,442.366 L 467.395,441.83 L 467.571,441.182 L 467.682,440.937 L 467.757,440.804 L 467.847,440.588 L 467.87,440.487 L 468.209,440.232 L 468.365,440.164 L 468.4,440.063 L 468.347,439.954 L 468.37,439.879 L 468.451,439.842 L 468.576,439.812 L 468.667,439.707 L 468.524,438.906 L 468.408,438.107 L 468.401,438.039 L 468.333,437.929 L 468.265,437.599 L 468.15,437.405 L 467.99,437.349 L 467.991,437.167 L 468.152,436.858 L 468.194,436.678 L 468.117,436.624 L 468.106,436.483 L 468.161,436.256 L 468.134,436.116 L 468.104,435.968 L 467.937,435.617 L 467.896,435.368 L 467.982,435.223 L 467.979,434.905 L 467.889,434.414 L 467.874,434.104 L 467.936,433.975 L 467.906,433.851 L 467.784,433.734 L 467.775,433.621 L 467.879,433.51 L 467.866,433.424 L 467.737,433.361 L 467.622,433.209 L 467.519,432.97 L 467.54,432.585 L 467.733,431.877 L 467.757,431.818 L 467.976,431.822 L 467.977,431.852 L 468.658,431.845 L 469.436,431.837 L 470.365,431.828 L 471.21,431.82 L 471.247,431.788 L 471.387,431.749 L 472.24,431.821 L 472.774,431.785 L 473.0,431.808 L 473.166,431.856 L 473.534,431.827 L 473.731,431.845 L 473.879,432.021 L 473.939,432.02 L 474.022,431.945 L 474.169,431.859 L 474.319,431.792 L 474.427,431.653 L 474.492,431.548 L 474.589,431.569 L 474.729,431.563 L 474.822,431.475 L 474.859,431.339 L 475.507,431.484" id="GH" title="Ghana"/>
</svg>
