<svg xmlns="http://www.w3.org/2000/svg" xmlns:ev="http://www.w3.org/2001/xml-events" xmlns:xlink="http://www.w3.org/1999/xlink" baseProfile="full" height="252.86599731445312" version="1.1" viewBox="271.3370056152344 0 172.29598999023438 252.86599731445312" width="172.29598999023438" fill="#00394f">
	<defs/>
	<path class="land" d="M 391.637,0.873 L 394.334,2.37 L 395.76,4.094 L 396.05899999999997,4.037 L 397.99199999999996,4.694 L 399.82699999999994,5.511 L 402.87799999999993,7.621 L 403.3059999999999,8.308 L 402.97599999999994,8.868 L 402.21799999999996,9.252 L 398.31899999999996,9.934000000000001 L 391.246,10.767000000000001 L 387.19899999999996,12.372000000000002 L 385.912,12.454000000000002 L 385.79999999999995,14.812000000000003 L 386.34999999999997,14.940000000000003 L 387.251,14.625000000000004 L 390.421,12.260000000000003 L 391.60699999999997,11.868000000000004 L 393.82,12.066000000000004 L 396.693,12.958000000000004 L 397.852,12.645000000000003 L 399.919,12.878000000000004 L 402.33599999999996,12.196000000000003 L 405.191,10.715000000000003 L 405.972,14.005000000000003 L 407.024,17.232000000000003 L 407.857,16.878000000000004 L 408.57000000000005,17.058000000000003 L 408.81100000000004,18.104000000000003 L 409.201,18.545 L 410.009,18.309 L 412.48400000000004,19.216 L 414.18300000000005,20.835 L 414.82300000000004,21.584 L 415.13000000000005,22.646 L 415.30400000000003,23.492 L 415.03700000000003,24.527 L 413.975,26.355 L 412.632,28.016000000000002 L 410.82,29.283 L 408.73199999999997,30.072000000000003 L 392.68699999999995,32.683 L 392.14399999999995,33.298 L 391.82199999999995,34.857 L 392.03599999999994,36.861 L 392.78599999999994,37.172 L 394.53799999999995,36.049 L 397.56899999999996,34.977 L 399.79599999999994,35.028 L 405.11999999999995,35.943 L 406.691,38.312 L 407.522,41.885999999999996 L 409.364,41.089999999999996 L 409.758,40.479 L 410.048,39.414 L 410.279,38.263 L 410.452,37.027 L 410.645,36.18 L 410.859,35.729 L 411.318,35.351 L 412.375,34.894 L 415.147,34.449 L 415.81399999999996,34.576 L 416.29299999999995,36.293 L 416.39699999999993,37.288 L 416.43199999999996,38.574999999999996 L 416.417,40.148999999999994 L 416.352,42.00099999999999 L 416.116,43.81299999999999 L 415.349,46.93099999999999 L 414.73199999999997,48.60399999999999 L 414.066,49.79999999999999 L 412.791,52.49599999999999 L 412.349,53.20899999999999 L 410.947,56.28399999999999 L 410.599,57.68999999999999 L 410.578,58.71099999999999 L 410.81899999999996,58.904999999999994 L 411.22599999999994,57.94599999999999 L 411.37699999999995,57.25799999999999 L 411.63899999999995,56.53399999999999 L 413.7049999999999,54.61099999999999 L 414.1479999999999,54.07099999999999 L 415.4999999999999,51.74499999999999 L 416.3629999999999,50.86599999999999 L 417.0719999999999,49.93899999999999 L 417.44799999999987,49.278999999999996 L 419.52499999999986,44.522 L 420.6079999999999,43.071 L 421.7449999999999,43.068 L 421.9459999999999,45.516999999999996 L 423.3089999999999,45.891999999999996 L 423.9009999999999,45.787 L 424.8519999999999,46.377 L 425.2689999999999,46.861000000000004 L 425.9779999999999,47.107000000000006 L 426.7089999999999,47.67900000000001 L 427.35399999999987,47.06400000000001 L 427.54199999999986,46.67700000000001 L 428.16499999999985,44.912000000000006 L 429.00699999999983,43.333000000000006 L 429.7869999999998,41.34 L 430.0459999999998,40.853 L 430.45599999999985,40.410000000000004 L 430.88199999999983,40.23500000000001 L 432.04199999999986,39.288000000000004 L 432.33599999999984,39.222 L 432.9619999999998,39.522 L 435.72799999999984,39.678 L 437.23699999999985,40.166 L 439.33799999999985,41.513 L 440.80199999999985,42.245999999999995 L 441.47999999999985,42.891999999999996 L 442.46699999999987,44.269 L 443.26299999999986,45.698 L 443.63299999999987,46.115 L 443.61899999999986,46.565000000000005 L 443.3439999999999,47.184000000000005 L 441.3719999999999,49.330000000000005 L 440.7259999999999,50.749 L 438.8599999999999,53.391000000000005 L 437.9479999999999,54.28900000000001 L 436.95699999999994,54.64000000000001 L 435.8539999999999,54.72400000000001 L 435.1379999999999,55.09800000000001 L 435.0319999999999,55.45300000000001 L 435.5419999999999,56.52300000000001 L 435.7659999999999,57.28100000000001 L 435.7339999999999,57.95200000000001 L 435.19699999999995,58.942000000000014 L 434.99399999999997,59.16500000000001 L 433.056,59.89500000000001 L 432.078,61.12700000000001 L 430.80199999999996,61.27600000000001 L 429.9,61.13600000000001 L 428.65999999999997,62.45100000000001 L 429.145,63.513000000000005 L 429.589,63.971000000000004 L 430.96999999999997,64.929 L 430.98299999999995,65.477 L 430.3229999999999,66.578 L 429.4219999999999,67.867 L 428.3569999999999,68.75500000000001 L 427.95699999999994,68.88700000000001 L 427.45199999999994,68.66400000000002 L 426.98599999999993,68.71200000000002 L 425.9599999999999,69.12000000000002 L 424.98299999999995,69.18500000000002 L 423.23799999999994,68.60800000000002 L 422.2939999999999,67.93800000000002 L 421.7969999999999,67.70600000000002 L 421.17099999999994,67.77000000000001 L 420.92999999999995,68.04100000000001 L 419.9429999999999,69.63400000000001 L 419.45899999999995,70.71200000000002 L 419.14799999999997,71.80800000000002 L 419.015,72.99400000000003 L 419.06,74.26800000000003 L 419.18,75.13600000000002 L 419.375,75.60400000000003 L 419.609,75.88700000000003 L 420.019,76.03500000000003 L 420.921,75.89500000000002 L 421.275,75.97500000000002 L 421.383,76.22900000000003 L 421.578,77.03100000000003 L 421.544,77.78300000000003 L 421.38,78.83500000000004 L 421.254,80.05400000000003 L 421.16400000000004,81.43600000000004 L 421.21200000000005,82.18600000000004 L 421.57700000000006,82.35000000000004 L 421.74800000000005,82.29600000000003 L 421.94700000000006,82.54200000000003 L 422.17300000000006,83.08500000000004 L 422.3430000000001,83.65800000000003 L 422.4560000000001,84.26000000000003 L 422.39700000000005,84.75500000000004 L 422.16400000000004,85.14300000000004 L 421.63900000000007,85.58000000000004 L 420.34600000000006,86.43900000000004 L 420.2150000000001,86.70000000000003 L 420.1130000000001,87.22000000000003 L 420.0410000000001,87.99800000000003 L 419.8850000000001,88.70300000000003 L 419.6450000000001,89.33300000000003 L 419.4270000000001,89.70800000000003 L 419.0080000000001,89.87400000000002 L 418.4590000000001,89.89600000000003 L 417.8420000000001,90.25600000000003 L 416.3880000000001,92.34100000000002 L 416.3660000000001,92.57100000000003 L 416.9100000000001,93.23400000000002 L 416.88700000000006,93.81200000000003 L 416.21600000000007,96.27100000000003 L 416.03200000000004,97.47600000000003 L 415.886,99.11400000000003 L 415.64700000000005,100.48300000000003 L 415.314,101.58900000000003 L 414.98600000000005,102.85700000000003 L 414.66400000000004,104.28100000000003 L 414.71400000000006,105.36600000000003 L 415.13700000000006,106.11700000000003 L 415.6960000000001,105.51000000000003 L 416.3910000000001,103.52800000000003 L 417.14700000000005,102.66400000000003 L 417.963,102.93500000000003 L 418.67400000000004,103.33100000000003 L 419.58200000000005,104.11000000000003 L 420.34200000000004,104.59400000000002 L 420.99800000000005,105.22900000000003 L 421.26900000000006,105.76200000000003 L 421.54100000000005,106.51100000000002 L 421.54300000000006,106.98200000000003 L 421.06200000000007,107.23500000000003 L 420.9030000000001,107.15400000000002 L 419.69900000000007,105.91900000000003 L 419.11300000000006,105.61000000000003 L 418.33500000000004,105.98200000000003 L 417.65700000000004,106.54100000000003 L 418.266,108.77200000000002 L 418.91700000000003,109.78800000000003 L 420.105,110.24900000000002 L 420.725,110.73300000000002 L 421.178,111.35000000000002 L 421.532,111.65000000000002 L 422.007,111.51800000000001 L 422.646,110.91200000000002 L 423.53700000000003,110.87900000000002 L 423.939,111.18000000000002 L 424.23,111.74000000000002 L 424.361,112.78200000000002 L 424.332,114.29600000000002 L 424.235,115.42700000000002 L 424.07,116.18300000000002 L 423.74899999999997,117.19100000000002 L 423.481,117.37400000000002 L 423.104,117.31900000000002 L 422.753,117.11300000000001 L 422.428,116.75400000000002 L 421.936,116.47400000000002 L 420.947,116.17100000000002 L 419.947,115.51100000000002 L 419.387,115.34800000000003 L 418.202,115.43200000000003 L 416.924,115.85000000000004 L 416.87399999999997,116.39700000000003 L 415.03599999999994,118.29400000000004 L 414.65899999999993,118.26800000000004 L 414.14899999999994,117.61900000000004 L 413.43499999999995,116.99500000000005 L 413.01699999999994,116.99900000000005 L 412.39899999999994,117.78900000000006 L 412.24499999999995,118.09400000000007 L 412.25299999999993,118.38100000000007 L 412.7079999999999,119.05800000000008 L 412.8929999999999,119.21300000000008 L 413.12799999999993,119.34300000000007 L 413.94499999999994,119.50500000000008 L 414.29999999999995,119.68200000000009 L 414.63399999999996,121.75800000000008 L 415.16399999999993,123.02800000000008 L 415.3909999999999,123.28600000000007 L 415.5909999999999,123.37900000000008 L 416.2409999999999,123.33300000000007 L 417.0769999999999,122.90600000000006 L 417.36899999999986,123.24800000000006 L 417.98499999999984,123.66500000000006 L 418.34499999999986,123.76900000000006 L 418.78299999999984,123.75200000000007 L 419.27599999999984,123.91000000000007 L 419.9519999999998,125.06500000000007 L 419.6859999999998,126.50900000000007 L 420.1089999999998,127.65600000000008 L 420.7849999999998,128.83100000000007 L 420.9449999999998,129.25900000000007 L 421.0099999999998,130.03100000000006 L 421.0249999999998,130.53800000000007 L 421.0759999999998,131.00100000000006 L 421.1619999999998,131.41700000000006 L 421.2509999999998,132.23100000000005 L 421.3439999999998,133.43700000000004 L 421.3199999999998,134.41500000000005 L 421.17699999999985,135.16900000000004 L 420.89499999999987,135.71400000000003 L 420.47499999999985,136.05200000000002 L 420.13199999999983,135.96300000000002 L 419.8659999999998,135.44700000000003 L 419.4909999999998,134.89500000000004 L 419.0079999999998,134.30700000000004 L 418.2049999999998,134.23800000000006 L 417.0229999999998,135.97000000000006 L 416.4959999999998,136.05600000000007 L 416.06699999999984,136.22700000000006 L 415.60999999999984,136.97600000000006 L 414.93699999999984,137.42500000000007 L 414.34299999999985,137.24700000000007 L 413.29999999999984,136.37700000000007 L 413.67899999999986,136.95900000000006 L 414.22099999999983,137.63800000000006 L 414.55899999999986,137.98900000000006 L 414.8079999999999,138.06500000000005 L 415.0809999999999,137.98400000000007 L 415.4749999999999,137.70700000000008 L 416.3639999999999,136.9360000000001 L 416.59899999999993,136.8180000000001 L 416.79799999999994,136.8730000000001 L 416.96099999999996,137.1010000000001 L 417.14899999999994,137.7620000000001 L 417.35999999999996,138.8500000000001 L 417.33299999999997,139.7710000000001 L 417.06699999999995,140.5260000000001 L 416.83899999999994,141.0090000000001 L 416.6499999999999,141.2210000000001 L 416.6499999999999,141.3880000000001 L 417.14699999999993,141.5800000000001 L 417.8499999999999,140.60100000000008 L 418.0729999999999,139.37500000000009 L 418.3949999999999,137.95000000000007 L 418.96399999999994,137.47300000000007 L 419.60799999999995,137.95000000000007 L 420.12799999999993,139.28100000000006 L 420.86299999999994,141.70200000000006 L 421.17299999999994,141.95200000000006 L 421.56699999999995,142.52700000000004 L 421.74099999999993,143.23000000000005 L 421.69499999999994,144.05900000000005 L 421.61099999999993,144.65900000000005 L 421.4889999999999,145.03100000000006 L 421.33699999999993,145.26700000000005 L 421.06299999999993,145.41700000000006 L 420.5589999999999,145.53700000000006 L 419.43299999999994,145.28600000000006 L 418.8469999999999,145.28000000000006 L 418.9199999999999,146.08800000000005 L 417.7339999999999,146.78000000000006 L 416.39699999999993,147.05100000000004 L 415.1309999999999,146.51100000000005 L 414.0799999999999,145.67800000000005 L 414.42499999999995,144.50700000000006 L 414.62199999999996,143.19700000000006 L 414.114,142.32400000000007 L 414.003,142.30500000000006 L 414.178,143.65200000000007 L 414.031,144.16500000000008 L 413.457,144.78800000000007 L 413.052,145.07500000000007 L 413.016,145.24200000000008 L 413.21500000000003,145.38700000000009 L 413.34400000000005,145.66500000000008 L 413.40500000000003,146.07600000000008 L 413.33700000000005,146.49000000000007 L 413.13900000000007,146.90700000000007 L 413.03100000000006,147.25600000000006 L 413.0130000000001,147.53800000000007 L 413.1940000000001,147.88000000000008 L 413.57500000000005,148.2810000000001 L 413.98800000000006,148.4790000000001 L 415.92300000000006,148.5650000000001 L 416.69800000000004,148.78000000000011 L 418.53600000000006,149.72100000000012 L 418.61800000000005,150.00900000000013 L 418.3070000000001,151.67800000000014 L 418.13700000000006,153.26600000000013 L 417.78000000000003,153.55500000000012 L 415.846,153.62300000000013 L 415.223,153.86900000000014 L 414.31100000000004,154.59100000000015 L 413.43500000000006,155.45300000000015 L 412.98100000000005,155.45900000000015 L 411.18300000000005,154.70700000000014 L 410.494,154.20300000000015 L 409.014,152.76900000000015 L 407.90000000000003,150.56300000000016 L 407.389,151.48400000000015 L 407.076,151.92200000000014 L 406.75300000000004,152.14900000000014 L 406.44200000000006,152.18400000000014 L 406.14200000000005,152.02700000000013 L 405.8020000000001,151.68000000000012 L 405.23100000000005,150.87200000000013 L 404.55000000000007,150.06900000000013 L 404.0730000000001,149.68600000000012 L 404.0550000000001,149.79500000000013 L 404.3370000000001,150.26800000000014 L 404.7490000000001,150.81200000000015 L 405.7920000000001,152.40100000000015 L 406.1590000000001,152.80000000000015 L 406.1220000000001,153.08300000000014 L 405.4640000000001,153.33400000000015 L 404.6640000000001,153.87400000000014 L 404.2730000000001,154.27000000000012 L 403.6690000000001,155.22800000000012 L 403.4590000000001,155.37600000000012 L 402.5550000000001,155.61600000000013 L 402.2570000000001,155.55800000000013 L 401.5890000000001,155.03200000000012 L 400.5820000000001,154.68700000000013 L 399.9890000000001,154.38000000000014 L 399.1650000000001,153.82200000000014 L 399.44900000000007,154.43200000000016 L 401.03600000000006,155.35700000000017 L 401.21000000000004,155.65400000000017 L 400.88500000000005,156.20600000000016 L 400.68600000000004,156.40700000000015 L 400.30800000000005,156.44900000000015 L 399.75100000000003,156.33400000000015 L 399.18100000000004,156.35700000000014 L 398.598,156.51900000000015 L 398.348,156.72500000000014 L 398.43,156.97600000000014 L 398.569,157.20400000000015 L 398.76500000000004,157.41000000000014 L 398.94900000000007,157.40800000000013 L 399.3930000000001,156.78500000000014 L 399.7290000000001,156.74100000000013 L 400.6180000000001,156.89500000000012 L 401.5170000000001,156.40800000000013 L 402.16500000000013,156.19700000000012 L 402.6510000000001,156.14300000000011 L 404.4180000000001,155.39400000000012 L 404.78500000000014,154.5520000000001 L 405.37800000000016,154.2130000000001 L 406.69600000000014,153.95300000000012 L 407.97200000000015,154.08600000000013 L 408.62800000000016,154.19500000000014 L 409.15900000000016,154.99300000000014 L 409.87100000000015,155.55600000000013 L 410.46500000000015,156.1960000000001 L 411.1610000000002,156.40600000000012 L 411.5640000000002,157.25300000000013 L 412.6920000000002,158.19400000000013 L 413.4100000000002,158.39600000000013 L 413.8530000000002,158.84200000000013 L 413.8890000000002,160.71900000000014 L 413.9360000000002,161.52300000000014 L 413.74500000000023,163.72900000000013 L 413.16800000000023,164.23300000000012 L 413.28300000000024,165.3810000000001 L 413.13200000000023,166.3030000000001 L 412.55900000000025,165.95400000000012 L 411.97200000000026,165.34700000000012 L 410.5650000000003,164.40100000000012 L 409.25600000000026,163.79000000000013 L 408.74700000000024,163.23400000000012 L 408.14800000000025,162.80200000000013 L 407.33500000000026,161.03400000000013 L 406.80600000000027,158.80900000000014 L 406.57400000000024,157.69800000000015 L 406.12900000000025,157.63600000000014 L 405.55700000000024,157.93400000000014 L 405.05700000000024,158.24900000000014 L 404.81800000000027,158.78600000000014 L 403.1200000000003,159.52200000000013 L 402.50300000000027,160.02400000000014 L 402.1510000000003,160.00900000000016 L 400.8830000000003,160.76300000000015 L 401.3910000000003,161.12300000000016 L 401.6280000000003,161.16800000000015 L 402.1410000000003,160.96500000000015 L 402.4490000000003,160.70500000000015 L 403.6050000000003,159.99100000000016 L 404.5330000000003,159.86800000000017 L 404.8700000000003,159.55900000000017 L 405.5790000000003,159.11700000000016 L 406.0600000000003,159.00000000000017 L 406.1270000000003,159.11200000000017 L 406.1790000000003,159.31400000000016 L 406.5180000000003,162.01700000000017 L 406.3760000000003,162.72900000000016 L 405.9940000000003,163.03700000000015 L 405.1770000000003,163.54000000000013 L 404.9650000000003,163.78400000000013 L 405.2060000000003,164.21000000000012 L 405.9740000000003,163.8090000000001 L 406.47200000000026,163.3720000000001 L 406.7380000000003,163.5310000000001 L 407.1730000000003,164.1980000000001 L 407.66400000000027,164.5390000000001 L 408.91200000000026,165.5570000000001 L 409.50300000000027,166.1150000000001 L 410.33500000000026,166.6520000000001 L 411.27500000000026,167.3940000000001 L 411.52000000000027,167.6550000000001 L 412.37900000000025,168.0380000000001 L 412.5630000000003,168.1690000000001 L 412.9180000000003,169.4650000000001 L 413.2140000000003,169.6090000000001 L 414.0690000000003,169.6910000000001 L 413.9190000000003,170.1910000000001 L 413.08400000000034,171.29600000000008 L 412.6520000000003,171.64800000000008 L 412.5450000000003,171.8640000000001 L 412.5860000000003,172.25000000000009 L 412.6110000000003,172.8950000000001 L 412.78500000000025,174.0750000000001 L 412.9810000000003,172.9830000000001 L 413.1180000000003,172.4650000000001 L 413.3010000000003,172.3100000000001 L 413.4810000000003,172.2870000000001 L 414.0650000000003,171.7950000000001 L 414.65200000000027,172.0590000000001 L 414.80400000000026,173.29800000000012 L 414.87900000000025,174.4460000000001 L 414.82800000000026,175.4320000000001 L 414.8920000000003,176.9530000000001 L 414.8700000000003,177.46400000000008 L 415.0090000000003,177.9050000000001 L 415.1530000000003,179.7210000000001 L 415.2970000000003,180.2630000000001 L 415.0080000000003,180.7470000000001 L 414.11500000000035,180.9570000000001 L 413.76200000000034,180.7190000000001 L 412.87900000000036,180.79900000000012 L 412.8780000000004,180.37300000000013 L 412.8350000000004,179.88300000000012 L 412.8320000000004,179.54000000000013 L 412.77300000000037,179.22900000000013 L 412.7310000000004,177.43100000000013 L 412.4810000000004,177.87700000000012 L 412.4660000000004,178.24200000000013 L 412.40000000000043,178.61300000000014 L 412.2470000000004,180.54000000000013 L 412.0190000000004,181.01000000000013 L 411.3120000000004,180.89700000000013 L 410.6160000000004,180.96600000000012 L 410.2310000000004,180.89500000000012 L 408.92900000000037,180.02000000000012 L 408.42500000000035,179.22400000000013 L 407.9790000000003,178.02100000000013 L 407.70400000000035,176.89000000000013 L 407.60000000000036,175.83100000000013 L 407.2870000000004,174.96500000000012 L 406.7670000000004,174.29400000000012 L 406.1530000000004,173.74900000000014 L 405.4450000000004,173.33000000000013 L 404.8230000000004,172.78800000000012 L 404.2870000000004,172.12200000000013 L 403.6980000000004,171.60200000000012 L 403.05400000000037,171.2300000000001 L 402.1380000000004,171.0700000000001 L 400.7990000000004,171.1290000000001 L 399.8950000000004,170.70900000000012 L 399.6800000000004,170.74500000000012 L 399.4690000000004,170.96200000000013 L 399.62400000000036,171.57900000000012 L 400.6620000000004,171.86100000000013 L 401.4620000000004,171.92500000000013 L 402.52300000000037,171.88500000000013 L 403.17200000000037,172.04300000000012 L 403.41000000000037,172.3980000000001 L 403.57400000000035,173.0280000000001 L 403.6640000000003,173.9300000000001 L 403.45400000000035,174.64200000000008 L 402.6910000000004,175.4290000000001 L 402.2890000000004,175.79700000000008 L 401.1140000000004,176.5010000000001 L 400.71600000000035,176.6570000000001 L 399.73600000000033,176.7050000000001 L 398.98300000000035,176.6380000000001 L 397.99200000000036,176.2880000000001 L 397.43000000000035,176.2170000000001 L 396.26700000000034,176.1700000000001 L 396.0,176.287 L 396.3,176.662 L 396.793,176.874 L 397.14,177.126 L 397.176,177.603 L 397.051,178.30800000000002 L 396.92199999999997,178.79900000000004 L 396.70899999999995,179.16700000000003 L 395.94599999999997,179.86100000000002 L 395.63,180.08 L 394.20799999999997,180.80300000000003 L 394.109,180.94200000000004 L 394.442,180.92300000000003 L 395.341,180.66700000000003 L 395.6,180.67400000000004 L 397.076,181.29900000000004 L 398.252,181.26200000000003 L 400.634,180.68500000000003 L 400.83000000000004,180.69600000000003 L 400.98600000000005,180.78700000000003 L 401.14400000000006,181.00300000000004 L 401.3040000000001,181.34500000000006 L 401.1120000000001,181.67600000000004 L 400.5680000000001,181.99400000000006 L 399.7210000000001,182.30700000000004 L 399.3540000000001,182.51800000000006 L 399.0030000000001,182.83800000000005 L 398.3500000000001,183.60500000000005 L 398.1590000000001,184.39700000000005 L 398.8460000000001,184.69700000000006 L 399.15500000000014,184.31700000000006 L 399.5190000000001,183.47000000000006 L 399.8470000000001,182.97100000000006 L 400.6200000000001,182.63200000000006 L 401.56400000000014,182.80400000000006 L 402.2930000000001,182.60300000000007 L 403.78300000000013,181.76000000000008 L 404.0500000000001,181.70800000000008 L 406.24200000000013,182.1910000000001 L 408.22900000000016,183.13600000000008 L 409.27700000000016,183.48200000000008 L 410.66400000000016,183.6860000000001 L 413.1580000000002,183.5930000000001 L 413.3770000000002,183.7410000000001 L 413.29600000000016,184.0740000000001 L 413.1510000000002,184.3550000000001 L 412.7350000000002,184.7460000000001 L 412.2300000000002,185.0040000000001 L 411.9180000000002,185.0770000000001 L 411.65200000000016,185.2610000000001 L 411.0550000000002,185.44100000000012 L 410.90200000000016,185.5870000000001 L 411.10900000000015,186.2230000000001 L 411.01100000000014,186.3210000000001 L 410.4850000000001,186.3320000000001 L 409.5990000000001,186.74500000000012 L 408.8720000000001,186.71600000000012 L 408.72000000000014,186.77600000000012 L 408.8580000000001,186.92900000000012 L 409.00400000000013,187.2240000000001 L 409.1590000000001,187.6600000000001 L 409.0740000000001,187.97100000000012 L 408.7480000000001,188.15600000000012 L 408.5010000000001,188.21600000000012 L 407.6480000000001,187.95700000000014 L 407.5100000000001,187.99600000000012 L 407.6350000000001,188.18300000000013 L 407.70600000000013,188.46700000000013 L 407.7230000000001,188.84900000000013 L 407.5140000000001,189.16800000000012 L 407.07800000000015,189.42500000000013 L 406.26500000000016,190.1310000000001 L 405.9110000000002,190.3320000000001 L 405.1650000000002,190.4980000000001 L 405.0080000000002,190.59000000000012 L 405.3110000000002,191.12800000000013 L 405.2770000000002,191.34300000000013 L 404.7730000000002,191.92200000000014 L 404.0100000000002,192.28200000000015 L 403.90600000000023,192.47600000000014 L 403.83600000000024,192.99600000000015 L 403.78000000000026,193.20300000000015 L 403.57800000000026,193.50000000000014 L 402.85400000000027,194.06400000000014 L 402.3410000000003,194.34400000000014 L 402.0870000000003,194.57300000000015 L 401.7720000000003,194.95500000000015 L 401.3750000000003,195.15700000000015 L 400.8960000000003,195.18000000000015 L 400.4420000000003,195.32300000000015 L 399.6960000000003,195.72800000000015 L 399.17600000000033,195.86200000000014 L 397.53400000000033,196.55800000000013 L 396.76200000000034,196.66900000000012 L 396.09400000000034,196.91700000000012 L 394.71900000000034,197.57800000000012 L 394.06400000000036,197.7900000000001 L 393.61000000000035,198.0410000000001 L 393.1140000000004,198.1130000000001 L 392.30700000000036,197.9500000000001 L 391.87200000000036,197.9440000000001 L 391.6040000000004,198.0430000000001 L 391.3590000000004,198.2450000000001 L 390.9540000000004,198.79700000000008 L 390.6100000000004,198.83900000000008 L 389.4820000000004,198.40200000000007 L 389.50500000000045,198.60000000000008 L 389.80300000000045,199.0730000000001 L 389.78900000000044,199.4070000000001 L 389.11800000000045,199.7460000000001 L 388.75700000000046,199.8320000000001 L 388.22400000000044,199.6930000000001 L 387.51900000000046,199.32700000000008 L 386.6140000000005,198.5610000000001 L 385.5050000000005,197.38600000000008 L 384.9710000000005,196.98700000000008 L 385.0100000000005,197.36600000000007 L 385.1340000000005,197.73600000000008 L 385.34300000000053,198.09500000000008 L 385.3850000000005,198.35500000000008 L 385.2610000000005,198.51600000000008 L 385.09800000000047,198.59700000000007 L 384.8950000000005,198.59800000000007 L 384.86000000000047,198.68900000000008 L 385.1910000000005,199.24700000000007 L 385.4520000000005,199.81800000000007 L 385.4280000000005,200.35800000000006 L 385.1180000000005,200.86800000000005 L 384.8520000000005,201.16600000000005 L 384.6300000000005,201.25400000000005 L 383.3130000000005,202.51600000000005 L 382.9460000000005,202.67500000000004 L 382.7790000000005,202.83000000000004 L 382.6420000000005,203.06200000000004 L 382.2590000000005,204.09700000000004 L 382.10400000000055,204.41200000000003 L 381.79600000000056,204.82100000000003 L 381.66700000000054,204.89200000000002 L 381.63000000000056,205.05900000000003 L 381.68600000000055,205.32100000000003 L 381.60100000000057,205.75700000000003 L 381.37600000000054,206.36500000000004 L 380.60900000000055,208.03300000000004 L 379.99100000000055,209.57500000000005 L 379.72000000000054,210.07700000000006 L 379.52200000000056,210.28900000000004 L 379.39700000000056,210.21300000000005 L 379.09000000000054,210.25200000000004 L 378.94100000000054,210.52100000000004 L 378.80600000000055,211.00600000000006 L 378.65900000000056,211.37500000000006 L 378.50000000000057,211.62800000000004 L 377.26000000000056,212.71600000000004 L 376.94100000000054,212.91700000000003 L 376.65400000000056,212.79000000000002 L 376.31500000000057,212.83900000000003 L 375.6120000000006,212.26600000000002 L 375.4900000000006,212.055 L 375.03600000000057,211.582 L 375.05100000000056,211.829 L 375.1270000000006,211.965 L 375.19000000000057,212.16400000000002 L 375.34900000000056,212.40800000000002 L 375.70100000000053,213.685 L 375.4230000000005,213.946 L 375.1740000000005,214.243 L 374.5390000000005,214.744 L 373.8520000000005,215.58 L 373.5990000000005,215.81300000000002 L 373.5420000000005,215.132 L 373.5710000000005,214.928 L 373.1830000000005,214.597 L 373.1950000000005,214.835 L 373.1550000000005,215.05700000000002 L 372.8740000000005,215.93900000000002 L 372.7960000000005,216.091 L 372.6570000000005,216.05700000000002 L 372.3550000000005,216.21900000000002 L 372.04600000000045,216.14200000000002 L 371.78300000000047,215.74200000000002 L 371.6790000000005,215.53400000000002 L 371.2010000000005,216.10500000000002 L 370.96900000000045,216.09000000000003 L 370.93000000000046,216.56800000000004 L 370.70500000000044,217.00300000000004 L 370.4080000000004,217.19100000000003 L 369.9930000000004,217.17600000000004 L 369.7390000000004,217.43300000000005 L 369.1760000000004,217.15800000000004 L 369.0460000000004,216.64100000000005 L 369.4920000000004,215.93000000000004 L 369.6180000000004,215.63600000000002 L 369.5360000000004,215.27300000000002 L 369.6440000000004,214.80300000000003 L 370.4960000000004,213.30400000000003 L 371.0730000000004,212.54000000000002 L 371.04000000000036,212.40300000000002 L 370.25600000000037,212.23600000000002 L 369.57100000000037,211.973 L 368.9040000000004,211.883 L 368.6090000000004,211.972 L 369.0790000000004,212.412 L 369.7440000000004,212.838 L 369.4170000000004,213.244 L 369.13500000000045,213.674 L 368.8430000000005,214.839 L 368.65600000000046,215.314 L 367.93100000000044,214.769 L 367.5880000000004,214.584 L 367.80600000000044,215.189 L 368.44100000000043,215.761 L 368.4820000000004,215.94899999999998 L 368.4780000000004,216.62599999999998 L 367.2620000000004,217.22099999999998 L 365.9930000000004,217.31099999999998 L 365.0820000000004,217.47899999999998 L 363.5450000000004,217.683 L 362.94800000000043,217.683 L 362.89700000000045,217.911 L 364.40000000000043,218.947 L 364.6190000000004,219.136 L 364.4100000000004,219.49099999999999 L 364.09900000000044,219.71099999999998 L 363.61100000000044,220.468 L 363.35600000000045,220.72799999999998 L 362.72400000000044,221.08499999999998 L 361.56100000000043,220.68699999999998 L 360.9630000000004,220.86499999999998 L 360.3910000000004,220.73999999999998 L 360.3790000000004,221.17499999999998 L 360.5500000000004,221.492 L 360.7230000000004,222.277 L 361.1070000000004,222.21599999999998 L 361.5950000000004,221.96899999999997 L 361.97200000000043,222.56199999999995 L 362.2200000000004,223.56199999999995 L 362.6530000000004,224.06699999999995 L 362.8450000000004,224.45699999999994 L 362.9230000000004,224.82399999999993 L 362.6530000000004,225.18899999999994 L 362.0940000000004,225.70299999999995 L 361.4740000000004,225.79899999999995 L 361.5080000000004,226.20499999999996 L 361.2400000000004,226.49599999999995 L 360.6710000000004,226.41099999999994 L 360.40500000000037,226.20699999999994 L 360.12900000000036,226.11099999999993 L 358.99700000000036,226.00199999999992 L 360.13700000000034,226.78199999999993 L 360.5420000000003,227.14399999999992 L 360.7220000000003,226.92999999999992 L 361.1170000000003,226.87799999999993 L 361.70000000000033,227.07599999999994 L 361.60300000000035,228.38199999999995 L 361.85800000000035,229.43299999999994 L 361.88900000000035,229.66799999999995 L 361.26800000000037,230.29399999999995 L 361.2580000000004,230.87699999999995 L 360.8880000000004,231.03899999999996 L 360.49000000000035,231.00199999999995 L 360.46900000000034,231.63899999999995 L 360.19900000000035,232.03499999999994 L 360.24700000000036,232.28299999999993 L 360.32400000000035,232.50399999999993 L 360.0780000000004,232.90599999999992 L 359.8560000000004,233.39399999999992 L 359.5380000000004,233.8199999999999 L 359.3700000000004,233.7759999999999 L 358.8650000000004,233.8039999999999 L 358.2580000000004,233.7679999999999 L 357.76600000000036,233.21399999999988 L 357.56200000000035,233.02899999999988 L 357.33200000000033,232.90799999999987 L 357.42000000000036,233.26499999999987 L 357.55800000000033,233.47899999999987 L 358.01200000000034,233.87899999999988 L 358.84800000000035,234.37199999999987 L 358.82200000000034,234.72099999999986 L 358.59900000000033,234.87199999999987 L 358.0780000000003,235.81699999999987 L 357.8930000000003,235.83799999999985 L 357.65900000000033,236.08099999999985 L 356.93700000000035,235.99899999999985 L 356.63400000000036,235.90199999999984 L 355.74300000000034,235.96399999999986 L 355.44000000000034,235.88099999999986 L 355.18000000000035,235.92099999999985 L 355.42200000000037,236.18699999999984 L 355.93200000000036,236.42599999999985 L 356.51200000000034,236.66599999999985 L 357.39400000000035,236.84699999999987 L 357.36200000000036,237.18899999999988 L 357.14100000000036,237.46899999999988 L 357.26800000000037,237.88599999999988 L 357.1690000000004,238.18399999999988 L 357.1270000000004,238.5379999999999 L 356.9210000000004,239.3579999999999 L 357.1610000000004,239.9179999999999 L 357.4220000000004,240.1909999999999 L 357.39200000000045,240.5499999999999 L 357.51500000000044,241.1219999999999 L 357.12300000000045,241.6309999999999 L 356.79800000000046,241.61199999999988 L 356.33500000000043,241.72599999999989 L 356.18100000000044,241.94999999999987 L 356.9150000000004,242.1609999999999 L 356.8480000000004,242.53999999999988 L 356.6480000000004,243.01399999999987 L 356.43800000000044,244.03499999999985 L 356.0110000000004,245.77299999999985 L 355.81100000000043,247.48299999999986 L 354.89400000000046,248.87699999999987 L 354.56900000000047,248.91599999999985 L 354.4870000000005,248.97099999999986 L 354.0400000000005,248.89999999999986 L 353.3380000000005,248.57899999999987 L 352.79500000000047,248.47299999999987 L 352.42800000000045,248.46899999999988 L 352.3810000000004,248.62899999999988 L 352.6850000000004,248.8869999999999 L 353.1500000000004,248.9949999999999 L 353.5220000000004,249.16599999999988 L 354.18900000000036,249.32499999999987 L 354.4210000000004,249.63299999999987 L 354.5800000000004,249.96099999999987 L 354.55700000000036,250.14099999999988 L 354.5560000000004,250.35299999999987 L 354.6750000000004,251.49199999999988 L 354.3610000000004,251.88399999999987 L 354.1210000000004,252.2379999999999 L 353.28800000000035,252.18899999999988 L 353.14300000000037,252.06499999999988 L 352.3390000000004,251.6919999999999 L 352.3880000000004,251.8669999999999 L 352.97000000000037,252.3729999999999 L 353.17300000000034,252.62499999999991 L 353.0370000000003,252.6769999999999 L 352.8020000000003,252.6959999999999 L 352.4750000000003,252.8659999999999 L 351.8840000000003,252.7739999999999 L 351.9170000000003,252.5189999999999 L 352.02900000000034,252.2559999999999 L 351.75900000000036,252.30099999999987 L 351.45800000000037,252.43399999999988 L 351.28300000000036,252.38499999999988 L 351.13700000000034,252.39999999999986 L 351.0540000000003,252.26799999999986 L 350.94000000000034,251.75299999999987 L 351.07600000000036,251.4939999999999 L 351.5630000000004,250.8219999999999 L 351.71800000000036,250.4599999999999 L 351.58300000000037,250.2949999999999 L 351.23500000000035,250.6829999999999 L 350.8760000000004,251.29799999999992 L 350.71600000000035,251.66899999999993 L 350.4910000000003,251.74099999999993 L 349.9320000000003,251.55399999999992 L 348.3410000000003,250.69299999999993 L 348.3880000000003,250.16799999999992 L 348.37300000000033,249.7319999999999 L 348.83700000000033,249.6769999999999 L 349.1740000000003,249.4869999999999 L 349.47600000000034,249.2539999999999 L 349.8160000000003,248.8289999999999 L 350.1280000000003,248.1249999999999 L 350.0880000000003,248.07099999999988 L 349.1730000000003,248.96899999999988 L 348.6100000000003,249.2679999999999 L 348.3380000000003,249.3229999999999 L 348.2020000000003,249.1909999999999 L 347.7490000000003,248.90299999999988 L 347.4550000000003,248.77199999999988 L 346.78400000000033,248.55799999999988 L 346.6650000000003,248.44299999999987 L 346.4680000000003,248.35099999999986 L 346.20000000000033,247.43099999999987 L 346.54600000000033,246.30699999999987 L 346.78400000000033,245.97899999999987 L 346.93500000000034,245.59899999999988 L 347.0200000000003,245.09399999999988 L 346.9610000000003,244.87799999999987 L 346.7590000000003,244.95199999999988 L 346.6650000000003,245.1249999999999 L 346.6800000000003,245.39599999999987 L 346.5640000000003,245.58399999999986 L 345.7640000000003,246.01499999999987 L 344.9620000000003,246.36399999999986 L 344.5820000000003,246.69399999999987 L 344.33500000000026,246.95099999999988 L 344.1420000000003,247.2029999999999 L 343.84700000000026,247.1809999999999 L 343.4400000000003,247.23199999999989 L 343.1610000000003,247.39599999999987 L 342.75300000000027,247.29499999999987 L 342.48700000000025,247.05199999999988 L 342.1660000000002,247.0239999999999 L 341.8060000000002,247.14099999999988 L 341.5570000000002,247.1309999999999 L 341.5780000000002,247.29599999999988 L 341.7440000000002,247.70099999999988 L 341.4690000000002,247.72799999999987 L 340.94700000000023,247.74399999999986 L 340.68400000000025,247.62599999999986 L 340.47800000000024,247.47199999999987 L 340.30700000000024,247.25699999999986 L 340.41000000000025,246.97499999999985 L 341.2500000000002,246.45699999999985 L 341.6310000000002,246.15599999999986 L 341.3820000000002,246.05299999999986 L 340.5760000000002,246.14599999999984 L 340.4420000000002,246.06799999999984 L 339.90200000000016,246.11499999999984 L 339.9250000000002,245.33999999999983 L 339.7940000000002,245.14699999999982 L 339.7850000000002,245.0559999999998 L 339.5980000000002,244.8389999999998 L 339.42100000000016,244.7849999999998 L 339.31100000000015,244.7069999999998 L 338.39900000000017,244.53199999999978 L 338.28000000000014,244.09699999999978 L 338.21700000000016,243.64799999999977 L 338.0430000000002,243.08899999999977 L 337.60600000000017,242.94299999999978 L 337.3700000000002,242.6999999999998 L 337.55800000000016,242.4509999999998 L 337.64000000000016,242.1349999999998 L 337.43800000000016,241.98999999999978 L 337.30900000000014,241.76699999999977 L 337.32800000000015,241.62199999999976 L 337.16400000000016,241.22899999999976 L 337.1150000000002,240.92199999999977 L 337.30300000000017,240.63299999999978 L 337.8190000000002,240.30599999999978 L 337.98600000000016,240.17399999999978 L 338.0720000000002,240.03099999999978 L 338.66400000000016,239.78999999999976 L 338.16000000000014,239.61999999999978 L 337.84500000000014,239.59399999999977 L 337.6150000000001,239.67399999999978 L 337.40300000000013,239.99399999999977 L 337.20500000000015,240.20599999999976 L 336.43300000000016,240.27499999999975 L 336.3190000000002,240.16499999999974 L 336.2650000000002,239.71299999999974 L 336.3090000000002,239.36399999999975 L 336.6300000000002,238.87199999999976 L 336.2600000000002,238.62799999999976 L 335.9210000000002,238.54799999999975 L 335.53600000000023,238.31899999999973 L 335.18000000000023,238.07699999999974 L 334.87400000000025,237.79499999999973 L 334.57600000000025,237.46199999999973 L 334.4810000000002,237.41999999999973 L 334.58800000000025,237.07099999999974 L 334.6490000000002,236.78299999999973 L 334.65800000000024,236.16299999999973 L 334.53800000000024,235.90499999999972 L 334.80500000000023,235.3729999999997 L 335.1640000000002,234.7899999999997 L 335.9580000000002,233.9209999999997 L 335.1180000000002,234.33999999999972 L 334.4280000000002,235.25099999999972 L 334.2820000000002,235.29299999999972 L 334.2310000000002,235.12799999999973 L 333.9690000000002,234.53699999999972 L 333.7720000000002,234.37499999999972 L 333.6840000000002,234.19699999999972 L 333.2910000000002,233.8799999999997 L 333.1210000000002,233.6359999999997 L 332.8790000000002,233.1639999999997 L 332.5350000000002,232.5999999999997 L 332.0460000000002,231.48299999999972 L 331.2560000000002,230.18799999999973 L 331.0610000000002,229.45599999999973 L 331.3060000000002,228.52299999999974 L 331.0350000000002,227.87699999999975 L 331.7850000000002,227.57699999999974 L 332.8580000000002,227.23999999999975 L 333.4150000000002,226.95899999999975 L 333.7360000000002,226.87499999999974 L 334.41800000000023,226.82299999999975 L 334.64600000000024,226.53999999999976 L 334.2670000000002,226.61199999999977 L 334.0120000000002,226.57499999999976 L 333.9960000000002,226.44299999999976 L 334.0900000000002,226.20799999999974 L 334.1510000000002,225.90399999999974 L 334.0210000000002,225.95899999999975 L 333.3540000000002,226.48199999999974 L 332.3680000000002,226.89599999999973 L 331.59800000000024,227.12599999999972 L 331.47300000000024,227.11399999999972 L 331.20300000000026,227.25299999999973 L 331.0480000000003,227.29299999999972 L 330.9280000000003,227.25299999999973 L 330.6560000000003,226.85699999999974 L 330.5830000000003,226.59799999999976 L 331.0720000000003,225.89299999999974 L 331.4370000000003,224.92699999999974 L 331.9200000000003,224.29199999999975 L 332.2610000000003,224.21199999999973 L 332.83200000000033,224.24599999999973 L 333.03300000000036,224.30199999999974 L 332.96900000000034,223.92499999999973 L 332.99300000000034,223.74199999999973 L 333.45600000000036,223.52199999999974 L 333.9960000000004,223.42399999999972 L 334.3800000000004,223.4929999999997 L 334.6220000000004,223.9369999999997 L 334.9330000000004,224.7529999999997 L 335.3520000000004,225.0279999999997 L 335.33300000000037,224.63699999999972 L 335.1160000000004,224.13199999999972 L 335.03500000000037,223.35399999999973 L 334.75900000000036,223.02499999999972 L 334.53800000000035,222.86299999999972 L 333.92600000000033,222.94199999999972 L 333.55800000000033,222.36999999999972 L 333.4750000000003,222.1599999999997 L 333.4660000000003,221.8799999999997 L 333.0980000000003,221.0559999999997 L 332.9800000000003,220.6419999999997 L 332.7850000000003,220.08999999999972 L 332.6810000000003,220.05999999999972 L 332.81300000000033,220.7549999999997 L 332.98500000000035,221.2419999999997 L 333.23100000000034,222.3079999999997 L 333.35300000000035,222.7359999999997 L 333.18800000000033,223.0739999999997 L 332.87700000000035,223.4079999999997 L 332.6020000000004,223.60699999999972 L 331.9520000000004,223.84499999999971 L 332.0920000000004,223.3249999999997 L 332.1810000000004,222.8129999999997 L 331.8540000000004,222.9949999999997 L 331.5500000000004,223.3669999999997 L 331.4450000000004,223.88099999999972 L 331.2500000000004,224.34599999999972 L 330.6710000000004,225.48299999999972 L 330.4430000000004,226.1109999999997 L 330.2270000000004,226.4199999999997 L 329.9810000000004,226.5049999999997 L 329.76800000000037,226.2599999999997 L 329.5870000000004,225.6829999999997 L 329.5020000000004,225.2299999999997 L 329.4920000000004,224.0499999999997 L 329.51500000000044,223.4969999999997 L 329.41600000000045,222.7489999999997 L 329.10300000000046,220.99599999999973 L 329.0370000000005,220.36699999999973 L 328.5080000000005,220.03199999999973 L 328.5000000000005,219.92399999999972 L 328.36200000000053,219.5639999999997 L 328.2550000000005,219.20299999999972 L 328.34300000000053,219.0709999999997 L 328.4690000000005,218.97599999999971 L 329.2600000000005,218.44199999999972 L 329.8460000000005,217.84199999999973 L 330.54700000000054,216.89699999999974 L 330.83300000000054,216.60299999999972 L 331.86100000000056,216.37599999999972 L 332.3170000000006,216.34499999999971 L 332.31300000000056,216.1759999999997 L 332.16000000000054,216.1089999999997 L 331.4660000000005,216.1529999999997 L 330.5410000000005,216.5329999999997 L 330.3820000000005,216.6699999999997 L 329.97700000000054,217.2589999999997 L 329.66500000000053,217.5799999999997 L 328.78700000000055,218.3109999999997 L 328.21700000000055,218.3109999999997 L 327.62900000000053,217.4349999999997 L 326.97200000000055,217.6029999999997 L 326.52900000000056,217.5449999999997 L 326.40000000000055,217.4129999999997 L 326.30200000000053,216.2089999999997 L 326.65900000000056,214.7939999999997 L 326.27300000000054,214.7799999999997 L 326.19300000000055,214.7229999999997 L 325.98900000000054,214.3989999999997 L 325.85600000000056,214.30199999999968 L 325.95500000000055,214.12999999999968 L 326.9060000000006,213.4539999999997 L 328.3290000000006,212.1199999999997 L 328.9410000000006,211.5929999999997 L 329.3190000000006,211.3649999999997 L 329.6050000000006,211.1039999999997 L 329.9530000000006,210.5359999999997 L 330.0680000000006,210.2869999999997 L 330.2620000000006,210.0859999999997 L 330.6710000000006,209.8589999999997 L 331.1180000000006,209.5149999999997 L 331.84300000000064,208.7389999999997 L 331.93800000000067,208.45099999999968 L 331.78000000000065,208.38399999999967 L 331.44100000000066,208.64999999999966 L 330.75200000000063,209.35999999999967 L 330.2600000000006,209.75799999999967 L 328.58100000000064,211.52899999999966 L 327.86600000000067,212.16899999999964 L 327.47700000000066,212.57699999999963 L 327.17500000000064,212.96499999999963 L 326.8560000000006,213.24099999999964 L 326.5180000000006,213.40599999999964 L 325.79800000000057,213.52899999999963 L 325.4440000000006,213.67199999999963 L 325.23100000000056,213.5679999999996 L 325.13700000000057,212.7399999999996 L 325.2090000000006,212.24799999999962 L 325.1750000000006,211.76099999999963 L 325.3550000000006,211.06099999999964 L 325.6220000000006,210.56399999999962 L 325.7340000000006,210.29299999999964 L 325.78100000000063,210.10699999999963 L 326.33100000000064,209.58999999999963 L 326.63400000000064,209.36099999999962 L 326.84800000000064,208.8409999999996 L 328.06900000000064,208.6559999999996 L 328.38400000000064,208.6749999999996 L 328.5510000000006,208.60499999999962 L 328.6760000000006,208.4539999999996 L 328.55500000000063,208.33699999999962 L 328.18900000000065,208.25399999999962 L 327.21600000000063,208.2699999999996 L 326.31700000000063,208.1809999999996 L 325.9070000000006,208.0909999999996 L 325.70900000000063,208.1429999999996 L 325.38200000000063,207.99099999999962 L 325.0250000000006,207.69999999999962 L 324.47100000000063,206.62799999999962 L 324.6930000000006,205.24199999999962 L 324.7120000000006,204.57599999999962 L 325.4160000000006,203.99099999999962 L 325.7920000000006,203.79699999999963 L 326.3260000000006,203.35499999999962 L 327.0390000000006,202.60099999999963 L 327.8900000000006,202.13899999999964 L 328.32400000000064,202.05299999999963 L 328.68400000000065,202.11899999999963 L 330.01600000000064,202.77399999999963 L 330.70100000000065,202.90199999999962 L 331.3030000000006,202.7449999999996 L 332.0580000000006,202.97399999999962 L 333.39400000000063,203.9119999999996 L 333.6520000000006,203.7729999999996 L 333.5770000000006,203.5459999999996 L 332.0870000000006,202.5529999999996 L 332.0950000000006,202.2549999999996 L 332.47600000000057,202.1769999999996 L 332.88300000000055,201.8869999999996 L 332.65400000000056,201.7149999999996 L 331.66400000000056,201.8639999999996 L 331.37800000000055,202.1019999999996 L 330.4180000000006,202.2249999999996 L 329.9170000000006,202.0229999999996 L 329.4670000000006,201.9219999999996 L 328.7920000000006,201.4899999999996 L 328.2270000000006,201.6309999999996 L 327.8700000000006,201.8009999999996 L 327.2390000000006,201.9619999999996 L 327.0110000000006,202.0769999999996 L 325.7780000000006,203.4289999999996 L 325.2590000000006,203.7089999999996 L 324.89000000000055,203.6169999999996 L 325.14900000000057,202.7389999999996 L 325.22400000000056,202.3909999999996 L 325.22400000000056,202.0119999999996 L 325.3310000000006,201.49099999999962 L 325.9630000000006,200.4939999999996 L 326.3600000000006,199.3959999999996 L 326.5280000000006,198.7109999999996 L 326.83900000000057,198.6339999999996 L 327.26300000000055,198.7349999999996 L 328.53700000000055,199.17899999999958 L 329.59700000000055,199.70699999999957 L 330.37900000000053,199.84799999999956 L 330.89300000000054,199.86299999999954 L 331.11300000000057,199.69499999999954 L 331.28700000000055,199.40199999999953 L 331.35400000000055,199.19899999999953 L 331.40400000000056,198.78299999999953 L 331.4630000000006,198.63499999999954 L 331.6350000000006,198.45299999999955 L 331.9860000000006,197.81799999999956 L 332.09300000000064,197.36499999999955 L 331.97800000000063,197.09999999999957 L 331.74400000000065,197.12699999999955 L 331.28700000000066,197.30099999999956 L 331.22500000000065,197.37299999999956 L 331.23300000000063,197.51499999999956 L 330.79200000000066,198.21599999999955 L 330.31100000000066,198.37699999999955 L 329.20400000000063,198.61099999999956 L 328.69900000000064,198.62799999999956 L 327.8010000000006,198.30299999999957 L 327.6650000000006,198.17599999999956 L 327.57200000000057,197.93699999999956 L 326.4700000000006,197.99099999999956 L 326.1410000000006,198.06299999999956 L 325.8790000000006,198.03199999999956 L 326.0070000000006,197.61599999999956 L 326.3550000000006,197.15299999999957 L 326.8430000000006,195.63799999999958 L 327.2520000000006,195.2479999999996 L 328.0640000000006,194.8839999999996 L 328.91100000000057,194.94299999999959 L 330.37600000000054,196.11999999999958 L 330.81800000000055,196.22199999999958 L 331.2230000000005,196.12699999999958 L 332.1920000000005,195.73399999999958 L 332.3700000000005,195.5739999999996 L 332.7190000000005,195.08499999999958 L 333.1260000000005,194.24499999999958 L 333.1060000000005,194.04599999999957 L 332.4810000000005,194.51599999999956 L 332.1480000000005,194.64199999999957 L 331.8660000000005,194.64199999999957 L 332.1280000000005,193.09999999999957 L 332.2300000000005,191.90999999999957 L 332.3280000000005,191.61299999999957 L 333.1490000000005,191.70199999999957 L 334.2710000000005,191.53999999999957 L 334.5380000000005,191.27799999999957 L 334.5340000000005,191.16199999999955 L 334.0840000000005,191.00299999999956 L 333.86700000000053,190.66799999999955 L 333.4900000000005,190.77399999999955 L 332.9850000000005,190.99699999999956 L 332.3510000000005,190.97199999999955 L 332.4040000000005,190.45499999999956 L 332.8690000000005,189.36599999999956 L 332.9170000000005,188.86699999999956 L 333.09800000000047,187.86599999999956 L 333.1170000000005,187.34999999999957 L 333.3520000000005,186.84699999999958 L 334.0850000000005,186.48799999999957 L 334.3930000000005,186.27299999999957 L 334.4100000000005,186.03699999999958 L 333.97100000000046,185.13599999999957 L 334.08200000000045,184.88599999999957 L 334.4270000000005,184.65799999999956 L 334.55500000000046,184.49099999999956 L 334.46700000000044,184.38699999999955 L 334.15000000000043,184.28699999999955 L 333.66200000000043,184.48699999999954 L 333.1220000000004,184.58299999999954 L 332.6440000000004,184.28199999999956 L 332.2700000000004,184.13699999999955 L 332.0340000000004,184.18199999999953 L 331.3910000000004,184.69699999999952 L 331.1660000000004,184.71399999999952 L 330.8880000000004,184.57099999999951 L 329.0460000000004,184.12499999999952 L 328.8170000000004,183.96699999999953 L 328.1570000000004,183.19199999999952 L 327.6130000000004,182.6779999999995 L 326.8890000000004,182.11499999999953 L 325.9500000000004,181.68599999999952 L 324.79700000000037,181.3919999999995 L 324.10700000000037,181.11499999999953 L 323.7670000000004,180.72299999999953 L 323.18400000000037,179.85799999999952 L 322.7410000000004,179.13399999999953 L 322.65800000000036,178.77499999999952 L 322.91800000000035,178.32999999999953 L 323.18300000000033,178.00999999999954 L 323.68200000000036,177.74699999999953 L 324.54300000000035,177.83399999999952 L 325.00500000000034,177.9509999999995 L 325.51400000000035,178.20199999999952 L 325.89900000000034,178.2489999999995 L 326.6980000000003,178.1779999999995 L 327.5110000000003,178.3379999999995 L 327.9920000000003,178.5139999999995 L 328.6240000000003,178.8799999999995 L 330.36800000000034,180.42899999999952 L 331.09600000000034,180.96399999999952 L 331.4120000000003,181.0279999999995 L 332.7170000000003,181.5979999999995 L 332.92600000000033,181.5869999999995 L 333.4600000000003,181.3199999999995 L 333.5130000000003,181.1469999999995 L 333.3330000000003,180.97599999999952 L 332.7570000000003,180.8429999999995 L 332.0810000000003,180.2109999999995 L 331.6620000000003,179.70799999999952 L 331.6140000000003,178.8729999999995 L 331.6690000000003,178.4029999999995 L 331.77400000000034,178.1889999999995 L 331.84800000000035,177.4659999999995 L 331.45600000000036,177.03499999999948 L 331.18300000000033,176.8989999999995 L 330.45600000000036,176.2679999999995 L 330.3950000000004,176.11099999999948 L 330.74400000000037,176.03699999999947 L 331.08600000000035,176.07999999999947 L 331.81900000000036,176.39999999999947 L 332.2030000000004,176.44399999999948 L 332.48300000000035,176.31899999999948 L 332.5150000000003,176.1899999999995 L 332.0690000000003,175.82599999999948 L 331.5110000000003,175.1729999999995 L 330.3450000000003,175.07599999999948 L 329.58900000000034,175.1499999999995 L 329.10600000000034,174.9249999999995 L 328.5920000000003,174.5589999999995 L 328.2610000000003,174.4649999999995 L 327.5860000000003,174.69499999999948 L 327.2450000000003,174.72399999999948 L 326.9340000000003,174.6429999999995 L 326.6270000000003,173.4829999999995 L 326.7090000000003,173.1339999999995 L 326.9500000000003,172.9829999999995 L 327.1320000000003,172.60599999999948 L 327.2590000000003,172.21099999999947 L 327.6590000000003,171.82399999999947 L 329.85400000000027,170.95899999999946 L 330.40800000000024,170.31299999999948 L 330.38400000000024,170.21299999999948 L 330.0100000000002,170.3329999999995 L 329.5320000000002,170.6249999999995 L 329.2130000000002,170.6849999999995 L 327.9210000000002,170.30799999999948 L 327.7190000000002,170.3939999999995 L 327.1960000000002,170.9349999999995 L 326.4860000000002,171.5199999999995 L 326.1590000000002,171.4839999999995 L 325.72100000000023,171.1379999999995 L 325.6520000000002,170.89099999999948 L 325.62000000000023,170.59399999999948 L 326.1010000000002,170.1859999999995 L 326.2550000000002,169.9699999999995 L 326.5660000000002,169.3869999999995 L 326.5500000000002,169.0979999999995 L 326.0190000000002,169.2569999999995 L 325.95000000000016,168.9879999999995 L 325.95800000000014,168.52699999999948 L 325.90700000000015,167.94199999999947 L 325.77700000000016,167.36199999999945 L 325.3410000000002,166.46699999999944 L 325.1600000000002,166.23699999999945 L 325.0110000000002,165.90399999999946 L 324.6820000000002,164.68299999999945 L 324.7770000000002,164.37599999999946 L 325.0690000000002,164.14299999999946 L 325.12500000000017,164.03599999999946 L 324.42800000000017,164.22899999999947 L 324.35200000000015,164.44099999999946 L 324.4830000000001,164.75399999999945 L 324.5770000000001,165.16999999999945 L 324.6330000000001,165.68799999999945 L 324.7300000000001,166.13999999999945 L 324.9820000000001,166.63399999999945 L 325.1840000000001,166.89299999999943 L 325.5130000000001,167.57699999999943 L 325.6570000000001,168.32599999999942 L 325.6150000000001,168.71899999999943 L 325.3600000000001,169.11799999999943 L 324.94800000000015,169.54699999999943 L 324.82300000000015,169.90199999999942 L 324.76700000000017,170.25499999999943 L 324.44600000000014,170.58099999999942 L 324.24900000000014,170.4589999999994 L 324.09300000000013,170.4399999999994 L 324.27700000000016,171.0199999999994 L 324.3960000000002,171.61199999999943 L 324.2530000000002,172.20299999999943 L 323.87200000000024,172.55999999999943 L 323.66500000000025,172.57099999999943 L 323.25800000000027,172.85999999999942 L 322.2160000000003,173.01099999999943 L 321.8530000000003,172.93999999999943 L 321.1880000000003,172.64699999999942 L 320.3990000000003,172.48699999999943 L 320.0860000000003,172.09099999999944 L 319.6760000000003,171.36799999999943 L 319.4690000000003,170.71799999999942 L 319.46500000000026,170.14099999999942 L 319.57600000000025,169.71999999999943 L 319.80200000000025,169.45399999999944 L 320.07400000000024,167.74699999999945 L 320.45800000000025,166.35599999999945 L 321.42500000000024,164.90999999999946 L 321.70100000000025,164.38399999999945 L 321.79200000000026,164.10099999999946 L 321.7910000000003,163.88499999999945 L 321.6350000000003,163.74799999999945 L 320.44600000000025,165.54299999999944 L 319.71300000000025,165.73299999999944 L 319.49400000000026,165.33099999999945 L 319.56000000000023,164.61499999999944 L 319.6910000000002,164.44799999999944 L 320.2840000000002,164.51599999999945 L 320.51400000000024,164.11599999999945 L 320.14300000000026,163.50999999999945 L 319.7480000000003,163.34999999999945 L 319.6560000000003,163.19699999999946 L 320.0620000000003,162.73299999999946 L 321.0020000000003,162.76699999999946 L 321.2140000000003,162.44199999999947 L 321.55400000000026,162.09099999999947 L 321.93200000000024,161.43699999999947 L 322.07300000000026,160.88499999999948 L 322.10500000000025,160.40999999999948 L 322.02300000000025,160.0259999999995 L 322.01500000000027,159.6399999999995 L 322.0790000000003,159.2519999999995 L 321.9800000000003,158.8219999999995 L 321.7190000000003,158.34999999999948 L 321.13800000000026,157.8879999999995 L 320.96700000000027,158.40999999999948 L 320.7860000000003,158.62399999999948 L 320.53200000000027,158.67199999999949 L 320.2980000000003,158.4519999999995 L 320.0530000000003,158.37299999999948 L 319.8130000000003,158.17699999999948 L 319.5630000000003,158.1139999999995 L 319.4660000000003,157.9559999999995 L 319.4030000000003,157.51199999999952 L 319.3980000000003,156.94599999999951 L 319.6800000000003,156.67999999999952 L 320.07300000000026,156.47099999999952 L 320.33600000000024,156.07399999999953 L 320.50900000000024,155.49699999999953 L 320.5340000000002,154.86399999999952 L 320.41100000000023,154.17599999999953 L 320.0920000000002,153.55499999999952 L 319.5010000000002,154.15899999999954 L 319.2690000000002,154.30699999999953 L 319.2160000000002,153.87499999999955 L 319.1340000000002,153.55499999999955 L 318.8860000000002,153.11899999999955 L 318.5590000000002,152.80099999999953 L 318.2450000000002,152.58899999999954 L 318.23100000000017,152.26599999999954 L 318.3050000000002,151.90099999999953 L 318.44500000000016,151.47499999999954 L 318.62600000000015,150.58199999999954 L 318.82500000000016,150.66199999999955 L 318.99100000000016,150.57999999999956 L 318.89500000000015,149.83899999999954 L 318.7350000000001,149.21399999999954 L 318.54700000000014,148.85699999999954 L 318.54000000000013,148.70199999999954 L 318.4970000000001,148.51999999999956 L 318.35200000000015,148.07899999999955 L 318.18900000000014,147.75499999999954 L 317.90500000000014,146.83399999999955 L 317.70000000000016,146.48099999999954 L 317.4370000000002,146.29799999999955 L 317.15400000000017,146.28799999999956 L 316.6990000000002,146.53199999999956 L 315.8600000000002,146.81199999999956 L 315.19500000000016,146.94499999999957 L 315.0840000000002,146.87199999999956 L 315.4170000000002,146.52099999999956 L 315.9070000000002,146.15499999999955 L 316.55500000000023,145.90599999999955 L 316.74400000000026,145.29399999999956 L 316.67400000000026,144.76299999999955 L 316.70100000000025,144.25799999999956 L 316.52300000000025,143.72499999999957 L 316.69600000000025,143.42899999999958 L 317.28600000000023,143.12999999999957 L 317.5540000000002,143.08399999999958 L 317.8200000000002,142.70299999999958 L 317.07200000000023,141.77999999999957 L 316.28800000000024,141.17299999999958 L 316.0920000000002,140.92499999999959 L 315.9200000000002,140.5169999999996 L 315.77200000000016,139.9469999999996 L 315.53000000000014,139.3749999999996 L 315.19600000000014,138.7989999999996 L 314.70800000000014,138.24199999999962 L 313.45000000000016,137.21799999999962 L 313.01800000000014,136.5079999999996 L 312.6200000000001,135.4159999999996 L 312.4210000000001,134.9479999999996 L 312.2140000000001,134.6009999999996 L 311.33800000000014,133.7849999999996 L 311.23200000000014,133.4229999999996 L 312.1370000000001,132.45499999999961 L 312.22500000000014,132.0669999999996 L 311.85500000000013,130.8819999999996 L 311.47700000000015,130.0099999999996 L 311.06500000000017,129.6989999999996 L 310.45200000000017,129.5389999999996 L 309.89000000000016,129.1489999999996 L 309.37900000000013,128.5289999999996 L 308.86900000000014,128.0739999999996 L 308.10500000000013,127.63999999999959 L 306.8270000000001,126.5189999999996 L 304.8570000000001,125.3109999999996 L 303.9770000000001,124.6009999999996 L 303.4530000000001,124.3419999999996 L 302.7630000000001,124.2759999999996 L 301.4280000000001,123.6089999999996 L 300.3060000000001,123.3949999999996 L 299.6140000000001,123.4929999999996 L 299.3880000000001,123.38199999999959 L 298.8760000000001,122.7009999999996 L 298.0750000000001,122.3089999999996 L 297.6610000000001,122.4579999999996 L 297.1470000000001,123.1879999999996 L 296.5270000000001,123.9049999999996 L 296.1970000000001,124.0019999999996 L 295.7070000000001,123.3469999999996 L 295.4600000000001,122.8879999999996 L 295.2240000000001,122.7309999999996 L 294.9990000000001,122.87899999999959 L 294.5610000000001,123.48199999999959 L 294.1440000000001,123.91599999999958 L 293.5270000000001,124.42999999999958 L 293.0340000000001,124.67599999999958 L 292.4010000000001,124.73599999999958 L 292.24200000000013,124.92199999999958 L 291.9980000000001,124.92999999999958 L 291.67000000000013,124.76199999999957 L 291.36200000000014,124.42799999999957 L 291.07500000000016,123.92699999999957 L 290.8220000000002,123.65599999999957 L 290.60200000000015,123.61599999999956 L 290.09700000000015,123.87599999999956 L 289.45800000000014,124.63799999999956 L 289.16600000000017,124.82099999999957 L 288.92100000000016,124.74199999999958 L 288.62100000000015,124.50499999999958 L 288.02000000000015,123.89699999999958 L 287.6870000000001,123.95599999999958 L 287.4450000000001,124.16899999999957 L 287.5120000000001,124.67299999999958 L 288.0750000000001,125.86299999999957 L 288.5780000000001,126.70599999999958 L 288.1530000000001,126.80499999999958 L 284.4410000000001,125.66399999999958 L 283.9680000000001,125.38799999999958 L 283.2850000000001,124.69299999999959 L 282.7170000000001,124.26499999999959 L 281.7500000000001,123.15399999999958 L 281.0050000000001,122.54999999999959 L 280.7580000000001,122.07599999999958 L 280.6930000000001,121.74899999999958 L 280.9300000000001,121.30599999999959 L 282.4300000000001,119.80299999999959 L 283.0030000000001,119.49799999999958 L 284.1690000000001,119.13299999999958 L 284.4440000000001,118.90399999999958 L 284.53600000000006,118.72199999999958 L 284.2300000000001,118.39299999999959 L 282.7030000000001,118.51099999999958 L 281.3430000000001,118.29099999999958 L 280.15900000000005,117.68399999999959 L 279.95300000000003,117.48199999999959 L 279.752,117.10899999999958 L 279.557,116.56499999999959 L 279.601,115.95399999999958 L 279.885,115.27499999999958 L 280.05199999999996,114.80699999999958 L 280.10099999999994,114.55299999999957 L 278.61299999999994,116.22499999999957 L 278.00499999999994,116.80699999999956 L 277.5229999999999,116.62899999999956 L 277.1849999999999,116.35399999999956 L 277.0189999999999,116.04699999999956 L 277.02499999999986,115.70799999999956 L 277.07999999999987,115.45999999999955 L 277.1829999999999,115.30499999999955 L 276.3959999999999,114.61099999999955 L 276.0419999999999,114.06399999999955 L 276.0039999999999,113.49799999999955 L 276.2829999999999,112.91199999999955 L 276.5559999999999,112.48599999999955 L 276.8229999999999,112.21899999999955 L 277.55099999999993,111.98699999999955 L 280.20899999999995,111.54199999999956 L 282.11199999999997,111.96899999999957 L 282.76,110.54999999999957 L 283.198,110.09499999999957 L 284.47799999999995,109.61999999999958 L 286.448,109.55399999999958 L 287.839,109.81699999999958 L 288.491,110.15199999999957 L 289.37899999999996,110.88899999999957 L 289.42999999999995,110.66699999999958 L 289.21599999999995,110.00099999999958 L 289.20099999999996,109.44599999999957 L 289.55999999999995,108.47699999999958 L 289.72499999999997,107.86599999999957 L 289.61299999999994,107.22699999999958 L 289.22299999999996,106.55999999999958 L 288.53299999999996,105.69999999999958 L 288.16099999999994,105.62899999999958 L 287.74799999999993,105.83699999999958 L 287.25199999999995,106.31399999999958 L 286.22099999999995,107.50999999999958 L 285.7339999999999,107.75899999999957 L 284.9219999999999,107.82199999999958 L 284.4729999999999,107.67199999999957 L 284.0389999999999,107.49299999999957 L 283.3609999999999,106.85999999999957 L 283.11399999999986,106.74099999999957 L 282.81399999999985,107.01899999999958 L 282.4619999999999,107.69199999999958 L 282.1229999999999,108.16199999999958 L 281.7959999999999,108.42999999999958 L 281.4909999999999,108.54599999999958 L 281.0649999999999,108.49099999999957 L 279.3099999999999,107.44699999999958 L 278.9139999999999,106.97999999999958 L 278.89099999999985,106.26999999999958 L 278.35199999999986,105.57899999999958 L 277.7429999999999,105.45799999999959 L 277.66899999999987,105.22599999999959 L 278.44099999999986,104.1529999999996 L 279.0169999999999,103.7129999999996 L 278.9249999999999,103.5799999999996 L 278.0889999999999,103.5569999999996 L 277.52499999999986,104.1299999999996 L 277.2019999999999,104.22699999999959 L 276.4589999999999,104.2429999999996 L 275.6789999999999,103.95599999999959 L 275.3469999999999,103.70499999999959 L 275.00299999999993,103.12699999999958 L 274.6169999999999,102.80099999999959 L 273.4519999999999,102.3049999999996 L 273.1889999999999,102.0339999999996 L 272.9399999999999,101.5829999999996 L 271.9879999999999,100.2999999999996 L 271.41199999999986,99.3509999999996 L 271.3369999999999,98.8099999999996 L 272.0019999999999,97.6429999999996 L 272.0309999999999,97.3719999999996 L 271.74599999999987,96.8649999999996 L 271.62699999999984,96.4899999999996 L 271.72499999999985,95.97099999999959 L 272.30699999999985,94.81599999999959 L 272.52299999999985,94.5019999999996 L 273.56599999999986,93.81899999999959 L 274.6109999999999,92.82099999999959 L 274.9909999999999,92.59599999999959 L 275.32999999999987,92.54399999999958 L 276.70299999999986,92.60399999999959 L 277.1279999999999,92.35699999999959 L 277.48899999999986,91.86699999999959 L 278.0819999999999,91.36899999999959 L 279.3189999999999,90.60999999999959 L 282.0689999999999,89.45599999999959 L 282.2479999999999,89.31899999999959 L 282.2639999999999,89.09899999999959 L 282.0169999999999,88.49999999999959 L 281.96499999999986,88.20999999999958 L 282.52799999999985,87.66999999999958 L 283.79899999999986,86.81499999999957 L 284.6679999999999,86.40199999999957 L 285.2269999999999,86.37199999999957 L 285.67799999999994,86.18699999999957 L 286.3109999999999,85.64499999999957 L 286.6689999999999,85.54899999999957 L 288.83199999999994,85.33599999999957 L 289.78899999999993,85.63199999999958 L 290.25899999999996,85.62599999999958 L 290.561,85.41599999999958 L 290.96,84.79899999999958 L 291.70599999999996,83.25699999999958 L 292.09899999999993,82.29199999999958 L 292.4699999999999,80.81299999999958 L 292.9489999999999,78.47499999999958 L 293.3069999999999,76.16199999999958 L 293.5439999999999,73.87299999999958 L 293.7289999999999,72.46299999999958 L 293.8599999999999,71.95499999999959 L 294.3089999999999,71.30899999999959 L 294.77699999999993,70.80299999999959 L 295.5809999999999,70.35399999999959 L 295.5079999999999,70.1439999999996 L 295.1669999999999,69.79199999999959 L 294.8499999999999,69.65699999999958 L 294.5569999999999,69.73799999999959 L 294.0219999999999,70.2689999999996 L 293.3289999999999,70.62799999999959 L 292.6559999999999,70.57199999999959 L 292.1709999999999,70.70499999999959 L 291.7259999999999,71.18899999999958 L 291.0049999999999,71.57699999999959 L 290.5239999999999,71.48899999999959 L 289.65499999999986,70.7939999999996 L 289.21699999999987,70.6639999999996 L 288.1059999999999,70.7299999999996 L 287.7809999999999,70.4709999999996 L 287.4969999999999,69.9639999999996 L 287.2709999999999,69.2539999999996 L 287.1019999999999,68.3359999999996 L 287.12499999999994,67.3769999999996 L 287.5249999999999,65.6309999999996 L 287.67799999999994,65.1519999999996 L 288.76099999999997,63.174999999999606 L 289.42799999999994,62.24199999999961 L 290.0919999999999,61.53999999999961 L 290.57499999999993,61.12599999999961 L 291.03099999999995,60.93999999999961 L 291.46899999999994,60.501999999999605 L 292.27399999999994,59.083999999999605 L 293.10499999999996,57.858999999999604 L 294.13899999999995,55.5579999999996 L 294.63899999999995,54.9489999999996 L 296.38999999999993,53.9329999999996 L 296.86599999999993,53.916999999999604 L 297.2699999999999,54.169999999999604 L 297.6529999999999,54.69899999999961 L 298.7279999999999,56.986999999999604 L 298.8119999999999,56.916999999999604 L 298.6239999999999,56.053999999999604 L 298.2319999999999,53.4449999999996 L 298.2949999999999,52.3599999999996 L 298.9099999999999,51.1919999999996 L 299.1619999999999,50.9829999999996 L 299.8109999999999,51.0609999999996 L 300.85799999999995,51.422999999999604 L 301.55799999999994,51.818999999999605 L 302.08899999999994,52.46099999999961 L 302.7199999999999,52.857999999999606 L 303.0469999999999,52.8379999999996 L 303.2799999999999,52.531999999999606 L 303.6139999999999,51.5299999999996 L 304.0489999999999,49.8169999999996 L 304.2229999999999,47.6809999999996 L 304.1369999999999,45.1049999999996 L 304.0109999999999,43.1969999999996 L 303.8429999999999,41.9829999999996 L 303.9349999999999,40.9639999999996 L 304.4619999999999,39.7329999999996 L 304.9449999999999,38.8279999999996 L 306.09699999999987,37.5399999999996 L 307.03199999999987,37.1959999999996 L 307.58599999999984,37.2829999999996 L 308.3149999999998,37.888999999999605 L 309.32599999999985,38.25999999999961 L 310.23899999999986,39.424999999999606 L 311.71799999999985,42.06999999999961 L 312.69899999999984,43.38199999999961 L 313.51199999999983,43.967999999999606 L 314.3129999999998,44.96099999999961 L 315.49699999999984,47.04499999999961 L 316.11699999999985,47.930999999999614 L 316.48499999999984,48.250999999999614 L 316.80999999999983,48.301999999999616 L 316.68899999999985,47.713999999999615 L 316.1229999999999,46.478999999999616 L 315.2569999999999,45.10799999999961 L 313.3359999999999,42.61499999999961 L 312.2769999999999,40.83099999999961 L 311.32799999999986,38.77299999999961 L 310.6299999999999,37.53599999999961 L 309.36399999999986,36.29999999999961 L 309.38099999999986,35.804999999999616 L 310.9089999999999,34.05099999999962 L 313.71699999999987,32.50899999999962 L 316.8819999999999,31.292999999999616 L 317.9409999999999,31.417999999999616 L 319.8019999999999,30.906999999999616 L 319.9769999999999,30.131999999999618 L 320.3769999999999,29.782999999999618 L 322.1099999999999,28.694999999999617 L 322.6069999999999,28.709999999999617 L 323.3699999999999,29.226999999999617 L 324.1829999999999,30.20799999999962 L 324.55899999999986,31.090999999999617 L 325.0699999999999,32.59599999999962 L 325.3199999999999,34.691999999999624 L 325.28199999999987,41.135999999999626 L 325.2959999999999,42.325999999999624 L 325.3939999999999,42.782999999999625 L 325.7469999999999,42.10199999999963 L 326.1679999999999,40.83099999999963 L 326.5469999999999,39.925999999999625 L 326.8379999999999,38.51899999999962 L 327.0419999999999,36.59899999999962 L 327.1629999999999,35.16099999999962 L 326.6679999999999,33.52099999999962 L 326.6439999999999,30.790999999999617 L 326.8919999999999,29.316999999999616 L 327.58499999999987,29.316999999999616 L 330.4519999999999,34.35199999999962 L 331.57999999999987,35.41899999999962 L 332.86399999999986,38.03599999999962 L 334.36399999999986,37.759999999999614 L 335.7479999999999,38.07899999999962 L 336.3599999999999,37.98399999999962 L 336.6619999999999,37.579999999999615 L 336.2319999999999,36.496999999999616 L 334.2659999999999,33.48299999999961 L 333.37299999999993,31.077999999999612 L 332.74799999999993,28.02699999999961 L 332.59599999999995,26.38199999999961 L 333.07399999999996,26.083999999999612 L 335.27,26.118999999999613 L 338.57,27.54799999999961 L 342.79,32.39599999999961 L 344.867,33.96899999999961 L 348.589,39.35099999999961 L 349.712,40.14899999999961 L 350.16499999999996,40.31599999999961 L 350.50699999999995,39.66499999999961 L 350.71799999999996,38.95499999999961 L 350.734,38.00399999999961 L 350.554,36.80799999999961 L 350.45,35.41399999999961 L 350.424,33.81699999999961 L 350.676,30.60699999999961 L 351.276,29.54599999999961 L 351.541,28.33799999999961 L 351.294,26.13499999999961 L 350.591,24.60899999999961 L 347.854,20.61199999999961 L 347.84299999999996,20.12899999999961 L 348.39599999999996,19.59599999999961 L 349.21599999999995,19.28299999999961 L 355.99899999999997,20.25199999999961 L 357.171,20.60599999999961 L 357.671,20.952999999999612 L 357.89,21.409999999999613 L 358.171,21.604999999999613 L 359.628,21.060999999999613 L 359.59299999999996,20.06299999999961 L 359.41099999999994,19.42499999999961 L 351.53899999999993,17.66999999999961 L 350.07199999999995,17.06599999999961 L 349.32499999999993,17.019999999999612 L 348.55299999999994,17.48399999999961 L 346.95199999999994,17.71299999999961 L 346.21299999999997,17.62499999999961 L 345.25499999999994,15.509999999999609 L 346.12199999999996,12.92799999999961 L 346.852,12.98699999999961 L 348.239,13.997999999999609 L 349.061,12.583999999999609 L 350.36499999999995,11.405999999999608 L 351.655,10.988999999999608 L 354.469,8.421999999999608 L 354.989,8.195999999999607 L 355.645,8.333999999999607 L 357.099,9.0 L 357.674,9.637 L 358.33299999999997,10.992 L 358.715,11.409 L 359.169,11.486 L 359.791,12.094000000000001 L 360.691,10.117 L 361.50399999999996,7.968000000000001 L 362.438,6.595000000000001 L 363.759,7.397 L 364.595,8.436 L 365.35900000000004,9.666 L 366.44000000000005,10.342 L 368.27200000000005,14.457 L 368.61400000000003,14.461 L 368.776,14.117 L 368.949,13.361 L 369.011,12.232000000000001 L 369.23600000000005,10.686000000000002 L 369.07300000000004,10.111000000000002 L 367.538,8.374000000000002 L 367.248,7.701000000000002 L 366.954,6.586000000000002 L 366.949,5.6590000000000025 L 367.23400000000004,4.924000000000002 L 367.53400000000005,4.587000000000002 L 368.52600000000007,4.8930000000000025 L 368.85400000000004,4.653000000000002 L 369.16400000000004,4.027000000000002 L 369.53700000000003,2.846000000000002 L 369.831,2.544000000000002 L 370.495,2.5090000000000017 L 371.516,3.269000000000002 L 372.41,3.333000000000002 L 372.732,2.9840000000000018 L 372.781,2.2420000000000018 L 372.859,1.7680000000000018 L 372.965,1.5680000000000018 L 376.205,1.527000000000002 L 377.00899999999996,1.349000000000002 L 377.63699999999994,0.782000000000002 L 378.40599999999995,0.7150000000000021 L 379.078,1.054000000000002 L 379.90999999999997,1.776000000000002 L 380.73699999999997,1.742000000000002 L 381.969,0.562000000000002 L 383.129,0.0 L 389.53200000000004,0.156 L 391.637,0.873 M 349.788,34.267 L 349.219,34.625 L 348.031,32.459 L 346.15000000000003,30.264000000000003 L 344.49100000000004,28.784000000000002 L 342.932,24.833000000000002 L 342.809,23.406000000000002 L 343.03000000000003,22.144000000000002 L 344.391,21.951 L 345.48,21.368000000000002 L 348.252,23.877000000000002 L 349.63800000000003,25.972 L 350.10800000000006,27.665000000000003 L 350.035,31.0 L 349.788,34.267 M 423.317,39.028 L 423.028,39.663 L 422.288,39.409 L 421.34000000000003,37.62 L 420.708,36.137 L 420.663,34.378 L 420.988,33.59 L 421.49399999999997,33.458000000000006 L 422.18899999999996,34.96600000000001 L 422.902,36.97700000000001 L 423.317,39.028 M 426.271,74.774 L 425.083,76.58500000000001 L 423.326,76.44600000000001 L 422.286,75.61200000000001 L 421.989,74.35300000000001 L 422.385,72.94300000000001 L 423.647,71.805 L 425.231,71.09 L 426.667,71.52000000000001 L 426.86499999999995,72.94300000000001 L 426.271,74.774 M 422.384,101.829 L 422.012,102.303 L 421.765,100.87599999999999 L 421.542,98.954 L 421.49199999999996,96.764 L 422.061,95.658 L 422.358,95.411 L 422.556,95.658 L 422.506,96.642 L 422.506,98.591 L 422.70399999999995,99.919 L 422.384,101.829 M 425.313,106.232 L 424.768,106.232 L 424.566,105.891 L 424.695,105.286 L 425.454,103.32000000000001 L 425.707,103.159 L 426.078,103.373 L 426.191,104.385 L 425.943,105.39 L 425.313,106.232 M 274.566,110.337 L 273.566,110.45 L 272.58099999999996,109.95100000000001 L 272.24299999999994,109.56400000000001 L 272.2579999999999,108.971 L 272.4069999999999,108.765 L 272.9389999999999,108.559 L 273.3809999999999,108.51299999999999 L 273.6789999999999,108.60499999999999 L 274.37999999999994,108.97099999999999 L 274.88699999999994,109.33599999999998 L 275.21999999999997,109.44999999999999 L 275.12499999999994,109.97299999999998 L 274.566,110.337 M 423.548,125.976 L 423.226,126.283 L 422.137,121.4 L 422.137,119.59700000000001 L 422.211,118.20500000000001 L 422.706,118.09700000000001 L 423.127,118.84800000000001 L 423.325,121.71500000000002 L 423.548,125.976 M 425.181,133.202 L 425.404,134.376 L 425.503,135.445 L 425.84999999999997,136.12099999999998 L 426.59299999999996,136.02499999999998 L 426.89,137.27499999999998 L 426.346,137.754 L 424.193,137.563 L 423.30199999999996,137.658 L 422.68299999999994,136.892 L 422.7079999999999,135.542 L 422.7819999999999,134.181 L 423.40099999999995,133.399 L 423.92099999999994,134.084 L 424.53999999999996,133.595 L 425.181,133.202 M 321.295,160.048 L 320.898,160.69 L 320.57500000000005,161.057 L 319.87300000000005,162.146 L 319.75200000000007,162.184 L 319.56300000000005,162.043 L 319.41600000000005,161.757 L 319.15100000000007,161.68800000000002 L 319.0590000000001,161.507 L 319.0220000000001,161.36 L 318.9040000000001,161.26600000000002 L 318.7170000000001,161.20700000000002 L 318.4170000000001,161.31900000000002 L 318.1420000000001,161.20700000000002 L 317.9340000000001,160.728 L 318.3180000000001,160.406 L 318.5550000000001,160.131 L 319.4720000000001,160.023 L 319.7310000000001,160.149 L 319.8940000000001,160.14600000000002 L 320.1420000000001,160.07100000000003 L 320.6840000000001,159.72800000000004 L 320.7650000000001,159.56800000000004 L 321.2500000000001,159.76900000000003 L 321.295,160.048 M 325.454,175.874 L 325.19100000000003,175.93099999999998 L 324.437,175.492 L 324.314,175.326 L 324.267,175.123 L 324.296,174.88199999999998 L 324.536,174.432 L 324.987,173.771 L 325.314,173.647 L 325.517,174.06199999999998 L 325.716,174.618 L 325.742,174.899 L 325.72900000000004,175.23 L 325.677,175.51 L 325.586,175.73999999999998 L 325.454,175.874 M 404.324,176.902 L 404.423,177.40699999999998 L 404.433,177.64499999999998 L 404.412,177.844 L 404.35699999999997,177.987 L 404.22499999999997,178.113 L 404.47099999999995,178.446 L 404.55099999999993,178.67 L 404.5659999999999,178.84799999999998 L 404.40899999999993,179.19199999999998 L 403.29099999999994,179.646 L 402.97999999999996,179.86399999999998 L 402.592,180.40299999999996 L 402.12,180.86499999999995 L 401.963,180.86299999999994 L 401.78000000000003,180.38399999999993 L 401.03400000000005,180.03099999999992 L 399.63100000000003,180.21499999999992 L 397.98800000000006,180.6589999999999 L 397.40500000000003,180.8659999999999 L 397.11,180.7559999999999 L 397.02000000000004,180.5899999999999 L 397.016,180.3589999999999 L 397.21000000000004,179.6809999999999 L 397.28900000000004,179.5079999999999 L 397.66600000000005,179.2819999999999 L 397.92100000000005,178.6819999999999 L 397.838,178.0269999999999 L 397.93600000000004,177.1099999999999 L 398.194,176.9669999999999 L 398.839,177.2939999999999 L 399.256,177.3629999999999 L 399.99499999999995,177.4049999999999 L 400.98799999999994,177.29499999999987 L 401.78599999999994,176.92099999999988 L 403.24199999999996,175.85099999999989 L 403.49999999999994,175.8649999999999 L 403.68499999999995,176.2449999999999 L 403.82099999999997,176.4309999999999 L 404.25399999999996,176.7219999999999 L 404.324,176.902 M 330.674,177.469 L 330.299,177.492 L 329.42699999999996,177.337 L 329.35699999999997,177.237 L 329.34599999999995,177.048 L 329.46199999999993,176.502 L 329.84599999999995,176.429 L 330.30299999999994,176.728 L 330.79599999999994,177.15300000000002 L 330.8639999999999,177.353 L 330.674,177.469 M 327.71,185.082 L 328.645,185.74599999999998 L 329.63599999999997,186.20299999999997 L 329.73299999999995,186.41099999999997 L 329.80999999999995,186.72599999999997 L 329.8279999999999,186.88999999999996 L 329.8059999999999,187.04199999999994 L 329.74299999999994,187.18199999999993 L 329.81499999999994,187.36199999999994 L 330.02299999999997,187.58199999999994 L 330.044,187.83899999999994 L 329.796,188.27899999999994 L 329.447,188.76699999999994 L 327.601,189.76599999999993 L 326.948,189.93499999999995 L 325.334,190.61699999999993 L 324.84,190.58899999999994 L 324.731,190.55699999999993 L 324.426,190.25699999999992 L 324.008,189.97799999999992 L 323.81199999999995,189.7609999999999 L 323.63899999999995,189.4489999999999 L 323.70799999999997,189.2559999999999 L 324.01899999999995,189.1799999999999 L 324.46099999999996,189.1849999999999 L 325.10999999999996,188.95799999999988 L 324.92999999999995,188.75299999999987 L 324.75999999999993,188.62799999999987 L 324.64199999999994,188.35599999999988 L 324.3709999999999,188.40899999999988 L 324.16799999999995,188.25299999999987 L 323.77699999999993,188.15399999999988 L 322.7559999999999,188.0599999999999 L 322.0899999999999,187.7919999999999 L 321.8939999999999,187.6309999999999 L 321.7209999999999,187.3529999999999 L 321.5709999999999,186.9609999999999 L 321.78899999999993,185.4309999999999 L 321.9389999999999,185.0389999999999 L 322.2849999999999,184.9099999999999 L 323.1309999999999,185.25199999999992 L 323.2449999999999,185.10499999999993 L 322.3189999999999,184.53699999999992 L 321.9789999999999,184.19799999999992 L 321.8789999999999,183.92999999999992 L 321.8189999999999,183.5349999999999 L 321.8189999999999,183.3029999999999 L 321.8609999999999,183.0689999999999 L 321.9439999999999,182.8339999999999 L 322.1689999999999,182.51599999999988 L 323.1069999999999,182.00799999999987 L 324.1289999999999,182.18199999999987 L 325.9029999999999,182.80599999999987 L 326.12299999999993,182.93799999999987 L 326.6669999999999,183.47099999999986 L 327.71,185.082 M 332.53,188.26 L 332.09,188.54299999999998 L 332.001,188.48 L 331.912,188.26399999999998 L 331.685,187.27999999999997 L 331.618,186.81199999999998 L 331.674,186.22799999999998 L 331.58599999999996,185.81499999999997 L 331.98299999999995,185.33299999999997 L 332.304,185.24999999999997 L 332.73699999999997,185.37599999999998 L 333.46999999999997,185.86599999999999 L 333.417,186.02499999999998 L 333.258,186.27999999999997 L 332.817,186.61299999999997 L 332.661,187.36099999999996 L 332.63100000000003,187.73499999999996 L 332.65200000000004,188.01499999999996 L 332.53,188.26 M 371.772,217.846 L 371.335,217.85 L 371.19,217.31799999999998 L 371.233,216.736 L 371.725,216.553 L 371.99,216.954 L 371.895,217.55 L 371.772,217.846 M 345.853,247.406 L 345.531,248.1 L 345.209,247.94899999999998 L 345.05,247.63899999999998 L 344.733,247.49499999999998 L 344.391,247.53799999999998 L 344.386,247.415 L 345.497,246.673 L 346.027,246.473 L 345.989,246.786 L 345.888,247.06 L 345.853,247.406" id="GL" title="Greenland"/>
</svg>
