<svg xmlns="http://www.w3.org/2000/svg" xmlns:ev="http://www.w3.org/2001/xml-events" xmlns:xlink="http://www.w3.org/1999/xlink" baseProfile="full" height="2.14501953125" version="1.1" viewBox="428.4809875488281 423.7829895019531 8.41400146484375 2.14501953125" width="8.41400146484375" fill="#00394f">
	<defs/>
	<path class="land" d="M 428.653,425.928 L 428.637,425.686 L 428.481,425.134 L 428.69,424.893 L 428.917,424.75 L 429.07,424.864 L 429.116,425.089 L 429.234,425.243 L 429.636,425.339 L 430.033,425.27 L 430.276,425.302 L 430.269,425.177 L 430.351,425.011 L 430.834,424.94 L 431.344,424.893 L 431.869,424.793 L 432.28,424.797 L 432.402,424.77 L 432.373,424.727 L 432.004,424.679 L 431.217,424.793 L 430.416,424.827 L 429.809,425.128 L 429.56,425.1 L 429.308,424.799 L 429.218,424.428 L 429.929,424.401 L 430.791,424.413 L 431.73,424.425 L 432.172,424.431 L 432.404,424.027 L 432.846,423.849 L 433.298,423.783 L 433.534,423.8 L 433.782,423.86 L 434.259,424.193 L 434.556,424.27 L 434.807,424.345 L 434.986,424.507 L 435.271,424.668 L 435.495,424.711 L 435.628,424.687 L 435.85,424.625 L 435.996,424.575 L 436.472,424.554 L 436.822,424.74 L 436.895,424.943 L 436.837,425.151 L 436.367,425.262 L 435.716,425.436 L 435.178,425.341 L 434.523,425.104 L 434.14,424.934 L 433.981,424.865 L 433.742,424.757 L 433.533,424.641 L 433.332,424.565 L 433.178,424.517 L 433.064,424.578 L 433.007,424.722 L 432.916,424.882 L 432.799,424.977 L 432.25,425.033 L 431.757,425.092 L 431.493,425.142 L 431.316,425.18 L 431.261,425.663 L 430.703,425.658 L 430.155,425.652 L 429.586,425.661 L 428.975,425.67 L 428.818,425.769 L 428.653,425.928" id="GM" title="Gambia"/>
</svg>
