<svg xmlns="http://www.w3.org/2000/svg" xmlns:ev="http://www.w3.org/2001/xml-events" xmlns:xlink="http://www.w3.org/1999/xlink" baseProfile="full" height="15.45599365234375" version="1.1" viewBox="433.4580078125 427.04400634765625 20.68499755859375 15.45599365234375" width="20.68499755859375" fill="#00394f">
	<defs/>
	<path class="land" d="M 443.735,427.813 L 443.655,427.89 L 443.572,428.057 L 443.496,428.263 L 443.419,428.401 L 443.446,428.491 L 443.665,428.671 L 443.972,428.923 L 444.097,428.956 L 444.24,428.896 L 444.465,428.696 L 444.644,428.48 L 444.815,428.375 L 445.016,428.382 L 445.176,428.534 L 445.371,428.87 L 445.549,429.175 L 445.572,429.206 L 445.644,429.256 L 445.734,429.254 L 445.828,429.18 L 445.897,429.135 L 445.98,428.995 L 446.327,428.572 L 446.588,428.456 L 446.681,428.425 L 446.863,428.361 L 447.166,428.461 L 447.605,428.635 L 448.138,428.846 L 448.325,428.882 L 448.435,428.846 L 448.594,428.56 L 448.792,428.447 L 449.075,428.315 L 449.305,428.248 L 449.436,428.239 L 449.486,428.161 L 449.511,428.044 L 449.484,427.923 L 449.336,427.706 L 449.332,427.642 L 449.417,427.6 L 449.599,427.568 L 449.836,427.59 L 450.103,427.684 L 450.32,427.819 L 450.444,427.98 L 450.579,428.324 L 450.683,428.658 L 450.951,429.188 L 450.946,429.517 L 450.94,429.898 L 451.06,429.97 L 451.19,430.0 L 451.251,430.056 L 451.381,430.349 L 451.504,430.434 L 451.651,430.454 L 451.927,430.641 L 452.104,430.715 L 452.129,430.771 L 452.123,430.849 L 452.054,430.947 L 451.947,431.015 L 451.788,431.143 L 451.656,431.31 L 451.384,431.711 L 451.376,431.786 L 451.434,431.84 L 451.546,431.85 L 451.666,431.822 L 451.916,431.676 L 452.112,431.728 L 452.301,431.84 L 452.37,431.956 L 452.388,432.108 L 452.345,432.305 L 452.338,432.524 L 452.401,432.898 L 452.5,433.272 L 452.598,433.408 L 453.227,433.737 L 453.288,433.86 L 453.319,433.999 L 453.274,434.188 L 453.209,434.294 L 453.029,434.459 L 452.864,434.586 L 452.812,434.725 L 452.838,434.984 L 452.838,435.569 L 452.863,436.076 L 452.999,436.259 L 453.161,436.353 L 453.353,436.335 L 453.539,436.301 L 453.528,436.604 L 453.478,436.943 L 453.698,437.048 L 453.81,437.151 L 453.871,437.248 L 453.522,437.428 L 453.421,437.533 L 453.374,437.816 L 453.385,438.078 L 453.854,438.264 L 454.035,438.483 L 454.115,438.71 L 454.143,439.139 L 454.101,439.237 L 453.98,439.238 L 453.844,439.106 L 453.743,438.978 L 453.616,438.978 L 453.379,438.949 L 453.11,438.899 L 452.777,438.913 L 452.659,438.934 L 452.583,439.011 L 452.563,439.146 L 452.529,439.581 L 452.638,439.676 L 452.853,439.784 L 452.994,439.83 L 453.111,439.817 L 453.201,439.887 L 453.22,440.074 L 453.159,440.211 L 453.041,440.339 L 452.892,440.667 L 452.917,440.791 L 452.924,440.968 L 452.669,441.448 L 452.597,441.542 L 452.26,441.447 L 452.041,441.416 L 451.882,441.537 L 451.782,441.461 L 451.664,441.35 L 451.623,441.204 L 451.543,441.173 L 451.396,441.172 L 451.26,441.255 L 451.2,441.406 L 451.191,441.58 L 451.17,441.714 L 451.089,441.795 L 450.924,442.006 L 450.847,442.2 L 450.751,442.369 L 450.614,442.359 L 450.551,442.335 L 450.507,442.38 L 450.294,442.474 L 450.111,442.5 L 450.063,442.403 L 449.956,442.325 L 449.837,442.17 L 449.702,442.046 L 449.444,441.958 L 449.342,441.998 L 449.22,441.987 L 449.14,441.938 L 449.151,441.863 L 449.286,441.674 L 449.363,441.5 L 449.406,441.31 L 449.405,441.128 L 449.333,440.873 L 449.217,440.67 L 449.188,440.553 L 449.202,440.385 L 449.175,440.229 L 449.137,440.148 L 449.119,439.994 L 449.083,439.853 L 449.014,439.799 L 448.976,439.563 L 448.987,439.32 L 448.887,439.229 L 448.729,439.162 L 448.636,439.066 L 448.579,438.961 L 448.522,438.93 L 448.473,438.937 L 448.429,439.002 L 448.377,439.016 L 448.285,438.789 L 448.247,438.78 L 448.183,438.832 L 447.454,439.084 L 447.422,438.986 L 447.361,438.87 L 447.221,438.831 L 446.98,438.918 L 446.84,438.928 L 446.624,438.899 L 446.528,438.94 L 446.241,439.275 L 446.069,439.406 L 445.939,439.395 L 445.803,439.365 L 445.707,439.389 L 445.636,439.351 L 445.664,439.269 L 445.734,439.167 L 445.871,438.802 L 446.223,438.435 L 446.23,438.357 L 446.086,438.143 L 445.935,437.85 L 445.935,437.536 L 445.906,437.309 L 445.595,437.245 L 445.538,437.207 L 445.53,437.13 L 445.61,436.927 L 445.705,436.738 L 445.719,436.659 L 445.697,436.588 L 445.506,436.388 L 445.208,436.017 L 444.932,435.606 L 444.695,435.254 L 444.503,435.093 L 444.32,434.86 L 444.251,434.712 L 444.06,434.659 L 443.504,434.662 L 442.835,434.666 L 442.271,434.668 L 442.238,434.868 L 441.622,435.001 L 441.242,434.848 L 440.82,434.938 L 440.614,435.039 L 440.55,435.251 L 440.456,435.484 L 440.366,435.58 L 440.328,435.684 L 440.276,435.779 L 440.193,435.889 L 440.101,436.108 L 439.9,436.421 L 439.689,436.623 L 439.331,436.732 L 439.219,437.061 L 439.137,437.184 L 438.999,437.279 L 438.851,437.342 L 438.715,437.304 L 438.558,437.278 L 438.394,437.337 L 438.366,437.255 L 438.459,436.994 L 438.385,436.859 L 438.104,436.588 L 438.077,436.458 L 437.991,436.289 L 437.62,435.94 L 437.275,435.962 L 437.371,435.67 L 437.367,435.282 L 437.249,435.07 L 437.279,434.854 L 437.215,434.867 L 437.1,435.016 L 436.914,434.968 L 436.536,434.737 L 436.347,434.514 L 436.325,434.323 L 436.282,434.249 L 436.167,434.289 L 435.931,434.285 L 435.21,433.945 L 434.698,433.091 L 434.687,432.898 L 434.76,432.566 L 434.743,432.476 L 434.508,432.696 L 434.463,432.548 L 434.283,432.205 L 434.231,432.007 L 434.059,431.919 L 433.92,431.904 L 433.813,431.97 L 433.672,432.371 L 433.567,432.369 L 433.458,432.283 L 433.481,431.983 L 433.605,431.835 L 433.758,431.608 L 434.222,430.66 L 434.387,430.443 L 434.492,430.367 L 434.711,430.358 L 435.139,430.231 L 435.489,430.022 L 435.664,429.937 L 436.065,429.959 L 436.54,429.923 L 437.159,429.72 L 437.17,429.44 L 437.165,429.082 L 437.144,428.94 L 436.924,428.812 L 436.796,428.701 L 436.686,428.56 L 436.552,428.459 L 436.557,428.354 L 436.725,428.263 L 436.831,428.217 L 437.083,428.219 L 437.166,428.167 L 437.229,428.076 L 437.3,427.845 L 437.325,427.602 L 437.159,427.275 L 437.168,427.044 L 438.077,427.077 L 438.169,427.102 L 438.575,427.142 L 438.827,427.142 L 438.982,427.159 L 439.047,427.212 L 439.035,427.309 L 438.991,427.437 L 439.043,427.569 L 439.182,427.604 L 439.255,427.564 L 439.326,427.5 L 439.41,427.449 L 439.529,427.483 L 439.784,427.678 L 440.021,427.731 L 440.279,427.837 L 440.522,427.896 L 440.738,427.888 L 440.902,427.997 L 441.205,428.032 L 441.595,427.893 L 441.903,427.832 L 442.334,427.817 L 442.561,427.862 L 443.218,427.751 L 443.546,427.776 L 443.735,427.813" id="GN" title="Guinea"/>
</svg>
