<svg xmlns="http://www.w3.org/2000/svg" xmlns:ev="http://www.w3.org/2001/xml-events" xmlns:xlink="http://www.w3.org/1999/xlink" baseProfile="full" height="1.802001953125" version="1.1" viewBox="302.2760009765625 415.99700927734375 1.743011474609375 1.802001953125" width="1.743011474609375" fill="#00394f">
	<defs/>
	<path class="land" d="M 303.585,416.799 L 303.255,416.83099999999996 L 303.038,416.806 L 302.988,416.59799999999996 L 303.099,416.42199999999997 L 303.019,416.20799999999997 L 303.07,416.08099999999996 L 303.181,415.99699999999996 L 303.363,416.109 L 303.392,416.269 L 303.506,416.415 L 304.01899999999995,416.72700000000003 L 303.585,416.799 M 302.849,417.448 L 302.622,417.578 L 302.511,417.53799999999995 L 302.37300000000005,417.28799999999995 L 302.27600000000007,416.59399999999994 L 302.35100000000006,416.4789999999999 L 302.40500000000003,416.4359999999999 L 302.704,416.5209999999999 L 302.829,416.6189999999999 L 302.954,416.6809999999999 L 302.891,416.80799999999994 L 302.922,417.32899999999995 L 302.849,417.448 M 303.857,417.788 L 303.701,417.79900000000004 L 303.632,417.77400000000006 L 303.611,417.6000000000001 L 303.73199999999997,417.4800000000001 L 303.803,417.4510000000001 L 303.908,417.58600000000007 L 303.933,417.6980000000001 L 303.857,417.788" id="GP" title="Guadeloupe"/>
</svg>
