<svg xmlns="http://www.w3.org/2000/svg" xmlns:ev="http://www.w3.org/2001/xml-events" xmlns:xlink="http://www.w3.org/1999/xlink" baseProfile="full" height="7.811004638671875" version="1.1" viewBox="499.3689880371094 452.1860046386719 8.141998291015625 7.811004638671875" width="8.141998291015625">
	<defs/>
	<path class="land" d="M 500.216,452.186 L 500.285,452.197 L 500.70500000000004,452.186 L 500.819,452.334 L 500.80600000000004,452.551 L 500.374,453.185 L 500.293,453.452 L 500.12600000000003,453.679 L 499.98100000000005,453.69699999999995 L 499.48300000000006,453.56399999999996 L 499.39900000000006,453.48299999999995 L 499.3690000000001,453.37499999999994 L 499.41800000000006,453.12199999999996 L 499.45500000000004,453.04499999999996 L 499.694,452.99699999999996 L 499.771,452.95599999999996 L 499.899,452.68399999999997 L 499.941,452.43499999999995 L 500.048,452.24699999999996 L 500.216,452.186 M 507.494,456.627 L 507.497,457.273 L 507.5,457.819 L 507.503,458.41 L 507.506,459.026 L 507.50899999999996,459.547 L 507.51099999999997,459.884 L 506.936,459.882 L 506.173,459.88 L 505.41,459.878 L 504.648,459.876 L 504.26500000000004,459.875 L 503.843,459.874 L 503.706,459.892 L 503.613,459.977 L 503.501,459.99699999999996 L 503.371,459.924 L 503.212,459.88899999999995 L 503.17,459.81399999999996 L 503.091,459.67699999999996 L 502.934,459.662 L 502.855,459.67699999999996 L 502.742,459.75499999999994 L 502.615,459.79599999999994 L 502.639,459.73299999999995 L 502.38800000000003,459.56499999999994 L 502.20700000000005,459.54799999999994 L 502.0400000000001,459.4959999999999 L 502.17500000000007,459.05799999999994 L 502.34400000000005,458.67099999999994 L 502.59600000000006,458.37799999999993 L 502.7300000000001,458.30799999999994 L 502.7730000000001,458.16299999999995 L 502.97300000000007,457.68499999999995 L 503.22100000000006,457.29799999999994 L 503.14400000000006,456.90599999999995 L 503.2030000000001,456.24699999999996 L 503.2750000000001,456.26599999999996 L 503.2860000000001,456.328 L 503.3050000000001,456.41999999999996 L 503.39800000000014,456.50199999999995 L 503.70600000000013,456.62899999999996 L 504.62400000000014,456.62899999999996 L 505.17200000000014,456.62899999999996 L 505.9830000000001,456.62899999999996 L 506.8410000000001,456.62899999999996 L 507.494,456.627" id="GQ" title="Equatorial Guinea"/>
</svg>
