<svg xmlns="http://www.w3.org/2000/svg" xmlns:ev="http://www.w3.org/2001/xml-events" xmlns:xlink="http://www.w3.org/1999/xlink" baseProfile="full" height="24.30902099609375" version="1.1" viewBox="530.8369750976562 334.22698974609375 24.09503173828125 24.30902099609375" width="24.09503173828125" fill="#00394f">
	<defs/>
	<path class="land" d="M 549.569,334.341 L 549.8199999999999,334.41700000000003 L 549.9659999999999,334.54 L 550.0569999999999,334.653 L 550.1959999999999,334.75 L 550.3,334.772 L 550.38,335.105 L 550.422,335.517 L 550.359,335.695 L 550.1740000000001,335.736 L 549.5960000000001,336.12399999999997 L 549.5820000000001,336.479 L 549.5900000000001,336.65 L 549.6020000000001,336.772 L 549.6630000000001,336.87399999999997 L 549.6630000000001,337.02099999999996 L 549.5990000000002,337.179 L 549.3470000000002,337.443 L 549.1720000000003,337.652 L 548.9760000000002,337.936 L 548.8660000000002,337.971 L 548.7790000000002,338.021 L 548.7000000000003,337.865 L 548.2650000000003,337.588 L 547.2580000000004,337.42600000000004 L 546.7770000000004,337.22100000000006 L 546.5660000000004,337.25900000000007 L 546.1570000000004,337.0300000000001 L 545.8770000000004,337.1310000000001 L 545.2830000000004,337.53800000000007 L 544.9620000000003,337.4940000000001 L 544.6190000000004,337.2490000000001 L 544.3960000000004,337.20400000000006 L 544.1340000000005,337.3330000000001 L 543.7150000000005,337.8010000000001 L 543.2880000000005,338.0300000000001 L 542.9060000000005,337.9410000000001 L 542.3920000000005,337.9430000000001 L 542.3370000000006,338.2040000000001 L 542.4360000000006,338.3850000000001 L 542.7170000000006,338.6930000000001 L 542.5850000000006,338.9240000000001 L 542.6830000000006,339.1550000000001 L 542.8660000000006,339.2020000000001 L 543.1430000000006,339.18900000000014 L 543.6540000000006,339.4880000000001 L 543.8780000000006,339.8030000000001 L 544.0210000000006,340.1470000000001 L 543.7090000000006,339.9000000000001 L 543.5020000000006,339.6620000000001 L 543.2130000000006,339.5760000000001 L 542.8120000000007,339.3730000000001 L 542.5600000000007,339.3390000000001 L 542.2920000000007,339.48000000000013 L 542.2710000000008,339.6390000000001 L 542.5600000000007,339.93600000000015 L 542.8240000000008,340.11900000000014 L 542.9640000000007,340.26700000000017 L 543.0570000000007,340.5960000000002 L 543.0040000000007,340.70700000000016 L 542.9060000000007,340.81100000000015 L 542.5930000000008,340.60400000000016 L 542.1140000000007,339.86700000000013 L 541.4460000000007,339.72000000000014 L 541.3340000000007,339.87400000000014 L 541.4660000000007,340.2640000000001 L 541.5610000000007,340.41500000000013 L 542.1420000000007,340.83500000000015 L 542.0960000000007,340.92400000000015 L 542.0110000000006,340.96200000000016 L 541.3610000000007,340.72200000000015 L 541.1720000000007,340.35700000000014 L 541.1270000000007,339.8940000000001 L 540.5270000000007,339.5720000000001 L 539.9610000000007,339.2210000000001 L 539.8340000000007,338.8880000000001 L 539.9510000000007,338.76400000000007 L 540.0340000000007,338.51900000000006 L 539.7230000000006,338.5640000000001 L 539.5280000000006,338.71900000000005 L 539.2130000000005,338.869 L 539.2000000000005,339.115 L 539.2500000000005,339.343 L 539.1460000000004,339.67400000000004 L 539.0440000000004,340.249 L 539.1080000000004,340.55 L 539.7920000000004,341.411 L 540.0260000000004,342.035 L 540.1940000000004,342.271 L 540.5440000000004,342.531 L 540.9090000000004,343.014 L 541.0630000000004,343.265 L 541.1730000000005,343.676 L 540.8660000000004,343.93 L 540.6880000000004,343.94 L 540.5890000000004,343.828 L 540.7270000000004,343.548 L 540.7070000000004,343.377 L 540.2330000000004,343.112 L 540.0330000000004,343.201 L 539.8020000000004,343.37300000000005 L 539.9340000000003,343.69300000000004 L 540.0820000000003,343.90400000000005 L 540.1570000000004,344.1940000000001 L 540.4410000000004,344.1690000000001 L 540.0590000000004,344.4940000000001 L 539.7000000000004,344.6600000000001 L 539.3470000000004,344.6700000000001 L 539.1220000000004,344.70000000000005 L 539.0440000000004,344.7830000000001 L 539.2270000000004,344.8430000000001 L 539.3760000000004,344.84900000000005 L 539.6190000000005,345.02400000000006 L 540.3100000000005,345.23300000000006 L 540.6400000000006,345.49800000000005 L 540.9640000000005,345.52200000000005 L 541.2890000000006,346.00700000000006 L 541.8520000000005,346.1360000000001 L 542.1730000000006,346.62500000000006 L 542.5990000000006,346.72100000000006 L 542.9670000000007,346.90100000000007 L 543.0740000000006,347.07200000000006 L 543.1280000000006,347.38200000000006 L 543.1520000000006,348.03700000000003 L 543.2320000000007,348.523 L 543.2350000000007,348.67600000000004 L 543.2150000000007,348.90500000000003 L 543.1150000000007,349.01700000000005 L 542.9800000000007,349.0210000000001 L 542.7150000000007,348.66400000000004 L 542.3100000000007,348.28800000000007 L 541.8820000000007,347.8400000000001 L 541.7600000000008,347.7610000000001 L 541.6600000000008,347.7540000000001 L 541.4310000000007,347.9050000000001 L 540.7950000000008,348.0220000000001 L 540.4970000000008,348.1860000000001 L 540.3850000000008,348.2220000000001 L 540.3540000000008,348.3080000000001 L 540.4940000000008,348.3970000000001 L 540.6650000000009,348.6020000000001 L 540.6650000000009,348.8810000000001 L 540.8070000000009,349.2200000000001 L 540.9900000000009,349.3070000000001 L 541.228000000001,349.30000000000007 L 541.3650000000009,349.36300000000006 L 541.4000000000009,349.49800000000005 L 541.5390000000009,349.65500000000003 L 541.6300000000009,349.77200000000005 L 541.6270000000009,349.8550000000001 L 540.9620000000009,350.0760000000001 L 540.8230000000009,350.1770000000001 L 540.7060000000009,350.2290000000001 L 540.5330000000009,350.1240000000001 L 540.5230000000009,349.8540000000001 L 540.295000000001,349.7090000000001 L 540.086000000001,349.5840000000001 L 539.8350000000011,349.5310000000001 L 539.6220000000011,349.3440000000001 L 539.4830000000011,349.4950000000001 L 539.5940000000011,350.0190000000001 L 539.8350000000011,350.37900000000013 L 540.239000000001,351.34300000000013 L 540.422000000001,351.91000000000014 L 540.4590000000011,352.18400000000014 L 540.3680000000011,352.6390000000001 L 540.567000000001,352.9760000000001 L 540.703000000001,353.3220000000001 L 540.554000000001,353.30900000000014 L 540.424000000001,353.1870000000001 L 540.206000000001,353.0430000000001 L 539.784000000001,352.4900000000001 L 539.637000000001,352.1450000000001 L 539.4610000000009,352.1180000000001 L 539.1550000000009,352.1680000000001 L 538.8210000000009,352.90500000000014 L 538.8220000000009,353.32600000000014 L 538.6490000000009,353.2260000000001 L 538.5010000000009,353.09500000000014 L 538.5190000000009,352.6340000000001 L 538.5040000000009,352.4400000000001 L 538.098000000001,351.8100000000001 L 537.912000000001,351.7390000000001 L 537.825000000001,351.52600000000007 L 537.675000000001,351.29800000000006 L 537.482000000001,351.34100000000007 L 537.324000000001,351.43300000000005 L 537.281000000001,351.77700000000004 L 537.265000000001,352.08500000000004 L 537.147000000001,352.31600000000003 L 536.714000000001,351.877 L 536.2780000000009,351.115 L 536.267000000001,350.697 L 536.5860000000009,350.314 L 536.5480000000009,350.04 L 536.2460000000009,349.49800000000005 L 535.8100000000009,349.14900000000006 L 535.5660000000008,349.0450000000001 L 535.4510000000008,348.67300000000006 L 535.2180000000009,348.48100000000005 L 535.0290000000009,348.3910000000001 L 534.9920000000009,348.25900000000007 L 535.0490000000009,348.16100000000006 L 535.5070000000009,347.7780000000001 L 535.7750000000009,347.1760000000001 L 535.9080000000009,347.1480000000001 L 536.1820000000009,347.29100000000005 L 536.4900000000009,347.2540000000001 L 536.7420000000009,346.90100000000007 L 536.9560000000009,346.70900000000006 L 537.3170000000009,346.73400000000004 L 538.132000000001,347.20500000000004 L 539.008000000001,347.47400000000005 L 539.445000000001,347.70900000000006 L 539.693000000001,347.94200000000006 L 539.824000000001,347.99000000000007 L 540.032000000001,348.0230000000001 L 540.0230000000009,347.8490000000001 L 539.9570000000009,347.6950000000001 L 540.1300000000009,347.6110000000001 L 540.599000000001,347.6150000000001 L 540.684000000001,347.53300000000013 L 540.771000000001,347.4010000000001 L 540.674000000001,347.2500000000001 L 540.519000000001,347.1780000000001 L 540.353000000001,347.15800000000013 L 540.2440000000009,347.1100000000001 L 540.0670000000009,347.15800000000013 L 539.7920000000009,347.0410000000001 L 539.6490000000009,346.9450000000001 L 539.5660000000009,346.8460000000001 L 539.0870000000009,346.6490000000001 L 538.633000000001,346.3150000000001 L 538.530000000001,346.50400000000013 L 538.346000000001,346.6060000000001 L 538.0850000000011,346.6210000000001 L 537.351000000001,346.4090000000001 L 536.900000000001,346.5710000000001 L 536.654000000001,346.61300000000006 L 536.466000000001,346.6170000000001 L 536.235000000001,346.6890000000001 L 535.968000000001,346.7320000000001 L 535.737000000001,346.4240000000001 L 535.640000000001,346.1850000000001 L 535.572000000001,346.1400000000001 L 535.569000000001,346.3650000000001 L 535.495000000001,346.54500000000013 L 535.156000000001,346.64600000000013 L 534.9610000000009,346.50600000000014 L 534.811000000001,346.08300000000014 L 534.622000000001,345.54400000000015 L 534.289000000001,345.1080000000002 L 534.018000000001,344.9940000000002 L 533.995000000001,344.7540000000002 L 534.019000000001,344.5620000000002 L 534.3440000000011,344.5140000000002 L 534.8520000000011,344.7150000000002 L 534.9570000000011,344.6750000000002 L 535.0710000000012,344.58200000000016 L 535.0490000000011,344.3770000000002 L 534.9750000000012,344.1940000000002 L 534.8350000000012,344.1860000000002 L 534.7380000000012,344.2070000000002 L 534.4250000000012,344.1690000000002 L 534.0240000000013,344.2710000000002 L 533.8380000000012,344.1750000000002 L 533.7760000000012,344.05800000000016 L 533.4400000000012,343.7690000000002 L 533.1500000000012,343.3810000000002 L 532.6800000000012,343.1220000000002 L 532.3730000000012,342.3300000000002 L 532.1150000000011,341.9840000000002 L 531.8400000000012,341.7360000000002 L 531.9000000000011,341.7320000000002 L 532.0040000000012,341.77400000000017 L 532.2040000000012,341.9100000000002 L 532.4160000000012,341.9390000000002 L 532.5320000000012,341.8490000000002 L 532.5990000000012,341.7660000000002 L 532.6420000000012,341.63000000000017 L 532.6600000000012,341.4710000000002 L 532.6950000000012,341.4180000000002 L 532.8580000000012,341.4370000000002 L 532.9100000000012,341.39700000000016 L 532.9080000000013,341.2540000000002 L 532.8030000000012,341.0760000000002 L 532.7110000000013,340.8570000000002 L 532.7110000000013,340.7530000000002 L 532.7880000000013,340.71100000000024 L 532.9150000000012,340.6160000000002 L 532.9830000000012,340.4980000000002 L 533.1180000000012,340.4390000000002 L 533.3170000000011,340.42800000000017 L 533.5390000000011,340.37600000000015 L 533.6830000000011,340.24900000000014 L 533.7040000000011,340.12400000000014 L 533.7940000000011,339.77800000000013 L 533.8530000000011,339.6080000000001 L 533.9480000000011,339.45300000000015 L 533.9990000000012,339.24400000000014 L 534.1010000000011,339.04700000000014 L 534.3130000000011,338.9640000000001 L 534.5050000000011,338.86700000000013 L 534.6500000000011,338.6130000000001 L 534.7320000000011,338.39600000000013 L 534.7320000000011,338.26300000000015 L 534.6100000000012,338.04500000000013 L 534.5200000000011,337.83300000000014 L 534.5440000000011,337.55700000000013 L 534.9250000000011,337.5340000000001 L 535.0580000000011,337.5080000000001 L 535.5530000000011,337.4930000000001 L 535.7790000000011,337.3450000000001 L 535.9350000000011,337.3590000000001 L 536.2610000000011,337.4870000000001 L 536.4070000000011,337.3860000000001 L 536.8330000000011,337.1860000000001 L 537.2540000000012,336.6040000000001 L 537.4330000000011,336.5170000000001 L 537.8420000000011,336.4810000000001 L 537.9700000000012,336.4140000000001 L 538.1190000000012,336.4270000000001 L 538.5770000000011,336.5450000000001 L 538.8370000000011,336.56300000000005 L 539.1460000000011,336.482 L 539.4860000000011,336.34000000000003 L 539.5710000000012,335.841 L 539.6520000000012,335.769 L 539.8630000000012,335.749 L 540.0230000000012,335.75300000000004 L 540.3310000000012,335.79300000000006 L 540.6970000000011,335.80600000000004 L 540.9320000000012,335.57200000000006 L 541.3030000000011,335.55500000000006 L 541.4750000000012,335.5210000000001 L 541.7620000000012,335.5680000000001 L 542.0410000000012,335.5660000000001 L 542.3980000000012,335.4680000000001 L 542.7310000000011,335.3070000000001 L 542.9910000000011,335.3210000000001 L 543.0970000000011,335.2920000000001 L 543.1570000000011,335.2580000000001 L 543.2220000000011,335.0410000000001 L 543.7110000000011,335.0270000000001 L 543.8770000000012,335.0480000000001 L 544.1500000000012,335.0540000000001 L 544.4340000000012,334.93500000000006 L 544.5190000000013,334.94500000000005 L 544.6620000000013,335.26300000000003 L 544.7370000000013,335.355 L 544.8910000000013,335.44 L 545.2350000000014,335.678 L 545.2970000000014,335.615 L 545.4410000000014,335.535 L 545.8530000000014,335.644 L 546.2460000000015,335.827 L 546.5760000000015,336.096 L 546.9430000000015,336.01800000000003 L 547.3500000000015,335.886 L 547.6150000000015,335.848 L 547.9030000000015,335.829 L 548.0740000000015,335.772 L 548.4630000000016,335.841 L 548.8640000000015,335.696 L 549.0570000000015,335.56600000000003 L 549.1130000000015,335.382 L 549.0810000000015,335.059 L 548.9900000000015,334.735 L 548.8940000000015,334.615 L 548.8630000000015,334.491 L 548.9180000000015,334.375 L 548.9800000000015,334.295 L 549.2420000000014,334.22700000000003 L 549.569,334.341 M 545.228,338.432 L 544.8679999999999,338.563 L 544.502,338.31399999999996 L 544.505,338.16599999999994 L 544.698,337.86499999999995 L 544.804,337.77599999999995 L 545.073,337.79999999999995 L 545.226,338.00699999999995 L 545.262,338.10499999999996 L 545.212,338.27099999999996 L 545.228,338.432 M 547.787,339.126 L 547.469,339.222 L 547.119,338.919 L 547.457,338.79699999999997 L 547.614,338.885 L 547.726,338.989 L 547.787,339.126 M 547.09,340.748 L 546.984,340.871 L 546.9050000000001,341.08299999999997 L 546.863,341.38599999999997 L 546.6990000000001,341.393 L 546.6,341.332 L 546.567,341.217 L 546.561,341.072 L 546.489,341.078 L 546.431,341.23499999999996 L 546.38,341.306 L 546.215,341.32099999999997 L 546.034,341.224 L 546.043,341.015 L 546.0070000000001,340.772 L 546.023,340.687 L 546.518,340.666 L 546.663,340.84499999999997 L 546.838,340.741 L 546.91,340.62899999999996 L 547.122,340.55899999999997 L 547.09,340.748 M 532.048,342.749 L 532.109,342.952 L 531.759,342.826 L 531.504,342.64500000000004 L 531.293,342.196 L 530.844,341.685 L 530.8370000000001,341.536 L 531.0080000000002,341.423 L 531.3770000000002,341.343 L 531.5260000000002,341.42600000000004 L 531.6220000000002,341.51200000000006 L 531.6520000000002,341.61000000000007 L 531.4430000000002,341.8060000000001 L 531.4000000000002,341.8950000000001 L 531.5610000000001,342.0710000000001 L 531.5590000000002,342.1420000000001 L 531.6260000000002,342.4830000000001 L 531.7050000000002,342.6110000000001 L 531.9080000000001,342.7140000000001 L 532.048,342.749 M 549.819,343.122 L 549.77,343.336 L 550.158,343.69100000000003 L 550.29,343.91600000000005 L 550.3389999999999,344.13400000000007 L 550.3059999999999,344.19700000000006 L 550.1589999999999,344.07900000000006 L 550.0379999999999,344.04100000000005 L 550.079,344.19700000000006 L 550.203,344.3310000000001 L 549.983,344.4080000000001 L 549.7629999999999,344.40400000000005 L 549.1189999999999,344.21700000000004 L 548.9709999999999,344.01800000000003 L 549.3559999999999,343.71900000000005 L 549.4339999999999,343.59800000000007 L 549.1619999999998,343.61000000000007 L 548.8709999999998,343.9650000000001 L 548.4049999999997,343.8090000000001 L 548.2619999999997,343.6660000000001 L 548.2299999999997,343.5890000000001 L 548.4139999999996,343.27300000000014 L 548.7419999999996,343.28400000000016 L 548.9149999999996,343.21300000000014 L 549.1299999999997,343.1130000000001 L 549.1319999999996,342.96300000000014 L 549.6439999999996,342.92900000000014 L 549.819,343.122 M 542.741,343.74 L 542.61,343.782 L 542.741,343.49399999999997 L 542.973,343.34499999999997 L 542.886,343.587 L 542.741,343.74 M 542.437,343.898 L 542.312,344.02000000000004 L 542.118,343.96700000000004 L 541.9150000000001,343.559 L 542.437,343.898 M 541.415,344.458 L 541.574,344.848 L 541.723,344.979 L 542.035,345.13399999999996 L 542.182,345.15399999999994 L 542.715,345.4339999999999 L 543.3340000000001,345.4899999999999 L 543.4140000000001,345.5709999999999 L 543.4900000000001,345.7859999999999 L 543.6160000000001,345.95499999999987 L 543.6480000000001,346.08599999999984 L 543.5820000000001,346.23199999999986 L 543.6730000000001,346.67699999999985 L 543.8290000000001,347.0989999999999 L 544.0640000000001,347.3029999999999 L 544.3570000000001,347.3649999999999 L 544.6360000000001,347.3559999999999 L 544.7060000000001,347.4399999999999 L 544.6780000000001,347.8079999999999 L 544.5600000000001,347.9519999999999 L 544.464,347.9869999999999 L 544.3810000000001,347.9489999999999 L 544.3050000000001,347.8629999999999 L 544.2230000000001,347.8219999999999 L 544.0630000000001,347.8149999999999 L 543.9460000000001,347.66699999999986 L 543.6490000000001,347.4639999999999 L 543.5940000000002,347.34199999999987 L 543.5840000000002,347.15499999999986 L 543.4580000000002,347.0169999999999 L 543.3420000000002,346.7549999999999 L 543.2320000000002,346.6819999999999 L 543.1710000000002,346.5499999999999 L 543.1660000000002,346.4939999999999 L 542.7340000000002,346.4549999999999 L 542.3770000000002,346.45399999999995 L 542.0740000000002,346.30499999999995 L 541.9800000000001,345.91399999999993 L 541.8000000000002,345.8089999999999 L 541.6650000000002,345.6979999999999 L 541.5530000000002,345.5439999999999 L 541.2690000000002,345.2609999999999 L 540.9550000000003,345.0239999999999 L 540.6510000000003,344.8669999999999 L 540.3290000000003,344.7639999999999 L 540.0670000000003,344.8849999999999 L 539.9140000000003,344.85699999999986 L 539.8830000000004,344.77499999999986 L 540.2090000000004,344.61199999999985 L 540.6570000000004,344.29999999999984 L 540.9720000000004,344.19699999999983 L 541.1250000000005,344.18399999999986 L 541.415,344.458 M 544.949,344.995 L 544.6529999999999,345.082 L 544.574,345.068 L 544.64,344.95799999999997 L 544.645,344.912 L 544.3489999999999,344.71 L 544.3839999999999,344.448 L 544.4189999999999,344.381 L 544.6389999999999,344.518 L 544.6869999999999,344.746 L 544.949,344.995 M 533.757,345.713 L 533.6479999999999,345.74100000000004 L 533.5539999999999,345.72200000000004 L 533.4689999999998,345.73800000000006 L 533.3859999999999,345.80600000000004 L 533.3949999999999,345.523 L 533.4919999999998,345.17 L 533.6099999999999,344.964 L 533.7769999999999,344.868 L 533.848,345.03 L 533.8349999999999,345.606 L 533.757,345.713 M 548.932,347.106 L 548.664,347.307 L 548.365,347.016 L 548.316,346.922 L 548.5360000000001,346.80400000000003 L 548.6450000000001,346.62300000000005 L 548.5570000000001,346.40000000000003 L 548.2520000000002,346.07000000000005 L 548.2370000000002,345.83600000000007 L 548.7040000000002,345.7370000000001 L 548.9790000000002,345.9410000000001 L 549.1190000000001,345.9550000000001 L 549.0650000000002,346.1500000000001 L 549.0890000000002,346.2130000000001 L 549.1100000000001,346.80300000000005 L 548.9800000000001,346.8860000000001 L 548.9590000000002,347.04800000000006 L 548.932,347.106 M 533.958,346.71 L 533.819,346.74899999999997 L 533.6429999999999,346.40799999999996 L 533.579,346.17199999999997 L 533.6529999999999,346.159 L 533.723,346.186 L 533.7969999999999,346.275 L 533.7969999999999,346.366 L 533.8269999999999,346.464 L 533.9039999999999,346.581 L 533.958,346.71 M 533.548,346.518 L 533.583,346.92999999999995 L 533.781,347.00699999999995 L 534.044,347.37699999999995 L 534.0219999999999,347.566 L 533.967,347.631 L 533.531,347.45599999999996 L 533.4269999999999,347.53499999999997 L 533.3,347.503 L 533.221,347.298 L 533.23,347.226 L 533.159,347.103 L 533.099,347.048 L 532.928,347.211 L 532.82,347.241 L 532.82,347.092 L 532.979,346.68199999999996 L 533.053,346.61299999999994 L 533.183,346.74799999999993 L 533.29,346.6979999999999 L 533.371,346.47599999999994 L 533.376,346.25499999999994 L 533.413,346.18999999999994 L 533.548,346.518 M 541.795,348.144 L 541.684,348.231 L 541.559,348.227 L 541.4699999999999,348.195 L 541.4259999999999,348.125 L 541.4809999999999,348.092 L 541.5459999999999,347.95099999999996 L 541.6059999999999,347.91299999999995 L 541.6949999999999,347.9309999999999 L 541.7499999999999,347.98799999999994 L 541.795,348.144 M 545.838,348.732 L 545.755,348.96900000000005 L 545.536,348.69300000000004 L 545.2959999999999,348.504 L 545.2059999999999,348.338 L 545.06,348.238 L 545.02,348.015 L 545.197,347.924 L 545.273,347.91499999999996 L 545.455,348.186 L 545.739,348.217 L 545.717,348.38399999999996 L 545.807,348.59899999999993 L 545.838,348.732 M 534.323,348.571 L 534.619,348.915 L 534.38,348.83000000000004 L 534.126,349.06800000000004 L 533.804,348.79 L 533.611,348.50800000000004 L 533.568,348.39500000000004 L 533.77,348.13100000000003 L 533.958,348.40200000000004 L 534.1859999999999,348.44500000000005 L 534.323,348.571 M 550.982,348.549 L 551.327,348.666 L 551.423,348.653 L 551.586,348.695 L 551.629,348.909 L 551.413,348.94 L 551.039,349.137 L 550.88,349.094 L 550.6899999999999,348.923 L 550.3879999999999,348.90500000000003 L 550.2989999999999,348.858 L 550.4609999999999,348.656 L 550.7549999999999,348.55400000000003 L 550.982,348.549 M 544.054,349.377 L 543.866,349.548 L 543.834,349.291 L 543.9549999999999,349.02 L 544.1199999999999,349.003 L 544.1809999999999,349.122 L 544.054,349.377 M 546.58,349.297 L 546.476,349.52500000000003 L 546.301,349.49 L 546.008,349.245 L 545.908,349.134 L 545.8530000000001,349.02500000000003 L 545.9730000000001,349.01200000000006 L 546.1200000000001,349.12800000000004 L 546.4950000000001,349.189 L 546.58,349.297 M 548.75,349.545 L 548.619,349.559 L 548.659,349.418 L 548.91,349.173 L 549.262,349.161 L 549.582,349.038 L 549.654,349.034 L 549.501,349.227 L 549.2429999999999,349.407 L 548.75,349.545 M 546.992,349.933 L 546.723,349.955 L 546.7389999999999,349.686 L 546.8389999999999,349.616 L 547.161,349.75 L 547.145,349.834 L 546.992,349.933 M 545.702,349.671 L 545.688,350.036 L 545.614,350.033 L 545.571,349.97700000000003 L 545.5690000000001,349.83700000000005 L 545.6010000000001,349.617 L 545.702,349.671 M 544.278,350.196 L 544.118,350.30300000000005 L 544.171,350.059 L 544.0920000000001,349.932 L 544.1620000000001,349.824 L 544.2650000000001,349.737 L 544.3130000000001,349.827 L 544.4050000000001,349.973 L 544.278,350.196 M 544.524,350.966 L 544.42,351.019 L 544.247,350.942 L 544.293,350.75 L 544.413,350.668 L 544.54,350.731 L 544.559,350.818 L 544.524,350.966 M 547.394,351.518 L 547.144,351.65 L 546.973,351.459 L 546.8779999999999,351.158 L 547.3359999999999,350.716 L 547.4459999999999,350.75600000000003 L 547.512,350.87 L 547.502,351.267 L 547.394,351.518 M 546.645,351.165 L 546.422,351.435 L 546.236,351.406 L 546.158,351.282 L 546.273,351.02799999999996 L 546.522,350.88399999999996 L 546.6350000000001,350.92199999999997 L 546.6240000000001,351.10999999999996 L 546.645,351.165 M 551.53,351.547 L 551.25,351.595 L 551.3,351.317 L 551.163,351.098 L 551.381,351.221 L 551.52,351.369 L 551.588,351.39700000000005 L 551.572,351.48600000000005 L 551.53,351.547 M 545.079,351.679 L 545.0279999999999,351.69399999999996 L 544.954,351.54699999999997 L 544.939,351.40999999999997 L 544.968,351.32899999999995 L 545.0649999999999,351.32099999999997 L 545.1969999999999,351.582 L 545.079,351.679 M 548.273,352.136 L 548.025,352.165 L 547.946,352.139 L 548.097,352.079 L 548.202,352.015 L 548.253,351.938 L 548.504,351.80199999999996 L 548.669,351.62399999999997 L 548.848,351.74499999999995 L 548.6239999999999,351.82599999999996 L 548.273,352.136 M 551.333,352.357 L 551.246,352.36100000000005 L 551.35,352.19300000000004 L 551.6460000000001,351.96200000000005 L 552.0770000000001,351.75800000000004 L 552.2200000000001,351.73600000000005 L 552.4630000000002,351.862 L 552.0170000000002,352.071 L 551.8980000000001,352.18100000000004 L 551.5690000000002,352.20500000000004 L 551.333,352.357 M 546.933,352.542 L 546.884,352.597 L 546.672,352.37699999999995 L 546.591,352.24899999999997 L 546.692,352.14199999999994 L 547.004,352.39199999999994 L 546.933,352.542 M 544.559,352.229 L 544.564,352.43399999999997 L 544.544,352.50699999999995 L 543.97,352.60599999999994 L 544.023,352.3709999999999 L 544.058,352.2969999999999 L 544.248,352.4059999999999 L 544.3180000000001,352.3499999999999 L 544.3460000000001,352.2859999999999 L 544.559,352.229 M 553.889,352.96 L 553.828,353.015 L 553.687,352.856 L 553.6800000000001,352.77299999999997 L 553.8240000000001,352.67799999999994 L 553.8960000000001,352.65599999999995 L 553.917,352.72099999999995 L 553.9150000000001,352.85999999999996 L 553.889,352.96 M 549.961,352.851 L 549.739,352.934 L 549.5980000000001,353.10900000000004 L 549.426,352.985 L 549.426,352.817 L 549.614,352.869 L 549.746,352.774 L 549.706,352.667 L 549.85,352.717 L 549.961,352.851 M 547.216,353.521 L 547.086,353.704 L 546.902,353.639 L 546.9770000000001,353.57 L 547.0210000000001,353.48 L 547.0260000000001,353.35 L 546.9760000000001,353.27000000000004 L 547.0100000000001,353.24100000000004 L 547.1740000000001,353.37500000000006 L 547.216,353.521 M 553.84,355.124 L 553.638,355.197 L 553.568,355.188 L 553.484,355.02799999999996 L 553.601,354.64199999999994 L 553.493,354.3929999999999 L 553.4860000000001,354.2879999999999 L 553.6500000000001,354.1419999999999 L 553.7640000000001,353.9229999999999 L 554.0420000000001,353.68599999999986 L 554.7630000000001,353.40499999999986 L 554.9320000000001,353.37899999999985 L 554.9270000000001,353.5989999999999 L 554.6860000000001,354.15499999999986 L 554.4720000000001,354.4329999999999 L 554.5290000000001,354.65499999999986 L 554.1860000000001,354.71699999999987 L 553.84,355.124 M 540.4,354.224 L 540.367,354.37399999999997 L 540.078,354.27099999999996 L 539.9979999999999,354.116 L 539.983,353.772 L 540.059,353.604 L 540.1089999999999,353.551 L 540.242,353.745 L 540.521,354.028 L 540.4,354.224 M 551.969,356.721 L 551.8620000000001,356.914 L 551.753,356.751 L 551.8000000000001,356.563 L 551.6740000000001,356.26599999999996 L 551.9130000000001,355.82399999999996 L 551.9180000000001,355.609 L 552.1010000000001,355.49899999999997 L 552.0560000000002,355.864 L 551.9160000000002,356.15599999999995 L 552.0610000000001,356.39899999999994 L 552.1300000000001,356.67499999999995 L 551.969,356.721 M 542.641,356.48 L 542.833,356.505 L 543.093,356.501 L 543.1519999999999,356.47999999999996 L 543.318,356.27899999999994 L 543.5219999999999,356.2749999999999 L 543.611,356.4729999999999 L 543.404,356.5639999999999 L 543.362,356.61599999999993 L 543.4019999999999,356.6579999999999 L 543.5569999999999,356.74099999999993 L 543.7729999999999,356.7099999999999 L 543.7789999999999,356.86599999999993 L 543.8269999999999,356.99299999999994 L 543.9329999999999,357.06899999999996 L 544.0489999999999,357.08399999999995 L 544.3039999999999,357.06199999999995 L 544.5549999999998,357.01199999999994 L 544.8139999999999,356.9119999999999 L 545.0789999999998,356.86099999999993 L 545.8699999999999,356.9119999999999 L 546.1539999999999,357.12799999999993 L 546.6949999999999,357.15399999999994 L 547.1969999999999,357.2679999999999 L 547.4609999999999,357.1929999999999 L 547.9119999999999,357.12299999999993 L 547.9839999999999,357.19899999999996 L 547.9259999999999,357.686 L 547.954,357.828 L 548.084,357.89599999999996 L 548.212,357.86299999999994 L 548.37,357.7029999999999 L 548.748,357.5799999999999 L 549.1400000000001,357.5799999999999 L 549.4710000000001,357.2559999999999 L 549.5680000000001,357.2369999999999 L 549.5070000000001,357.3959999999999 L 549.4570000000001,357.7699999999999 L 549.3870000000001,357.9889999999999 L 549.355,358.16099999999994 L 549.134,358.24999999999994 L 548.801,358.26499999999993 L 548.192,358.2269999999999 L 547.578,358.2879999999999 L 546.441,358.4519999999999 L 545.302,358.5359999999999 L 545.149,358.4809999999999 L 545.146,358.2639999999999 L 545.122,358.1139999999999 L 545.048,358.0089999999999 L 544.696,357.9189999999999 L 544.36,357.76499999999993 L 543.043,357.55499999999995 L 542.732,357.4719999999999 L 542.228,357.51499999999993 L 542.043,357.50899999999996 L 541.916,357.43399999999997 L 541.8280000000001,357.304 L 541.7880000000001,356.89099999999996 L 541.8510000000001,356.48199999999997 L 541.9600000000002,356.37399999999997 L 542.0100000000001,356.49699999999996 L 542.1390000000001,356.554 L 542.2590000000001,356.42999999999995 L 542.2580000000002,356.24199999999996 L 542.3190000000002,356.068 L 542.4140000000002,356.14099999999996 L 542.4770000000002,356.40899999999993 L 542.641,356.48" id="GR" title="Greece"/>
</svg>
