<svg xmlns="http://www.w3.org/2000/svg" xmlns:ev="http://www.w3.org/2001/xml-events" xmlns:xlink="http://www.w3.org/1999/xlink" baseProfile="full" height="22.7509765625" version="1.1" viewBox="369.0050048828125 642.4910278320312 32.99700927734375 22.7509765625" width="32.99700927734375" fill="#00394f">
	<defs/>
	<path class="land" d="M 371.569,642.879 L 371.84200000000004,643.111 L 372.059,642.953 L 372.28400000000005,642.972 L 372.40700000000004,643.05 L 372.533,643.0799999999999 L 372.69100000000003,643.0809999999999 L 372.963,643.473 L 372.84900000000005,643.8199999999999 L 373.14700000000005,643.752 L 373.40600000000006,644.0409999999999 L 373.52400000000006,644.0179999999999 L 373.5830000000001,643.901 L 373.75000000000006,643.7669999999999 L 373.86500000000007,643.9469999999999 L 374.00500000000005,644.2919999999999 L 374.1820000000001,644.3969999999999 L 374.3380000000001,644.762 L 374.46100000000007,645.2239999999999 L 374.5730000000001,645.29 L 374.7650000000001,645.2909999999999 L 374.9600000000001,645.228 L 374.8860000000001,645.6279999999999 L 374.9090000000001,645.982 L 375.2310000000001,646.237 L 375.0390000000001,646.3779999999999 L 374.8370000000001,646.5819999999999 L 374.4260000000001,646.7389999999999 L 374.3190000000001,646.6729999999999 L 373.9600000000001,646.3179999999999 L 373.7930000000001,645.8999999999999 L 373.4160000000001,645.3039999999999 L 373.3420000000001,645.1289999999999 L 373.2450000000001,645.0169999999999 L 372.9040000000001,644.9449999999999 L 372.6040000000001,644.8019999999999 L 372.3540000000001,644.502 L 372.2760000000001,644.318 L 372.1800000000001,644.1899999999999 L 371.8410000000001,644.1969999999999 L 371.6270000000001,644.0559999999999 L 371.4160000000001,643.8639999999999 L 370.46300000000014,643.31 L 370.0890000000001,643.366 L 369.9170000000001,643.21 L 369.9260000000001,642.933 L 370.1230000000001,642.768 L 369.2980000000001,642.705 L 369.0050000000001,642.606 L 369.2070000000001,642.546 L 370.3570000000001,642.537 L 370.78800000000007,642.491 L 370.8260000000001,642.61 L 371.20700000000005,642.855 L 371.569,642.879 M 401.99,664.936 L 402.002,665.2420000000001 L 401.56600000000003,664.9620000000001 L 401.46500000000003,664.8300000000002 L 401.605,664.6590000000001 L 401.879,664.6530000000001 L 401.946,664.7570000000002 L 401.99,664.936" id="GS" title="South Georgia and South Sandwich Islands"/>
</svg>
