<svg xmlns="http://www.w3.org/2000/svg" xmlns:ev="http://www.w3.org/2001/xml-events" xmlns:xlink="http://www.w3.org/1999/xlink" baseProfile="full" height="11.8280029296875" version="1.1" viewBox="216.84300231933594 412.1719970703125 11.2449951171875 11.8280029296875" width="11.2449951171875">
	<defs/>
	<path class="land" d="M 225.469,412.177 L 225.442,412.887 L 225.411,413.709 L 225.388,414.312 L 225.357,415.116 L 225.326,415.937 L 225.283,417.054 L 225.256,417.774 L 225.269,417.791 L 225.604,417.756 L 226.099,417.788 L 226.22,417.786 L 226.371,417.848 L 226.488,417.867 L 226.74,418.029 L 227.035,418.152 L 227.224,417.904 L 227.125,417.755 L 227.05,417.679 L 227.062,417.612 L 228.088,418.254 L 227.967,418.353 L 227.706,418.581 L 227.232,418.972 L 226.808,419.321 L 226.399,419.637 L 226.032,419.922 L 225.988,419.95 L 225.522,420.154 L 225.444,420.247 L 225.344,420.649 L 225.298,420.749 L 225.383,420.972 L 225.467,421.316 L 225.44,421.497 L 225.118,421.718 L 224.97,421.917 L 224.905,422.046 L 224.847,422.013 L 224.747,422.003 L 224.517,422.053 L 224.405,422.064 L 224.313,422.121 L 224.303,422.245 L 224.365,422.446 L 224.387,422.549 L 224.322,422.597 L 224.038,422.718 L 223.926,422.837 L 223.819,423.021 L 223.695,423.099 L 223.565,423.085 L 223.473,423.112 L 223.276,423.251 L 222.98,423.519 L 222.822,423.718 L 222.818,423.866 L 222.849,424.0 L 221.771,423.528 L 221.413,423.447 L 219.899,423.457 L 219.25,423.271 L 218.511,422.913 L 218.01,422.587 L 216.843,421.674 L 216.916,421.6 L 216.978,421.43 L 217.054,421.254 L 217.007,421.051 L 216.979,420.887 L 217.066,420.647 L 217.058,420.468 L 217.098,420.357 L 217.226,420.285 L 217.293,420.148 L 216.929,419.676 L 216.93,419.568 L 216.978,419.435 L 217.272,418.93 L 217.623,418.329 L 218.009,417.665 L 218.242,417.265 L 219.091,417.264 L 219.653,417.263 L 220.367,417.263 L 221.142,417.262 L 221.651,417.262 L 221.861,417.257 L 221.825,416.997 L 221.853,416.709 L 221.945,416.448 L 221.945,416.333 L 221.793,416.191 L 221.5,416.109 L 221.336,415.984 L 221.335,415.826 L 221.264,415.635 L 221.121,415.41 L 220.826,415.18 L 220.377,414.944 L 219.995,414.628 L 219.68,414.231 L 219.414,413.976 L 219.208,413.869 L 219.16,413.813 L 219.761,413.817 L 220.329,413.822 L 220.333,413.252 L 220.336,412.746 L 220.34,412.172 L 221.37,412.173 L 222.601,412.174 L 223.877,412.176 L 224.879,412.177 L 225.469,412.177" id="GT" title="Guatemala"/>
</svg>
