<svg xmlns="http://www.w3.org/2000/svg" xmlns:ev="http://www.w3.org/2001/xml-events" xmlns:xlink="http://www.w3.org/1999/xlink" baseProfile="full" height="4.959014892578125" version="1.1" viewBox="428.7969970703125 427.02398681640625 8.52801513671875 4.959014892578125" width="8.52801513671875">
	<defs/>
	<path class="land" d="M 437.168,427.044 L 437.159,427.275 L 437.325,427.602 L 437.301,427.84499999999997 L 437.229,428.075 L 437.166,428.166 L 437.08299999999997,428.219 L 436.83099999999996,428.217 L 436.72499999999997,428.263 L 436.55699999999996,428.35299999999995 L 436.55299999999994,428.45899999999995 L 436.68699999999995,428.55999999999995 L 436.79699999999997,428.70099999999996 L 436.92499999999995,428.81199999999995 L 437.145,428.93999999999994 L 437.166,429.08199999999994 L 437.17199999999997,429.43999999999994 L 437.15999999999997,429.7199999999999 L 436.54099999999994,429.9229999999999 L 436.0659999999999,429.9589999999999 L 435.66399999999993,429.9369999999999 L 435.4889999999999,430.0219999999999 L 435.1389999999999,430.2309999999999 L 434.7119999999999,430.3579999999999 L 434.4929999999999,430.3669999999999 L 434.38799999999986,430.4429999999999 L 434.22199999999987,430.6599999999999 L 433.75899999999984,431.6079999999999 L 433.6059999999998,431.83499999999987 L 433.4819999999998,431.9829999999999 L 433.3399999999998,431.78199999999987 L 433.4499999999998,431.40999999999985 L 433.3309999999998,431.41499999999985 L 433.0949999999998,431.71599999999984 L 432.9799999999998,431.72499999999985 L 432.9949999999998,431.36899999999986 L 432.8639999999998,431.3559999999999 L 432.7119999999998,431.38099999999986 L 432.49999999999983,431.1949999999999 L 432.4789999999998,431.05599999999987 L 432.4959999999998,430.86199999999985 L 432.62499999999983,430.73799999999983 L 432.60699999999986,430.6859999999998 L 432.48199999999986,430.6709999999998 L 432.34199999999987,430.70399999999984 L 432.25599999999986,430.6449999999998 L 432.39799999999985,430.3929999999998 L 432.89399999999983,430.1819999999998 L 433.14299999999986,430.1599999999998 L 433.39899999999983,430.1119999999998 L 433.25899999999984,429.9299999999998 L 432.95599999999985,429.8579999999998 L 432.7139999999998,429.9079999999998 L 432.59299999999985,430.03899999999976 L 432.44399999999985,430.06099999999975 L 432.19399999999985,429.7519999999997 L 432.19799999999987,429.59699999999975 L 432.2909999999999,429.4129999999997 L 432.43599999999986,429.3299999999997 L 433.01099999999985,429.3319999999997 L 433.22899999999987,429.2279999999997 L 433.3169999999999,429.2089999999997 L 433.3999999999999,429.1149999999997 L 433.38199999999995,429.05199999999974 L 433.28799999999995,429.04899999999975 L 433.073,429.17199999999974 L 432.381,429.12599999999975 L 432.15999999999997,429.19999999999976 L 431.775,429.4829999999998 L 431.301,429.6389999999998 L 430.957,429.5729999999998 L 431.067,429.1939999999998 L 431.01800000000003,429.1429999999998 L 430.91,429.0799999999998 L 430.406,429.2009999999998 L 430.02500000000003,429.0279999999998 L 429.874,428.8189999999998 L 429.90000000000003,428.5559999999998 L 430.08000000000004,428.3779999999998 L 430.10800000000006,428.2889999999998 L 429.91800000000006,428.2719999999998 L 429.56800000000004,428.3829999999998 L 428.797,427.9529999999998 L 428.951,427.9259999999998 L 429.331,427.97099999999983 L 429.62600000000003,427.91699999999986 L 429.83400000000006,427.82599999999985 L 430.1170000000001,427.70099999999985 L 430.3900000000001,427.65999999999985 L 431.2450000000001,427.71599999999984 L 431.9880000000001,427.56599999999986 L 432.54000000000013,427.2839999999999 L 433.0500000000001,427.0239999999999 L 433.7110000000001,427.0269999999999 L 434.41900000000015,427.02999999999986 L 435.42600000000016,427.0339999999999 L 436.22400000000016,427.03699999999986 L 437.168,427.044 M 430.834,429.304 L 430.688,429.65299999999996 L 430.508,429.614 L 430.382,429.40599999999995 L 430.368,429.3179999999999 L 430.734,429.2899999999999 L 430.834,429.304 M 432.049,430.286 L 432.02299999999997,430.352 L 431.86299999999994,430.296 L 432.09599999999995,430.056 L 432.24799999999993,430.014 L 432.24299999999994,430.19800000000004 L 432.1259999999999,430.237 L 432.049,430.286 M 431.071,430.489 L 430.939,430.578 L 430.803,430.536 L 430.73,430.456 L 430.74100000000004,430.31300000000005 L 430.89500000000004,430.11100000000005 L 431.033,430.13700000000006 L 431.071,430.489 M 431.567,431.201 L 431.567,431.31800000000004 L 431.448,431.29600000000005 L 431.41299999999995,431.261 L 431.484,431.05 L 431.58799999999997,430.956 L 431.71599999999995,430.971 L 431.75399999999996,430.999 L 431.729,431.08000000000004 L 431.673,431.14700000000005 L 431.567,431.201 M 430.475,431.645 L 430.25,431.68699999999995 L 430.148,431.54599999999994 L 430.13300000000004,431.49099999999993 L 430.25000000000006,431.4439999999999 L 430.30300000000005,431.4419999999999 L 430.39200000000005,431.3389999999999 L 430.50200000000007,431.2709999999999 L 430.55100000000004,431.2489999999999 L 430.60800000000006,431.2539999999999 L 430.64900000000006,431.4799999999999 L 430.5950000000001,431.57499999999993 L 430.475,431.645 M 431.088,431.579 L 431.062,431.658 L 430.897,431.646 L 430.93399999999997,431.56600000000003 L 430.89799999999997,431.543 L 430.945,431.303 L 430.96999999999997,431.266 L 431.04999999999995,431.355 L 431.061,431.392 L 431.088,431.579" id="GW" title="Guinea-Bissau"/>
</svg>
