<svg xmlns="http://www.w3.org/2000/svg" xmlns:ev="http://www.w3.org/2001/xml-events" xmlns:xlink="http://www.w3.org/1999/xlink" baseProfile="full" height="20.573028564453125" version="1.1" viewBox="303.4070129394531 438.74798583984375 13.77398681640625 20.573028564453125" width="13.77398681640625">
	<defs/>
	<path class="land" d="M 315.183,447.179 L 315.034,447.355 L 315.007,447.468 L 314.911,447.667 L 314.836,447.775 L 314.945,448.023 L 315.069,448.034 L 315.117,448.066 L 315.148,448.114 L 315.141,448.167 L 315.093,448.214 L 314.974,448.274 L 314.861,448.417 L 314.872,448.575 L 314.801,448.657 L 314.573,448.701 L 314.127,448.701 L 313.909,448.712 L 313.734,448.739 L 313.619,448.841 L 313.473,448.913 L 313.358,448.929 L 313.257,449.048 L 313.156,449.216 L 313.19,449.332 L 313.294,449.485 L 313.355,449.642 L 313.275,449.897 L 313.187,450.094 L 313.135,450.244 L 313.064,450.532 L 312.893,450.85 L 312.771,451.03 L 312.771,451.227 L 312.833,451.505 L 313.182,451.911 L 313.298,452.105 L 313.393,452.416 L 313.708,452.661 L 313.907,452.859 L 313.888,453.12 L 313.915,453.202 L 314.038,453.268 L 314.188,453.318 L 314.353,453.314 L 314.501,453.292 L 314.535,453.255 L 314.877,453.25 L 314.916,453.316 L 314.936,453.692 L 314.95,453.845 L 315.031,453.906 L 315.08,454.0 L 315.083,454.084 L 315.098,454.295 L 315.149,454.406 L 315.141,454.63 L 315.176,454.713 L 315.271,454.769 L 315.39,454.93 L 315.435,454.95 L 315.458,455.007 L 315.56,455.236 L 315.612,455.305 L 315.648,455.315 L 315.664,455.395 L 315.738,455.609 L 315.788,455.662 L 315.883,455.819 L 315.922,455.991 L 316.048,456.185 L 316.177,456.321 L 316.235,456.462 L 316.4,456.773 L 316.56,456.992 L 316.776,457.049 L 316.957,457.08 L 317.07,457.164 L 317.181,457.255 L 317.062,457.297 L 316.955,457.353 L 316.806,457.31 L 316.6,457.333 L 316.386,457.395 L 316.188,457.425 L 315.815,457.327 L 315.702,457.313 L 315.624,457.271 L 315.47,457.078 L 315.396,457.055 L 315.198,457.145 L 314.957,457.208 L 314.839,457.196 L 314.7,457.261 L 314.571,457.348 L 314.325,457.725 L 314.198,457.858 L 314.062,457.919 L 313.789,457.917 L 313.497,457.931 L 313.278,458.022 L 313.074,458.068 L 312.972,458.074 L 312.937,458.281 L 312.89,458.377 L 312.826,458.432 L 312.667,458.448 L 312.524,458.441 L 312.438,458.355 L 312.277,458.312 L 312.134,458.281 L 312.042,458.232 L 311.967,458.244 L 311.905,458.33 L 311.856,458.404 L 311.813,458.54 L 311.596,458.583 L 311.503,458.66 L 311.557,458.913 L 311.532,459.012 L 311.487,459.089 L 311.225,459.104 L 311.002,459.099 L 310.874,459.192 L 310.714,459.301 L 310.617,459.321 L 310.502,459.315 L 310.351,459.188 L 310.205,459.033 L 309.835,458.924 L 309.468,458.834 L 309.227,458.587 L 309.17,458.466 L 309.057,458.412 L 308.771,458.119 L 308.613,457.931 L 308.442,457.88 L 308.246,457.802 L 308.254,457.665 L 308.241,457.534 L 308.156,457.48 L 308.038,457.445 L 307.995,457.371 L 308.007,457.199 L 308.03,456.754 L 307.997,456.329 L 307.734,456.182 L 307.62,456.081 L 307.42,455.452 L 307.326,455.169 L 307.322,454.958 L 307.388,454.33 L 307.463,454.058 L 307.667,453.513 L 307.784,453.328 L 307.791,453.19 L 307.779,453.013 L 307.719,452.663 L 308.063,452.442 L 308.211,452.349 L 308.236,452.201 L 308.42,452.014 L 308.502,451.836 L 308.57,451.696 L 308.551,451.622 L 308.471,451.579 L 308.376,451.446 L 308.177,451.062 L 308.105,450.984 L 308.044,450.876 L 308.075,450.707 L 308.153,450.522 L 308.143,450.445 L 308.024,450.346 L 307.778,450.18 L 307.574,450.168 L 307.416,450.108 L 307.184,450.1 L 306.999,450.082 L 306.893,450.02 L 306.915,449.918 L 306.961,449.84 L 307.117,449.646 L 307.221,449.44 L 307.235,449.238 L 307.267,448.973 L 307.312,448.742 L 307.336,448.482 L 307.091,448.311 L 307.013,448.17 L 306.912,448.045 L 306.8,448.045 L 306.632,447.992 L 306.37,448.156 L 306.163,448.126 L 306.021,448.188 L 305.693,448.175 L 305.482,448.095 L 305.228,448.148 L 304.633,447.489 L 304.035,446.826 L 303.446,446.174 L 303.407,446.085 L 303.653,445.774 L 303.873,445.551 L 304.056,445.424 L 304.143,445.313 L 304.076,444.833 L 304.08,444.661 L 303.994,444.473 L 303.933,444.263 L 304.006,444.087 L 304.095,443.965 L 304.21,443.917 L 304.484,443.875 L 304.678,443.857 L 304.747,443.787 L 304.859,443.706 L 305.007,443.701 L 305.295,443.758 L 305.427,443.652 L 305.666,443.508 L 306.202,443.261 L 306.322,443.099 L 306.406,442.849 L 306.397,442.73 L 306.342,442.686 L 306.209,442.645 L 306.005,442.639 L 305.842,442.704 L 305.673,442.668 L 305.533,442.514 L 305.525,442.386 L 305.608,442.206 L 305.56,442.086 L 305.292,441.706 L 305.293,441.601 L 305.488,441.43 L 305.598,441.285 L 305.749,440.937 L 305.869,440.821 L 306.242,440.78 L 306.337,440.706 L 306.527,440.522 L 306.811,440.312 L 307.219,440.144 L 307.336,439.839 L 307.409,439.755 L 307.734,439.595 L 307.791,439.509 L 307.783,439.433 L 307.261,438.748 L 307.365,438.794 L 307.769,439.242 L 307.993,439.339 L 308.04,439.341 L 308.042,439.225 L 308.248,439.273 L 308.778,439.58 L 309.555,440.085 L 310.646,441.039 L 310.956,441.402 L 311.165,441.573 L 311.489,441.989 L 311.584,442.191 L 311.575,443.0 L 311.287,443.546 L 311.217,443.957 L 311.202,444.504 L 311.035,444.817 L 311.256,444.647 L 311.325,444.154 L 311.514,443.854 L 311.759,443.525 L 312.086,443.446 L 312.438,443.586 L 312.722,443.611 L 312.972,443.708 L 313.504,444.234 L 314.024,444.65 L 314.214,444.983 L 314.765,445.15 L 315.091,445.413 L 315.196,445.641 L 315.26,446.235 L 315.154,447.133 L 315.183,447.179" id="GY" title="Guyana"/>
</svg>
