<svg xmlns="http://www.w3.org/2000/svg" xmlns:ev="http://www.w3.org/2001/xml-events" xmlns:xlink="http://www.w3.org/1999/xlink" baseProfile="full" height="1.115997314453125" version="1.1" viewBox="795.18701171875 398.052001953125 1.39300537109375 1.115997314453125" width="1.39300537109375" fill="#00394f">
	<defs/>
	<path class="land" d="M 796.386,398.124 L 796.396,398.137 L 796.457,398.25 L 796.438,398.376 L 796.552,398.43699999999995 L 796.58,398.56199999999995 L 796.4540000000001,398.62899999999996 L 796.4470000000001,398.775 L 796.3910000000001,398.86499999999995 L 796.0290000000001,398.7049999999999 L 795.7310000000001,398.6219999999999 L 795.4620000000001,398.6549999999999 L 795.3640000000001,398.5609999999999 L 795.3470000000001,398.46399999999994 L 795.657,398.29599999999994 L 795.681,398.21199999999993 L 795.6890000000001,398.2049999999999 L 795.7790000000001,398.1189999999999 L 795.9130000000001,398.09399999999994 L 795.9830000000002,398.05199999999996 L 796.1660000000002,398.05199999999996 L 796.2780000000001,398.085 L 796.386,398.124 M 795.633,399.122 L 795.2950000000001,399.122 L 795.2230000000001,399.09200000000004 L 795.1870000000001,399.028 L 795.3070000000001,398.91200000000003 L 795.7630000000001,398.752 L 795.6490000000001,398.92 L 795.633,399.122 M 796.29,399.122 L 796.221,399.168 L 796.029,398.948 L 796.017,398.876 L 796.1650000000001,398.863 L 796.3320000000001,398.963 L 796.3220000000001,399.05400000000003 L 796.29,399.122" id="HK" title="Hong Kong"/>
</svg>
