<svg xmlns="http://www.w3.org/2000/svg" xmlns:ev="http://www.w3.org/2001/xml-events" xmlns:xlink="http://www.w3.org/1999/xlink" baseProfile="full" height="10.194000244140625" version="1.1" viewBox="224.9080047607422 415.9739990234375 17.410995483398438 10.194000244140625" width="17.410995483398438" fill="#00394f">
	<defs/>
	<path class="land" d="M 234.704,416.127 L 234.49,416.295 L 234.45100000000002,416.219 L 234.55400000000003,416.063 L 234.68300000000002,415.974 L 234.80800000000002,415.983 L 234.77800000000002,416.05 L 234.704,416.127 M 233.163,416.369 L 232.71300000000002,416.596 L 232.57200000000003,416.592 L 232.77800000000002,416.417 L 233.11100000000002,416.267 L 233.39300000000003,416.193 L 233.62400000000002,416.22499999999997 L 233.163,416.369 M 242.319,420.382 L 241.59599999999998,420.339 L 241.25499999999997,420.428 L 241.10599999999997,420.629 L 240.97799999999998,420.719 L 240.87099999999998,420.698 L 240.65399999999997,420.777 L 240.32699999999997,420.955 L 240.03299999999996,421.022 L 239.76999999999995,420.979 L 239.69399999999996,421.022 L 239.67299999999997,421.081 L 239.63299999999998,421.13800000000003 L 239.53099999999998,421.168 L 239.414,421.152 L 239.283,421.089 L 239.214,421.116 L 239.206,421.23199999999997 L 239.135,421.263 L 239.001,421.20799999999997 L 238.85,421.24999999999994 L 238.682,421.38899999999995 L 238.446,421.41799999999995 L 238.142,421.33799999999997 L 237.90699999999998,421.18699999999995 L 237.73999999999998,420.965 L 237.54,420.909 L 237.19,421.074 L 237.044,421.267 L 237.012,421.385 L 237.046,421.492 L 236.982,421.56300000000005 L 236.819,421.59900000000005 L 236.695,421.73 L 236.611,421.956 L 236.594,422.13100000000003 L 236.64499999999998,422.254 L 236.564,422.344 L 236.351,422.402 L 236.1,422.597 L 235.81,422.929 L 235.522,423.15999999999997 L 235.23499999999999,423.29099999999994 L 235.09699999999998,423.43699999999995 L 235.10699999999997,423.597 L 235.08899999999997,423.647 L 235.03399999999996,423.666 L 234.94099999999997,423.688 L 234.38799999999998,423.34 L 234.22899999999998,423.097 L 234.09199999999998,423.13399999999996 L 233.91799999999998,423.25699999999995 L 233.67299999999997,423.53 L 233.41099999999997,423.902 L 233.28399999999996,423.94399999999996 L 232.62899999999996,423.888 L 232.28299999999996,423.921 L 232.21199999999996,423.96999999999997 L 232.17999999999995,424.106 L 232.19999999999996,424.288 L 232.29499999999996,424.942 L 232.34799999999996,425.211 L 232.29599999999996,425.29400000000004 L 232.11999999999998,425.307 L 231.89099999999996,425.345 L 231.76599999999996,425.468 L 231.73599999999996,425.595 L 231.72399999999996,425.77200000000005 L 231.65199999999996,425.95500000000004 L 231.51099999999997,426.086 L 231.37099999999998,426.13300000000004 L 230.58999999999997,426.16800000000006 L 230.60399999999998,425.86600000000004 L 230.379,425.74300000000005 L 230.251,425.49100000000004 L 230.139,425.321 L 230.17600000000002,425.21900000000005 L 230.16500000000002,425.09800000000007 L 229.847,425.0040000000001 L 229.55,425.07700000000006 L 229.37900000000002,425.02900000000005 L 229.25300000000001,424.96500000000003 L 229.47000000000003,424.81600000000003 L 229.485,424.725 L 229.41500000000002,424.66 L 229.34400000000002,424.61600000000004 L 229.365,424.44700000000006 L 229.40900000000002,424.24700000000007 L 229.53100000000003,423.7800000000001 L 229.48600000000005,423.6980000000001 L 229.28700000000003,423.5570000000001 L 229.03500000000003,423.54300000000006 L 228.75700000000003,423.58700000000005 L 228.62300000000005,423.51500000000004 L 228.50600000000006,423.35400000000004 L 228.30800000000005,423.27700000000004 L 227.95700000000005,423.40500000000003 L 227.58500000000004,423.598 L 227.47100000000003,423.668 L 227.37700000000004,423.659 L 227.33500000000004,423.514 L 227.31600000000003,423.343 L 227.29300000000003,423.30100000000004 L 227.09500000000003,423.24000000000007 L 226.86400000000003,423.1960000000001 L 226.74600000000004,423.14900000000006 L 226.63500000000005,423.0330000000001 L 226.35800000000006,422.88200000000006 L 226.29500000000007,422.77000000000004 L 225.92500000000007,422.51400000000007 L 225.85000000000008,422.38700000000006 L 225.76500000000007,422.29400000000004 L 225.58700000000007,422.17600000000004 L 225.44800000000006,422.20400000000006 L 224.97900000000007,422.0570000000001 L 224.90800000000007,422.0440000000001 L 224.97300000000007,421.9150000000001 L 225.12100000000007,421.71600000000007 L 225.44300000000007,421.4940000000001 L 225.47000000000006,421.3140000000001 L 225.38600000000005,420.9700000000001 L 225.30100000000004,420.74700000000007 L 225.34700000000004,420.64700000000005 L 225.44800000000004,420.24500000000006 L 225.52600000000004,420.15200000000004 L 225.99200000000005,419.94800000000004 L 226.03500000000005,419.92 L 226.40300000000005,419.635 L 226.81100000000004,419.319 L 227.23500000000004,418.97 L 227.70900000000003,418.579 L 227.97000000000003,418.35 L 228.09100000000004,418.25100000000003 L 228.36400000000003,418.33200000000005 L 228.57900000000004,418.14700000000005 L 228.70300000000003,418.08500000000004 L 228.99400000000003,417.86400000000003 L 229.08400000000003,417.81600000000003 L 229.57000000000002,417.725 L 229.80500000000004,417.72700000000003 L 230.01100000000002,417.95200000000006 L 230.17400000000004,418.07500000000005 L 230.48100000000002,417.97 L 230.73800000000003,417.947 L 231.80100000000002,418.156 L 232.223,418.064 L 232.99800000000002,418.04400000000004 L 233.347,418.09600000000006 L 233.839,417.80100000000004 L 234.155,417.74100000000004 L 234.526,417.60300000000007 L 234.477,417.46100000000007 L 234.388,417.39700000000005 L 234.954,417.45900000000006 L 235.797,417.75900000000007 L 236.695,417.7050000000001 L 237.019,417.5430000000001 L 237.228,417.4970000000001 L 238.148,417.8050000000001 L 238.39,418.04200000000014 L 238.57899999999998,418.06500000000017 L 238.72599999999997,418.0110000000002 L 238.76599999999996,417.9620000000002 L 238.58499999999995,417.9100000000002 L 238.50199999999995,417.8360000000002 L 239.22699999999995,417.9820000000002 L 240.59099999999995,419.0990000000002 L 240.61899999999994,419.1900000000002 L 240.03599999999994,418.86000000000024 L 239.72799999999995,418.8850000000002 L 239.64699999999996,418.9380000000002 L 239.66499999999996,419.1180000000002 L 239.69299999999996,419.2020000000002 L 239.82499999999996,419.2120000000002 L 239.92299999999997,419.16300000000024 L 240.164,419.22200000000026 L 240.32399999999998,419.34200000000027 L 240.517,419.5260000000003 L 240.633,419.7250000000003 L 240.758,419.7280000000003 L 240.881,419.6080000000003 L 241.113,419.5930000000003 L 241.263,419.7270000000003 L 241.37,419.71900000000034 L 241.221,419.5110000000003 L 240.87,419.3040000000003 L 240.953,419.2950000000003 L 241.731,419.6660000000003 L 241.951,420.1320000000003 L 242.134,420.2370000000003 L 242.319,420.382" id="HN" title="Honduras"/>
</svg>
