<svg xmlns="http://www.w3.org/2000/svg" xmlns:ev="http://www.w3.org/2001/xml-events" xmlns:xlink="http://www.w3.org/1999/xlink" baseProfile="full" height="16.087982177734375" version="1.1" viewBox="513.6279907226562 315.5570068359375 16.52001953125 16.087982177734375" width="16.52001953125" fill="#00394f">
	<defs/>
	<path class="land" d="M 522.052,315.694 L 522.203,315.755 L 522.703,316.033 L 523.049,316.346 L 523.241,316.693 L 523.501,316.96099999999996 L 523.829,317.15099999999995 L 524.0889999999999,317.40799999999996 L 524.281,317.73199999999997 L 524.55,317.914 L 524.895,317.953 L 525.1129999999999,318.06399999999996 L 525.2049999999999,318.24699999999996 L 525.3929999999999,318.412 L 525.6759999999999,318.56 L 526.1149999999999,318.641 L 526.9569999999999,318.661 L 527.0319999999999,318.665 L 527.222,318.711 L 527.444,318.653 L 527.7149999999999,318.538 L 527.8019999999999,318.469 L 528.0859999999999,318.091 L 528.2429999999999,318.124 L 528.555,318.07800000000003 L 528.7439999999999,317.994 L 528.7579999999999,317.994 L 528.746,318.091 L 528.725,318.26 L 528.572,318.379 L 528.727,318.654 L 528.875,319.1 L 528.792,319.32000000000005 L 528.893,319.49100000000004 L 529.177,319.61400000000003 L 529.203,319.663 L 529.116,319.714 L 529.044,319.859 L 529.036,320.123 L 529.284,320.373 L 529.788,320.60699999999997 L 529.949,320.64599999999996 L 530.011,320.73599999999993 L 530.0949999999999,320.79499999999996 L 530.1449999999999,320.86699999999996 L 530.1479999999999,320.96 L 530.1109999999999,321.024 L 529.8719999999998,321.046 L 529.5999999999998,321.044 L 529.4059999999998,320.931 L 529.3879999999998,321.014 L 529.3849999999998,321.108 L 529.1969999999998,321.165 L 529.3009999999998,321.812 L 529.2589999999998,321.998 L 529.1899999999998,322.061 L 529.1259999999999,322.03499999999997 L 529.0469999999999,322.02799999999996 L 529.0079999999999,322.08899999999994 L 529.0409999999999,322.2269999999999 L 528.856,322.24299999999994 L 528.562,322.1719999999999 L 528.427,322.0469999999999 L 528.404,321.9199999999999 L 528.402,321.8009999999999 L 528.308,321.6059999999999 L 528.074,321.4039999999999 L 527.5849999999999,321.37099999999987 L 527.4039999999999,321.30699999999985 L 527.2169999999999,321.23399999999987 L 527.0129999999999,321.17899999999986 L 526.8249999999999,321.18399999999986 L 526.598,321.23799999999983 L 526.202,321.14899999999983 L 526.068,321.26799999999986 L 525.86,321.40499999999986 L 525.687,321.4019999999999 L 525.343,321.0839999999999 L 525.24,321.0639999999999 L 524.939,321.2259999999999 L 524.8159999999999,321.2349999999999 L 524.7219999999999,321.1839999999999 L 524.3149999999998,321.0619999999999 L 524.1309999999999,321.0359999999999 L 523.9959999999999,321.0939999999999 L 523.7569999999998,321.03199999999987 L 523.1769999999998,320.6149999999999 L 522.8179999999998,320.9319999999999 L 522.0879999999997,320.8529999999999 L 521.8709999999998,321.0699999999999 L 521.6229999999997,321.4809999999999 L 521.4219999999997,321.6769999999999 L 521.2469999999997,321.6069999999999 L 521.0399999999997,321.42599999999993 L 520.6779999999998,320.96099999999996 L 520.4949999999998,320.87699999999995 L 520.2849999999997,320.85699999999997 L 520.1019999999997,320.909 L 520.0039999999998,321.003 L 519.9289999999997,321.68199999999996 L 519.8629999999997,322.27899999999994 L 519.8589999999997,322.63599999999997 L 520.2609999999997,322.96599999999995 L 520.7359999999998,323.53299999999996 L 520.8879999999998,323.59799999999996 L 520.9639999999998,323.78299999999996 L 521.0749999999998,324.25999999999993 L 521.1999999999998,324.79499999999996 L 521.4409999999998,325.14899999999994 L 521.6579999999998,325.40099999999995 L 521.9229999999998,325.62299999999993 L 522.2559999999997,325.9699999999999 L 522.5279999999998,326.3509999999999 L 522.5999999999998,326.4909999999999 L 523.1289999999998,326.9929999999999 L 523.6419999999998,327.5039999999999 L 524.0999999999998,327.6829999999999 L 524.1719999999998,327.7769999999999 L 524.1759999999998,328.16899999999987 L 524.2259999999998,328.31599999999986 L 524.5319999999998,328.7259999999999 L 525.1569999999998,329.3249999999999 L 525.2289999999998,329.46299999999985 L 525.2499999999998,329.5649999999998 L 525.2099999999998,329.6429999999998 L 525.0459999999998,329.7249999999998 L 524.9119999999998,329.6339999999998 L 524.3299999999998,329.0499999999998 L 523.7669999999998,328.68099999999976 L 523.1319999999998,327.98499999999973 L 522.2819999999998,327.7089999999997 L 521.7029999999999,327.40299999999974 L 521.3519999999999,327.4489999999997 L 520.9649999999999,327.54499999999973 L 520.7259999999999,327.5479999999997 L 520.5559999999999,327.4929999999997 L 520.4359999999999,327.3029999999997 L 520.454,327.1559999999997 L 520.433,326.96499999999975 L 520.0939999999999,326.65799999999973 L 519.631,326.36599999999976 L 519.193,325.9879999999998 L 518.313,324.96399999999977 L 518.136,324.63299999999975 L 518.309,324.56999999999977 L 518.4399999999999,324.57599999999974 L 518.588,324.50799999999975 L 518.828,324.5069999999998 L 519.112,324.5739999999998 L 518.861,324.35399999999976 L 518.548,324.13799999999975 L 517.738,323.27799999999974 L 517.4960000000001,322.8699999999997 L 517.4680000000001,322.4299999999997 L 517.528,321.82599999999974 L 517.3820000000001,321.3919999999997 L 516.7570000000001,320.8289999999997 L 516.528,320.5319999999997 L 516.067,320.3549999999997 L 515.86,320.3719999999997 L 515.736,320.5919999999997 L 515.646,321.0799999999997 L 515.237,321.7219999999997 L 515.101,321.9999999999997 L 514.887,322.3609999999997 L 514.7009999999999,322.3859999999997 L 514.5919999999999,322.3539999999997 L 514.2599999999999,321.7459999999997 L 513.9429999999999,321.2839999999997 L 513.8989999999999,321.0649999999997 L 513.8699999999999,320.79499999999973 L 513.6279999999999,319.7979999999997 L 513.7979999999999,319.65799999999973 L 513.9029999999999,319.81799999999976 L 514.6419999999999,320.01099999999974 L 514.8019999999999,319.92599999999976 L 514.8989999999999,319.7949999999998 L 514.8989999999999,319.71199999999976 L 514.9619999999999,319.68799999999976 L 515.2219999999999,319.81399999999974 L 515.4339999999999,319.78499999999974 L 515.7759999999998,319.77899999999977 L 516.0199999999999,319.7999999999998 L 516.1819999999999,319.7029999999998 L 516.3999999999999,319.3459999999998 L 516.4809999999999,319.1459999999998 L 516.5789999999998,319.0979999999998 L 516.6429999999998,319.1219999999998 L 516.6899999999998,319.2869999999998 L 516.8049999999998,319.4409999999998 L 517.0409999999998,319.6919999999998 L 517.2079999999999,319.81299999999976 L 517.3589999999998,319.85599999999977 L 517.5069999999998,319.75499999999977 L 517.6599999999999,319.7259999999998 L 518.0979999999998,319.9219999999998 L 518.4679999999998,319.9589999999998 L 518.7409999999999,319.8569999999998 L 518.7049999999999,319.7159999999998 L 518.6049999999999,319.5589999999998 L 518.584,319.4069999999998 L 518.602,319.2749999999998 L 518.79,319.14399999999983 L 518.781,319.08599999999984 L 518.554,318.85499999999985 L 518.5649999999999,318.79499999999985 L 519.0619999999999,318.5339999999998 L 519.5409999999999,318.3879999999998 L 519.6179999999999,318.2749999999998 L 519.6619999999999,318.1049999999998 L 519.6829999999999,317.7859999999998 L 519.6569999999999,317.52499999999975 L 519.463,317.27999999999975 L 519.451,317.1559999999997 L 519.4970000000001,317.0269999999997 L 519.5730000000001,316.9099999999997 L 519.7650000000001,316.8599999999997 L 519.9900000000001,316.77599999999967 L 520.1680000000001,316.6789999999997 L 520.4080000000001,316.5989999999997 L 520.5970000000001,316.4869999999997 L 520.782,316.2199999999997 L 520.894,316.1759999999997 L 521.2330000000001,316.2139999999997 L 521.306,316.14799999999974 L 521.259,315.7639999999997 L 521.32,315.6659999999997 L 521.44,315.6109999999997 L 521.4960000000001,315.55699999999973 L 521.7950000000001,315.5989999999997 L 522.052,315.694 M 517.265,321.798 L 516.919,321.883 L 516.754,321.731 L 516.711,321.606 L 516.426,321.566 L 516.254,321.393 L 516.219,321.316 L 516.4630000000001,321.125 L 516.5930000000001,320.816 L 516.758,321.00199999999995 L 516.9580000000001,321.35099999999994 L 517.065,321.4479999999999 L 517.265,321.798 M 516.36,323.048 L 516.338,323.2 L 516.168,323.007 L 516.082,322.661 L 515.867,322.1 L 515.8389999999999,321.942 L 515.9499999999999,321.786 L 515.944,321.627 L 515.7919999999999,321.133 L 515.9189999999999,321.05199999999996 L 515.9949999999999,321.042 L 516.0259999999998,321.385 L 516.0949999999998,321.582 L 516.3019999999998,321.824 L 516.2599999999998,322.223 L 516.3019999999998,322.79 L 516.3439999999998,322.916 L 516.36,323.048 M 517.324,322.659 L 517.395,322.83299999999997 L 517.131,322.676 L 516.894,322.616 L 516.844,322.498 L 516.878,322.401 L 516.9290000000001,322.307 L 517.1080000000001,322.32 L 517.1350000000001,322.412 L 517.324,322.659 M 518.326,324.32 L 518.254,324.424 L 518.072,324.233 L 517.905,324.097 L 517.786,323.935 L 517.5519999999999,323.733 L 517.473,323.502 L 517.1239999999999,323.03000000000003 L 517.0719999999999,322.90200000000004 L 517.2459999999999,323.093 L 517.3909999999998,323.213 L 517.5109999999999,323.242 L 517.8149999999998,323.543 L 518.1139999999998,323.92900000000003 L 518.4699999999998,324.264 L 518.3959999999998,324.274 L 518.326,324.32 M 518.327,325.931 L 518.367,325.988 L 518.3629999999999,326.027 L 518.217,325.972 L 518.178,325.98999999999995 L 517.491,325.14099999999996 L 517.417,324.97499999999997 L 517.663,325.17299999999994 L 518.327,325.931 M 518.445,325.387 L 518.489,325.524 L 518.139,325.266 L 518.006,325.093 L 517.982,325.01500000000004 L 518.445,325.387 M 518.839,325.731 L 519.024,326.02 L 518.847,325.96 L 518.663,325.782 L 518.5550000000001,325.58799999999997 L 518.839,325.731 M 522.807,328.447 L 522.364,328.457 L 521.979,328.387 L 521.791,328.268 L 521.8050000000001,328.167 L 521.863,327.99899999999997 L 522.292,328.01899999999995 L 522.945,328.138 L 523.105,328.277 L 523.0550000000001,328.341 L 522.807,328.447 M 523.954,329.003 L 523.7579999999999,329.043 L 522.5089999999999,329.01300000000003 L 522.1459999999998,328.93300000000005 L 521.7419999999998,328.72800000000007 L 521.6599999999999,328.6650000000001 L 522.0659999999998,328.6050000000001 L 522.4439999999998,328.6650000000001 L 522.5599999999998,328.8140000000001 L 523.5809999999998,328.9330000000001 L 523.954,329.003 M 525.283,329.878 L 525.487,329.808 L 525.66,329.859 L 525.77,330.077 L 525.987,330.221 L 526.3399999999999,330.473 L 526.5629999999999,330.666 L 527.0679999999999,331.012 L 527.1879999999999,331.06 L 527.4399999999998,331.163 L 527.4449999999998,331.303 L 527.5529999999998,331.462 L 527.6669999999998,331.645 L 527.1489999999998,331.28499999999997 L 526.6659999999998,330.88199999999995 L 525.7209999999998,330.25999999999993 L 525.0509999999998,330.1089999999999 L 524.1339999999998,329.60799999999995 L 523.5369999999998,329.42999999999995 L 523.7649999999998,329.38899999999995 L 524.0269999999997,329.388 L 525.4409999999997,330.05699999999996 L 525.283,329.878 M 522.43,329.498 L 522.949,329.605 L 523.329,329.55600000000004 L 523.673,329.622 L 523.8870000000001,329.743 L 523.9380000000001,329.803 L 523.6610000000001,329.811 L 523.3470000000001,329.762 L 522.9910000000001,329.885 L 522.6770000000001,329.82 L 522.5580000000001,329.739 L 522.4740000000002,329.63899999999995 L 522.43,329.498 M 525.116,330.366 L 525.499,330.627 L 524.376,330.284 L 524.5029999999999,330.253 L 524.622,330.246 L 525.116,330.366" id="HR" title="Croatia"/>
</svg>
