<svg xmlns="http://www.w3.org/2000/svg" xmlns:ev="http://www.w3.org/2001/xml-events" xmlns:xlink="http://www.w3.org/1999/xlink" baseProfile="full" height="6.06402587890625" version="1.1" viewBox="266.6789855957031 405.4549865722656 7.95001220703125 6.06402587890625" width="7.95001220703125">
	<defs/>
	<path class="land" d="M 271.769,405.622 L 271.883,405.69100000000003 L 271.84,405.77500000000003 L 271.55699999999996,405.723 L 271.26399999999995,405.628 L 271.16799999999995,405.651 L 271.1089999999999,405.639 L 270.93799999999993,405.548 L 271.0879999999999,405.478 L 271.2429999999999,405.455 L 271.4129999999999,405.46 L 271.769,405.622 M 274.252,406.569 L 274.314,406.65700000000004 L 274.44300000000004,407.254 L 274.456,407.445 L 274.326,407.733 L 274.345,407.847 L 274.624,408.113 L 274.629,408.209 L 274.596,408.306 L 274.358,408.558 L 274.175,408.73 L 274.233,408.928 L 274.38100000000003,409.116 L 274.40000000000003,409.27299999999997 L 274.355,409.47999999999996 L 274.12800000000004,409.73699999999997 L 274.009,409.82899999999995 L 273.671,409.84 L 273.633,409.87699999999995 L 273.801,410.12799999999993 L 273.991,410.4119999999999 L 274.30199999999996,410.63199999999995 L 274.371,410.83899999999994 L 274.296,411.03499999999997 L 274.283,411.51899999999995 L 274.045,411.28399999999993 L 273.784,411.0879999999999 L 273.627,411.0119999999999 L 273.464,410.9629999999999 L 272.219,410.9879999999999 L 272.079,411.0219999999999 L 271.971,411.08499999999987 L 271.855,411.1159999999999 L 271.51300000000003,411.1749999999999 L 271.17300000000006,411.1879999999999 L 270.37800000000004,411.02999999999986 L 270.06300000000005,410.94799999999987 L 269.74600000000004,410.89599999999984 L 269.38200000000006,410.91299999999984 L 269.02000000000004,410.96099999999984 L 268.73,411.0749999999998 L 268.51300000000003,411.27599999999984 L 268.47200000000004,411.46299999999985 L 268.34400000000005,411.51099999999985 L 268.05100000000004,411.2139999999998 L 267.78100000000006,411.0029999999998 L 267.47400000000005,410.8439999999998 L 266.845,410.61699999999985 L 266.73,410.47899999999987 L 266.67900000000003,410.3119999999999 L 266.93300000000005,409.7979999999999 L 267.22200000000004,409.7039999999999 L 267.38100000000003,409.6859999999999 L 267.73800000000006,409.7489999999999 L 268.08700000000005,409.86599999999993 L 268.40500000000003,409.94199999999995 L 268.898,409.9719999999999 L 269.166,410.0979999999999 L 271.05899999999997,410.2939999999999 L 271.41799999999995,410.35599999999994 L 271.55799999999994,410.3349999999999 L 271.67999999999995,410.2579999999999 L 271.7819999999999,410.1189999999999 L 271.89899999999994,410.01499999999993 L 272.4599999999999,409.9919999999999 L 272.5779999999999,409.9449999999999 L 272.6599999999999,409.7999999999999 L 272.6579999999999,409.6489999999999 L 272.3279999999999,409.4469999999999 L 271.8119999999999,409.0029999999999 L 271.3579999999999,408.47999999999985 L 271.5539999999999,408.3029999999998 L 271.4789999999999,407.97999999999985 L 271.55299999999994,407.68099999999987 L 271.66099999999994,407.38799999999986 L 271.21099999999996,407.1369999999999 L 270.679,406.8859999999999 L 269.94199999999995,406.8069999999999 L 269.715,406.7439999999999 L 269.597,406.5559999999999 L 269.703,406.3039999999999 L 269.94199999999995,406.16399999999993 L 270.21599999999995,406.0779999999999 L 270.49699999999996,406.0179999999999 L 271.174,405.9459999999999 L 271.846,406.02699999999993 L 272.427,406.2869999999999 L 273.017,406.49099999999993 L 273.762,406.5589999999999 L 274.097,406.6329999999999 L 274.252,406.569 M 271.375,409.348 L 271.326,409.55600000000004 L 270.608,409.309 L 270.026,408.997 L 270.051,408.82800000000003 L 270.348,408.78900000000004 L 270.63300000000004,408.89300000000003 L 271.05400000000003,409.10100000000006 L 271.375,409.348" id="HT" title="Haiti"/>
</svg>
