<svg xmlns="http://www.w3.org/2000/svg" xmlns:ev="http://www.w3.org/2001/xml-events" xmlns:xlink="http://www.w3.org/1999/xlink" baseProfile="full" height="11.5250244140625" version="1.1" viewBox="520.864013671875 307.1839904785156 19.0379638671875 11.5250244140625" width="19.0379638671875">
	<defs/>
	<path class="land" d="M 537.813,307.809 L 538.08,307.775 L 538.091,307.78 L 538.154,307.8 L 538.199,307.996 L 538.206,308.009 L 538.271,308.138 L 538.331,308.309 L 538.425,308.438 L 538.632,308.491 L 538.902,308.65 L 539.077,308.95 L 539.34,309.074 L 539.359,309.077 L 539.411,309.063 L 539.601,309.052 L 539.638,309.112 L 539.789,309.259 L 539.848,309.387 L 539.818,309.523 L 539.845,309.677 L 539.902,309.731 L 539.833,309.834 L 539.342,310.35 L 539.149,310.486 L 539.022,310.514 L 538.821,310.46 L 538.614,310.501 L 538.429,310.611 L 538.258,310.646 L 538.129,310.777 L 537.962,311.057 L 537.756,311.293 L 537.549,311.44 L 537.441,311.571 L 537.429,312.023 L 537.314,312.153 L 537.16,312.284 L 537.075,312.399 L 536.84,313.085 L 536.662,313.304 L 536.492,313.472 L 536.464,313.625 L 536.467,313.801 L 536.275,314.151 L 536.023,314.513 L 535.975,314.662 L 536.031,314.862 L 535.789,315.092 L 535.65,315.203 L 535.534,315.255 L 535.462,315.399 L 535.344,315.75 L 535.375,315.906 L 535.378,316.05 L 535.174,316.134 L 535.114,316.292 L 535.062,316.488 L 534.977,316.576 L 534.748,316.739 L 534.178,316.668 L 533.963,316.723 L 533.899,316.839 L 533.886,316.932 L 533.814,317.02 L 533.685,317.129 L 533.552,317.178 L 533.255,317.043 L 532.618,317.181 L 532.508,317.279 L 532.419,317.208 L 532.282,317.145 L 531.645,317.065 L 531.393,317.128 L 531.056,317.104 L 530.745,317.034 L 530.512,317.091 L 530.307,317.365 L 530.205,317.457 L 530.125,317.516 L 529.95,317.602 L 529.803,317.705 L 529.608,317.779 L 529.433,317.769 L 529.268,317.651 L 529.209,317.678 L 529.157,317.787 L 529.067,317.879 L 528.82,317.993 L 528.757,317.991 L 528.743,317.991 L 528.554,318.075 L 528.242,318.122 L 528.085,318.089 L 527.801,318.467 L 527.714,318.536 L 527.443,318.651 L 527.222,318.709 L 527.032,318.663 L 526.957,318.659 L 526.115,318.64 L 525.675,318.559 L 525.393,318.411 L 525.205,318.246 L 525.113,318.063 L 524.895,317.953 L 524.55,317.914 L 524.282,317.732 L 524.089,317.408 L 523.83,317.151 L 523.501,316.961 L 523.241,316.693 L 523.049,316.346 L 522.703,316.033 L 522.203,315.755 L 522.052,315.694 L 522.022,315.604 L 521.778,315.258 L 521.673,315.13 L 521.683,314.958 L 521.634,314.86 L 521.545,314.792 L 521.497,314.543 L 521.469,314.357 L 521.399,314.237 L 520.864,314.212 L 521.312,313.768 L 521.535,313.644 L 521.793,313.665 L 521.876,313.625 L 521.898,313.56 L 521.942,313.415 L 521.964,313.278 L 521.986,313.148 L 521.958,313.076 L 521.833,313.053 L 521.773,312.734 L 521.837,312.613 L 521.901,312.529 L 521.822,312.14 L 521.846,312.007 L 522.048,311.986 L 522.215,311.903 L 522.352,311.809 L 522.39,311.688 L 522.502,311.442 L 522.399,311.14 L 521.816,310.943 L 521.786,310.868 L 521.921,310.782 L 522.066,310.66 L 522.15,310.564 L 522.262,310.551 L 522.42,310.6 L 522.702,310.819 L 522.809,310.851 L 522.913,310.787 L 523.024,310.773 L 523.335,310.781 L 523.597,310.73 L 523.538,310.497 L 523.539,310.327 L 523.494,310.191 L 523.522,310.042 L 523.628,309.925 L 523.66,309.663 L 523.823,309.486 L 523.9,309.46 L 524.188,309.493 L 524.256,309.539 L 524.3,309.549 L 524.759,309.98 L 525.193,310.304 L 525.548,310.47 L 526.07,310.483 L 526.625,310.498 L 527.553,310.441 L 528.249,310.399 L 528.295,310.318 L 528.4,310.125 L 528.316,309.959 L 528.321,309.764 L 528.438,309.51 L 528.782,309.298 L 529.767,309.205 L 530.333,309.047 L 530.419,308.832 L 530.606,308.619 L 530.778,308.576 L 531.013,308.674 L 531.296,308.861 L 531.545,308.961 L 531.69,308.897 L 532.19,308.581 L 532.766,308.271 L 533.162,307.431 L 533.205,307.296 L 533.634,307.2 L 534.261,307.217 L 534.583,307.327 L 534.825,307.385 L 535.187,307.365 L 535.709,307.184 L 535.902,307.189 L 536.052,307.317 L 536.216,307.428 L 536.327,307.563 L 536.411,307.754 L 536.456,307.825 L 536.529,307.923 L 536.661,308.057 L 536.788,308.092 L 537.755,307.859 L 537.813,307.809" id="HU" title="Hungary"/>
</svg>
