<svg xmlns="http://www.w3.org/2000/svg" xmlns:ev="http://www.w3.org/2001/xml-events" xmlns:xlink="http://www.w3.org/1999/xlink" baseProfile="full" height="18.30401611328125" version="1.1" viewBox="446.5429992675781 276.1579895019531 12.243011474609375 18.30401611328125" width="12.243011474609375">
	<defs/>
	<path class="land" d="M 455.44,277.503 L 454.996,277.817 L 454.92699999999996,277.93600000000004 L 454.80199999999996,278.415 L 454.787,278.55100000000004 L 454.644,278.802 L 454.509,279.081 L 454.35200000000003,279.189 L 454.11800000000005,279.27500000000003 L 453.98500000000007,279.36 L 453.81700000000006,279.317 L 453.6050000000001,279.324 L 453.4990000000001,279.41900000000004 L 453.5040000000001,279.492 L 453.56700000000006,279.57500000000005 L 453.75300000000004,279.70300000000003 L 453.96000000000004,279.81800000000004 L 453.937,279.91900000000004 L 453.826,280.033 L 453.12300000000005,280.317 L 452.91400000000004,280.488 L 452.84100000000007,280.601 L 452.91600000000005,280.79 L 453.47700000000003,281.355 L 453.57200000000006,281.41700000000003 L 453.6550000000001,281.74600000000004 L 454.1500000000001,281.88300000000004 L 454.35300000000007,282.088 L 454.52700000000004,282.137 L 454.90600000000006,282.119 L 455.05800000000005,282.196 L 455.14400000000006,282.137 L 455.1940000000001,282.029 L 455.5130000000001,281.751 L 455.6180000000001,281.62899999999996 L 455.5550000000001,281.46 L 455.48700000000014,281.33099999999996 L 455.68100000000015,281.07399999999996 L 455.91600000000017,280.81999999999994 L 456.03400000000016,280.8279999999999 L 456.2350000000002,280.9839999999999 L 456.4010000000002,281.2009999999999 L 456.4230000000002,281.3689999999999 L 456.4540000000002,281.49099999999993 L 456.61100000000016,281.7509999999999 L 456.71200000000016,281.8409999999999 L 456.98400000000015,281.8929999999999 L 457.0480000000002,281.9949999999999 L 456.9990000000002,282.37099999999987 L 457.0400000000002,282.49599999999987 L 457.3250000000002,282.50199999999984 L 457.6280000000002,282.47199999999987 L 457.7340000000002,282.4859999999999 L 457.8430000000002,282.40699999999987 L 458.0110000000002,282.3219999999999 L 458.2520000000002,282.3509999999999 L 458.3700000000002,282.5189999999999 L 458.4230000000002,282.6919999999999 L 458.2160000000002,282.7569999999999 L 458.00000000000017,282.72199999999987 L 457.89500000000015,282.83499999999987 L 457.88800000000015,283.0529999999999 L 457.9610000000001,283.3339999999999 L 458.1060000000001,283.5329999999999 L 458.2210000000001,283.9809999999999 L 458.3170000000001,284.47699999999986 L 458.46500000000015,284.77599999999984 L 458.49600000000015,285.14599999999984 L 458.47400000000016,285.32799999999986 L 458.50100000000015,285.65499999999986 L 458.43800000000016,285.76999999999987 L 458.4850000000002,286.07599999999985 L 458.6600000000002,286.7069999999998 L 458.7370000000002,287.0579999999998 L 458.7860000000002,287.82199999999983 L 458.66200000000015,288.10699999999986 L 458.49600000000015,288.3779999999999 L 458.38700000000017,288.69799999999987 L 458.30400000000014,289.0429999999999 L 458.25300000000016,289.5979999999999 L 457.89300000000014,290.2459999999999 L 457.7400000000001,290.4069999999999 L 457.5620000000001,290.5059999999999 L 457.9500000000001,290.9579999999999 L 457.6330000000001,291.15899999999993 L 457.28800000000007,291.2219999999999 L 456.90600000000006,291.1089999999999 L 456.66800000000006,291.12299999999993 L 456.45000000000005,291.26899999999995 L 456.36500000000007,291.35699999999997 L 456.29600000000005,291.315 L 456.1530000000001,290.945 L 456.04800000000006,291.327 L 455.82800000000003,291.449 L 455.451,291.423 L 454.821,291.525 L 454.57800000000003,291.633 L 454.47700000000003,291.803 L 454.40200000000004,291.999 L 454.30300000000005,292.11400000000003 L 454.19200000000006,292.175 L 453.70500000000004,292.319 L 453.60900000000004,292.377 L 453.38300000000004,292.692 L 453.088,292.874 L 452.843,292.92900000000003 L 452.62600000000003,292.74600000000004 L 452.53700000000003,292.636 L 452.43600000000004,292.58000000000004 L 452.10200000000003,292.58900000000006 L 452.20700000000005,292.6460000000001 L 452.27500000000003,292.7750000000001 L 452.30800000000005,293.0230000000001 L 452.27000000000004,293.2660000000001 L 452.105,293.38900000000007 L 451.909,293.4120000000001 L 451.599,293.66300000000007 L 451.18899999999996,293.73100000000005 L 450.967,293.96200000000005 L 449.611,294.35200000000003 L 449.534,294.35600000000005 L 449.347,294.25700000000006 L 449.144,294.2130000000001 L 448.942,294.2440000000001 L 448.374,294.4620000000001 L 448.09900000000005,294.4190000000001 L 448.45000000000005,293.8770000000001 L 448.92100000000005,293.6030000000001 L 448.97,293.52800000000013 L 448.81600000000003,293.49100000000016 L 447.92,293.68100000000015 L 447.60900000000004,293.84300000000013 L 447.29800000000006,293.89000000000016 L 447.44200000000006,293.64200000000017 L 447.8430000000001,293.30300000000017 L 448.05800000000005,293.14300000000014 L 448.189,293.0790000000001 L 448.339,292.87900000000013 L 448.762,292.65200000000016 L 447.4,293.1200000000002 L 447.042,293.06300000000016 L 446.95799999999997,292.93300000000016 L 446.67999999999995,292.9950000000002 L 446.57399999999996,292.67800000000017 L 446.98699999999997,292.1990000000002 L 447.22799999999995,291.9920000000002 L 447.51399999999995,291.88000000000017 L 447.78899999999993,291.71900000000016 L 447.8909999999999,291.52300000000014 L 447.7619999999999,291.46000000000015 L 446.9379999999999,291.51000000000016 L 446.5429999999999,291.4680000000002 L 446.5639999999999,291.3120000000002 L 446.6369999999999,291.1390000000002 L 447.0459999999999,290.8430000000002 L 447.26799999999986,290.79600000000016 L 447.46499999999986,290.8240000000002 L 447.65699999999987,290.9000000000002 L 447.81399999999985,290.9990000000002 L 448.27799999999985,290.9420000000002 L 448.08399999999983,290.75300000000016 L 448.04999999999984,290.36800000000017 L 447.9019999999998,290.23900000000015 L 448.09099999999984,290.0600000000002 L 448.3079999999998,289.95200000000017 L 448.66999999999985,289.5810000000002 L 448.79899999999986,289.52400000000017 L 449.5149999999999,289.4340000000002 L 450.28699999999986,289.2390000000002 L 451.05199999999985,288.9690000000002 L 450.6589999999999,288.8180000000002 L 450.4709999999999,288.6180000000002 L 450.16899999999987,289.02100000000024 L 449.95099999999985,289.17500000000024 L 449.3369999999999,289.25800000000027 L 449.14299999999986,289.21300000000025 L 448.86899999999986,289.08800000000025 L 448.7839999999999,289.1350000000003 L 448.70499999999987,289.2310000000003 L 448.2979999999999,289.4280000000003 L 447.87099999999987,289.4750000000003 L 448.3679999999999,289.1130000000003 L 448.99899999999985,288.4980000000003 L 449.13899999999984,288.30400000000026 L 449.3389999999998,287.96500000000026 L 449.2769999999998,287.81400000000025 L 449.1469999999998,287.72800000000024 L 449.6039999999998,287.02800000000025 L 449.7649999999998,286.90100000000024 L 450.0569999999998,286.8800000000002 L 450.27199999999976,286.76900000000023 L 450.3669999999998,286.76900000000023 L 450.45199999999977,286.72700000000026 L 450.63999999999976,286.5170000000003 L 450.34999999999974,286.38300000000027 L 450.0499999999997,286.31400000000025 L 449.1229999999997,286.3870000000002 L 449.0009999999997,286.3710000000002 L 448.8859999999997,286.3060000000002 L 448.8109999999997,286.2130000000002 L 448.7549999999997,285.9740000000002 L 448.6869999999997,285.92000000000024 L 448.4779999999997,285.92000000000024 L 448.27099999999973,285.9930000000002 L 448.1269999999997,285.9860000000002 L 447.9859999999997,285.8810000000002 L 448.2119999999997,285.6360000000002 L 447.9209999999997,285.5780000000002 L 447.6269999999997,285.6260000000002 L 447.3819999999997,285.5510000000002 L 447.3749999999997,285.3970000000002 L 447.4859999999997,285.2430000000002 L 447.3399999999997,285.0970000000002 L 447.3099999999997,284.9120000000002 L 447.4649999999997,284.8210000000002 L 447.6339999999997,284.85100000000017 L 447.9789999999997,284.71400000000017 L 448.4219999999997,284.6480000000002 L 448.0419999999997,284.5130000000002 L 447.8909999999997,284.3970000000002 L 447.8839999999997,284.2200000000002 L 447.91399999999965,284.0680000000002 L 448.35299999999967,283.8110000000002 L 448.8209999999997,283.6980000000002 L 448.78599999999966,283.5290000000002 L 448.8189999999997,283.3450000000002 L 448.34599999999966,283.2920000000002 L 447.8789999999997,283.4210000000002 L 447.9289999999997,283.0700000000002 L 448.0409999999997,282.75200000000024 L 448.0629999999997,282.54300000000023 L 448.0409999999997,282.3180000000002 L 447.8219999999997,282.4140000000002 L 447.79699999999974,282.0970000000002 L 447.70299999999975,281.8800000000002 L 447.37799999999976,282.0300000000002 L 447.38599999999974,281.7420000000002 L 447.47999999999973,281.54100000000017 L 447.6489999999997,281.4540000000002 L 447.8169999999997,281.4920000000002 L 448.1299999999997,281.4890000000002 L 448.43199999999973,281.3370000000002 L 448.86699999999973,281.29800000000023 L 449.55899999999974,281.34500000000025 L 450.03499999999974,281.7720000000003 L 450.15799999999973,281.69600000000025 L 450.34799999999973,281.4260000000003 L 450.4369999999997,281.3960000000003 L 451.15499999999975,281.5140000000003 L 451.59999999999974,281.66900000000027 L 451.71899999999977,281.62100000000027 L 451.65499999999975,281.3220000000003 L 451.5019999999997,281.11400000000026 L 451.69399999999973,280.84200000000027 L 451.9279999999997,280.65700000000027 L 452.0849999999997,280.5650000000003 L 452.4459999999997,280.4500000000003 L 452.6039999999997,280.34200000000027 L 452.7089999999997,279.9900000000003 L 452.8759999999997,279.6970000000003 L 451.9689999999997,279.8490000000003 L 451.1059999999997,279.50100000000026 L 451.2429999999997,279.2550000000003 L 451.4249999999997,279.1150000000003 L 451.73899999999975,279.00800000000027 L 451.7689999999997,278.87900000000025 L 451.9279999999997,278.7720000000002 L 452.1909999999997,278.49000000000024 L 452.0939999999997,278.1210000000002 L 452.14599999999973,277.8510000000002 L 452.33499999999975,277.67500000000024 L 452.3939999999998,277.42200000000025 L 452.4779999999998,277.23500000000024 L 452.8619999999998,277.16800000000023 L 453.2309999999998,276.99500000000023 L 453.3639999999998,277.0120000000002 L 453.8009999999998,276.9720000000002 L 453.9479999999998,277.0420000000002 L 453.9139999999998,276.7350000000002 L 454.1819999999998,276.69500000000016 L 454.2859999999998,276.75600000000014 L 454.33199999999977,276.97400000000016 L 454.4539999999998,277.11300000000017 L 454.4919999999998,277.35400000000016 L 454.4099999999998,277.54000000000013 L 454.2729999999998,277.6830000000001 L 454.3979999999998,277.8290000000001 L 454.2049999999998,278.0940000000001 L 454.41299999999984,277.9810000000001 L 454.70999999999987,277.7220000000001 L 454.69399999999985,277.5110000000001 L 454.64399999999983,277.2440000000001 L 454.5609999999998,277.0030000000001 L 454.5989999999998,276.7370000000001 L 454.7659999999998,276.5710000000001 L 455.2049999999998,276.4870000000001 L 455.0249999999998,276.18500000000006 L 455.18499999999983,276.1580000000001 L 455.3589999999998,276.22100000000006 L 455.6149999999998,276.4560000000001 L 455.8819999999998,276.6410000000001 L 456.1579999999998,276.7870000000001 L 455.89199999999977,277.07900000000006 L 455.56499999999977,277.28200000000004 L 455.44,277.503 M 447.78,283.188 L 447.768,283.324 L 447.55999999999995,283.153 L 447.45899999999995,282.966 L 446.88899999999995,282.88100000000003 L 447.126,282.694 L 447.24199999999996,282.749 L 447.645,282.757 L 447.758,282.835 L 447.78,283.188" id="IE" title="Ireland"/>
</svg>
