<svg xmlns="http://www.w3.org/2000/svg" xmlns:ev="http://www.w3.org/2001/xml-events" xmlns:xlink="http://www.w3.org/1999/xlink" baseProfile="full" height="12.9520263671875" version="1.1" viewBox="571.8090209960938 363.6099853515625 4.68096923828125 12.9520263671875" width="4.68096923828125">
	<defs/>
	<path class="land" d="M 576.136,365.934 L 575.988,365.954 L 575.642,366.109 L 575.595,366.156 L 575.534,366.246 L 575.523,366.315 L 575.474,367.059 L 575.286,367.038 L 575.057,366.876 L 575.012,366.736 L 574.943,366.688 L 574.779,366.67 L 574.469,366.599 L 574.109,366.844 L 573.956,367.248 L 573.925,367.437 L 573.803,367.833 L 573.846,368.077 L 573.867,368.392 L 573.898,368.649 L 573.866,368.804 L 573.797,368.886 L 573.817,368.945 L 573.879,368.967 L 574.076,368.897 L 574.283,368.967 L 574.482,369.1 L 574.498,369.186 L 574.357,369.237 L 574.024,369.438 L 573.789,369.671 L 573.728,369.886 L 573.569,370.344 L 573.591,370.438 L 573.668,370.493 L 574.21,370.444 L 574.703,370.259 L 575.074,370.062 L 575.191,370.074 L 575.113,370.578 L 575.115,370.58 L 575.051,370.888 L 575.076,370.94 L 575.16,371.208 L 575.001,371.697 L 574.825,372.095 L 574.763,372.283 L 574.591,372.702 L 574.415,373.187 L 574.321,373.521 L 574.342,373.639 L 574.299,374.25 L 574.324,374.423 L 574.118,374.952 L 574.077,375.213 L 573.994,375.566 L 573.852,376.312 L 573.658,376.562 L 573.562,376.284 L 573.34,375.486 L 573.183,374.938 L 572.968,374.263 L 572.606,373.439 L 572.573,373.24 L 572.495,372.952 L 572.246,372.2 L 572.042,371.656 L 571.809,370.96 L 572.098,370.684 L 572.103,370.456 L 572.595,369.922 L 572.591,369.87 L 572.46,369.728 L 572.479,369.704 L 573.024,368.707 L 573.376,367.717 L 573.707,366.334 L 573.943,365.629 L 574.143,365.161 L 574.231,364.773 L 574.553,364.746 L 574.793,364.787 L 575.081,364.8 L 575.311,364.654 L 575.421,364.217 L 575.552,364.146 L 575.619,364.25 L 575.687,364.135 L 575.988,363.942 L 576.137,363.818 L 576.286,363.665 L 576.366,363.61 L 576.316,363.815 L 576.276,363.949 L 576.276,364.124 L 576.337,364.22 L 576.42,364.41 L 576.471,364.6 L 576.363,364.757 L 576.373,364.921 L 576.402,365.059 L 576.49,365.22 L 576.332,365.51 L 576.176,365.776 L 576.136,365.934" id="IL" title="Israel"/>
</svg>
