<svg xmlns="http://www.w3.org/2000/svg" xmlns:ev="http://www.w3.org/2001/xml-events" xmlns:xlink="http://www.w3.org/1999/xlink" baseProfile="full" height="92.55001831054688" version="1.1" viewBox="667.0120239257812 351.2619934082031 81.8809814453125 92.55001831054688" width="81.8809814453125" fill="#00394f">
	<defs/>
	<path class="land" d="M 736.102,436.797 L 736.168,436.98600000000005 L 736.106,437.09000000000003 L 735.983,437.10600000000005 L 735.9069999999999,437.01000000000005 L 735.8979999999999,436.898 L 735.968,436.82500000000005 L 736.034,436.78700000000003 L 736.102,436.797 M 735.947,426.258 L 735.89,426.221 L 735.845,426.235 L 735.803,426.285 L 735.821,426.68300000000005 L 735.9100000000001,426.49700000000007 L 735.947,426.258 M 735.833,430.496 L 735.693,430.366 L 735.675,430.59999999999997 L 735.568,430.715 L 735.7049999999999,430.786 L 735.8419999999999,430.729 L 735.8249999999998,430.644 L 735.833,430.496 M 736.676,427.431 L 736.605,426.539 L 736.384,426.276 L 736.45,426.182 L 736.566,425.932 L 736.715,425.855 L 736.822,425.66700000000003 L 736.8870000000001,425.47600000000006 L 736.908,425.38900000000007 L 736.746,425.1480000000001 L 736.9159999999999,424.9630000000001 L 736.8879999999999,424.86000000000007 L 736.876,424.5470000000001 L 736.783,424.5510000000001 L 736.489,424.7180000000001 L 736.301,425.08400000000006 L 736.3090000000001,425.45000000000005 L 736.1650000000001,425.99600000000004 L 736.2270000000001,426.10200000000003 L 736.1600000000001,426.456 L 736.0090000000001,426.622 L 735.9730000000002,426.74 L 736.0270000000002,427.056 L 735.9510000000001,427.209 L 735.9190000000001,427.421 L 735.9140000000001,427.94599999999997 L 735.9570000000001,428.00699999999995 L 736.0790000000001,428.102 L 736.1080000000001,428.32099999999997 L 736.0550000000001,428.34999999999997 L 735.845,428.352 L 735.794,428.416 L 735.693,428.645 L 735.669,428.92499999999995 L 735.601,429.109 L 735.486,429.16299999999995 L 735.394,429.32599999999996 L 735.466,429.43999999999994 L 735.511,429.7679999999999 L 735.7719999999999,430.27899999999994 L 735.8629999999999,430.3539999999999 L 735.925,430.2869999999999 L 736.0419999999999,429.9939999999999 L 736.0489999999999,429.6369999999999 L 736.1349999999999,429.3239999999999 L 736.1329999999999,429.2019999999999 L 736.04,429.1369999999999 L 735.995,428.9879999999999 L 736.102,428.8679999999999 L 736.1379999999999,428.7409999999999 L 736.329,428.4499999999999 L 736.3639999999999,428.3169999999999 L 736.319,427.7229999999999 L 736.512,427.6739999999999 L 736.676,427.431 M 748.893,381.322 L 748.87,381.463 L 748.789,381.56 L 748.564,381.614 L 748.3729999999999,381.782 L 748.069,382.025 L 747.8249999999999,382.219 L 747.6479999999999,382.391 L 747.584,382.571 L 747.6039999999999,382.798 L 747.655,383.035 L 748.221,383.903 L 748.216,384.053 L 748.037,384.09499999999997 L 747.799,383.99699999999996 L 747.5939999999999,383.85699999999997 L 747.3629999999999,383.48499999999996 L 747.1769999999999,383.37399999999997 L 746.992,383.34999999999997 L 745.8919999999999,383.54099999999994 L 745.659,383.5949999999999 L 745.2959999999999,383.7339999999999 L 745.0419999999999,384.0129999999999 L 744.857,384.2679999999999 L 744.6669999999999,384.3709999999999 L 744.3889999999999,384.5689999999999 L 743.6179999999999,385.1769999999999 L 743.1729999999999,385.4389999999999 L 742.8819999999998,385.5349999999999 L 742.6779999999999,385.6729999999999 L 742.5679999999999,385.8969999999999 L 742.4849999999999,386.0579999999999 L 742.4609999999999,386.45299999999986 L 742.512,386.93899999999985 L 742.622,387.24899999999985 L 742.6809999999999,387.31399999999985 L 742.6899999999999,387.40499999999986 L 742.579,387.57199999999983 L 742.433,387.7149999999998 L 742.362,387.8029999999998 L 742.2969999999999,388.24499999999983 L 742.1679999999999,388.4619999999998 L 741.9299999999998,388.78099999999984 L 741.7189999999998,389.0219999999998 L 741.3879999999998,389.20899999999983 L 741.2619999999998,389.35999999999984 L 741.1409999999998,389.63899999999984 L 741.0699999999998,389.87499999999983 L 741.0659999999998,389.9599999999998 L 741.1039999999998,390.0349999999998 L 741.2419999999998,390.1179999999998 L 741.4089999999999,390.1979999999998 L 741.4889999999999,390.3229999999998 L 741.4999999999999,390.4739999999998 L 741.3759999999999,390.8369999999998 L 741.1529999999999,391.3399999999998 L 740.8979999999999,391.73799999999983 L 740.6349999999999,392.11699999999985 L 740.5719999999999,392.2409999999999 L 740.3359999999999,392.70599999999985 L 740.1299999999999,393.34499999999986 L 739.9909999999999,393.77399999999983 L 739.8709999999999,394.0679999999998 L 739.7229999999998,394.0809999999998 L 739.5439999999999,393.9869999999998 L 739.1069999999999,393.8619999999998 L 738.8279999999999,393.7609999999998 L 738.6249999999999,393.6699999999998 L 738.4839999999999,393.6739999999998 L 738.29,393.73299999999983 L 738.093,393.77399999999983 L 737.976,393.72999999999985 L 737.705,393.46499999999986 L 737.6220000000001,393.49499999999983 L 737.5690000000001,393.62399999999985 L 737.7520000000001,394.3799999999998 L 737.8710000000001,394.66099999999983 L 737.8510000000001,395.1299999999998 L 737.8040000000001,395.7049999999998 L 737.734,396.3319999999998 L 737.687,396.4769999999998 L 737.571,396.6429999999998 L 737.418,396.6879999999998 L 737.279,396.6229999999998 L 737.168,396.6379999999998 L 737.131,396.7429999999998 L 737.163,397.01399999999984 L 737.027,397.32399999999984 L 736.927,397.5889999999998 L 736.953,397.84599999999983 L 737.001,398.10699999999986 L 737.16,398.6709999999999 L 737.161,398.8769999999999 L 737.13,399.0619999999999 L 737.047,399.1389999999999 L 736.904,399.1259999999999 L 736.826,399.20199999999994 L 736.767,399.3179999999999 L 736.6060000000001,399.74499999999995 L 736.4520000000001,399.78999999999996 L 736.2970000000001,399.72599999999994 L 736.0650000000002,399.4409999999999 L 735.9230000000001,399.3579999999999 L 735.8330000000001,399.3629999999999 L 735.7930000000001,399.4379999999999 L 735.7300000000001,399.6079999999999 L 735.6670000000001,399.72199999999987 L 735.5120000000002,399.8219999999999 L 735.4740000000002,399.6119999999999 L 735.3910000000002,398.5199999999999 L 735.3280000000002,398.1719999999999 L 735.2770000000002,397.6889999999999 L 735.2020000000001,397.5409999999999 L 735.1060000000001,397.2759999999999 L 735.0,397.047 L 734.911,396.95000000000005 L 734.8539999999999,396.523 L 734.833,396.0 L 734.834,395.752 L 734.709,395.23900000000003 L 734.587,394.65700000000004 L 734.422,394.68100000000004 L 734.3240000000001,394.54 L 734.253,394.543 L 734.0210000000001,394.674 L 733.8360000000001,394.631 L 733.6990000000002,394.64899999999994 L 733.6980000000002,394.9169999999999 L 733.7210000000002,395.20199999999994 L 733.6690000000002,395.30499999999995 L 733.3070000000002,395.63899999999995 L 733.2060000000002,395.86299999999994 L 733.2160000000002,396.09799999999996 L 733.2610000000002,396.412 L 733.1970000000002,396.572 L 733.0400000000002,396.719 L 732.8290000000002,396.796 L 732.6430000000001,396.76 L 732.5240000000001,396.632 L 732.4130000000001,396.306 L 732.3140000000001,396.128 L 732.21,396.086 L 732.129,396.134 L 732.118,396.339 L 732.124,396.508 L 732.0980000000001,396.527 L 732.0400000000001,396.501 L 731.974,396.41799999999995 L 731.801,395.59999999999997 L 731.5540000000001,394.969 L 731.5390000000001,394.727 L 731.6290000000001,394.41499999999996 L 731.7400000000001,393.93399999999997 L 732.0330000000001,393.63399999999996 L 732.0710000000001,393.50699999999995 L 732.1190000000001,393.40599999999995 L 732.1900000000002,393.38599999999997 L 732.5660000000001,393.414 L 732.6920000000001,393.366 L 732.8030000000001,393.224 L 732.9650000000001,393.11 L 733.1270000000002,393.064 L 733.2560000000002,393.047 L 733.4630000000002,393.15500000000003 L 733.5490000000002,393.093 L 733.6120000000002,392.89300000000003 L 733.7020000000002,392.69500000000005 L 733.7600000000002,392.59900000000005 L 733.8990000000002,392.55600000000004 L 734.0760000000002,392.54600000000005 L 734.1350000000002,392.50900000000007 L 734.1830000000002,392.44200000000006 L 734.2270000000002,392.1790000000001 L 734.4530000000002,391.5900000000001 L 734.5330000000002,391.3280000000001 L 734.5450000000002,391.2820000000001 L 734.5380000000002,390.9900000000001 L 734.6020000000002,390.94800000000015 L 734.9770000000002,391.0910000000001 L 735.1410000000002,391.0890000000001 L 735.2300000000002,391.0300000000001 L 735.2590000000002,390.92300000000006 L 735.2110000000002,390.79800000000006 L 734.9440000000002,390.57900000000006 L 734.4700000000001,390.28400000000005 L 734.0350000000002,390.10300000000007 L 733.2310000000002,390.13000000000005 L 732.4350000000002,390.18700000000007 L 732.2020000000002,390.1580000000001 L 731.9110000000002,390.0760000000001 L 731.1960000000001,390.0880000000001 L 730.3320000000001,390.1330000000001 L 730.0030000000002,390.1080000000001 L 729.8410000000001,390.1110000000001 L 729.5160000000001,390.1380000000001 L 728.9860000000001,390.0540000000001 L 728.6190000000001,389.9460000000001 L 728.2940000000001,389.82700000000006 L 727.9080000000001,389.72 L 727.8150000000002,389.721 L 727.7610000000002,389.682 L 727.7240000000002,389.587 L 727.7110000000001,389.464 L 727.7910000000002,388.894 L 727.7200000000001,388.028 L 727.7850000000002,387.71200000000005 L 727.469,387.0 L 727.3610000000001,386.868 L 727.2150000000001,386.862 L 727.1220000000002,386.954 L 727.0850000000002,387.121 L 727.1380000000001,387.308 L 727.0220000000002,387.516 L 726.7890000000002,387.583 L 726.5170000000002,387.51300000000003 L 726.2910000000002,387.415 L 726.0,387.203 L 725.781,386.904 L 725.762,386.573 L 725.6629999999999,386.35999999999996 L 725.5279999999999,386.256 L 725.4289999999999,386.227 L 725.3399999999998,386.25 L 725.2619999999998,386.366 L 725.3299999999998,386.481 L 725.4229999999998,386.643 L 725.3919999999998,386.753 L 725.3089999999999,386.77 L 725.1849999999998,386.72299999999996 L 724.9929999999998,386.74799999999993 L 724.8069999999998,386.66399999999993 L 724.6959999999998,386.6569999999999 L 724.5859999999998,386.6259999999999 L 724.5789999999998,386.43499999999995 L 724.4099999999999,386.1929999999999 L 724.1239999999999,385.9219999999999 L 723.843,385.7539999999999 L 723.708,385.77699999999993 L 723.64,385.96199999999993 L 723.656,386.03099999999995 L 723.755,386.06499999999994 L 723.897,386.17199999999997 L 723.927,386.284 L 723.9060000000001,386.382 L 723.7310000000001,386.561 L 723.6070000000001,386.731 L 723.33,386.978 L 723.094,387.261 L 723.032,387.475 L 722.943,387.66700000000003 L 722.908,387.87800000000004 L 722.97,388.02400000000006 L 723.0840000000001,388.11600000000004 L 723.3800000000001,388.18300000000005 L 723.69,388.46700000000004 L 723.94,388.85 L 724.081,388.966 L 724.337,389.095 L 724.83,389.11 L 724.903,389.21500000000003 L 724.9730000000001,389.49600000000004 L 725.07,389.595 L 725.321,389.72700000000003 L 725.342,389.824 L 725.281,389.93600000000004 L 725.17,390.02400000000006 L 724.9649999999999,390.08000000000004 L 724.7699999999999,390.10200000000003 L 724.5739999999998,390.06600000000003 L 724.2829999999998,390.04400000000004 L 723.9529999999997,390.04200000000003 L 723.7189999999997,390.74100000000004 L 723.5519999999997,390.98600000000005 L 723.4569999999997,390.98600000000005 L 723.2019999999997,390.867 L 723.0929999999996,390.886 L 722.7989999999996,391.50600000000003 L 722.7579999999996,391.65500000000003 L 722.7379999999996,391.76700000000005 L 722.8939999999996,392.00600000000003 L 723.0809999999996,392.20300000000003 L 723.3039999999995,392.28000000000003 L 723.4789999999995,392.221 L 723.6209999999995,392.3 L 723.7869999999996,392.498 L 724.0719999999995,392.62899999999996 L 724.4749999999996,392.69199999999995 L 724.7039999999996,392.84799999999996 L 724.7319999999996,392.98299999999995 L 724.7119999999996,393.11999999999995 L 724.6759999999997,393.47599999999994 L 724.6369999999997,393.6809999999999 L 724.4199999999997,394.21899999999994 L 724.2649999999998,394.68199999999996 L 724.3449999999998,394.902 L 724.4029999999998,394.99199999999996 L 724.4579999999997,395.061 L 724.6319999999997,395.234 L 724.7529999999997,395.405 L 724.6489999999997,395.842 L 724.7059999999997,395.957 L 724.9389999999996,396.034 L 725.1899999999996,396.093 L 725.2779999999996,396.165 L 725.0599999999996,396.608 L 725.1059999999997,396.916 L 725.1979999999996,397.205 L 725.2639999999997,397.67699999999996 L 725.2739999999997,397.727 L 725.2559999999996,397.84499999999997 L 725.3989999999997,398.21099999999996 L 725.6199999999997,398.924 L 725.6369999999997,399.19 L 725.6239999999997,399.471 L 725.5589999999996,399.94 L 725.3379999999996,399.938 L 725.5349999999996,400.251 L 725.5979999999996,400.476 L 725.6249999999997,400.79 L 725.3879999999997,400.829 L 725.2199999999997,400.794 L 725.0799999999997,400.519 L 725.0149999999996,400.769 L 724.7649999999996,401.0 L 724.6749999999996,400.887 L 724.6229999999996,400.766 L 724.6129999999996,400.552 L 724.7509999999996,399.735 L 724.7229999999996,399.64300000000003 L 724.6609999999996,399.58200000000005 L 724.5239999999997,399.54900000000004 L 724.4729999999996,399.38300000000004 L 724.2639999999997,400.25500000000005 L 724.3559999999997,400.61100000000005 L 724.3139999999996,400.773 L 723.9239999999996,400.90900000000005 L 723.5289999999997,400.58200000000005 L 723.4789999999997,400.47700000000003 L 723.4559999999997,400.66100000000006 L 723.3849999999996,400.88500000000005 L 723.0149999999996,400.84400000000005 L 722.8319999999997,400.66900000000004 L 722.9509999999997,400.37100000000004 L 723.1799999999997,399.651 L 723.2229999999997,399.33 L 722.9159999999997,399.094 L 722.6559999999997,398.949 L 722.5069999999997,398.62100000000004 L 722.5639999999997,398.98100000000005 L 722.7029999999997,399.10900000000004 L 722.9049999999997,399.199 L 723.1189999999998,399.38300000000004 L 722.9649999999998,399.607 L 722.8149999999998,399.74600000000004 L 722.5279999999998,400.27400000000006 L 722.1779999999998,400.5690000000001 L 721.7699999999998,400.79100000000005 L 720.4299999999997,401.1170000000001 L 720.1489999999998,401.2490000000001 L 719.7379999999998,401.6550000000001 L 719.4719999999999,402.0400000000001 L 719.4229999999999,402.43000000000006 L 719.5729999999999,402.85100000000006 L 719.6949999999998,403.50900000000007 L 719.7969999999998,403.6430000000001 L 719.6539999999998,403.8830000000001 L 719.4049999999997,404.1380000000001 L 719.1989999999997,404.4810000000001 L 719.2179999999997,404.6690000000001 L 719.1649999999997,404.7960000000001 L 718.4589999999997,405.2170000000001 L 718.3109999999997,405.4630000000001 L 718.1169999999997,405.7070000000001 L 717.8849999999998,405.5670000000001 L 717.7489999999998,405.56900000000013 L 717.9359999999998,405.76300000000015 L 717.9119999999998,405.89100000000013 L 717.8459999999998,405.9660000000001 L 717.6679999999998,406.0360000000001 L 716.6479999999998,406.34500000000014 L 715.8679999999998,406.63800000000015 L 715.6489999999998,406.62600000000015 L 715.6889999999997,406.53700000000015 L 715.8259999999997,406.45800000000014 L 715.8119999999997,406.1220000000001 L 715.6689999999996,406.0600000000001 L 715.5449999999996,406.0360000000001 L 714.9509999999996,406.44600000000014 L 714.7109999999996,406.8510000000001 L 714.7609999999995,406.9280000000001 L 714.8959999999995,406.9090000000001 L 715.2949999999995,406.6800000000001 L 715.4809999999995,406.7450000000001 L 715.4939999999996,406.8350000000001 L 714.8879999999996,407.1850000000001 L 713.6129999999996,408.3170000000001 L 713.5529999999997,408.54000000000013 L 713.3869999999996,408.79200000000014 L 713.1579999999996,409.02900000000017 L 712.7469999999996,409.60200000000015 L 711.9589999999996,410.45300000000015 L 711.7399999999996,410.77000000000015 L 710.4779999999996,411.42400000000015 L 710.2479999999996,411.61800000000017 L 709.7299999999996,412.2540000000002 L 709.1979999999995,412.77400000000017 L 708.5769999999995,413.20500000000015 L 707.4999999999995,413.75400000000013 L 706.8449999999996,414.27300000000014 L 706.6399999999995,414.61800000000017 L 706.6269999999995,414.74100000000016 L 706.6969999999995,414.90800000000013 L 706.8169999999996,415.06400000000014 L 706.8439999999996,415.18800000000016 L 706.7849999999996,415.41000000000014 L 706.7529999999996,415.53300000000013 L 706.5609999999996,415.8370000000001 L 706.2319999999996,416.0540000000001 L 705.1669999999996,416.50700000000006 L 705.0259999999996,416.49300000000005 L 704.1569999999996,416.4030000000001 L 703.8319999999995,416.48500000000007 L 703.6979999999995,416.69700000000006 L 703.3989999999995,417.57400000000007 L 703.1129999999996,417.8070000000001 L 703.0099999999996,418.0180000000001 L 702.9689999999996,418.1640000000001 L 702.7969999999996,418.1600000000001 L 702.6489999999995,418.0950000000001 L 702.5409999999996,418.1420000000001 L 702.4169999999996,417.8480000000001 L 702.2089999999996,417.7880000000001 L 702.0369999999996,417.7670000000001 L 701.3029999999995,418.0630000000001 L 701.0459999999996,418.3010000000001 L 700.5059999999996,419.4220000000001 L 700.3719999999996,420.14400000000006 L 700.4989999999996,420.94000000000005 L 700.6869999999996,421.57500000000005 L 700.7239999999996,421.862 L 700.7009999999996,422.23400000000004 L 700.6049999999996,422.415 L 700.5369999999996,422.629 L 700.6269999999996,423.07 L 700.8539999999996,423.647 L 700.9089999999995,423.891 L 700.9139999999995,424.142 L 701.0849999999996,424.718 L 700.9699999999996,424.61400000000003 L 700.8789999999996,424.37100000000004 L 700.6629999999996,424.06100000000004 L 700.3979999999996,424.37000000000006 L 700.5439999999995,424.59200000000004 L 701.0379999999996,424.85600000000005 L 701.1839999999995,425.07200000000006 L 700.8659999999995,426.99300000000005 L 700.6249999999995,427.67400000000004 L 700.3289999999995,428.12000000000006 L 700.1719999999995,428.2920000000001 L 699.821,429.0 L 699.577,429.851 L 699.528,430.178 L 699.638,430.544 L 699.513,430.76 L 699.3570000000001,430.925 L 699.6540000000001,430.851 L 699.7560000000001,431.049 L 699.7940000000001,431.25399999999996 L 699.7980000000001,432.46999999999997 L 699.7650000000001,433.736 L 699.5360000000001,433.788 L 699.2850000000001,433.801 L 699.0630000000001,433.765 L 698.9040000000001,433.716 L 698.5080000000002,433.783 L 698.2950000000002,433.923 L 698.1240000000001,434.15500000000003 L 698.1360000000001,434.55100000000004 L 697.402,435.547 L 697.244,435.879 L 697.186,436.19800000000004 L 697.2810000000001,436.365 L 697.469,436.536 L 697.714,436.605 L 698.187,436.67400000000004 L 698.414,436.76500000000004 L 698.568,436.934 L 698.011,436.754 L 697.356,436.718 L 695.79,437.18 L 695.3779999999999,437.504 L 695.1479999999999,437.785 L 694.9899999999999,438.427 L 694.9629999999999,438.856 L 694.7769999999998,439.213 L 693.9639999999998,439.761 L 693.4499999999998,439.93 L 693.2549999999998,440.076 L 692.6489999999998,439.887 L 691.9879999999998,439.407 L 691.7099999999998,439.149 L 690.7289999999998,437.909 L 690.5499999999998,437.752 L 690.3519999999999,437.221 L 690.3209999999999,437.023 L 690.266,436.944 L 690.173,436.89000000000004 L 690.128,436.80800000000005 L 689.907,436.20000000000005 L 689.817,435.56600000000003 L 689.676,434.857 L 689.7940000000001,434.906 L 689.9580000000001,435.139 L 690.0400000000001,435.478 L 690.0500000000001,435.952 L 690.1730000000001,436.007 L 690.2830000000001,435.962 L 689.9680000000001,434.87 L 689.6940000000001,434.599 L 689.6220000000001,434.581 L 689.5450000000001,434.406 L 689.537,434.186 L 689.561,434.082 L 689.342,433.724 L 689.265,433.51099999999997 L 688.779,432.42799999999994 L 688.56,431.65099999999995 L 688.2209999999999,430.78599999999994 L 688.0019999999998,430.48299999999995 L 687.6609999999998,429.81499999999994 L 687.3749999999999,429.50399999999996 L 687.0719999999999,429.087 L 686.8339999999998,428.902 L 686.7409999999999,428.805 L 686.0359999999998,427.358 L 685.8189999999998,426.557 L 685.6349999999999,426.17900000000003 L 685.5439999999999,425.891 L 685.2969999999999,424.66 L 685.295,424.44 L 685.265,424.199 L 685.0889999999999,423.677 L 684.78,423.112 L 684.6909999999999,422.76000000000005 L 684.6919999999999,422.62300000000005 L 684.4959999999999,422.07300000000004 L 684.4539999999998,421.82200000000006 L 684.3219999999999,421.59000000000003 L 684.1679999999999,421.377 L 684.0079999999999,421.206 L 683.631,420.648 L 683.496,420.512 L 683.239,420.15 L 683.056,419.481 L 682.822,419.219 L 683.19,419.219 L 682.965,418.971 L 682.859,418.809 L 682.741,418.709 L 682.912,418.459 L 682.6320000000001,418.466 L 682.484,418.31600000000003 L 682.2810000000001,417.846 L 681.912,417.314 L 681.849,417.03000000000003 L 681.523,416.13500000000005 L 681.2470000000001,413.982 L 680.994,413.021 L 681.014,412.745 L 680.708,411.911 L 680.559,411.351 L 680.4979999999999,410.876 L 680.4169999999999,410.56399999999996 L 680.3439999999999,409.94399999999996 L 680.227,409.74799999999993 L 680.2139999999999,409.62999999999994 L 680.2919999999999,409.3469999999999 L 680.511,408.9099999999999 L 680.592,408.6329999999999 L 680.497,408.24299999999994 L 680.298,408.65299999999996 L 680.112,408.768 L 680.0229999999999,408.462 L 680.0219999999999,408.05 L 679.9989999999999,407.951 L 680.0479999999999,407.81300000000005 L 680.5399999999998,407.87600000000003 L 679.9799999999999,407.62300000000005 L 679.9139999999999,407.475 L 679.8929999999999,407.36400000000003 L 680.0129999999999,407.15900000000005 L 679.809,406.98600000000005 L 679.727,406.4560000000001 L 679.667,406.3350000000001 L 679.644,406.2370000000001 L 679.76,405.5040000000001 L 680.242,404.0610000000001 L 680.2779999999999,403.7340000000001 L 680.2359999999999,403.2690000000001 L 680.1289999999999,402.8990000000001 L 680.0829999999999,402.5070000000001 L 680.0539999999999,402.4060000000001 L 679.8789999999999,402.3700000000001 L 679.7129999999999,402.22500000000014 L 679.5209999999998,401.64300000000014 L 679.6969999999999,401.45200000000017 L 679.8329999999999,401.34700000000015 L 679.6459999999998,401.39100000000013 L 679.4919999999998,401.37300000000016 L 679.7839999999999,401.10400000000016 L 680.0449999999998,400.89800000000014 L 680.6399999999999,400.65900000000016 L 680.8929999999999,400.50600000000014 L 680.5189999999999,400.6440000000001 L 680.1269999999998,400.69600000000014 L 679.2949999999998,400.6680000000001 L 679.4339999999999,400.12400000000014 L 679.5789999999998,399.9420000000001 L 679.7359999999999,399.84000000000015 L 679.5049999999999,399.87100000000015 L 679.2369999999999,399.82800000000015 L 679.3229999999999,399.27500000000015 L 679.5339999999999,399.15500000000014 L 679.7609999999999,399.1320000000001 L 680.0429999999999,399.0530000000001 L 679.7409999999999,398.9620000000001 L 679.4279999999999,398.9180000000001 L 679.0509999999999,399.0090000000001 L 678.7049999999999,398.9420000000001 L 678.2839999999999,398.9430000000001 L 678.4519999999999,399.0170000000001 L 678.6319999999998,399.1850000000001 L 678.5419999999998,399.4850000000001 L 678.4569999999998,399.67200000000014 L 678.2259999999998,399.80100000000016 L 678.0369999999998,399.99600000000015 L 677.9839999999998,400.16700000000014 L 677.8769999999998,400.28700000000015 L 678.0619999999998,400.3720000000001 L 678.2519999999998,400.4330000000001 L 678.3619999999999,400.5720000000001 L 678.4919999999998,400.77300000000014 L 678.4849999999999,401.16400000000016 L 677.9869999999999,402.08300000000014 L 677.8149999999998,402.2880000000001 L 676.5679999999999,402.8420000000001 L 676.0789999999998,403.1430000000001 L 675.0349999999999,403.5340000000001 L 674.6289999999999,403.6070000000001 L 674.1789999999999,403.5290000000001 L 673.5209999999998,403.2320000000001 L 672.5169999999998,402.47100000000006 L 672.2559999999999,402.2200000000001 L 671.4529999999999,401.2410000000001 L 670.8739999999999,400.7220000000001 L 670.435,400.2390000000001 L 669.891,399.78100000000006 L 669.3779999999999,399.16300000000007 L 669.2689999999999,398.8810000000001 L 669.3069999999999,398.5940000000001 L 669.4979999999999,398.4380000000001 L 669.722,398.5010000000001 L 669.899,398.7430000000001 L 670.024,398.8510000000001 L 670.129,398.8950000000001 L 670.895,398.5240000000001 L 671.192,398.5390000000001 L 671.395,398.3530000000001 L 671.6519999999999,398.3940000000001 L 672.1759999999999,398.1040000000001 L 672.396,398.0860000000001 L 672.6579999999999,398.02800000000013 L 673.0799999999999,397.2930000000001 L 673.396,396.8250000000001 L 673.601,396.7270000000001 L 673.589,396.6130000000001 L 673.532,396.4640000000001 L 673.379,396.5020000000001 L 673.272,396.6440000000001 L 673.1930000000001,396.81600000000014 L 673.113,396.91900000000015 L 672.865,396.8240000000001 L 672.698,396.84000000000015 L 672.492,396.89600000000013 L 671.7389999999999,397.17000000000013 L 671.429,397.4160000000001 L 671.2189999999999,397.4650000000001 L 670.016,397.1940000000001 L 668.8399999999999,396.57200000000006 L 668.3449999999999,396.1580000000001 L 668.0319999999999,395.6290000000001 L 667.7189999999999,394.9980000000001 L 667.8219999999999,394.8210000000001 L 668.3079999999999,394.4410000000001 L 668.7279999999998,394.1420000000001 L 668.3509999999999,394.2750000000001 L 667.9429999999999,394.4600000000001 L 667.7409999999999,394.5890000000001 L 667.5119999999998,394.8600000000001 L 667.2079999999999,394.9210000000001 L 667.0879999999999,394.5190000000001 L 667.0119999999998,394.1270000000001 L 667.2059999999998,393.9950000000001 L 667.3419999999998,393.9120000000001 L 667.6179999999997,393.8420000000001 L 667.9199999999997,393.7920000000001 L 668.1939999999997,393.7940000000001 L 668.5809999999997,393.80000000000007 L 668.5919999999996,392.88000000000005 L 668.6239999999997,392.79900000000004 L 668.6789999999996,392.752 L 668.7419999999996,392.732 L 668.7949999999996,392.74600000000004 L 668.8739999999996,392.884 L 668.9729999999996,392.87600000000003 L 669.0779999999996,392.79600000000005 L 669.3119999999997,392.85600000000005 L 669.4999999999997,392.81500000000005 L 669.6899999999997,392.869 L 670.0139999999997,392.87 L 670.5989999999997,392.848 L 670.9239999999998,392.855 L 671.1339999999998,393.00100000000003 L 671.3639999999998,393.16200000000003 L 671.6129999999998,393.18500000000006 L 671.9739999999998,393.16600000000005 L 672.2189999999998,393.10400000000004 L 672.3429999999998,392.95400000000006 L 672.4359999999998,392.81000000000006 L 672.9709999999998,392.6000000000001 L 673.5329999999998,392.4290000000001 L 673.6949999999998,392.4100000000001 L 673.7459999999999,392.5100000000001 L 673.7209999999999,392.6770000000001 L 673.786,392.83600000000007 L 674.012,392.93700000000007 L 674.1709999999999,392.96200000000005 L 674.314,392.939 L 674.42,392.88800000000003 L 674.6479999999999,392.63800000000003 L 674.766,392.581 L 674.919,392.58500000000004 L 675.091,392.46500000000003 L 675.094,392.37300000000005 L 674.985,392.32900000000006 L 674.892,392.19700000000006 L 674.9100000000001,392.09000000000003 L 674.883,391.93800000000005 L 674.902,391.79400000000004 L 674.975,391.68600000000004 L 675.1030000000001,391.58200000000005 L 675.027,391.3670000000001 L 674.831,390.9550000000001 L 674.626,390.4270000000001 L 674.409,389.9870000000001 L 674.134,389.60100000000006 L 673.992,389.31700000000006 L 674.007,388.69000000000005 L 673.983,388.56300000000005 L 673.8879999999999,388.48500000000007 L 673.761,388.44200000000006 L 673.582,388.5060000000001 L 673.421,388.5180000000001 L 673.075,388.5040000000001 L 672.9050000000001,388.44000000000005 L 672.4430000000001,387.8090000000001 L 672.3820000000001,387.5610000000001 L 672.3800000000001,387.3060000000001 L 672.5330000000001,386.8620000000001 L 672.5800000000002,386.4480000000001 L 672.6010000000001,386.06200000000007 L 672.5760000000001,385.9530000000001 L 672.4830000000002,385.8230000000001 L 672.3280000000002,385.7270000000001 L 671.9130000000002,385.70400000000006 L 671.4200000000002,385.5760000000001 L 671.0410000000002,385.35100000000006 L 670.7770000000002,385.21500000000003 L 670.7060000000001,385.12600000000003 L 670.6740000000001,385.02200000000005 L 670.743,384.55300000000005 L 670.8620000000001,384.02400000000006 L 670.9490000000001,383.8620000000001 L 671.099,383.6940000000001 L 671.21,383.5800000000001 L 671.388,383.4290000000001 L 671.869,382.9230000000001 L 672.3000000000001,382.2260000000001 L 672.5670000000001,381.7390000000001 L 672.7060000000001,381.5940000000001 L 672.8480000000002,381.4700000000001 L 673.0550000000002,381.3200000000001 L 673.2950000000002,381.1830000000001 L 673.5330000000002,381.1890000000001 L 673.7590000000002,381.3140000000001 L 673.9270000000002,381.4600000000001 L 673.9840000000003,381.7830000000001 L 674.1030000000003,381.9920000000001 L 674.2310000000003,382.11800000000005 L 674.4010000000003,382.17900000000003 L 674.6180000000003,382.16400000000004 L 675.4870000000003,381.79400000000004 L 675.7830000000004,381.71900000000005 L 676.4930000000004,381.67300000000006 L 676.9800000000004,381.5300000000001 L 677.4110000000004,381.3800000000001 L 677.4640000000004,381.1110000000001 L 677.6300000000005,380.7000000000001 L 678.1360000000004,380.1640000000001 L 678.2790000000005,379.9250000000001 L 678.4320000000005,379.4670000000001 L 678.5950000000005,379.0490000000001 L 678.7360000000004,378.8750000000001 L 679.5320000000005,378.41500000000013 L 680.3110000000005,377.99200000000013 L 680.4390000000005,377.8000000000001 L 680.9430000000006,376.92000000000013 L 681.2310000000006,376.32100000000014 L 681.3060000000006,376.12800000000016 L 681.4730000000006,375.60700000000014 L 681.6540000000007,375.08700000000016 L 681.8940000000007,374.9660000000002 L 682.4290000000007,374.7680000000002 L 682.8530000000006,374.5740000000002 L 683.0710000000006,374.3520000000002 L 683.2020000000006,374.1580000000002 L 683.1780000000006,373.9660000000002 L 683.0610000000006,373.73800000000017 L 683.0850000000006,373.60200000000015 L 683.1060000000006,373.46800000000013 L 683.4150000000005,373.1950000000001 L 683.9940000000005,372.3860000000001 L 684.3420000000004,371.9810000000001 L 684.4570000000004,371.9810000000001 L 684.8200000000005,371.7650000000001 L 685.1650000000005,371.5210000000001 L 685.1450000000006,371.4100000000001 L 685.1020000000005,371.2660000000001 L 684.9040000000006,371.20200000000006 L 684.8410000000006,371.02900000000005 L 684.8900000000006,370.78100000000006 L 685.0560000000006,370.1140000000001 L 685.0220000000006,369.9220000000001 L 684.8200000000006,369.3020000000001 L 684.8650000000006,369.1310000000001 L 684.9480000000005,368.9550000000001 L 685.1740000000005,368.7210000000001 L 685.4650000000006,368.5260000000001 L 686.3970000000006,368.06400000000014 L 686.5860000000006,368.01300000000015 L 686.9090000000006,367.89600000000013 L 687.1070000000005,367.6490000000001 L 687.1310000000005,367.4380000000001 L 687.0440000000006,367.30700000000013 L 686.8510000000006,367.13100000000014 L 686.4880000000005,366.97200000000015 L 686.1600000000005,366.83300000000014 L 685.6030000000005,366.8480000000001 L 685.3140000000005,366.7290000000001 L 685.2350000000006,366.6460000000001 L 685.1950000000006,366.3520000000001 L 685.2510000000007,365.8540000000001 L 685.1640000000007,365.8100000000001 L 685.0400000000006,365.86900000000014 L 685.1220000000006,365.83000000000015 L 685.1130000000006,365.8530000000002 L 684.8810000000007,365.9100000000002 L 684.7230000000006,366.0080000000002 L 684.3350000000006,365.9680000000002 L 684.1480000000006,365.8350000000002 L 683.8680000000006,365.7020000000002 L 683.6550000000007,365.50200000000024 L 683.3210000000007,365.38200000000023 L 683.0410000000007,365.18200000000024 L 682.6140000000007,365.18200000000024 L 682.5200000000007,364.98200000000026 L 682.3740000000007,364.84800000000024 L 682.1870000000007,364.6880000000002 L 682.2670000000007,364.3540000000002 L 682.1470000000007,364.1140000000002 L 682.1070000000008,363.7000000000002 L 682.2530000000007,363.52600000000024 L 682.1470000000007,363.0990000000002 L 682.2130000000008,362.9390000000002 L 682.2270000000008,362.7390000000002 L 682.0270000000007,362.5390000000002 L 682.0410000000007,362.3520000000002 L 682.1740000000008,362.1920000000002 L 682.0680000000008,361.7780000000002 L 681.8680000000007,361.5780000000002 L 681.8820000000007,361.1910000000002 L 681.8420000000008,360.8790000000002 L 681.7080000000008,360.54600000000016 L 681.7620000000007,360.21300000000014 L 681.7620000000007,359.98600000000016 L 681.9350000000007,359.79900000000015 L 682.2290000000007,359.71900000000016 L 682.4560000000007,359.62600000000015 L 682.4700000000007,359.3720000000001 L 682.6430000000007,359.0650000000001 L 682.8310000000007,359.0380000000001 L 683.2840000000007,359.02500000000015 L 683.4440000000006,358.90500000000014 L 683.5500000000006,358.50500000000017 L 683.6700000000006,358.2520000000002 L 683.6700000000006,357.9850000000002 L 683.4300000000006,357.7450000000002 L 683.0970000000007,357.5980000000002 L 682.8300000000006,357.5180000000002 L 682.6700000000006,357.3980000000002 L 682.5760000000006,357.1980000000002 L 682.6300000000006,356.9850000000002 L 682.8170000000006,356.8650000000002 L 682.8970000000006,356.70500000000015 L 682.7630000000006,356.41200000000015 L 682.4830000000006,356.4250000000001 L 682.1640000000007,356.3850000000001 L 681.8960000000006,356.3050000000001 L 681.4290000000007,356.2650000000001 L 681.1760000000006,356.0330000000001 L 681.0560000000006,355.79300000000006 L 680.9620000000006,355.4460000000001 L 680.6020000000005,355.2730000000001 L 680.1890000000005,355.1790000000001 L 679.9220000000005,355.35300000000007 L 679.6280000000005,355.36600000000004 L 679.5220000000005,355.206 L 679.5080000000005,354.913 L 679.5740000000005,354.766 L 679.5080000000005,354.553 L 679.5620000000005,354.34 L 679.6950000000005,354.03299999999996 L 680.0150000000006,353.806 L 680.3490000000005,353.526 L 680.6560000000005,353.193 L 680.9490000000005,352.81899999999996 L 681.0690000000005,352.44499999999994 L 681.3370000000006,352.27199999999993 L 681.7500000000006,352.31199999999995 L 682.2710000000005,352.36499999999995 L 682.8580000000005,352.39199999999994 L 683.1380000000005,352.32499999999993 L 682.8840000000005,352.04499999999996 L 682.6600000000004,351.92099999999994 L 682.7500000000005,351.79299999999995 L 683.0230000000005,351.87999999999994 L 683.3870000000005,352.02799999999996 L 683.4580000000005,352.01399999999995 L 683.5010000000005,352.00999999999993 L 683.5140000000006,352.00299999999993 L 683.5430000000006,351.99699999999996 L 683.7350000000006,351.876 L 683.9370000000006,351.76099999999997 L 684.2110000000006,351.63599999999997 L 684.7500000000006,351.40399999999994 L 684.8800000000006,351.33599999999996 L 684.9100000000005,351.323 L 684.9130000000006,351.32099999999997 L 685.0730000000005,351.26199999999994 L 685.2890000000006,351.2749999999999 L 685.3330000000005,351.2749999999999 L 685.5400000000005,351.35599999999994 L 685.7510000000005,351.47399999999993 L 685.8860000000005,351.56699999999995 L 686.0540000000005,351.51099999999997 L 686.1820000000006,351.48299999999995 L 686.3390000000006,351.43399999999997 L 686.4660000000006,351.46799999999996 L 686.5820000000006,351.48999999999995 L 686.7250000000006,351.37799999999993 L 686.9380000000006,351.29799999999994 L 687.1520000000006,351.40399999999994 L 687.3790000000006,351.73699999999997 L 687.6460000000006,352.12399999999997 L 687.8090000000007,352.22999999999996 L 688.1060000000007,352.30799999999994 L 688.3870000000006,352.46399999999994 L 688.4650000000006,352.54699999999997 L 688.6290000000006,352.72099999999995 L 688.6420000000006,352.73799999999994 L 688.7740000000006,352.98099999999994 L 688.8250000000006,353.0729999999999 L 689.0380000000006,353.3279999999999 L 689.4120000000006,353.6749999999999 L 689.8520000000007,353.8209999999999 L 690.1990000000006,354.1809999999999 L 690.4120000000006,354.36799999999994 L 690.7720000000006,354.40799999999996 L 691.0790000000006,354.74199999999996 L 691.0930000000006,354.98199999999997 L 691.0270000000006,355.18199999999996 L 691.1200000000006,355.43499999999995 L 691.2800000000005,355.67499999999995 L 691.6400000000006,355.782 L 692.0800000000006,355.782 L 692.5730000000007,355.928 L 692.8670000000006,356.195 L 692.9870000000006,356.542 L 693.2730000000006,356.686 L 693.2940000000006,356.69599999999997 L 693.3900000000006,356.69 L 693.7940000000006,356.665 L 694.1240000000006,356.59000000000003 L 694.5880000000006,356.475 L 694.9620000000007,356.475 L 695.2330000000006,356.048 L 695.5400000000006,355.781 L 695.9000000000007,355.701 L 696.1940000000006,355.581 L 696.4610000000007,355.38100000000003 L 696.9280000000007,355.341 L 697.3150000000006,355.461 L 697.5550000000006,355.594 L 697.7150000000006,355.501 L 697.7150000000006,355.154 L 697.8610000000006,354.981 L 698.1010000000006,354.915 L 698.4350000000005,355.182 L 698.6080000000005,355.382 L 698.8220000000006,355.435 L 699.2350000000006,355.529 L 699.5550000000006,355.622 L 699.8220000000007,355.502 L 700.0100000000007,355.435 L 700.1830000000007,355.715 L 700.3430000000006,355.98199999999997 L 700.5700000000006,356.102 L 700.8500000000006,356.30199999999996 L 700.9300000000006,356.515 L 700.8640000000006,356.74199999999996 L 700.9040000000006,356.98199999999997 L 700.8900000000006,357.155 L 700.7700000000006,357.38199999999995 L 700.7570000000005,357.542 L 700.6230000000005,357.729 L 700.5970000000005,357.929 L 700.6100000000006,358.27599999999995 L 700.5040000000006,358.54299999999995 L 700.3980000000006,358.79699999999997 L 700.3180000000006,358.984 L 700.2640000000006,359.277 L 700.0640000000005,359.384 L 699.8450000000005,359.48 L 699.5650000000005,359.61400000000003 L 699.5650000000005,359.88100000000003 L 699.4590000000005,360.05400000000003 L 699.2060000000005,360.04100000000005 L 698.9260000000005,360.05400000000003 L 698.7920000000005,360.17400000000004 L 698.8180000000004,360.321 L 698.9380000000004,360.53400000000005 L 699.0060000000004,360.814 L 698.8900000000004,361.314 L 698.6150000000005,361.61400000000003 L 698.4480000000004,361.68 L 698.1810000000004,361.61400000000003 L 697.8810000000004,361.514 L 697.6970000000005,361.59700000000004 L 697.4300000000004,361.64700000000005 L 697.2710000000004,361.69700000000006 L 697.2050000000004,361.8550000000001 L 697.2640000000004,362.0880000000001 L 697.3640000000004,362.2960000000001 L 697.4810000000003,362.4880000000001 L 697.6650000000003,362.7880000000001 L 697.6140000000003,362.9710000000001 L 697.4720000000002,363.0960000000001 L 697.2720000000002,363.17900000000014 L 697.2390000000001,363.36300000000017 L 697.2640000000001,363.58000000000015 L 697.6140000000001,364.05700000000013 L 697.9480000000001,364.40700000000015 L 698.5780000000001,364.4490000000001 L 698.594,364.5530000000001 L 698.4240000000001,364.9430000000001 L 698.4170000000001,365.1150000000001 L 698.6870000000001,365.4140000000001 L 698.7500000000001,365.7010000000001 L 698.9250000000001,365.84400000000005 L 699.0120000000001,366.14000000000004 L 698.9580000000001,366.35 L 698.6850000000001,366.42100000000005 L 698.3040000000001,366.749 L 698.0630000000001,366.71200000000005 L 698.0430000000001,366.69800000000004 L 698.0430000000001,366.68100000000004 L 698.0350000000001,366.494 L 698.0430000000001,366.70200000000006 L 697.9040000000001,366.71500000000003 L 697.7850000000001,366.78600000000006 L 697.6160000000001,367.0760000000001 L 697.421,367.1520000000001 L 697.2,367.1750000000001 L 696.9720000000001,366.9970000000001 L 696.7850000000001,366.81100000000015 L 696.734,366.70800000000014 L 696.687,366.5120000000001 L 696.586,366.3840000000001 L 696.392,366.44400000000013 L 696.0970000000001,366.4710000000001 L 695.7780000000001,366.5140000000001 L 695.7190000000002,366.55700000000013 L 695.7130000000002,366.64000000000016 L 695.7910000000002,366.81600000000014 L 695.8570000000002,367.04500000000013 L 695.8970000000002,367.3650000000001 L 695.9830000000002,367.5770000000001 L 696.0100000000002,367.6440000000001 L 696.5210000000002,368.28000000000014 L 696.6550000000002,368.40900000000016 L 696.6830000000002,368.49400000000014 L 696.6380000000003,368.72500000000014 L 696.5460000000003,368.9950000000001 L 696.5650000000003,369.2090000000001 L 696.7350000000002,369.4450000000001 L 696.8730000000003,369.6100000000001 L 696.7380000000003,369.8320000000001 L 696.6580000000002,370.0890000000001 L 696.7480000000003,370.2040000000001 L 696.7060000000002,370.57300000000015 L 696.7460000000002,370.64200000000017 L 696.8410000000002,370.67100000000016 L 696.9890000000003,370.6460000000002 L 697.1430000000003,370.5480000000002 L 697.2740000000002,370.52900000000017 L 697.3520000000002,370.5570000000002 L 697.4560000000002,370.2780000000002 L 697.5480000000002,370.23800000000017 L 697.7260000000002,370.31500000000017 L 698.0780000000002,370.8410000000002 L 698.3760000000002,371.2850000000002 L 698.4390000000002,371.3460000000002 L 698.4620000000002,371.3690000000002 L 698.5150000000002,371.4200000000002 L 698.8090000000002,371.6500000000002 L 699.0120000000002,371.7950000000002 L 699.2890000000002,371.74300000000017 L 699.6550000000002,371.7330000000002 L 699.8720000000002,371.87500000000017 L 699.9970000000002,371.97400000000016 L 700.0030000000002,371.98800000000017 L 700.0200000000002,371.99100000000016 L 700.4600000000003,372.33900000000017 L 700.6500000000003,372.31300000000016 L 700.7760000000003,372.4130000000002 L 700.8120000000002,372.6580000000002 L 700.7530000000003,372.9130000000002 L 700.7670000000003,373.0330000000002 L 700.9630000000003,373.0560000000002 L 701.3800000000003,373.2240000000002 L 701.7480000000004,373.3730000000002 L 701.9390000000004,373.42000000000024 L 702.1440000000005,373.53000000000026 L 702.3260000000005,373.70600000000024 L 702.6810000000005,373.93200000000024 L 702.9950000000005,374.10500000000025 L 703.0640000000004,374.3390000000002 L 702.9400000000004,374.2890000000002 L 702.7760000000004,374.3150000000002 L 702.6090000000004,374.4190000000002 L 702.5300000000004,374.4850000000002 L 702.1490000000005,374.8880000000002 L 701.9490000000004,375.0120000000002 L 701.7700000000004,375.1930000000002 L 701.3570000000004,375.7380000000002 L 701.1180000000004,376.2460000000002 L 700.9440000000004,376.7230000000002 L 700.9470000000005,377.0600000000002 L 700.8830000000005,377.45500000000015 L 700.7050000000005,377.6800000000002 L 700.5960000000005,377.7560000000002 L 700.4670000000004,378.0950000000002 L 700.3740000000005,378.4900000000002 L 700.4280000000005,378.61800000000017 L 700.6500000000004,378.7900000000002 L 700.8660000000004,378.9580000000002 L 701.1410000000004,379.1400000000002 L 701.4050000000004,379.3130000000002 L 701.5750000000004,379.3350000000002 L 701.6220000000004,379.2370000000002 L 701.6840000000004,379.1430000000002 L 701.8780000000004,379.1930000000002 L 702.1140000000004,379.3620000000002 L 702.2680000000004,379.4970000000002 L 702.3360000000004,379.5420000000002 L 702.7440000000004,379.7690000000002 L 703.0820000000003,379.9560000000002 L 703.5100000000003,380.1930000000002 L 703.6140000000004,380.3380000000002 L 703.7060000000004,380.4920000000002 L 703.9080000000004,380.6960000000002 L 704.3990000000003,381.0570000000002 L 704.8190000000003,381.3160000000002 L 705.1610000000003,381.5260000000002 L 705.4290000000003,381.6730000000002 L 705.5530000000003,381.65000000000015 L 705.6890000000003,381.57100000000014 L 705.8080000000003,381.5260000000001 L 705.9470000000003,381.5680000000001 L 706.1570000000004,381.6800000000001 L 706.6500000000004,382.0220000000001 L 707.1100000000005,382.2890000000001 L 707.6110000000004,382.2410000000001 L 707.7440000000005,382.2840000000001 L 707.8380000000005,382.5260000000001 L 707.9010000000005,382.77100000000013 L 708.4610000000005,382.9330000000001 L 708.8290000000005,383.0060000000001 L 709.2500000000006,383.13900000000007 L 709.4630000000005,383.23800000000006 L 709.6870000000006,383.11400000000003 L 709.7280000000006,383.00500000000005 L 709.9050000000007,382.94100000000003 L 710.1990000000006,382.96900000000005 L 710.7470000000006,383.15900000000005 L 710.9760000000007,383.21600000000007 L 711.1680000000007,383.03600000000006 L 711.5250000000007,382.95300000000003 L 711.7120000000007,382.85900000000004 L 712.1020000000007,383.059 L 712.8060000000006,383.309 L 713.1690000000007,383.46500000000003 L 713.2550000000007,383.61800000000005 L 713.2940000000007,383.76300000000003 L 713.2910000000006,384.115 L 713.3800000000007,384.274 L 714.0860000000007,384.63100000000003 L 714.3190000000006,384.78200000000004 L 714.5070000000006,384.831 L 714.6130000000006,384.837 L 714.6860000000006,384.882 L 714.7490000000006,385.085 L 714.7990000000005,385.132 L 714.9350000000005,385.182 L 715.0830000000005,385.211 L 715.5420000000005,385.035 L 715.8560000000004,384.90200000000004 L 716.0800000000005,384.93600000000004 L 716.2250000000005,385.08400000000006 L 716.2460000000004,385.30000000000007 L 716.3300000000004,385.5280000000001 L 716.4900000000004,385.63900000000007 L 716.6620000000004,385.65100000000007 L 717.0880000000004,385.49700000000007 L 717.4310000000004,385.61500000000007 L 717.7450000000003,385.6580000000001 L 718.0950000000004,385.7320000000001 L 718.2310000000003,385.78800000000007 L 718.5930000000003,385.97600000000006 L 719.0360000000003,386.16600000000005 L 719.2070000000003,386.14500000000004 L 719.9200000000003,385.79100000000005 L 719.9810000000003,385.83400000000006 L 720.1260000000003,386.1720000000001 L 720.3430000000003,386.29300000000006 L 720.6820000000004,386.39900000000006 L 721.0360000000004,386.20400000000006 L 721.3150000000004,386.26000000000005 L 721.6530000000004,386.278 L 721.9770000000003,386.184 L 722.2580000000003,386.16 L 722.6670000000003,386.33000000000004 L 722.7570000000003,386.29100000000005 L 722.8350000000003,386.1820000000001 L 722.9940000000003,385.6940000000001 L 723.1350000000002,385.26200000000006 L 723.1220000000002,385.0040000000001 L 722.9930000000002,384.62500000000006 L 722.6620000000001,384.13100000000003 L 722.6380000000001,383.98100000000005 L 722.7490000000001,383.11800000000005 L 722.8720000000002,382.619 L 722.9770000000002,382.38300000000004 L 723.0930000000002,382.04600000000005 L 723.1140000000001,381.89000000000004 L 723.1020000000002,381.749 L 722.9890000000001,381.663 L 722.9590000000002,381.556 L 722.9870000000002,381.466 L 723.0770000000002,381.416 L 723.4530000000002,381.353 L 723.8770000000002,381.218 L 724.0460000000002,381.146 L 724.1730000000001,381.074 L 724.3030000000001,380.96000000000004 L 724.4240000000001,380.96500000000003 L 724.8040000000001,381.13000000000005 L 724.9370000000001,381.23400000000004 L 725.0070000000002,381.54900000000004 L 725.0640000000002,381.67100000000005 L 725.0,382.0 L 724.772,382.774 L 724.817,383.063 L 725.006,383.274 L 725.1709999999999,383.421 L 725.1439999999999,383.48 L 724.8039999999999,383.72900000000004 L 724.7429999999998,383.862 L 724.8179999999999,383.992 L 724.9529999999999,384.10200000000003 L 725.0139999999999,384.20700000000005 L 725.0769999999999,384.5330000000001 L 725.2499999999999,384.62500000000006 L 725.5919999999999,384.83500000000004 L 725.8929999999999,384.98800000000006 L 726.41,384.8860000000001 L 726.5559999999999,384.9550000000001 L 726.81,385.0270000000001 L 727.0079999999999,385.0490000000001 L 727.1229999999999,385.10300000000007 L 727.1869999999999,385.1550000000001 L 727.1779999999999,385.22100000000006 L 727.1889999999999,385.28900000000004 L 727.4719999999999,385.307 L 727.6209999999999,385.346 L 728.1239999999999,385.276 L 728.6289999999999,385.18 L 728.8609999999999,384.889 L 728.9639999999998,384.868 L 729.2539999999998,384.755 L 729.5399999999997,384.879 L 729.8539999999997,385.048 L 730.0239999999997,385.099 L 730.3589999999997,385.126 L 730.6849999999997,385.10699999999997 L 731.4649999999997,385.02599999999995 L 731.8939999999997,385.0679999999999 L 732.2879999999997,384.8259999999999 L 732.3689999999997,384.8269999999999 L 732.5419999999997,385.0139999999999 L 732.9749999999997,385.0309999999999 L 733.2049999999997,384.9409999999999 L 733.4529999999997,384.8719999999999 L 733.6109999999998,384.8499999999999 L 733.7379999999997,384.8479999999999 L 733.8909999999997,384.8659999999999 L 734.0359999999997,384.80399999999986 L 734.1019999999997,384.67899999999986 L 734.0869999999998,384.48999999999984 L 733.9829999999997,384.2839999999998 L 733.8919999999997,384.16299999999984 L 733.8739999999997,384.0989999999998 L 733.9019999999997,383.9499999999998 L 733.9819999999997,383.73999999999984 L 734.1289999999998,383.49999999999983 L 734.0209999999998,383.2669999999998 L 733.87,383.0 L 733.759,382.974 L 733.479,383.036 L 733.176,383.024 L 732.937,382.863 L 732.759,382.661 L 732.716,382.492 L 732.768,382.285 L 732.847,382.095 L 732.864,382.024 L 733.091,382.024 L 733.405,382.066 L 733.643,382.11899999999997 L 733.8340000000001,382.11699999999996 L 734.181,381.87299999999993 L 734.339,381.85799999999995 L 734.5210000000001,381.81199999999995 L 734.6,381.76599999999996 L 734.655,381.80199999999996 L 734.8539999999999,381.83199999999994 L 735.0609999999999,381.81999999999994 L 735.2459999999999,381.75299999999993 L 735.4319999999999,381.6479999999999 L 735.762,381.4279999999999 L 735.827,381.3019999999999 L 735.827,381.1859999999999 L 735.765,381.1089999999999 L 735.702,381.07199999999995 L 735.727,380.97099999999995 L 735.866,380.80099999999993 L 736.371,380.54499999999996 L 736.8009999999999,380.229 L 737.0369999999999,379.99199999999996 L 737.1449999999999,379.705 L 737.2819999999998,379.393 L 737.4099999999999,379.27 L 737.7149999999998,379.192 L 738.5689999999998,379.077 L 738.8379999999999,378.951 L 739.2349999999999,378.71700000000004 L 739.435,378.533 L 739.5459999999999,378.384 L 739.5579999999999,378.218 L 739.8219999999999,378.166 L 740.0519999999999,377.897 L 740.3309999999999,377.626 L 740.8219999999999,377.397 L 741.2569999999998,377.089 L 741.4079999999998,377.138 L 741.5659999999998,377.284 L 741.6499999999997,377.445 L 741.6679999999998,377.527 L 742.2239999999998,377.62899999999996 L 742.3119999999998,377.61299999999994 L 742.7209999999998,377.75699999999995 L 743.0979999999997,377.9309999999999 L 743.3059999999997,377.97399999999993 L 743.4079999999997,377.96899999999994 L 743.4949999999997,377.91499999999996 L 743.5969999999996,377.76199999999994 L 743.7009999999997,377.65099999999995 L 743.7659999999997,377.60599999999994 L 743.7629999999997,377.42999999999995 L 744.3089999999997,377.08599999999996 L 744.7989999999998,376.83899999999994 L 745.2209999999998,376.65899999999993 L 745.3449999999998,376.73299999999995 L 745.4819999999997,376.86999999999995 L 745.6689999999998,377.21899999999994 L 745.7819999999998,377.3039999999999 L 746.0679999999998,377.25499999999994 L 746.1209999999998,377.2939999999999 L 746.0759999999998,377.4189999999999 L 745.8819999999998,377.5739999999999 L 745.6299999999999,377.7129999999999 L 745.4659999999999,377.8269999999999 L 745.5199999999999,378.2059999999999 L 745.5069999999998,378.3359999999999 L 745.5779999999999,378.3769999999999 L 746.0959999999999,378.0009999999999 L 746.3449999999999,377.9269999999999 L 746.434,378.0179999999999 L 746.461,378.21899999999994 L 746.666,378.6329999999999 L 746.753,378.8429999999999 L 746.2320000000001,379.3429999999999 L 746.041,379.6009999999999 L 746.048,379.6919999999999 L 746.038,379.78199999999987 L 745.905,379.90999999999985 L 745.9119999999999,379.96099999999984 L 746.0189999999999,380.04199999999986 L 746.1499999999999,380.10299999999984 L 746.2129999999999,380.10099999999983 L 746.3209999999998,379.97999999999985 L 746.8119999999998,379.80899999999986 L 746.9529999999997,379.84099999999984 L 747.2989999999998,380.10299999999984 L 747.4589999999997,380.1179999999998 L 747.8739999999997,380.1959999999998 L 748.1399999999996,380.0969999999998 L 748.3349999999997,380.1879999999998 L 748.7399999999997,380.5159999999998 L 748.8329999999996,380.5759999999998 L 748.7989999999996,380.7749999999998 L 748.7779999999997,380.9939999999998 L 748.8809999999996,381.1679999999998 L 748.893,381.322 M 697.728,364.298 L 697.7909999999999,364.479 L 697.736,364.322 L 697.728,364.298 M 679.961,431.122 L 679.9350000000001,431.20500000000004 L 679.937,431.25700000000006 L 679.958,431.2390000000001 L 679.9789999999999,431.2010000000001 L 679.9939999999999,431.1280000000001 L 680.002,431.0740000000001 L 679.9929999999999,431.06800000000015 L 679.961,431.122 M 680.784,439.432 L 680.73,439.521 L 680.682,439.54900000000004 L 680.6460000000001,439.51900000000006 L 680.638,439.5450000000001 L 680.653,439.5800000000001 L 680.681,439.5840000000001 L 680.7220000000001,439.57100000000014 L 680.7620000000001,439.5360000000001 L 680.796,439.4690000000001 L 680.807,439.4180000000001 L 680.796,439.4020000000001 L 680.784,439.432 M 735.329,432.104 L 735.1529999999999,432.19399999999996 L 734.9359999999999,432.39899999999994 L 734.886,432.51899999999995 L 734.954,432.80499999999995 L 734.933,433.0969999999999 L 735.222,433.17299999999994 L 735.307,433.07599999999996 L 735.5070000000001,432.652 L 735.45,432.381 L 735.329,432.104 M 738.195,439.693 L 738.09,439.662 L 737.985,439.811 L 737.998,439.989 L 738.022,440.09 L 738.027,440.14599999999996 L 738.046,440.22599999999994 L 738.0790000000001,440.23999999999995 L 738.211,440.13599999999997 L 738.14,439.84499999999997 L 738.195,439.693 M 738.646,441.953 L 738.54,442.039 L 738.4269999999999,442.09999999999997 L 738.3789999999999,442.21099999999996 L 738.4949999999999,442.371 L 738.762,442.10499999999996 L 738.646,441.953 M 739.012,442.442 L 738.6229999999999,442.591 L 738.545,442.724 L 738.55,443.061 L 738.694,443.104 L 739.03,443.812 L 739.202,443.581 L 739.312,443.18100000000004 L 739.114,442.52500000000003 L 739.012,442.442 M 737.757,440.245 L 737.6419999999999,440.276 L 737.5719999999999,440.397 L 737.6639999999999,440.522 L 737.7279999999998,440.643 L 737.9459999999998,440.64 L 737.9589999999998,440.58 L 737.9209999999998,440.441 L 737.757,440.245 M 736.975,439.311 L 736.921,439.37199999999996 L 736.883,439.52099999999996 L 737.027,439.67999999999995 L 737.182,439.6979999999999 L 737.0980000000001,439.5929999999999 L 736.975,439.311 M 736.691,428.877 L 736.578,428.96000000000004 L 736.651,429.083 L 736.877,429.254 L 736.752,428.862 L 736.691,428.877" id="IN" title="India"/>
</svg>
