<svg xmlns="http://www.w3.org/2000/svg" xmlns:ev="http://www.w3.org/2001/xml-events" xmlns:xlink="http://www.w3.org/1999/xlink" baseProfile="full" height="27.785980224609375" version="1.1" viewBox="584.5170288085938 350.1000061035156 27.427978515625 27.785980224609375" width="27.427978515625">
	<defs/>
	<path class="land" d="M 601.333,350.905 L 601.333,350.931 L 601.426,351.18 L 601.657,352.105 L 601.789,352.222 L 601.939,352.32 L 602.045,352.457 L 602.087,352.595 L 602.074,352.809 L 602.079,353.057 L 602.141,353.247 L 602.227,353.391 L 602.307,353.463 L 602.427,353.47 L 602.571,353.505 L 602.668,353.648 L 602.977,354.691 L 603.006,354.827 L 603.136,354.871 L 603.349,354.851 L 603.568,354.959 L 603.802,355.127 L 604.022,355.444 L 604.17,355.495 L 604.634,355.448 L 605.268,355.499 L 605.565,355.662 L 605.535,355.763 L 605.306,355.875 L 604.903,356.007 L 604.784,356.23 L 604.717,356.519 L 604.729,356.681 L 604.828,356.859 L 605.112,357.213 L 605.128,357.341 L 605.179,357.519 L 605.232,357.641 L 605.173,357.876 L 604.915,358.039 L 604.576,358.215 L 603.895,358.999 L 603.844,359.168 L 603.848,359.63 L 603.78,359.762 L 603.565,359.76 L 603.397,359.736 L 603.388,359.897 L 603.281,360.113 L 603.22,360.3 L 603.47,360.741 L 603.515,360.975 L 603.475,361.188 L 603.243,361.554 L 603.106,361.8 L 603.139,361.855 L 603.32,361.953 L 603.882,362.756 L 604.063,363.038 L 604.301,362.964 L 604.39,362.969 L 604.459,363.014 L 604.502,363.109 L 604.502,363.229 L 604.442,363.409 L 604.745,363.482 L 604.854,363.664 L 605.207,364.286 L 605.194,364.471 L 605.025,364.764 L 605.023,364.958 L 605.059,365.132 L 605.114,365.193 L 605.635,365.218 L 605.856,365.288 L 606.397,365.604 L 607.013,366.089 L 607.516,366.486 L 607.945,366.823 L 608.405,366.799 L 608.53,366.86 L 608.646,366.965 L 608.778,367.242 L 609.041,367.867 L 609.265,368.074 L 609.61,368.573 L 609.934,369.04 L 609.721,369.674 L 609.512,370.332 L 609.512,371.178 L 609.512,371.632 L 609.952,371.651 L 610.441,371.673 L 610.445,372.214 L 610.449,372.757 L 610.453,373.375 L 610.597,373.401 L 610.825,373.534 L 610.923,373.734 L 611.045,373.843 L 611.194,373.861 L 611.34,373.959 L 611.485,374.138 L 611.538,374.272 L 611.499,374.365 L 611.53,374.527 L 611.631,374.759 L 611.754,374.868 L 611.945,375.002 L 611.686,375.079 L 611.406,375.02 L 610.809,374.749 L 610.615,374.741 L 610.362,374.844 L 610.351,374.936 L 609.72,374.633 L 609.493,374.572 L 609.411,374.566 L 609.049,374.569 L 608.534,374.624 L 608.231,374.747 L 608.021,374.877 L 607.925,375.005 L 607.891,375.074 L 607.727,375.451 L 607.537,375.934 L 607.34,376.368 L 606.957,376.978 L 606.745,377.259 L 606.29,377.781 L 605.798,377.886 L 604.657,377.783 L 603.392,377.668 L 602.133,377.555 L 601.196,377.47 L 601.124,377.442 L 600.197,376.696 L 599.465,376.105 L 598.55,375.366 L 597.616,374.609 L 596.668,373.84 L 595.979,373.28 L 595.143,372.558 L 594.382,371.899 L 593.781,371.377 L 593.01,370.921 L 592.408,370.563 L 591.53,370.042 L 590.829,369.625 L 590.228,369.267 L 589.303,368.715 L 588.996,368.565 L 588.037,368.38 L 587.128,368.224 L 586.187,368.062 L 585.561,367.954 L 585.974,367.56 L 585.847,367.206 L 585.546,367.271 L 585.269,367.355 L 585.101,366.804 L 585.315,366.735 L 585.117,366.014 L 584.914,365.27 L 584.718,364.549 L 584.517,363.81 L 585.312,363.335 L 585.906,362.98 L 586.737,362.482 L 587.538,362.001 L 588.301,361.542 L 589.142,361.035 L 589.894,360.581 L 590.583,360.396 L 590.729,360.253 L 591.043,359.631 L 591.312,359.099 L 591.325,358.976 L 591.326,358.219 L 591.373,357.328 L 591.462,356.851 L 591.617,356.428 L 591.759,356.119 L 591.774,355.83 L 591.755,355.536 L 591.608,355.091 L 591.455,354.626 L 591.472,354.178 L 591.5,353.938 L 591.596,353.553 L 591.76,353.271 L 591.936,353.097 L 592.59,352.917 L 592.979,352.81 L 593.499,352.31 L 593.808,352.012 L 594.238,351.54 L 594.555,351.192 L 594.58,351.071 L 594.58,351.024 L 594.852,350.953 L 595.355,350.53 L 595.652,350.135 L 595.746,350.1 L 596.011,350.229 L 596.201,350.265 L 596.638,350.115 L 596.898,350.194 L 597.117,350.294 L 597.239,350.301 L 597.826,350.547 L 597.973,350.577 L 598.275,350.607 L 598.726,350.621 L 599.017,350.46 L 599.222,350.305 L 599.366,350.309 L 599.506,350.346 L 599.624,350.412 L 599.723,350.528 L 599.77,350.694 L 599.751,351.223 L 599.795,351.362 L 599.875,351.462 L 599.976,351.481 L 600.099,351.366 L 600.313,351.199 L 600.577,351.017 L 600.773,350.85 L 600.886,350.787 L 601.063,350.796 L 601.236,350.825 L 601.333,350.905" id="IQ" title="Iraq"/>
</svg>
