<svg xmlns="http://www.w3.org/2000/svg" xmlns:ev="http://www.w3.org/2001/xml-events" xmlns:xlink="http://www.w3.org/1999/xlink" baseProfile="full" height="48.7869873046875" version="1.1" viewBox="599.2620239257812 341.5220031738281 54.10498046875 48.7869873046875" width="54.10498046875" fill="#00394f">
	<defs/>
	<path class="land" d="M 601.479,341.959 L 601.538,342.037 L 601.993,342.782 L 602.1930000000001,343.001 L 602.3100000000001,343.18699999999995 L 602.389,343.39399999999995 L 602.528,343.53399999999993 L 602.712,343.60999999999996 L 602.935,343.80999999999995 L 603.0859999999999,343.96599999999995 L 603.3389999999999,344.28899999999993 L 603.607,344.40899999999993 L 604.5799999999999,344.64199999999994 L 605.121,344.74999999999994 L 605.2769999999999,344.78099999999995 L 605.6909999999999,344.62499999999994 L 606.1759999999999,344.64599999999996 L 606.3559999999999,344.65399999999994 L 606.9969999999998,343.9959999999999 L 607.1919999999999,343.7759999999999 L 607.5739999999998,343.6619999999999 L 607.7889999999999,343.39899999999994 L 608.1339999999999,343.08099999999996 L 608.555,342.78099999999995 L 608.9419999999999,342.51099999999997 L 609.2379999999999,342.34799999999996 L 609.7739999999999,341.96599999999995 L 610.1089999999999,341.83399999999995 L 610.4,341.83799999999997 L 610.836,342.28599999999994 L 611.203,342.6929999999999 L 611.316,342.8709999999999 L 611.134,343.03099999999995 L 610.794,343.18499999999995 L 610.7289999999999,343.29799999999994 L 610.7059999999999,343.4429999999999 L 610.7189999999999,343.5809999999999 L 610.765,343.6939999999999 L 611.182,343.9549999999999 L 611.229,344.09899999999993 L 611.2320000000001,344.24499999999995 L 611.1850000000001,344.33599999999996 L 611.0920000000001,344.38899999999995 L 610.8020000000001,344.46199999999993 L 610.5530000000001,344.5469999999999 L 610.4670000000001,344.62999999999994 L 610.392,344.7289999999999 L 610.403,344.83899999999994 L 610.4780000000001,344.96399999999994 L 610.9870000000001,345.3039999999999 L 611.0450000000001,345.4289999999999 L 611.1460000000001,345.5969999999999 L 611.2710000000001,345.69999999999993 L 611.4830000000001,345.72799999999995 L 611.585,345.79699999999997 L 612.077,346.42299999999994 L 612.197,346.4669999999999 L 612.772,346.32899999999995 L 612.8520000000001,346.3349999999999 L 612.8570000000001,346.48799999999994 L 612.9430000000001,347.37399999999997 L 613.0090000000001,347.83099999999996 L 613.1080000000002,348.27399999999994 L 613.2630000000001,348.67799999999994 L 613.4470000000001,349.0609999999999 L 613.7010000000001,349.2969999999999 L 614.2650000000001,349.5809999999999 L 614.5390000000001,349.6629999999999 L 615.2600000000001,349.7199999999999 L 615.9720000000001,349.8449999999999 L 616.392,349.9779999999999 L 616.5210000000001,350.0719999999999 L 616.6270000000001,350.2159999999999 L 616.975,350.8839999999999 L 617.523,351.3589999999999 L 618.629,352.06999999999994 L 619.165,352.3059999999999 L 620.971,352.75199999999995 L 622.173,352.727 L 625.495,351.866 L 626.599,351.651 L 627.014,351.651 L 626.767,351.822 L 626.3520000000001,351.92 L 626.6020000000001,352.041 L 626.989,352.061 L 627.168,352.041 L 627.298,351.932 L 627.319,351.75100000000003 L 627.3,351.57200000000006 L 627.117,350.76900000000006 L 627.011,350.2010000000001 L 627.79,350.24000000000007 L 628.093,350.16600000000005 L 628.539,349.97600000000006 L 628.877,349.86100000000005 L 629.0469999999999,349.845 L 629.2149999999999,349.75600000000003 L 629.3439999999999,349.644 L 629.6339999999999,348.865 L 629.7789999999999,348.669 L 630.2709999999998,348.229 L 630.6889999999999,347.95 L 631.1269999999998,347.702 L 631.6819999999998,347.529 L 632.4189999999998,347.54699999999997 L 633.0059999999997,347.60799999999995 L 633.3459999999998,347.60499999999996 L 633.5069999999997,347.62299999999993 L 633.6279999999997,347.59799999999996 L 633.6979999999998,347.54699999999997 L 633.7739999999998,347.205 L 633.8939999999998,347.09299999999996 L 634.1009999999998,346.99699999999996 L 634.3909999999997,346.99699999999996 L 634.7449999999998,346.972 L 635.0389999999998,346.995 L 635.4089999999998,347.126 L 635.8919999999997,347.137 L 636.2139999999997,347.114 L 636.4009999999997,347.24499999999995 L 636.5359999999997,347.41999999999996 L 636.6009999999998,347.566 L 636.6159999999998,347.76599999999996 L 636.6129999999997,347.91799999999995 L 636.6639999999998,347.977 L 636.8599999999998,348.068 L 637.1329999999998,348.13599999999997 L 637.6639999999998,348.21799999999996 L 638.1629999999998,348.376 L 638.4219999999998,348.483 L 638.7819999999998,348.65 L 639.2109999999998,349.065 L 639.3699999999998,349.13 L 639.5619999999998,349.17199999999997 L 639.6989999999997,349.16099999999994 L 640.0209999999997,348.98599999999993 L 640.3009999999997,349.11499999999995 L 640.4429999999998,349.09799999999996 L 640.7649999999998,349.00199999999995 L 641.1069999999997,349.12199999999996 L 641.9589999999997,349.57599999999996 L 642.0529999999998,349.566 L 642.1299999999998,349.61199999999997 L 642.2009999999998,349.71599999999995 L 642.2509999999997,349.84399999999994 L 642.3139999999997,350.2339999999999 L 642.5599999999997,350.51899999999995 L 642.8609999999998,350.77799999999996 L 643.2119999999998,350.91999999999996 L 643.9449999999997,351.25899999999996 L 644.2649999999998,351.53399999999993 L 644.5889999999997,351.99999999999994 L 644.9889999999997,352.61299999999994 L 645.0469999999997,352.6689999999999 L 646.0749999999997,352.6499999999999 L 647.2309999999997,352.6509999999999 L 647.3719999999996,352.8959999999999 L 647.3459999999997,353.3809999999999 L 647.3869999999997,353.87799999999993 L 647.4909999999998,354.22099999999995 L 647.4919999999997,354.5369999999999 L 647.4089999999998,354.69699999999995 L 647.3439999999997,354.87999999999994 L 647.3249999999997,354.9599999999999 L 647.4729999999997,355.0739999999999 L 647.6029999999997,355.3359999999999 L 647.6219999999997,355.7009999999999 L 647.5579999999998,355.8939999999999 L 647.5669999999998,356.0539999999999 L 647.6319999999998,356.18999999999994 L 647.6879999999999,356.4169999999999 L 647.6779999999999,356.5539999999999 L 647.5849999999999,356.68999999999994 L 647.5289999999999,356.85999999999996 L 647.4549999999999,357.07499999999993 L 647.4279999999999,357.24499999999995 L 647.2879999999999,357.32399999999996 L 647.1769999999999,357.381 L 647.1959999999999,357.59599999999995 L 647.252,357.77699999999993 L 647.317,357.99099999999993 L 647.243,358.1379999999999 L 647.196,358.3069999999999 L 647.0930000000001,358.5779999999999 L 647.1210000000001,358.80299999999994 L 647.0100000000001,358.9939999999999 L 646.8700000000001,359.1629999999999 L 646.7770000000002,359.2979999999999 L 646.7580000000002,359.48899999999986 L 646.6560000000002,359.55599999999987 L 646.4610000000001,359.71299999999985 L 646.3410000000001,359.8249999999999 L 646.1640000000001,359.85899999999987 L 646.1270000000001,359.94899999999984 L 646.1550000000001,360.03799999999984 L 646.229,360.0939999999998 L 646.344,360.28799999999984 L 646.5840000000001,360.62199999999984 L 645.892,360.6639999999998 L 645.6890000000001,360.95899999999983 L 645.4520000000001,361.38099999999986 L 645.5680000000001,362.23299999999983 L 645.4520000000001,362.66999999999985 L 645.5220000000002,362.91499999999985 L 645.6990000000002,363.08399999999983 L 645.9260000000002,363.1779999999998 L 646.3520000000002,363.1839999999998 L 646.6340000000002,363.2499999999998 L 646.6620000000003,363.3629999999998 L 646.5000000000002,363.5279999999998 L 646.2410000000002,363.8369999999998 L 646.1030000000002,363.9719999999998 L 645.6620000000001,364.5919999999998 L 645.6660000000002,364.8559999999998 L 645.7070000000002,365.06899999999985 L 645.8970000000003,365.7359999999998 L 646.0830000000003,366.3809999999998 L 646.4160000000003,367.5409999999998 L 646.4100000000003,367.80999999999983 L 646.3060000000003,368.40599999999984 L 646.2990000000003,368.76799999999986 L 646.3460000000003,369.23699999999985 L 646.3110000000004,369.47899999999987 L 646.3930000000004,370.02099999999984 L 646.4860000000003,370.05999999999983 L 647.2070000000003,370.16499999999985 L 647.8680000000003,370.26199999999983 L 648.7490000000003,370.3899999999998 L 649.0160000000003,370.7069999999998 L 649.1820000000004,371.4019999999998 L 649.1720000000004,371.9209999999998 L 649.0970000000003,372.1859999999998 L 648.4670000000003,372.9409999999998 L 647.8270000000003,373.7049999999998 L 647.1880000000003,374.46599999999984 L 646.5260000000003,375.2529999999998 L 646.4570000000003,375.33599999999984 L 646.9920000000003,375.9639999999998 L 647.3230000000003,376.3519999999998 L 647.7900000000003,376.8969999999998 L 647.8490000000003,377.0279999999998 L 647.8450000000003,377.2419999999998 L 648.3240000000003,378.06999999999977 L 648.4930000000003,378.50099999999975 L 648.6450000000003,378.75399999999973 L 649.0240000000003,379.1489999999997 L 649.3940000000003,379.5339999999997 L 649.7950000000003,379.7099999999997 L 650.0690000000003,379.7489999999997 L 650.6930000000003,379.95199999999966 L 650.9210000000003,380.11399999999963 L 651.2870000000003,380.52199999999965 L 651.7170000000002,380.46599999999967 L 651.8060000000003,380.46599999999967 L 651.8300000000003,380.49499999999966 L 651.8430000000003,380.62599999999964 L 651.7800000000003,381.2589999999996 L 651.8990000000003,381.8959999999996 L 651.9820000000003,382.8529999999996 L 651.9510000000004,383.01799999999963 L 651.8480000000004,383.29399999999964 L 651.8430000000004,383.47099999999966 L 651.8160000000004,383.57999999999964 L 651.8440000000004,383.62799999999964 L 651.9810000000003,383.69299999999964 L 652.2730000000004,383.72799999999967 L 652.9780000000004,383.62099999999964 L 653.0600000000004,383.6479999999996 L 653.2290000000004,383.7609999999996 L 653.3560000000003,383.93799999999965 L 653.3670000000003,384.02199999999965 L 653.1890000000003,384.16899999999964 L 653.1600000000003,384.41799999999967 L 653.2130000000003,384.79099999999966 L 653.1890000000003,384.8359999999997 L 653.0330000000004,384.9199999999997 L 652.9820000000003,385.4579999999997 L 652.9540000000003,385.50699999999966 L 652.7720000000003,385.56199999999967 L 651.9120000000003,385.5249999999997 L 651.8140000000003,385.5399999999997 L 651.4910000000003,385.6819999999997 L 650.9370000000004,385.78399999999965 L 650.7850000000003,385.84199999999964 L 650.5810000000004,386.0039999999996 L 650.4340000000003,386.2009999999996 L 650.4060000000003,386.38299999999964 L 650.3770000000003,386.42099999999965 L 650.0600000000003,386.3839999999997 L 649.9560000000002,386.5419999999997 L 649.3410000000002,386.7779999999997 L 649.2650000000002,386.82899999999967 L 649.1740000000002,387.01699999999965 L 649.0920000000002,387.54399999999964 L 649.0180000000003,388.01699999999965 L 648.9710000000002,388.0859999999997 L 648.7770000000003,388.24799999999965 L 648.7580000000003,388.30299999999966 L 648.7840000000002,388.48599999999965 L 648.6960000000003,388.8189999999997 L 648.6270000000003,389.7419999999997 L 648.5500000000003,389.99999999999966 L 648.3970000000003,390.0209999999997 L 648.2770000000003,390.1499999999997 L 648.0570000000002,390.3089999999997 L 647.5820000000002,390.1859999999997 L 647.2050000000003,390.0569999999997 L 645.9570000000002,389.7539999999997 L 645.8200000000003,389.6069999999997 L 645.7420000000003,389.3479999999997 L 645.5260000000003,389.2749999999997 L 645.2160000000003,389.66299999999967 L 644.1620000000004,389.4389999999997 L 643.8040000000004,389.5079999999997 L 643.5830000000004,389.3869999999997 L 643.0150000000004,389.3799999999997 L 642.5670000000005,389.1379999999997 L 641.9240000000004,389.3039999999997 L 641.4160000000004,389.3359999999997 L 640.7190000000004,388.9119999999997 L 639.9700000000004,388.7949999999997 L 639.3620000000004,388.8309999999997 L 639.0490000000004,388.79799999999966 L 638.5420000000005,388.6459999999997 L 638.3020000000005,388.4889999999997 L 637.9070000000005,388.6089999999997 L 637.7290000000005,388.3859999999997 L 636.6120000000005,388.1789999999997 L 636.4050000000005,387.7839999999997 L 636.2500000000006,387.4169999999997 L 636.2380000000006,387.0389999999997 L 635.9660000000006,386.3769999999997 L 635.8750000000006,385.4139999999997 L 635.7740000000006,385.0369999999997 L 635.6230000000006,384.7089999999997 L 635.4220000000006,384.4299999999997 L 635.1490000000006,384.13099999999974 L 634.9110000000005,384.0119999999997 L 633.8670000000005,383.7839999999997 L 633.6660000000005,383.8139999999997 L 633.1990000000005,383.9629999999997 L 632.7020000000006,384.2939999999997 L 631.8860000000005,384.4819999999997 L 631.7220000000005,384.6239999999997 L 631.5170000000005,384.9439999999997 L 631.2510000000005,385.12999999999965 L 630.8870000000005,385.08199999999965 L 630.4950000000005,385.2709999999997 L 629.7680000000005,385.79799999999966 L 629.3850000000004,385.95899999999966 L 629.0640000000004,385.94699999999966 L 628.7190000000004,385.69699999999966 L 627.9480000000004,385.36099999999965 L 627.4490000000004,385.2489999999996 L 626.7570000000004,385.3259999999996 L 626.4290000000004,385.26999999999964 L 625.8720000000004,384.87499999999966 L 625.7260000000005,384.5879999999997 L 625.4080000000005,384.3959999999997 L 624.4000000000004,383.9649999999997 L 623.5840000000004,383.3949999999997 L 623.4340000000004,383.1789999999997 L 623.3340000000004,382.8599999999997 L 622.9790000000004,382.4719999999997 L 622.1820000000004,382.1549999999997 L 621.7300000000004,381.81699999999967 L 621.2000000000004,381.74099999999964 L 620.7070000000003,381.75199999999967 L 620.4900000000004,381.6909999999997 L 620.2930000000003,381.5459999999997 L 619.6200000000003,380.8459999999997 L 619.6120000000003,380.56899999999973 L 619.1970000000003,379.88299999999975 L 619.1000000000004,379.63799999999975 L 619.0110000000003,378.95699999999977 L 618.8960000000003,378.77899999999977 L 618.4630000000003,378.49799999999976 L 618.3960000000003,378.31399999999974 L 618.4880000000003,378.06899999999973 L 618.4880000000003,377.88299999999975 L 618.2630000000003,377.70799999999974 L 617.9250000000003,377.6149999999997 L 617.8430000000003,377.40499999999975 L 617.9050000000003,376.99599999999975 L 617.8540000000003,376.73899999999975 L 617.5560000000003,376.32799999999975 L 617.1160000000002,375.90699999999975 L 616.6770000000002,375.28299999999973 L 616.5050000000002,375.1269999999997 L 616.3930000000003,374.71799999999973 L 616.2320000000003,374.23199999999974 L 615.9840000000003,374.1969999999997 L 614.7820000000003,374.77999999999975 L 614.4310000000003,374.45199999999977 L 613.3770000000003,373.8819999999998 L 613.3040000000003,373.79599999999976 L 613.2300000000004,373.6649999999998 L 613.3630000000004,373.58899999999977 L 613.4950000000003,373.55799999999977 L 613.7600000000003,373.65999999999974 L 613.9190000000003,373.53999999999974 L 613.8560000000003,373.3459999999997 L 613.5910000000003,373.2259999999997 L 613.2310000000003,373.23499999999973 L 613.3300000000004,373.41699999999975 L 612.9930000000004,373.58899999999977 L 612.9210000000004,373.8139999999998 L 612.9700000000004,374.0929999999998 L 612.9990000000004,374.4829999999998 L 612.8620000000004,374.67099999999976 L 612.7560000000004,374.75799999999975 L 612.3030000000005,374.7809999999998 L 612.0910000000005,374.9529999999998 L 611.9540000000005,374.9939999999998 L 611.7630000000005,374.8599999999998 L 611.6400000000004,374.7509999999998 L 611.5390000000004,374.5189999999998 L 611.5080000000005,374.3569999999998 L 611.5470000000005,374.2649999999998 L 611.4940000000005,374.1299999999998 L 611.3490000000005,373.95099999999985 L 611.2030000000005,373.85299999999984 L 611.0550000000005,373.83499999999987 L 610.9320000000005,373.7259999999999 L 610.8340000000005,373.5259999999999 L 610.6050000000005,373.3939999999999 L 610.4610000000005,373.3679999999999 L 610.4570000000004,372.74899999999985 L 610.4530000000004,372.20599999999985 L 610.4490000000004,371.66499999999985 L 609.9600000000004,371.64299999999986 L 609.5200000000003,371.62399999999985 L 609.5200000000003,371.16999999999985 L 609.5200000000003,370.32299999999987 L 609.7290000000003,369.66499999999985 L 609.9420000000002,369.03099999999984 L 609.6180000000003,368.56399999999985 L 609.2730000000003,368.0649999999998 L 609.0490000000002,367.8569999999998 L 608.7860000000002,367.2319999999998 L 608.6550000000002,366.9549999999998 L 608.5390000000002,366.8499999999998 L 608.4140000000002,366.7889999999998 L 607.9550000000003,366.8129999999998 L 607.5260000000003,366.47599999999983 L 607.0230000000003,366.0799999999998 L 606.4080000000002,365.5949999999998 L 605.8660000000002,365.2779999999998 L 605.6450000000002,365.2079999999998 L 605.1240000000003,365.1839999999998 L 605.0690000000003,365.1229999999998 L 605.0330000000004,364.94899999999984 L 605.0340000000003,364.7549999999998 L 605.2030000000003,364.4619999999998 L 605.2160000000003,364.2769999999998 L 604.8630000000004,363.6549999999998 L 604.7540000000004,363.4729999999998 L 604.4520000000003,363.3999999999998 L 604.5120000000003,363.2199999999998 L 604.5120000000003,363.0999999999998 L 604.4690000000003,363.00499999999977 L 604.3990000000002,362.95999999999975 L 604.3100000000002,362.95499999999976 L 604.0730000000002,363.02899999999977 L 603.8920000000002,362.7469999999998 L 603.3290000000002,361.9439999999998 L 603.1480000000001,361.8459999999998 L 603.1150000000001,361.79099999999977 L 603.2520000000001,361.54399999999976 L 603.484,361.17799999999977 L 603.524,360.9659999999998 L 603.48,360.7319999999998 L 603.23,360.2909999999998 L 603.291,360.1039999999998 L 603.398,359.88899999999984 L 603.407,359.72699999999986 L 603.575,359.75099999999986 L 603.7900000000001,359.7529999999999 L 603.8580000000001,359.62099999999987 L 603.854,359.1589999999999 L 603.9050000000001,358.9899999999999 L 604.5870000000001,358.2059999999999 L 604.9260000000002,358.0299999999999 L 605.1840000000002,357.86799999999994 L 605.2430000000002,357.63199999999995 L 605.1900000000002,357.50999999999993 L 605.1390000000001,357.33199999999994 L 605.1230000000002,357.20399999999995 L 604.8390000000002,356.84999999999997 L 604.7400000000001,356.67199999999997 L 604.7280000000002,356.50899999999996 L 604.7950000000002,356.22099999999995 L 604.9140000000002,355.99699999999996 L 605.3170000000002,355.86499999999995 L 605.5460000000003,355.75299999999993 L 605.5770000000002,355.65199999999993 L 605.2800000000002,355.4889999999999 L 604.6460000000002,355.43799999999993 L 604.1820000000001,355.48499999999996 L 604.0340000000001,355.43399999999997 L 603.8140000000001,355.118 L 603.58,354.95 L 603.361,354.842 L 603.148,354.86199999999997 L 603.019,354.81899999999996 L 602.989,354.68299999999994 L 602.681,353.63999999999993 L 602.5840000000001,353.49699999999996 L 602.44,353.46199999999993 L 602.3190000000001,353.4549999999999 L 602.239,353.3829999999999 L 602.153,353.2389999999999 L 602.091,353.0499999999999 L 602.087,352.8009999999999 L 602.1,352.5869999999999 L 602.058,352.4489999999999 L 601.952,352.3119999999999 L 601.802,352.2129999999999 L 601.6700000000001,352.0969999999999 L 601.4390000000001,351.1719999999999 L 601.3460000000001,350.9229999999999 L 601.3460000000001,350.8969999999999 L 601.3500000000001,350.8479999999999 L 601.3270000000001,350.6349999999999 L 601.4340000000001,350.4499999999999 L 601.4270000000001,350.3769999999999 L 601.2050000000002,350.1429999999999 L 600.8930000000001,349.90899999999993 L 600.8090000000002,349.86799999999994 L 600.8070000000002,349.61799999999994 L 600.8180000000002,349.4289999999999 L 600.7900000000002,349.2579999999999 L 600.7300000000002,349.1599999999999 L 600.7280000000003,349.0829999999999 L 600.8530000000003,348.8989999999999 L 600.7720000000003,348.7779999999999 L 600.3130000000003,348.4789999999999 L 600.1410000000003,348.32899999999995 L 599.8230000000003,348.299 L 599.7900000000003,348.2 L 599.8400000000003,347.991 L 599.9490000000003,347.73699999999997 L 600.1210000000003,347.48699999999997 L 600.1760000000003,347.35499999999996 L 600.2430000000003,347.12999999999994 L 600.2660000000003,346.9699999999999 L 600.4590000000003,346.7449999999999 L 600.4600000000003,346.68599999999986 L 600.4060000000003,346.60499999999985 L 600.2520000000003,346.55999999999983 L 600.0940000000003,346.5409999999998 L 600.0350000000003,346.49999999999983 L 600.0140000000004,346.37899999999985 L 600.0340000000003,345.88699999999983 L 599.9840000000004,345.59099999999984 L 599.9190000000003,345.37599999999986 L 599.9600000000004,344.89099999999985 L 599.8500000000004,344.79299999999984 L 599.6770000000004,344.53799999999984 L 599.6030000000004,344.32199999999983 L 599.6430000000004,344.2409999999998 L 599.6800000000004,344.0989999999998 L 599.7040000000004,343.9119999999998 L 599.6970000000005,343.7799999999998 L 599.5380000000005,343.6509999999998 L 599.4200000000004,343.51499999999976 L 599.4060000000004,343.3649999999998 L 599.3590000000004,343.18099999999976 L 599.2920000000004,343.03499999999974 L 599.2620000000004,342.9399999999997 L 599.3200000000004,342.88399999999973 L 599.5450000000004,342.83999999999975 L 599.8720000000004,342.87099999999975 L 600.1390000000005,342.87299999999976 L 600.2900000000004,342.77899999999977 L 600.4770000000004,341.89199999999977 L 600.6480000000005,341.6579999999998 L 600.8460000000005,341.52199999999976 L 601.2330000000004,341.83799999999974 L 601.3930000000004,341.9489999999997 L 601.479,341.959 M 633.391,384.66 L 633.129,385.035 L 632.734,385.348 L 632.566,385.25100000000003 L 632.4350000000001,385.25500000000005 L 632.153,385.37500000000006 L 631.95,385.3960000000001 L 631.581,385.6090000000001 L 631.245,385.7160000000001 L 631.0120000000001,385.70800000000014 L 630.931,385.68600000000015 L 630.885,385.54100000000017 L 630.889,385.4830000000002 L 631.0310000000001,385.51300000000015 L 631.5500000000001,385.31900000000013 L 632.1970000000001,385.00100000000015 L 632.2590000000001,384.85900000000015 L 632.1550000000001,384.62800000000016 L 632.1830000000001,384.57600000000014 L 632.6030000000001,384.69400000000013 L 633.0720000000001,384.4640000000001 L 633.4640000000002,384.4010000000001 L 633.6480000000001,384.56100000000015 L 633.391,384.66" id="IR" title="Iran"/>
</svg>
