<svg xmlns="http://www.w3.org/2000/svg" xmlns:ev="http://www.w3.org/2001/xml-events" xmlns:xlink="http://www.w3.org/1999/xlink" baseProfile="full" height="20.69000244140625" version="1.1" viewBox="407.0090026855469 210.98500061035156 30.644989013671875 20.69000244140625" width="30.644989013671875">
	<defs/>
	<path class="land" d="M 432.078,213.067 L 432.4,213.093 L 432.926,212.854 L 433.146,212.697 L 433.687,212.152 L 434.006,212.0 L 434.499,212.038 L 434.736,212.0 L 434.742,212.053 L 434.439,212.274 L 434.197,212.35 L 433.849,212.679 L 433.518,213.419 L 433.273,213.781 L 433.275,213.942 L 433.573,214.227 L 433.9,214.388 L 434.2,214.242 L 434.331,214.299 L 434.449,214.51 L 434.516,214.719 L 434.531,214.926 L 434.477,215.358 L 434.297,215.791 L 434.053,216.153 L 434.087,216.267 L 434.283,216.325 L 435.212,216.091 L 435.309,216.108 L 435.362,216.225 L 435.373,216.441 L 435.424,216.636 L 435.516,216.811 L 435.487,216.989 L 435.08,217.552 L 435.561,217.198 L 435.94,217.098 L 436.59,217.276 L 436.856,217.48 L 437.011,217.839 L 437.236,217.72 L 437.334,217.727 L 437.481,217.931 L 437.486,218.149 L 437.378,218.458 L 437.341,218.744 L 437.228,218.861 L 437.017,218.946 L 436.957,219.041 L 437.05,219.258 L 437.187,219.47 L 437.381,219.479 L 437.416,219.577 L 437.42,219.694 L 437.394,219.832 L 437.331,219.926 L 437.23,219.978 L 437.097,220.129 L 437.585,220.459 L 437.647,220.582 L 437.654,220.761 L 437.616,220.958 L 437.533,221.172 L 437.386,221.298 L 437.034,221.319 L 436.818,221.458 L 436.892,221.688 L 436.886,221.979 L 436.821,222.322 L 436.544,222.839 L 436.284,223.114 L 436.029,223.292 L 435.575,223.229 L 435.328,223.092 L 435.355,223.537 L 435.103,223.81 L 435.15,224.038 L 435.238,224.154 L 435.195,224.446 L 435.075,224.735 L 434.874,225.047 L 434.646,225.242 L 434.193,225.477 L 433.806,225.866 L 433.542,226.02 L 432.884,226.013 L 432.213,226.263 L 431.265,226.789 L 430.626,227.209 L 430.133,227.684 L 429.482,228.456 L 428.999,228.78 L 428.72,228.867 L 428.177,228.936 L 427.722,229.145 L 426.211,229.535 L 425.7,229.748 L 425.634,229.941 L 425.422,230.232 L 425.409,230.337 L 425.501,230.418 L 425.519,230.523 L 425.332,230.866 L 424.958,231.113 L 424.782,231.109 L 424.568,230.896 L 424.475,230.904 L 424.438,230.937 L 424.436,231.003 L 424.559,231.259 L 424.333,231.377 L 423.349,231.675 L 421.674,231.455 L 421.011,231.226 L 420.192,230.86 L 419.705,230.763 L 419.014,230.739 L 418.446,230.227 L 418.183,229.91 L 418.162,229.778 L 418.192,229.627 L 418.251,229.524 L 418.339,229.469 L 418.526,229.463 L 418.551,229.418 L 418.408,229.163 L 418.271,229.246 L 417.906,229.606 L 417.743,229.593 L 417.529,229.413 L 417.521,229.238 L 417.104,229.171 L 416.741,228.952 L 416.38,228.637 L 416.326,228.517 L 416.5,228.34 L 416.466,228.306 L 416.335,228.276 L 416.072,228.334 L 415.675,228.733 L 415.504,228.825 L 412.911,228.918 L 412.253,228.959 L 412.126,229.02 L 412.012,228.761 L 411.91,228.181 L 411.872,227.798 L 411.898,227.612 L 411.989,227.389 L 412.13,227.427 L 412.264,227.604 L 412.386,227.855 L 412.525,227.977 L 413.43,227.671 L 413.798,227.465 L 413.954,227.27 L 414.138,226.936 L 414.333,226.765 L 414.426,226.604 L 414.609,226.091 L 414.735,225.853 L 414.887,225.676 L 415.063,225.562 L 415.463,225.481 L 415.2,225.36 L 414.948,225.36 L 414.094,225.903 L 413.807,225.903 L 413.819,225.818 L 413.94,225.665 L 414.234,225.4 L 414.032,225.38 L 413.955,225.26 L 413.946,225.007 L 414.096,224.598 L 414.792,224.058 L 415.033,223.978 L 415.106,223.871 L 415.015,223.784 L 414.869,223.731 L 414.169,224.288 L 413.659,224.48 L 413.508,224.443 L 413.244,224.228 L 413.159,224.131 L 413.045,223.884 L 413.059,223.735 L 413.301,223.297 L 413.262,223.212 L 413.095,223.169 L 412.646,222.765 L 411.936,222.806 L 410.177,222.571 L 409.813,222.671 L 409.214,223.018 L 408.852,223.132 L 408.685,223.057 L 408.533,222.873 L 408.395,222.626 L 408.271,222.313 L 408.324,222.096 L 408.556,221.972 L 408.726,221.913 L 409.205,221.988 L 409.789,221.769 L 410.161,221.723 L 410.268,221.688 L 410.487,221.455 L 410.595,221.396 L 410.763,221.478 L 410.845,221.636 L 411.432,221.39 L 411.634,221.267 L 411.657,221.19 L 411.745,221.102 L 412.037,221.235 L 412.274,221.239 L 412.569,221.147 L 413.091,221.107 L 414.26,221.086 L 414.435,220.885 L 414.517,220.707 L 414.62,220.254 L 414.574,220.161 L 413.845,220.578 L 413.678,220.571 L 412.833,220.35 L 412.528,220.1 L 412.628,219.899 L 413.076,219.465 L 413.538,219.117 L 414.218,218.739 L 414.377,218.592 L 414.394,218.417 L 413.94,218.106 L 413.083,218.192 L 412.863,217.823 L 412.15,217.604 L 411.676,217.741 L 411.424,217.517 L 410.808,217.827 L 409.454,218.274 L 408.915,218.583 L 408.625,218.686 L 408.291,218.434 L 407.715,218.149 L 407.067,218.06 L 407.009,217.892 L 407.387,217.377 L 407.646,217.283 L 407.906,217.331 L 408.403,217.69 L 408.746,217.803 L 408.316,217.275 L 408.327,217.072 L 408.294,216.767 L 408.162,216.636 L 408.03,216.298 L 408.084,216.184 L 408.253,216.143 L 408.599,216.258 L 409.422,216.844 L 409.826,216.74 L 410.047,216.524 L 410.35,216.364 L 410.264,216.281 L 409.553,216.271 L 409.172,216.151 L 408.98,215.979 L 408.813,215.686 L 408.872,215.551 L 409.07,215.443 L 409.677,215.475 L 409.277,214.964 L 408.999,214.67 L 408.969,214.528 L 408.988,214.35 L 409.025,214.23 L 409.082,214.17 L 409.778,214.47 L 409.931,214.482 L 409.79,214.289 L 409.484,214.004 L 409.471,213.897 L 409.6,213.81 L 409.663,213.647 L 409.669,213.513 L 409.88,213.397 L 410.094,213.392 L 410.309,213.498 L 410.975,214.054 L 411.07,214.21 L 411.102,214.415 L 411.069,214.67 L 411.097,214.772 L 411.357,214.685 L 411.565,214.792 L 411.668,214.763 L 411.927,214.38 L 412.105,214.471 L 412.212,214.65 L 412.246,214.812 L 412.262,215.034 L 412.216,215.496 L 412.228,215.561 L 412.409,215.3 L 412.717,215.28 L 412.757,215.149 L 412.766,214.663 L 412.741,214.251 L 412.707,214.167 L 411.693,213.595 L 411.517,213.459 L 411.296,213.177 L 411.341,213.035 L 411.539,212.908 L 411.836,212.857 L 412.527,212.864 L 412.597,212.804 L 412.463,212.655 L 412.144,212.559 L 412.069,212.472 L 412.031,212.306 L 411.652,212.397 L 411.229,212.401 L 410.822,212.299 L 410.814,212.17 L 410.974,211.98 L 411.307,211.665 L 411.461,211.586 L 411.926,211.641 L 412.387,211.552 L 412.761,211.66 L 413.058,211.972 L 413.479,212.52 L 414.049,212.869 L 414.102,212.979 L 414.405,213.264 L 415.009,214.03 L 415.622,214.473 L 415.65,214.586 L 415.549,214.718 L 415.313,214.873 L 415.367,214.958 L 415.675,215.071 L 415.897,215.369 L 415.912,215.499 L 415.711,216.419 L 415.604,216.614 L 415.482,216.717 L 414.916,216.544 L 415.05,216.836 L 415.455,217.146 L 415.546,217.319 L 415.486,217.489 L 415.53,217.528 L 415.678,217.437 L 415.74,217.533 L 415.714,217.816 L 415.651,218.051 L 415.55,218.237 L 415.58,218.318 L 415.738,218.293 L 415.886,218.341 L 416.118,218.598 L 416.306,219.381 L 416.399,219.633 L 416.467,219.409 L 416.551,218.838 L 416.63,218.546 L 416.705,218.533 L 416.769,218.437 L 416.823,218.257 L 416.933,217.621 L 417.313,217.138 L 417.494,216.989 L 417.665,216.957 L 417.747,217.017 L 418.032,217.524 L 418.205,217.609 L 418.293,217.582 L 418.415,217.237 L 418.569,216.575 L 418.604,215.833 L 418.521,215.01 L 418.569,214.42 L 418.75,214.067 L 418.987,213.958 L 419.282,214.094 L 419.497,214.31 L 419.921,215.13 L 420.264,215.559 L 420.558,216.017 L 420.71,216.166 L 421.002,216.241 L 421.08,216.211 L 421.132,216.106 L 421.159,215.924 L 421.096,214.753 L 421.178,214.388 L 421.302,214.127 L 421.828,213.974 L 422.115,213.81 L 422.394,213.541 L 422.625,213.396 L 422.809,213.377 L 423.0,213.482 L 423.201,213.711 L 423.513,214.157 L 423.906,214.894 L 424.406,215.442 L 424.667,216.31 L 424.723,216.456 L 424.785,216.473 L 424.851,216.36 L 424.893,216.201 L 424.905,215.815 L 424.765,215.303 L 424.298,214.006 L 424.29,213.759 L 424.349,213.561 L 424.678,213.539 L 425.444,213.659 L 425.688,213.861 L 426.209,214.655 L 426.355,214.847 L 426.444,214.895 L 426.477,214.799 L 426.679,214.652 L 426.818,214.474 L 427.051,214.036 L 427.56,213.246 L 427.666,213.223 L 427.814,213.285 L 428.075,213.492 L 428.199,213.658 L 428.444,213.784 L 428.695,213.74 L 429.042,213.463 L 429.435,213.293 L 429.569,212.9 L 429.594,212.72 L 429.278,211.543 L 429.411,211.301 L 430.096,211.008 L 430.695,210.985 L 430.837,211.066 L 431.214,211.641 L 431.47,211.929 L 431.599,212.16 L 431.63,212.669 L 431.785,212.856 L 432.078,213.067" id="IS" title="Iceland"/>
</svg>
