<svg xmlns="http://www.w3.org/2000/svg" xmlns:ev="http://www.w3.org/2001/xml-events" xmlns:xlink="http://www.w3.org/1999/xlink" baseProfile="full" height="39.1619873046875" version="1.1" viewBox="494.3030090332031 313.3280029296875 33.278961181640625 39.1619873046875" width="33.278961181640625">
	<defs/>
	<path class="land" d="M 514.148,315.611 L 514.091,315.844 L 513.972,315.902 L 513.764,316.038 L 513.526,316.224 L 513.304,316.433 L 513.244,316.65999999999997 L 513.3050000000001,316.808 L 513.365,316.859 L 513.446,316.81399999999996 L 513.5640000000001,316.842 L 513.7120000000001,316.923 L 513.9590000000001,317.002 L 513.966,317.08 L 513.914,317.18 L 513.722,317.357 L 513.549,317.557 L 513.5319999999999,317.67900000000003 L 513.5529999999999,317.76800000000003 L 513.6129999999998,317.822 L 513.8689999999998,317.798 L 513.9069999999998,317.871 L 513.7819999999998,318.38399999999996 L 513.8209999999998,318.47099999999995 L 514.0459999999998,318.55299999999994 L 514.2099999999998,318.67599999999993 L 514.5169999999998,318.99999999999994 L 514.6389999999998,319.26199999999994 L 514.5549999999998,319.34999999999997 L 514.3619999999999,319.393 L 514.2049999999998,319.371 L 514.3829999999998,319.21299999999997 L 513.9479999999999,318.63699999999994 L 513.7509999999999,318.6379999999999 L 513.4899999999999,318.88199999999995 L 512.7639999999999,318.63499999999993 L 512.6249999999999,318.73499999999996 L 512.5219999999999,318.92999999999995 L 512.27,319.17199999999997 L 511.91299999999995,319.27799999999996 L 511.51499999999993,319.544 L 511.09599999999995,319.73199999999997 L 510.77599999999995,319.87399999999997 L 510.5919999999999,319.849 L 510.8839999999999,319.542 L 510.7599999999999,319.536 L 510.3719999999999,319.753 L 510.1489999999999,319.936 L 510.0769999999999,320.24399999999997 L 510.0119999999999,320.74999999999994 L 510.1819999999999,320.88399999999996 L 510.4799999999999,321.54999999999995 L 510.8469999999999,321.83399999999995 L 510.7759999999999,322.10499999999996 L 510.6789999999999,322.31899999999996 L 510.45699999999994,322.50399999999996 L 510.2729999999999,322.36699999999996 L 510.1599999999999,322.36999999999995 L 510.07499999999993,322.80299999999994 L 510.2339999999999,323.95399999999995 L 510.4899999999999,324.7579999999999 L 510.7439999999999,325.10799999999995 L 511.3169999999999,325.65099999999995 L 511.9229999999999,325.93699999999995 L 513.0129999999999,326.84799999999996 L 513.6109999999999,327.13599999999997 L 513.7679999999999,327.292 L 514.1299999999999,327.991 L 514.4429999999999,328.796 L 514.7799999999999,330.054 L 515.0199999999999,330.671 L 515.5039999999999,331.367 L 516.5079999999999,332.35900000000004 L 517.4209999999999,333.08200000000005 L 518.271,333.5280000000001 L 518.934,333.60600000000005 L 520.5029999999999,333.50800000000004 L 520.776,333.55 L 521.0659999999999,333.67 L 521.1349999999999,333.97900000000004 L 521.0289999999999,334.18700000000007 L 520.6989999999998,334.4030000000001 L 520.3629999999998,334.70200000000006 L 520.3259999999998,335.10900000000004 L 520.6399999999998,335.39500000000004 L 522.1539999999998,336.15200000000004 L 523.7019999999998,336.783 L 524.1839999999997,337.10400000000004 L 524.7429999999997,337.60300000000007 L 526.0919999999998,338.2870000000001 L 526.3199999999997,338.6190000000001 L 527.1399999999998,339.3320000000001 L 527.5109999999997,339.8810000000001 L 527.5819999999998,340.3060000000001 L 527.4049999999997,340.7370000000001 L 527.3229999999998,341.0400000000001 L 527.1839999999997,341.33900000000006 L 526.8349999999997,341.22600000000006 L 526.4379999999996,340.91800000000006 L 525.8399999999997,339.66400000000004 L 524.7489999999997,339.53700000000003 L 524.5229999999997,339.444 L 524.1349999999996,339.228 L 524.1119999999996,339.08500000000004 L 524.0159999999996,338.90700000000004 L 523.9169999999996,338.84700000000004 L 523.4999999999995,338.807 L 523.2109999999996,339.011 L 522.8709999999995,339.494 L 522.4849999999996,340.187 L 522.0929999999995,341.2 L 522.0709999999995,341.608 L 522.2839999999994,342.003 L 522.9199999999994,342.223 L 523.4109999999994,342.574 L 523.7349999999993,342.94 L 523.7579999999994,343.82099999999997 L 523.9029999999993,344.32 L 523.6899999999994,344.603 L 523.2769999999994,344.53000000000003 L 522.7269999999994,344.71000000000004 L 522.3369999999994,345.03200000000004 L 522.1749999999994,345.338 L 522.2169999999994,346.13 L 522.1369999999994,346.431 L 521.3979999999993,346.99899999999997 L 521.0099999999993,347.57899999999995 L 520.9129999999993,347.81899999999996 L 520.7649999999993,348.09099999999995 L 519.8319999999993,348.10099999999994 L 519.6109999999993,347.76399999999995 L 519.6029999999993,347.263 L 519.7629999999992,346.95399999999995 L 520.1059999999992,346.80899999999997 L 520.3369999999992,346.16499999999996 L 520.2639999999992,345.69899999999996 L 520.3989999999992,345.49199999999996 L 520.5259999999992,345.34599999999995 L 520.7869999999991,345.25999999999993 L 521.1559999999992,345.17799999999994 L 521.1929999999992,344.5249999999999 L 520.9049999999992,344.2279999999999 L 520.8039999999992,343.8109999999999 L 520.6699999999992,343.03899999999993 L 520.1949999999991,342.04999999999995 L 519.9409999999991,341.16499999999996 L 519.7419999999992,340.727 L 519.4399999999991,340.498 L 518.8949999999992,340.501 L 518.6239999999992,340.436 L 517.6599999999992,339.818 L 517.5929999999992,339.724 L 517.5989999999991,339.55899999999997 L 517.7589999999991,339.30999999999995 L 517.6509999999992,338.97299999999996 L 517.5369999999991,338.65399999999994 L 517.3479999999992,338.38199999999995 L 517.1409999999992,338.23999999999995 L 516.7069999999992,338.32699999999994 L 516.5549999999992,338.39399999999995 L 516.2809999999992,338.3709999999999 L 516.0659999999991,338.4919999999999 L 515.9459999999991,338.4959999999999 L 516.2839999999991,338.01699999999994 L 516.1929999999991,337.90399999999994 L 515.8589999999991,337.70699999999994 L 515.4049999999992,337.67699999999996 L 515.2789999999992,337.65299999999996 L 515.2049999999992,337.77599999999995 L 515.1169999999993,337.70899999999995 L 515.1259999999993,337.49499999999995 L 514.5989999999993,336.53299999999996 L 514.2449999999992,336.14 L 514.0659999999992,336.07 L 513.7429999999993,336.153 L 513.2019999999992,335.981 L 512.8789999999992,335.943 L 512.7009999999992,335.98499999999996 L 512.4349999999993,336.10999999999996 L 512.3009999999992,336.02699999999993 L 512.2539999999992,335.8979999999999 L 511.76299999999924,335.4969999999999 L 511.14999999999924,335.2699999999999 L 509.95699999999925,333.9869999999999 L 509.59099999999927,333.5059999999999 L 508.8379999999993,332.9749999999999 L 508.3619999999993,332.1989999999999 L 507.9719999999993,331.9139999999999 L 507.4049999999993,331.6849999999999 L 507.2739999999993,331.7139999999999 L 507.1039999999993,331.7999999999999 L 506.9699999999993,331.8119999999999 L 506.8639999999993,331.7109999999999 L 506.9719999999993,331.6069999999999 L 507.0929999999993,331.5599999999999 L 507.04599999999925,331.2619999999999 L 506.39999999999924,330.4879999999999 L 506.02199999999925,330.2379999999999 L 505.9149999999992,330.0839999999999 L 505.8359999999992,329.8729999999999 L 505.7549999999992,329.73399999999987 L 505.5759999999992,329.6539999999999 L 505.4229999999992,329.6679999999999 L 505.2119999999992,329.6149999999999 L 505.2189999999992,329.2409999999999 L 505.26099999999917,328.9539999999999 L 505.2289999999992,328.70999999999987 L 505.0229999999992,328.0669999999999 L 504.6669999999992,327.5209999999999 L 504.4569999999992,326.2099999999999 L 504.2949999999992,325.83899999999994 L 503.9009999999992,325.55799999999994 L 503.0119999999992,325.24199999999996 L 501.77299999999923,324.39099999999996 L 501.5109999999992,324.376 L 500.7659999999992,324.044 L 500.30399999999923,323.98699999999997 L 499.7039999999992,324.28499999999997 L 498.9749999999992,325.10299999999995 L 498.3839999999992,325.94999999999993 L 498.16899999999924,326.1139999999999 L 497.40599999999927,326.40199999999993 L 496.7319999999993,326.53899999999993 L 496.7249999999993,326.3229999999999 L 496.7009999999993,326.1599999999999 L 496.81499999999926,325.98099999999994 L 497.00299999999925,325.7699999999999 L 497.17599999999925,325.5039999999999 L 497.24799999999925,325.3119999999999 L 497.21399999999926,325.1839999999999 L 497.1359999999993,324.9939999999999 L 497.0299999999993,324.9799999999999 L 496.3879999999993,325.13999999999993 L 496.2409999999993,325.09899999999993 L 495.7659999999993,324.8499999999999 L 495.25499999999926,324.5439999999999 L 495.06699999999927,324.3259999999999 L 494.99599999999924,324.1059999999999 L 495.04899999999924,323.9639999999999 L 495.00699999999927,323.8259999999999 L 494.90699999999924,323.63999999999993 L 494.9969999999992,323.4289999999999 L 495.1559999999992,323.16599999999994 L 495.2359999999992,322.98699999999997 L 495.3699999999992,322.941 L 495.43399999999923,322.832 L 495.3269999999992,322.396 L 495.2709999999992,322.326 L 495.17899999999923,322.27200000000005 L 495.03699999999924,322.2660000000001 L 494.78899999999925,322.1760000000001 L 494.61299999999926,322.0250000000001 L 494.57499999999925,321.8210000000001 L 494.48199999999923,321.62500000000006 L 494.32299999999924,321.44500000000005 L 494.30299999999926,321.24800000000005 L 494.48399999999924,321.14400000000006 L 494.73099999999926,321.14000000000004 L 494.90499999999923,321.17900000000003 L 495.2949999999992,320.862 L 495.4389999999992,320.834 L 495.56799999999924,320.766 L 495.67599999999925,320.332 L 495.7589999999993,320.202 L 495.77899999999926,320.126 L 495.70199999999926,320.03499999999997 L 495.38699999999926,319.729 L 495.24299999999926,319.409 L 495.0159999999993,319.05 L 494.80499999999927,318.891 L 494.76199999999926,318.767 L 494.75699999999927,318.61 L 494.7999999999993,318.471 L 495.1819999999993,318.255 L 495.4079999999993,318.025 L 495.50499999999926,318.113 L 495.7109999999993,318.207 L 496.2699999999993,318.079 L 496.6169999999993,317.95 L 496.8609999999993,317.81399999999996 L 497.0119999999993,317.83799999999997 L 497.5599999999993,318.04099999999994 L 497.7409999999993,317.93799999999993 L 498.1359999999993,317.66299999999995 L 498.1949999999993,317.518 L 498.5069999999993,317.078 L 498.5129999999993,316.97099999999995 L 498.3849999999993,316.69399999999996 L 498.42499999999933,316.633 L 498.80699999999933,316.349 L 498.99399999999935,316.097 L 499.1969999999993,315.928 L 499.34299999999934,315.924 L 499.38299999999936,315.98199999999997 L 499.39999999999935,316.09999999999997 L 499.3869999999994,316.58599999999996 L 499.44299999999936,316.73499999999996 L 499.74299999999937,317.08299999999997 L 499.95699999999937,317.28099999999995 L 500.4539999999994,317.417 L 500.4769999999994,317.48199999999997 L 500.3399999999994,317.743 L 500.6409999999994,318.055 L 500.69499999999937,318.283 L 500.8339999999994,318.411 L 501.0299999999994,318.348 L 501.0939999999994,318.22700000000003 L 501.0169999999994,318.016 L 500.9599999999994,317.795 L 500.97099999999944,317.66700000000003 L 501.0249999999994,317.52000000000004 L 501.1619999999994,317.314 L 501.5339999999994,316.84200000000004 L 501.66799999999944,316.569 L 501.69199999999944,316.146 L 501.6929999999994,315.80600000000004 L 501.81699999999944,315.723 L 502.08399999999943,315.784 L 502.1639999999994,315.777 L 502.1999999999994,315.986 L 502.3139999999994,316.319 L 502.4479999999994,316.49100000000004 L 502.5909999999994,316.53200000000004 L 502.7589999999994,316.533 L 503.1749999999994,316.33000000000004 L 503.4459999999994,316.242 L 503.5999999999994,316.266 L 503.6909999999994,316.404 L 503.8849999999994,316.767 L 503.9959999999994,316.808 L 504.1299999999994,316.766 L 504.17699999999945,316.704 L 504.13399999999945,316.564 L 504.07699999999943,316.261 L 503.99899999999946,316.026 L 503.8969999999995,315.916 L 503.87599999999946,315.773 L 503.9399999999995,315.51500000000004 L 504.01299999999947,315.29900000000004 L 504.15499999999946,315.24 L 504.3179999999995,315.213 L 504.53299999999945,315.442 L 504.78799999999944,315.514 L 504.97799999999944,315.502 L 505.01099999999946,315.369 L 504.99899999999946,315.223 L 504.88599999999946,315.035 L 504.90799999999945,314.75 L 505.0389999999994,314.218 L 505.1139999999994,314.259 L 505.3959999999994,314.264 L 505.7029999999994,314.294 L 505.9009999999994,314.51099999999997 L 506.0949999999994,314.585 L 506.3709999999994,314.608 L 506.5559999999994,314.57800000000003 L 506.6459999999994,314.49600000000004 L 506.7529999999994,314.242 L 506.9509999999994,313.927 L 507.2609999999994,313.76500000000004 L 507.79099999999937,313.73500000000007 L 508.05599999999936,313.67600000000004 L 508.33099999999934,313.67900000000003 L 508.53799999999933,313.728 L 508.7519999999993,313.72200000000004 L 509.2959999999993,313.502 L 509.8569999999993,313.32800000000003 L 509.93499999999926,313.357 L 509.94699999999926,313.415 L 509.84599999999926,313.54900000000004 L 509.74799999999925,313.72700000000003 L 509.8139999999992,313.93 L 510.13299999999924,314.337 L 510.3069999999992,314.64799999999997 L 510.4709999999992,314.881 L 510.7259999999992,315.00399999999996 L 511.0609999999992,315.07899999999995 L 511.3449999999992,315.10599999999994 L 511.6419999999992,315.19399999999996 L 512.6609999999991,315.41099999999994 L 513.1739999999992,315.47099999999995 L 513.5629999999992,315.47999999999996 L 514.148,315.611 M 510.739,326.012 L 510.822,325.812 L 510.791,325.66900000000004 L 510.615,325.69800000000004 L 510.491,325.884 L 510.574,326.041 L 510.739,326.012 M 510.61,333.66 L 510.608,333.63000000000005 L 510.587,333.63300000000004 L 510.578,333.651 L 510.587,333.663 L 510.61,333.66 M 504.874,330.026 L 504.96700000000004,330.17400000000004 L 504.97800000000007,330.26000000000005 L 504.9150000000001,330.35800000000006 L 504.9410000000001,330.5780000000001 L 504.7060000000001,330.3950000000001 L 504.35100000000006,330.4870000000001 L 504.13300000000004,330.4670000000001 L 504.07300000000004,330.3030000000001 L 504.12300000000005,330.2070000000001 L 504.46100000000007,330.1860000000001 L 504.5660000000001,330.13900000000007 L 504.7720000000001,330.16100000000006 L 504.874,330.026 M 502.731,337.447 L 502.872,337.683 L 503.187,338.649 L 503.217,338.857 L 503.154,339.07000000000005 L 503.074,339.22100000000006 L 502.761,339.70500000000004 L 502.807,340.10400000000004 L 502.923,340.35100000000006 L 502.94,340.6240000000001 L 502.882,340.9620000000001 L 502.688,343.0310000000001 L 502.594,343.39600000000013 L 502.53499999999997,343.7110000000001 L 502.32099999999997,343.80700000000013 L 502.04499999999996,343.70600000000013 L 501.69699999999995,343.52800000000013 L 501.53599999999994,343.53900000000016 L 501.37399999999997,343.60000000000014 L 501.241,343.5480000000001 L 501.114,343.4470000000001 L 501.01899999999995,344.15300000000013 L 500.86199999999997,344.43900000000014 L 500.623,344.6220000000001 L 500.39799999999997,344.63300000000015 L 500.16599999999994,344.5720000000002 L 499.9699999999999,344.5720000000002 L 499.8209999999999,344.4370000000002 L 499.7029999999999,344.1990000000002 L 499.51499999999993,343.9100000000002 L 499.32399999999996,343.5670000000002 L 499.30299999999994,343.2560000000002 L 499.2699999999999,342.5690000000002 L 499.32499999999993,342.4190000000002 L 499.4049999999999,342.2750000000002 L 499.4439999999999,341.9670000000002 L 499.4169999999999,341.6980000000002 L 499.4729999999999,341.6020000000002 L 499.5839999999999,341.6980000000002 L 499.6669999999999,341.6620000000002 L 499.6619999999999,341.5230000000002 L 499.6869999999999,341.2700000000002 L 499.5409999999999,341.0580000000002 L 499.29399999999987,340.9860000000002 L 499.26999999999987,340.76400000000024 L 499.2959999999999,340.54700000000025 L 499.4259999999999,340.40100000000024 L 499.46999999999986,340.2070000000002 L 499.47099999999983,339.6140000000002 L 499.29699999999985,339.3950000000002 L 499.22999999999985,339.0630000000002 L 499.1399999999999,338.8510000000002 L 498.9779999999999,338.6370000000002 L 498.79399999999987,338.46300000000025 L 498.68099999999987,338.29500000000024 L 498.6559999999999,337.85500000000025 L 498.7199999999999,337.48700000000025 L 498.7779999999999,337.32900000000024 L 498.83699999999993,337.35200000000026 L 499.01899999999995,337.53500000000025 L 499.16799999999995,337.57600000000025 L 499.46299999999997,337.62000000000023 L 499.753,337.5610000000002 L 500.109,337.39400000000023 L 500.452,337.19200000000023 L 500.949,336.5970000000002 L 501.255,336.4760000000002 L 501.412,336.31900000000024 L 501.46599999999995,336.10700000000026 L 501.59599999999995,336.05200000000025 L 501.74899999999997,336.25800000000027 L 501.93899999999996,336.28000000000026 L 502.23199999999997,336.4500000000003 L 502.35799999999995,336.61200000000025 L 502.46599999999995,336.80700000000024 L 502.56999999999994,336.89300000000026 L 502.6809999999999,336.94200000000023 L 502.69699999999995,336.9880000000002 L 502.6089999999999,337.0340000000002 L 502.5079999999999,337.25700000000023 L 502.56499999999994,337.32100000000025 L 502.731,337.447 M 498.954,336.863 L 498.861,337.032 L 498.729,337.02 L 498.781,336.895 L 498.903,336.644 L 499.05100000000004,336.56 L 499.117,336.635 L 499.047,336.779 L 498.954,336.863 M 514.817,338.099 L 514.692,338.131 L 514.619,338.087 L 514.5790000000001,338.031 L 514.628,337.892 L 514.883,337.975 L 514.88,338.053 L 514.817,338.099 M 499.496,344.067 L 499.334,344.423 L 499.165,344.171 L 499.158,343.955 L 499.18100000000004,343.893 L 499.38900000000007,343.984 L 499.496,344.067 M 519.415,347.099 L 519.2249999999999,347.503 L 519.132,347.65799999999996 L 518.4549999999999,348.643 L 518.377,348.86999999999995 L 518.329,349.11699999999996 L 518.2589999999999,349.33299999999997 L 518.1649999999998,349.53599999999994 L 518.0759999999998,349.7939999999999 L 518.0929999999998,350.0859999999999 L 518.1249999999999,350.22899999999987 L 518.2069999999999,350.32299999999987 L 518.3409999999999,350.4109999999999 L 518.4439999999998,350.5469999999999 L 518.2859999999998,350.6699999999999 L 518.4589999999998,350.9169999999999 L 518.6069999999999,351.06299999999993 L 518.6269999999998,351.20899999999995 L 518.6239999999998,351.35499999999996 L 518.3169999999998,351.62899999999996 L 518.1969999999998,351.78 L 518.1229999999998,351.96299999999997 L 518.0909999999998,352.15099999999995 L 518.1239999999998,352.32099999999997 L 518.1139999999998,352.48999999999995 L 517.8049999999998,352.46899999999994 L 517.4889999999998,352.36499999999995 L 517.1699999999998,352.40999999999997 L 516.7159999999999,352.21399999999994 L 516.5509999999999,352.1789999999999 L 516.401,352.1019999999999 L 516.024,351.4939999999999 L 515.72,351.2369999999999 L 515.394,351.0359999999999 L 515.061,351.0239999999999 L 514.7280000000001,351.0469999999999 L 514.4340000000001,350.9229999999999 L 513.835,350.50799999999987 L 513.2,350.17499999999984 L 512.931,349.95899999999983 L 512.808,349.8129999999998 L 512.664,349.71599999999984 L 512.3009999999999,349.61999999999983 L 511.97399999999993,349.39399999999983 L 511.8259999999999,349.3779999999998 L 511.5069999999999,349.4049999999998 L 511.3429999999999,349.3889999999998 L 511.1779999999999,349.3089999999998 L 510.8599999999999,349.0439999999998 L 510.6559999999999,348.6759999999998 L 510.6029999999999,348.5129999999998 L 510.7469999999999,348.0919999999998 L 510.9179999999999,347.68699999999984 L 511.0689999999999,347.57399999999984 L 511.2449999999999,347.49199999999985 L 511.3509999999999,347.37199999999984 L 511.44099999999986,347.22499999999985 L 511.76799999999986,347.64899999999983 L 511.9139999999999,347.75199999999984 L 512.0619999999999,347.7289999999998 L 512.3239999999998,347.5769999999998 L 512.3459999999999,347.40999999999985 L 512.6359999999999,347.19899999999984 L 513.0039999999999,347.1949999999998 L 513.1739999999999,347.2339999999998 L 513.2629999999999,347.4249999999998 L 513.4029999999999,347.4839999999998 L 513.5649999999999,347.5089999999998 L 514.0989999999999,347.8719999999998 L 514.2489999999999,347.9309999999998 L 514.3999999999999,347.9409999999998 L 514.8149999999998,347.7889999999998 L 515.1329999999998,347.7309999999998 L 515.7999999999998,347.8149999999998 L 516.1599999999999,347.7239999999998 L 516.4119999999998,347.7129999999998 L 516.7789999999998,347.5729999999998 L 517.0609999999998,347.3399999999998 L 517.2079999999999,347.2819999999998 L 517.3659999999999,347.2649999999998 L 517.7479999999998,347.2799999999998 L 518.1319999999998,347.3329999999998 L 518.2929999999998,347.2779999999998 L 518.4279999999998,347.1249999999998 L 518.5839999999997,347.05599999999976 L 518.7549999999998,347.10199999999975 L 519.1979999999998,346.83999999999975 L 519.3939999999998,346.8219999999998 L 519.5799999999998,346.9229999999998 L 519.415,347.099 M 509.521,352.253 L 509.386,352.292 L 509.21000000000004,352.17199999999997 L 509.19800000000004,352.00399999999996 L 509.23,351.95399999999995 L 509.444,352.03099999999995 L 509.511,352.18699999999995 L 509.521,352.253" id="IT" title="Italy"/>
</svg>
