<svg xmlns="http://www.w3.org/2000/svg" xmlns:ev="http://www.w3.org/2001/xml-events" xmlns:xlink="http://www.w3.org/1999/xlink" baseProfile="full" height="2.3699951171875" version="1.1" viewBox="255.84100341796875 410.1000061035156 5.9739990234375 2.3699951171875" width="5.9739990234375">
	<defs/>
	<path class="land" d="M 258.866,410.291 L 259.208,410.396 L 259.562,410.451 L 259.714,410.454 L 259.857,410.488 L 260.18,410.741 L 260.44,410.879 L 261.425,411.188 L 261.753,411.721 L 261.815,411.888 L 261.561,411.986 L 261.24,412.021 L 260.934,412.026 L 260.651,411.925 L 260.528,411.847 L 260.233,411.809 L 260.307,411.737 L 260.176,411.704 L 260.012,411.711 L 259.891,411.916 L 259.757,412.078 L 259.499,412.062 L 259.4,411.924 L 259.265,411.986 L 259.155,412.088 L 259.025,412.47 L 258.814,412.28 L 258.585,412.122 L 258.298,412.056 L 257.718,412.045 L 257.444,411.994 L 257.216,411.671 L 257.126,411.579 L 256.897,411.495 L 256.669,411.124 L 256.587,411.073 L 255.968,410.994 L 255.841,410.791 L 255.879,410.607 L 256.085,410.382 L 256.186,410.318 L 256.528,410.328 L 256.855,410.26 L 256.999,410.164 L 257.149,410.1 L 258.333,410.263 L 258.606,410.264 L 258.866,410.291" id="JM" title="Jamaica"/>
</svg>
