<svg xmlns="http://www.w3.org/2000/svg" xmlns:ev="http://www.w3.org/2001/xml-events" xmlns:xlink="http://www.w3.org/1999/xlink" baseProfile="full" height="13.670013427734375" version="1.1" viewBox="573.7890014648438 363.80999755859375 12.18499755859375 13.670013427734375" width="12.18499755859375">
	<defs/>
	<path class="land" d="M 585.561,367.954 L 585.145,368.339 L 585.047,368.381 L 584.506,368.54 L 583.4,368.866 L 582.659,369.084 L 581.711,369.362 L 580.924,369.594 L 580.145,369.822 L 579.423,370.034 L 579.835,370.48 L 580.464,371.161 L 580.884,371.614 L 581.379,372.196 L 581.821,372.715 L 582.29,373.264 L 581.961,373.45 L 581.419,373.756 L 581.364,373.812 L 581.317,373.869 L 581.093,374.414 L 580.917,374.843 L 580.856,374.896 L 580.1,375.054 L 579.335,375.212 L 578.853,375.313 L 578.708,375.423 L 578.394,375.956 L 578.069,376.504 L 577.527,376.952 L 576.925,377.448 L 576.776,377.48 L 576.341,377.404 L 575.597,377.274 L 574.878,377.148 L 574.386,377.063 L 573.789,376.958 L 573.876,376.539 L 573.852,376.312 L 573.994,375.566 L 574.077,375.213 L 574.118,374.952 L 574.324,374.423 L 574.299,374.25 L 574.342,373.639 L 574.321,373.521 L 574.415,373.187 L 574.591,372.702 L 574.763,372.283 L 574.825,372.095 L 575.001,371.697 L 575.16,371.208 L 575.076,370.94 L 575.051,370.888 L 575.115,370.58 L 575.113,370.578 L 575.191,370.074 L 575.233,369.802 L 575.328,369.441 L 575.496,369.135 L 575.418,368.414 L 575.427,368.024 L 575.532,367.58 L 575.474,367.059 L 575.523,366.315 L 575.534,366.246 L 575.595,366.156 L 575.642,366.109 L 575.988,365.954 L 576.136,365.934 L 576.438,366.004 L 576.611,366.16 L 576.9,366.601 L 577.35,366.729 L 577.531,366.854 L 577.777,367.087 L 578.078,367.172 L 579.03,367.317 L 579.789,366.827 L 580.431,366.412 L 581.16,365.94 L 581.656,365.618 L 582.502,365.069 L 583.06,364.722 L 583.793,364.263 L 584.517,363.81 L 584.718,364.549 L 584.914,365.27 L 585.117,366.014 L 585.315,366.735 L 585.101,366.804 L 585.269,367.355 L 585.546,367.271 L 585.847,367.206 L 585.974,367.56 L 585.561,367.954" id="JO" title="Jordan"/>
</svg>
