<svg xmlns="http://www.w3.org/2000/svg" xmlns:ev="http://www.w3.org/2001/xml-events" xmlns:xlink="http://www.w3.org/1999/xlink" baseProfile="full" height="73.19400024414062" version="1.1" viewBox="822.8060302734375 319.6839904785156 62.1719970703125 73.19400024414062" width="62.1719970703125">
	<defs/>
	<path class="land" d="M 879.341,325.174 L 879.693,325.19399999999996 L 879.85,325.176 L 880.119,325.235 L 881.186,325.826 L 881.508,325.901 L 881.841,325.91 L 882.075,325.862 L 882.2810000000001,325.70000000000005 L 882.9250000000001,324.98300000000006 L 883.6030000000001,324.3280000000001 L 883.6780000000001,324.35300000000007 L 883.6780000000001,324.53400000000005 L 883.6280000000002,324.73500000000007 L 883.3280000000002,325.33400000000006 L 882.9950000000002,326.13800000000003 L 882.9240000000002,326.54400000000004 L 883.0320000000002,326.939 L 883.2410000000001,327.26500000000004 L 883.4060000000001,327.71000000000004 L 883.5960000000001,328.32700000000006 L 883.8640000000001,328.40500000000003 L 884.0100000000001,328.41400000000004 L 884.2780000000001,328.22900000000004 L 884.5310000000002,327.994 L 884.7490000000001,327.96500000000003 L 884.9780000000002,328.00500000000005 L 884.6770000000001,328.16900000000004 L 884.3930000000001,328.369 L 884.1490000000001,328.747 L 884.0580000000001,328.81800000000004 L 883.7770000000002,328.795 L 883.6160000000002,328.809 L 883.2870000000003,328.96700000000004 L 882.9980000000003,329.146 L 882.7220000000003,329.365 L 882.4210000000003,329.482 L 882.1000000000003,329.51000000000005 L 881.6050000000002,329.689 L 881.2840000000002,329.702 L 880.6810000000003,329.546 L 880.3880000000003,329.58799999999997 L 879.7490000000003,329.93999999999994 L 879.1670000000003,330.4479999999999 L 878.6580000000002,331.01699999999994 L 878.2330000000003,331.69899999999996 L 878.0620000000002,332.05299999999994 L 877.9590000000003,332.44899999999996 L 877.9450000000003,332.71099999999996 L 877.9070000000003,332.96199999999993 L 877.8090000000003,333.13699999999994 L 877.6910000000003,333.27899999999994 L 877.3400000000003,333.1959999999999 L 876.7640000000002,332.8339999999999 L 875.6470000000003,332.3069999999999 L 874.4670000000003,331.4979999999999 L 873.8030000000003,331.0909999999999 L 872.5550000000003,331.2129999999999 L 871.3740000000003,331.9889999999999 L 871.2690000000002,331.92299999999994 L 870.8180000000002,331.39099999999996 L 870.5990000000002,331.17999999999995 L 870.3380000000002,331.11999999999995 L 870.1440000000002,331.12699999999995 L 869.9560000000002,331.16599999999994 L 869.6890000000002,331.43999999999994 L 869.5910000000002,331.63699999999994 L 869.5150000000002,331.86099999999993 L 869.4920000000002,332.01899999999995 L 869.5240000000002,332.1739999999999 L 869.7770000000003,332.52399999999994 L 870.0890000000003,332.78399999999993 L 870.2300000000002,332.8329999999999 L 870.5290000000002,332.81499999999994 L 870.6680000000002,332.8419999999999 L 871.1690000000002,333.36299999999994 L 871.7180000000002,333.85099999999994 L 871.8390000000002,334.01199999999994 L 871.6360000000002,334.1809999999999 L 871.4140000000002,334.26499999999993 L 871.1550000000002,334.2439999999999 L 870.8990000000002,334.1799999999999 L 870.4610000000002,333.9729999999999 L 870.2730000000003,334.1489999999999 L 869.9810000000002,334.5099999999999 L 869.8200000000003,334.9019999999999 L 869.6890000000003,335.08099999999985 L 869.3670000000003,335.31699999999984 L 869.0260000000003,335.43899999999985 L 868.8470000000003,335.39899999999983 L 868.7110000000004,335.2509999999998 L 868.6340000000004,335.0739999999998 L 868.5950000000004,334.86799999999977 L 868.6670000000004,334.42199999999974 L 868.8440000000004,334.0189999999997 L 868.9120000000004,333.60699999999974 L 868.7670000000004,333.0259999999997 L 868.6750000000004,332.9039999999997 L 868.3130000000004,332.5629999999997 L 868.1450000000004,332.2299999999997 L 868.1050000000005,331.81499999999966 L 868.1260000000004,331.5859999999997 L 868.2140000000004,331.07899999999967 L 868.3020000000004,330.8229999999997 L 868.4680000000004,330.7389999999997 L 868.6500000000004,330.6879999999997 L 868.9290000000004,330.5039999999997 L 869.2360000000004,330.2659999999997 L 869.5300000000004,329.9939999999997 L 869.8210000000005,329.66099999999966 L 869.9720000000004,329.2949999999997 L 869.7230000000004,328.8449999999997 L 869.6710000000004,328.5769999999997 L 869.7080000000004,328.3239999999997 L 869.9740000000004,328.18899999999974 L 870.2470000000004,328.2909999999997 L 870.7980000000005,328.6629999999997 L 870.9050000000004,328.6999999999997 L 871.2830000000005,328.7169999999997 L 871.8010000000005,328.7979999999997 L 872.1010000000005,328.77799999999974 L 872.2460000000004,328.72199999999975 L 872.4640000000004,328.41499999999974 L 872.5710000000004,328.02299999999974 L 872.5320000000004,327.51799999999974 L 872.5300000000004,327.01599999999974 L 872.6680000000005,326.6059999999997 L 873.1000000000005,325.9449999999997 L 873.2240000000005,325.5549999999997 L 873.2690000000005,324.6029999999997 L 873.4250000000004,324.1829999999997 L 873.5500000000004,323.7459999999997 L 873.6100000000004,322.8279999999997 L 873.4330000000003,321.94199999999967 L 873.2550000000003,321.5059999999997 L 873.0510000000004,321.09099999999967 L 873.0810000000004,320.6939999999997 L 873.2460000000003,320.32499999999965 L 873.2500000000003,320.21399999999966 L 873.2890000000003,320.11499999999967 L 873.5980000000003,320.0449999999997 L 873.7430000000003,319.96599999999967 L 873.8820000000003,319.78799999999967 L 874.0470000000003,319.6839999999997 L 874.1680000000002,319.78799999999967 L 874.2680000000003,319.9699999999997 L 874.7040000000003,320.4169999999997 L 875.3910000000003,321.2129999999997 L 876.2000000000003,322.4219999999997 L 876.7070000000002,323.0089999999997 L 877.2410000000002,323.5399999999997 L 877.8400000000003,324.08199999999965 L 878.4670000000002,324.5469999999996 L 878.8670000000002,324.76699999999965 L 879.1600000000002,325.1169999999997 L 879.341,325.174 M 871.618,320.387 L 871.5100000000001,320.639 L 871.3640000000001,320.264 L 871.3350000000002,319.85900000000004 L 871.4190000000001,319.86100000000005 L 871.5730000000001,319.922 L 871.6100000000001,320.119 L 871.618,320.387 M 872.243,321.235 L 872.0490000000001,321.26300000000003 L 871.8220000000001,321.09700000000004 L 871.7940000000001,320.889 L 871.9580000000001,320.723 L 872.1210000000001,320.784 L 872.2840000000001,320.998 L 872.3380000000001,321.11 L 872.243,321.235 M 867.152,332.973 L 867.0880000000001,332.993 L 867.022,332.961 L 866.957,332.676 L 867.013,332.526 L 867.1940000000001,332.421 L 867.3700000000001,332.392 L 867.2210000000001,332.916 L 867.152,332.973 M 872.058,335.626 L 872.168,335.69599999999997 L 872.692,335.50699999999995 L 872.592,336.078 L 872.536,336.65299999999996 L 872.574,337.60499999999996 L 872.621,338.03299999999996 L 872.712,338.44699999999995 L 872.936,338.74299999999994 L 873.2280000000001,338.9529999999999 L 873.6510000000001,339.6219999999999 L 873.878,340.4419999999999 L 874.038,340.8389999999999 L 874.158,341.2549999999999 L 874.195,341.4449999999999 L 874.1980000000001,341.6349999999999 L 874.1620000000001,341.89499999999987 L 874.2020000000001,342.10499999999985 L 874.1560000000001,342.76299999999986 L 873.9670000000001,343.5219999999999 L 873.9430000000001,343.9089999999999 L 873.7780000000001,343.9859999999999 L 873.6780000000001,344.16499999999985 L 873.5930000000001,344.2479999999999 L 873.498,344.3119999999999 L 873.3610000000001,344.3279999999999 L 873.2620000000001,344.4009999999999 L 873.2230000000001,344.6059999999999 L 873.1600000000001,344.7949999999999 L 873.0400000000001,344.9699999999999 L 872.946,345.1619999999999 L 872.869,345.62999999999994 L 872.841,346.1089999999999 L 872.726,346.4429999999999 L 872.447,346.5299999999999 L 872.128,346.5249999999999 L 871.719,346.6789999999999 L 871.6310000000001,346.7699999999999 L 871.3080000000001,347.3519999999999 L 871.2150000000001,347.6929999999999 L 871.2120000000001,348.0589999999999 L 871.3020000000001,348.5089999999999 L 871.4240000000001,348.9479999999999 L 871.5160000000001,349.7629999999999 L 871.4190000000001,351.0009999999999 L 871.325,351.3959999999999 L 871.12,351.6629999999999 L 870.964,351.7869999999999 L 870.83,351.9389999999999 L 870.6560000000001,352.3399999999999 L 870.368,353.1379999999999 L 870.345,353.3379999999999 L 870.346,353.5449999999999 L 870.268,353.8149999999999 L 870.2180000000001,354.07999999999987 L 870.2650000000001,354.38799999999986 L 870.3540000000002,354.6759999999999 L 870.7400000000001,355.4129999999999 L 870.8910000000001,355.6309999999999 L 871.061,355.8289999999999 L 870.402,356.0479999999999 L 870.284,356.1489999999999 L 869.8919999999999,356.5669999999999 L 869.7669999999999,356.9629999999999 L 869.7769999999999,357.4009999999999 L 869.7119999999999,357.5579999999999 L 869.6049999999999,357.6939999999999 L 869.4929999999999,357.7839999999999 L 869.055,357.98399999999987 L 868.775,358.1829999999999 L 868.497,358.49399999999986 L 868.387,358.65599999999984 L 868.1719999999999,358.6039999999998 L 868.0459999999999,358.4599999999998 L 868.17,358.2799999999998 L 868.132,358.0669999999998 L 868.193,357.51999999999975 L 868.124,357.2999999999997 L 868.3480000000001,357.13299999999975 L 868.4540000000001,356.86699999999973 L 868.686,356.6539999999997 L 868.8530000000001,356.4649999999997 L 868.8820000000001,356.3109999999997 L 868.7330000000001,356.1449999999997 L 868.575,356.0249999999997 L 868.3570000000001,356.0249999999997 L 868.147,356.0599999999997 L 868.0100000000001,356.21799999999973 L 867.9650000000001,356.4329999999997 L 867.9760000000001,356.53299999999973 L 867.9580000000001,356.6199999999997 L 867.628,356.9139999999997 L 867.671,357.2209999999997 L 867.768,357.3769999999997 L 867.892,357.45099999999974 L 867.855,357.55599999999976 L 867.698,357.80299999999977 L 867.5889999999999,357.82699999999977 L 867.3879999999999,357.48099999999977 L 867.136,357.29199999999975 L 866.824,357.2929999999997 L 866.5039999999999,357.36199999999974 L 866.2609999999999,357.59199999999976 L 866.1809999999998,357.78299999999973 L 866.1289999999998,357.97999999999973 L 866.1469999999998,358.4589999999997 L 866.0459999999998,358.8589999999997 L 865.8479999999998,359.2099999999997 L 865.7559999999999,359.3379999999997 L 865.5149999999999,359.5759999999997 L 865.3479999999998,359.6069999999997 L 865.2299999999998,359.4989999999997 L 865.1339999999998,359.3349999999997 L 865.2559999999997,358.7349999999997 L 865.2509999999997,358.39699999999965 L 865.5329999999998,358.2249999999996 L 865.3019999999998,357.9849999999996 L 865.0179999999998,357.88799999999964 L 864.6189999999998,358.0159999999996 L 864.5059999999997,358.1609999999996 L 864.4289999999997,358.3549999999996 L 864.2139999999997,358.6009999999996 L 863.9779999999997,358.8299999999996 L 863.7089999999997,359.2219999999996 L 863.5289999999998,359.6849999999996 L 862.9389999999997,359.5339999999996 L 862.6179999999997,359.4999999999996 L 862.2929999999997,359.5119999999996 L 861.7169999999996,359.4549999999996 L 861.0849999999997,359.5499999999996 L 860.3649999999997,359.73199999999963 L 860.4079999999997,359.60099999999966 L 860.9999999999997,359.32199999999966 L 861.0209999999996,359.23999999999967 L 860.9639999999996,359.08699999999965 L 860.8169999999996,359.07999999999964 L 860.4629999999995,359.13299999999964 L 860.2819999999995,359.1099999999996 L 860.2089999999995,358.94599999999963 L 860.0889999999995,358.87599999999964 L 860.0089999999994,358.94299999999964 L 860.0349999999994,359.2609999999996 L 859.9479999999994,359.3029999999996 L 859.8309999999994,359.2209999999996 L 859.8679999999995,358.9729999999996 L 859.7889999999995,358.6099999999996 L 859.7789999999995,358.3839999999996 L 859.9029999999996,358.1899999999996 L 859.7759999999996,358.1079999999996 L 859.6419999999996,358.1389999999996 L 859.4719999999996,358.23199999999963 L 859.3219999999997,358.36399999999963 L 859.0049999999997,359.02699999999965 L 858.8819999999996,359.40499999999963 L 859.1139999999996,359.70799999999963 L 859.7479999999996,360.13099999999963 L 859.8559999999995,360.2349999999996 L 859.8579999999995,360.4149999999996 L 859.7809999999995,360.6059999999996 L 859.6089999999995,360.6889999999996 L 858.9139999999994,360.82999999999964 L 858.3109999999995,361.10299999999967 L 858.1369999999995,361.3789999999997 L 857.5889999999995,362.44499999999965 L 857.1499999999995,363.1719999999996 L 856.5299999999995,363.4219999999996 L 855.8499999999996,363.1989999999996 L 855.6849999999996,362.94599999999963 L 855.5519999999996,362.63299999999964 L 855.2989999999995,362.3499999999996 L 855.0699999999995,362.0409999999996 L 854.9369999999994,361.6739999999996 L 854.9579999999994,361.0819999999996 L 854.8589999999994,360.72499999999957 L 854.9479999999994,360.62999999999954 L 855.3229999999994,360.4119999999995 L 855.4459999999995,360.2899999999995 L 855.6579999999994,360.0059999999995 L 855.7339999999995,359.8479999999995 L 855.7449999999994,359.6089999999995 L 855.5749999999995,359.4839999999995 L 855.1349999999994,359.48799999999954 L 854.6959999999995,359.56299999999953 L 854.3829999999995,359.45899999999955 L 853.9759999999994,359.1689999999995 L 853.8499999999995,359.1069999999995 L 853.4119999999995,359.08899999999954 L 853.0989999999995,359.1429999999995 L 852.7919999999995,359.24799999999954 L 852.4669999999994,359.2819999999995 L 852.3589999999995,359.33699999999953 L 851.9839999999995,359.69199999999955 L 851.6849999999995,359.91499999999957 L 851.4269999999995,360.02599999999956 L 850.8699999999994,360.05499999999955 L 850.5909999999994,360.12699999999955 L 850.2989999999994,360.2439999999996 L 850.2169999999994,360.2339999999996 L 849.9089999999994,360.39599999999956 L 849.5549999999994,360.53599999999955 L 849.3669999999994,360.67599999999953 L 849.0199999999994,360.58399999999955 L 848.3339999999994,360.8349999999995 L 848.0019999999994,360.86599999999953 L 847.6599999999994,360.7269999999995 L 847.3419999999994,360.5019999999995 L 847.0369999999995,360.5989999999995 L 846.8279999999995,360.9299999999995 L 846.7259999999995,361.5879999999995 L 846.6069999999995,361.8839999999995 L 846.5709999999996,362.2389999999995 L 846.4129999999996,362.18299999999954 L 845.4949999999995,361.5439999999995 L 845.4319999999996,361.5209999999995 L 844.6899999999996,361.6309999999995 L 844.4989999999996,361.6839999999995 L 844.2599999999995,361.81299999999953 L 844.0069999999995,361.8709999999995 L 843.7769999999995,361.7779999999995 L 843.5559999999995,361.6269999999995 L 843.3439999999995,361.6719999999995 L 843.1269999999995,361.7779999999995 L 843.0429999999996,360.8119999999995 L 843.0859999999996,360.6849999999995 L 843.2189999999996,360.5159999999995 L 843.3659999999996,360.3709999999995 L 843.7249999999997,360.3209999999995 L 844.0879999999997,360.36799999999954 L 844.3479999999997,360.30199999999957 L 844.5679999999998,360.10999999999956 L 844.7989999999998,359.83799999999957 L 845.0599999999997,359.6159999999996 L 845.4139999999998,359.4409999999996 L 845.7559999999997,359.23999999999955 L 846.0569999999998,358.9579999999996 L 846.3419999999998,358.64899999999955 L 846.6039999999997,358.42199999999957 L 846.8889999999997,358.2319999999996 L 847.3229999999996,357.77399999999955 L 847.8979999999997,357.25899999999956 L 848.1189999999997,356.87699999999955 L 848.2559999999996,356.77199999999954 L 848.7509999999996,356.5589999999995 L 849.4079999999997,356.3949999999995 L 849.7179999999996,356.4029999999995 L 850.0239999999997,356.7379999999995 L 850.1889999999996,356.6919999999995 L 850.3569999999996,356.6049999999995 L 850.6949999999996,356.5569999999995 L 851.0429999999996,356.6129999999995 L 851.3829999999996,356.61399999999946 L 851.7229999999996,356.5719999999995 L 852.3749999999997,356.4619999999995 L 852.7189999999997,356.3289999999995 L 853.0549999999997,356.15699999999947 L 854.2509999999997,356.0359999999995 L 855.0699999999997,355.7469999999995 L 855.1999999999997,355.7679999999995 L 855.3259999999997,355.8339999999995 L 855.3359999999997,356.0479999999995 L 855.2319999999996,356.2809999999995 L 855.3329999999996,356.4219999999995 L 855.4989999999997,356.5089999999995 L 856.2699999999996,356.5359999999995 L 856.4899999999997,356.5859999999995 L 856.8119999999997,356.4269999999995 L 857.1159999999996,356.2299999999995 L 857.4329999999997,355.9699999999995 L 857.6549999999996,355.6769999999995 L 857.4499999999996,355.3099999999995 L 857.4049999999996,354.9079999999995 L 857.5769999999997,354.4709999999995 L 857.8259999999997,354.1029999999995 L 858.1219999999997,353.8799999999995 L 858.3949999999998,353.6229999999995 L 858.9469999999998,352.89299999999946 L 859.3459999999998,352.3009999999995 L 859.4899999999998,351.57099999999946 L 859.4059999999998,350.7049999999995 L 859.7549999999999,350.05899999999946 L 860.0889999999998,349.94799999999947 L 860.7519999999998,349.65299999999945 L 861.0999999999998,349.56699999999944 L 861.1519999999998,349.69599999999946 L 861.1419999999998,349.86499999999944 L 860.6209999999999,350.4069999999994 L 860.3219999999999,350.6299999999994 L 860.1439999999999,350.69899999999944 L 859.9799999999999,350.79699999999946 L 859.9129999999999,350.98799999999943 L 860.1789999999999,351.3059999999994 L 860.2459999999999,351.5409999999994 L 860.2289999999998,351.76599999999945 L 860.2409999999998,351.9689999999994 L 860.5409999999997,352.18899999999945 L 860.8859999999997,352.26199999999943 L 861.0299999999997,352.2599999999994 L 861.1559999999997,352.20199999999943 L 861.5499999999997,351.66299999999944 L 861.6379999999997,351.56899999999945 L 862.7579999999997,351.17299999999943 L 863.3089999999997,350.86999999999944 L 863.6139999999997,350.7909999999994 L 863.8999999999996,350.6329999999994 L 864.5419999999997,350.0229999999994 L 864.7779999999997,349.7409999999994 L 864.9929999999997,349.4289999999994 L 865.1649999999997,349.0659999999994 L 865.3009999999997,348.67299999999943 L 865.4869999999997,348.42799999999943 L 866.5039999999998,347.84299999999945 L 866.8309999999998,347.52399999999943 L 866.9349999999998,347.36899999999946 L 867.0609999999998,346.91999999999945 L 867.1479999999998,346.45299999999946 L 867.2709999999998,346.08599999999944 L 867.4379999999999,345.74199999999945 L 867.6609999999998,345.39099999999945 L 867.9119999999998,345.06399999999945 L 868.0599999999998,344.7289999999995 L 868.2759999999998,343.9259999999995 L 868.3699999999999,343.47999999999945 L 868.4439999999998,343.31899999999945 L 868.5519999999998,343.18399999999946 L 868.6459999999998,343.01199999999943 L 868.7179999999998,342.8199999999994 L 868.7509999999999,342.6299999999994 L 868.7969999999999,342.04799999999943 L 868.7689999999999,341.5939999999994 L 868.6009999999999,341.20899999999943 L 868.4619999999999,341.09999999999945 L 868.3109999999999,341.0939999999995 L 868.083,341.1269999999995 L 867.89,340.9699999999995 L 867.93,340.8309999999995 L 868.127,340.8049999999995 L 868.261,340.7329999999995 L 868.358,340.6019999999995 L 868.539,340.18099999999953 L 868.6469999999999,339.72899999999953 L 868.6569999999999,339.52899999999954 L 868.5149999999999,339.16399999999953 L 868.4029999999999,338.7249999999995 L 868.3999999999999,338.4879999999995 L 868.5229999999999,338.2139999999995 L 868.699,337.9909999999995 L 868.856,337.93899999999945 L 869.026,337.92299999999943 L 869.1809999999999,337.8369999999994 L 869.3249999999999,337.7119999999994 L 869.406,337.57399999999944 L 869.5319999999999,337.19799999999947 L 869.5809999999999,336.98399999999947 L 869.5009999999999,336.40799999999945 L 869.5829999999999,336.24999999999943 L 869.6989999999998,336.1519999999994 L 869.8539999999998,336.22599999999943 L 870.0139999999998,336.2409999999994 L 870.1999999999998,336.2179999999994 L 870.3779999999998,336.27899999999937 L 870.4109999999998,336.4269999999994 L 870.5229999999998,337.3989999999994 L 870.5869999999998,337.52999999999935 L 870.7169999999998,337.6319999999993 L 870.8629999999997,337.61699999999934 L 870.9889999999997,337.4659999999993 L 871.0739999999997,337.2649999999993 L 871.2419999999997,337.22299999999933 L 871.7549999999998,337.43899999999934 L 871.9369999999998,337.28499999999934 L 872.0549999999998,337.04599999999937 L 872.1579999999998,336.62299999999937 L 872.1079999999998,336.24099999999936 L 871.9849999999998,336.09899999999936 L 871.8579999999998,336.12399999999934 L 871.7459999999999,336.22899999999936 L 871.6199999999999,336.2859999999994 L 870.8629999999999,336.4869999999994 L 870.867,336.0609999999994 L 871.029,335.4209999999994 L 871.118,335.21799999999945 L 871.2460000000001,335.12199999999945 L 871.5640000000001,335.23399999999947 L 871.719,335.3079999999995 L 872.058,335.626 M 863.96,348.511 L 863.693,348.52000000000004 L 863.627,348.485 L 863.7879999999999,348.397 L 863.8029999999999,348.25 L 863.8999999999999,347.988 L 863.8979999999999,347.913 L 863.6859999999999,347.899 L 863.6969999999999,347.602 L 863.8549999999999,347.308 L 864.2899999999998,346.84499999999997 L 864.4089999999999,346.758 L 864.4269999999999,346.96099999999996 L 864.295,347.43999999999994 L 864.269,347.61299999999994 L 864.611,347.64899999999994 L 864.391,348.2219999999999 L 863.96,348.511 M 850.002,354.175 L 849.8739999999999,354.30400000000003 L 849.6339999999999,354.26200000000006 L 849.4949999999999,354.07500000000005 L 849.5409999999999,353.86400000000003 L 849.7919999999999,353.70200000000006 L 850.0319999999999,354.02700000000004 L 850.002,354.175 M 867.082,359.244 L 867.052,359.40400000000005 L 866.903,359.369 L 866.832,359.26500000000004 L 866.841,359.07800000000003 L 866.998,359.07700000000006 L 867.082,359.244 M 838.818,360.508 L 838.761,360.671 L 838.5709999999999,360.556 L 838.4839999999999,360.452 L 838.661,359.939 L 838.64,359.744 L 838.651,359.649 L 839.002,359.38 L 839.063,359.431 L 839.084,359.506 L 839.053,359.621 L 839.071,359.875 L 838.807,360.295 L 838.818,360.508 M 854.387,360.729 L 854.083,361.017 L 853.819,360.997 L 853.687,360.868 L 853.643,360.709 L 853.894,360.459 L 854.11,360.105 L 854.306,359.94800000000004 L 854.464,359.86 L 854.5880000000001,359.863 L 854.3100000000001,360.357 L 854.387,360.729 M 852.756,360.068 L 852.704,360.135 L 852.654,360.117 L 852.475,360.272 L 852.437,360.123 L 852.296,360.024 L 852.279,359.946 L 852.682,359.89500000000004 L 852.812,359.93600000000004 L 852.756,360.068 M 852.771,360.837 L 853.16,360.978 L 853.557,360.938 L 853.551,361.555 L 853.6080000000001,361.762 L 853.719,361.947 L 853.662,362.216 L 853.842,362.308 L 853.308,362.614 L 852.827,363.02 L 852.629,363.293 L 852.45,363.586 L 852.346,363.896 L 852.279,364.22900000000004 L 852.118,364.09700000000004 L 851.654,363.55600000000004 L 851.36,363.408 L 850.8870000000001,363.329 L 850.7370000000001,363.347 L 849.7650000000001,363.852 L 849.6360000000001,364.221 L 849.3710000000001,364.776 L 849.2450000000001,364.959 L 849.1050000000001,365.012 L 849.0060000000001,365.107 L 848.8980000000001,365.579 L 848.5970000000001,365.869 L 848.4120000000001,365.87800000000004 L 848.0980000000002,365.79800000000006 L 847.9560000000001,365.8430000000001 L 848.1440000000001,365.3780000000001 L 847.8440000000002,365.3210000000001 L 847.5430000000001,365.3310000000001 L 847.5360000000002,365.0280000000001 L 847.3540000000002,364.85600000000005 L 847.4890000000001,364.63200000000006 L 847.4930000000002,364.44900000000007 L 847.5720000000001,364.34800000000007 L 847.5990000000002,364.2010000000001 L 847.5880000000002,364.0750000000001 L 847.4030000000002,364.0370000000001 L 847.2900000000002,363.9480000000001 L 847.3110000000001,363.6160000000001 L 847.2050000000002,363.6040000000001 L 846.9410000000001,363.6620000000001 L 846.3930000000001,363.91800000000006 L 846.2440000000001,363.91800000000006 L 846.4730000000002,363.73500000000007 L 846.9600000000002,363.48500000000007 L 847.1790000000002,363.34100000000007 L 847.6570000000002,362.93700000000007 L 847.9580000000002,362.7460000000001 L 848.1140000000001,362.4070000000001 L 848.1630000000001,362.2010000000001 L 848.2650000000001,362.01900000000006 L 848.3550000000001,361.72800000000007 L 848.5090000000001,361.6310000000001 L 848.7780000000001,361.3810000000001 L 848.9320000000001,361.4050000000001 L 849.1040000000002,361.7120000000001 L 849.3350000000002,361.9470000000001 L 849.5010000000002,361.92700000000013 L 849.7980000000002,361.80600000000015 L 849.9420000000002,361.77900000000017 L 850.2850000000002,361.79400000000015 L 850.5940000000002,361.64500000000015 L 850.7200000000001,361.46900000000016 L 850.7670000000002,361.24900000000014 L 850.6520000000002,360.8800000000001 L 850.8000000000002,360.9170000000001 L 850.9430000000002,360.9020000000001 L 851.2780000000002,360.6670000000001 L 851.6230000000003,360.5270000000001 L 851.9800000000002,360.4920000000001 L 852.3820000000003,360.62500000000006 L 852.771,360.837 M 838.521,361.286 L 838.338,361.423 L 838.26,361.214 L 838.34,360.62 L 838.683,360.742 L 838.677,360.92400000000004 L 838.521,361.286 M 847.779,361.314 L 847.698,361.449 L 847.449,361.408 L 847.549,361.291 L 847.625,361.149 L 847.681,361.12 L 847.7280000000001,361.274 L 847.779,361.314 M 846.902,361.887 L 847.039,362.011 L 847.364,361.961 L 847.404,361.99600000000004 L 847.309,362.10800000000006 L 847.165,362.21900000000005 L 846.905,362.136 L 846.741,362.132 L 846.718,361.947 L 846.7389999999999,361.88 L 846.902,361.887 M 843.84,363.038 L 844.217,363.13800000000003 L 844.377,363.144 L 844.524,363.099 L 844.75,362.968 L 844.985,362.87100000000004 L 845.154,362.92 L 845.303,363.03700000000003 L 845.381,363.20200000000006 L 845.343,363.3740000000001 L 845.0759999999999,363.7440000000001 L 844.8559999999999,364.1380000000001 L 845.3599999999999,364.2120000000001 L 845.8639999999999,364.2040000000001 L 845.747,364.4470000000001 L 845.727,364.6590000000001 L 845.881,364.7600000000001 L 846.012,364.89600000000013 L 845.978,365.0190000000001 L 845.9029999999999,365.1400000000001 L 846.1779999999999,365.3220000000001 L 846.1599999999999,365.44400000000013 L 846.0889999999998,365.5720000000001 L 845.4019999999998,366.4060000000001 L 845.1999999999998,366.8270000000001 L 845.0599999999998,367.29000000000013 L 844.9309999999998,367.62800000000016 L 844.8369999999998,367.97900000000016 L 844.7659999999997,368.35700000000014 L 844.6379999999997,368.7470000000001 L 844.6809999999997,369.09200000000016 L 844.6379999999997,369.44600000000014 L 844.2929999999997,370.31800000000015 L 844.0469999999997,370.30200000000013 L 843.7379999999997,370.1970000000001 L 843.5449999999997,370.21300000000014 L 843.4449999999997,370.4060000000001 L 843.6219999999997,370.8030000000001 L 843.0719999999998,371.2740000000001 L 842.4639999999998,371.5900000000001 L 842.4599999999998,371.4460000000001 L 842.5179999999998,371.3330000000001 L 842.6049999999998,371.2420000000001 L 842.6679999999998,371.13200000000006 L 842.7569999999998,370.76200000000006 L 842.7129999999999,370.38900000000007 L 842.5289999999999,369.92100000000005 L 842.5159999999998,369.75300000000004 L 842.6429999999998,369.68500000000006 L 842.7279999999998,369.6650000000001 L 842.7739999999999,369.6000000000001 L 842.7759999999998,369.4450000000001 L 842.7179999999998,369.3300000000001 L 842.5439999999999,369.2930000000001 L 842.3779999999998,369.2910000000001 L 842.2609999999999,369.4650000000001 L 842.0999999999999,369.80000000000007 L 842.0219999999999,370.13900000000007 L 842.0559999999999,370.32400000000007 L 842.127,370.49000000000007 L 842.348,370.76700000000005 L 842.284,370.93100000000004 L 842.192,371.05800000000005 L 841.412,370.76900000000006 L 841.243,370.74800000000005 L 841.1030000000001,370.68700000000007 L 840.9530000000001,370.3060000000001 L 841.2710000000001,370.2140000000001 L 841.3650000000001,370.1680000000001 L 841.4000000000001,370.0460000000001 L 841.4430000000001,369.6740000000001 L 841.2950000000001,369.3620000000001 L 841.1690000000001,369.2510000000001 L 841.0670000000001,369.1240000000001 L 841.1310000000001,368.8610000000001 L 841.089,368.5290000000001 L 841.085,368.0650000000001 L 841.14,367.9850000000001 L 841.435,367.89100000000013 L 841.6479999999999,367.6420000000001 L 841.8359999999999,367.3580000000001 L 842.1109999999999,366.8580000000001 L 842.3369999999999,366.3170000000001 L 842.1199999999999,366.2940000000001 L 841.9359999999999,366.1920000000001 L 842.136,365.93600000000015 L 842.074,365.61200000000014 L 841.774,365.2140000000001 L 841.609,364.7440000000001 L 841.344,364.53600000000006 L 841.2040000000001,364.46000000000004 L 841.033,364.57000000000005 L 840.893,364.70200000000006 L 841.023,365.00800000000004 L 841.0070000000001,365.27900000000005 L 841.028,365.547 L 841.16,365.562 L 841.323,365.495 L 841.453,365.54200000000003 L 841.529,365.68300000000005 L 841.55,365.86400000000003 L 841.492,366.043 L 841.3729999999999,366.132 L 841.227,366.125 L 841.0799999999999,366.028 L 840.9649999999999,365.89000000000004 L 840.6899999999999,365.814 L 840.4,365.97700000000003 L 840.125,366.309 L 839.89,366.47700000000003 L 840.0,366.23100000000005 L 840.053,365.96500000000003 L 839.939,365.778 L 839.669,365.46700000000004 L 839.606,365.28700000000003 L 839.59,365.069 L 839.638,364.853 L 839.914,365.101 L 840.056,365.41 L 840.26,365.54600000000005 L 840.515,365.547 L 840.319,365.093 L 840.2489999999999,364.978 L 839.9749999999999,364.774 L 839.5989999999999,364.431 L 839.3609999999999,364.265 L 839.4449999999998,363.906 L 839.5859999999998,363.835 L 839.7039999999998,363.852 L 840.1019999999999,363.979 L 840.1389999999999,363.8 L 840.0799999999999,363.704 L 840.05,363.593 L 840.313,363.43800000000005 L 840.742,363.31000000000006 L 840.8299999999999,363.25000000000006 L 840.906,363.12100000000004 L 841.011,363.05400000000003 L 841.3109999999999,363.05600000000004 L 841.564,362.932 L 841.7729999999999,362.59700000000004 L 841.8229999999999,362.413 L 841.8969999999998,362.259 L 842.4179999999998,361.987 L 842.5469999999998,361.94500000000005 L 842.8959999999998,361.97900000000004 L 843.2139999999998,362.13300000000004 L 843.3709999999999,362.45700000000005 L 843.5089999999999,362.80300000000005 L 843.84,363.038 M 839.97,362.547 L 839.7760000000001,362.68600000000004 L 839.6300000000001,362.57800000000003 L 839.7010000000001,362.278 L 839.7490000000001,362.178 L 839.9150000000002,362.277 L 839.97,362.547 M 839.116,364.309 L 838.919,364.466 L 838.776,364.466 L 838.906,364.282 L 838.924,364.195 L 839.033,363.948 L 839.246,363.85999999999996 L 839.336,363.84899999999993 L 839.162,364.1049999999999 L 839.116,364.309 M 837.952,365.583 L 837.882,365.619 L 837.7919999999999,365.319 L 837.7289999999999,365.212 L 837.834,365.155 L 838.045,364.60999999999996 L 838.083,364.82599999999996 L 838.165,365.03999999999996 L 838.247,365.07399999999996 L 838.1669999999999,365.22999999999996 L 838.05,365.28799999999995 L 837.952,365.583 M 868.162,364.865 L 868.113,364.90000000000003 L 867.9780000000001,364.79100000000005 L 867.9580000000001,364.6940000000001 L 867.9820000000001,364.63400000000007 L 868.07,364.6210000000001 L 868.2520000000001,364.7400000000001 L 868.162,364.865 M 836.797,365.771 L 836.9060000000001,365.861 L 837.065,365.81 L 837.192,365.798 L 837.283,365.841 L 837.398,366.072 L 837.44,366.209 L 837.235,366.228 L 837.148,366.26 L 837.0360000000001,366.42699999999996 L 836.8750000000001,366.36499999999995 L 836.7740000000001,366.28599999999994 L 836.7520000000001,366.17499999999995 L 836.797,365.771 M 840.774,367.606 L 840.552,367.724 L 840.524,367.611 L 840.43,367.55899999999997 L 840.5909999999999,367.4 L 840.5849999999999,367.328 L 840.483,367.22099999999995 L 840.601,366.81499999999994 L 840.569,366.63999999999993 L 841.012,366.57499999999993 L 841.093,366.73999999999995 L 841.101,367.23999999999995 L 840.774,367.606 M 841.612,366.965 L 841.3639999999999,366.97999999999996 L 841.261,366.941 L 841.2199999999999,366.83599999999996 L 841.5679999999999,366.62299999999993 L 841.8379999999999,366.66099999999994 L 841.7179999999998,366.85299999999995 L 841.612,366.965 M 839.752,369.491 L 839.664,369.548 L 839.72,369.29 L 839.946,369.064 L 839.965,369.21000000000004 L 839.752,369.491 M 843.236,373.598 L 842.99,373.632 L 842.985,373.444 L 843.1800000000001,373.02000000000004 L 843.201,372.708 L 843.383,372.314 L 843.46,372.228 L 843.518,372.197 L 843.581,372.32 L 843.511,372.802 L 843.328,373.16700000000003 L 843.236,373.598 M 842.291,374.031 L 841.97,374.101 L 841.794,374.026 L 841.632,373.627 L 841.939,373.377 L 842.3489999999999,373.625 L 842.4329999999999,373.696 L 842.291,374.031 M 839.007,380.604 L 838.765,380.861 L 838.508,380.62899999999996 L 838.1980000000001,380.474 L 838.3450000000001,380.432 L 838.4310000000002,380.369 L 838.4400000000002,380.271 L 838.6410000000002,380.125 L 839.0390000000002,380.012 L 839.1660000000002,380.005 L 839.3090000000002,379.899 L 839.3560000000002,379.803 L 839.4150000000002,379.757 L 839.6720000000001,379.625 L 839.7420000000002,379.777 L 839.7300000000002,379.896 L 839.5370000000003,379.962 L 839.3490000000003,380.121 L 839.1740000000003,380.31899999999996 L 839.0180000000004,380.40299999999996 L 838.9680000000004,380.45899999999995 L 839.007,380.604 M 838.646,380.934 L 838.665,381.00800000000004 L 838.39,380.946 L 838.278,380.65700000000004 L 838.461,380.70900000000006 L 838.517,380.80800000000005 L 838.646,380.934 M 837.731,382.147 L 837.6129999999999,382.205 L 837.4559999999999,382.125 L 837.4069999999999,381.763 L 837.477,381.587 L 837.6,381.548 L 837.707,381.861 L 837.781,381.99 L 837.731,382.147 M 835.656,385.499 L 835.385,385.64300000000003 L 835.285,385.814 L 835.035,385.872 L 834.7919999999999,386.112 L 834.5559999999999,386.15500000000003 L 834.5619999999999,386.348 L 834.6629999999999,386.511 L 834.5059999999999,386.54 L 834.3409999999999,386.73900000000003 L 834.3279999999999,386.884 L 834.3869999999998,387.0 L 834.3789999999998,387.059 L 834.1709999999998,387.23100000000005 L 833.9559999999998,387.23900000000003 L 833.9469999999998,387.05300000000005 L 833.9609999999998,386.91400000000004 L 834.1639999999998,386.576 L 834.1689999999998,386.18300000000005 L 834.3569999999997,386.13800000000003 L 834.4249999999997,386.083 L 834.7219999999998,385.80300000000005 L 834.7769999999997,385.684 L 834.6229999999997,385.56800000000004 L 834.6349999999996,385.43100000000004 L 834.6699999999996,385.37300000000005 L 834.9139999999996,385.41700000000003 L 835.0129999999997,385.519 L 835.0619999999997,385.53000000000003 L 835.2049999999997,385.454 L 835.2719999999997,385.318 L 835.5379999999997,385.05 L 835.6459999999996,384.784 L 835.8609999999996,385.002 L 835.8029999999997,385.288 L 835.656,385.499 M 874.749,385.613 L 874.697,385.615 L 874.521,385.284 L 874.572,385.268 L 874.675,385.32 L 874.788,385.51099999999997 L 874.749,385.613 M 827.757,391.415 L 827.52,391.495 L 827.266,391.448 L 827.307,391.019 L 827.395,391.079 L 827.4499999999999,391.225 L 827.6389999999999,391.31100000000004 L 827.757,391.415 M 824.526,392.113 L 824.361,392.597 L 824.224,392.667 L 824.0840000000001,392.628 L 823.94,392.358 L 824.041,392.254 L 824.181,392.309 L 824.2940000000001,392.288 L 824.551,391.894 L 824.613,391.958 L 824.526,392.113 M 823.392,392.835 L 823.215,392.878 L 823.0020000000001,392.825 L 822.8080000000001,392.81 L 822.8060000000002,392.719 L 823.0090000000001,392.625 L 823.0130000000001,392.494 L 823.0630000000001,392.423 L 823.522,392.584 L 823.5020000000001,392.702 L 823.392,392.835" id="JP" title="Japan"/>
</svg>
