<svg xmlns="http://www.w3.org/2000/svg" xmlns:ev="http://www.w3.org/2001/xml-events" xmlns:xlink="http://www.w3.org/1999/xlink" baseProfile="full" height="28.43402099609375" version="1.1" viewBox="570.833984375 447.33099365234375 22.41302490234375 28.43402099609375" width="22.41302490234375">
	<defs/>
	<path class="land" d="M 593.247,451.573 L 592.9019999999999,452.065 L 592.4879999999999,452.655 L 591.7249999999999,453.73999999999995 L 591.1449999999999,454.311 L 590.7069999999999,454.743 L 590.6659999999998,454.82099999999997 L 590.6679999999998,455.30199999999996 L 590.6729999999998,456.47799999999995 L 590.6819999999998,458.82899999999995 L 590.6909999999998,461.179 L 590.6999999999998,463.529 L 590.7039999999998,464.704 L 590.7059999999998,465.099 L 591.0909999999998,465.593 L 591.4669999999998,466.076 L 591.9639999999997,466.714 L 592.2309999999998,467.056 L 592.2749999999997,467.16999999999996 L 592.2609999999997,467.39899999999994 L 591.8519999999997,467.87799999999993 L 591.5169999999997,468.09599999999995 L 591.0659999999997,468.19999999999993 L 590.9309999999997,468.17999999999995 L 590.7539999999997,468.11199999999997 L 590.6849999999997,468.227 L 590.6329999999997,468.40599999999995 L 590.5329999999997,468.36799999999994 L 590.4579999999996,468.31499999999994 L 590.5029999999996,468.6329999999999 L 590.5489999999996,468.7899999999999 L 590.48,469.0 L 590.261,469.185 L 590.241,469.342 L 589.7669999999999,469.752 L 589.0939999999999,469.797 L 588.7399999999999,470.00100000000003 L 588.5829999999999,470.168 L 588.4629999999999,470.533 L 588.5049999999999,471.09200000000004 L 588.3169999999999,471.52200000000005 L 588.2819999999999,471.73800000000006 L 587.934,472.01700000000005 L 587.78,472.273 L 587.6659999999999,472.53400000000005 L 587.5669999999999,472.648 L 587.4489999999998,473.232 L 587.2869999999998,473.58700000000005 L 587.2429999999998,473.70500000000004 L 587.2029999999999,473.81100000000004 L 587.0779999999999,474.01900000000006 L 586.9959999999999,474.16300000000007 L 586.9369999999999,474.25700000000006 L 586.5269999999999,475.1670000000001 L 586.2069999999999,475.5780000000001 L 585.9559999999999,475.53100000000006 L 585.7889999999999,475.69000000000005 L 585.7709999999998,475.76500000000004 L 585.6819999999998,475.72300000000007 L 585.4729999999998,475.57200000000006 L 585.0419999999998,475.26300000000003 L 584.6109999999998,474.954 L 584.1799999999997,474.645 L 583.7489999999997,474.33599999999996 L 583.3179999999996,474.02699999999993 L 582.8869999999996,473.7179999999999 L 582.4559999999996,473.4089999999999 L 582.0249999999995,473.09999999999985 L 581.7719999999995,472.91899999999987 L 581.6609999999995,472.81199999999984 L 581.5729999999995,472.5989999999998 L 581.5309999999995,472.5459999999998 L 581.4159999999995,472.4789999999998 L 581.2809999999995,472.4639999999998 L 581.2419999999995,472.42299999999983 L 581.2429999999995,472.3199999999998 L 581.2889999999995,472.1719999999998 L 581.4479999999995,471.8889999999998 L 581.4649999999996,471.7219999999998 L 581.4339999999996,471.5329999999998 L 581.3849999999996,471.2299999999998 L 581.3419999999996,471.1609999999998 L 581.0559999999997,471.0019999999998 L 580.4579999999997,470.6699999999998 L 579.8599999999998,470.3379999999998 L 579.2619999999998,470.0059999999998 L 578.6629999999998,469.6739999999998 L 578.0649999999998,469.3419999999998 L 577.4669999999999,469.0099999999998 L 576.8689999999999,468.6779999999998 L 576.271,468.34599999999983 L 575.6719999999999,468.01399999999984 L 575.074,467.68199999999985 L 574.4749999999999,467.34999999999985 L 573.877,467.01799999999986 L 573.279,466.68599999999986 L 572.681,466.35399999999987 L 572.0830000000001,466.0219999999999 L 571.484,465.6899999999999 L 571.259,465.5649999999999 L 571.057,465.45999999999987 L 570.843,465.45999999999987 L 570.834,464.98499999999984 L 570.9019999999999,463.77599999999984 L 570.8939999999999,462.7139999999998 L 570.9549999999999,462.18199999999985 L 571.2189999999999,461.84499999999986 L 571.3409999999999,461.59999999999985 L 571.4279999999999,461.25799999999987 L 571.5659999999999,460.97899999999987 L 571.8789999999999,460.7519999999999 L 571.935,460.6269999999999 L 572.2669999999999,460.2479999999999 L 572.4659999999999,459.76099999999985 L 572.6159999999999,459.59499999999986 L 572.8039999999999,459.44199999999984 L 572.9359999999998,459.3609999999998 L 573.1539999999998,459.2799999999998 L 573.3249999999998,459.2339999999998 L 573.3559999999998,459.1949999999998 L 573.3709999999998,459.1159999999998 L 573.3139999999997,458.8139999999998 L 573.3869999999997,458.7149999999998 L 573.5029999999997,458.5129999999998 L 573.6359999999997,458.3249999999998 L 573.7559999999997,458.2049999999998 L 573.8229999999998,458.0819999999998 L 573.8539999999997,457.86999999999983 L 573.8589999999997,457.7189999999998 L 573.8579999999997,457.47299999999984 L 573.8199999999997,456.9139999999998 L 573.6789999999997,456.4459999999998 L 573.5919999999998,455.9219999999998 L 573.6559999999997,455.7499999999998 L 573.5449999999997,455.44299999999976 L 573.4899999999998,455.42599999999976 L 573.3999999999997,455.35899999999975 L 573.2839999999998,455.06899999999973 L 573.1969999999998,454.8049999999997 L 573.1429999999998,454.73899999999975 L 572.7669999999998,454.50799999999975 L 572.5799999999998,453.96299999999974 L 572.3699999999998,453.84199999999976 L 572.2559999999997,453.2999999999998 L 572.2339999999997,453.1459999999998 L 572.3529999999997,452.6049999999998 L 572.3409999999998,452.48099999999977 L 572.2149999999998,452.3669999999998 L 571.8619999999999,452.2499999999998 L 571.5759999999999,452.02699999999976 L 571.6129999999999,451.9489999999998 L 571.6339999999999,451.86799999999977 L 571.483,451.8139999999998 L 571.045,450.8889999999998 L 571.608,450.3329999999998 L 572.179,449.7699999999998 L 572.908,449.0569999999998 L 573.577,448.4019999999998 L 574.155,447.83599999999984 L 574.6709999999999,447.33099999999985 L 574.6579999999999,447.42699999999985 L 574.6599999999999,447.55499999999984 L 574.7239999999998,447.6329999999998 L 574.8299999999998,447.6869999999998 L 574.9769999999999,447.62999999999977 L 575.1059999999999,447.55099999999976 L 575.2319999999999,447.53399999999976 L 576.0069999999998,447.74399999999974 L 576.1369999999998,447.92699999999974 L 576.1279999999998,448.12399999999974 L 576.1619999999998,448.2669999999997 L 576.1019999999999,448.4109999999997 L 576.0379999999999,448.84499999999974 L 576.0579999999999,449.24299999999977 L 576.2889999999999,449.5379999999998 L 576.4969999999998,449.7689999999998 L 576.6619999999998,450.09399999999977 L 576.7839999999998,450.1939999999998 L 576.9519999999998,450.2459999999998 L 577.4849999999998,450.2599999999998 L 578.2739999999998,450.28099999999984 L 579.0329999999998,450.3009999999998 L 579.1019999999997,450.3089999999998 L 579.2629999999997,450.3529999999998 L 579.9619999999996,450.79099999999977 L 580.6019999999996,451.19299999999976 L 581.1439999999997,451.54199999999975 L 581.6699999999996,451.88099999999974 L 582.1809999999996,452.21099999999973 L 582.5769999999995,452.48399999999975 L 582.9679999999995,452.5669999999998 L 583.6029999999995,452.6069999999998 L 584.0419999999995,452.6209999999998 L 584.4479999999994,452.7359999999998 L 585.0519999999995,452.84299999999985 L 585.5019999999995,452.89799999999985 L 585.7739999999995,452.95999999999987 L 586.5289999999995,453.02299999999985 L 586.6539999999995,452.9859999999999 L 586.9869999999995,452.6829999999999 L 587.3599999999996,452.1899999999999 L 587.5059999999995,451.91899999999987 L 587.9879999999995,451.6489999999999 L 588.8349999999995,451.2729999999999 L 589.4319999999994,451.0069999999999 L 590.0959999999994,450.7399999999999 L 590.3979999999995,450.9709999999999 L 590.8139999999995,451.34199999999987 L 590.9999999999995,451.52499999999986 L 591.1489999999995,451.6059999999999 L 591.3749999999995,451.65999999999985 L 591.6499999999995,451.66099999999983 L 591.7999999999995,451.65299999999985 L 592.1069999999995,451.60499999999985 L 592.8249999999995,451.56099999999986 L 593.247,451.573 M 590.75,468.689 L 590.646,468.713 L 590.6999999999999,468.553 L 591.0079999999999,468.348 L 591.1329999999999,468.394 L 591.1569999999999,468.44 L 591.15,468.483 L 591.098,468.525 L 590.75,468.689" id="KE" title="Kenya"/>
</svg>
