<svg xmlns="http://www.w3.org/2000/svg" xmlns:ev="http://www.w3.org/2001/xml-events" xmlns:xlink="http://www.w3.org/1999/xlink" baseProfile="full" height="14.9990234375" version="1.1" viewBox="669.9910278320312 328.5669860839844 30.9189453125 14.9990234375" width="30.9189453125" fill="#00394f">
	<defs/>
	<path class="land" d="M 700.806,332.562 L 700.8620000000001,332.789 L 700.9100000000001,333.053 L 700.8800000000001,333.115 L 700.8260000000001,333.157 L 699.9660000000001,333.222 L 699.7720000000002,333.29499999999996 L 699.5640000000002,333.65899999999993 L 698.8280000000002,333.9509999999999 L 698.4080000000002,334.1009999999999 L 698.2380000000003,334.0949999999999 L 697.8300000000003,334.3339999999999 L 696.6910000000003,334.9289999999999 L 696.1310000000003,335.3039999999999 L 695.8500000000004,335.4609999999999 L 695.6240000000004,335.6319999999999 L 695.5860000000004,335.8049999999999 L 695.5780000000003,335.9679999999999 L 694.9530000000003,336.7329999999999 L 694.4840000000003,336.8249999999999 L 694.0880000000003,336.8069999999999 L 693.8180000000003,336.9229999999999 L 693.4320000000004,337.0399999999999 L 692.5960000000003,336.9599999999999 L 692.3110000000004,336.9729999999999 L 691.7620000000004,336.8679999999999 L 691.5400000000004,336.9229999999999 L 691.3060000000004,337.07799999999986 L 690.9810000000003,337.6849999999999 L 690.8490000000004,337.8269999999999 L 690.7880000000004,337.96499999999986 L 690.7380000000004,338.25899999999984 L 690.6140000000004,338.5699999999998 L 690.4550000000004,338.8149999999998 L 690.3400000000004,339.0419999999998 L 690.1050000000004,339.2609999999998 L 689.8870000000004,339.3989999999998 L 689.7180000000004,339.11099999999976 L 689.5720000000005,339.19299999999976 L 689.4320000000005,339.3099999999998 L 689.1680000000005,339.2689999999998 L 689.0050000000005,339.3279999999998 L 688.6330000000005,339.5779999999998 L 688.0870000000004,339.5689999999998 L 688.0270000000005,339.4829999999998 L 687.9190000000006,338.7949999999998 L 687.8240000000005,338.4679999999998 L 687.7450000000006,338.3949999999998 L 687.6470000000006,338.38699999999983 L 686.8620000000006,338.9289999999998 L 686.4980000000006,339.0249999999998 L 686.1990000000006,339.0419999999998 L 685.8080000000007,338.8799999999998 L 685.7230000000006,338.91999999999985 L 685.6560000000006,339.00699999999983 L 685.6280000000006,339.1179999999998 L 685.7420000000006,339.42499999999984 L 685.7100000000006,339.48499999999984 L 685.5340000000006,339.47999999999985 L 685.2880000000006,339.5509999999999 L 685.1000000000006,339.6919999999999 L 684.5360000000006,340.1859999999999 L 684.0610000000006,340.35099999999994 L 683.6190000000006,340.41599999999994 L 683.4380000000006,340.47099999999995 L 683.3570000000005,340.53 L 683.2090000000005,340.765 L 683.0570000000005,341.133 L 682.9780000000005,341.31199999999995 L 682.9190000000006,341.41599999999994 L 682.9310000000005,341.55199999999996 L 683.0510000000005,341.727 L 683.1420000000005,342.11999999999995 L 683.1210000000005,342.2219999999999 L 683.0240000000006,342.3859999999999 L 682.8840000000006,342.5469999999999 L 682.5830000000005,342.6439999999999 L 682.3470000000005,342.69299999999987 L 682.1900000000005,342.6609999999999 L 681.8950000000006,342.64999999999986 L 681.6620000000006,342.7139999999999 L 681.5180000000006,342.8239999999999 L 681.2340000000006,342.9609999999999 L 680.8810000000007,343.0069999999999 L 680.4320000000007,343.02499999999986 L 680.2160000000007,343.01299999999986 L 679.5640000000006,342.9209999999999 L 679.3490000000006,342.95299999999986 L 679.1440000000006,343.0239999999999 L 678.7720000000006,343.0989999999999 L 678.5740000000006,343.3269999999999 L 678.4700000000006,343.5359999999999 L 678.4140000000006,343.56599999999986 L 678.1820000000006,343.37399999999985 L 678.0050000000006,343.19399999999985 L 677.8890000000006,343.04399999999987 L 677.7430000000006,343.0479999999999 L 677.2240000000006,343.3199999999999 L 677.1470000000006,343.31099999999986 L 676.9990000000006,343.2069999999999 L 677.0260000000006,342.9499999999999 L 677.0160000000006,342.7859999999999 L 676.8490000000006,342.6989999999999 L 676.4950000000006,342.6769999999999 L 676.3750000000006,342.5839999999999 L 676.3820000000005,342.4449999999999 L 676.4140000000006,342.3119999999999 L 676.3740000000006,342.2089999999999 L 676.2820000000006,342.1309999999999 L 676.0960000000006,342.15199999999993 L 675.8830000000006,342.2579999999999 L 675.7270000000007,342.3789999999999 L 675.5310000000006,342.4359999999999 L 675.2930000000006,342.4579999999999 L 675.1450000000006,342.5309999999999 L 674.9760000000006,342.8259999999999 L 674.3990000000006,342.8879999999999 L 674.2130000000005,342.8209999999999 L 674.0610000000005,342.6119999999999 L 673.8620000000005,342.2739999999999 L 673.7510000000005,342.2319999999999 L 673.5630000000006,342.18999999999994 L 673.2560000000005,342.2099999999999 L 672.8430000000005,342.3519999999999 L 672.7430000000005,342.2349999999999 L 672.6360000000005,342.2009999999999 L 672.5390000000006,342.2979999999999 L 672.4400000000005,342.28699999999986 L 672.0320000000005,342.31399999999985 L 671.5150000000004,342.3009999999999 L 671.2200000000005,342.2349999999999 L 671.0290000000005,342.2389999999999 L 670.6490000000005,342.38999999999993 L 670.4480000000004,342.38899999999995 L 670.1840000000004,342.41599999999994 L 670.1350000000004,341.9049999999999 L 669.9910000000004,341.5589999999999 L 670.0350000000004,341.3189999999999 L 670.1310000000004,340.9889999999999 L 670.2110000000005,340.80299999999994 L 670.3740000000005,340.88199999999995 L 670.5610000000005,341.018 L 670.6850000000005,340.98199999999997 L 670.7180000000005,340.86999999999995 L 670.6700000000005,340.72299999999996 L 670.6630000000006,340.61299999999994 L 670.7330000000006,340.46799999999996 L 670.8360000000006,340.33299999999997 L 671.4960000000005,340.111 L 672.0610000000006,339.949 L 672.3550000000006,340.057 L 672.9240000000005,340.305 L 673.2170000000006,340.433 L 673.4210000000005,340.508 L 673.6000000000005,340.871 L 673.7170000000004,340.854 L 673.8350000000005,340.781 L 673.9050000000005,340.692 L 673.9620000000006,340.383 L 674.2270000000005,340.209 L 674.8100000000005,340.003 L 674.8510000000006,339.882 L 674.8420000000006,339.815 L 674.9340000000005,339.756 L 675.2260000000006,339.69599999999997 L 675.8160000000006,339.63899999999995 L 676.0160000000006,339.68199999999996 L 676.2450000000007,339.804 L 676.4220000000007,339.92499999999995 L 676.5900000000007,339.92099999999994 L 676.7290000000007,339.89599999999996 L 676.7890000000007,339.92999999999995 L 676.8330000000007,340.037 L 676.9050000000007,340.133 L 677.1310000000007,340.002 L 677.3350000000006,339.833 L 677.4960000000005,339.809 L 677.6440000000006,339.745 L 677.6870000000006,339.632 L 677.8030000000006,339.444 L 678.1360000000005,339.08500000000004 L 678.3090000000005,339.02700000000004 L 678.4210000000005,339.02700000000004 L 678.4270000000005,339.08500000000004 L 678.4810000000004,339.13800000000003 L 678.7720000000005,339.22100000000006 L 678.8610000000006,339.12600000000003 L 678.9080000000006,338.99500000000006 L 678.8060000000006,338.78700000000003 L 678.8040000000007,338.70000000000005 L 678.8420000000007,338.62000000000006 L 678.8960000000006,338.57200000000006 L 679.3610000000007,338.77000000000004 L 679.4640000000006,338.766 L 679.6760000000006,338.65500000000003 L 679.8700000000006,338.46000000000004 L 679.9400000000006,338.30600000000004 L 680.8910000000006,337.80600000000004 L 680.9580000000007,337.71500000000003 L 680.9450000000006,337.64900000000006 L 680.5460000000006,337.53200000000004 L 680.3660000000007,337.59700000000004 L 680.2000000000006,337.59700000000004 L 680.0990000000006,337.523 L 679.6150000000006,337.495 L 679.5090000000006,337.443 L 679.1880000000006,337.08099999999996 L 678.9670000000006,336.943 L 678.7890000000006,336.852 L 678.5960000000006,336.86499999999995 L 678.3660000000006,336.96 L 678.2950000000005,336.917 L 678.2750000000005,336.765 L 678.2760000000005,336.574 L 678.2290000000005,336.369 L 678.0920000000006,336.321 L 677.9150000000005,336.40200000000004 L 677.6510000000005,336.319 L 677.4260000000005,336.28900000000004 L 677.3680000000005,335.85600000000005 L 677.2770000000005,335.67100000000005 L 677.1840000000005,335.47700000000003 L 677.0860000000006,335.42100000000005 L 676.9260000000006,335.32400000000007 L 676.9160000000006,335.0950000000001 L 676.8820000000006,335.0300000000001 L 676.8250000000006,334.9990000000001 L 676.7480000000006,335.0250000000001 L 676.6490000000006,335.1410000000001 L 676.6980000000005,335.39400000000006 L 676.6600000000005,335.64700000000005 L 676.6020000000005,335.77400000000006 L 676.4900000000006,335.86800000000005 L 676.3620000000005,335.87000000000006 L 676.1400000000006,335.7420000000001 L 676.1050000000006,336.5080000000001 L 676.0620000000006,336.5550000000001 L 675.7970000000006,336.4470000000001 L 675.5850000000006,336.4930000000001 L 675.2690000000006,336.4460000000001 L 675.0320000000006,336.3200000000001 L 674.8540000000006,336.2850000000001 L 674.5670000000006,336.17800000000005 L 674.3480000000005,336.03800000000007 L 674.2130000000005,335.52400000000006 L 674.0850000000005,335.34000000000003 L 673.9640000000005,335.30100000000004 L 673.4750000000005,335.47900000000004 L 673.2960000000005,335.34100000000007 L 672.9660000000005,335.1650000000001 L 672.7160000000005,335.0990000000001 L 672.6490000000005,335.0040000000001 L 672.6600000000004,334.88700000000006 L 673.4300000000004,334.31200000000007 L 673.7330000000004,333.91600000000005 L 673.9230000000005,333.74800000000005 L 674.1950000000005,333.63700000000006 L 674.4070000000005,333.57200000000006 L 674.5150000000004,333.20700000000005 L 674.5560000000005,333.1650000000001 L 674.7070000000004,333.1380000000001 L 675.0490000000004,332.9880000000001 L 675.6000000000005,332.6670000000001 L 675.6110000000004,332.57900000000006 L 675.5550000000004,332.50300000000004 L 675.3240000000004,332.338 L 675.0600000000004,332.20700000000005 L 674.9000000000004,332.27500000000003 L 674.8090000000004,332.34200000000004 L 674.6580000000005,332.172 L 674.6580000000005,331.997 L 674.8250000000005,331.697 L 674.9650000000005,331.547 L 675.0240000000005,331.257 L 675.2220000000004,331.063 L 675.4290000000004,330.755 L 675.6800000000004,330.503 L 676.1440000000005,330.31399999999996 L 676.4030000000005,330.376 L 676.6460000000005,330.332 L 677.0220000000005,330.179 L 677.0940000000005,330.169 L 677.2520000000005,330.167 L 678.2200000000005,330.40099999999995 L 678.5400000000005,330.412 L 679.2900000000005,330.71599999999995 L 679.6350000000006,330.7819999999999 L 679.8790000000006,330.86799999999994 L 679.9890000000006,330.9989999999999 L 680.1650000000006,331.1599999999999 L 681.1070000000007,331.2899999999999 L 681.3660000000007,331.3759999999999 L 681.4590000000006,331.51699999999994 L 681.7280000000006,331.6959999999999 L 681.9570000000007,331.7369999999999 L 681.7570000000006,331.0369999999999 L 681.8370000000007,330.61999999999995 L 682.1350000000007,329.477 L 682.2910000000006,329.304 L 682.5900000000006,329.15099999999995 L 683.0600000000006,328.97999999999996 L 683.2380000000006,328.741 L 683.6230000000006,328.765 L 683.7900000000006,328.74399999999997 L 683.9050000000007,328.70099999999996 L 683.9680000000006,328.56699999999995 L 684.4020000000006,328.79999999999995 L 685.1280000000006,329.27199999999993 L 685.6760000000006,329.5709999999999 L 686.3220000000006,329.8529999999999 L 687.2160000000006,330.1099999999999 L 687.9720000000005,330.1949999999999 L 688.1020000000005,330.1339999999999 L 688.4050000000005,329.7429999999999 L 688.5480000000006,329.7259999999999 L 688.8060000000006,329.7599999999999 L 689.6080000000006,329.77799999999985 L 690.4250000000006,329.79699999999985 L 690.8100000000006,329.75899999999984 L 691.6460000000006,329.59599999999983 L 691.7690000000007,329.58799999999985 L 691.9630000000006,329.5989999999999 L 692.4630000000006,329.82099999999986 L 692.8370000000007,329.85199999999986 L 693.0910000000007,329.8509999999999 L 693.2390000000007,329.86899999999986 L 693.5490000000007,329.8609999999999 L 694.0520000000007,329.8869999999999 L 694.6740000000007,330.0309999999999 L 695.4230000000007,330.0049999999999 L 695.6630000000007,329.9779999999999 L 696.0800000000007,330.0039999999999 L 696.4110000000007,330.1409999999999 L 696.8300000000007,330.2859999999999 L 697.0930000000008,330.34699999999987 L 697.2690000000008,330.3779999999999 L 697.5830000000008,330.3889999999999 L 697.7710000000008,330.3439999999999 L 697.8780000000007,330.40699999999987 L 697.9840000000007,330.76099999999985 L 698.2440000000007,330.9929999999999 L 698.4470000000007,331.2119999999999 L 698.6170000000006,331.4539999999999 L 698.7900000000006,331.5529999999999 L 699.0950000000006,331.55599999999987 L 699.6700000000006,331.6249999999999 L 700.0000000000007,331.7209999999999 L 700.4220000000007,332.13799999999986 L 700.806,332.562 M 675.539,341.079 L 675.5649999999999,341.027 L 675.462,340.76 L 675.601,340.51 L 675.326,340.468 L 675.1850000000001,340.394 L 675.027,340.141 L 674.975,340.129 L 674.893,340.19800000000004 L 674.849,340.36400000000003 L 674.888,340.543 L 675.0,340.664 L 675.074,340.704 L 675.0849999999999,340.712 L 675.0819999999999,340.771 L 674.9919999999998,341.067 L 675.1389999999999,341.105 L 675.3969999999999,341.11 L 675.539,341.079 M 677.148,340.869 L 677.176,340.704 L 677.1080000000001,340.712 L 677.027,340.757 L 676.8720000000001,340.802 L 676.8380000000001,340.884 L 676.9420000000001,340.988 L 677.0740000000001,341.026 L 677.148,340.869 M 674.123,341.324 L 674.113,341.249 L 674.017,341.214 L 673.745,341.174 L 673.551,341.116 L 673.509,341.115 L 673.527,341.187 L 673.61,341.314 L 673.724,341.45000000000005 L 673.8710000000001,341.46500000000003 L 674.123,341.324" id="KG" title="Kyrgyzstan"/>
</svg>
