<svg xmlns="http://www.w3.org/2000/svg" xmlns:ev="http://www.w3.org/2001/xml-events" xmlns:xlink="http://www.w3.org/1999/xlink" baseProfile="full" height="12.27099609375" version="1.1" viewBox="762.8599853515625 421.2130126953125 14.83502197265625 12.27099609375" width="14.83502197265625" fill="#00394f">
	<defs/>
	<path class="land" d="M 768.771,433.484 L 768.3109999999999,433.11499999999995 L 767.3979999999999,432.98599999999993 L 767.2989999999999,432.8229999999999 L 767.2109999999999,432.79099999999994 L 767.127,433.00299999999993 L 766.625,433.2059999999999 L 766.415,433.0829999999999 L 766.262,432.9349999999999 L 766.284,432.7529999999999 L 766.43,432.60499999999985 L 766.679,432.49899999999985 L 766.794,432.12499999999983 L 766.6039999999999,431.64599999999984 L 766.4379999999999,431.50599999999986 L 766.2619999999998,431.39599999999984 L 766.0769999999999,431.57399999999984 L 765.9219999999999,431.87899999999985 L 765.7599999999999,432.03599999999983 L 765.5309999999998,432.07099999999986 L 765.1959999999998,432.0579999999999 L 765.0659999999998,431.6029999999999 L 765.0229999999998,431.2129999999999 L 765.0689999999998,430.7669999999999 L 765.1199999999999,430.5029999999999 L 764.7979999999999,430.1389999999999 L 764.7789999999999,429.7919999999999 L 764.6239999999999,429.61299999999994 L 764.5779999999999,429.70399999999995 L 764.5819999999999,429.804 L 764.5379999999999,429.73199999999997 L 764.0279999999999,428.712 L 763.9429999999999,428.239 L 764.0309999999998,427.87399999999997 L 764.0819999999999,427.75199999999995 L 763.9349999999998,427.55999999999995 L 763.7289999999998,427.3419999999999 L 763.3639999999998,427.0559999999999 L 763.3399999999998,426.60299999999995 L 763.2579999999998,426.06899999999996 L 763.1489999999998,425.888 L 762.9819999999997,425.55899999999997 L 762.8909999999997,425.28599999999994 L 762.8599999999998,424.56399999999996 L 762.9069999999998,424.506 L 763.1659999999998,424.48499999999996 L 763.4979999999998,424.43299999999994 L 763.5509999999998,424.31699999999995 L 763.4919999999998,424.21999999999997 L 763.7039999999998,424.056 L 764.0089999999998,423.697 L 764.2439999999998,423.322 L 764.4139999999998,423.085 L 764.5149999999998,422.84999999999997 L 764.8569999999997,422.51699999999994 L 765.3299999999997,422.2869999999999 L 765.6499999999997,422.23299999999995 L 765.9839999999997,422.155 L 766.3029999999997,422.04299999999995 L 766.4549999999997,422.0319999999999 L 766.8509999999997,422.1669999999999 L 767.0659999999997,422.2009999999999 L 767.2919999999997,422.1989999999999 L 767.5249999999996,422.2139999999999 L 767.7279999999996,422.1999999999999 L 768.2139999999996,422.1059999999999 L 768.7309999999997,422.18099999999987 L 769.1919999999997,422.12199999999984 L 769.7619999999997,422.01299999999986 L 770.0419999999997,422.0819999999999 L 770.2969999999997,422.19099999999986 L 770.3319999999997,422.41199999999986 L 770.3919999999996,422.51299999999986 L 770.4769999999996,422.59099999999984 L 770.5899999999997,422.59099999999984 L 770.7359999999996,422.43699999999984 L 770.8569999999996,422.27799999999985 L 770.8969999999996,422.24899999999985 L 770.9029999999996,422.3269999999998 L 770.9639999999996,422.49899999999985 L 771.0719999999995,422.66799999999984 L 771.1819999999996,422.77999999999986 L 771.3649999999996,422.92899999999986 L 771.4839999999996,422.93599999999986 L 771.8749999999995,422.79499999999985 L 772.4589999999995,422.99999999999983 L 772.5269999999995,423.10299999999984 L 772.7159999999994,423.31099999999986 L 772.9199999999994,423.45999999999987 L 773.3759999999994,423.46999999999986 L 773.5379999999994,423.10199999999986 L 773.4599999999995,422.8779999999999 L 773.1999999999995,422.48699999999985 L 773.1289999999995,422.25599999999986 L 773.2119999999994,422.21499999999986 L 773.6519999999995,422.1709999999999 L 773.7229999999995,422.12599999999986 L 773.8199999999995,421.8729999999999 L 773.9399999999995,421.9019999999999 L 774.1839999999995,421.9349999999999 L 774.4419999999996,421.7619999999999 L 774.5949999999996,421.57999999999987 L 774.6779999999995,421.6629999999999 L 774.7699999999995,421.7909999999999 L 774.8699999999995,421.8649999999999 L 775.0559999999996,421.9749999999999 L 775.2599999999995,422.1289999999999 L 775.3869999999995,422.2799999999999 L 775.4899999999994,422.33899999999994 L 775.7519999999994,422.29699999999997 L 775.8219999999994,422.30299999999994 L 775.9729999999994,422.1189999999999 L 776.0789999999994,422.0189999999999 L 776.1699999999994,422.0469999999999 L 776.3019999999993,422.0449999999999 L 776.5739999999994,421.8109999999999 L 776.7299999999993,421.5969999999999 L 776.8159999999993,421.5379999999999 L 777.0599999999994,421.6449999999999 L 777.1579999999993,421.62299999999993 L 777.2999999999994,421.32899999999995 L 777.4519999999994,421.21299999999997 L 777.4969999999994,421.37199999999996 L 777.3789999999993,421.67299999999994 L 777.2529999999994,421.94499999999994 L 777.0179999999993,422.18299999999994 L 777.0059999999994,422.35799999999995 L 776.9249999999994,422.87899999999996 L 776.9559999999993,423.04499999999996 L 777.0109999999993,423.18699999999995 L 777.0879999999993,423.263 L 777.2919999999992,423.77299999999997 L 777.4789999999992,424.236 L 777.6629999999992,424.616 L 777.6949999999993,424.856 L 777.5259999999993,425.465 L 777.3299999999992,426.024 L 777.3469999999993,426.302 L 777.4319999999993,426.58000000000004 L 777.5219999999994,426.951 L 777.5549999999994,427.425 L 777.5059999999994,427.73400000000004 L 777.4169999999993,427.92600000000004 L 777.2469999999994,428.12200000000007 L 777.0999999999993,428.22300000000007 L 776.9219999999993,428.0560000000001 L 776.7799999999993,428.0490000000001 L 776.5909999999993,428.0990000000001 L 776.4419999999993,428.1760000000001 L 776.1379999999994,428.4650000000001 L 775.8009999999994,428.7460000000001 L 775.3349999999994,428.8180000000001 L 775.1539999999993,429.0260000000001 L 774.9599999999994,429.0550000000001 L 774.5919999999993,429.06600000000014 L 774.3509999999993,429.11400000000015 L 774.3619999999993,429.21900000000016 L 774.3419999999993,429.7130000000002 L 774.3469999999993,429.8290000000002 L 774.3099999999993,429.8600000000002 L 774.1429999999992,429.87500000000017 L 773.8609999999992,429.79900000000015 L 773.4789999999992,429.67700000000013 L 773.2069999999992,429.65800000000013 L 773.0669999999992,429.8730000000001 L 772.9839999999992,429.9570000000001 L 772.8799999999992,429.9700000000001 L 772.7729999999992,430.0080000000001 L 772.7369999999993,430.1040000000001 L 772.7279999999993,430.2240000000001 L 772.7799999999993,430.4290000000001 L 772.7999999999993,430.7550000000001 L 772.7859999999993,430.9770000000001 L 772.8859999999993,431.1180000000001 L 773.4699999999992,431.5900000000001 L 773.6419999999993,431.7080000000001 L 773.6619999999992,431.7780000000001 L 773.5599999999993,432.0350000000001 L 773.6509999999993,432.3960000000001 L 773.4679999999993,432.38900000000007 L 773.1619999999992,432.2340000000001 L 773.0159999999993,432.13900000000007 L 772.8389999999993,432.2150000000001 L 772.7769999999992,432.2010000000001 L 772.6579999999992,432.0230000000001 L 772.5019999999993,431.8420000000001 L 772.3409999999993,431.8300000000001 L 772.0009999999993,431.9010000000001 L 771.6529999999993,431.95100000000014 L 771.5209999999994,431.95000000000016 L 771.4659999999994,431.9830000000002 L 771.2649999999994,432.25300000000016 L 771.1799999999994,432.20700000000016 L 770.8289999999994,432.10400000000016 L 770.5099999999994,432.06500000000017 L 770.4449999999994,432.1340000000002 L 770.4839999999994,432.3540000000002 L 770.5539999999994,432.5680000000002 L 770.5119999999994,432.6590000000002 L 770.3359999999993,432.7720000000002 L 770.1049999999993,432.9750000000002 L 769.9619999999993,433.1330000000002 L 769.8629999999993,433.1720000000002 L 769.5099999999993,433.1650000000002 L 769.1579999999993,433.1860000000002 L 769.0159999999993,433.3350000000002 L 768.8839999999993,433.4510000000002 L 768.771,433.484 M 764.895,431.003 L 764.845,431.03 L 764.797,431.029 L 764.749,430.987 L 764.754,430.82300000000004 L 764.789,430.723 L 764.871,430.704 L 764.895,431.003 M 765.659,432.612 L 765.556,432.72200000000004 L 765.393,432.49500000000006 L 765.394,432.4320000000001 L 765.659,432.612" id="KH" title="Cambodia"/>
</svg>
