<svg xmlns="http://www.w3.org/2000/svg" xmlns:ev="http://www.w3.org/2001/xml-events" xmlns:xlink="http://www.w3.org/1999/xlink" baseProfile="full" height="43.10198974609375" version="1.1" viewBox="28.320999145507812 451.7239990234375 977.5780029296875 43.10198974609375" width="977.5780029296875" fill="#00394f">
	<defs/>
	<path class="land" d="M 1004.168,470.385 L 1004.26,470.438 L 1004.33,470.51 L 1004.364,470.61 L 1004.3620000000001,470.635 L 1004.3080000000001,470.634 L 1004.243,470.603 L 1004.196,470.56100000000004 L 1004.172,470.55 L 1004.166,470.541 L 1004.2220000000001,470.54699999999997 L 1004.2860000000001,470.58899999999994 L 1004.3340000000001,470.60799999999995 L 1004.33,470.55899999999997 L 1004.272,470.474 L 1004.238,470.445 L 1004.1940000000001,470.42 L 1004.1440000000001,470.403 L 1004.1100000000001,470.418 L 1004.0910000000001,470.425 L 1004.0830000000001,470.40500000000003 L 1004.09,470.38700000000006 L 1004.1080000000001,470.3690000000001 L 1004.168,470.385 M 1005.887,471.416 L 1005.8739999999999,471.437 L 1005.8539999999999,471.41900000000004 L 1005.8679999999999,471.386 L 1005.8799999999999,471.358 L 1005.8989999999999,471.373 L 1005.887,471.416 M 1005.471,475.126 L 1005.444,475.13899999999995 L 1005.4119999999999,475.13499999999993 L 1005.391,475.11599999999993 L 1005.391,475.08599999999996 L 1005.4169999999999,475.06499999999994 L 1005.454,475.07199999999995 L 1005.4749999999999,475.09899999999993 L 1005.471,475.126 M 1002.717,475.259 L 1002.735,475.278 L 1002.7760000000001,475.273 L 1002.812,475.27000000000004 L 1002.79,475.28900000000004 L 1002.716,475.297 L 1002.6800000000001,475.249 L 1002.725,475.21200000000005 L 1002.765,475.2060000000001 L 1002.769,475.21600000000007 L 1002.767,475.2270000000001 L 1002.748,475.2270000000001 L 1002.7180000000001,475.2360000000001 L 1002.7180000000001,475.259 L 1002.717,475.259 M 996.267,475.718 L 996.3000000000001,475.755 L 996.3000000000001,475.77299999999997 L 996.2840000000001,475.77 L 996.2360000000001,475.75899999999996 L 996.2200000000001,475.73699999999997 L 996.2550000000001,475.75199999999995 L 996.2700000000001,475.74899999999997 L 996.238,475.71599999999995 L 996.21,475.69199999999995 L 996.1890000000001,475.68199999999996 L 996.1890000000001,475.66999999999996 L 996.215,475.67599999999993 L 996.267,475.718 M 28.517,451.724 L 28.741,451.96 L 28.698,452.079 L 28.536,452.068 L 28.462,452.026 L 28.588,452.005 L 28.609,451.961 L 28.551000000000002,451.892 L 28.474,451.844 L 28.421,451.844 L 28.407999999999998,451.939 L 28.320999999999998,451.865 L 28.371999999999996,451.791 L 28.433999999999997,451.742 L 28.517,451.724 M 961.137,453.943 L 960.959,454.036 L 960.905,454.021 L 961.116,453.889 L 961.115,453.90500000000003 L 961.137,453.943 M 960.785,454.16 L 960.577,454.26800000000003 L 960.521,454.21000000000004 L 960.596,454.208 L 960.736,454.10400000000004 L 960.905,454.09600000000006 L 960.885,454.15400000000005 L 960.785,454.16 M 34.121,457.497 L 34.588,457.82 L 34.39,457.843 L 33.902,457.687 L 33.456,457.368 L 33.589000000000006,457.299 L 33.654,457.414 L 33.857000000000006,457.521 L 33.977000000000004,457.296 L 34.056000000000004,457.245 L 33.7,457.013 L 33.841,457.025 L 34.178000000000004,457.183 L 34.121,457.497 M 961.274,457.524 L 961.288,457.588 L 961.128,457.413 L 961.033,457.3 L 961.039,457.25100000000003 L 961.082,457.28200000000004 L 961.135,457.33700000000005 L 961.17,457.38100000000003 L 961.274,457.524 M 961.305,457.882 L 961.203,457.894 L 961.279,457.854 L 961.3,457.799 L 961.288,457.626 L 961.328,457.64 L 961.342,457.711 L 961.3489999999999,457.815 L 961.305,457.882 M 961.329,458.929 L 961.2539999999999,458.93899999999996 L 961.3029999999999,458.88199999999995 L 961.6239999999999,458.81899999999996 L 961.6519999999999,458.801 L 961.704,458.836 L 961.703,458.869 L 961.68,458.886 L 961.521,458.887 L 961.396,458.917 L 961.329,458.929 M 961.313,459.846 L 961.4639999999999,459.956 L 961.444,460.03200000000004 L 961.3929999999999,460.119 L 961.1959999999999,460.341 L 961.136,460.32 L 961.328,460.11899999999997 L 961.4019999999999,459.986 L 961.2919999999999,459.884 L 961.2479999999999,459.906 L 961.2299999999999,459.906 L 961.1919999999999,459.811 L 961.2299999999999,459.811 L 961.313,459.846 M 965.456,464.906 L 965.365,464.982 L 965.33,464.913 L 965.375,464.82800000000003 L 965.299,464.475 L 965.173,464.427 L 965.098,464.321 L 965.1339999999999,464.321 L 965.2599999999999,464.418 L 965.3609999999999,464.462 L 965.4199999999998,464.694 L 965.456,464.906 M 951.543,465.106 L 951.517,465.11199999999997 L 951.464,465.08299999999997 L 951.471,465.04699999999997 L 951.508,465.03099999999995 L 951.5550000000001,465.05799999999994 L 951.543,465.106 M 966.198,466.049 L 966.215,466.193 L 966.1510000000001,466.174 L 966.1300000000001,466.118 L 966.1090000000002,465.973 L 966.0420000000001,465.831 L 966.1180000000002,465.869 L 966.1810000000002,465.98 L 966.198,466.049 M 40.817,474.076 L 40.809,474.093 L 40.775,474.071 L 40.708999999999996,474.03000000000003 L 40.653,473.985 L 40.652,473.966 L 40.731,473.939 L 40.832,473.918 L 40.854,473.947 L 40.835,473.988 L 40.817,474.076 M 38.27,478.381 L 38.205000000000005,478.39599999999996 L 38.129000000000005,478.39599999999996 L 38.09100000000001,478.359 L 38.089000000000006,478.329 L 38.11500000000001,478.329 L 38.13900000000001,478.334 L 38.24700000000001,478.339 L 38.275000000000006,478.361 L 38.27,478.381 M 49.724,494.781 L 49.70099999999999,494.826 L 49.657,494.81 L 49.63099999999999,494.753 L 49.62199999999999,494.691 L 49.638999999999996,494.64099999999996 L 49.668,494.643 L 49.701,494.705 L 49.724,494.781" id="KI" title="Kiribati"/>
</svg>
