<svg xmlns="http://www.w3.org/2000/svg" xmlns:ev="http://www.w3.org/2001/xml-events" xmlns:xlink="http://www.w3.org/1999/xlink" baseProfile="full" height="2.8489990234375" version="1.1" viewBox="597.0159912109375 494.57501220703125 3.64703369140625 2.8489990234375" width="3.64703369140625">
	<defs/>
	<path class="land" d="M 597.686,496.092 L 597.633,496.13 L 597.3770000000001,495.967 L 597.2310000000001,495.929 L 597.0160000000001,495.666 L 597.099,494.756 L 597.168,494.63899999999995 L 597.22,494.5919999999999 L 597.339,494.57499999999993 L 597.484,494.6889999999999 L 597.446,495.2739999999999 L 597.6370000000001,495.6679999999999 L 597.7600000000001,495.9809999999999 L 597.686,496.092 M 600.522,496.606 L 600.663,497.0 L 600.662,497.297 L 600.6020000000001,497.391 L 600.4760000000001,497.329 L 600.2440000000001,497.093 L 599.8030000000001,496.863 L 600.0060000000001,496.844 L 600.1240000000001,496.867 L 600.2490000000001,496.846 L 600.3270000000001,496.716 L 600.3430000000001,496.639 L 600.4530000000001,496.577 L 600.522,496.606 M 598.592,497.249 L 598.789,497.42400000000004 L 598.241,497.35200000000003 L 598.155,497.194 L 598.151,497.07800000000003 L 598.356,497.103 L 598.592,497.249" id="KM" title="Comoros"/>
</svg>
