<svg xmlns="http://www.w3.org/2000/svg" xmlns:ev="http://www.w3.org/2001/xml-events" xmlns:xlink="http://www.w3.org/1999/xlink" baseProfile="full" height="19.385986328125" version="1.1" viewBox="824.6820068359375 329.4880065917969 17.78997802734375 19.385986328125" width="17.78997802734375">
	<defs/>
	<path class="land" d="M 842.021,331.254 L 842.097,331.48400000000004 L 842.2769999999999,331.708 L 842.371,331.87100000000004 L 842.39,332.04 L 842.472,332.13500000000005 L 842.329,332.24000000000007 L 842.141,332.17600000000004 L 841.828,332.13800000000003 L 841.427,332.46900000000005 L 841.205,332.58500000000004 L 841.0490000000001,332.91 L 840.7360000000001,333.103 L 840.565,333.308 L 840.3430000000001,333.663 L 840.1970000000001,334.005 L 839.8600000000001,334.355 L 839.6630000000001,334.79400000000004 L 839.6520000000002,335.17 L 839.8670000000002,335.55400000000003 L 839.8870000000002,335.88000000000005 L 839.7370000000002,336.55000000000007 L 839.8200000000002,337.25900000000007 L 839.7270000000002,337.53600000000006 L 838.6950000000002,338.02000000000004 L 838.4250000000002,338.261 L 838.0460000000002,338.886 L 837.5840000000002,339.11800000000005 L 837.2970000000001,339.37200000000007 L 836.9000000000001,339.52200000000005 L 836.6460000000001,339.96000000000004 L 836.3670000000001,340.208 L 836.0350000000001,340.35900000000004 L 835.7860000000001,340.55300000000005 L 835.23,340.56500000000005 L 834.837,340.70000000000005 L 834.558,341.06300000000005 L 833.7189999999999,341.47800000000007 L 833.6049999999999,341.79100000000005 L 833.661,342.2730000000001 L 833.6659999999999,342.6420000000001 L 833.593,342.9450000000001 L 833.409,342.8600000000001 L 833.31,342.9590000000001 L 833.2009999999999,343.2390000000001 L 833.2319999999999,343.5570000000001 L 833.5199999999999,343.6600000000001 L 833.7549999999999,343.7900000000001 L 834.0859999999999,343.85600000000005 L 834.3309999999999,344.00300000000004 L 834.8519999999999,344.67300000000006 L 835.2769999999998,344.96500000000003 L 835.3869999999998,345.07300000000004 L 835.6309999999999,345.22 L 835.8559999999999,345.45000000000005 L 835.9829999999998,345.65600000000006 L 835.8839999999998,345.71200000000005 L 835.7149999999998,346.01300000000003 L 835.5569999999998,346.394 L 835.4049999999997,346.6 L 835.2299999999998,346.714 L 835.0409999999998,346.781 L 834.6659999999998,346.81 L 834.3269999999998,346.784 L 834.2179999999997,346.743 L 833.7519999999997,346.767 L 833.6199999999998,346.794 L 832.9509999999998,346.765 L 832.6009999999998,346.796 L 832.3779999999998,346.87 L 832.1509999999998,347.024 L 831.9559999999998,347.255 L 831.7839999999998,347.502 L 831.4339999999997,347.95300000000003 L 831.1889999999997,348.172 L 831.1879999999998,348.488 L 831.1819999999998,348.584 L 831.0959999999998,348.651 L 831.0669999999998,348.622 L 830.9249999999997,348.599 L 830.3559999999998,348.31 L 829.8869999999997,348.486 L 829.7689999999997,348.715 L 829.6449999999996,348.789 L 829.4579999999996,348.34 L 829.1529999999997,348.32599999999996 L 828.6689999999996,347.92999999999995 L 828.4609999999997,348.01099999999997 L 828.4079999999997,348.16999999999996 L 828.1419999999997,348.53399999999993 L 827.7709999999997,348.83399999999995 L 827.6509999999997,348.87399999999997 L 827.5139999999998,348.85299999999995 L 827.5339999999998,348.7699999999999 L 827.3829999999998,348.43299999999994 L 826.7969999999998,348.2969999999999 L 826.5859999999998,348.1529999999999 L 826.4789999999998,348.1219999999999 L 827.0529999999998,347.7449999999999 L 827.2029999999997,347.6779999999999 L 827.0909999999998,347.58999999999986 L 826.9669999999998,347.54699999999985 L 826.4959999999998,347.60299999999984 L 826.2499999999998,347.4789999999998 L 825.8919999999998,347.51899999999983 L 825.6429999999998,347.4209999999998 L 826.1589999999998,347.04999999999984 L 826.1819999999998,346.83099999999985 L 826.1759999999998,346.6639999999999 L 826.4369999999998,346.16999999999985 L 826.6999999999998,345.8969999999998 L 827.3809999999999,345.5079999999998 L 827.6769999999999,345.45399999999984 L 827.8919999999999,345.46999999999986 L 828.068,345.43399999999986 L 827.883,345.28499999999985 L 827.702,345.21699999999987 L 827.35,345.2309999999999 L 826.985,345.0069999999999 L 826.953,344.76999999999987 L 827.661,343.2689999999999 L 827.6709999999999,343.1319999999999 L 827.5609999999999,342.7649999999999 L 827.525,342.40699999999987 L 827.0169999999999,342.20099999999985 L 826.7919999999999,342.1759999999999 L 826.141,341.7709999999999 L 825.881,341.5659999999999 L 825.778,341.6269999999999 L 825.759,341.9509999999999 L 825.666,342.0229999999999 L 825.495,342.0859999999999 L 825.409,341.7159999999999 L 825.268,341.4479999999999 L 824.836,341.1749999999999 L 824.682,341.0249999999999 L 824.756,340.6989999999999 L 824.72,340.6699999999999 L 824.788,340.3039999999999 L 825.053,340.0209999999999 L 825.702,339.5169999999999 L 825.869,339.27999999999986 L 826.1990000000001,339.00099999999986 L 826.3470000000001,339.00699999999983 L 826.5000000000001,338.98299999999983 L 826.5460000000002,338.8609999999998 L 826.5810000000001,338.7649999999998 L 826.7130000000001,338.6779999999998 L 827.0300000000001,338.52399999999983 L 827.3900000000001,338.32099999999986 L 827.6780000000001,338.26399999999984 L 828.0310000000001,337.95899999999983 L 828.1750000000001,337.8249999999998 L 828.32,337.8249999999998 L 828.359,337.76199999999983 L 828.441,337.6039999999998 L 828.553,337.49999999999983 L 828.709,337.47999999999985 L 828.9639999999999,337.40499999999986 L 829.284,337.35899999999987 L 829.502,337.10199999999986 L 829.5759999999999,336.91799999999984 L 829.7209999999999,336.71599999999984 L 830.0269999999999,336.49499999999983 L 830.2379999999999,336.16799999999984 L 830.4709999999999,335.8129999999998 L 830.5819999999999,335.69899999999984 L 830.6909999999999,335.6759999999998 L 830.7549999999999,335.5419999999998 L 830.8299999999999,335.1629999999998 L 830.9369999999999,334.79399999999976 L 830.9999999999999,334.6199999999998 L 831.2699999999999,334.4299999999998 L 831.3379999999999,334.33699999999976 L 831.3989999999999,334.30599999999976 L 831.5239999999999,334.33099999999973 L 831.6919999999999,334.2189999999997 L 831.8489999999999,334.0949999999997 L 831.9929999999999,334.1379999999997 L 832.1389999999999,334.2409999999997 L 832.2909999999999,334.4459999999997 L 832.3589999999999,334.6089999999997 L 832.4789999999999,334.7449999999997 L 832.502,334.9429999999997 L 832.6229999999999,335.0289999999997 L 832.8789999999999,335.0719999999997 L 833.2979999999999,335.2069999999997 L 833.5689999999998,335.2139999999997 L 833.7239999999998,335.3149999999997 L 834.0479999999998,335.3699999999997 L 834.6959999999998,335.2909999999997 L 834.9609999999998,335.3369999999997 L 835.0719999999998,335.46099999999973 L 835.2359999999998,335.55899999999974 L 835.3429999999997,335.5649999999997 L 835.4859999999998,335.39599999999973 L 835.6389999999998,335.12199999999973 L 835.7399999999998,334.91199999999975 L 835.7359999999998,334.7449999999998 L 835.6469999999997,334.56499999999977 L 835.4339999999997,334.3979999999998 L 835.2929999999998,334.1389999999998 L 835.1589999999998,333.8709999999998 L 835.0799999999998,333.7839999999998 L 835.0159999999998,333.6539999999998 L 835.0039999999999,333.45399999999984 L 835.05,333.31899999999985 L 835.3729999999999,333.22899999999987 L 835.7869999999999,333.1759999999999 L 836.122,333.2329999999999 L 836.6819999999999,333.1949999999999 L 837.026,333.1199999999999 L 837.281,333.1309999999999 L 837.515,333.12999999999994 L 837.619,333.01499999999993 L 837.946,332.73799999999994 L 838.104,332.63899999999995 L 838.278,332.45099999999996 L 838.3050000000001,332.25399999999996 L 838.34,332.09399999999994 L 838.438,331.9239999999999 L 838.61,331.7129999999999 L 838.756,331.61599999999993 L 838.919,331.6289999999999 L 839.09,331.7259999999999 L 839.1990000000001,331.82299999999987 L 839.3220000000001,331.79499999999985 L 839.4250000000001,331.62899999999985 L 839.4920000000001,331.59699999999987 L 839.6870000000001,331.5819999999999 L 839.7500000000001,331.4799999999999 L 839.8250000000002,330.99099999999993 L 839.9000000000002,330.6049999999999 L 839.9160000000002,330.3339999999999 L 840.0910000000001,329.8849999999999 L 840.1470000000002,329.61399999999986 L 840.2510000000002,329.4879999999999 L 840.3710000000002,329.4969999999999 L 840.4720000000002,329.5769999999999 L 840.5990000000002,329.6229999999999 L 840.7680000000001,329.5789999999999 L 840.8870000000002,329.6479999999999 L 840.9610000000001,329.7939999999999 L 841.2110000000001,329.89399999999995 L 841.2340000000002,329.9669999999999 L 841.2280000000002,330.45399999999995 L 841.3650000000001,330.68199999999996 L 841.5490000000001,330.888 L 841.8000000000001,331.075 L 841.9350000000001,331.11699999999996 L 842.021,331.254 M 826.244,342.374 L 826.087,342.478 L 826.078,342.29200000000003 L 826.1999999999999,342.13500000000005 L 826.3269999999999,342.11400000000003 L 826.244,342.374" id="KP" title="North Korea"/>
</svg>
