<svg xmlns="http://www.w3.org/2000/svg" xmlns:ev="http://www.w3.org/2001/xml-events" xmlns:xlink="http://www.w3.org/1999/xlink" baseProfile="full" height="18.72100830078125" version="1.1" viewBox="829.3380126953125 345.65899658203125 13.82696533203125 18.72100830078125" width="13.82696533203125" fill="#00394f">
	<defs/>
	<path class="land" d="M 831.096,348.654 L 831.182,348.587 L 831.188,348.491 L 831.189,348.175 L 831.434,347.956 L 831.784,347.505 L 831.956,347.258 L 832.1510000000001,347.027 L 832.378,346.873 L 832.601,346.799 L 832.951,346.768 L 833.62,346.79699999999997 L 833.752,346.77 L 834.218,346.746 L 834.327,346.787 L 834.666,346.813 L 835.041,346.784 L 835.23,346.717 L 835.405,346.603 L 835.557,346.397 L 835.715,346.016 L 835.884,345.71500000000003 L 835.9830000000001,345.65900000000005 L 836.6690000000001,347.2540000000001 L 837.3240000000001,348.2800000000001 L 837.883,349.0200000000001 L 838.6790000000001,350.4390000000001 L 838.912,351.19500000000005 L 838.9340000000001,351.66200000000003 L 839.0670000000001,352.30300000000005 L 838.9540000000001,352.6700000000001 L 838.9870000000001,353.24700000000007 L 838.9370000000001,353.54300000000006 L 838.8390000000002,353.7610000000001 L 838.8360000000001,354.1790000000001 L 838.8670000000001,354.4020000000001 L 838.8700000000001,354.6980000000001 L 838.9330000000001,354.8130000000001 L 839.0240000000001,354.8550000000001 L 839.1690000000001,354.74800000000005 L 839.3460000000001,354.70300000000003 L 839.3150000000002,355.05800000000005 L 839.1010000000001,355.95500000000004 L 838.9150000000001,356.60600000000005 L 838.662,357.172 L 838.34,357.689 L 837.9540000000001,357.891 L 837.6830000000001,357.963 L 837.1650000000001,357.98900000000003 L 836.7350000000001,357.90200000000004 L 836.3660000000001,357.96500000000003 L 836.2180000000001,358.07200000000006 L 836.1080000000001,358.2560000000001 L 836.1890000000001,358.5410000000001 L 836.1780000000001,358.7510000000001 L 836.0200000000001,358.73500000000007 L 835.7070000000001,358.61300000000006 L 835.3600000000001,358.59600000000006 L 835.1980000000001,358.5350000000001 L 835.0340000000001,358.2340000000001 L 834.8670000000001,358.2450000000001 L 834.5770000000001,358.4240000000001 L 834.1330000000002,358.4640000000001 L 833.9770000000002,358.5610000000001 L 833.9210000000002,358.6860000000001 L 833.9850000000001,358.8440000000001 L 834.2090000000002,359.0510000000001 L 834.1340000000001,359.2600000000001 L 833.9020000000002,359.3640000000001 L 833.7140000000002,359.1070000000001 L 833.5970000000002,358.8550000000001 L 833.4660000000002,358.84100000000007 L 833.2620000000003,358.91300000000007 L 833.2210000000002,359.18500000000006 L 833.3160000000003,359.37000000000006 L 833.4720000000002,359.58500000000004 L 833.2530000000002,359.83200000000005 L 833.1950000000002,360.00800000000004 L 833.0380000000001,360.134 L 832.6140000000001,359.853 L 832.6750000000002,359.653 L 832.8590000000002,359.461 L 832.8810000000002,359.261 L 832.8200000000002,359.14300000000003 L 832.2140000000002,359.64700000000005 L 831.8400000000001,360.21700000000004 L 831.6400000000001,360.17500000000007 L 831.5570000000001,360.02900000000005 L 831.4400000000002,359.96900000000005 L 831.0360000000002,360.33600000000007 L 830.9620000000002,360.62700000000007 L 830.8140000000002,360.6380000000001 L 830.7490000000001,360.5150000000001 L 830.7440000000001,360.2510000000001 L 830.6750000000002,360.0290000000001 L 830.2560000000002,359.7050000000001 L 830.0660000000001,359.4210000000001 L 830.1690000000001,359.2620000000001 L 830.5190000000001,359.3480000000001 L 830.7960000000002,359.3370000000001 L 830.7410000000002,359.2020000000001 L 830.6500000000002,359.1380000000001 L 830.8350000000002,359.06200000000007 L 830.9890000000001,358.9070000000001 L 830.8610000000001,358.8650000000001 L 830.6670000000001,358.9550000000001 L 830.5050000000001,358.9110000000001 L 830.4410000000001,358.5380000000001 L 830.2440000000001,358.15500000000014 L 830.1410000000002,357.78300000000013 L 830.3360000000002,357.56900000000013 L 830.4350000000003,357.2350000000001 L 830.6170000000003,356.75100000000015 L 830.7080000000003,356.59400000000016 L 830.9590000000003,356.4800000000002 L 831.0480000000003,356.3550000000002 L 830.9100000000003,356.29100000000017 L 830.6900000000003,356.23400000000015 L 830.6950000000003,356.09400000000016 L 830.8450000000003,356.01800000000014 L 831.0130000000003,355.86300000000017 L 831.3370000000002,355.6750000000002 L 831.4380000000002,355.32000000000016 L 831.3440000000002,355.2300000000002 L 831.1410000000002,355.1460000000002 L 831.1870000000002,354.9660000000002 L 831.2710000000002,354.8290000000002 L 831.2390000000001,354.7470000000002 L 831.0000000000001,354.51500000000016 L 830.8420000000001,354.30400000000014 L 830.8890000000001,354.06300000000016 L 830.8530000000002,353.69800000000015 L 830.8740000000001,353.39100000000013 L 830.8630000000002,353.22400000000016 L 830.7460000000002,352.84900000000016 L 830.6930000000002,352.47200000000015 L 830.5400000000002,352.52700000000016 L 830.4160000000002,352.62100000000015 L 829.9730000000002,352.48800000000017 L 829.8320000000002,352.4800000000002 L 829.7750000000002,352.2000000000002 L 829.9340000000002,351.8550000000002 L 830.3110000000001,351.5500000000002 L 830.5280000000001,351.51200000000017 L 830.6910000000001,351.37800000000016 L 830.9460000000001,351.3360000000002 L 831.2520000000002,351.5440000000002 L 831.5260000000002,351.5860000000002 L 831.6780000000002,351.9430000000002 L 831.7720000000003,352.01900000000023 L 831.7920000000003,351.88800000000026 L 832.0140000000002,351.73400000000026 L 832.0670000000002,351.6180000000003 L 832.0190000000002,351.55400000000026 L 831.7640000000002,351.49100000000027 L 831.5350000000002,351.04700000000025 L 831.5030000000002,350.85200000000026 L 831.4200000000002,350.72800000000024 L 831.5430000000002,350.37200000000024 L 831.2780000000002,349.96500000000026 L 831.1490000000002,349.8370000000003 L 831.1680000000002,349.47000000000025 L 831.0300000000002,349.23700000000025 L 830.9530000000002,349.10900000000026 L 830.9060000000002,348.8870000000003 L 830.9460000000001,348.78700000000026 L 831.0660000000001,348.74900000000025 L 831.096,348.654 M 830.778,348.813 L 830.765,349.28 L 830.61,349.26 L 830.505,349.21299999999997 L 830.46,349.12199999999996 L 830.354,348.68899999999996 L 830.4730000000001,348.51 L 830.7020000000001,348.652 L 830.778,348.813 M 843.114,349.725 L 842.986,349.829 L 842.835,349.725 L 842.816,349.61400000000003 L 842.895,349.51800000000003 L 843.079,349.46000000000004 L 843.165,349.54400000000004 L 843.114,349.725 M 830.488,353.173 L 830.45,353.398 L 830.264,353.25 L 830.21,352.756 L 830.4010000000001,352.9 L 830.488,353.173 M 837.01,358.999 L 836.745,359.209 L 836.388,358.927 L 836.303,358.77200000000005 L 836.574,358.54300000000006 L 836.804,358.28200000000004 L 836.9549999999999,358.266 L 837.01,358.999 M 835.114,358.974 L 835.0830000000001,359.307 L 834.8850000000001,359.324 L 834.767,359.11 L 834.6410000000001,359.214 L 834.576,359.216 L 834.476,358.949 L 834.459,358.741 L 834.6919999999999,358.582 L 834.834,358.677 L 835.036,358.726 L 835.114,358.974 M 829.8,359.228 L 829.7629999999999,359.31 L 829.641,359.286 L 829.515,359.052 L 829.463,358.86600000000004 L 829.338,358.76400000000007 L 829.5369999999999,358.60300000000007 L 829.79,358.8930000000001 L 829.8,359.228 M 834.366,359.622 L 834.334,359.72700000000003 L 834.1919999999999,359.56800000000004 L 834.3329999999999,359.39400000000006 L 834.366,359.622 M 829.973,360.451 L 829.793,360.50300000000004 L 829.692,360.386 L 829.622,360.355 L 829.6619999999999,360.202 L 829.954,359.901 L 830.012,359.797 L 830.2829999999999,359.86 L 830.3839999999999,360.02000000000004 L 830.2599999999999,360.26200000000006 L 829.973,360.451 M 831.431,360.541 L 831.4780000000001,360.702 L 831.2510000000001,360.672 L 831.1310000000001,360.51700000000005 L 831.147,360.38400000000007 L 831.282,360.36500000000007 L 831.431,360.541 M 830.234,364.306 L 830.1080000000001,364.38 L 829.9910000000001,364.336 L 829.9600000000002,364.301 L 829.8180000000001,364.11 L 829.7820000000002,364.012 L 829.8770000000002,363.824 L 830.2650000000002,363.515 L 831.2690000000002,363.217 L 831.4500000000003,363.204 L 831.8460000000002,363.332 L 831.9310000000003,363.57099999999997 L 831.8580000000003,363.777 L 831.7670000000003,363.91499999999996 L 831.3080000000003,364.147 L 830.9500000000004,364.258 L 830.234,364.306" id="KR" title="South Korea"/>
</svg>
