<svg xmlns="http://www.w3.org/2000/svg" xmlns:ev="http://www.w3.org/2001/xml-events" xmlns:xlink="http://www.w3.org/1999/xlink" baseProfile="full" height="5.009002685546875" version="1.1" viewBox="606.291015625 374.5679931640625 5.36297607421875 5.009002685546875" width="5.36297607421875">
	<defs/>
	<path class="land" d="M 610.351,374.936 L 610.337,375.055 L 610.427,375.41 L 610.628,375.797 L 610.793,376.11 L 610.814,376.257 L 610.663,376.236 L 610.548,376.17699999999996 L 610.327,376.11499999999995 L 609.9,376.53 L 609.6419999999999,376.756 L 609.635,376.83299999999997 L 609.979,376.91999999999996 L 610.2320000000001,376.91799999999995 L 610.4080000000001,376.85699999999997 L 610.5570000000001,376.95399999999995 L 610.6550000000001,377.2099999999999 L 610.6940000000001,377.41799999999995 L 610.9280000000001,378.1569999999999 L 611.1220000000001,378.40599999999995 L 611.364,378.84599999999995 L 611.4540000000001,379.07399999999996 L 611.5060000000001,379.26499999999993 L 611.6540000000001,379.5469999999999 L 611.166,379.5539999999999 L 610.551,379.5639999999999 L 610.052,379.5699999999999 L 609.489,379.5769999999999 L 609.241,379.2759999999999 L 609.158,378.9459999999999 L 609.068,378.6069999999999 L 608.821,378.12299999999993 L 607.995,378.0059999999999 L 607.556,377.9429999999999 L 606.8330000000001,377.85099999999994 L 606.291,377.7819999999999 L 606.7470000000001,377.25999999999993 L 606.9590000000001,376.9789999999999 L 607.3420000000001,376.36999999999995 L 607.5390000000001,375.93499999999995 L 607.7290000000002,375.45199999999994 L 607.8930000000001,375.07599999999996 L 607.9270000000001,375.00699999999995 L 608.0220000000002,374.87899999999996 L 608.2320000000002,374.748 L 608.5350000000002,374.625 L 609.0500000000002,374.571 L 609.4120000000001,374.56800000000004 L 609.4940000000001,374.574 L 609.7220000000001,374.635 L 610.351,374.936 M 611.184,376.089 L 611.023,376.161 L 610.9150000000001,376.13 L 610.811,375.957 L 610.64,375.527 L 610.733,375.366 L 610.7299999999999,375.29699999999997 L 610.7489999999999,375.24499999999995 L 610.8019999999999,375.21199999999993 L 610.8569999999999,375.00899999999996 L 610.9309999999998,374.94699999999995 L 611.0509999999998,375.08399999999995 L 611.3889999999998,375.57899999999995 L 611.3869999999998,375.78099999999995 L 611.3669999999998,375.86199999999997 L 611.184,376.089" id="KW" title="Kuwait"/>
</svg>
