<svg xmlns="http://www.w3.org/2000/svg" xmlns:ev="http://www.w3.org/2001/xml-events" xmlns:xlink="http://www.w3.org/1999/xlink" baseProfile="full" height="1.459991455078125" version="1.1" viewBox="247.19700622558594 406.4280090332031 4.70599365234375 1.459991455078125" width="4.70599365234375">
	<defs/>
	<path class="land" d="M 251.676,406.588 L 251.545,406.63300000000004 L 251.44299999999998,406.61500000000007 L 251.67299999999997,406.4920000000001 L 251.73199999999997,406.4500000000001 L 251.78299999999996,406.4280000000001 L 251.83599999999996,406.4280000000001 L 251.90299999999996,406.4530000000001 L 251.90299999999996,406.4720000000001 L 251.676,406.588 M 251.24,406.599 L 251.21200000000002,406.616 L 251.122,406.603 L 250.91600000000003,406.724 L 250.82700000000003,406.717 L 250.854,406.675 L 250.89700000000002,406.635 L 250.94500000000002,406.606 L 250.99,406.594 L 251.13400000000001,406.57 L 251.20200000000003,406.567 L 251.24900000000002,406.594 L 251.24,406.599 M 247.337,407.662 L 247.428,407.719 L 247.542,407.68399999999997 L 247.575,407.621 L 248.00799999999998,407.667 L 248.07299999999998,407.78999999999996 L 247.74299999999997,407.79299999999995 L 247.59499999999997,407.87199999999996 L 247.52099999999996,407.888 L 247.23799999999997,407.86899999999997 L 247.19699999999997,407.58399999999995 L 247.27599999999998,407.554 L 247.337,407.662" id="KY" title="Cayman Islands"/>
</svg>
