<svg xmlns="http://www.w3.org/2000/svg" xmlns:ev="http://www.w3.org/2001/xml-events" xmlns:xlink="http://www.w3.org/1999/xlink" baseProfile="full" height="62.415008544921875" version="1.1" viewBox="606.510986328125 276.0379943847656 114.259033203125 62.415008544921875" width="114.259033203125" fill="#00394f">
	<defs/>
	<path class="land" d="M 720.77,304.921 L 720.51,304.836 L 720.0,304.81800000000004 L 719.689,304.87100000000004 L 719.543,304.901 L 719.325,305.076 L 719.1700000000001,305.25 L 719.1020000000001,305.546 L 719.1840000000001,305.88 L 719.0720000000001,306.574 L 718.9200000000001,306.83500000000004 L 718.6,307.288 L 718.414,307.386 L 718.102,307.46700000000004 L 717.802,307.60100000000006 L 717.214,307.73100000000005 L 716.5790000000001,307.797 L 716.3530000000001,307.894 L 716.1920000000001,308.20300000000003 L 716.0780000000001,308.46000000000004 L 716.008,308.65600000000006 L 715.8280000000001,309.29400000000004 L 715.7260000000001,309.86300000000006 L 715.8260000000001,310.56800000000004 L 715.9010000000002,311.34900000000005 L 715.8960000000002,311.61800000000005 L 716.0510000000002,312.0160000000001 L 716.1290000000001,312.2600000000001 L 716.0920000000001,312.6060000000001 L 715.8690000000001,312.8780000000001 L 715.7350000000001,313.2380000000001 L 715.6090000000002,313.39100000000013 L 715.2460000000001,313.46000000000015 L 714.9040000000001,313.5020000000001 L 714.5590000000001,313.81100000000015 L 714.2830000000001,314.02400000000017 L 713.8510000000001,314.2950000000002 L 713.6480000000001,314.3460000000002 L 713.5360000000002,314.2080000000002 L 713.4620000000002,313.9010000000002 L 713.3140000000002,313.76500000000016 L 713.1050000000002,313.75400000000013 L 712.9370000000002,313.75100000000015 L 712.3940000000002,313.6680000000001 L 712.0460000000003,313.6740000000001 L 711.7850000000003,313.74000000000007 L 711.4870000000003,313.7730000000001 L 710.9720000000003,313.66100000000006 L 710.6390000000004,313.56600000000003 L 710.4150000000003,313.475 L 709.8800000000003,313.206 L 709.1770000000004,312.886 L 708.8890000000004,312.79200000000003 L 708.7180000000003,312.88800000000003 L 708.6920000000003,313.071 L 708.6470000000004,313.514 L 708.5650000000004,313.791 L 708.0750000000004,315.187 L 707.7720000000004,316.153 L 707.3870000000004,317.076 L 707.2650000000004,317.69300000000004 L 707.0350000000004,318.47200000000004 L 706.8060000000004,319.035 L 706.7130000000004,319.341 L 706.7050000000004,319.466 L 706.7450000000003,319.641 L 707.0960000000003,319.832 L 707.4640000000004,319.949 L 707.5450000000004,320.022 L 707.5850000000004,320.21999999999997 L 707.5710000000004,320.544 L 707.5040000000004,320.84999999999997 L 707.3980000000004,321.09 L 707.2930000000003,321.209 L 707.1730000000003,321.216 L 706.9430000000003,321.062 L 706.7380000000003,320.89 L 706.5790000000003,320.83799999999997 L 706.1750000000003,320.93399999999997 L 705.8010000000003,321.06499999999994 L 705.6760000000003,321.06899999999996 L 705.4590000000003,320.98499999999996 L 705.2400000000002,320.811 L 705.1530000000002,320.474 L 704.9650000000003,320.32099999999997 L 704.7130000000003,320.474 L 703.9630000000003,320.731 L 703.1370000000003,321.037 L 702.6120000000003,321.195 L 702.4070000000003,321.171 L 702.0,321.207 L 701.647,321.292 L 701.3820000000001,321.40999999999997 L 700.859,321.573 L 700.384,321.68199999999996 L 700.078,321.929 L 699.858,322.167 L 699.867,322.25699999999995 L 700.0269999999999,322.39799999999997 L 700.2099999999999,322.508 L 700.5759999999999,322.48199999999997 L 700.9329999999999,322.465 L 701.2299999999999,322.614 L 701.4959999999999,322.71 L 701.5689999999998,322.834 L 701.4959999999999,322.955 L 701.3419999999999,322.983 L 701.2879999999999,323.067 L 701.3149999999999,323.18 L 701.213,323.474 L 701.16,323.919 L 701.213,324.35699999999997 L 701.242,324.76 L 701.223,324.96299999999997 L 701.213,325.25199999999995 L 701.326,325.44699999999995 L 701.427,325.8179999999999 L 701.6080000000001,326.04999999999995 L 701.8810000000001,326.852 L 702.042,327.31899999999996 L 702.19,327.847 L 702.0830000000001,328.132 L 702.09,328.297 L 702.264,328.435 L 702.34,328.704 L 702.421,328.868 L 702.399,329.031 L 702.325,329.094 L 701.9480000000001,328.995 L 701.6390000000001,329.158 L 701.3110000000001,329.322 L 701.2670000000002,329.409 L 701.2580000000002,329.504 L 701.2910000000002,329.58700000000005 L 701.4800000000001,329.73300000000006 L 701.7410000000001,329.82400000000007 L 701.7280000000001,329.9700000000001 L 701.4050000000001,330.0370000000001 L 700.9180000000001,330.2600000000001 L 700.7830000000001,330.4990000000001 L 700.6790000000001,330.76200000000006 L 700.6700000000001,330.91400000000004 L 700.719,331.321 L 700.793,331.771 L 700.932,332.245 L 700.943,332.391 L 700.871,332.495 L 700.804,332.562 L 700.417,332.135 L 699.995,331.718 L 699.665,331.622 L 699.0899999999999,331.553 L 698.785,331.55 L 698.612,331.451 L 698.442,331.209 L 698.239,330.99 L 697.979,330.758 L 697.873,330.404 L 697.7660000000001,330.341 L 697.5780000000001,330.386 L 697.2640000000001,330.375 L 697.0880000000001,330.344 L 696.825,330.283 L 696.4060000000001,330.13800000000003 L 696.075,330.00100000000003 L 695.658,329.975 L 695.418,330.002 L 694.669,330.028 L 694.047,329.884 L 693.544,329.858 L 693.234,329.866 L 693.086,329.848 L 692.832,329.849 L 692.458,329.818 L 691.958,329.596 L 691.764,329.585 L 691.641,329.59299999999996 L 690.805,329.756 L 690.42,329.794 L 689.603,329.775 L 688.8009999999999,329.757 L 688.5429999999999,329.723 L 688.3999999999999,329.74 L 688.0969999999999,330.13100000000003 L 687.9669999999999,330.192 L 687.2109999999999,330.107 L 686.3169999999999,329.85 L 685.6709999999999,329.56800000000004 L 685.1229999999999,329.26900000000006 L 684.3969999999999,328.7970000000001 L 683.963,328.5640000000001 L 683.9,328.6980000000001 L 683.785,328.7410000000001 L 683.6179999999999,328.7620000000001 L 683.233,328.7380000000001 L 683.055,328.9770000000001 L 682.5849999999999,329.1480000000001 L 682.286,329.3010000000001 L 682.13,329.4740000000001 L 681.832,330.6170000000001 L 681.752,331.03400000000005 L 681.952,331.73400000000004 L 681.723,331.69300000000004 L 681.454,331.51400000000007 L 681.361,331.37300000000005 L 681.102,331.28700000000003 L 680.16,331.15700000000004 L 679.9839999999999,330.99600000000004 L 679.8739999999999,330.86500000000007 L 679.6299999999999,330.77900000000005 L 679.2849999999999,330.7130000000001 L 678.5349999999999,330.4090000000001 L 678.2149999999998,330.3980000000001 L 677.2469999999998,330.1640000000001 L 677.0889999999998,330.1660000000001 L 677.0169999999998,330.1760000000001 L 676.6409999999998,330.3290000000001 L 676.3979999999998,330.3730000000001 L 676.1389999999998,330.3110000000001 L 675.6749999999997,330.5000000000001 L 675.4239999999998,330.7520000000001 L 675.2169999999998,331.0600000000001 L 675.0189999999998,331.25400000000013 L 674.9599999999998,331.54400000000015 L 674.8199999999998,331.69400000000013 L 674.6529999999998,331.99400000000014 L 674.6529999999998,332.16900000000015 L 674.8039999999997,332.33900000000017 L 674.5619999999998,332.49600000000015 L 674.2929999999998,332.54500000000013 L 674.1539999999998,332.64100000000013 L 674.0059999999997,332.8720000000001 L 673.8679999999997,333.0700000000001 L 673.7869999999997,333.1400000000001 L 673.6629999999997,333.1270000000001 L 673.5189999999997,332.9730000000001 L 673.3139999999996,332.98000000000013 L 673.0699999999996,333.17000000000013 L 672.7799999999996,333.47900000000016 L 672.4149999999996,333.95000000000016 L 672.0339999999997,334.20000000000016 L 671.5519999999997,334.41200000000015 L 671.2029999999996,334.50600000000014 L 670.9269999999997,334.66700000000014 L 670.4659999999997,334.99300000000017 L 670.3739999999997,335.1850000000002 L 670.0399999999997,335.2980000000002 L 669.7709999999997,335.42800000000017 L 669.5219999999997,335.64500000000015 L 669.4609999999997,336.02800000000013 L 669.3029999999997,336.24800000000016 L 668.9219999999997,336.54900000000015 L 668.6019999999996,336.8530000000001 L 668.3929999999997,337.1510000000001 L 668.1719999999997,337.4660000000001 L 668.1029999999997,337.6390000000001 L 668.0949999999997,337.87600000000015 L 668.1989999999997,338.07500000000016 L 668.2189999999997,338.2640000000002 L 668.1399999999998,338.4010000000002 L 667.9239999999998,338.4530000000002 L 667.6979999999998,338.4130000000002 L 667.3509999999998,338.2780000000002 L 666.9819999999997,338.0360000000002 L 666.8469999999998,337.91700000000014 L 666.6659999999997,337.71300000000014 L 666.6919999999997,337.5240000000001 L 666.7849999999996,337.1550000000001 L 666.8479999999996,336.9020000000001 L 666.6979999999996,336.7810000000001 L 666.5869999999996,336.6510000000001 L 666.5079999999997,336.5260000000001 L 666.3519999999997,336.2790000000001 L 666.1559999999997,336.3400000000001 L 665.9859999999998,336.40100000000007 L 665.7889999999998,336.3140000000001 L 665.2079999999997,336.3520000000001 L 664.7699999999998,336.3800000000001 L 664.3579999999997,336.4060000000001 L 663.8359999999997,336.4400000000001 L 663.2059999999997,336.4810000000001 L 663.0249999999996,336.42700000000013 L 662.9119999999996,336.34500000000014 L 662.7979999999995,336.00400000000013 L 662.7319999999995,335.7140000000001 L 662.6099999999996,335.1710000000001 L 662.5279999999996,334.7500000000001 L 662.4309999999996,334.2480000000001 L 662.3669999999996,333.6920000000001 L 662.3209999999996,333.2960000000001 L 661.8439999999996,333.28300000000013 L 661.4629999999996,333.27300000000014 L 660.9479999999996,333.2590000000001 L 660.9519999999997,332.94300000000015 L 660.9579999999996,332.54400000000015 L 660.9649999999996,332.08900000000017 L 661.0609999999996,331.49100000000016 L 661.0969999999995,330.98900000000015 L 661.1419999999995,330.37400000000014 L 661.1699999999995,329.96700000000016 L 661.2019999999995,329.51800000000014 L 660.9359999999996,329.65700000000015 L 660.6429999999996,329.8100000000002 L 660.3679999999996,329.95300000000015 L 660.1789999999996,329.59000000000015 L 659.9949999999997,329.23600000000016 L 659.7159999999997,328.6970000000002 L 659.5069999999997,328.2930000000002 L 659.1439999999997,328.05600000000015 L 658.8729999999997,327.88100000000014 L 658.5939999999997,327.5860000000001 L 658.3529999999997,327.2790000000001 L 658.1239999999997,326.98700000000014 L 657.8499999999997,326.73400000000015 L 657.5869999999996,326.81400000000014 L 657.2899999999996,326.9730000000001 L 657.0039999999997,327.1250000000001 L 656.7009999999997,327.2870000000001 L 656.5529999999997,327.3660000000001 L 656.2009999999997,327.3360000000001 L 655.8939999999997,327.3100000000001 L 655.3449999999997,327.2630000000001 L 654.8819999999997,327.22300000000007 L 654.4089999999998,327.1820000000001 L 653.7499999999998,327.12500000000006 L 653.0819999999998,327.06800000000004 L 652.6359999999997,327.14400000000006 L 652.0699999999997,327.2390000000001 L 651.4759999999997,327.3390000000001 L 650.9849999999997,327.42200000000014 L 650.3629999999997,327.5260000000001 L 649.8979999999997,327.6040000000001 L 649.6689999999996,327.5930000000001 L 649.3809999999996,327.2650000000001 L 648.9189999999996,326.7380000000001 L 648.6399999999996,326.4180000000001 L 648.3659999999996,326.1040000000001 L 647.9699999999997,325.6510000000001 L 647.6519999999997,325.30700000000013 L 647.3409999999997,324.9710000000001 L 647.1619999999997,324.66000000000014 L 647.0729999999996,324.26800000000014 L 646.9109999999996,324.09000000000015 L 646.5509999999996,323.85000000000014 L 646.1629999999996,323.59200000000016 L 645.7749999999995,323.3340000000002 L 645.3869999999995,323.0760000000002 L 644.9989999999995,322.8170000000002 L 644.6109999999994,322.55800000000016 L 644.2229999999994,322.29900000000015 L 643.8349999999994,322.03900000000016 L 643.4469999999993,321.77900000000017 L 643.0589999999993,321.5190000000002 L 642.6709999999993,321.25800000000015 L 642.292,321.0 L 641.904,320.739 L 641.516,320.477 L 641.1279999999999,320.215 L 640.7399999999999,319.953 L 640.3519999999999,319.691 L 640.0329999999999,319.5 L 639.7359999999999,319.55 L 639.2919999999999,319.684 L 638.8259999999999,319.824 L 638.3649999999999,319.963 L 637.5389999999999,320.211 L 637.0079999999999,320.37100000000004 L 636.593,320.50500000000005 L 636.151,320.648 L 635.5709999999999,320.83500000000004 L 635.0849999999999,320.992 L 634.516,321.17600000000004 L 634.011,321.33900000000006 L 633.587,321.4750000000001 L 633.145,321.61800000000005 L 632.795,321.7300000000001 L 632.795,322.6360000000001 L 632.795,323.53800000000007 L 632.7959999999999,324.43700000000007 L 632.7959999999999,325.3330000000001 L 632.7959999999999,326.2250000000001 L 632.7969999999999,327.11300000000006 L 632.7969999999999,327.99800000000005 L 632.7969999999999,328.879 L 632.7969999999999,329.757 L 632.7979999999999,330.632 L 632.7979999999999,331.504 L 632.7979999999999,332.37300000000005 L 632.7989999999999,333.23800000000006 L 632.7989999999999,334.1000000000001 L 632.7989999999999,334.95900000000006 L 632.7999999999998,335.81500000000005 L 632.6799999999998,335.80800000000005 L 632.4109999999998,335.85800000000006 L 631.9609999999998,335.9770000000001 L 631.5869999999998,336.0370000000001 L 631.423,336.0 L 631.276,335.911 L 631.1469999999999,335.723 L 630.9549999999999,335.494 L 630.7579999999999,335.30800000000005 L 630.5129999999999,334.9270000000001 L 630.343,334.63400000000007 L 629.924,333.9920000000001 L 629.865,333.7890000000001 L 629.787,333.5820000000001 L 629.647,333.4090000000001 L 629.153,332.9840000000001 L 628.578,332.6000000000001 L 628.014,332.22300000000007 L 627.855,332.1310000000001 L 627.591,332.01400000000007 L 627.266,332.01200000000006 L 627.044,332.0350000000001 L 626.3679999999999,332.1600000000001 L 625.8489999999999,332.3060000000001 L 625.146,332.5040000000001 L 624.601,332.72300000000007 L 624.479,332.7870000000001 L 624.081,333.0510000000001 L 623.594,333.4890000000001 L 623.0250000000001,334.1050000000001 L 622.9510000000001,333.70900000000006 L 622.9260000000002,333.09800000000007 L 622.9360000000001,332.90100000000007 L 623.0910000000001,332.3860000000001 L 623.2480000000002,332.0320000000001 L 623.3740000000001,331.66300000000007 L 623.4310000000002,331.18000000000006 L 623.3140000000002,330.40200000000004 L 623.1830000000002,330.22900000000004 L 623.0260000000002,330.17300000000006 L 622.8580000000002,330.15700000000004 L 622.5490000000002,330.189 L 622.4050000000002,330.252 L 622.1540000000002,329.98900000000003 L 621.8510000000002,329.94700000000006 L 621.6910000000003,330.02000000000004 L 621.5290000000002,330.05800000000005 L 621.3530000000002,329.98500000000007 L 621.2010000000001,329.82900000000006 L 621.1080000000002,329.66100000000006 L 621.0360000000002,329.47100000000006 L 620.7980000000001,329.08900000000006 L 620.5620000000001,328.88100000000003 L 620.2760000000002,328.83500000000004 L 619.8090000000002,328.84700000000004 L 619.6620000000001,328.821 L 619.6540000000001,328.60400000000004 L 619.7130000000001,328.124 L 619.714,327.87300000000005 L 619.681,327.636 L 619.6030000000001,327.44100000000003 L 619.504,327.27200000000005 L 619.226,326.994 L 619.016,326.60200000000003 L 618.665,325.793 L 618.358,324.88100000000003 L 618.223,324.74300000000005 L 617.949,324.59800000000007 L 617.3499999999999,324.4820000000001 L 616.9549999999999,324.3620000000001 L 616.8,324.2460000000001 L 616.7349999999999,324.0450000000001 L 616.7369999999999,323.82900000000006 L 616.7689999999999,323.57400000000007 L 616.8609999999999,323.35800000000006 L 617.1749999999998,323.1910000000001 L 617.8579999999998,323.1540000000001 L 618.4409999999998,323.1720000000001 L 618.9699999999998,323.5580000000001 L 619.1429999999998,323.64600000000013 L 619.3309999999998,323.6710000000001 L 619.7049999999998,323.5490000000001 L 619.8909999999998,323.51400000000007 L 620.3589999999998,323.5540000000001 L 620.2189999999998,323.3710000000001 L 620.0429999999998,323.2750000000001 L 619.8609999999998,323.2830000000001 L 619.7039999999997,323.2080000000001 L 619.4449999999997,322.8540000000001 L 618.9959999999998,322.4500000000001 L 618.8919999999997,322.28300000000013 L 618.8599999999997,322.01500000000016 L 618.9469999999997,321.78400000000016 L 619.2649999999996,321.54700000000014 L 619.5359999999996,321.22400000000016 L 619.6589999999997,320.7950000000002 L 619.7699999999996,320.5970000000002 L 619.9999999999997,320.28600000000023 L 620.3479999999996,320.34600000000023 L 620.8899999999996,320.1210000000002 L 621.7769999999996,320.1650000000002 L 622.8389999999996,320.10100000000017 L 623.1309999999996,320.1240000000002 L 623.8079999999997,320.3440000000002 L 624.1969999999997,320.43900000000025 L 624.6699999999996,320.48700000000025 L 625.0109999999996,320.39000000000027 L 624.6899999999996,320.09000000000026 L 623.9929999999996,319.73400000000026 L 623.8139999999996,319.4300000000003 L 624.1329999999996,318.6020000000003 L 624.5649999999996,317.8450000000003 L 624.8289999999996,316.9430000000003 L 624.7549999999997,316.04300000000035 L 624.6289999999997,315.7940000000003 L 624.6699999999997,315.5010000000003 L 624.8199999999997,315.2530000000003 L 624.9259999999997,315.0060000000003 L 624.8339999999997,314.7080000000003 L 624.6439999999997,314.2420000000003 L 624.5459999999997,314.0910000000003 L 624.2129999999997,313.8390000000003 L 623.5439999999998,313.82800000000026 L 622.9979999999997,313.6900000000003 L 622.8209999999997,313.8010000000003 L 622.7209999999997,313.9710000000003 L 622.5959999999997,314.0830000000003 L 622.1709999999997,314.3090000000003 L 622.0289999999997,314.3540000000003 L 621.8809999999996,314.3090000000003 L 621.6719999999997,314.0550000000003 L 621.4859999999996,314.0830000000003 L 620.9229999999997,313.9240000000003 L 620.6579999999997,313.5780000000003 L 620.5589999999996,313.5300000000003 L 619.6489999999997,313.2530000000003 L 619.3329999999996,313.20000000000033 L 618.6079999999996,313.48500000000035 L 618.0829999999996,313.85000000000036 L 617.9349999999996,313.90300000000036 L 617.6639999999996,314.13400000000036 L 617.5109999999996,314.17100000000033 L 617.3539999999996,314.1310000000003 L 617.2049999999996,314.1450000000003 L 616.8879999999996,314.4910000000003 L 616.3139999999996,314.8930000000003 L 616.0289999999997,315.1460000000003 L 615.7109999999997,315.3030000000003 L 615.3569999999996,315.40200000000027 L 614.9959999999996,315.4180000000003 L 614.8629999999996,315.5090000000003 L 614.4499999999996,315.5410000000003 L 614.1979999999996,315.6150000000003 L 614.1889999999996,315.7520000000003 L 614.2389999999996,316.0580000000003 L 614.0249999999995,315.9500000000003 L 613.7999999999995,316.1580000000003 L 613.8739999999995,316.3540000000003 L 613.7389999999995,316.3070000000003 L 613.1069999999995,315.9290000000003 L 612.5879999999995,315.66100000000034 L 612.1269999999995,315.42300000000034 L 612.0599999999995,315.38000000000034 L 611.9339999999995,315.26400000000035 L 611.8439999999995,315.08300000000037 L 611.8249999999995,314.8850000000004 L 611.8699999999994,314.7390000000004 L 611.9819999999994,314.64600000000036 L 612.1139999999994,314.61000000000035 L 612.2309999999993,314.6400000000003 L 612.3609999999993,314.7290000000003 L 612.5929999999993,314.83700000000033 L 612.8939999999993,314.8570000000003 L 613.0819999999993,314.7740000000003 L 613.1069999999993,314.5750000000003 L 612.7489999999993,313.8370000000003 L 612.4189999999993,313.2400000000003 L 612.0999999999993,312.5740000000003 L 611.9649999999993,312.3320000000003 L 611.5739999999994,311.7720000000003 L 611.1879999999994,311.2190000000003 L 610.8829999999995,310.72500000000025 L 610.7229999999995,310.57300000000026 L 610.2309999999995,310.5100000000003 L 609.2929999999996,310.38800000000026 L 608.9609999999996,310.33000000000027 L 608.6949999999996,310.47700000000026 L 608.4279999999995,310.59200000000027 L 608.1749999999995,310.37800000000027 L 607.9749999999995,310.0260000000003 L 607.8699999999994,309.7300000000003 L 607.9209999999995,309.4270000000003 L 607.9419999999994,308.9790000000003 L 607.7889999999994,308.5370000000003 L 607.6199999999994,308.3180000000003 L 607.1959999999995,308.1530000000003 L 606.6559999999995,307.7800000000003 L 606.5109999999995,307.0970000000003 L 606.7729999999995,306.1150000000003 L 607.1949999999995,305.4170000000003 L 607.5019999999995,305.1240000000003 L 607.6479999999995,304.86800000000034 L 607.6959999999995,304.64600000000036 L 607.6589999999994,304.43400000000037 L 607.4769999999994,304.20800000000037 L 607.1949999999994,303.98800000000034 L 607.0519999999993,303.7170000000003 L 607.1109999999993,303.13500000000033 L 607.2979999999993,302.2940000000003 L 607.5859999999993,301.6190000000003 L 607.9719999999993,301.2440000000003 L 608.3049999999993,300.9750000000003 L 608.4359999999992,300.72400000000033 L 608.4429999999992,300.3670000000003 L 608.4349999999991,300.0300000000003 L 608.5239999999992,299.7850000000003 L 608.6639999999992,299.5900000000003 L 608.8119999999992,299.4150000000003 L 609.0199999999992,299.2190000000003 L 609.2899999999992,299.1710000000003 L 609.5869999999992,299.3270000000003 L 609.9909999999992,299.74600000000027 L 610.5829999999992,300.57100000000025 L 610.9209999999991,301.11000000000024 L 611.0429999999991,301.27600000000024 L 611.3519999999991,301.59600000000023 L 611.6309999999991,301.72500000000025 L 612.0959999999991,301.52500000000026 L 612.5419999999991,301.29200000000026 L 612.6859999999991,301.14400000000023 L 612.7779999999991,300.92300000000023 L 612.7069999999991,300.54500000000024 L 612.6139999999991,300.29800000000023 L 612.5149999999991,299.98300000000023 L 612.3779999999991,299.43400000000025 L 612.2809999999992,298.5700000000003 L 612.1659999999991,298.2950000000003 L 612.2499999999991,298.2630000000003 L 612.4739999999991,298.32000000000033 L 612.6809999999991,298.3450000000003 L 612.9769999999992,298.15400000000034 L 613.3829999999991,297.7940000000003 L 614.1259999999992,297.2370000000003 L 614.2829999999992,296.8690000000003 L 614.4099999999992,296.4590000000003 L 614.6159999999992,296.2070000000003 L 615.0889999999991,296.12400000000025 L 615.5269999999991,295.99200000000025 L 615.8359999999991,295.7000000000003 L 616.3199999999991,295.44300000000027 L 616.7179999999992,295.28700000000026 L 616.8929999999991,295.14300000000026 L 617.0179999999991,294.92700000000025 L 617.4739999999991,294.31700000000023 L 617.8319999999991,293.94100000000026 L 618.1469999999991,293.5530000000003 L 618.2519999999992,293.30900000000025 L 618.5009999999992,293.35400000000027 L 618.8809999999992,293.52300000000025 L 619.2889999999992,293.67700000000025 L 619.5879999999992,293.9160000000002 L 619.6469999999991,294.16000000000025 L 619.6759999999991,294.35200000000026 L 619.7969999999991,294.45100000000025 L 619.9419999999991,294.47000000000025 L 620.1599999999991,294.42200000000025 L 620.540999999999,294.41300000000024 L 621.007999999999,294.09700000000026 L 621.657999999999,293.5630000000003 L 622.252999999999,293.3970000000003 L 622.565999999999,293.5240000000003 L 622.824999999999,293.91700000000026 L 623.0299999999991,294.2860000000003 L 623.2409999999991,294.4230000000003 L 623.371999999999,294.4270000000003 L 623.419999999999,294.4330000000003 L 623.681999999999,294.3490000000003 L 623.701999999999,294.35000000000025 L 623.940999999999,294.36500000000024 L 624.170999999999,294.49000000000024 L 624.551999999999,294.50400000000025 L 625.082999999999,294.4090000000002 L 625.138999999999,294.37000000000023 L 625.393999999999,294.4210000000002 L 625.7039999999989,294.59100000000024 L 625.9449999999989,294.79300000000023 L 626.3769999999989,295.4550000000002 L 626.624999999999,295.6250000000002 L 627.130999999999,295.86000000000024 L 627.3679999999989,296.0650000000002 L 627.6439999999989,296.3970000000002 L 627.7879999999989,296.59800000000024 L 628.0879999999988,296.96100000000024 L 628.4349999999988,297.55400000000026 L 628.4969999999988,298.02500000000026 L 628.5759999999988,298.42200000000025 L 628.7049999999988,298.61000000000024 L 628.8109999999988,298.63300000000027 L 628.9249999999988,298.56800000000027 L 629.0369999999988,298.3870000000003 L 629.0759999999988,298.08500000000026 L 629.0419999999988,297.55000000000024 L 628.9529999999987,297.11200000000025 L 628.8389999999987,296.97300000000024 L 628.7839999999987,296.81900000000024 L 628.8589999999988,296.6230000000002 L 629.0519999999988,296.5280000000002 L 629.2919999999988,296.5880000000002 L 629.6869999999988,296.8400000000002 L 630.0989999999988,297.1570000000002 L 630.6059999999987,297.7110000000002 L 631.0709999999988,298.0620000000002 L 631.5799999999988,298.34200000000016 L 631.9839999999988,298.4250000000002 L 632.2969999999988,298.3410000000002 L 632.6659999999988,298.11300000000017 L 633.0039999999988,297.84900000000016 L 633.1579999999988,297.5720000000002 L 633.2679999999988,297.2690000000002 L 633.7779999999988,296.8640000000002 L 634.2439999999988,296.4930000000002 L 634.4559999999988,296.56000000000023 L 634.6049999999988,296.66500000000025 L 635.0829999999987,296.43900000000025 L 635.2489999999988,296.37700000000024 L 635.7039999999988,296.2890000000002 L 636.1739999999988,296.4190000000002 L 636.5489999999988,296.81700000000023 L 636.9119999999989,297.0730000000002 L 637.236999999999,297.04300000000023 L 637.505999999999,296.91200000000026 L 637.683999999999,296.66400000000027 L 637.8189999999989,296.37100000000027 L 637.9989999999989,296.1830000000003 L 638.0259999999989,296.1710000000003 L 638.6049999999989,296.27300000000025 L 638.9679999999989,296.25800000000027 L 639.0069999999989,296.2160000000003 L 639.485999999999,296.2960000000003 L 640.014999999999,296.7090000000003 L 640.3429999999989,297.1660000000003 L 640.7629999999989,297.7470000000003 L 640.957999999999,297.9360000000003 L 641.2419999999989,298.01700000000034 L 641.4649999999989,298.05200000000036 L 641.7639999999989,298.14200000000034 L 642.5539999999988,298.2630000000003 L 642.6739999999988,298.33400000000034 L 642.7549999999989,298.42900000000037 L 642.6819999999989,298.74500000000035 L 642.7519999999989,298.82500000000033 L 643.3929999999989,298.6000000000003 L 643.5649999999989,298.4320000000003 L 643.7759999999989,297.9540000000003 L 643.9649999999989,297.47200000000026 L 644.1059999999989,297.2930000000003 L 644.2549999999989,297.24600000000027 L 644.4049999999988,297.31800000000027 L 644.6149999999989,297.6030000000003 L 644.8989999999989,297.8930000000003 L 645.2829999999989,298.0030000000003 L 645.5169999999989,298.0470000000003 L 645.879999999999,298.0710000000003 L 646.733999999999,297.9300000000003 L 647.532999999999,297.5790000000003 L 647.988999999999,297.1970000000003 L 648.200999999999,296.6230000000003 L 648.333999999999,295.9690000000003 L 648.537999999999,295.5550000000003 L 648.452999999999,295.1310000000003 L 648.0509999999989,294.7270000000003 L 647.9149999999989,294.6050000000003 L 646.936999999999,294.3780000000003 L 646.876999999999,294.21400000000034 L 646.820999999999,294.17600000000033 L 645.856999999999,293.8160000000003 L 645.3929999999989,293.6620000000003 L 645.2619999999989,293.4240000000003 L 645.1759999999989,293.1120000000003 L 644.8749999999989,292.8330000000003 L 644.2769999999989,292.5790000000003 L 644.1729999999989,292.3850000000003 L 644.2719999999989,292.18900000000025 L 644.7439999999989,291.97100000000023 L 645.2829999999989,291.51100000000025 L 645.4899999999989,291.4160000000002 L 645.9689999999989,291.3950000000002 L 646.4129999999989,291.0180000000002 L 646.7189999999989,290.8020000000002 L 646.8789999999989,290.5450000000002 L 646.8369999999989,290.27900000000017 L 646.3929999999989,289.47400000000016 L 646.260999999999,288.9850000000002 L 646.3399999999989,288.66600000000017 L 646.5949999999989,288.32100000000014 L 646.7399999999989,288.1320000000001 L 646.9139999999989,287.79200000000014 L 647.0279999999989,287.6100000000001 L 647.4759999999989,287.53300000000013 L 648.0189999999989,287.50100000000015 L 648.3919999999989,287.58200000000016 L 648.9129999999989,287.62400000000014 L 649.3879999999989,287.6870000000001 L 649.6279999999989,287.7430000000001 L 649.8049999999989,287.6390000000001 L 649.932999999999,287.45600000000013 L 649.928999999999,287.2140000000001 L 649.7419999999989,286.9790000000001 L 649.0449999999989,286.6700000000001 L 648.745999999999,286.4150000000001 L 648.5119999999989,286.4430000000001 L 648.1199999999989,286.3630000000001 L 647.7659999999988,286.19600000000014 L 647.4529999999988,286.14000000000016 L 647.3509999999989,285.90800000000013 L 647.4149999999988,285.5820000000001 L 647.5359999999988,285.3950000000001 L 647.7669999999988,285.3020000000001 L 648.0179999999988,285.3490000000001 L 648.2909999999988,285.2130000000001 L 648.3699999999988,285.1330000000001 L 648.3929999999988,285.0300000000001 L 648.3489999999988,284.8830000000001 L 648.2219999999988,284.7620000000001 L 648.0419999999989,284.73000000000013 L 647.8349999999989,284.83300000000014 L 647.5869999999989,284.90000000000015 L 647.1679999999989,284.74900000000014 L 646.8339999999989,284.5670000000001 L 646.850999999999,284.3990000000001 L 647.0979999999989,284.14800000000014 L 647.2089999999989,283.94400000000013 L 647.2089999999989,283.66200000000015 L 647.2089999999989,283.33200000000016 L 647.2949999999989,282.94500000000016 L 647.5399999999989,282.6800000000002 L 647.827999999999,282.5380000000002 L 648.5699999999989,282.7970000000002 L 649.4979999999989,283.0280000000002 L 649.6569999999989,282.9900000000002 L 649.7039999999989,282.86800000000017 L 649.8099999999989,282.76000000000016 L 651.0979999999989,282.71000000000015 L 651.3479999999989,282.56100000000015 L 651.4729999999989,282.4420000000001 L 652.710999999999,282.27100000000013 L 652.857999999999,282.1080000000001 L 653.039999999999,281.95600000000013 L 653.324999999999,281.9590000000001 L 653.6639999999991,281.89800000000014 L 654.136999999999,281.71200000000016 L 654.4719999999991,281.6100000000002 L 654.5279999999991,281.6020000000002 L 654.8819999999992,281.6430000000002 L 655.3209999999991,281.4960000000002 L 655.4159999999991,281.43500000000023 L 655.4869999999992,281.32400000000024 L 655.8699999999992,281.11000000000024 L 656.6049999999992,280.93400000000025 L 656.7839999999992,281.03900000000027 L 657.1349999999992,281.0870000000003 L 657.5819999999992,281.00800000000027 L 657.9119999999992,280.8730000000003 L 658.1039999999992,281.0070000000003 L 658.3649999999992,281.14500000000027 L 658.5599999999993,281.02800000000025 L 658.6569999999992,280.6590000000002 L 658.7829999999992,280.29800000000023 L 659.0039999999992,280.12700000000024 L 659.1789999999992,280.06400000000025 L 659.3369999999992,279.92500000000024 L 659.4559999999992,279.78000000000026 L 660.1029999999993,279.80200000000025 L 660.6819999999992,279.44100000000026 L 660.7959999999993,279.60500000000025 L 661.5479999999992,279.56700000000023 L 662.4819999999992,279.33400000000023 L 663.0409999999991,279.22500000000025 L 664.0059999999992,278.9810000000002 L 664.4519999999992,278.78300000000024 L 665.0909999999992,278.65800000000024 L 665.6769999999992,278.57100000000025 L 666.0599999999993,278.2240000000003 L 666.3689999999992,278.1750000000003 L 666.7449999999992,278.1460000000003 L 666.9749999999992,278.0630000000003 L 667.1249999999992,277.9350000000003 L 667.2219999999992,277.6940000000003 L 667.1689999999992,277.3860000000003 L 667.1149999999992,277.1620000000003 L 667.3839999999992,277.0370000000003 L 667.7679999999992,276.99800000000033 L 668.0099999999992,276.94700000000034 L 668.5379999999992,276.43700000000035 L 668.9019999999992,276.19200000000035 L 669.2789999999992,276.03800000000035 L 670.0359999999991,276.12200000000036 L 670.7269999999992,276.19900000000035 L 671.4199999999992,276.4430000000004 L 671.7839999999992,276.74700000000036 L 672.0969999999992,276.97600000000034 L 672.3929999999992,277.0850000000003 L 672.6609999999993,277.1550000000003 L 672.9719999999993,277.05100000000033 L 673.1919999999993,276.91100000000034 L 673.3199999999994,276.7100000000003 L 673.5139999999993,276.5660000000003 L 674.2209999999993,276.4540000000003 L 674.3669999999993,276.6710000000003 L 674.7029999999993,277.3240000000003 L 674.9319999999993,278.1910000000003 L 675.3089999999993,279.3360000000003 L 675.4749999999993,279.8970000000003 L 675.4019999999994,280.1900000000003 L 675.4029999999993,280.5910000000003 L 675.3819999999994,281.0310000000003 L 675.1039999999994,281.5280000000003 L 675.2169999999994,281.7590000000003 L 675.8999999999994,282.0160000000003 L 676.8559999999994,281.9220000000003 L 677.4459999999995,281.7140000000003 L 677.7749999999994,281.7900000000003 L 677.9469999999994,281.6650000000003 L 678.0579999999994,281.2970000000003 L 678.2849999999994,281.2140000000003 L 678.5179999999993,281.4710000000003 L 678.6869999999993,281.9050000000003 L 678.8489999999994,282.1840000000003 L 678.8369999999994,282.5160000000003 L 678.8969999999994,282.9410000000003 L 679.0159999999994,283.04800000000034 L 679.2499999999994,282.88700000000034 L 679.4059999999994,282.79100000000034 L 679.4429999999994,282.6620000000003 L 679.3769999999994,282.5030000000003 L 679.3459999999994,282.34100000000035 L 679.3979999999995,282.19200000000035 L 679.5089999999994,282.13100000000037 L 679.8419999999994,282.1780000000004 L 680.3269999999994,282.2600000000004 L 680.9029999999995,282.8640000000004 L 681.2139999999995,282.97300000000035 L 681.3449999999995,282.9840000000004 L 681.6369999999995,282.94900000000035 L 681.9879999999995,282.77600000000035 L 682.2239999999995,282.55800000000033 L 682.3029999999994,282.4510000000003 L 682.4389999999994,282.4700000000003 L 682.5679999999994,282.5710000000003 L 682.5769999999994,282.79100000000034 L 682.4739999999995,283.1090000000003 L 682.1239999999995,283.4000000000003 L 681.6889999999995,283.6700000000003 L 681.4249999999995,284.1640000000003 L 681.3689999999995,284.67800000000034 L 681.4839999999995,284.93900000000036 L 681.5829999999995,285.11300000000034 L 681.6109999999995,285.35700000000037 L 681.7089999999995,285.38900000000035 L 681.8869999999995,285.2890000000003 L 682.3719999999995,284.78300000000036 L 682.6189999999995,284.65800000000036 L 682.9769999999994,284.5780000000004 L 683.5659999999995,284.6180000000004 L 683.9619999999994,284.7830000000004 L 684.1509999999994,285.0120000000004 L 684.3589999999994,285.2010000000004 L 684.5029999999994,285.1220000000004 L 684.5769999999993,284.9040000000004 L 684.5809999999993,284.6540000000004 L 684.6419999999994,284.4480000000004 L 685.2859999999994,283.9410000000004 L 685.7149999999993,283.60300000000035 L 685.8619999999994,283.56300000000033 L 686.1489999999994,283.6330000000003 L 686.3269999999994,283.5970000000003 L 686.7979999999994,283.27900000000034 L 687.2379999999995,282.91600000000034 L 687.2809999999995,282.67000000000036 L 687.2979999999995,282.44700000000034 L 687.4069999999996,282.34600000000034 L 688.0229999999996,282.26800000000037 L 688.1249999999995,282.2260000000004 L 688.6509999999995,281.9720000000004 L 689.3799999999995,281.53800000000035 L 689.7339999999996,281.2820000000004 L 690.3789999999996,281.1680000000004 L 690.4989999999996,281.0940000000004 L 690.7129999999996,280.9210000000004 L 691.1169999999996,280.6810000000004 L 691.3359999999997,280.65500000000037 L 691.1999999999997,281.23500000000035 L 690.9589999999997,281.90300000000036 L 690.8229999999998,282.08100000000036 L 690.1689999999998,282.0510000000004 L 690.1699999999997,282.2330000000004 L 690.2729999999997,282.5110000000004 L 690.3469999999996,282.6670000000004 L 690.4259999999996,282.8070000000004 L 690.6019999999996,283.04900000000043 L 691.2899999999996,283.61800000000045 L 692.1649999999996,284.34000000000043 L 693.1099999999997,285.1480000000004 L 693.7699999999996,285.71000000000043 L 694.0369999999997,286.00000000000045 L 694.2069999999997,286.22600000000045 L 694.6929999999996,287.0400000000005 L 695.1549999999996,287.8090000000005 L 695.9339999999996,289.1570000000005 L 696.6229999999996,290.4510000000005 L 697.3829999999996,291.8660000000005 L 697.8219999999995,292.6800000000005 L 698.7199999999996,294.3730000000005 L 698.9599999999996,294.8900000000005 L 699.4149999999996,295.8660000000005 L 699.8159999999996,296.7770000000005 L 700.1709999999996,297.5790000000005 L 700.3949999999996,297.6510000000005 L 700.4129999999997,297.43400000000054 L 700.4529999999996,297.28900000000056 L 700.5669999999997,297.20700000000056 L 700.8289999999996,296.97000000000054 L 700.9699999999996,296.9130000000005 L 701.1799999999996,296.9370000000005 L 701.3999999999996,296.81600000000054 L 701.4809999999997,296.58800000000053 L 701.4279999999997,296.16500000000053 L 701.3939999999997,295.97000000000054 L 701.4689999999997,295.76000000000056 L 701.5889999999997,295.67800000000057 L 701.7559999999997,295.6120000000006 L 701.9099999999997,295.5780000000006 L 702.0359999999997,295.3410000000006 L 702.2739999999998,295.2690000000006 L 702.4929999999998,295.31300000000056 L 702.6729999999998,295.32200000000057 L 702.8319999999998,295.4950000000006 L 702.9209999999998,295.7320000000006 L 703.0929999999998,295.7510000000006 L 703.3739999999998,295.7270000000006 L 703.4129999999998,295.9250000000006 L 703.3329999999997,296.2560000000006 L 703.2339999999997,296.51200000000057 L 703.2169999999996,296.71700000000055 L 703.3659999999996,296.8170000000006 L 703.9119999999997,296.7280000000006 L 704.1049999999997,296.77200000000056 L 704.1669999999997,296.9800000000006 L 704.2449999999997,297.1520000000006 L 704.2829999999997,297.3620000000006 L 704.2259999999997,297.5940000000006 L 704.3239999999996,297.73300000000063 L 704.7949999999996,297.7360000000006 L 705.1269999999996,297.6240000000006 L 705.6369999999996,297.6150000000006 L 706.0979999999996,297.86100000000056 L 706.4169999999996,297.82300000000055 L 706.7379999999996,297.7230000000005 L 707.2089999999996,297.7860000000005 L 707.5399999999996,297.5920000000005 L 707.7679999999996,297.3490000000005 L 707.8389999999996,297.1580000000005 L 707.9579999999996,297.05200000000053 L 708.4019999999996,297.0530000000005 L 708.6819999999996,297.0340000000005 L 708.8889999999996,296.7530000000005 L 709.0779999999995,296.6260000000005 L 709.3959999999995,296.6020000000005 L 709.6299999999995,296.6020000000005 L 710.2589999999996,296.8630000000005 L 710.6419999999996,297.0790000000005 L 711.0399999999996,297.38600000000054 L 711.2789999999997,297.57800000000054 L 711.4399999999996,298.01100000000054 L 711.7109999999996,298.3290000000005 L 711.9269999999996,298.7000000000005 L 711.9789999999996,299.0650000000005 L 712.1569999999996,299.7200000000005 L 712.3409999999996,299.93500000000046 L 712.5589999999995,299.93500000000046 L 712.8339999999995,300.02400000000046 L 713.1379999999995,300.0950000000005 L 713.7879999999994,300.5800000000005 L 714.0269999999995,300.5940000000005 L 714.2109999999994,300.7100000000005 L 714.2389999999995,300.9330000000005 L 714.1709999999995,301.1910000000005 L 714.2419999999995,301.4380000000005 L 714.4549999999995,301.7530000000005 L 714.6229999999995,302.0600000000005 L 714.8299999999995,302.4320000000005 L 714.8929999999995,302.6440000000005 L 715.0589999999995,302.7140000000005 L 715.2829999999996,302.6090000000005 L 715.6389999999996,302.6890000000005 L 716.7099999999996,302.9000000000005 L 716.8589999999996,302.9260000000005 L 716.9729999999996,303.1460000000005 L 717.1279999999996,303.12800000000055 L 717.3059999999996,303.11900000000054 L 717.5529999999995,303.14500000000055 L 717.7249999999996,302.9420000000006 L 717.8659999999995,302.7640000000006 L 718.2189999999995,302.54400000000055 L 718.5119999999995,302.2450000000006 L 718.7579999999995,301.97900000000055 L 718.9419999999994,301.9440000000005 L 719.0909999999994,302.06800000000055 L 719.0969999999994,302.29800000000057 L 718.9129999999994,302.4660000000006 L 718.7689999999994,302.66900000000055 L 718.8029999999994,302.8720000000005 L 719.0499999999994,302.8900000000005 L 719.3239999999994,303.1950000000005 L 719.7199999999993,303.9080000000005 L 719.8539999999994,304.0570000000005 L 720.0499999999994,304.1970000000005 L 720.2669999999994,304.2600000000005 L 720.5069999999994,304.3620000000005 L 720.6849999999994,304.6550000000005 L 720.77,304.921 M 616.898,321.818 L 616.801,321.87199999999996 L 616.7420000000001,321.61999999999995 L 616.85,321.40799999999996 L 617.004,321.37999999999994 L 616.951,321.7149999999999 L 616.898,321.818 M 616.542,322.282 L 616.441,322.393 L 616.291,322.376 L 616.0100000000001,321.957 L 616.089,321.531 L 616.191,321.444 L 616.3330000000001,321.384 L 616.3520000000001,321.478 L 616.1530000000001,321.669 L 616.1340000000001,321.90999999999997 L 616.3010000000002,322.17699999999996 L 616.542,322.282" id="KZ" title="Kazakhstan"/>
</svg>
