<svg xmlns="http://www.w3.org/2000/svg" xmlns:ev="http://www.w3.org/2001/xml-events" xmlns:xlink="http://www.w3.org/1999/xlink" baseProfile="full" height="25.2080078125" version="1.1" viewBox="756.6710205078125 398.2619934082031 21.156005859375 25.2080078125" width="21.156005859375">
	<defs/>
	<path class="land" d="M 762.319,398.613 L 762.475,398.9 L 762.807,399.219 L 763.203,399.674 L 763.329,399.883 L 763.596,400.043 L 763.672,400.201 L 763.733,400.443 L 763.76,400.623 L 763.819,400.729 L 763.913,400.771 L 764.034,400.724 L 764.125,400.628 L 764.201,400.363 L 764.251,400.335 L 764.333,400.553 L 764.42,400.59 L 764.537,400.619 L 764.626,400.713 L 764.653,400.879 L 764.623,401.048 L 764.514,401.238 L 764.452,401.438 L 764.409,401.745 L 764.351,401.959 L 764.441,402.148 L 765.061,403.078 L 765.359,403.23 L 766.068,403.412 L 766.324,403.537 L 766.55,403.659 L 766.772,403.6 L 766.986,403.323 L 767.243,403.168 L 767.721,402.93 L 767.858,402.917 L 768.122,403.012 L 768.556,403.289 L 768.869,403.549 L 769.063,403.686 L 769.211,403.809 L 769.188,403.947 L 769.069,404.083 L 768.918,404.158 L 768.719,404.289 L 768.606,404.421 L 768.675,404.47 L 768.967,404.503 L 769.312,404.62 L 769.417,404.757 L 769.432,404.874 L 769.474,405.065 L 769.535,405.123 L 769.854,405.089 L 769.953,405.132 L 770.068,405.23 L 770.182,405.487 L 770.179,405.679 L 769.948,405.89 L 769.862,406.018 L 769.824,406.219 L 769.66,406.46 L 769.224,406.864 L 769.107,406.888 L 768.304,406.666 L 767.931,406.68 L 767.751,406.687 L 767.664,406.697 L 767.612,406.781 L 767.719,407.025 L 767.751,407.267 L 767.651,407.451 L 767.384,407.611 L 767.283,407.688 L 767.271,407.792 L 767.346,407.9 L 767.592,408.011 L 767.879,408.115 L 768.825,408.74 L 769.027,408.887 L 769.295,409.104 L 769.585,409.272 L 770.361,409.494 L 770.704,409.639 L 770.792,409.721 L 770.789,409.822 L 770.699,409.951 L 770.625,410.177 L 770.621,410.313 L 770.702,410.444 L 770.839,410.64 L 771.147,410.943 L 771.316,411.078 L 771.503,411.108 L 771.667,411.182 L 771.836,411.407 L 772.032,411.682 L 772.058,411.874 L 772.142,412.12 L 772.321,412.402 L 772.568,412.676 L 772.914,413.015 L 773.113,413.254 L 773.205,413.347 L 773.943,413.926 L 774.123,414.14 L 774.383,414.552 L 774.493,414.612 L 774.597,414.693 L 774.663,414.919 L 774.685,415.081 L 774.72,415.577 L 774.854,415.724 L 774.977,415.905 L 775.029,416.037 L 775.141,416.135 L 775.263,416.153 L 775.408,416.044 L 775.523,415.939 L 775.576,415.97 L 775.692,416.316 L 775.799,416.442 L 775.999,416.563 L 776.189,416.656 L 776.604,417.072 L 776.825,417.224 L 776.977,417.272 L 777.106,417.343 L 777.145,417.475 L 777.094,417.608 L 777.006,417.695 L 776.523,417.936 L 776.459,418.041 L 776.525,418.201 L 776.646,418.401 L 776.778,418.573 L 776.944,418.742 L 777.283,419.016 L 777.577,419.23 L 777.738,419.467 L 777.827,419.625 L 777.772,419.814 L 777.648,420.021 L 777.552,420.198 L 777.387,420.301 L 777.342,420.42 L 777.41,420.605 L 777.466,420.732 L 777.436,420.89 L 777.451,421.213 L 777.299,421.329 L 777.157,421.623 L 777.06,421.645 L 776.815,421.538 L 776.729,421.597 L 776.573,421.811 L 776.301,422.044 L 776.169,422.047 L 776.078,422.019 L 775.972,422.118 L 775.82,422.302 L 775.75,422.296 L 775.488,422.338 L 775.386,422.279 L 775.259,422.128 L 775.055,421.974 L 774.869,421.864 L 774.77,421.79 L 774.678,421.662 L 774.595,421.579 L 774.441,421.761 L 774.184,421.935 L 773.939,421.902 L 773.819,421.873 L 773.723,422.126 L 773.651,422.172 L 773.211,422.216 L 773.128,422.256 L 773.199,422.487 L 773.459,422.878 L 773.537,423.102 L 773.375,423.47 L 772.919,423.46 L 772.715,423.311 L 772.525,423.102 L 772.457,422.999 L 771.873,422.794 L 771.482,422.935 L 771.363,422.928 L 771.181,422.779 L 771.07,422.667 L 770.962,422.497 L 770.901,422.325 L 770.896,422.247 L 771.064,422.185 L 771.341,422.044 L 771.567,421.886 L 771.716,421.718 L 771.776,421.543 L 771.784,421.34 L 771.849,420.814 L 771.915,420.558 L 771.878,420.242 L 771.757,419.994 L 771.757,419.621 L 771.801,419.439 L 771.821,419.319 L 771.991,419.168 L 772.108,418.951 L 772.174,418.668 L 772.18,418.464 L 772.127,418.338 L 771.959,418.218 L 771.678,418.105 L 771.5,417.961 L 771.428,417.788 L 771.435,417.636 L 771.521,417.504 L 771.309,417.358 L 770.798,417.197 L 770.513,417.003 L 770.453,416.777 L 770.24,416.481 L 769.874,416.114 L 769.681,415.586 L 769.661,414.896 L 769.704,414.334 L 769.864,413.683 L 769.65,413.211 L 769.415,412.962 L 769.088,412.779 L 768.776,412.517 L 768.479,412.174 L 768.125,411.668 L 767.711,410.998 L 767.433,410.698 L 767.29,410.768 L 766.991,410.705 L 766.535,410.511 L 766.138,410.406 L 765.798,410.391 L 765.577,410.435 L 765.475,410.538 L 765.467,410.639 L 765.553,410.739 L 765.506,410.817 L 765.328,410.873 L 765.185,410.983 L 765.023,411.229 L 765.027,411.219 L 765.021,411.232 L 765.023,411.229 L 764.912,411.551 L 764.743,411.675 L 764.483,411.702 L 764.228,411.794 L 763.976,411.95 L 763.856,412.069 L 763.87,412.15 L 763.815,412.168 L 763.692,412.123 L 763.634,412.017 L 763.641,411.849 L 763.512,411.737 L 763.249,411.679 L 762.949,411.5 L 762.611,411.197 L 762.377,411.036 L 762.246,411.016 L 762.059,411.136 L 761.813,411.396 L 761.611,411.498 L 761.452,411.445 L 761.329,411.536 L 761.243,411.773 L 761.084,411.958 L 760.736,412.161 L 760.713,412.185 L 760.315,412.458 L 759.996,412.733 L 759.625,413.102 L 759.45,413.159 L 759.283,413.069 L 759.031,412.979 L 758.898,412.854 L 759.152,412.229 L 759.473,411.536 L 759.559,411.216 L 759.572,410.982 L 759.541,410.792 L 759.415,410.593 L 759.297,410.439 L 759.286,410.336 L 759.324,410.228 L 759.453,410.067 L 759.619,409.817 L 759.773,409.304 L 759.958,408.76 L 759.94,408.43 L 759.791,408.068 L 759.709,407.724 L 759.774,407.255 L 759.75,407.072 L 759.589,406.98 L 759.061,406.887 L 758.891,406.903 L 758.757,406.963 L 758.612,407.091 L 758.436,407.171 L 758.104,407.216 L 757.79,407.057 L 757.527,406.787 L 757.464,406.457 L 757.657,406.063 L 757.792,405.744 L 757.872,405.47 L 757.863,405.34 L 757.807,405.205 L 757.728,405.186 L 757.56,405.018 L 757.396,404.722 L 757.24,404.586 L 757.095,404.611 L 756.96,404.724 L 756.837,404.922 L 756.74,405.004 L 756.671,404.967 L 756.692,404.792 L 756.712,404.626 L 756.864,403.98 L 757.048,403.56 L 757.264,403.365 L 757.492,403.282 L 757.732,403.313 L 757.935,403.277 L 758.097,403.174 L 758.082,403.115 L 757.89,403.1 L 757.813,402.988 L 757.854,402.777 L 757.938,402.64 L 758.07,402.577 L 758.198,402.365 L 758.321,402.002 L 758.472,401.819 L 758.648,401.814 L 758.951,401.659 L 759.38,401.352 L 759.545,401.055 L 759.707,401.191 L 759.646,401.535 L 759.731,401.607 L 759.771,401.73 L 759.749,401.922 L 759.785,402.085 L 759.851,402.164 L 759.944,402.204 L 760.399,402.064 L 760.677,402.054 L 760.794,402.146 L 760.899,402.203 L 761.031,402.247 L 761.133,402.306 L 761.198,402.287 L 761.354,402.144 L 761.401,402.119 L 761.406,402.049 L 761.297,401.92 L 761.184,401.812 L 761.188,401.572 L 761.241,401.156 L 761.252,400.94 L 761.242,400.423 L 761.222,400.277 L 761.118,400.109 L 760.847,399.786 L 760.771,399.589 L 760.727,399.392 L 760.731,399.267 L 760.662,399.124 L 760.627,398.991 L 760.748,398.923 L 760.895,398.769 L 760.969,398.534 L 761.039,398.362 L 761.141,398.289 L 761.229,398.262 L 761.288,398.277 L 761.518,398.585 L 761.809,398.431 L 762.029,398.432 L 762.218,398.513 L 762.319,398.613" id="LA" title="Lao People's Democratic Republic"/>
</svg>
