<svg xmlns="http://www.w3.org/2000/svg" xmlns:ev="http://www.w3.org/2001/xml-events" xmlns:xlink="http://www.w3.org/1999/xlink" baseProfile="full" height="5.39398193359375" version="1.1" viewBox="574.2310180664062 359.406005859375 4.14398193359375 5.39398193359375" width="4.14398193359375" fill="#00394f">
	<defs/>
	<path class="land" d="M 576.366,363.61 L 576.286,363.665 L 576.137,363.818 L 575.988,363.942 L 575.687,364.135 L 575.619,364.25 L 575.552,364.146 L 575.421,364.217 L 575.311,364.654 L 575.081,364.8 L 574.793,364.787 L 574.553,364.746 L 574.231,364.773 L 574.362,364.519 L 574.498,364.188 L 574.632,363.742 L 574.869,363.371 L 575.36,362.107 L 575.644,361.594 L 575.745,360.864 L 576.184,360.225 L 576.512,360.035 L 576.671,359.852 L 576.667,359.574 L 577.157,359.576 L 577.473,359.562 L 577.564,359.406 L 577.811,359.477 L 577.948,359.627 L 577.824,359.786 L 577.649,359.967 L 577.659,360.014 L 577.79,360.029 L 578.012,360.127 L 578.148,360.242 L 578.375,360.956 L 578.235,361.249 L 578.017,361.511 L 577.92,361.534 L 577.729,361.664 L 577.569,361.842 L 577.513,361.954 L 577.525,362.059 L 577.751,362.19 L 577.758,362.243 L 577.711,362.285 L 577.528,362.256 L 577.292,362.242 L 577.153,362.243 L 576.992,362.269 L 576.786,362.429 L 576.694,362.535 L 576.645,362.603 L 576.571,362.82 L 576.654,362.969 L 576.808,363.054 L 576.83,363.097 L 576.795,363.172 L 576.642,363.266 L 576.527,363.381 L 576.494,363.498 L 576.366,363.61" id="LB" title="Lebanon"/>
</svg>
