<svg xmlns="http://www.w3.org/2000/svg" xmlns:ev="http://www.w3.org/2001/xml-events" xmlns:xlink="http://www.w3.org/1999/xlink" baseProfile="full" height="10.878021240234375" version="1.1" viewBox="699.4010009765625 435.1789855957031 6.08697509765625 10.878021240234375" width="6.08697509765625" fill="#00394f">
	<defs/>
	<path class="land" d="M 700.169,435.179 L 700.439,435.19399999999996 L 700.727,435.18699999999995 L 700.928,435.22599999999994 L 701.274,435.6619999999999 L 702.214,436.4419999999999 L 702.7270000000001,437.23399999999987 L 702.7730000000001,437.40699999999987 L 702.8440000000002,437.55699999999985 L 702.9670000000002,437.59799999999984 L 703.0710000000003,437.6659999999998 L 703.5820000000002,438.42999999999984 L 703.6420000000002,438.58099999999985 L 703.6330000000002,438.7479999999998 L 703.6630000000001,438.87199999999984 L 703.7970000000001,438.93399999999986 L 703.9630000000002,438.96599999999984 L 704.0720000000002,439.08099999999985 L 704.2110000000002,439.6899999999998 L 704.2110000000002,439.8799999999998 L 704.2500000000002,439.96099999999984 L 704.8940000000002,440.90799999999984 L 704.9310000000003,441.02299999999985 L 704.9240000000003,441.10899999999987 L 704.9430000000003,441.18399999999986 L 705.0680000000003,441.35099999999983 L 705.2620000000003,441.80199999999985 L 705.3620000000003,441.90499999999986 L 705.4800000000004,442.29899999999986 L 705.4880000000004,443.05199999999985 L 705.4440000000004,443.38599999999985 L 705.3240000000004,443.79399999999987 L 705.1810000000004,444.1919999999999 L 705.0270000000004,444.4799999999999 L 704.8160000000004,444.7229999999999 L 704.0930000000004,445.2399999999999 L 703.8860000000004,445.3439999999999 L 702.9460000000004,445.6679999999999 L 702.2530000000004,445.9739999999999 L 701.6120000000004,446.0569999999999 L 700.9700000000004,445.8879999999999 L 700.4880000000004,445.48599999999993 L 700.2410000000004,444.8929999999999 L 700.0710000000005,444.2749999999999 L 699.8260000000005,443.5879999999999 L 699.6370000000005,441.4639999999999 L 699.5470000000005,440.8699999999999 L 699.4010000000005,440.1119999999999 L 699.4160000000005,439.7829999999999 L 699.5200000000006,439.4679999999999 L 699.5190000000006,440.1589999999999 L 699.6150000000006,440.2449999999999 L 699.6860000000006,440.1559999999999 L 699.7500000000006,439.4399999999999 L 699.8030000000006,439.1369999999999 L 700.0590000000005,438.34699999999987 L 700.0640000000005,438.2069999999999 L 700.0200000000006,437.90999999999985 L 700.0220000000005,437.76099999999985 L 700.4040000000005,437.2069999999999 L 700.5020000000004,436.8839999999999 L 700.5550000000004,436.5539999999999 L 700.5340000000004,436.1969999999999 L 700.4660000000005,435.8449999999999 L 700.7740000000005,435.95699999999994 L 700.9440000000004,436.0799999999999 L 701.1170000000004,436.16299999999995 L 701.2570000000004,436.121 L 701.4270000000004,436.12 L 701.3060000000004,435.92900000000003 L 700.9480000000004,435.752 L 700.3530000000004,435.64300000000003 L 700.1670000000004,435.50300000000004 L 700.0960000000003,435.38100000000003 L 700.1320000000003,435.23900000000003 L 700.169,435.179 M 700.133,435.694 L 699.957,435.725 L 699.818,435.53700000000003 L 699.785,435.45700000000005 L 699.822,435.40100000000007 L 699.86,435.37300000000005 L 699.905,435.38200000000006 L 699.971,435.5570000000001 L 700.133,435.694 M 699.867,437.333 L 699.948,437.54600000000005 L 699.717,437.40000000000003 L 699.5649999999999,437.278 L 699.51,437.18 L 699.825,437.29 L 699.867,437.333" id="LK" title="Sri Lanka"/>
</svg>
