<svg xmlns="http://www.w3.org/2000/svg" xmlns:ev="http://www.w3.org/2001/xml-events" xmlns:xlink="http://www.w3.org/1999/xlink" baseProfile="full" height="11.748016357421875" version="1.1" viewBox="443.40399169921875 438.7799987792969 11.52801513671875 11.748016357421875" width="11.52801513671875" fill="#00394f">
	<defs/>
	<path class="land" d="M 451.882,441.537 L 451.937,441.57 L 452.021,441.656 L 452.101,441.95 L 452.415,442.899 L 452.399,443.161 L 452.337,443.332 L 452.335,443.499 L 452.314,443.665 L 452.122,443.935 L 451.554,444.489 L 451.598,444.538 L 451.733,444.601 L 451.872,444.633 L 451.985,444.616 L 452.127,444.754 L 452.28,444.928 L 452.442,445.019 L 452.676,445.098 L 452.88,445.107 L 453.054,445.076 L 453.299,445.111 L 453.56,445.255 L 453.653,445.492 L 453.716,445.699 L 453.806,445.804 L 453.819,445.983 L 454.004,446.14 L 454.269,446.172 L 454.612,446.356 L 454.699,446.346 L 454.737,446.323 L 454.779,446.358 L 454.865,446.89 L 454.932,447.172 L 454.896,447.287 L 454.851,447.376 L 454.848,447.806 L 454.692,448.052 L 454.667,448.323 L 454.624,448.41 L 454.458,448.488 L 454.457,448.696 L 454.412,448.947 L 454.395,449.213 L 454.441,449.911 L 454.45,450.43 L 454.525,450.528 L 454.202,450.485 L 453.252,450.088 L 452.521,449.861 L 450.07,448.561 L 449.39,448.039 L 448.604,447.262 L 446.859,445.695 L 446.461,445.444 L 445.959,445.322 L 445.649,445.188 L 445.43,445.043 L 445.252,444.609 L 444.815,444.35 L 444.01,443.982 L 443.404,443.37 L 443.553,443.244 L 443.771,442.841 L 444.077,442.454 L 444.362,442.224 L 444.588,441.987 L 444.828,441.806 L 445.17,441.594 L 445.695,441.037 L 445.817,440.972 L 445.901,440.586 L 446.033,440.095 L 446.185,439.942 L 446.542,439.851 L 446.625,439.766 L 446.751,439.419 L 446.833,439.016 L 446.84,438.928 L 446.98,438.918 L 447.221,438.831 L 447.361,438.87 L 447.422,438.986 L 447.454,439.084 L 448.183,438.832 L 448.247,438.78 L 448.285,438.789 L 448.377,439.016 L 448.429,439.002 L 448.473,438.937 L 448.522,438.93 L 448.579,438.961 L 448.636,439.066 L 448.729,439.162 L 448.887,439.229 L 448.987,439.32 L 448.976,439.563 L 449.014,439.799 L 449.083,439.853 L 449.119,439.994 L 449.137,440.148 L 449.175,440.229 L 449.202,440.385 L 449.188,440.553 L 449.217,440.67 L 449.333,440.873 L 449.405,441.128 L 449.406,441.31 L 449.363,441.5 L 449.286,441.674 L 449.151,441.863 L 449.14,441.938 L 449.22,441.987 L 449.342,441.998 L 449.444,441.958 L 449.702,442.046 L 449.837,442.17 L 449.956,442.325 L 450.063,442.403 L 450.111,442.5 L 450.294,442.474 L 450.507,442.38 L 450.551,442.335 L 450.614,442.359 L 450.751,442.369 L 450.847,442.2 L 450.924,442.006 L 451.089,441.795 L 451.17,441.714 L 451.191,441.58 L 451.2,441.406 L 451.26,441.255 L 451.396,441.172 L 451.543,441.173 L 451.623,441.204 L 451.664,441.35 L 451.782,441.461 L 451.882,441.537" id="LR" title="Liberia"/>
</svg>
