<svg xmlns="http://www.w3.org/2000/svg" xmlns:ev="http://www.w3.org/2001/xml-events" xmlns:xlink="http://www.w3.org/1999/xlink" baseProfile="full" height="6.6190185546875" version="1.1" viewBox="551.6199951171875 545.9190063476562 6.56402587890625 6.6190185546875" width="6.56402587890625">
	<defs/>
	<path class="land" d="M 556.349,550.789 L 556.097,550.869 L 556.062,550.875 L 555.899,550.857 L 555.683,550.876 L 555.514,550.92 L 555.382,550.937 L 555.167,551.166 L 554.775,551.784 L 554.671,551.914 L 554.643,552.158 L 554.552,552.351 L 554.44,552.501 L 554.332,552.538 L 554.006,552.478 L 553.588,552.401 L 553.345,552.214 L 553.129,551.968 L 553.016,551.789 L 552.896,551.691 L 552.855,551.636 L 552.686,551.554 L 552.622,551.511 L 552.565,551.48 L 552.497,551.362 L 552.456,551.259 L 552.472,550.972 L 552.352,550.801 L 552.147,550.51 L 552.018,550.271 L 551.841,549.945 L 551.732,549.667 L 551.62,549.379 L 551.635,549.255 L 551.742,549.171 L 552.057,549.026 L 552.301,548.914 L 552.476,548.709 L 552.667,548.403 L 552.76,548.22 L 552.853,548.136 L 552.954,548.007 L 553.131,547.72 L 553.328,547.402 L 553.539,547.061 L 553.805,546.962 L 554.168,546.848 L 554.518,546.55 L 554.934,546.3 L 555.605,546.028 L 555.918,545.959 L 556.038,545.919 L 556.113,545.971 L 556.193,546.126 L 556.307,546.257 L 556.572,546.483 L 556.684,546.538 L 556.958,546.874 L 557.25,547.104 L 557.587,547.37 L 557.816,547.502 L 557.934,547.539 L 558.03,547.775 L 558.129,547.95 L 558.184,548.114 L 558.173,548.274 L 558.067,548.666 L 557.912,549.067 L 557.787,549.233 L 557.635,549.339 L 557.487,549.498 L 557.43,549.82 L 557.363,550.199 L 557.169,550.355 L 557.019,550.458 L 556.81,550.584 L 556.349,550.789" id="LS" title="Lesotho"/>
</svg>
