<svg xmlns="http://www.w3.org/2000/svg" xmlns:ev="http://www.w3.org/2001/xml-events" xmlns:xlink="http://www.w3.org/1999/xlink" baseProfile="full" height="12.345001220703125" version="1.1" viewBox="534.35400390625 270.9389953613281 16.490966796875 12.345001220703125" width="16.490966796875">
	<defs/>
	<path class="land" d="M 550.334,274.666 L 550.327,274.889 L 550.259,275.266 L 550.126,275.752 L 549.987,276.128 L 549.953,276.27299999999997 L 550.058,276.39399999999995 L 550.58,276.45099999999996 L 550.802,276.515 L 550.845,276.615 L 550.729,276.744 L 550.562,276.85100000000006 L 550.488,276.95300000000003 L 550.355,277.31600000000003 L 549.487,277.27000000000004 L 549.372,277.34400000000005 L 549.317,277.51200000000006 L 549.274,277.7060000000001 L 549.16,277.9360000000001 L 548.93,278.1360000000001 L 548.569,278.2100000000001 L 548.274,278.3460000000001 L 548.054,278.7640000000001 L 547.89,279.3240000000001 L 547.894,279.72000000000014 L 547.915,279.94100000000014 L 547.896,280.0670000000001 L 547.785,280.2040000000001 L 547.603,280.5670000000001 L 547.4549999999999,280.96800000000013 L 547.3979999999999,281.1850000000001 L 547.4259999999999,281.2870000000001 L 547.593,281.2900000000001 L 547.834,281.37200000000007 L 547.962,281.5320000000001 L 548.009,281.7170000000001 L 548.009,281.9150000000001 L 547.964,282.02400000000006 L 547.7710000000001,282.10300000000007 L 547.469,282.10600000000005 L 547.293,282.01200000000006 L 547.2570000000001,281.93700000000007 L 547.341,281.7460000000001 L 547.28,281.5070000000001 L 547.155,281.37400000000014 L 546.901,281.57300000000015 L 546.6569999999999,281.57300000000015 L 546.3649999999999,281.75100000000015 L 546.1739999999999,282.03500000000014 L 545.9909999999999,282.1390000000001 L 545.4949999999999,282.08100000000013 L 545.3719999999998,282.20600000000013 L 545.2689999999999,282.78200000000015 L 545.2099999999999,282.8940000000002 L 544.7959999999999,282.8700000000002 L 544.3969999999999,283.09900000000016 L 543.9459999999999,283.28400000000016 L 543.718,283.1560000000002 L 543.591,283.0110000000002 L 543.345,283.0370000000002 L 543.077,283.1010000000002 L 542.897,283.0660000000002 L 542.695,283.0820000000002 L 542.3050000000001,283.1930000000002 L 541.815,283.1570000000002 L 541.6060000000001,283.0620000000002 L 541.5860000000001,282.9710000000002 L 541.6010000000001,282.7470000000002 L 541.5960000000001,282.39900000000017 L 541.5180000000001,282.0910000000002 L 541.2830000000001,281.8190000000002 L 541.0370000000001,281.6280000000002 L 540.7230000000002,281.4310000000002 L 540.4910000000002,281.3450000000002 L 540.3640000000003,281.3230000000002 L 540.3350000000003,281.20900000000023 L 540.2890000000002,281.11000000000024 L 540.1800000000002,281.0240000000002 L 539.9480000000002,280.90800000000024 L 539.7510000000002,280.88300000000027 L 539.5900000000003,281.0700000000003 L 539.4720000000002,280.8360000000003 L 539.3470000000002,280.4150000000003 L 539.3600000000002,280.0780000000003 L 539.4310000000003,279.7410000000003 L 539.7720000000003,278.7420000000003 L 539.7540000000002,278.5820000000003 L 539.5060000000002,278.3020000000003 L 539.2000000000002,278.0980000000003 L 539.0310000000002,277.6660000000003 L 538.4110000000002,277.6410000000003 L 537.8260000000001,277.6650000000003 L 537.6420000000002,277.6440000000003 L 537.0850000000002,277.4630000000003 L 536.5480000000001,277.17100000000033 L 536.1890000000001,277.00000000000034 L 535.8870000000001,276.80800000000033 L 535.724,276.60600000000034 L 535.4670000000001,276.6600000000003 L 535.2930000000001,276.6620000000003 L 535.2950000000001,276.6270000000003 L 535.196,276.27000000000027 L 535.3000000000001,275.72200000000026 L 535.1120000000001,274.9160000000003 L 534.8050000000001,273.94300000000027 L 534.783,272.89600000000024 L 534.761,272.66000000000025 L 535.515,272.06600000000026 L 536.466,271.42900000000026 L 536.682,271.37100000000027 L 537.558,270.9930000000003 L 537.675,270.9630000000003 L 538.4649999999999,271.0330000000003 L 539.0849999999999,271.1230000000003 L 539.608,271.11200000000025 L 539.895,271.01500000000027 L 540.155,271.0960000000003 L 540.3639999999999,271.3810000000003 L 540.5799999999999,271.3470000000003 L 540.7929999999999,271.1630000000003 L 541.9629999999999,271.3310000000003 L 542.2269999999999,271.3270000000003 L 542.5239999999999,271.35400000000027 L 543.0719999999999,271.52500000000026 L 543.3879999999999,271.68200000000024 L 544.0819999999999,271.5870000000002 L 544.3789999999999,271.5820000000002 L 544.5339999999999,271.5200000000002 L 545.0129999999999,271.0900000000002 L 545.2199999999999,271.0160000000002 L 545.41,270.9390000000002 L 545.584,271.0040000000002 L 545.698,271.3710000000002 L 546.052,272.0020000000002 L 546.437,272.11300000000017 L 547.5,272.3550000000002 L 547.717,272.4820000000002 L 548.3149999999999,273.0360000000002 L 548.674,273.3070000000002 L 548.9019999999999,273.5230000000002 L 549.2499999999999,273.9460000000002 L 549.4509999999999,274.2530000000002 L 549.7869999999999,274.48500000000024 L 550.185,274.64100000000025 L 550.334,274.666 M 534.517,276.586 L 534.354,276.548 L 534.6750000000001,275.98 L 534.7980000000001,275.61 L 534.8830000000002,275.084 L 534.9580000000002,274.918 L 534.9600000000002,275.157 L 534.9270000000001,275.555 L 534.7240000000002,276.232 L 534.517,276.586" id="LT" title="Lithuania"/>
</svg>
