<svg xmlns="http://www.w3.org/2000/svg" xmlns:ev="http://www.w3.org/2001/xml-events" xmlns:xlink="http://www.w3.org/1999/xlink" baseProfile="full" height="3.1300048828125" version="1.1" viewBox="491.7669982910156 300.2489929199219 2.157012939453125 3.1300048828125" width="2.157012939453125">
	<defs/>
	<path class="land" d="M 492.865,300.451 L 492.843,300.568 L 492.847,300.829 L 492.926,301.09 L 493.114,301.348 L 493.257,301.534 L 493.45,301.683 L 493.776,301.824 L 493.906,301.854 L 493.924,302.045 L 493.899,302.247 L 493.786,302.358 L 493.68,302.519 L 493.6,302.714 L 493.517,303.089 L 493.505,303.348 L 493.317,303.241 L 493.218,303.168 L 493.046,303.148 L 492.875,303.208 L 492.747,303.339 L 492.57,303.379 L 492.425,303.339 L 492.339,303.241 L 492.262,303.188 L 492.043,303.122 L 491.948,302.979 L 492.021,302.912 L 492.083,302.806 L 492.136,302.657 L 492.203,302.52 L 491.988,302.141 L 491.943,302.025 L 491.767,301.812 L 491.769,301.703 L 491.811,301.6 L 491.795,301.519 L 491.82,301.328 L 491.944,301.147 L 492.026,300.923 L 492.165,300.617 L 492.472,300.249 L 492.692,300.306 L 492.789,300.304 L 492.847,300.439 L 492.865,300.451" id="LU" title="Luxembourg"/>
</svg>
