<svg xmlns="http://www.w3.org/2000/svg" xmlns:ev="http://www.w3.org/2001/xml-events" xmlns:xlink="http://www.w3.org/1999/xlink" baseProfile="full" height="12.281982421875" version="1.1" viewBox="534.677978515625 262.3840026855469 20.1700439453125 12.281982421875" width="20.1700439453125">
	<defs/>
	<path class="land" d="M 552.462,265.198 L 552.793,265.219 L 552.909,265.302 L 552.987,265.71 L 553.363,266.031 L 553.711,266.296 L 553.8,266.419 L 553.827,266.655 L 553.805,266.931 L 553.761,267.073 L 553.615,267.237 L 553.488,267.652 L 553.47,268.046 L 553.27,268.726 L 553.315,268.738 L 553.737,268.616 L 553.856,268.686 L 553.949,268.835 L 553.979,269.26 L 554.117,269.451 L 554.258,269.749 L 554.302,269.98 L 554.571,270.255 L 554.592,270.434 L 554.756,271.061 L 554.819,271.421 L 554.848,271.7 L 554.768,272.053 L 554.696,272.291 L 554.612,272.276 L 554.371,272.339 L 553.99,272.626 L 553.423,273.301 L 553.277,273.45 L 553.129,273.961 L 553.093,274.013 L 552.763,273.99 L 552.673,273.978 L 552.343,273.988 L 551.622,273.855 L 551.343,273.943 L 550.977,274.459 L 550.834,274.535 L 550.409,274.606 L 550.334,274.666 L 550.192,274.642 L 549.794,274.486 L 549.458,274.254 L 549.256,273.947 L 548.908,273.524 L 548.68,273.308 L 548.321,273.037 L 547.723,272.482 L 547.506,272.355 L 546.442,272.113 L 546.058,272.002 L 545.704,271.371 L 545.59,271.003 L 545.416,270.938 L 545.225,271.015 L 545.019,271.089 L 544.54,271.519 L 544.385,271.58 L 544.088,271.585 L 543.394,271.68 L 543.078,271.523 L 542.53,271.352 L 542.232,271.325 L 541.968,271.329 L 540.798,271.161 L 540.585,271.345 L 540.369,271.378 L 540.16,271.093 L 539.899,271.012 L 539.612,271.109 L 539.089,271.12 L 538.469,271.03 L 537.68,270.96 L 537.563,270.99 L 536.686,271.369 L 536.47,271.426 L 535.519,272.063 L 534.765,272.657 L 534.678,271.707 L 534.724,269.793 L 534.836,268.838 L 535.358,268.279 L 535.62,267.843 L 535.772,267.259 L 535.818,266.717 L 535.924,266.268 L 536.681,264.974 L 537.28,264.834 L 538.092,264.473 L 538.999,264.172 L 539.174,264.555 L 539.263,264.847 L 540.355,265.906 L 540.633,266.261 L 541.055,267.471 L 542.067,268.083 L 542.862,267.89 L 543.208,267.593 L 543.845,267.045 L 544.129,266.643 L 544.187,266.255 L 544.074,264.585 L 543.902,263.857 L 543.96,263.403 L 544.072,263.426 L 544.343,263.206 L 545.232,262.798 L 545.41,262.779 L 545.613,262.696 L 546.173,262.384 L 546.354,262.55 L 546.504,262.738 L 546.586,262.74 L 546.627,262.67 L 546.616,262.549 L 546.655,262.463 L 546.816,262.511 L 547.465,263.022 L 547.714,263.142 L 547.885,263.175 L 548.089,263.414 L 548.643,263.573 L 548.711,263.696 L 548.753,263.85 L 549.272,264.494 L 549.505,264.817 L 549.965,265.113 L 550.163,265.183 L 550.969,264.881 L 551.193,264.777 L 551.379,264.775 L 551.568,264.934 L 552.0,265.145 L 552.391,265.212 L 552.462,265.198" id="LV" title="Latvia"/>
</svg>
