<svg xmlns="http://www.w3.org/2000/svg" xmlns:ev="http://www.w3.org/2001/xml-events" xmlns:xlink="http://www.w3.org/1999/xlink" baseProfile="full" height="42.779998779296875" version="1.1" viewBox="501.8290100097656 364.44500732421875 44.454986572265625 42.779998779296875" width="44.454986572265625">
	<defs/>
	<path class="land" d="M 546.284,369.498 L 546.176,369.59 L 546.022,369.786 L 545.925,369.96 L 545.665,370.244 L 545.448,370.547 L 545.469,370.99 L 545.518,371.44 L 545.664,371.879 L 545.789,372.367 L 545.753,372.685 L 545.646,373.076 L 545.518,373.402 L 545.094,374.071 L 545.029,374.231 L 545.053,374.456 L 545.311,375.248 L 545.331,375.497 L 545.485,376.263 L 545.626,376.885 L 545.782,377.374 L 545.806,377.508 L 545.806,378.225 L 545.806,378.941 L 545.806,379.655 L 545.806,380.368 L 545.806,381.079 L 545.806,381.789 L 545.806,382.497 L 545.806,383.204 L 545.806,383.909 L 545.806,384.613 L 545.806,385.315 L 545.806,386.017 L 545.806,386.716 L 545.806,387.414 L 545.806,388.111 L 545.806,388.807 L 545.806,389.501 L 545.806,390.194 L 545.806,390.886 L 545.806,391.576 L 545.806,392.266 L 545.806,392.954 L 545.806,393.64 L 545.806,394.326 L 545.806,395.01 L 545.806,395.693 L 545.806,396.375 L 545.806,397.056 L 545.806,397.735 L 545.806,398.414 L 545.806,399.092 L 545.806,399.768 L 545.806,401.265 L 545.805,402.757 L 545.805,404.244 L 545.804,405.726 L 545.795,405.73 L 545.787,405.736 L 545.778,405.741 L 545.769,405.747 L 545.077,405.746 L 544.385,405.746 L 543.692,405.746 L 543.0,405.745 L 543.0,406.116 L 543.0,406.486 L 543.0,406.855 L 543.0,407.225 L 541.655,406.524 L 540.311,405.823 L 538.966,405.12 L 537.622,404.416 L 536.277,403.711 L 534.933,403.005 L 533.588,402.298 L 532.244,401.59 L 530.899,400.88 L 529.555,400.169 L 528.21,399.458 L 526.866,398.745 L 525.521,398.03 L 524.177,397.314 L 522.832,396.598 L 521.487,395.88 L 520.559,395.383 L 519.557,395.868 L 518.772,396.248 L 517.738,396.747 L 517.738,396.747 L 516.55,397.394 L 515.638,397.89 L 515.595,397.886 L 515.554,397.874 L 514.605,397.032 L 513.864,396.373 L 513.535,396.188 L 512.138,395.851 L 510.749,395.516 L 509.287,395.162 L 509.021,394.623 L 508.724,394.02 L 508.323,393.265 L 508.078,392.802 L 507.996,392.73 L 506.875,392.364 L 505.69,392.004 L 504.997,392.222 L 504.875,392.206 L 504.679,392.069 L 504.482,391.882 L 504.378,391.621 L 504.1,391.271 L 503.843,390.468 L 503.818,389.828 L 503.767,389.601 L 503.15,388.697 L 502.589,387.874 L 502.216,387.324 L 502.144,387.075 L 502.187,386.769 L 502.337,386.494 L 502.88,386.169 L 503.37,385.814 L 503.437,385.568 L 503.468,384.889 L 503.308,384.677 L 503.19,384.273 L 503.07,383.726 L 503.056,383.375 L 503.274,382.676 L 503.529,381.943 L 503.367,381.129 L 503.247,379.49 L 503.322,378.194 L 503.261,377.722 L 503.218,377.523 L 503.051,376.909 L 502.846,376.274 L 502.754,376.051 L 502.491,375.538 L 502.055,374.901 L 501.829,374.509 L 502.139,374.302 L 502.414,374.14 L 502.749,373.969 L 503.224,373.775 L 503.47,373.629 L 503.575,373.506 L 503.932,373.004 L 504.118,372.726 L 504.372,372.345 L 504.483,372.079 L 504.486,371.833 L 504.447,371.535 L 504.249,370.821 L 504.087,370.125 L 504.213,369.856 L 504.314,369.728 L 504.535,369.4 L 504.623,369.334 L 505.1,369.232 L 505.29,369.014 L 505.436,368.74 L 505.473,368.596 L 505.681,368.445 L 505.93,368.294 L 506.083,368.098 L 506.585,367.794 L 507.043,367.517 L 507.576,367.225 L 507.988,366.999 L 508.075,366.801 L 508.069,366.63 L 507.845,366.24 L 507.845,365.778 L 507.86,365.394 L 507.882,365.167 L 507.981,364.534 L 507.987,364.445 L 508.415,364.656 L 508.854,364.74 L 510.163,365.523 L 510.576,365.621 L 511.492,365.714 L 512.571,365.394 L 512.979,365.336 L 513.689,365.637 L 514.002,365.722 L 514.528,365.745 L 515.427,366.017 L 515.656,366.112 L 516.18,366.546 L 516.431,366.676 L 518.292,367.073 L 518.546,367.336 L 518.805,367.837 L 518.816,368.459 L 518.959,368.909 L 519.19,369.492 L 519.469,369.904 L 519.778,370.247 L 520.133,370.461 L 520.949,370.777 L 521.869,370.898 L 522.797,370.939 L 524.39,371.374 L 525.741,371.875 L 526.074,372.122 L 526.751,372.364 L 528.096,373.538 L 528.845,373.943 L 529.37,374.021 L 529.841,373.95 L 530.678,373.544 L 531.024,373.302 L 531.866,372.288 L 532.143,371.758 L 532.253,371.383 L 532.226,371.002 L 532.121,370.659 L 531.885,370.299 L 531.72,369.823 L 531.623,368.964 L 531.755,368.367 L 531.916,368.009 L 532.17,367.643 L 532.869,366.942 L 533.572,366.447 L 534.811,365.799 L 535.53,365.792 L 535.828,365.72 L 536.42,365.261 L 536.66,365.244 L 536.992,365.356 L 537.968,365.324 L 538.398,365.452 L 538.911,365.738 L 539.559,365.915 L 540.016,366.092 L 540.503,366.319 L 540.613,366.884 L 540.559,367.052 L 540.547,367.271 L 541.052,367.659 L 542.487,367.841 L 542.77,367.945 L 543.165,368.242 L 543.419,368.333 L 544.402,368.375 L 544.975,368.312 L 545.521,368.416 L 545.723,368.516 L 545.932,368.748 L 546.185,369.31 L 546.284,369.498" id="LY" title="Libya"/>
</svg>
