<svg xmlns="http://www.w3.org/2000/svg" xmlns:ev="http://www.w3.org/2001/xml-events" xmlns:xlink="http://www.w3.org/1999/xlink" baseProfile="full" height="27.24298095703125" version="1.1" viewBox="438.7170104980469 355.12200927734375 33.99200439453125 27.24298095703125" width="33.99200439453125">
	<defs/>
	<path class="land" d="M 469.47,357.957 L 469.551,358.21 L 469.717,358.412 L 470.309,358.873 L 470.66,359.157 L 470.67,359.255 L 470.557,359.488 L 470.509,359.648 L 470.601,359.819 L 470.818,360.025 L 470.835,360.124 L 470.783,360.239 L 470.671,360.46 L 470.909,361.108 L 470.949,361.735 L 470.887,362.18 L 470.889,362.437 L 470.92,362.655 L 471.122,363.158 L 470.987,363.989 L 471.139,364.441 L 471.348,364.807 L 471.462,365.459 L 471.63,365.768 L 471.905,366.039 L 472.062,366.13 L 472.365,366.354 L 472.582,366.54 L 472.709,366.818 L 472.437,367.046 L 472.219,367.25 L 472.157,367.47 L 472.259,367.822 L 472.259,368.011 L 472.12,368.071 L 471.554,368.051 L 471.11,368.036 L 470.6,368.019 L 469.882,367.985 L 469.438,367.964 L 468.828,367.936 L 468.618,367.95 L 468.059,368.048 L 467.664,368.118 L 467.597,368.137 L 467.474,368.224 L 467.389,368.483 L 467.313,368.778 L 467.231,368.909 L 466.046,369.335 L 465.583,369.394 L 465.315,369.35 L 465.124,369.385 L 464.96,369.476 L 464.904,369.613 L 464.896,369.789 L 464.931,369.966 L 465.045,370.212 L 465.065,370.458 L 464.992,370.632 L 464.975,370.806 L 464.941,370.994 L 465.002,371.096 L 465.116,371.112 L 465.231,371.198 L 465.393,371.276 L 465.527,371.425 L 465.521,371.637 L 465.409,371.757 L 465.31,371.82 L 464.866,371.876 L 464.515,371.921 L 464.056,372.259 L 463.567,372.619 L 462.989,372.857 L 462.734,372.924 L 462.289,373.095 L 461.756,373.376 L 461.493,373.826 L 461.162,374.344 L 460.843,374.691 L 460.408,375.02 L 460.002,375.145 L 459.492,375.303 L 458.849,375.424 L 458.394,375.464 L 458.258,375.49 L 457.857,375.498 L 457.661,375.473 L 457.514,375.459 L 457.455,375.496 L 457.435,375.577 L 457.427,375.763 L 457.4,375.976 L 457.273,376.155 L 457.183,376.235 L 457.078,376.268 L 456.741,376.22 L 456.459,376.163 L 455.788,376.087 L 455.654,376.105 L 455.604,376.127 L 455.395,376.249 L 455.073,376.505 L 454.854,376.729 L 454.691,376.834 L 454.301,376.889 L 454.131,376.971 L 453.405,377.53 L 453.25,377.666 L 452.503,378.151 L 452.292,378.312 L 452.127,378.471 L 451.681,378.829 L 451.396,378.986 L 451.344,379.079 L 451.33,379.297 L 451.33,379.779 L 451.33,380.241 L 451.33,380.911 L 451.33,381.581 L 451.33,382.351 L 450.953,382.351 L 450.953,382.352 L 450.951,382.351 L 438.717,382.365 L 438.721,382.353 L 439.101,381.993 L 439.358,381.537 L 439.794,381.334 L 440.706,381.236 L 442.061,380.857 L 443.277,380.284 L 443.621,380.056 L 443.989,379.598 L 444.601,379.001 L 445.744,378.283 L 446.27,377.881 L 447.072,376.872 L 447.605,376.035 L 448.048,375.495 L 448.354,375.015 L 448.569,374.528 L 448.69,373.742 L 448.609,373.434 L 448.271,372.93 L 448.045,372.795 L 447.984,372.557 L 448.105,372.137 L 448.103,371.413 L 448.171,370.253 L 448.547,369.314 L 449.466,368.079 L 449.637,367.57 L 449.742,366.76 L 449.751,366.473 L 450.901,365.317 L 451.574,364.428 L 451.808,364.21 L 452.402,363.803 L 454.476,362.912 L 455.648,362.273 L 456.332,361.807 L 456.74,361.254 L 457.87,359.075 L 458.979,355.979 L 459.072,355.619 L 459.568,355.515 L 459.919,355.47 L 460.202,355.356 L 460.552,355.122 L 460.888,355.216 L 460.72,355.375 L 460.72,355.759 L 460.958,356.208 L 461.372,356.712 L 462.124,357.351 L 462.71,357.607 L 463.547,357.761 L 464.523,357.481 L 465.069,357.476 L 465.334,357.355 L 465.623,357.532 L 466.172,357.589 L 466.702,357.496 L 467.103,357.228 L 467.358,356.919 L 467.398,357.071 L 467.41,357.235 L 467.488,357.331 L 467.646,357.723 L 467.729,357.876 L 468.034,357.851 L 468.299,357.928 L 468.897,357.891 L 469.47,357.957" id="MA" title="Morocco"/>
</svg>
