<svg xmlns="http://www.w3.org/2000/svg" xmlns:ev="http://www.w3.org/2001/xml-events" xmlns:xlink="http://www.w3.org/1999/xlink" baseProfile="full" height="12.415008544921875" version="1.1" viewBox="550.405029296875 307.5039978027344 9.85699462890625 12.415008544921875" width="9.85699462890625">
	<defs/>
	<path class="land" d="M 554.877,319.919 L 554.737,319.666 L 554.595,319.445 L 554.491,319.326 L 554.535,319.271 L 554.648,319.208 L 554.729,319.133 L 554.72,318.869 L 554.66,318.565 L 554.605,318.418 L 554.6,318.187 L 554.561,317.827 L 554.616,317.157 L 554.842,316.313 L 554.967,315.892 L 554.906,315.661 L 554.953,315.121 L 554.855,314.854 L 554.702,314.504 L 554.483,313.741 L 554.209,313.475 L 553.871,313.182 L 553.727,312.961 L 553.63,312.717 L 553.429,312.474 L 553.198,312.251 L 552.922,311.692 L 552.779,311.439 L 552.735,311.372 L 552.42,311.012 L 552.255,310.687 L 552.171,310.419 L 552.123,310.172 L 551.901,309.681 L 551.7,309.312 L 551.509,309.048 L 551.421,308.861 L 551.197,308.626 L 550.878,308.438 L 550.671,308.406 L 550.405,308.421 L 550.466,308.277 L 551.045,307.886 L 551.196,307.95 L 551.499,307.965 L 552.116,307.952 L 552.42,307.694 L 552.608,307.766 L 552.761,307.65 L 553.016,307.504 L 553.053,307.535 L 553.085,307.558 L 553.479,307.623 L 553.776,307.763 L 553.974,307.978 L 554.179,308.111 L 554.389,308.163 L 554.506,308.271 L 554.529,308.433 L 554.727,308.513 L 555.098,308.511 L 555.255,308.618 L 555.199,308.835 L 555.237,308.906 L 555.369,308.832 L 555.469,308.896 L 555.521,309.056 L 555.581,309.132 L 555.77,308.881 L 555.97,308.906 L 556.453,309.01 L 556.711,309.529 L 556.872,309.715 L 557.013,309.791 L 557.191,309.71 L 557.349,309.614 L 557.439,309.659 L 557.635,310.002 L 557.68,310.45 L 557.679,310.63 L 557.61,310.934 L 557.511,311.256 L 557.433,311.466 L 557.466,311.634 L 557.536,311.775 L 557.65,311.821 L 558.024,312.105 L 558.164,312.303 L 558.367,312.449 L 558.521,312.457 L 558.601,312.538 L 558.629,312.638 L 558.608,312.89 L 558.522,313.126 L 558.533,313.278 L 558.669,313.458 L 558.684,313.666 L 558.693,313.8 L 558.765,313.903 L 559.108,314.132 L 559.551,314.353 L 559.664,314.543 L 559.733,314.783 L 559.711,315.186 L 559.682,315.536 L 560.262,316.006 L 560.196,316.094 L 560.106,316.19 L 559.552,316.261 L 559.439,316.3 L 559.198,315.947 L 559.071,315.902 L 558.953,316.032 L 558.813,316.104 L 558.646,316.068 L 558.466,315.959 L 558.375,315.882 L 558.302,315.873 L 558.19,315.95 L 558.041,315.917 L 557.943,315.83 L 557.802,316.13 L 557.716,316.193 L 557.662,316.184 L 557.651,315.674 L 557.61,315.597 L 557.498,315.584 L 557.228,315.706 L 556.971,315.863 L 556.884,316.002 L 556.893,316.253 L 556.93,316.552 L 557.105,317.005 L 557.009,317.202 L 556.941,317.516 L 556.666,317.803 L 556.354,317.97 L 556.328,318.312 L 556.155,318.545 L 555.859,318.778 L 555.661,319.059 L 555.711,319.25 L 555.723,319.432 L 555.689,319.555 L 555.682,319.65 L 555.604,319.692 L 555.152,319.727 L 555.024,319.786 L 554.877,319.919" id="MD" title="Moldova"/>
</svg>
