<svg xmlns="http://www.w3.org/2000/svg" xmlns:ev="http://www.w3.org/2001/xml-events" xmlns:xlink="http://www.w3.org/1999/xlink" baseProfile="full" height="6.368988037109375" version="1.1" viewBox="527.4409790039062 327.4010009765625 5.364013671875 6.368988037109375" width="5.364013671875" fill="#00394f">
	<defs/>
	<path class="land" d="M 529.568,327.437 L 529.561,327.484 L 529.574,327.623 L 529.637,327.758 L 529.86,327.896 L 530.187,328.17 L 530.571,328.672 L 530.747,328.82 L 530.906,328.857 L 531.215,329.064 L 531.431,329.115 L 531.672,329.172 L 532.3,329.605 L 532.583,329.731 L 532.783,329.894 L 532.805,330.047 L 532.796,330.142 L 532.433,330.252 L 532.37,330.421 L 532.194,330.401 L 531.981,330.4 L 531.912,330.507 L 532.014,330.683 L 532.08,330.889 L 532.027,331.172 L 532.009,331.209 L 531.958,331.199 L 531.658,331.363 L 531.436,331.44 L 531.235,331.479 L 531.14,331.4 L 531.093,331.293 L 531.102,330.983 L 531.065,330.878 L 530.997,330.827 L 530.859,330.9 L 530.7,331.141 L 530.551,331.419 L 530.328,331.709 L 530.144,331.987 L 529.946,332.338 L 529.811,332.627 L 529.951,332.791 L 530.037,333.017 L 530.011,333.187 L 530.036,333.286 L 529.992,333.583 L 529.984,333.77 L 529.546,333.471 L 529.366,333.05 L 528.726,332.337 L 527.993,331.851 L 527.954,331.774 L 527.994,331.68 L 528.029,331.606 L 527.876,331.6 L 527.77,331.66 L 527.668,331.643 L 527.554,331.46 L 527.446,331.302 L 527.441,331.162 L 527.49,331.144 L 527.563,331.088 L 527.718,330.933 L 527.749,330.851 L 527.741,330.727 L 527.524,330.335 L 527.493,330.08 L 527.462,329.605 L 527.508,329.493 L 527.587,329.438 L 527.966,329.379 L 527.961,329.008 L 527.984,328.896 L 528.06,328.742 L 528.108,328.601 L 528.319,328.398 L 528.605,328.157 L 528.73,328.149 L 528.839,328.183 L 528.963,328.391 L 529.098,328.364 L 529.126,328.114 L 528.949,327.787 L 528.855,327.578 L 528.884,327.462 L 528.95,327.401 L 529.103,327.439 L 529.248,327.497 L 529.339,327.458 L 529.484,327.428 L 529.568,327.437" id="ME" title="Montenegro"/>
</svg>
