<svg xmlns="http://www.w3.org/2000/svg" xmlns:ev="http://www.w3.org/2001/xml-events" xmlns:xlink="http://www.w3.org/1999/xlink" baseProfile="full" height="39.8699951171875" version="1.1" viewBox="597.1010131835938 496.6090087890625 20.27801513671875 39.8699951171875" width="20.27801513671875">
	<defs/>
	<path class="land" d="M 614.729,497.606 L 614.8580000000001,497.905 L 615.008,498.19199999999995 L 615.4770000000001,498.88599999999997 L 615.6780000000001,499.15299999999996 L 615.8490000000002,499.43699999999995 L 615.9320000000001,500.00399999999996 L 616.2310000000001,500.88599999999997 L 616.5120000000001,502.21399999999994 L 616.5980000000001,503.57899999999995 L 616.6850000000001,504.20599999999996 L 616.9040000000001,504.79699999999997 L 617.2630000000001,505.41099999999994 L 617.3790000000001,506.09399999999994 L 617.1590000000001,506.7989999999999 L 616.8420000000001,507.46399999999994 L 616.7600000000001,507.58899999999994 L 616.6110000000001,507.75999999999993 L 616.5440000000001,507.75299999999993 L 616.2900000000001,507.5809999999999 L 616.0820000000001,507.2999999999999 L 615.8190000000001,506.6389999999999 L 615.7230000000001,506.3039999999999 L 615.613,506.2509999999999 L 615.3050000000001,506.2799999999999 L 615.0820000000001,506.48799999999994 L 615.041,506.6189999999999 L 615.089,506.9919999999999 L 615.1740000000001,507.3269999999999 L 615.2110000000001,507.6679999999999 L 615.2180000000001,508.09699999999987 L 615.301,508.22699999999986 L 615.423,508.33599999999984 L 615.55,508.61699999999985 L 615.572,509.28699999999986 L 615.494,509.62599999999986 L 615.277,509.91799999999984 L 615.2900000000001,510.07899999999984 L 615.3710000000001,510.24499999999983 L 615.2940000000001,510.34499999999986 L 615.0050000000001,510.47099999999983 L 614.8880000000001,510.58299999999986 L 614.7320000000002,510.8799999999999 L 614.4790000000002,511.4859999999999 L 614.4450000000002,511.7959999999999 L 614.6030000000002,512.7399999999999 L 614.5590000000002,513.4099999999999 L 614.2370000000002,514.6949999999998 L 614.0510000000002,515.3059999999998 L 613.7880000000001,516.0369999999998 L 613.3860000000001,517.0019999999998 L 612.988,518.2169999999999 L 612.6500000000001,519.4699999999999 L 612.4000000000001,520.2249999999999 L 612.1160000000001,520.9699999999999 L 611.7270000000001,522.2889999999999 L 611.397,523.6319999999998 L 610.9060000000001,525.1139999999998 L 610.2280000000001,526.7729999999998 L 610.1550000000001,526.9899999999998 L 610.0140000000001,527.8409999999998 L 609.8620000000001,528.5809999999998 L 609.6800000000001,529.3149999999998 L 609.3000000000001,530.5309999999998 L 609.2570000000001,530.9059999999998 L 609.171,531.2669999999998 L 608.8050000000001,532.0329999999998 L 608.6500000000001,532.3179999999998 L 608.541,532.6209999999998 L 608.479,533.0059999999997 L 608.37,533.3779999999997 L 608.102,534.0629999999996 L 607.703,534.6529999999997 L 607.4309999999999,534.8679999999997 L 606.843,535.1799999999997 L 606.545,535.2429999999997 L 605.884,535.2499999999997 L 605.244,535.4279999999997 L 604.577,535.7699999999996 L 603.935,536.1629999999997 L 603.689,536.3499999999997 L 603.418,536.4569999999997 L 602.57,536.4789999999997 L 602.316,536.3939999999997 L 601.467,535.7479999999997 L 601.138,535.6419999999997 L 600.515,535.5539999999997 L 600.327,535.4989999999998 L 600.156,535.4149999999998 L 599.904,535.0779999999999 L 599.404,534.7939999999999 L 599.284,534.7049999999998 L 599.208,534.5089999999998 L 599.156,534.2979999999998 L 599.026,534.0619999999998 L 598.93,533.6129999999998 L 598.7669999999999,533.2999999999998 L 598.3069999999999,532.7469999999998 L 598.2579999999999,532.5699999999998 L 598.2209999999999,531.9839999999998 L 598.2359999999999,531.5879999999999 L 598.1909999999999,530.8639999999998 L 598.2439999999999,530.5239999999998 L 598.406,530.2179999999997 L 598.3399999999999,529.8869999999997 L 598.1679999999999,529.5389999999998 L 598.1039999999999,529.1799999999997 L 597.978,528.8529999999997 L 597.496,528.2649999999998 L 597.3829999999999,527.9759999999998 L 597.305,527.6769999999998 L 597.1229999999999,526.7459999999998 L 597.1009999999999,526.4219999999998 L 597.1279999999999,525.7379999999998 L 597.1949999999999,525.3859999999999 L 597.3119999999999,525.1409999999998 L 597.3409999999999,524.9579999999999 L 597.4169999999999,524.8009999999998 L 597.531,524.6759999999998 L 597.608,524.5269999999998 L 597.7879999999999,523.6569999999998 L 598.0159999999998,523.4639999999998 L 598.3539999999998,523.3529999999998 L 598.6249999999998,523.1259999999999 L 598.7809999999997,522.8199999999998 L 598.9369999999997,522.1889999999999 L 599.3629999999997,521.5639999999999 L 599.5149999999998,521.2359999999999 L 599.8589999999998,520.7399999999999 L 600.1629999999998,520.0439999999999 L 600.2549999999998,519.7159999999999 L 600.3209999999998,519.3809999999999 L 600.3979999999998,518.6459999999998 L 600.4559999999998,518.2809999999998 L 600.4439999999998,517.9189999999999 L 600.2699999999999,517.5479999999999 L 599.8549999999999,516.8749999999999 L 599.8419999999999,516.7499999999999 L 599.8749999999999,516.2499999999999 L 599.8399999999999,515.8889999999999 L 599.6869999999999,515.5289999999999 L 599.4909999999999,515.1909999999999 L 599.2979999999999,514.559 L 599.2039999999998,513.516 L 599.2239999999998,513.14 L 599.1669999999998,512.806 L 599.0269999999998,512.488 L 599.1269999999998,511.93300000000005 L 600.3679999999998,509.92300000000006 L 600.4089999999999,509.68700000000007 L 600.3589999999999,509.0760000000001 L 600.3849999999999,508.72100000000006 L 600.4279999999999,508.58900000000006 L 600.5229999999999,508.51200000000006 L 600.7349999999999,508.4750000000001 L 601.7379999999999,508.3880000000001 L 601.867,508.3260000000001 L 602.117,508.1580000000001 L 602.461,507.83200000000005 L 602.619,507.73800000000006 L 602.755,507.7730000000001 L 602.842,507.9120000000001 L 602.954,507.9880000000001 L 603.3589999999999,507.8410000000001 L 603.5139999999999,507.8370000000001 L 603.6729999999999,507.8610000000001 L 603.7469999999998,507.7250000000001 L 603.7909999999998,507.54300000000006 L 603.8499999999998,507.4150000000001 L 603.9579999999997,507.3420000000001 L 604.4789999999997,507.3020000000001 L 604.8119999999997,507.25000000000006 L 605.2419999999996,507.12300000000005 L 605.3339999999996,507.148 L 605.6809999999996,507.60600000000005 L 605.7859999999996,507.64500000000004 L 605.9209999999996,507.66400000000004 L 606.0389999999996,507.581 L 605.7569999999996,507.34200000000004 L 605.7149999999996,507.20700000000005 L 605.7299999999996,507.05300000000005 L 605.8809999999995,506.72400000000005 L 606.1329999999995,506.47300000000007 L 606.6929999999994,506.0920000000001 L 607.2749999999994,505.6520000000001 L 607.4439999999994,505.6220000000001 L 607.5869999999994,505.69100000000014 L 607.6969999999994,506.2110000000001 L 607.6829999999994,506.2960000000001 L 607.7759999999994,506.3080000000001 L 607.8839999999993,506.2440000000001 L 607.9799999999993,506.0350000000001 L 607.9849999999993,505.8610000000001 L 607.9069999999994,505.69400000000013 L 607.8689999999993,505.5530000000001 L 607.8659999999993,505.4230000000001 L 608.1609999999993,505.1160000000001 L 608.3929999999992,504.8240000000001 L 608.4999999999992,504.47500000000014 L 608.5929999999992,504.31400000000014 L 608.8379999999992,504.13300000000015 L 608.9099999999992,504.1610000000002 L 608.9669999999992,504.30800000000016 L 608.9989999999992,504.46400000000017 L 608.9359999999992,504.61900000000014 L 608.8469999999992,504.77200000000016 L 608.8109999999992,504.97600000000017 L 608.9489999999993,505.0160000000002 L 609.0789999999993,504.9670000000002 L 609.2689999999993,504.5980000000002 L 609.4859999999993,504.2490000000002 L 609.6149999999993,504.0670000000002 L 609.7779999999993,503.9410000000002 L 610.0489999999993,503.9660000000002 L 610.3119999999993,504.04400000000015 L 609.8829999999994,503.67600000000016 L 609.7759999999994,503.17200000000014 L 610.2859999999994,502.30100000000016 L 610.2909999999994,502.1200000000002 L 610.3649999999993,502.0640000000002 L 610.3999999999993,501.9940000000002 L 610.1359999999993,501.7010000000002 L 610.0859999999993,501.5550000000002 L 610.1209999999993,501.3340000000002 L 610.2469999999993,501.13800000000015 L 610.3619999999993,501.00100000000015 L 610.5249999999993,500.94800000000015 L 610.6539999999993,501.02300000000014 L 610.9379999999993,501.2640000000001 L 611.1289999999993,501.3010000000001 L 611.3599999999993,501.0700000000001 L 611.5489999999993,500.7810000000001 L 611.8329999999993,500.58300000000014 L 612.1559999999993,500.46000000000015 L 612.6469999999993,500.00500000000017 L 612.9669999999993,499.0550000000002 L 612.9919999999993,498.7780000000002 L 612.9209999999993,498.4430000000002 L 612.8079999999992,498.1240000000002 L 612.6189999999992,497.72600000000017 L 612.6679999999992,497.63800000000015 L 612.9369999999992,497.69100000000014 L 613.0269999999992,497.63500000000016 L 613.3189999999993,497.2830000000002 L 613.7999999999993,496.6090000000002 L 613.9579999999993,496.6100000000002 L 614.0939999999993,496.7350000000002 L 614.1449999999993,496.9200000000002 L 614.2409999999993,497.0560000000002 L 614.5659999999993,497.3760000000002 L 614.729,497.606 M 611.371,500.272 L 611.375,500.376 L 611.006,500.33299999999997 L 610.948,499.974 L 611.129,499.96299999999997 L 611.169,499.816 L 611.279,499.798 L 611.398,500.117 L 611.371,500.272 M 615.846,510.499 L 615.531,511.035 L 615.62,510.588 L 615.985,509.944 L 616.089,509.89500000000004 L 615.846,510.499" id="MG" title="Madagascar"/>
</svg>
