<svg xmlns="http://www.w3.org/2000/svg" xmlns:ev="http://www.w3.org/2001/xml-events" xmlns:xlink="http://www.w3.org/1999/xlink" baseProfile="full" height="15.139007568359375" version="1.1" viewBox="943.947021484375 431.3349914550781 13.78399658203125 15.139007568359375" width="13.78399658203125">
	<defs/>
	<path class="land" d="M 944.075,431.378 L 944.0020000000001,431.39799999999997 L 943.9470000000001,431.378 L 943.9870000000001,431.341 L 944.0690000000001,431.33500000000004 L 944.1,431.345 L 944.075,431.378 M 949.52,442.239 L 949.4789999999999,442.282 L 949.208,442.256 L 949.084,442.202 L 949.0959999999999,442.161 L 949.31,442.2 L 949.52,442.239 M 955.895,442.719 L 956.247,442.863 L 956.7149999999999,442.796 L 956.6399999999999,442.839 L 956.4649999999999,442.879 L 956.3489999999999,442.91400000000004 L 956.271,442.91400000000004 L 956.178,442.90000000000003 L 955.878,442.8 L 955.71,442.668 L 955.7510000000001,442.624 L 955.895,442.719 M 957.229,442.972 L 957.3330000000001,443.03299999999996 L 957.5400000000001,443.02899999999994 L 957.7310000000001,443.1839999999999 L 957.6580000000001,443.1739999999999 L 957.5540000000001,443.10799999999995 L 957.4590000000001,443.0799999999999 L 957.331,443.0879999999999 L 957.2710000000001,443.06299999999993 L 957.229,442.972 M 951.778,446.39 L 951.722,446.474 L 951.653,446.468 L 951.714,446.40500000000003 L 951.7560000000001,446.317 L 951.8230000000001,446.067 L 951.9620000000001,445.978 L 952.0580000000001,445.874 L 952.0350000000001,445.982 L 951.8850000000001,446.095 L 951.778,446.39" id="MH" title="Marshall Islands"/>
</svg>
