<svg xmlns="http://www.w3.org/2000/svg" xmlns:ev="http://www.w3.org/2001/xml-events" xmlns:xlink="http://www.w3.org/1999/xlink" baseProfile="full" height="5.6400146484375" version="1.1" viewBox="533.0880126953125 331.9259948730469 7.177001953125 5.6400146484375" width="7.177001953125">
	<defs/>
	<path class="land" d="M 538.408,332.093 L 538.841,332.655 L 539.078,332.883 L 539.357,333.055 L 539.676,333.181 L 539.791,333.301 L 539.994,333.896 L 540.091,334.122 L 540.226,334.189 L 540.259,334.254 L 540.265,334.34 L 540.113,334.757 L 540.051,335.688 L 540.013,335.762 L 539.854,335.758 L 539.642,335.778 L 539.562,335.85 L 539.477,336.349 L 539.136,336.491 L 538.827,336.571 L 538.567,336.553 L 538.109,336.435 L 537.96,336.422 L 537.832,336.489 L 537.423,336.525 L 537.244,336.612 L 536.823,337.194 L 536.397,337.395 L 536.251,337.496 L 535.926,337.368 L 535.77,337.354 L 535.544,337.502 L 535.05,337.517 L 534.917,337.543 L 534.536,337.566 L 534.52,337.486 L 534.449,337.369 L 534.271,337.314 L 533.908,337.361 L 533.82,337.276 L 533.67,336.782 L 533.554,336.703 L 533.423,336.537 L 533.202,335.999 L 533.196,335.763 L 533.211,335.556 L 533.088,335.072 L 533.164,334.949 L 533.278,334.872 L 533.279,334.676 L 533.247,334.379 L 533.382,333.795 L 533.418,333.752 L 533.453,333.78 L 533.779,333.827 L 533.864,333.753 L 533.918,333.637 L 533.935,333.208 L 534.013,333.01 L 534.803,332.632 L 535.036,332.618 L 535.214,332.792 L 535.355,332.903 L 535.44,332.899 L 535.471,332.788 L 535.567,332.572 L 535.729,332.449 L 536.21,332.344 L 536.214,332.344 L 536.371,332.365 L 536.71,332.268 L 536.922,332.134 L 537.03,332.114 L 537.173,332.063 L 537.379,332.07 L 537.588,332.128 L 537.854,332.051 L 538.115,331.926 L 538.22,331.958 L 538.333,332.064 L 538.408,332.093" id="MK" title="North Macedonia"/>
</svg>
