<svg xmlns="http://www.w3.org/2000/svg" xmlns:ev="http://www.w3.org/2001/xml-events" xmlns:xlink="http://www.w3.org/1999/xlink" baseProfile="full" height="43.60400390625" version="1.1" viewBox="441.2340087890625 390.6390075683594 46.350006103515625 43.60400390625" width="46.350006103515625" fill="#00394f">
	<defs/>
	<path class="land" d="M 487.564,408.271 L 487.566,408.787 L 487.568,409.564 L 487.571,410.429 L 487.573,411.225 L 487.576,412.131 L 487.579,412.858 L 487.581,413.717 L 487.584,414.57 L 487.495,414.668 L 487.462,415.147 L 487.437,415.777 L 487.266,416.429 L 486.967,416.909 L 486.859,417.365 L 486.777,417.626 L 486.665,417.768 L 486.639,417.938 L 486.58,418.178 L 486.485,418.333 L 486.411,418.413 L 486.11,418.507 L 485.58,418.966 L 485.534,419.333 L 484.93,419.232 L 484.288,419.128 L 484.202,419.135 L 484.148,419.183 L 484.122,419.377 L 483.248,419.409 L 482.494,419.437 L 481.56,419.469 L 480.918,419.491 L 480.104,419.535 L 479.349,419.576 L 478.847,419.998 L 478.394,420.4 L 478.358,420.414 L 477.716,420.493 L 476.915,420.423 L 476.503,420.419 L 476.341,420.467 L 476.31,420.618 L 475.72,420.406 L 475.038,420.191 L 474.562,420.326 L 474.486,420.28 L 474.424,420.19 L 474.194,420.138 L 473.829,420.161 L 473.565,420.225 L 473.151,420.543 L 472.839,420.82 L 472.754,420.883 L 472.318,421.051 L 471.508,421.441 L 471.048,421.728 L 470.942,421.78 L 470.738,421.845 L 470.424,421.858 L 470.162,421.93 L 469.926,422.684 L 469.769,422.759 L 468.803,422.455 L 468.608,422.5 L 468.44,422.589 L 467.901,423.031 L 467.634,423.385 L 467.488,423.855 L 467.509,424.0 L 467.513,424.164 L 467.418,424.253 L 467.288,424.285 L 467.171,424.28 L 466.723,424.183 L 466.583,424.225 L 466.522,424.457 L 466.531,424.963 L 466.433,425.307 L 466.167,425.413 L 465.961,425.549 L 465.799,425.588 L 465.664,425.555 L 464.885,425.041 L 464.622,424.959 L 464.33,425.016 L 464.05,425.234 L 463.923,425.377 L 463.748,425.546 L 463.551,425.771 L 463.603,425.961 L 463.742,426.182 L 463.841,426.456 L 463.836,426.701 L 463.125,427.049 L 463.183,427.168 L 463.29,427.308 L 463.291,427.561 L 463.271,428.004 L 463.127,428.164 L 462.941,428.322 L 462.826,428.525 L 462.713,428.625 L 462.511,428.75 L 462.234,428.876 L 461.754,428.986 L 461.37,429.06 L 461.225,429.132 L 461.021,429.28 L 460.858,429.458 L 460.819,429.65 L 460.852,429.87 L 460.909,430.05 L 460.98,430.173 L 461.023,430.328 L 460.965,430.745 L 460.826,431.228 L 460.692,431.443 L 460.477,431.561 L 460.291,431.693 L 460.352,432.009 L 460.384,432.462 L 460.332,432.824 L 460.323,433.047 L 460.244,433.279 L 460.198,433.442 L 460.105,433.402 L 459.719,433.421 L 459.299,433.545 L 459.152,433.644 L 459.12,433.779 L 459.027,433.87 L 458.893,433.972 L 458.764,434.097 L 458.532,434.077 L 458.308,433.991 L 458.191,433.908 L 458.184,433.858 L 458.257,433.736 L 458.32,433.603 L 458.326,433.515 L 458.25,433.299 L 458.188,433.067 L 458.213,432.956 L 458.158,432.614 L 458.128,432.597 L 457.834,432.685 L 457.727,432.707 L 457.666,432.745 L 457.646,432.81 L 457.717,433.027 L 457.671,433.064 L 457.506,433.059 L 457.276,432.987 L 457.025,432.788 L 456.962,432.853 L 456.935,433.011 L 456.918,433.198 L 456.982,433.538 L 456.915,433.659 L 456.747,433.637 L 456.521,433.638 L 456.324,433.671 L 456.193,433.679 L 456.112,433.8 L 456.077,433.936 L 456.156,434.086 L 456.144,434.15 L 456.083,434.208 L 456.006,434.243 L 455.942,434.239 L 455.76,434.072 L 455.542,434.01 L 455.035,433.914 L 454.974,433.686 L 454.89,433.682 L 454.773,433.562 L 454.657,433.403 L 454.559,433.411 L 454.477,433.456 L 454.199,433.438 L 453.952,433.679 L 453.769,433.979 L 453.573,434.123 L 453.357,434.186 L 453.274,434.188 L 453.319,433.999 L 453.288,433.86 L 453.227,433.737 L 452.598,433.408 L 452.5,433.272 L 452.401,432.898 L 452.338,432.524 L 452.345,432.305 L 452.388,432.108 L 452.37,431.956 L 452.301,431.84 L 452.112,431.728 L 451.916,431.676 L 451.666,431.822 L 451.546,431.85 L 451.434,431.84 L 451.376,431.786 L 451.384,431.711 L 451.656,431.31 L 451.788,431.143 L 451.947,431.015 L 452.054,430.947 L 452.123,430.849 L 452.129,430.771 L 452.104,430.715 L 451.927,430.641 L 451.651,430.454 L 451.504,430.434 L 451.381,430.349 L 451.251,430.056 L 451.19,430.0 L 451.06,429.97 L 450.94,429.898 L 450.946,429.517 L 450.951,429.188 L 450.683,428.658 L 450.579,428.324 L 450.444,427.98 L 450.32,427.819 L 450.103,427.684 L 449.836,427.59 L 449.599,427.568 L 449.417,427.6 L 449.332,427.642 L 449.336,427.706 L 449.484,427.923 L 449.511,428.044 L 449.486,428.161 L 449.436,428.239 L 449.305,428.248 L 449.075,428.315 L 448.792,428.447 L 448.594,428.56 L 448.435,428.846 L 448.325,428.882 L 448.138,428.846 L 447.605,428.635 L 447.166,428.461 L 446.863,428.361 L 446.681,428.425 L 446.588,428.456 L 446.327,428.572 L 445.98,428.995 L 445.897,429.135 L 445.828,429.18 L 445.734,429.254 L 445.644,429.256 L 445.572,429.206 L 445.549,429.175 L 445.371,428.87 L 445.176,428.534 L 445.016,428.382 L 444.815,428.375 L 444.644,428.48 L 444.465,428.696 L 444.24,428.896 L 444.097,428.956 L 443.972,428.923 L 443.665,428.671 L 443.446,428.491 L 443.419,428.401 L 443.496,428.263 L 443.572,428.057 L 443.655,427.89 L 443.735,427.813 L 443.755,427.6 L 443.569,427.449 L 443.563,427.376 L 443.582,427.176 L 443.665,426.753 L 443.657,426.592 L 443.732,426.277 L 443.61,426.135 L 443.582,426.03 L 443.445,425.862 L 443.288,425.624 L 443.252,425.433 L 443.197,425.281 L 443.046,425.052 L 442.936,425.016 L 442.7,424.981 L 442.661,425.06 L 442.574,425.174 L 442.494,425.207 L 442.365,425.067 L 442.316,424.947 L 442.317,424.838 L 442.142,424.647 L 441.87,424.297 L 441.898,424.008 L 442.066,423.852 L 442.116,423.734 L 442.131,423.602 L 442.055,423.442 L 441.965,423.316 L 441.99,423.037 L 441.968,422.649 L 441.83,422.455 L 441.705,422.313 L 441.53,422.16 L 441.381,421.924 L 441.441,421.6 L 441.498,421.377 L 441.234,420.914 L 441.728,421.097 L 441.793,421.037 L 441.961,420.925 L 442.188,420.689 L 442.378,420.376 L 442.464,419.989 L 442.502,419.655 L 442.587,419.372 L 442.695,419.132 L 442.931,418.882 L 443.153,418.705 L 443.417,418.521 L 443.551,418.554 L 443.802,418.811 L 444.353,419.326 L 444.808,419.718 L 444.974,419.926 L 445.121,419.928 L 445.347,419.548 L 445.581,419.221 L 445.68,419.141 L 445.988,419.105 L 446.25,419.091 L 446.479,419.097 L 446.899,419.16 L 447.091,419.218 L 447.271,419.253 L 447.799,419.282 L 448.322,419.202 L 448.819,419.099 L 449.187,419.038 L 449.206,418.883 L 449.185,418.7 L 449.244,418.561 L 449.36,418.432 L 449.458,418.403 L 449.5,418.843 L 449.617,418.909 L 449.945,418.928 L 450.478,418.928 L 451.05,418.928 L 451.622,418.928 L 452.195,418.928 L 452.767,418.928 L 453.339,418.928 L 453.912,418.928 L 454.484,418.928 L 455.057,418.928 L 455.629,418.928 L 456.201,418.928 L 456.773,418.928 L 457.346,418.928 L 457.918,418.928 L 458.491,418.928 L 459.063,418.928 L 459.636,418.928 L 460.229,418.928 L 460.389,418.079 L 460.535,417.3 L 460.657,416.646 L 460.237,416.184 L 459.903,415.816 L 459.825,415.114 L 459.746,414.389 L 459.666,413.663 L 459.585,412.936 L 459.506,412.208 L 459.426,411.479 L 459.346,410.749 L 459.266,410.018 L 459.186,409.286 L 459.106,408.552 L 459.026,407.818 L 458.946,407.083 L 458.866,406.346 L 458.787,405.608 L 458.707,404.869 L 458.626,404.128 L 458.547,403.387 L 458.467,402.644 L 458.387,401.9 L 458.307,401.155 L 458.227,400.408 L 458.147,399.661 L 458.067,398.911 L 457.987,398.161 L 457.907,397.409 L 457.828,396.656 L 457.748,395.901 L 457.668,395.145 L 457.588,394.387 L 457.508,393.628 L 457.428,392.868 L 457.348,392.106 L 457.268,391.342 L 457.193,390.641 L 458.055,390.641 L 458.974,390.64 L 459.869,390.64 L 461.182,390.639 L 462.165,390.639 L 463.022,391.227 L 463.799,391.782 L 464.718,392.439 L 465.637,393.095 L 466.557,393.75 L 467.476,394.403 L 468.395,395.055 L 469.313,395.707 L 470.233,396.356 L 471.152,397.006 L 472.071,397.654 L 472.99,398.301 L 473.909,398.947 L 474.828,399.592 L 475.747,400.236 L 476.666,400.879 L 477.585,401.521 L 478.504,402.163 L 478.915,402.449 L 478.953,402.567 L 478.991,402.808 L 478.967,403.079 L 478.971,403.3 L 479.092,403.449 L 479.321,403.609 L 480.22,404.081 L 480.291,404.174 L 480.323,404.369 L 480.43,404.608 L 480.62,404.748 L 480.842,404.851 L 481.113,404.923 L 481.928,404.997 L 482.101,405.108 L 482.453,405.543 L 482.644,405.629 L 483.187,405.754 L 483.58,405.824 L 483.742,405.864 L 484.098,405.98 L 484.485,406.178 L 484.69,406.357 L 484.69,406.413 L 484.688,406.569 L 484.685,407.036 L 484.756,407.293 L 484.837,407.479 L 484.833,407.592 L 484.735,407.672 L 484.659,407.771 L 484.617,407.901 L 484.506,408.066 L 484.417,408.25 L 484.455,408.388 L 484.608,408.478 L 484.837,408.653 L 485.027,408.727 L 485.12,408.732 L 485.244,408.727 L 485.351,408.704 L 486.037,408.57 L 486.673,408.445 L 487.564,408.271" id="ML" title="Mali"/>
</svg>
