<svg xmlns="http://www.w3.org/2000/svg" xmlns:ev="http://www.w3.org/2001/xml-events" xmlns:xlink="http://www.w3.org/1999/xlink" baseProfile="full" height="55.376007080078125" version="1.1" viewBox="734.4030151367188 379.6260070800781 25.16400146484375 55.376007080078125" width="25.16400146484375" fill="#00394f">
	<defs/>
	<path class="land" d="M 759.545,401.055 L 759.38,401.351 L 758.951,401.658 L 758.648,401.814 L 758.471,401.81800000000004 L 758.321,402.00200000000007 L 758.198,402.3640000000001 L 758.0699999999999,402.5760000000001 L 757.938,402.63900000000007 L 757.853,402.77600000000007 L 757.813,402.98600000000005 L 757.889,403.09800000000007 L 758.081,403.11300000000006 L 758.096,403.1720000000001 L 757.934,403.2750000000001 L 757.732,403.3110000000001 L 757.492,403.2800000000001 L 757.2629999999999,403.3630000000001 L 757.0469999999999,403.5580000000001 L 756.8629999999999,403.9790000000001 L 756.7109999999999,404.6250000000001 L 756.6909999999999,404.7910000000001 L 756.357,404.6030000000001 L 756.218,404.4970000000001 L 756.039,404.47000000000014 L 755.855,404.58900000000017 L 755.7090000000001,404.7180000000002 L 755.5600000000001,404.7650000000002 L 755.331,404.7800000000002 L 755.0310000000001,404.7130000000002 L 754.8270000000001,404.6530000000002 L 754.7960000000002,404.6860000000002 L 754.9070000000002,404.9580000000002 L 754.9460000000001,405.1750000000002 L 754.9020000000002,405.2880000000002 L 754.8050000000002,405.3820000000002 L 754.6590000000002,405.4560000000002 L 754.4870000000002,405.4990000000002 L 754.3350000000002,405.4950000000002 L 754.0920000000001,405.39200000000017 L 753.9060000000001,405.38800000000015 L 753.7470000000001,405.43900000000014 L 753.6500000000001,405.51500000000016 L 753.5960000000001,405.6100000000002 L 753.5020000000001,406.1460000000002 L 753.4200000000001,406.31300000000016 L 753.3050000000001,406.4080000000002 L 753.19,406.4180000000002 L 753.032,406.39200000000017 L 752.8670000000001,406.41400000000016 L 752.118,406.62100000000015 L 752.009,406.64100000000013 L 751.775,406.65700000000015 L 751.557,406.6630000000001 L 751.404,406.65300000000013 L 751.045,406.44100000000014 L 750.871,406.41900000000015 L 750.775,406.47900000000016 L 750.709,406.76300000000015 L 750.4989999999999,406.94400000000013 L 750.2189999999999,407.3370000000001 L 750.155,407.9110000000001 L 750.183,408.3110000000001 L 749.932,408.7070000000001 L 749.909,408.8980000000001 L 750.044,409.8140000000001 L 750.0219999999999,409.9100000000001 L 749.9699999999999,409.9570000000001 L 749.8129999999999,409.9890000000001 L 749.5479999999999,410.0850000000001 L 749.3729999999999,410.1760000000001 L 749.289,410.1860000000001 L 749.042,410.1180000000001 L 748.9780000000001,410.11700000000013 L 748.9970000000001,410.1870000000001 L 749.1940000000001,410.58300000000014 L 749.398,410.77100000000013 L 749.611,410.7500000000001 L 749.703,410.7870000000001 L 749.6759999999999,410.8820000000001 L 749.7579999999999,411.1300000000001 L 749.948,411.5300000000001 L 750.006,411.8300000000001 L 749.89,412.1280000000001 L 749.911,412.2350000000001 L 749.9739999999999,412.2980000000001 L 750.1539999999999,412.5750000000001 L 750.5369999999999,413.0080000000001 L 750.9119999999999,413.4760000000001 L 751.2249999999999,413.8660000000001 L 751.454,414.1360000000001 L 751.9659999999999,414.63700000000006 L 752.0569999999999,414.87200000000007 L 752.0769999999999,415.34600000000006 L 752.2029999999999,415.62000000000006 L 752.3199999999998,415.8160000000001 L 752.4009999999998,415.9800000000001 L 752.5889999999998,416.5160000000001 L 752.6689999999999,416.5880000000001 L 753.0789999999998,416.26200000000006 L 753.1739999999999,416.33000000000004 L 753.2279999999998,416.45300000000003 L 753.2279999999998,416.60900000000004 L 753.1639999999999,416.78600000000006 L 753.0309999999998,416.95000000000005 L 752.3969999999998,417.32800000000003 L 752.3449999999998,417.653 L 752.3009999999998,418.146 L 752.2899999999998,418.75100000000003 L 752.3209999999998,419.20300000000003 L 752.2979999999998,419.307 L 752.2419999999997,419.356 L 752.0029999999997,419.336 L 751.6589999999997,419.564 L 751.5369999999997,419.584 L 751.3859999999997,419.671 L 751.2709999999997,419.779 L 751.2339999999997,419.943 L 751.3019999999997,420.43899999999996 L 751.4249999999997,420.90399999999994 L 751.6659999999997,421.24499999999995 L 751.8569999999997,421.51499999999993 L 752.1239999999998,421.88999999999993 L 752.3339999999998,422.21599999999995 L 752.7589999999998,422.573 L 753.3549999999998,423.10699999999997 L 753.5829999999997,423.402 L 753.7839999999998,423.759 L 753.9259999999998,424.064 L 753.9799999999998,424.468 L 754.0239999999998,424.694 L 754.0369999999998,425.45 L 753.9279999999998,425.622 L 753.8439999999998,425.821 L 753.8909999999998,426.02900000000005 L 754.0299999999999,426.22800000000007 L 754.0299999999999,426.45500000000004 L 754.1599999999999,426.862 L 754.3779999999998,427.11100000000005 L 754.5879999999999,427.278 L 754.6809999999998,427.41 L 754.6509999999998,427.622 L 754.7129999999999,427.84700000000004 L 754.7589999999999,428.09200000000004 L 754.8439999999999,428.43100000000004 L 755.0129999999999,428.718 L 755.2699999999999,429.59700000000004 L 755.2639999999999,429.687 L 755.1529999999999,429.865 L 754.9909999999999,430.026 L 754.8869999999998,430.07800000000003 L 754.7879999999998,430.244 L 754.5529999999998,430.713 L 754.0789999999997,431.521 L 753.6169999999997,432.047 L 753.2279999999997,432.42100000000005 L 752.9469999999998,432.648 L 752.8639999999998,432.783 L 752.8639999999998,432.889 L 752.9149999999998,433.077 L 752.8949999999999,433.435 L 752.8349999999999,433.662 L 752.7549999999999,433.902 L 752.7099999999999,434.116 L 752.5849999999999,434.14799999999997 L 752.3169999999999,434.556 L 752.2009999999999,434.351 L 752.1329999999999,434.138 L 752.2059999999999,433.655 L 752.0429999999999,432.73999999999995 L 752.1449999999999,432.61799999999994 L 752.2419999999998,432.5559999999999 L 752.4199999999998,432.2049999999999 L 752.6349999999999,431.8569999999999 L 752.6559999999998,431.4409999999999 L 752.8299999999998,431.1359999999999 L 752.7889999999998,430.8809999999999 L 752.7979999999998,430.58199999999994 L 752.8349999999998,430.33699999999993 L 752.8209999999998,430.1359999999999 L 752.9589999999998,429.9279999999999 L 753.1979999999999,429.7719999999999 L 753.0979999999998,429.7159999999999 L 752.9979999999998,429.6019999999999 L 752.6849999999998,429.7749999999999 L 752.5249999999999,429.7179999999999 L 752.4929999999998,429.5379999999999 L 752.5329999999998,429.3449999999999 L 752.5489999999998,429.2279999999999 L 752.6739999999998,429.0959999999999 L 752.6649999999997,428.8379999999999 L 752.6019999999997,428.61099999999993 L 752.6929999999998,428.3299999999999 L 752.5079999999998,428.32899999999995 L 752.4229999999998,428.27199999999993 L 752.4759999999998,428.11599999999993 L 752.6439999999998,427.97799999999995 L 752.4909999999998,427.71399999999994 L 752.6039999999998,427.4309999999999 L 752.5999999999998,427.0809999999999 L 752.5229999999998,426.7719999999999 L 752.5269999999998,426.5499999999999 L 752.4089999999998,426.1559999999999 L 752.3549999999998,425.6519999999999 L 752.1059999999998,425.2769999999999 L 751.9209999999998,424.72999999999985 L 751.4269999999998,424.01399999999984 L 751.4359999999998,423.7069999999998 L 751.4099999999999,423.43699999999984 L 751.3019999999999,423.30599999999987 L 751.1589999999999,424.26099999999985 L 751.0499999999998,424.07299999999987 L 751.0149999999999,423.53999999999985 L 750.9439999999998,423.28699999999986 L 751.0209999999998,422.7839999999999 L 750.7349999999999,422.2839999999999 L 750.6739999999999,421.9209999999999 L 750.4859999999999,421.3699999999999 L 750.5409999999998,421.24599999999987 L 750.7919999999998,421.3699999999999 L 750.5609999999998,421.04899999999986 L 750.3729999999998,421.12099999999987 L 750.2129999999999,420.7739999999999 L 750.1779999999999,419.8329999999999 L 750.0209999999998,419.48099999999994 L 750.1069999999999,419.12199999999996 L 749.9279999999999,417.83399999999995 L 749.5739999999998,417.41599999999994 L 749.6439999999999,417.0559999999999 L 749.7319999999999,416.73599999999993 L 749.7119999999999,416.14399999999995 L 749.7989999999999,415.96099999999996 L 749.9709999999999,415.82099999999997 L 749.81,415.86999999999995 L 749.673,415.9119999999999 L 749.352,415.94699999999995 L 748.9889999999999,415.95399999999995 L 748.8629999999999,415.52099999999996 L 748.685,415.31299999999993 L 748.529,414.87799999999993 L 748.435,414.3829999999999 L 748.496,414.28599999999994 L 748.216,414.08399999999995 L 748.144,413.9599999999999 L 747.851,413.6379999999999 L 747.518,413.3929999999999 L 747.592,413.56499999999994 L 747.682,413.6739999999999 L 747.516,413.9719999999999 L 747.678,414.47399999999993 L 747.536,414.7939999999999 L 747.4029999999999,415.2099999999999 L 747.276,415.4079999999999 L 746.875,415.8339999999999 L 746.55,415.9779999999999 L 746.338,416.0049999999999 L 746.15,415.95999999999987 L 745.92,415.73999999999984 L 745.8639999999999,415.5559999999998 L 745.8269999999999,415.2469999999998 L 745.7459999999999,415.2029999999998 L 745.6589999999999,415.2389999999998 L 745.7949999999998,415.6379999999998 L 745.7929999999999,415.8239999999998 L 746.0379999999999,416.1819999999998 L 745.9509999999999,416.2819999999998 L 745.507,416.47799999999984 L 745.356,416.44599999999986 L 745.249,416.48499999999984 L 745.22,416.64599999999984 L 745.164,416.7359999999998 L 744.465,416.9819999999998 L 744.3190000000001,417.2589999999998 L 744.229,417.5399999999998 L 743.8810000000001,417.9429999999998 L 743.4150000000001,418.27599999999984 L 743.3000000000001,418.25699999999983 L 743.1680000000001,418.17899999999986 L 743.1860000000001,417.81899999999985 L 743.3460000000001,417.51399999999984 L 743.2950000000001,417.1879999999998 L 743.2560000000001,417.37499999999983 L 742.955,417.82899999999984 L 742.8180000000001,417.97699999999986 L 742.5420000000001,417.9379999999999 L 742.1600000000002,417.99899999999985 L 742.0160000000002,417.53299999999984 L 742.0190000000002,417.36199999999985 L 741.9910000000002,417.21699999999987 L 742.0350000000002,417.06399999999985 L 742.0210000000002,416.94199999999984 L 741.9290000000002,417.17499999999984 L 741.8940000000002,417.37699999999984 L 741.7540000000002,417.55699999999985 L 741.3710000000002,417.74999999999983 L 741.3550000000002,417.5049999999998 L 741.3420000000002,417.2839999999998 L 741.4240000000002,417.0849999999998 L 741.4120000000003,416.7699999999998 L 741.5340000000002,416.3139999999998 L 741.5240000000002,416.1579999999998 L 741.4870000000002,415.9849999999998 L 741.4190000000002,416.23599999999976 L 741.3800000000002,416.49599999999975 L 741.3030000000002,416.57499999999976 L 741.1620000000003,416.6339999999998 L 740.9040000000002,416.9319999999998 L 740.7530000000003,417.1989999999998 L 740.3530000000003,417.4509999999998 L 740.1420000000003,417.4249999999998 L 740.1150000000002,417.1049999999998 L 740.2750000000002,415.9699999999998 L 740.4320000000002,415.8099999999998 L 740.5050000000002,415.6129999999998 L 740.6360000000002,414.94799999999975 L 740.7830000000002,414.6969999999998 L 740.8410000000002,414.16899999999976 L 740.9010000000002,414.07799999999975 L 741.0980000000002,413.6629999999997 L 741.1660000000002,412.9009999999997 L 741.0850000000002,412.5219999999997 L 740.9000000000002,412.1539999999997 L 740.7220000000002,411.0479999999997 L 740.2580000000002,410.1499999999997 L 740.2200000000001,409.8499999999997 L 739.9910000000001,409.4869999999997 L 740.2020000000001,409.4609999999997 L 739.7680000000001,409.1429999999997 L 739.7080000000002,409.0129999999997 L 739.6210000000002,408.2669999999997 L 739.6380000000003,407.84999999999974 L 739.5750000000003,407.90499999999975 L 739.5160000000003,408.16199999999975 L 739.3460000000003,408.26699999999977 L 739.4220000000004,408.71199999999976 L 739.4020000000004,408.81999999999977 L 739.3120000000004,408.99299999999977 L 738.9500000000004,408.81299999999976 L 738.6840000000004,408.61699999999973 L 738.3830000000004,408.13999999999976 L 738.0880000000004,407.60499999999973 L 738.1920000000005,407.5219999999997 L 738.3280000000004,407.5119999999997 L 738.7470000000004,407.90999999999974 L 739.0180000000004,407.99299999999977 L 739.1900000000004,407.8939999999998 L 739.4030000000004,407.72399999999976 L 739.5050000000003,407.3939999999998 L 739.4010000000003,407.2729999999998 L 739.1960000000003,407.2069999999998 L 739.0610000000003,407.1179999999998 L 738.8650000000002,406.89399999999983 L 738.8410000000002,406.77999999999986 L 738.7800000000002,406.63399999999984 L 738.5820000000002,406.53099999999984 L 738.4220000000003,406.39999999999986 L 738.5570000000002,406.16899999999987 L 738.6900000000003,405.99699999999984 L 738.3380000000003,406.0049999999998 L 737.9380000000003,405.70899999999983 L 737.8550000000004,405.6229999999998 L 737.7220000000003,405.5639999999998 L 737.4070000000003,405.52899999999977 L 737.1450000000003,405.61599999999976 L 737.2640000000004,406.03899999999976 L 737.2410000000003,406.17899999999975 L 737.0690000000003,406.15799999999973 L 736.7110000000004,405.5139999999997 L 736.8190000000003,405.3509999999997 L 736.9730000000003,405.1979999999997 L 736.8970000000003,405.1759999999997 L 736.7480000000003,405.1859999999997 L 736.8940000000002,404.6139999999997 L 736.8050000000002,404.5289999999997 L 736.7590000000001,404.7079999999997 L 736.6800000000002,404.8799999999997 L 736.3750000000002,405.2839999999997 L 736.2240000000003,405.2079999999997 L 736.1200000000002,405.1069999999997 L 736.2660000000002,404.8949999999997 L 736.3450000000001,404.8379999999997 L 736.4000000000001,404.7239999999997 L 736.287,404.5019999999997 L 736.1070000000001,404.33999999999975 L 735.9630000000001,404.06099999999975 L 735.888,404.05699999999973 L 735.9540000000001,404.38599999999974 L 735.927,404.85599999999977 L 735.605,404.33699999999976 L 734.96,403.59899999999976 L 734.808,403.3769999999998 L 734.774,403.1599999999998 L 734.702,402.9599999999998 L 734.652,402.7409999999998 L 734.6410000000001,402.57199999999983 L 734.5010000000001,402.4189999999998 L 734.4380000000001,402.15099999999984 L 734.4030000000001,401.87899999999985 L 734.4830000000002,401.68499999999983 L 734.6840000000002,401.47599999999983 L 734.8270000000002,401.43899999999985 L 734.9450000000003,401.53099999999984 L 735.2230000000003,401.6689999999998 L 735.4110000000003,401.79799999999983 L 735.4940000000003,401.9669999999998 L 735.5820000000002,401.9459999999998 L 735.6710000000003,401.8379999999998 L 735.6530000000002,401.7049999999998 L 735.5630000000002,401.3549999999998 L 735.5380000000002,400.9299999999998 L 735.5340000000002,399.9339999999998 L 735.5120000000002,399.8199999999998 L 735.6670000000001,399.7199999999998 L 735.7300000000001,399.6059999999998 L 735.7930000000001,399.4359999999998 L 735.8330000000001,399.3609999999998 L 735.9230000000001,399.3559999999998 L 736.0650000000002,399.43899999999985 L 736.2970000000001,399.7239999999999 L 736.4520000000001,399.7879999999999 L 736.6060000000001,399.7429999999999 L 736.767,399.31599999999986 L 736.826,399.1999999999999 L 736.904,399.12399999999985 L 737.047,399.13699999999983 L 737.13,399.05999999999983 L 737.161,398.87499999999983 L 737.16,398.6689999999998 L 737.001,398.1049999999998 L 736.953,397.84399999999977 L 736.927,397.58699999999976 L 737.027,397.3219999999998 L 737.163,397.0119999999998 L 737.131,396.74099999999976 L 737.168,396.63599999999974 L 737.279,396.62099999999975 L 737.418,396.68599999999975 L 737.571,396.64099999999974 L 737.687,396.47499999999974 L 737.734,396.32999999999976 L 737.8040000000001,395.70299999999975 L 737.8510000000001,395.12799999999976 L 737.8710000000001,394.65899999999976 L 737.7520000000001,394.37799999999976 L 737.5690000000001,393.6219999999998 L 737.6220000000001,393.49299999999977 L 737.705,393.4629999999998 L 737.976,393.7279999999998 L 738.093,393.77199999999976 L 738.29,393.73099999999977 L 738.4839999999999,393.67199999999974 L 738.6249999999999,393.6679999999997 L 738.8279999999999,393.75899999999973 L 739.1069999999999,393.85999999999973 L 739.5439999999999,393.98499999999973 L 739.7229999999998,394.0789999999997 L 739.8709999999999,394.06599999999975 L 739.9909999999999,393.77199999999976 L 740.1299999999999,393.3429999999998 L 740.3359999999999,392.7039999999998 L 740.5719999999999,392.2389999999998 L 740.6349999999999,392.1149999999998 L 740.8979999999999,391.73599999999976 L 741.1529999999999,391.33799999999974 L 741.3759999999999,390.83499999999975 L 741.4999999999999,390.47199999999975 L 741.4889999999999,390.32099999999974 L 741.4089999999999,390.19599999999974 L 741.2419999999998,390.11599999999976 L 741.1039999999998,390.03299999999973 L 741.0659999999998,389.95799999999974 L 741.0699999999998,389.87299999999976 L 741.1409999999998,389.6369999999998 L 741.2619999999998,389.3579999999998 L 741.3879999999998,389.20699999999977 L 741.7189999999998,389.01999999999975 L 741.9299999999998,388.77899999999977 L 742.1679999999999,388.45999999999975 L 742.2969999999999,388.24299999999977 L 742.362,387.80099999999976 L 742.433,387.71299999999974 L 742.579,387.56999999999977 L 742.6899999999999,387.4029999999998 L 742.6809999999999,387.3119999999998 L 742.622,387.2469999999998 L 742.512,386.9369999999998 L 742.4609999999999,386.4509999999998 L 742.4849999999999,386.0559999999998 L 742.5679999999999,385.8949999999998 L 742.6779999999999,385.6709999999998 L 742.8819999999998,385.53299999999984 L 743.1729999999999,385.43699999999984 L 743.6179999999999,385.17499999999984 L 744.3889999999999,384.56699999999984 L 744.6669999999999,384.36899999999986 L 744.857,384.26599999999985 L 745.0419999999999,384.01099999999985 L 745.2959999999999,383.73199999999986 L 745.659,383.59299999999985 L 745.8919999999999,383.5389999999999 L 746.992,383.3479999999999 L 747.1769999999999,383.3719999999999 L 747.3629999999999,383.4829999999999 L 747.5939999999999,383.8549999999999 L 747.799,383.9949999999999 L 748.037,384.0929999999999 L 748.216,384.05099999999993 L 748.221,383.90099999999995 L 747.655,383.03299999999996 L 747.6039999999999,382.79599999999994 L 747.584,382.56899999999996 L 747.6479999999999,382.38899999999995 L 747.8249999999999,382.2169999999999 L 748.069,382.0229999999999 L 748.3729999999999,381.7799999999999 L 748.564,381.6119999999999 L 748.789,381.55799999999994 L 748.87,381.46099999999996 L 748.893,381.31999999999994 L 748.8810000000001,381.16599999999994 L 748.7780000000001,380.99199999999996 L 748.7990000000001,380.77299999999997 L 748.8330000000001,380.57399999999996 L 748.9290000000001,380.45799999999997 L 749.1390000000001,380.143 L 749.2690000000001,379.91499999999996 L 749.3370000000001,379.818 L 749.4380000000001,379.647 L 749.6100000000001,379.626 L 749.7780000000001,379.67999999999995 L 749.8780000000002,379.77699999999993 L 749.9780000000002,379.9749999999999 L 750.0870000000002,380.1369999999999 L 750.2210000000002,380.1369999999999 L 750.3570000000002,380.11399999999986 L 750.4200000000002,380.13599999999985 L 750.5500000000002,380.27099999999984 L 750.7980000000002,380.59499999999986 L 750.9080000000002,380.67699999999985 L 751.0120000000003,380.8149999999998 L 751.0670000000002,381.09099999999984 L 751.1010000000002,381.3679999999998 L 751.4120000000003,382.32899999999984 L 751.5050000000002,382.53099999999984 L 751.5740000000002,382.68499999999983 L 751.7190000000002,382.72299999999984 L 751.8370000000002,382.56899999999985 L 751.8830000000003,382.4039999999998 L 752.0050000000002,382.34799999999984 L 752.1510000000002,382.3779999999998 L 752.4190000000002,382.5319999999998 L 752.5630000000002,382.61499999999984 L 752.6350000000002,383.0889999999998 L 752.6510000000002,383.64399999999983 L 752.6300000000002,383.81599999999986 L 752.7470000000002,384.27299999999985 L 752.7830000000001,384.79699999999985 L 752.8080000000001,385.08399999999983 L 752.8110000000001,385.35699999999986 L 752.7900000000002,385.71499999999986 L 752.7270000000002,386.19399999999985 L 752.6220000000002,386.60299999999984 L 752.6600000000002,386.9429999999998 L 752.5970000000002,387.0979999999998 L 752.3410000000002,387.1769999999998 L 752.3190000000002,387.3069999999998 L 752.3940000000002,387.5199999999998 L 752.5730000000002,387.7869999999998 L 752.5780000000002,387.9549999999998 L 752.4910000000002,388.0689999999998 L 752.3030000000002,388.0799999999998 L 752.0420000000003,388.1859999999998 L 751.8620000000003,388.5299999999998 L 751.6720000000003,388.8119999999998 L 751.5680000000002,388.86799999999977 L 751.2200000000003,388.7879999999998 L 751.1370000000003,388.8599999999998 L 751.0150000000003,389.3399999999998 L 750.9150000000003,389.5469999999998 L 750.7660000000003,389.7209999999998 L 750.6290000000004,389.8239999999998 L 750.5050000000003,389.8959999999998 L 750.2290000000004,389.8479999999998 L 750.0830000000004,390.1369999999998 L 749.9370000000005,390.51799999999974 L 749.9250000000005,390.71499999999975 L 750.0010000000005,391.02499999999975 L 749.9610000000006,391.11099999999976 L 749.8120000000006,391.17799999999977 L 749.5670000000006,391.3169999999998 L 749.4160000000006,391.75799999999975 L 749.4220000000006,392.18599999999975 L 749.5120000000006,392.33199999999977 L 749.6810000000006,392.3959999999998 L 749.8020000000006,392.52699999999976 L 749.8140000000005,392.7329999999998 L 749.9180000000006,392.9899999999998 L 749.8690000000006,393.28899999999976 L 749.5250000000005,393.72399999999976 L 749.5150000000006,393.9609999999998 L 749.6980000000005,394.03399999999976 L 749.8560000000006,393.9999999999998 L 750.0510000000006,393.89699999999976 L 750.2800000000007,393.73099999999977 L 750.7840000000007,393.48899999999975 L 751.3330000000007,393.3509999999998 L 751.7670000000006,393.32499999999976 L 752.1380000000006,393.33499999999975 L 752.3200000000006,393.38599999999974 L 752.3750000000006,393.47499999999974 L 752.8830000000006,393.3339999999997 L 752.9890000000006,393.32599999999974 L 753.0810000000006,393.31799999999976 L 753.0780000000005,393.41199999999975 L 752.7060000000006,393.79899999999975 L 752.6370000000006,393.97899999999976 L 752.6490000000006,394.17199999999974 L 752.8010000000006,394.3509999999997 L 752.9480000000007,394.4889999999997 L 753.0730000000007,394.8349999999997 L 752.9760000000007,395.15099999999967 L 753.0380000000007,395.2659999999997 L 753.1470000000007,395.3949999999997 L 753.2130000000008,395.5769999999997 L 753.2220000000008,395.7979999999997 L 753.1600000000008,396.1509999999997 L 753.6970000000008,396.33499999999975 L 754.1610000000009,396.4179999999998 L 754.4990000000008,396.43999999999977 L 754.7160000000008,396.5209999999998 L 754.8470000000008,396.5909999999998 L 754.9390000000008,396.71699999999976 L 754.9660000000008,396.85499999999973 L 754.8530000000007,396.9519999999997 L 754.6240000000007,397.26099999999974 L 754.4920000000008,397.67399999999975 L 754.5060000000008,397.9829999999998 L 754.4900000000008,398.25099999999975 L 754.2240000000008,398.6369999999998 L 754.1190000000008,398.90199999999976 L 754.0260000000009,399.1729999999998 L 754.0290000000009,399.29099999999977 L 754.0840000000009,399.37299999999976 L 754.1970000000009,399.42099999999976 L 754.3930000000009,399.44999999999976 L 754.633000000001,399.41899999999976 L 755.205000000001,399.48399999999975 L 755.858000000001,399.6029999999998 L 756.117000000001,399.6679999999998 L 756.202000000001,399.7879999999998 L 756.1810000000011,400.0489999999998 L 756.140000000001,400.2919999999998 L 756.182000000001,400.4789999999998 L 756.2870000000011,400.6499999999998 L 756.4640000000011,400.7069999999998 L 756.6160000000011,400.7729999999998 L 756.6450000000011,400.90399999999977 L 756.5980000000011,401.08199999999977 L 756.6750000000011,401.22199999999975 L 756.7620000000011,401.31399999999974 L 756.9500000000011,401.36699999999973 L 757.331000000001,401.25299999999976 L 757.5980000000011,401.30399999999975 L 757.8390000000011,401.3819999999997 L 758.0440000000011,401.3409999999997 L 758.2470000000011,401.2409999999997 L 758.691000000001,400.7899999999997 L 759.2080000000011,400.54599999999965 L 759.3780000000011,400.48799999999966 L 759.4920000000011,400.51699999999965 L 759.5200000000011,400.54799999999966 L 759.5130000000012,400.63999999999965 L 759.5670000000011,401.0109999999996 L 759.545,401.055 M 736.731,405.959 L 736.768,406.241 L 736.633,406.125 L 736.457,405.733 L 736.462,405.476 L 736.588,405.596 L 736.731,405.959 M 738.083,406.052 L 738.144,406.461 L 737.952,406.308 L 737.881,406.097 L 737.862,405.881 L 738.083,406.052 M 738.709,407.043 L 739.03,407.288 L 739.158,407.271 L 739.357,407.426 L 739.362,407.48699999999997 L 739.324,407.61299999999994 L 739.2339999999999,407.71199999999993 L 738.9909999999999,407.8109999999999 L 738.8239999999998,407.73099999999994 L 738.7579999999998,407.46299999999997 L 738.5619999999998,407.337 L 738.5109999999997,407.22999999999996 L 738.6349999999998,407.08399999999995 L 738.709,407.043 M 738.642,409.623 L 738.595,409.64799999999997 L 738.303,409.40099999999995 L 738.072,409.08299999999997 L 738.439,409.02 L 738.793,409.089 L 738.795,409.258 L 738.7189999999999,409.53 L 738.642,409.623 M 749.543,416.733 L 749.437,416.771 L 749.278,416.581 L 749.246,416.129 L 749.379,416.02500000000003 L 749.45,416.0 L 749.5540000000001,416.056 L 749.594,416.12899999999996 L 749.6120000000001,416.21999999999997 L 749.5840000000001,416.313 L 749.543,416.733 M 740.848,417.625 L 740.665,417.908 L 740.598,417.485 L 740.895,417.25 L 741.042,417.025 L 741.197,416.87199999999996 L 741.246,417.05899999999997 L 741.0989999999999,417.41299999999995 L 740.848,417.625 M 741.769,417.992 L 741.711,418.06600000000003 L 741.596,418.01300000000003 L 741.569,417.98100000000005 L 741.834,417.66200000000003 L 741.862,417.78100000000006 L 741.769,417.992 M 751.621,425.828 L 751.603,426.298 L 751.462,426.071 L 751.439,425.812 L 751.4499999999999,425.571 L 751.4799999999999,425.53200000000004 L 751.4889999999999,425.569 L 751.5729999999999,425.677 L 751.621,425.828 M 751.897,427.261 L 751.96,427.34000000000003 L 752.0500000000001,427.338 L 752.0250000000001,427.617 L 751.8050000000001,427.96000000000004 L 751.6740000000001,428.01000000000005 L 751.6160000000001,428.01000000000005 L 751.6650000000001,427.50900000000007 L 751.5840000000001,427.22300000000007 L 751.6110000000001,427.0330000000001 L 751.8470000000001,427.1210000000001 L 751.897,427.261 M 750.921,427.855 L 750.904,427.959 L 750.742,428.172 L 750.5989999999999,428.048 L 750.563,427.981 L 750.708,427.844 L 750.862,427.864 L 750.903,427.83299999999997 L 750.921,427.855 M 751.119,428.539 L 751.086,428.555 L 751.04,428.546 L 750.947,428.5 L 750.84,428.306 L 750.897,428.16999999999996 L 750.936,428.13699999999994 L 751.0300000000001,428.14799999999997 L 751.08,428.174 L 751.0970000000001,428.224 L 751.07,428.331 L 751.0740000000001,428.423 L 751.119,428.539 M 752.184,429.238 L 752.067,429.254 L 752.011,428.793 L 752.044,428.72700000000003 L 752.21,428.95300000000003 L 752.446,429.091 L 752.3530000000001,429.181 L 752.184,429.238 M 750.947,429.844 L 750.969,430.002 L 750.7940000000001,429.834 L 750.7640000000001,429.366 L 750.9020000000002,429.661 L 750.9620000000001,429.728 L 750.947,429.844 M 752.289,429.694 L 752.218,430.281 L 752.04,430.2 L 751.9549999999999,430.2 L 751.8489999999999,429.868 L 751.857,429.779 L 751.793,429.561 L 752.206,429.52299999999997 L 752.289,429.694 M 751.357,430.454 L 751.341,430.51800000000003 L 751.322,430.516 L 751.259,430.471 L 751.298,430.201 L 751.404,429.98 L 751.513,429.656 L 751.5740000000001,429.586 L 751.5960000000001,429.757 L 751.5290000000001,430.124 L 751.4720000000001,430.324 L 751.357,430.454 M 752.256,431.922 L 752.192,431.928 L 752.133,431.914 L 752.075,431.87 L 752.2130000000001,431.565 L 752.256,431.922 M 751.324,431.947 L 751.558,432.438 L 751.533,432.514 L 751.4970000000001,432.552 L 751.441,432.53900000000004 L 751.347,432.27400000000006 L 751.1709999999999,432.10300000000007 L 750.9599999999999,432.13500000000005 L 751.1349999999999,431.91800000000006 L 751.2039999999998,431.8690000000001 L 751.324,431.947 M 751.248,434.837 L 751.1120000000001,435.002 L 751.066,434.995 L 751.129,434.721 L 751.355,434.521 L 751.554,434.50300000000004 L 751.5319999999999,434.62700000000007 L 751.386,434.77900000000005 L 751.248,434.837" id="MM" title="Myanmar"/>
</svg>
