<svg xmlns="http://www.w3.org/2000/svg" xmlns:ev="http://www.w3.org/2001/xml-events" xmlns:xlink="http://www.w3.org/1999/xlink" baseProfile="full" height="43.24700927734375" version="1.1" viewBox="721.9500122070312 291.5469970703125 90.240966796875 43.24700927734375" width="90.240966796875">
	<defs/>
	<path class="land" d="M 803.17,301.744 L 802.907,302.346 L 802.381,303.548 L 801.936,304.56 L 801.7,305.128 L 801.528,305.56 L 801.349,305.969 L 801.323,306.214 L 801.122,306.608 L 800.748,307.083 L 800.667,307.597 L 800.682,308.058 L 800.65,308.47 L 800.24,308.731 L 799.919,308.963 L 800.011,309.741 L 800.176,310.034 L 800.443,310.35 L 800.724,310.603 L 800.967,310.816 L 801.235,310.714 L 801.462,310.389 L 801.9,310.103 L 802.143,310.096 L 802.313,310.162 L 802.693,310.181 L 803.082,310.077 L 803.387,310.055 L 803.781,310.125 L 803.923,310.193 L 804.254,310.319 L 804.611,310.594 L 804.861,310.901 L 805.043,310.96 L 805.136,310.862 L 805.336,310.589 L 805.617,310.326 L 805.958,309.894 L 806.215,309.562 L 806.417,309.511 L 806.807,309.512 L 806.982,309.432 L 807.277,309.39 L 807.538,309.513 L 808.264,309.578 L 808.459,309.748 L 808.803,310.253 L 808.998,310.522 L 809.336,310.657 L 809.54,310.75 L 809.721,310.822 L 809.901,310.952 L 809.944,311.109 L 810.017,311.349 L 810.127,311.487 L 810.332,311.623 L 810.488,311.705 L 810.537,311.878 L 810.586,311.963 L 810.729,312.084 L 811.15,312.6 L 811.355,312.738 L 811.667,313.036 L 811.797,313.283 L 811.804,313.542 L 811.885,313.739 L 812.093,314.035 L 812.191,314.235 L 812.152,314.506 L 812.186,314.746 L 812.105,314.993 L 811.77,315.176 L 811.654,315.263 L 811.412,315.271 L 811.002,315.179 L 810.603,315.231 L 810.126,315.129 L 809.752,314.912 L 809.552,314.737 L 809.233,314.634 L 809.083,314.688 L 808.894,314.913 L 808.686,314.873 L 808.494,314.913 L 808.0,314.867 L 807.731,314.81 L 807.306,314.967 L 807.065,315.016 L 806.613,315.208 L 806.342,315.541 L 806.139,315.62 L 805.941,315.604 L 805.8,315.482 L 805.594,315.335 L 805.288,315.343 L 805.197,315.406 L 805.159,315.541 L 805.059,315.951 L 805.061,316.135 L 804.994,316.254 L 804.813,316.293 L 804.496,316.282 L 803.999,316.255 L 803.663,316.149 L 803.461,316.194 L 803.186,316.416 L 802.99,316.452 L 802.831,316.546 L 802.702,316.873 L 802.5,317.076 L 802.256,317.328 L 801.994,317.865 L 801.85,318.172 L 801.896,318.337 L 801.928,318.537 L 801.807,318.764 L 801.561,318.975 L 801.363,319.014 L 801.067,319.217 L 800.66,319.582 L 800.356,319.888 L 799.96,319.962 L 799.679,320.04 L 799.056,320.135 L 798.902,320.159 L 798.219,320.206 L 797.713,320.042 L 797.447,320.067 L 797.211,320.16 L 797.091,320.261 L 797.049,320.453 L 797.007,320.63 L 796.815,320.905 L 796.428,321.269 L 796.109,321.51 L 795.864,321.822 L 795.725,321.935 L 795.445,322.054 L 795.294,322.118 L 794.943,322.395 L 794.664,322.642 L 794.48,322.711 L 794.258,322.646 L 794.111,322.625 L 793.677,322.53 L 793.383,322.518 L 792.972,322.457 L 792.01,322.168 L 791.701,322.033 L 791.428,321.665 L 791.181,321.478 L 790.846,321.458 L 790.343,321.458 L 790.118,321.385 L 789.74,321.454 L 789.327,321.828 L 789.132,322.106 L 788.963,322.391 L 788.756,322.998 L 788.664,323.403 L 788.594,323.631 L 788.373,323.994 L 788.349,324.197 L 788.425,324.373 L 788.584,324.571 L 788.679,324.882 L 788.911,325.212 L 789.139,325.469 L 789.568,325.883 L 789.69,326.1 L 789.835,326.348 L 789.866,326.59 L 789.839,326.748 L 789.685,326.869 L 789.384,326.93 L 789.239,327.097 L 789.018,327.321 L 788.756,327.579 L 788.633,327.593 L 788.485,327.662 L 787.744,327.981 L 787.462,328.07 L 787.24,328.176 L 786.977,328.5 L 786.77,328.741 L 786.514,329.061 L 786.401,329.202 L 786.174,329.521 L 785.875,329.885 L 785.709,330.08 L 785.619,330.196 L 785.537,330.349 L 785.224,330.466 L 784.966,330.591 L 784.576,330.779 L 784.017,330.985 L 783.565,331.185 L 783.278,331.349 L 782.851,331.556 L 782.561,331.622 L 781.977,331.614 L 781.255,331.667 L 780.729,331.707 L 780.334,331.657 L 779.737,331.628 L 779.28,331.588 L 778.975,331.665 L 778.256,331.746 L 778.095,331.764 L 776.814,331.96 L 776.248,332.064 L 775.73,332.112 L 775.349,332.188 L 775.133,332.284 L 774.813,332.42 L 774.644,332.48 L 774.077,332.748 L 772.815,333.3 L 771.971,333.747 L 771.832,333.823 L 771.263,334.138 L 770.934,334.261 L 770.705,334.541 L 770.522,334.718 L 770.33,334.794 L 769.988,334.614 L 769.746,334.624 L 768.973,334.558 L 768.973,333.74 L 768.431,333.855 L 767.566,334.04 L 766.764,334.211 L 766.03,333.819 L 765.464,333.516 L 764.972,333.255 L 764.226,333.082 L 763.575,332.931 L 762.401,332.682 L 761.885,332.464 L 761.624,332.175 L 761.158,331.519 L 761.007,331.389 L 760.78,331.299 L 760.545,331.242 L 760.035,331.245 L 759.413,331.194 L 758.517,331.056 L 757.805,330.945 L 756.591,330.74 L 756.303,330.715 L 755.668,330.897 L 754.854,331.13 L 753.393,330.947 L 752.745,330.862 L 751.432,330.688 L 749.946,330.491 L 748.506,330.287 L 747.46,330.399 L 746.877,330.462 L 746.204,330.552 L 746.111,330.451 L 746.084,330.06 L 745.963,329.757 L 745.595,329.429 L 745.348,329.117 L 744.877,328.694 L 744.729,328.427 L 744.679,328.013 L 744.245,326.932 L 743.975,326.197 L 743.907,326.048 L 743.791,325.808 L 743.639,325.683 L 743.316,325.606 L 743.229,325.476 L 743.229,325.221 L 743.28,324.868 L 743.346,324.61 L 743.299,324.545 L 742.456,324.618 L 741.939,324.447 L 741.508,324.261 L 740.896,323.785 L 740.533,323.601 L 740.068,323.107 L 739.392,322.99 L 739.14,322.796 L 738.822,322.372 L 738.545,322.099 L 738.151,321.927 L 737.529,321.774 L 736.467,321.628 L 736.107,321.566 L 735.521,321.664 L 735.086,321.672 L 734.381,321.568 L 733.979,321.437 L 733.483,321.433 L 733.16,321.435 L 732.729,321.405 L 732.521,321.319 L 732.328,321.214 L 731.966,321.24 L 731.713,321.135 L 731.477,320.939 L 731.23,320.846 L 730.96,320.852 L 730.849,320.939 L 730.745,320.931 L 730.678,320.666 L 730.425,320.237 L 730.387,320.044 L 730.232,319.822 L 730.141,319.62 L 730.166,319.341 L 730.275,318.798 L 730.518,318.306 L 730.676,318.178 L 730.773,318.032 L 730.977,317.777 L 731.095,317.573 L 731.081,317.293 L 730.942,317.001 L 730.842,316.624 L 730.86,316.407 L 731.01,316.149 L 731.186,315.576 L 731.171,315.425 L 731.102,315.305 L 731.084,315.038 L 731.05,314.68 L 730.839,314.131 L 730.725,313.839 L 730.525,313.713 L 730.291,313.637 L 730.089,313.241 L 729.835,312.773 L 729.676,312.479 L 729.621,312.299 L 729.596,311.972 L 729.477,311.575 L 729.352,311.357 L 729.259,311.189 L 729.211,310.948 L 729.163,310.86 L 728.819,310.753 L 728.573,310.573 L 728.471,310.331 L 728.435,310.135 L 728.361,310.021 L 728.167,309.985 L 728.032,310.161 L 727.811,310.249 L 727.661,310.233 L 727.514,310.127 L 727.423,310.016 L 727.269,309.891 L 727.051,309.494 L 726.822,309.389 L 726.402,309.407 L 726.028,309.591 L 725.802,309.562 L 725.61,309.5 L 725.396,309.302 L 725.246,309.138 L 725.023,309.085 L 724.584,308.796 L 724.287,308.588 L 724.262,308.179 L 724.122,307.897 L 723.832,307.817 L 723.54,307.527 L 723.114,307.371 L 722.846,307.25 L 722.613,307.177 L 722.579,307.067 L 722.593,306.973 L 722.7,306.816 L 722.812,306.669 L 722.839,306.533 L 722.749,306.413 L 722.508,306.287 L 722.198,306.174 L 722.135,305.987 L 721.95,305.792 L 721.982,305.635 L 722.129,305.52 L 722.277,305.435 L 722.312,305.287 L 722.206,305.151 L 722.155,304.945 L 722.18,304.791 L 722.149,304.594 L 722.16,304.595 L 722.487,304.584 L 722.637,304.489 L 722.75,304.348 L 722.995,304.191 L 723.047,304.011 L 723.051,303.654 L 723.211,303.352 L 723.618,303.262 L 723.774,303.218 L 723.94,303.262 L 724.198,303.219 L 724.447,303.204 L 724.586,303.297 L 724.77,303.375 L 725.005,303.366 L 725.085,303.224 L 725.095,303.025 L 725.196,302.973 L 725.323,303.111 L 725.395,303.214 L 725.5,303.261 L 725.784,303.138 L 725.982,303.005 L 726.047,302.731 L 726.162,302.596 L 726.316,302.665 L 726.587,302.663 L 726.81,302.451 L 727.103,302.282 L 727.313,302.205 L 727.355,302.062 L 727.257,301.746 L 727.284,301.4 L 727.565,301.204 L 727.941,301.181 L 728.22,301.046 L 728.297,300.676 L 728.435,300.57 L 728.574,300.528 L 728.913,300.47 L 729.157,300.319 L 729.308,300.25 L 729.734,300.047 L 730.122,300.008 L 730.288,299.846 L 730.418,299.642 L 730.636,299.564 L 730.857,299.387 L 731.15,299.162 L 731.266,299.13 L 731.746,298.999 L 731.934,298.951 L 732.047,298.922 L 732.255,298.931 L 732.343,298.692 L 732.554,298.517 L 732.766,298.458 L 732.869,298.283 L 733.072,298.06 L 733.347,297.937 L 733.774,297.918 L 734.188,297.943 L 734.437,297.905 L 734.641,297.575 L 734.68,297.412 L 734.727,297.245 L 734.893,297.181 L 735.093,297.452 L 735.262,297.62 L 735.521,297.795 L 735.655,297.959 L 735.809,297.982 L 735.97,297.859 L 736.084,297.56 L 736.3,297.514 L 736.538,297.562 L 736.601,297.709 L 736.621,297.853 L 736.73,298.109 L 736.992,298.332 L 737.327,298.321 L 737.462,298.281 L 737.788,298.312 L 738.109,298.36 L 738.459,298.413 L 738.561,298.421 L 738.936,298.448 L 739.481,298.487 L 739.722,298.469 L 740.214,298.542 L 740.314,298.74 L 740.405,299.208 L 740.482,299.653 L 740.505,300.01 L 740.633,300.195 L 740.796,300.255 L 740.904,300.399 L 741.094,300.595 L 741.234,300.875 L 741.405,300.856 L 741.524,300.79 L 741.786,300.769 L 742.12,300.788 L 742.353,300.942 L 742.44,301.146 L 742.629,301.259 L 742.782,301.223 L 743.24,301.222 L 743.398,301.234 L 743.556,301.346 L 743.783,301.365 L 743.908,301.223 L 744.303,301.126 L 744.531,300.924 L 744.707,300.922 L 744.84,301.02 L 744.942,301.152 L 745.093,301.093 L 745.175,300.984 L 745.307,300.984 L 745.436,301.055 L 745.767,301.178 L 746.007,301.408 L 746.192,301.431 L 746.432,301.363 L 746.542,301.332 L 746.647,301.446 L 746.802,301.507 L 746.919,301.423 L 747.12,301.363 L 747.889,301.488 L 748.066,301.718 L 748.203,301.826 L 748.313,302.013 L 748.514,302.147 L 748.938,302.101 L 749.103,301.964 L 749.446,301.66 L 749.583,301.363 L 749.756,301.268 L 749.951,301.219 L 750.134,301.22 L 750.325,301.21 L 750.558,300.992 L 750.746,300.916 L 751.025,300.639 L 751.077,300.514 L 751.213,300.19 L 751.297,299.985 L 751.438,299.657 L 751.514,299.128 L 751.557,298.847 L 751.52,298.644 L 751.354,298.538 L 751.143,298.488 L 750.957,298.333 L 750.819,298.152 L 750.738,297.899 L 750.629,297.602 L 750.635,297.387 L 750.604,297.221 L 750.511,297.079 L 750.332,296.83 L 750.245,296.644 L 750.274,296.348 L 750.485,295.842 L 750.505,295.606 L 750.531,295.46 L 750.52,295.327 L 750.586,295.022 L 750.705,294.894 L 750.841,294.567 L 751.024,294.416 L 751.254,294.406 L 751.353,294.317 L 751.401,293.989 L 751.512,293.736 L 751.586,293.557 L 751.726,293.361 L 752.533,292.983 L 752.868,292.512 L 752.987,292.274 L 753.117,291.762 L 753.242,291.547 L 753.424,291.618 L 753.638,291.92 L 753.798,291.923 L 754.036,292.086 L 754.685,292.429 L 755.036,292.536 L 755.262,292.569 L 755.561,292.664 L 755.753,292.864 L 756.128,293.19 L 756.445,293.273 L 756.995,293.306 L 757.664,293.323 L 757.854,293.38 L 758.343,293.614 L 758.885,293.873 L 759.395,294.104 L 759.781,294.282 L 760.01,294.456 L 760.225,294.555 L 760.458,294.47 L 760.757,294.489 L 761.459,294.697 L 761.903,294.871 L 762.274,295.0 L 762.398,295.178 L 762.41,295.415 L 762.36,295.615 L 762.388,296.099 L 762.507,296.353 L 762.551,296.692 L 762.596,297.016 L 762.564,297.335 L 762.621,297.504 L 762.737,297.604 L 762.85,297.826 L 762.813,298.06 L 762.763,298.196 L 762.771,298.415 L 762.905,298.595 L 763.104,298.63 L 763.278,298.677 L 763.494,298.96 L 763.879,299.286 L 764.109,299.376 L 764.374,299.522 L 764.879,299.666 L 765.222,299.708 L 765.424,299.825 L 765.622,300.104 L 765.95,300.162 L 766.16,300.259 L 766.544,300.374 L 766.798,300.308 L 767.021,300.21 L 767.17,300.229 L 767.458,300.292 L 767.795,300.306 L 768.078,300.239 L 768.304,300.042 L 768.567,299.776 L 768.883,299.641 L 769.248,299.593 L 769.498,299.485 L 770.316,299.305 L 770.646,299.273 L 770.902,299.1 L 771.129,298.964 L 771.457,298.905 L 771.9,299.048 L 772.324,299.167 L 772.837,299.206 L 773.178,299.37 L 773.419,299.525 L 773.799,299.648 L 774.221,299.591 L 774.8,299.542 L 775.183,299.613 L 775.583,299.895 L 775.829,300.12 L 776.106,300.602 L 776.396,300.834 L 776.648,301.024 L 776.968,301.037 L 777.765,301.052 L 778.202,301.152 L 778.566,301.206 L 778.653,301.306 L 778.617,301.635 L 778.628,302.104 L 778.623,302.319 L 778.703,302.481 L 778.827,302.51 L 778.895,302.739 L 779.075,302.874 L 779.398,303.037 L 779.942,303.59 L 780.267,303.826 L 780.522,303.906 L 780.857,303.851 L 781.382,303.853 L 782.271,303.854 L 782.88,304.02 L 783.091,304.133 L 783.713,304.265 L 784.397,304.409 L 784.975,304.56 L 785.315,304.365 L 785.614,304.347 L 785.899,304.488 L 786.185,304.7 L 786.405,304.677 L 786.736,304.578 L 787.793,303.986 L 788.164,303.764 L 788.424,303.821 L 788.656,303.743 L 788.833,303.676 L 789.284,303.584 L 789.559,303.559 L 789.842,303.506 L 790.25,303.47 L 791.079,303.081 L 791.415,303.005 L 791.983,303.113 L 792.289,303.042 L 792.594,302.846 L 792.988,302.643 L 793.091,302.313 L 793.293,301.859 L 793.729,301.525 L 794.083,301.232 L 794.444,300.948 L 794.888,300.71 L 795.306,300.538 L 795.838,300.085 L 796.262,299.855 L 796.473,299.78 L 796.724,299.863 L 797.193,299.924 L 797.533,299.906 L 797.725,299.958 L 798.107,300.18 L 798.455,300.374 L 798.721,300.72 L 799.216,301.201 L 799.47,301.362 L 799.65,301.429 L 800.096,301.474 L 800.46,301.498 L 800.678,301.388 L 801.045,301.187 L 801.63,300.931 L 801.86,300.938 L 802.237,301.074 L 802.799,301.325 L 803.024,301.513 L 803.17,301.744" id="MN" title="Mongolia"/>
</svg>
