<svg xmlns="http://www.w3.org/2000/svg" xmlns:ev="http://www.w3.org/2001/xml-events" xmlns:xlink="http://www.w3.org/1999/xlink" baseProfile="full" height="13.6610107421875" version="1.1" viewBox="883.0659790039062 409.2619934082031 1.91900634765625 13.6610107421875" width="1.91900634765625" fill="#00394f">
	<defs/>
	<path class="land" d="M 884.629,409.393 L 884.543,409.503 L 884.472,409.42199999999997 L 884.452,409.26199999999994 L 884.577,409.27699999999993 L 884.623,409.30999999999995 L 884.629,409.393 M 884.822,411.403 L 884.686,411.46700000000004 L 884.855,411.17800000000005 L 884.9060000000001,411.12800000000004 L 884.985,411.23300000000006 L 884.822,411.403 M 884.639,416.483 L 884.577,416.503 L 884.4879999999999,416.493 L 884.425,416.447 L 884.411,416.37 L 884.592,416.366 L 884.659,416.424 L 884.639,416.483 M 884.751,419.978 L 884.7429999999999,420.053 L 884.5989999999999,420.035 L 884.56,420.00100000000003 L 884.641,419.74 L 884.847,419.62 L 884.947,419.596 L 884.853,419.72 L 884.8349999999999,419.85900000000004 L 884.751,419.978 M 884.499,420.448 L 884.383,420.59499999999997 L 884.301,420.366 L 884.287,420.274 L 884.393,420.19 L 884.456,420.191 L 884.499,420.448 M 883.384,422.789 L 883.244,422.923 L 883.144,422.896 L 883.081,422.85 L 883.066,422.773 L 883.292,422.699 L 883.384,422.725 L 883.384,422.789" id="MP" title="Northern Mariana Islands"/>
</svg>
