<svg xmlns="http://www.w3.org/2000/svg" xmlns:ev="http://www.w3.org/2001/xml-events" xmlns:xlink="http://www.w3.org/1999/xlink" baseProfile="full" height="37.576995849609375" version="1.1" viewBox="427.8160095214844 383.5190124511719 34.3489990234375 37.576995849609375" width="34.3489990234375">
	<defs/>
	<path class="land" d="M 462.165,390.639 L 461.182,390.639 L 459.869,390.64 L 458.97400000000005,390.64 L 458.05500000000006,390.64 L 457.1940000000001,390.64 L 457.26900000000006,391.341 L 457.34900000000005,392.105 L 457.42900000000003,392.867 L 457.509,393.62800000000004 L 457.589,394.38700000000006 L 457.669,395.14500000000004 L 457.74899999999997,395.901 L 457.82899999999995,396.65500000000003 L 457.90899999999993,397.408 L 457.9889999999999,398.159 L 458.0689999999999,398.909 L 458.1489999999999,399.659 L 458.22899999999987,400.407 L 458.30899999999986,401.154 L 458.38899999999984,401.9 L 458.4689999999998,402.644 L 458.5489999999998,403.387 L 458.6289999999998,404.129 L 458.7089999999998,404.869 L 458.78899999999976,405.608 L 458.86899999999974,406.346 L 458.9489999999997,407.083 L 459.0289999999997,407.81800000000004 L 459.1089999999997,408.552 L 459.1889999999997,409.285 L 459.26899999999966,410.01700000000005 L 459.34899999999965,410.74800000000005 L 459.42899999999963,411.47800000000007 L 459.5089999999996,412.20700000000005 L 459.5889999999996,412.93500000000006 L 459.6689999999996,413.66200000000003 L 459.74899999999957,414.38800000000003 L 459.82899999999955,415.11300000000006 L 459.9069999999995,415.81500000000005 L 460.24099999999953,416.18300000000005 L 460.66099999999955,416.64500000000004 L 460.53799999999956,417.29900000000004 L 460.39199999999954,418.07800000000003 L 460.2319999999995,418.927 L 459.6389999999995,418.927 L 459.0659999999995,418.927 L 458.4939999999995,418.927 L 457.9219999999995,418.927 L 457.3499999999995,418.927 L 456.77699999999953,418.927 L 456.20499999999953,418.927 L 455.6329999999995,418.927 L 455.0609999999995,418.927 L 454.4889999999995,418.927 L 453.91599999999954,418.927 L 453.34399999999954,418.927 L 452.77199999999954,418.927 L 452.19999999999953,418.927 L 451.62699999999955,418.927 L 451.05499999999955,418.927 L 450.48299999999955,418.927 L 449.94999999999953,418.927 L 449.62199999999956,418.90700000000004 L 449.50499999999954,418.84100000000007 L 449.46299999999957,418.40200000000004 L 449.36499999999955,418.43000000000006 L 449.24899999999957,418.5590000000001 L 449.18899999999957,418.69900000000007 L 449.2099999999996,418.88200000000006 L 449.1909999999996,419.03700000000003 L 448.8229999999996,419.098 L 448.32599999999957,419.202 L 447.80299999999954,419.282 L 447.2749999999995,419.253 L 447.0949999999995,419.217 L 446.90399999999954,419.159 L 446.4839999999995,419.096 L 446.25499999999954,419.091 L 445.99299999999954,419.105 L 445.6839999999995,419.14000000000004 L 445.5849999999995,419.22100000000006 L 445.3519999999995,419.54800000000006 L 445.1259999999995,419.9270000000001 L 444.97899999999953,419.92500000000007 L 444.81299999999953,419.71700000000004 L 444.35799999999955,419.32500000000005 L 443.80699999999956,418.809 L 443.5559999999996,418.55300000000005 L 443.4229999999996,418.52000000000004 L 443.1589999999996,418.70400000000006 L 442.9369999999996,418.8810000000001 L 442.7009999999996,419.1310000000001 L 442.5939999999996,419.3710000000001 L 442.5089999999996,419.6540000000001 L 442.4709999999996,419.98700000000014 L 442.3849999999996,420.3750000000001 L 442.1939999999996,420.6880000000001 L 441.9679999999996,420.9240000000001 L 441.7999999999996,421.0350000000001 L 441.7349999999996,421.09600000000006 L 441.2409999999996,420.91200000000003 L 441.1789999999996,420.889 L 440.8809999999996,420.681 L 440.73699999999957,420.43399999999997 L 440.50199999999955,420.248 L 440.17599999999953,420.123 L 439.96399999999954,419.981 L 439.86499999999955,419.82099999999997 L 439.74499999999955,419.715 L 439.61799999999954,419.65999999999997 L 439.60599999999954,419.60299999999995 L 439.6359999999995,419.52399999999994 L 439.60599999999954,419.37799999999993 L 439.41499999999957,419.0519999999999 L 439.23699999999957,418.90199999999993 L 439.0849999999996,418.92599999999993 L 438.99899999999957,418.8859999999999 L 438.94699999999955,418.8139999999999 L 438.92599999999953,418.7089999999999 L 438.82199999999955,418.6179999999999 L 438.64199999999954,418.57799999999986 L 438.49699999999956,418.33599999999984 L 438.3879999999996,417.89099999999985 L 438.2459999999996,417.54399999999987 L 438.0719999999996,417.29499999999985 L 437.9469999999996,417.2019999999998 L 437.8549999999996,417.18499999999983 L 437.8239999999996,417.14599999999984 L 437.79899999999964,417.07399999999984 L 437.6629999999996,417.04799999999983 L 437.47199999999964,417.1229999999998 L 437.2999999999996,417.09799999999984 L 437.2159999999996,416.97599999999983 L 437.0989999999996,416.9649999999998 L 436.9499999999996,417.0649999999998 L 436.78499999999957,417.03599999999983 L 436.60499999999956,416.87699999999984 L 436.50499999999954,416.7189999999998 L 436.48599999999954,416.56199999999984 L 436.17499999999956,416.24899999999985 L 435.5729999999996,415.7789999999998 L 434.9169999999996,415.5589999999998 L 434.2069999999996,415.5879999999998 L 433.80899999999957,415.5659999999998 L 433.7219999999996,415.4919999999998 L 433.6349999999996,415.49799999999976 L 433.54699999999957,415.5839999999998 L 433.45399999999955,415.6029999999998 L 433.35499999999956,415.5549999999998 L 433.29299999999955,415.5909999999998 L 433.26899999999955,415.7109999999998 L 433.01899999999955,415.7729999999998 L 432.5439999999995,415.7739999999998 L 432.1599999999995,415.8479999999998 L 431.86799999999954,415.9939999999998 L 431.45399999999955,416.0569999999998 L 430.91799999999955,416.0369999999998 L 430.5949999999996,415.98299999999983 L 430.48499999999956,415.8969999999998 L 430.33099999999956,415.8759999999998 L 430.1329999999996,415.9219999999998 L 429.9549999999996,416.1549999999998 L 429.7979999999996,416.5739999999998 L 429.6689999999996,416.81299999999976 L 429.5659999999996,416.8719999999998 L 429.45599999999956,417.1839999999998 L 429.39399999999955,417.7059999999998 L 429.30099999999953,417.9349999999998 L 429.29999999999956,416.63299999999975 L 429.4529999999996,416.14599999999973 L 429.5029999999996,415.71799999999973 L 429.83099999999956,414.77099999999973 L 430.2219999999996,413.9949999999997 L 430.5829999999996,412.96299999999974 L 430.7189999999996,411.96099999999973 L 430.6729999999996,410.9779999999997 L 430.5659999999996,410.10199999999975 L 430.3829999999996,409.52199999999976 L 430.20599999999956,408.68099999999976 L 429.94499999999954,408.23699999999974 L 429.46699999999953,407.84899999999976 L 429.3599999999995,407.6219999999998 L 429.4709999999995,407.5369999999998 L 429.7619999999995,407.4789999999998 L 429.9469999999995,407.1759999999998 L 429.5549999999995,407.29299999999984 L 430.00799999999947,406.36299999999983 L 430.1489999999995,405.7289999999998 L 430.1269999999995,405.31199999999984 L 430.2129999999995,405.05399999999986 L 429.8669999999995,404.49499999999983 L 429.5979999999995,403.78999999999985 L 429.4589999999995,403.67899999999986 L 429.3149999999995,403.61999999999983 L 429.3019999999995,403.78599999999983 L 429.22399999999953,403.93399999999986 L 429.05599999999953,403.84499999999986 L 428.7589999999995,403.3319999999999 L 428.3439999999995,402.49599999999987 L 428.19799999999947,402.40999999999985 L 428.0769999999995,402.52499999999986 L 428.00099999999946,402.6349999999999 L 427.8609999999995,403.33299999999986 L 427.81599999999946,403.05599999999987 L 427.87699999999944,402.72999999999985 L 427.97999999999945,402.32799999999986 L 428.09599999999944,401.76899999999983 L 428.45599999999945,401.76899999999983 L 429.09999999999945,401.76799999999986 L 429.74399999999946,401.7669999999999 L 430.38799999999947,401.7669999999999 L 431.03199999999947,401.7659999999999 L 431.6759999999995,401.76499999999993 L 432.31899999999945,401.76399999999995 L 432.96299999999945,401.76399999999995 L 433.60699999999946,401.763 L 434.25099999999946,401.762 L 434.89499999999947,401.762 L 435.5389999999995,401.761 L 436.1829999999995,401.76000000000005 L 436.82599999999945,401.76000000000005 L 437.46999999999946,401.75900000000007 L 438.11399999999946,401.7580000000001 L 438.75699999999944,401.7580000000001 L 439.18199999999945,401.7580000000001 L 439.15699999999947,401.36000000000007 L 439.1369999999995,401.0440000000001 L 439.1099999999995,400.6190000000001 L 439.0829999999995,400.1960000000001 L 439.0569999999995,399.7720000000001 L 439.0319999999995,399.3730000000001 L 439.00699999999955,398.9740000000001 L 438.9839999999995,398.6040000000001 L 438.9629999999995,398.2640000000001 L 438.92599999999953,398.0680000000001 L 438.78899999999953,397.6790000000001 L 438.75999999999954,397.4860000000001 L 438.7969999999995,397.2820000000001 L 438.8879999999995,397.0900000000001 L 439.1389999999995,396.7380000000001 L 439.5189999999995,396.4670000000001 L 439.9569999999995,396.1540000000001 L 440.2909999999995,395.91500000000013 L 440.4619999999995,395.8560000000001 L 440.9849999999995,395.7730000000001 L 441.3969999999995,395.5920000000001 L 441.7979999999995,395.4160000000001 L 441.9659999999995,395.3180000000001 L 441.9859999999995,394.9870000000001 L 441.9859999999995,394.6170000000001 L 441.9859999999995,394.20200000000006 L 441.9859999999995,393.78600000000006 L 441.9859999999995,393.37000000000006 L 441.9859999999995,392.9530000000001 L 441.9859999999995,392.5360000000001 L 441.9859999999995,392.11900000000014 L 441.9859999999995,391.70100000000014 L 441.9859999999995,391.28300000000013 L 441.9859999999995,390.8650000000001 L 441.9859999999995,390.44600000000014 L 441.9859999999995,390.0260000000001 L 441.9859999999995,389.6060000000001 L 441.9859999999995,389.1850000000001 L 441.9859999999995,388.7640000000001 L 441.9859999999995,388.3420000000001 L 441.9859999999995,387.9200000000001 L 441.9859999999995,387.55000000000007 L 442.4059999999995,387.55000000000007 L 442.9289999999995,387.55000000000007 L 443.4509999999995,387.55000000000007 L 443.97399999999953,387.55000000000007 L 444.49699999999956,387.55000000000007 L 445.0199999999996,387.55000000000007 L 445.5429999999996,387.55000000000007 L 446.06599999999963,387.55000000000007 L 446.58899999999966,387.55000000000007 L 447.1119999999997,387.55000000000007 L 447.6349999999997,387.55000000000007 L 448.15799999999973,387.55000000000007 L 448.68099999999976,387.55000000000007 L 449.2039999999998,387.55000000000007 L 449.7259999999998,387.55000000000007 L 450.2489999999998,387.55000000000007 L 450.7719999999998,387.55000000000007 L 451.34299999999985,387.55000000000007 L 451.34299999999985,387.1960000000001 L 451.34299999999985,386.68700000000007 L 451.34199999999987,385.9870000000001 L 451.34199999999987,385.2830000000001 L 451.3409999999999,384.66300000000007 L 451.3409999999999,384.0420000000001 L 451.3399999999999,383.51900000000006 L 451.86799999999994,383.86600000000004 L 452.39599999999996,384.213 L 452.924,384.56 L 453.452,384.906 L 453.98,385.252 L 454.50800000000004,385.59700000000004 L 455.035,385.94200000000006 L 455.56300000000005,386.2870000000001 L 456.09100000000007,386.6320000000001 L 456.6190000000001,386.9760000000001 L 457.1470000000001,387.3200000000001 L 457.6750000000001,387.6630000000001 L 458.20300000000015,388.00600000000014 L 458.73100000000017,388.34900000000016 L 459.2590000000002,388.6920000000002 L 459.7860000000002,389.03400000000016 L 460.2280000000002,389.32000000000016 L 460.90700000000015,389.7810000000002 L 461.54000000000013,390.21000000000015 L 462.165,390.639 M 429.748,406.604 L 429.568,406.892 L 429.488,406.782 L 429.457,406.59299999999996 L 429.617,406.32199999999995 L 429.69300000000004,406.18199999999996 L 429.83200000000005,406.131 L 429.748,406.604" id="MR" title="Mauritania"/>
</svg>
