<svg xmlns="http://www.w3.org/2000/svg" xmlns:ev="http://www.w3.org/2001/xml-events" xmlns:xlink="http://www.w3.org/1999/xlink" baseProfile="full" height="22.18701171875" version="1.1" viewBox="567.3880004882812 488.9779968261719 9.04400634765625 22.18701171875" width="9.04400634765625">
	<defs/>
	<path class="land" d="M 573.813,495.171 L 573.4399999999999,495.164 L 572.9709999999999,495.20099999999996 L 572.8559999999999,495.29099999999994 L 572.8209999999999,495.48999999999995 L 572.6739999999999,495.9 L 572.5919999999999,496.051 L 572.4189999999999,496.327 L 572.1749999999998,496.716 L 572.1239999999998,496.843 L 572.1319999999998,496.974 L 572.2759999999998,497.503 L 572.4269999999998,498.05899999999997 L 572.4749999999998,498.277 L 572.5819999999998,499.017 L 572.6419999999997,499.541 L 572.6509999999997,499.849 L 572.7019999999998,500.26099999999997 L 572.8359999999998,500.484 L 572.9769999999997,500.62399999999997 L 573.5069999999997,500.70799999999997 L 573.6649999999997,500.811 L 573.9649999999997,501.07399999999996 L 574.6209999999996,501.80199999999996 L 574.9809999999997,502.26699999999994 L 575.2979999999997,502.67599999999993 L 575.8639999999997,503.43699999999995 L 576.3039999999997,504.02899999999994 L 576.3589999999997,504.5849999999999 L 576.4319999999997,504.66599999999994 L 576.2839999999997,505.07899999999995 L 576.1869999999997,505.7459999999999 L 576.2569999999997,506.1889999999999 L 576.2279999999997,506.9459999999999 L 576.1469999999997,507.75299999999993 L 576.0459999999997,508.0419999999999 L 575.9159999999997,508.1509999999999 L 575.6079999999997,508.2379999999999 L 574.9319999999997,508.3389999999999 L 574.8309999999997,508.4339999999999 L 574.7439999999997,508.5909999999999 L 574.6069999999997,508.9639999999999 L 574.4459999999998,509.33999999999986 L 574.3949999999998,509.50099999999986 L 574.4259999999997,509.5389999999999 L 574.5709999999997,509.7309999999999 L 574.7149999999997,510.22199999999987 L 574.7409999999996,511.0649999999999 L 574.6909999999997,511.1279999999999 L 574.4909999999996,511.16499999999985 L 574.2759999999996,511.1539999999998 L 574.1869999999996,511.1059999999998 L 574.1069999999995,511.01199999999983 L 574.0489999999995,510.8319999999998 L 574.1899999999995,510.7069999999998 L 574.2399999999994,510.4869999999998 L 574.1499999999994,510.2989999999998 L 573.9689999999994,510.25699999999983 L 573.7389999999994,510.08399999999983 L 573.2489999999993,509.52099999999984 L 572.8389999999994,509.12599999999986 L 572.6009999999993,508.79899999999986 L 572.3579999999993,508.66899999999987 L 572.2879999999992,508.5889999999999 L 572.2289999999992,508.4509999999999 L 572.2279999999993,508.2519999999999 L 572.2499999999993,508.1059999999999 L 572.1739999999993,507.94099999999986 L 571.9279999999993,507.68699999999984 L 571.8159999999993,507.5459999999998 L 571.8099999999994,507.3779999999998 L 571.9139999999994,507.21599999999984 L 572.1239999999995,507.01799999999986 L 572.2829999999994,506.61699999999985 L 572.3399999999995,506.35799999999983 L 572.6369999999995,505.8369999999998 L 572.6779999999995,505.3849999999998 L 572.6839999999995,505.02399999999983 L 572.6659999999995,504.75399999999985 L 572.5899999999995,504.20099999999985 L 572.5369999999995,503.81899999999985 L 572.1709999999995,503.31899999999985 L 572.0519999999995,503.2719999999998 L 571.7049999999995,503.3159999999998 L 571.4049999999995,503.3889999999998 L 571.2579999999995,503.49299999999977 L 571.0349999999995,503.49799999999976 L 570.4499999999995,503.58499999999975 L 570.2659999999995,503.62199999999973 L 570.1599999999995,503.7119999999997 L 570.0979999999995,503.7309999999997 L 569.7299999999994,503.3449999999997 L 569.4069999999995,502.9279999999997 L 568.9959999999995,502.2199999999997 L 568.8789999999996,502.1349999999997 L 568.7289999999996,501.9269999999997 L 568.6039999999996,501.9789999999997 L 568.4319999999996,502.1249999999997 L 568.3389999999996,502.16499999999974 L 568.2909999999996,502.1609999999997 L 568.2599999999996,502.12399999999974 L 568.2219999999996,502.0309999999997 L 568.0889999999996,501.7639999999997 L 567.9399999999996,501.57299999999975 L 567.7819999999996,501.49899999999974 L 567.6529999999996,501.4109999999997 L 567.7099999999996,501.32599999999974 L 567.7699999999995,501.26499999999976 L 567.7439999999996,501.20199999999977 L 567.6719999999996,501.1099999999998 L 567.3919999999996,500.9769999999998 L 567.3879999999996,500.9199999999998 L 567.6349999999995,500.8049999999998 L 567.7909999999995,500.6679999999998 L 567.8969999999995,500.5369999999998 L 568.0309999999995,500.24999999999983 L 568.1399999999995,499.9639999999998 L 568.2219999999995,499.8709999999998 L 568.2499999999995,499.6819999999998 L 568.2309999999995,499.46899999999977 L 568.2859999999995,499.1969999999998 L 568.3119999999994,498.93999999999977 L 568.2289999999995,498.83999999999975 L 568.1589999999994,498.66699999999975 L 568.2419999999994,498.37299999999976 L 568.3719999999994,498.1699999999998 L 568.9949999999994,497.9589999999998 L 569.4289999999994,497.7679999999998 L 569.5209999999994,497.6849999999998 L 569.6679999999994,497.52199999999976 L 569.7499999999994,497.3629999999998 L 569.6909999999995,497.31599999999975 L 569.3499999999995,497.3119999999997 L 569.2659999999995,497.25099999999975 L 569.0199999999995,496.6919999999997 L 569.1559999999995,496.05199999999974 L 569.1679999999994,495.80099999999976 L 569.1649999999994,495.48899999999975 L 569.1219999999994,495.2619999999998 L 569.0139999999994,495.16699999999975 L 568.9479999999994,495.04499999999973 L 568.9659999999994,494.7119999999997 L 569.0659999999995,494.6719999999997 L 569.2819999999995,494.2319999999997 L 569.3779999999995,493.9729999999997 L 569.2629999999995,493.7659999999997 L 569.1359999999995,493.47099999999966 L 569.0779999999995,493.2829999999997 L 569.0459999999995,493.22099999999966 L 569.1339999999994,493.1049999999997 L 569.2799999999994,492.99299999999965 L 569.4439999999994,492.96199999999965 L 569.6169999999994,492.90899999999965 L 570.1619999999994,492.36299999999966 L 570.1689999999993,492.25699999999966 L 570.0699999999993,492.07399999999967 L 569.8659999999993,491.79799999999966 L 569.8209999999993,491.68599999999964 L 569.7969999999993,491.35399999999964 L 569.7159999999993,491.25499999999965 L 569.4169999999993,491.03199999999964 L 569.1869999999993,490.7969999999996 L 569.2589999999993,490.5589999999996 L 569.2979999999993,490.29899999999964 L 569.1839999999993,490.15599999999966 L 569.0149999999993,490.00799999999964 L 568.9099999999993,489.79199999999963 L 568.8619999999993,489.63099999999963 L 568.7289999999992,489.5669999999996 L 568.6059999999992,489.5649999999996 L 568.5159999999992,489.6649999999996 L 568.4189999999992,489.6559999999996 L 568.3009999999991,489.6209999999996 L 568.2619999999991,489.4819999999996 L 568.2549999999992,489.3319999999996 L 568.1739999999992,489.2299999999996 L 568.0959999999992,489.0879999999996 L 568.0859999999992,489.01299999999964 L 568.1349999999992,488.99099999999964 L 568.2379999999991,488.97799999999967 L 568.6769999999991,489.2629999999997 L 568.9429999999991,489.27599999999967 L 569.2389999999991,489.32899999999967 L 569.4919999999992,489.57999999999964 L 569.6229999999991,489.61299999999966 L 569.7899999999992,489.57799999999963 L 570.2679999999991,489.5519999999996 L 570.4599999999991,489.5879999999996 L 570.7069999999991,489.7349999999996 L 570.8039999999991,489.7549999999996 L 570.958999999999,489.76099999999957 L 570.9859999999991,489.72099999999955 L 571.001999999999,489.63399999999956 L 570.974999999999,489.4579999999996 L 571.009999999999,489.36299999999954 L 571.103999999999,489.25999999999954 L 571.364999999999,489.37999999999954 L 572.016999999999,489.92799999999954 L 572.036999999999,489.99899999999957 L 572.4529999999991,490.54299999999955 L 572.587999999999,490.77299999999957 L 572.587999999999,490.8949999999996 L 572.7159999999991,491.3709999999996 L 572.7439999999991,491.5939999999996 L 572.7149999999991,491.7639999999996 L 572.7199999999991,491.89999999999964 L 572.7699999999991,492.09399999999965 L 572.752999999999,492.17599999999965 L 572.900999999999,492.4609999999997 L 572.9719999999991,492.7009999999997 L 572.9869999999991,492.93499999999966 L 572.944999999999,493.16399999999965 L 572.813999999999,493.4969999999997 L 572.791999999999,493.6309999999997 L 572.820999999999,493.7529999999997 L 572.905999999999,493.8859999999997 L 573.046999999999,494.02899999999966 L 573.152999999999,494.2009999999997 L 573.224999999999,494.40399999999966 L 573.285999999999,494.49599999999964 L 573.3619999999991,494.49399999999963 L 573.501999999999,494.52499999999964 L 573.613999999999,494.64399999999966 L 573.743999999999,494.8429999999997 L 573.786999999999,495.07199999999966 L 573.813,495.171 M 572.921,496.413 L 572.865,496.564 L 572.749,496.562 L 572.64,496.428 L 572.675,496.324 L 572.78,496.29200000000003 L 572.872,496.331 L 572.921,496.413 M 573.139,496.689 L 573.04,496.71200000000005 L 572.978,496.66100000000006 L 572.9929999999999,496.50900000000007 L 573.0279999999999,496.39900000000006 L 573.1259999999999,496.38200000000006 L 573.1939999999998,496.41100000000006 L 573.2409999999999,496.46100000000007 L 573.2419999999998,496.5420000000001 L 573.2129999999999,496.6250000000001 L 573.139,496.689" id="MW" title="Malawi"/>
</svg>
