<svg xmlns="http://www.w3.org/2000/svg" xmlns:ev="http://www.w3.org/2001/xml-events" xmlns:xlink="http://www.w3.org/1999/xlink" baseProfile="full" height="55.67999267578125" version="1.1" viewBox="143.4080047607422 365.9960021972656 88.97999572753906 55.67999267578125" width="88.97999572753906">
	<defs/>
	<path class="land" d="M 203.06,387.652 L 203.00900000000001,388.293 L 202.83900000000003,388.817 L 202.28000000000003,389.906 L 202.04700000000003,390.58 L 201.59600000000003,392.498 L 201.45700000000002,393.75 L 201.42400000000004,394.338 L 201.38500000000005,394.42100000000005 L 201.42700000000005,394.50700000000006 L 201.31900000000005,395.8040000000001 L 201.37700000000004,396.9080000000001 L 201.34000000000003,397.07900000000006 L 201.17600000000004,397.41100000000006 L 201.06100000000004,397.87000000000006 L 201.10600000000002,398.07400000000007 L 201.104,398.2150000000001 L 201.27200000000002,398.9120000000001 L 201.32600000000002,399.4350000000001 L 201.82700000000003,400.3290000000001 L 202.10800000000003,400.64100000000013 L 202.45700000000002,400.9110000000001 L 202.585,401.0630000000001 L 202.52200000000002,401.4420000000001 L 202.38000000000002,401.6330000000001 L 202.31900000000002,401.93700000000007 L 202.24900000000002,401.6860000000001 L 202.276,401.36000000000007 L 202.387,401.18500000000006 L 202.391,401.0570000000001 L 202.18599999999998,400.9200000000001 L 201.81099999999998,400.47100000000006 L 201.35299999999998,399.67500000000007 L 201.67899999999997,400.9460000000001 L 201.79099999999997,401.14900000000006 L 201.87799999999996,401.23300000000006 L 202.02399999999994,401.32200000000006 L 202.06199999999995,401.46000000000004 L 202.06299999999996,401.562 L 202.46499999999995,402.442 L 202.91999999999996,403.35 L 202.94399999999996,403.598 L 203.12599999999995,403.903 L 204.28499999999994,405.173 L 204.99399999999994,406.119 L 205.23999999999995,407.01500000000004 L 205.38799999999995,407.29400000000004 L 205.46099999999996,407.67600000000004 L 205.92499999999995,408.10400000000004 L 206.06699999999995,408.38000000000005 L 206.31599999999995,408.5330000000001 L 206.51699999999994,408.99500000000006 L 206.89499999999992,409.26500000000004 L 206.80499999999992,409.27000000000004 L 206.47399999999993,409.134 L 206.49599999999992,409.224 L 206.77399999999992,409.41499999999996 L 207.3189999999999,409.60299999999995 L 207.4549999999999,409.60299999999995 L 207.2399999999999,409.50499999999994 L 207.0579999999999,409.37299999999993 L 207.1219999999999,409.3539999999999 L 207.5029999999999,409.5179999999999 L 208.5679999999999,409.5719999999999 L 209.0369999999999,409.95499999999987 L 209.6449999999999,410.1199999999999 L 209.9719999999999,410.60899999999987 L 210.3519999999999,411.11899999999986 L 210.59499999999989,411.14299999999986 L 210.78399999999988,411.14499999999987 L 211.35399999999987,411.05899999999986 L 212.23999999999987,410.73799999999983 L 212.54499999999987,410.58099999999985 L 213.13999999999987,410.3679999999998 L 214.05099999999987,410.32899999999984 L 214.33299999999988,410.38899999999984 L 215.0139999999999,410.25599999999986 L 215.33899999999988,410.09299999999985 L 215.45199999999988,409.9449999999998 L 215.50499999999988,409.83599999999984 L 216.13599999999988,409.67999999999984 L 216.26099999999988,409.64899999999983 L 216.8999999999999,409.6209999999998 L 217.2089999999999,409.5629999999998 L 217.5719999999999,409.5289999999998 L 217.8339999999999,409.75899999999984 L 217.8339999999999,409.87099999999987 L 217.65899999999988,409.97699999999986 L 217.74099999999987,410.07999999999987 L 218.05199999999988,410.2499999999999 L 218.62199999999987,410.3189999999999 L 218.80699999999987,410.2919999999999 L 219.06999999999988,410.04099999999994 L 219.53299999999987,409.79799999999994 L 219.52299999999988,409.51499999999993 L 219.43999999999988,409.35999999999996 L 219.3059999999999,409.34999999999997 L 219.2739999999999,409.263 L 219.36799999999988,409.05499999999995 L 219.34399999999988,408.98499999999996 L 219.05599999999987,409.18499999999995 L 218.98999999999987,409.18499999999995 L 219.02199999999988,409.0919999999999 L 219.08199999999988,409.0179999999999 L 219.92599999999987,408.58199999999994 L 220.14199999999988,408.40299999999996 L 220.43399999999988,408.24499999999995 L 221.03899999999987,407.65199999999993 L 221.16799999999986,406.53399999999993 L 221.28899999999987,406.3379999999999 L 221.68999999999988,405.9939999999999 L 221.7329999999999,405.88999999999993 L 221.7589999999999,405.65599999999995 L 221.7479999999999,405.06699999999995 L 221.7699999999999,404.60299999999995 L 221.7529999999999,404.078 L 221.8249999999999,403.609 L 221.8899999999999,403.478 L 222.1199999999999,402.726 L 222.5979999999999,402.393 L 223.4269999999999,401.998 L 223.6169999999999,401.933 L 226.2579999999999,401.515 L 226.6289999999999,401.413 L 227.0829999999999,401.142 L 227.4149999999999,401.05 L 228.0199999999999,401.057 L 228.2059999999999,401.021 L 228.2429999999999,400.98400000000004 L 228.24399999999991,400.94700000000006 L 228.3559999999999,400.9100000000001 L 228.7059999999999,400.9460000000001 L 229.3599999999999,401.11000000000007 L 229.5979999999999,401.15100000000007 L 230.1829999999999,401.34100000000007 L 230.8269999999999,401.4170000000001 L 230.91899999999993,401.38400000000007 L 231.00399999999993,401.3260000000001 L 231.06899999999993,401.2150000000001 L 231.00199999999992,401.1180000000001 L 230.93899999999994,401.1250000000001 L 230.82999999999993,401.17700000000013 L 230.69999999999993,401.18200000000013 L 230.44499999999994,401.10200000000015 L 230.49599999999992,401.03500000000014 L 230.75599999999991,401.0410000000001 L 230.92299999999992,401.0090000000001 L 231.16999999999993,400.8920000000001 L 231.43299999999994,400.98000000000013 L 231.77899999999994,401.3680000000001 L 232.02499999999995,401.4910000000001 L 232.04499999999996,402.0530000000001 L 232.08199999999997,402.1560000000001 L 232.17199999999997,402.30400000000014 L 232.04899999999998,402.73900000000015 L 231.91099999999997,403.0980000000001 L 231.73799999999997,403.3920000000001 L 231.36399999999998,403.85500000000013 L 230.90999999999997,404.22500000000014 L 230.34799999999996,405.04600000000016 L 230.21999999999997,405.4300000000002 L 230.22299999999996,405.73800000000017 L 230.31799999999996,406.0350000000002 L 230.29099999999997,406.1450000000002 L 230.22199999999998,406.2560000000002 L 230.10799999999998,406.2460000000002 L 229.88599999999997,406.3880000000002 L 229.59999999999997,406.81000000000023 L 229.59399999999997,406.9380000000002 L 229.71899999999997,407.0560000000002 L 229.88199999999998,406.9990000000002 L 230.09399999999997,406.9940000000002 L 230.21299999999997,406.9590000000002 L 230.33799999999997,406.9680000000002 L 230.30999999999997,407.2100000000002 L 230.176,407.38200000000023 L 230.09099999999998,407.4360000000002 L 229.939,407.4650000000002 L 229.769,407.5630000000002 L 229.68200000000002,407.6530000000002 L 229.69000000000003,407.9320000000002 L 229.78400000000002,407.9540000000002 L 229.984,407.74600000000015 L 230.10000000000002,407.75600000000014 L 230.12300000000002,407.84400000000016 L 229.86400000000003,408.5570000000002 L 229.69700000000003,409.2880000000002 L 229.47100000000003,409.7110000000002 L 229.39100000000002,410.3260000000002 L 229.27200000000002,410.5880000000002 L 229.13400000000001,410.8470000000002 L 229.05300000000003,410.8330000000002 L 228.83500000000004,410.3420000000002 L 228.61200000000002,410.21600000000024 L 228.56300000000002,410.0970000000002 L 228.69000000000003,409.5010000000002 L 228.63200000000003,409.1710000000002 L 228.51400000000004,409.1840000000002 L 228.36600000000004,409.3650000000002 L 228.16900000000004,409.52200000000016 L 228.17300000000003,409.74900000000014 L 227.94700000000003,410.12600000000015 L 227.89100000000002,410.25000000000017 L 227.67600000000002,410.2210000000002 L 227.42600000000002,410.2370000000002 L 227.25300000000001,410.3280000000002 L 227.07600000000002,410.7850000000002 L 226.63400000000001,411.42800000000017 L 226.45800000000003,411.73900000000015 L 226.31400000000002,411.8460000000002 L 226.20100000000002,411.88800000000015 L 226.07500000000002,411.81500000000017 L 225.77300000000002,411.6390000000002 L 225.54000000000002,411.7230000000002 L 225.45900000000003,411.9250000000002 L 225.46200000000002,412.1800000000002 L 224.872,412.1800000000002 L 223.87,412.1790000000002 L 222.594,412.1780000000002 L 221.364,412.17700000000025 L 220.334,412.1760000000003 L 220.33,412.74900000000025 L 220.32700000000003,413.25600000000026 L 220.32400000000004,413.82600000000025 L 219.75600000000003,413.82100000000025 L 219.15500000000003,413.81600000000026 L 219.20300000000003,413.8730000000003 L 219.40900000000002,413.9800000000003 L 219.67600000000002,414.2350000000003 L 219.991,414.6320000000003 L 220.37300000000002,414.94800000000026 L 220.82200000000003,415.1830000000003 L 221.11700000000002,415.4130000000003 L 221.26000000000002,415.6380000000003 L 221.33200000000002,415.8290000000003 L 221.33200000000002,415.9870000000003 L 221.496,416.1120000000003 L 221.78900000000002,416.19500000000033 L 221.941,416.33600000000035 L 221.941,416.45100000000036 L 221.848,416.7120000000004 L 221.82100000000003,417.0000000000004 L 221.85700000000003,417.2600000000004 L 221.64700000000002,417.2640000000004 L 221.13800000000003,417.2640000000004 L 220.36300000000003,417.2650000000004 L 219.65000000000003,417.2650000000004 L 219.08800000000002,417.2650000000004 L 218.23900000000003,417.26600000000036 L 218.00600000000003,417.66600000000034 L 217.61900000000003,418.3300000000003 L 217.26800000000003,418.9310000000003 L 216.97400000000002,419.4360000000003 L 216.92600000000002,419.5690000000003 L 216.92600000000002,419.6770000000003 L 217.29000000000002,420.1490000000003 L 217.223,420.2860000000003 L 217.096,420.3580000000003 L 217.055,420.4690000000003 L 217.06300000000002,420.6490000000003 L 216.977,420.88800000000026 L 217.005,421.0530000000003 L 217.051,421.25600000000026 L 216.975,421.43200000000024 L 216.91299999999998,421.60200000000026 L 216.83999999999997,421.6760000000003 L 216.75699999999998,421.61200000000025 L 216.009,420.82800000000026 L 215.22899999999998,419.96500000000026 L 214.922,419.6830000000003 L 214.625,419.4690000000003 L 214.225,419.07100000000025 L 213.17499999999998,418.19600000000025 L 212.63299999999998,417.7960000000003 L 212.123,417.3170000000003 L 211.665,417.0510000000003 L 211.214,416.87800000000027 L 211.013,416.77800000000025 L 210.83700000000002,416.6470000000003 L 210.739,416.6390000000003 L 210.69,416.8170000000003 L 210.84799999999998,416.9060000000003 L 211.03699999999998,416.9820000000003 L 211.18599999999998,416.9870000000003 L 211.343,417.0500000000003 L 211.80599999999998,417.2930000000003 L 211.88199999999998,417.4180000000003 L 210.56499999999997,416.9320000000003 L 210.02899999999997,416.8870000000003 L 209.97099999999998,416.81100000000026 L 210.23799999999997,416.55700000000024 L 210.15499999999997,416.46500000000026 L 210.05999999999997,416.4520000000003 L 209.77299999999997,416.62800000000027 L 209.66699999999997,416.64000000000027 L 209.64799999999997,416.5240000000003 L 209.66099999999997,416.4150000000003 L 209.47599999999997,416.2550000000003 L 209.35899999999998,416.26100000000025 L 209.26299999999998,416.3730000000003 L 209.01299999999998,416.5840000000003 L 209.021,416.6670000000003 L 209.511,416.7570000000003 L 209.68,416.8080000000003 L 209.64100000000002,416.86400000000026 L 209.22100000000003,416.8630000000003 L 208.70100000000002,416.9590000000003 L 207.77500000000003,417.5460000000003 L 206.91300000000004,417.7980000000003 L 205.67300000000003,418.3620000000003 L 205.12600000000003,418.3910000000003 L 204.83900000000003,418.4810000000003 L 204.00500000000002,418.26500000000027 L 202.94800000000004,417.7350000000003 L 201.34800000000004,417.5680000000003 L 200.27000000000004,416.87300000000033 L 199.20000000000005,416.58700000000033 L 198.52100000000004,415.9190000000003 L 198.11200000000005,415.8900000000003 L 197.84900000000005,415.7830000000003 L 196.87700000000004,415.5410000000003 L 195.91600000000003,415.38100000000026 L 194.979,414.7960000000003 L 194.366,414.6100000000003 L 193.836,414.3770000000003 L 192.669,413.97900000000027 L 192.23600000000002,413.75800000000027 L 191.82700000000003,413.4160000000003 L 191.16000000000003,413.0620000000003 L 190.87500000000003,412.7660000000003 L 190.55700000000002,412.6600000000003 L 190.102,412.1020000000003 L 189.865,411.8670000000003 L 189.66400000000002,411.7570000000003 L 189.449,411.7190000000003 L 188.828,411.7640000000003 L 187.901,411.5170000000003 L 187.473,411.4540000000003 L 186.578,411.0900000000003 L 185.39000000000001,410.68300000000033 L 185.001,410.2150000000003 L 184.668,409.7780000000003 L 184.068,409.2020000000003 L 183.69400000000002,408.9560000000003 L 183.04500000000002,408.6640000000003 L 182.685,408.4270000000003 L 182.13,408.2450000000003 L 181.188,407.7830000000003 L 180.88899999999998,407.3870000000003 L 180.71399999999997,407.0350000000003 L 180.21299999999997,406.6070000000003 L 179.66399999999996,405.80800000000033 L 179.52199999999996,405.5130000000003 L 179.41599999999997,405.06000000000034 L 179.28899999999996,404.79700000000037 L 179.13899999999995,404.59100000000035 L 179.21599999999995,404.4410000000004 L 179.49499999999995,404.25600000000037 L 179.95899999999995,404.2140000000004 L 180.28699999999995,404.0140000000004 L 180.32999999999996,403.8490000000004 L 180.30899999999997,403.7470000000004 L 180.09899999999996,403.4950000000004 L 179.83799999999997,403.4280000000004 L 179.63499999999996,403.4240000000004 L 179.58299999999997,403.3280000000004 L 179.73599999999996,403.22300000000035 L 179.91099999999997,402.9770000000004 L 180.16899999999998,402.67700000000036 L 180.35099999999997,402.4000000000004 L 180.38499999999996,402.00900000000036 L 180.36199999999997,401.61800000000034 L 180.43099999999995,401.2870000000003 L 179.80599999999995,400.9050000000003 L 179.73299999999995,400.7420000000003 L 179.53599999999994,400.3030000000003 L 179.19499999999994,399.7930000000003 L 179.20499999999993,398.7720000000003 L 178.79399999999993,397.86400000000026 L 178.36899999999991,397.41200000000026 L 178.14899999999992,397.25400000000025 L 177.5519999999999,396.5510000000003 L 177.0809999999999,396.1420000000003 L 176.6199999999999,395.37100000000027 L 176.1639999999999,394.8800000000003 L 175.5839999999999,394.0550000000003 L 175.16499999999988,393.6430000000003 L 173.2559999999999,392.24800000000033 L 173.3629999999999,392.24800000000033 L 173.9229999999999,392.59100000000035 L 174.01699999999988,392.56300000000033 L 174.0299999999999,392.39600000000036 L 173.9659999999999,392.19600000000037 L 173.86199999999988,392.14800000000037 L 173.71299999999988,392.1930000000004 L 173.5119999999999,392.1510000000004 L 173.4109999999999,392.08500000000043 L 173.1099999999999,392.04300000000046 L 172.7329999999999,391.81000000000046 L 172.57099999999988,391.56800000000044 L 172.55299999999988,391.2920000000004 L 172.0119999999999,390.70300000000043 L 171.80699999999987,390.3740000000004 L 171.91199999999986,390.3980000000004 L 172.05599999999987,390.5300000000004 L 172.20199999999986,390.56800000000044 L 172.37199999999984,390.5690000000004 L 172.49499999999983,390.5160000000004 L 172.45099999999982,390.4180000000004 L 172.3349999999998,390.3360000000004 L 171.5469999999998,390.02500000000043 L 171.2869999999998,389.8070000000004 L 170.64099999999982,389.44300000000044 L 170.48799999999983,389.31500000000045 L 170.38599999999983,388.9630000000005 L 170.22799999999984,388.9460000000005 L 170.08899999999983,389.0440000000005 L 169.70799999999983,389.1400000000005 L 169.61099999999982,389.0280000000005 L 169.5969999999998,388.92000000000047 L 169.86599999999981,388.8060000000005 L 170.11299999999983,388.47300000000047 L 170.10799999999983,388.3570000000005 L 169.97199999999984,388.4910000000005 L 169.76599999999985,388.6400000000005 L 169.55399999999986,388.7230000000005 L 169.23899999999986,388.79200000000054 L 169.07699999999986,388.74200000000053 L 168.93599999999986,388.66700000000054 L 168.70899999999986,388.37600000000054 L 168.59499999999986,387.42800000000057 L 168.79499999999985,387.09900000000056 L 169.02899999999985,386.77300000000054 L 169.22799999999987,386.58000000000055 L 169.34299999999988,386.72600000000057 L 169.46099999999987,386.74400000000054 L 169.37799999999987,386.5790000000005 L 169.18199999999987,386.4250000000005 L 169.1129999999999,386.2710000000005 L 169.10599999999988,386.1300000000005 L 169.0129999999999,385.8680000000005 L 168.43299999999988,385.3170000000005 L 167.89099999999988,385.3590000000005 L 167.66999999999987,385.3400000000005 L 167.46299999999988,385.1300000000005 L 167.2869999999999,384.7760000000005 L 167.20099999999988,384.4790000000005 L 167.18999999999988,384.3210000000005 L 167.1379999999999,384.1620000000005 L 166.2029999999999,383.9020000000005 L 165.92199999999988,383.6790000000005 L 165.63999999999987,383.3980000000005 L 165.52299999999988,383.1690000000005 L 165.413,383.0 L 165.323,382.704 L 165.25900000000001,382.359 L 165.36300000000003,381.912 L 165.49900000000002,381.69599999999997 L 164.85600000000002,381.53499999999997 L 164.60500000000002,381.52799999999996 L 164.40200000000002,381.61899999999997 L 164.21900000000002,381.50199999999995 L 163.83900000000003,381.37199999999996 L 163.38700000000003,380.90299999999996 L 162.85600000000002,380.051 L 162.27200000000002,379.777 L 162.08400000000003,379.47999999999996 L 161.84500000000003,379.212 L 161.63600000000002,378.88 L 161.604,378.735 L 161.54100000000003,378.654 L 161.24900000000002,378.42199999999997 L 160.92100000000002,378.029 L 160.836,377.713 L 160.74800000000002,377.22900000000004 L 160.52900000000002,377.05800000000005 L 160.31400000000002,376.97900000000004 L 160.27200000000002,376.74800000000005 L 160.28500000000003,376.619 L 160.21200000000002,376.374 L 159.76800000000003,375.786 L 159.54300000000003,375.302 L 159.41900000000004,375.151 L 159.30300000000003,374.93 L 159.24400000000003,374.47700000000003 L 159.06000000000003,373.913 L 158.70400000000004,373.23400000000004 L 158.40700000000004,372.776 L 158.25900000000004,372.314 L 158.32500000000005,371.843 L 158.27500000000003,371.552 L 158.23700000000002,371.48400000000004 L 158.26700000000002,371.389 L 158.366,371.442 L 158.449,371.357 L 158.43900000000002,371.05600000000004 L 158.335,370.96500000000003 L 158.047,370.87100000000004 L 157.92,370.80600000000004 L 157.22,370.68300000000005 L 156.819,370.51200000000006 L 156.79299999999998,370.11400000000003 L 156.605,369.93100000000004 L 156.438,369.81800000000004 L 155.91,369.583 L 155.827,369.70300000000003 L 155.756,369.925 L 155.536,369.973 L 155.344,369.983 L 155.022,369.829 L 154.22299999999998,369.242 L 154.05399999999997,369.148 L 153.80499999999998,369.098 L 153.68,369.0 L 153.14000000000001,368.69 L 153.24800000000002,368.855 L 153.40400000000002,369.026 L 153.54300000000003,369.523 L 153.38000000000002,369.88100000000003 L 153.28500000000003,371.129 L 153.38900000000004,371.377 L 153.62300000000005,371.774 L 153.78500000000005,372.403 L 153.83500000000006,372.87100000000004 L 153.98100000000005,373.242 L 153.93500000000006,374.112 L 153.99100000000007,374.37600000000003 L 154.21400000000008,374.809 L 154.6270000000001,375.21500000000003 L 154.7130000000001,375.42800000000005 L 155.2550000000001,375.7370000000001 L 155.58500000000012,376.1380000000001 L 156.23900000000012,376.6840000000001 L 156.4450000000001,376.9140000000001 L 157.0350000000001,377.7630000000001 L 157.05400000000012,378.0150000000001 L 157.16300000000012,378.3240000000001 L 157.4940000000001,378.2600000000001 L 157.6420000000001,378.4950000000001 L 157.6250000000001,378.6030000000001 L 157.6650000000001,378.68600000000015 L 157.8380000000001,378.6680000000002 L 157.9870000000001,378.7320000000002 L 158.3010000000001,379.6450000000002 L 158.4690000000001,379.7700000000002 L 158.68500000000012,379.8230000000002 L 158.92600000000013,379.9240000000002 L 158.94200000000012,380.1570000000002 L 158.93300000000013,380.3430000000002 L 159.13700000000014,380.6120000000002 L 159.10200000000015,380.97600000000017 L 159.26700000000014,381.28400000000016 L 159.24200000000013,381.58200000000016 L 159.31000000000014,381.8170000000002 L 159.81900000000013,382.34900000000016 L 160.44600000000014,382.7710000000002 L 160.57700000000014,383.3240000000002 L 160.83300000000014,383.8290000000002 L 161.09500000000014,383.9560000000002 L 161.35900000000015,384.1650000000002 L 161.32600000000016,384.3830000000002 L 161.34500000000017,384.5160000000002 L 161.69900000000018,384.9130000000002 L 161.75600000000017,385.4180000000002 L 162.06100000000018,385.7490000000002 L 162.1470000000002,385.7750000000002 L 162.2140000000002,385.7230000000002 L 161.9920000000002,385.3910000000002 L 161.8850000000002,385.1750000000002 L 161.87100000000018,384.8350000000002 L 161.94600000000017,384.7900000000002 L 162.57900000000018,385.3280000000002 L 162.64600000000019,385.7290000000002 L 162.85800000000017,385.9560000000002 L 162.87400000000017,386.26200000000017 L 163.00300000000016,386.4440000000002 L 163.04200000000014,386.7080000000002 L 163.24600000000015,387.1430000000002 L 163.25100000000015,387.7460000000002 L 163.35900000000015,388.18500000000023 L 163.75800000000015,388.85800000000023 L 164.08100000000016,388.99900000000025 L 164.13900000000015,389.32900000000024 L 164.47500000000016,390.1810000000002 L 164.86300000000017,390.6420000000002 L 165.05600000000018,391.03300000000024 L 165.0820000000002,391.27600000000024 L 164.93700000000018,391.63600000000025 L 164.9210000000002,391.88600000000025 L 165.1320000000002,392.64800000000025 L 165.4470000000002,393.03800000000024 L 165.8000000000002,393.13200000000023 L 165.86100000000022,393.1880000000002 L 165.83300000000023,393.2920000000002 L 165.95100000000022,393.3850000000002 L 166.08400000000023,393.2660000000002 L 166.14900000000023,393.0970000000002 L 166.08200000000022,392.9000000000002 L 166.07000000000022,392.75700000000023 L 166.13000000000022,392.6540000000002 L 166.24500000000023,392.63900000000024 L 166.91900000000024,393.1590000000002 L 167.03200000000024,393.3590000000002 L 167.28200000000024,393.5920000000002 L 167.51200000000023,393.8790000000002 L 167.61100000000022,394.1050000000002 L 167.79500000000021,394.2920000000002 L 167.8900000000002,394.7260000000002 L 168.3590000000002,394.92000000000024 L 168.6080000000002,395.27800000000025 L 168.6250000000002,395.5050000000002 L 168.5040000000002,396.0850000000002 L 168.3990000000002,396.2520000000002 L 168.0210000000002,396.4990000000002 L 167.7460000000002,396.7920000000002 L 167.48000000000022,396.9730000000002 L 167.1980000000002,397.0830000000002 L 166.9660000000002,397.0580000000002 L 166.74200000000022,396.72100000000023 L 166.47600000000023,395.7000000000002 L 166.29800000000023,395.48500000000024 L 166.17300000000023,395.1640000000002 L 165.96500000000023,394.8980000000002 L 165.21500000000023,394.4950000000002 L 164.83700000000024,394.0690000000002 L 164.47000000000025,393.78400000000016 L 164.07500000000024,393.37100000000015 L 162.99900000000025,392.68600000000015 L 162.55300000000025,392.33700000000016 L 162.25900000000024,391.99100000000016 L 162.07000000000025,391.99600000000015 L 161.92400000000026,392.03200000000015 L 161.86800000000025,391.9370000000001 L 161.86000000000024,391.7570000000001 L 161.79500000000024,391.6400000000001 L 161.16600000000025,391.1180000000001 L 161.03600000000026,390.8290000000001 L 161.00900000000027,390.4930000000001 L 161.15100000000027,389.6270000000001 L 161.21400000000025,389.11900000000014 L 161.17400000000026,388.85700000000014 L 161.10800000000026,388.82100000000014 L 161.04800000000026,388.67900000000014 L 161.03400000000025,388.26000000000016 L 160.88200000000026,387.80400000000014 L 160.31100000000026,386.86700000000013 L 159.89400000000026,386.68200000000013 L 159.52300000000025,386.54700000000014 L 158.50600000000026,385.7160000000001 L 158.23000000000025,385.3000000000001 L 158.16300000000024,385.0630000000001 L 158.12800000000024,384.5810000000001 L 157.98800000000026,384.86000000000007 L 157.80100000000024,385.06700000000006 L 157.37000000000023,385.0520000000001 L 156.88600000000022,385.2850000000001 L 156.5980000000002,385.0660000000001 L 156.4420000000002,384.81700000000006 L 156.2050000000002,384.5180000000001 L 155.93900000000022,384.45900000000006 L 155.76900000000023,384.4510000000001 L 155.45000000000024,384.0800000000001 L 155.19200000000023,383.9620000000001 L 154.82300000000023,383.9160000000001 L 154.50900000000024,383.7280000000001 L 154.41200000000023,383.5220000000001 L 154.36000000000024,383.2310000000001 L 154.24300000000025,383.0590000000001 L 153.75000000000026,382.7180000000001 L 153.34900000000025,382.34100000000007 L 152.97100000000026,382.09900000000005 L 152.86000000000027,381.90100000000007 L 152.85100000000028,381.76500000000004 L 153.4490000000003,381.80300000000005 L 154.1600000000003,381.94800000000004 L 154.50100000000032,381.90700000000004 L 154.7130000000003,381.76700000000005 L 154.9160000000003,381.66600000000005 L 154.94800000000032,381.77500000000003 L 154.9110000000003,381.973 L 155.1060000000003,382.15500000000003 L 155.3740000000003,382.302 L 155.5640000000003,382.288 L 155.3790000000003,382.127 L 155.2660000000003,381.79900000000004 L 155.3170000000003,381.68100000000004 L 155.3140000000003,381.51700000000005 L 155.04900000000032,381.55400000000003 L 155.0120000000003,381.471 L 155.23900000000032,381.221 L 155.4990000000003,380.563 L 155.6230000000003,379.913 L 155.3510000000003,379.343 L 154.8920000000003,378.947 L 153.8960000000003,377.784 L 153.3010000000003,377.185 L 153.1290000000003,376.962 L 152.97100000000032,376.85699999999997 L 152.4860000000003,376.71999999999997 L 152.0790000000003,376.38399999999996 L 151.3660000000003,375.90799999999996 L 151.0610000000003,375.662 L 150.85100000000028,375.085 L 150.68400000000028,375.006 L 150.73700000000028,374.606 L 150.66400000000027,373.897 L 150.54400000000027,373.715 L 150.15800000000027,373.53799999999995 L 150.06600000000026,373.05499999999995 L 150.04700000000025,372.59499999999997 L 149.97200000000026,372.27399999999994 L 149.31500000000025,371.73299999999995 L 149.27800000000025,371.47099999999995 L 149.27800000000025,371.2219999999999 L 149.21100000000024,370.9749999999999 L 148.86000000000024,370.4579999999999 L 148.43600000000023,370.0059999999999 L 148.28800000000024,369.7899999999999 L 148.27000000000024,369.3519999999999 L 148.12000000000023,369.2339999999999 L 148.17700000000022,369.20399999999995 L 148.31600000000023,369.215 L 148.39500000000024,369.157 L 148.40400000000022,368.851 L 147.76600000000022,368.37 L 147.58200000000022,367.707 L 147.24200000000022,367.355 L 147.1620000000002,367.228 L 146.9790000000002,366.6 L 147.7820000000002,366.529 L 148.5850000000002,366.45799999999997 L 149.3880000000002,366.38699999999994 L 150.1910000000002,366.3159999999999 L 150.9940000000002,366.2449999999999 L 151.7970000000002,366.17399999999986 L 152.6000000000002,366.10299999999984 L 153.4030000000002,366.0319999999998 L 153.7240000000002,365.9959999999998 L 153.5460000000002,366.4959999999998 L 153.4120000000002,366.6829999999998 L 154.7430000000002,367.17299999999983 L 156.07400000000018,367.6619999999998 L 157.40500000000017,368.1499999999998 L 158.73600000000016,368.63699999999983 L 160.06700000000015,369.12399999999985 L 161.39800000000014,369.60999999999984 L 162.72900000000013,370.09499999999986 L 164.06000000000012,370.57899999999984 L 165.0520000000001,370.5769999999998 L 166.0440000000001,370.5749999999998 L 167.0360000000001,370.5729999999998 L 168.02800000000008,370.5709999999998 L 169.02000000000007,370.5689999999998 L 170.01200000000006,370.5669999999998 L 171.00400000000005,370.56499999999977 L 171.99600000000004,370.56299999999976 L 171.99800000000005,370.19499999999977 L 171.99900000000005,369.82699999999977 L 172.00100000000006,369.45799999999974 L 172.00300000000007,369.0889999999997 L 172.62000000000006,369.09299999999973 L 173.23700000000005,369.09699999999975 L 173.85400000000004,369.09999999999974 L 174.47100000000003,369.10399999999976 L 175.08800000000002,369.10699999999974 L 175.705,369.11099999999976 L 176.322,369.1149999999998 L 176.939,369.1189999999998 L 176.96099999999998,369.1249999999998 L 176.987,369.13799999999975 L 177.237,369.41899999999976 L 177.493,369.85899999999975 L 177.795,370.16599999999977 L 178.143,370.33999999999975 L 178.736,370.85199999999975 L 179.57399999999998,371.70099999999974 L 180.242,372.26499999999976 L 180.74099999999999,372.54699999999974 L 181.075,372.78899999999976 L 181.24599999999998,372.99199999999973 L 181.47599999999997,373.43199999999973 L 181.90999999999997,374.4449999999997 L 181.90999999999997,374.9089999999997 L 182.07599999999996,375.34799999999973 L 182.40799999999996,375.9159999999997 L 182.69799999999995,376.2499999999997 L 182.94599999999994,376.3509999999997 L 183.21699999999993,376.55199999999974 L 183.51099999999994,376.8529999999997 L 183.84999999999994,377.0549999999997 L 184.23399999999992,377.15799999999973 L 184.76399999999992,377.4279999999997 L 185.4399999999999,377.8639999999997 L 185.9039999999999,378.0859999999997 L 186.15499999999992,378.09599999999966 L 186.37499999999991,377.9559999999997 L 186.5629999999999,377.6669999999997 L 186.7479999999999,377.4809999999997 L 186.9299999999999,377.3979999999997 L 187.0039999999999,377.2649999999997 L 186.9699999999999,377.0809999999997 L 187.0929999999999,376.6689999999997 L 187.3729999999999,376.0269999999997 L 187.7069999999999,375.6789999999997 L 188.09599999999992,375.6249999999997 L 188.3499999999999,375.50399999999973 L 188.4699999999999,375.31599999999975 L 188.6779999999999,375.29599999999976 L 188.9749999999999,375.44299999999976 L 189.4579999999999,375.5379999999998 L 190.12699999999992,375.57999999999976 L 190.52199999999993,375.56599999999975 L 190.64299999999994,375.49399999999974 L 190.70599999999993,375.49799999999976 L 190.71099999999993,375.57699999999977 L 190.80999999999992,375.61099999999976 L 191.00299999999993,375.59899999999976 L 191.17099999999994,375.7089999999998 L 191.38699999999994,376.05799999999977 L 192.12899999999993,376.61599999999976 L 192.12999999999994,376.61599999999976 L 192.19299999999993,376.80699999999973 L 192.45099999999994,377.0819999999997 L 192.92699999999994,377.5049999999997 L 193.19599999999994,377.8689999999997 L 193.25899999999993,378.17499999999967 L 193.50199999999992,378.6579999999997 L 193.92499999999993,379.31699999999967 L 194.11299999999991,379.6719999999997 L 194.06699999999992,379.7229999999997 L 194.0999999999999,379.9079999999997 L 194.2129999999999,380.2269999999997 L 194.4219999999999,380.4969999999997 L 194.7289999999999,380.7179999999997 L 195.0389999999999,381.1139999999997 L 195.3519999999999,381.6849999999997 L 195.73199999999989,382.11899999999974 L 196.17799999999988,382.41499999999974 L 196.4299999999999,382.69099999999975 L 196.4889999999999,382.94599999999974 L 196.4849999999999,383.16399999999976 L 196.4169999999999,383.34499999999974 L 196.44599999999988,383.51699999999977 L 196.57099999999988,383.6799999999998 L 196.6129999999999,383.87999999999977 L 196.56399999999988,384.15699999999975 L 196.56699999999987,384.23499999999973 L 196.56699999999987,384.23499999999973 L 196.60299999999987,384.2979999999997 L 196.99899999999985,384.7739999999997 L 197.20299999999986,385.15799999999973 L 197.36499999999987,385.76999999999975 L 197.36599999999987,385.77499999999975 L 197.54599999999988,386.14099999999974 L 197.80599999999987,386.28999999999974 L 198.20499999999987,386.3459999999997 L 198.50799999999987,386.47299999999973 L 198.71499999999986,386.67199999999974 L 198.97699999999986,386.79199999999975 L 199.29199999999986,386.83299999999974 L 199.59399999999985,386.96499999999975 L 199.88399999999984,387.18599999999975 L 200.42399999999984,387.33099999999973 L 201.21399999999983,387.4009999999997 L 201.81499999999983,387.58099999999973 L 202.22799999999984,387.87099999999975 L 202.40899999999985,387.9299999999998 L 202.45799999999986,387.9339999999998 L 202.48099999999985,387.8899999999998 L 202.51199999999986,387.8079999999998 L 202.67199999999985,387.7139999999998 L 203.06,387.652 M 153.812,369.332 L 153.71900000000002,369.346 L 153.54500000000002,369.195 L 153.55800000000002,369.056 L 153.59600000000003,369.042 L 153.77000000000004,369.164 L 153.82900000000004,369.271 L 153.812,369.332 M 158.13,377.922 L 158.10999999999999,377.978 L 157.82299999999998,377.78000000000003 L 157.17299999999997,377.10600000000005 L 156.93699999999998,376.76800000000003 L 156.898,376.60900000000004 L 156.918,376.25500000000005 L 157.14100000000002,376.297 L 157.39900000000003,376.53400000000005 L 157.51100000000002,376.7540000000001 L 157.51600000000002,377.00500000000005 L 157.99800000000002,377.1240000000001 L 158.06600000000003,377.6670000000001 L 158.13,377.922 M 160.803,378.072 L 160.59199999999998,378.824 L 160.37599999999998,378.812 L 159.92999999999998,378.575 L 159.88299999999998,378.42699999999996 L 160.05399999999997,377.55299999999994 L 160.18399999999997,377.43799999999993 L 160.57299999999998,377.31999999999994 L 160.634,377.42799999999994 L 160.67499999999998,377.6859999999999 L 160.803,378.072 M 143.853,378.274 L 143.733,378.396 L 143.411,377.73 L 143.40800000000002,377.569 L 143.502,377.48900000000003 L 143.65800000000002,377.504 L 143.65800000000002,377.671 L 143.78900000000002,377.812 L 143.84,377.95 L 143.853,378.274 M 152.475,381.046 L 152.43699999999998,381.14799999999997 L 151.963,380.93699999999995 L 152.22299999999998,380.5679999999999 L 152.18499999999997,380.17999999999995 L 152.29799999999997,380.09899999999993 L 152.40099999999998,380.2269999999999 L 152.53699999999998,380.72099999999995 L 152.475,381.046 M 163.898,387.468 L 163.933,387.58000000000004 L 163.914,387.612 L 163.79899999999998,387.53400000000005 L 163.605,387.99800000000005 L 163.548,388.04 L 163.665,387.40500000000003 L 163.78799999999998,387.314 L 163.92399999999998,387.29600000000005 L 163.898,387.468 M 161.212,392.021 L 161.155,392.055 L 160.915,391.7 L 160.879,391.45599999999996 L 160.78099999999998,391.35299999999995 L 160.539,391.27099999999996 L 160.748,390.77399999999994 L 160.92499999999998,389.74299999999994 L 161.003,389.93199999999996 L 160.81599999999997,390.97599999999994 L 160.82499999999996,391.11199999999997 L 160.91199999999995,391.239 L 161.00599999999994,391.45399999999995 L 161.01699999999994,391.686 L 161.18199999999993,391.902 L 161.212,392.021 M 165.394,390.614 L 165.47400000000002,390.95799999999997 L 165.33,390.907 L 165.14200000000002,390.71999999999997 L 165.01300000000003,390.481 L 165.02500000000003,390.37399999999997 L 165.05000000000004,390.354 L 165.31700000000004,390.495 L 165.394,390.614 M 162.218,392.488 L 162.17999999999998,392.633 L 161.33499999999998,392.06 L 161.53799999999998,392.00600000000003 L 161.77399999999997,392.04600000000005 L 162.218,392.488 M 167.533,393.23 L 167.47199999999998,393.24 L 167.32799999999997,393.07800000000003 L 167.265,392.67900000000003 L 167.29399999999998,392.63700000000006 L 167.56499999999997,393.1310000000001 L 167.55999999999997,393.19200000000006 L 167.533,393.23 M 176.802,400.925 L 176.72,401.172 L 176.508,401.07300000000004 L 176.43200000000002,400.91800000000006 L 176.41700000000003,400.66400000000004 L 176.53500000000003,400.62100000000004 L 176.70600000000002,400.72900000000004 L 176.741,400.80100000000004 L 176.802,400.925 M 232.338,402.039 L 232.388,402.18399999999997 L 232.339,402.167 L 232.275,402.058 L 232.229,401.92199999999997 L 232.268,401.919 L 232.302,401.966 L 232.338,402.039 M 231.705,404.832 L 231.55900000000003,404.925 L 231.48000000000002,404.59700000000004 L 231.59600000000003,404.27700000000004 L 231.73700000000002,404.093 L 232.01500000000001,404.072 L 232.199,404.011 L 232.222,404.09200000000004 L 232.071,404.34000000000003 L 231.705,404.832 M 164.419,409.455 L 164.25,409.517 L 164.001,409.336 L 164.067,409.19300000000004 L 164.209,409.09600000000006 L 164.342,409.27700000000004 L 164.419,409.455 M 218.391,409.644 L 218.075,409.712 L 218.01899999999998,409.64799999999997 L 218.65599999999998,409.347 L 218.765,409.35999999999996 L 218.803,409.40099999999995 L 218.47299999999998,409.5439999999999 L 218.391,409.644" id="MX" title="Mexico"/>
</svg>
