<svg xmlns="http://www.w3.org/2000/svg" xmlns:ev="http://www.w3.org/2001/xml-events" xmlns:xlink="http://www.w3.org/1999/xlink" baseProfile="full" height="18.1510009765625" version="1.1" viewBox="755.3560180664062 442.1189880371094 55.05999755859375 18.1510009765625" width="55.05999755859375" fill="#00394f">
	<defs/>
	<path class="land" d="M 804.456,442.635 L 804.285,442.783 L 804.227,442.60400000000004 L 804.2389999999999,442.374 L 804.4699999999999,442.16 L 804.7989999999999,442.119 L 804.8459999999999,442.29 L 804.8069999999999,442.48600000000005 L 804.7299999999999,442.58700000000005 L 804.456,442.635 M 805.671,451.034 L 805.567,451.032 L 805.325,450.972 L 804.839,450.67499999999995 L 804.3420000000001,450.56999999999994 L 803.6200000000001,450.5609999999999 L 803.2120000000001,450.51899999999995 L 803.046,450.56299999999993 L 802.9060000000001,450.56499999999994 L 802.8050000000001,450.50499999999994 L 802.6980000000001,450.47499999999997 L 802.416,450.65 L 802.2850000000001,450.597 L 802.152,450.52299999999997 L 801.916,450.49899999999997 L 801.6300000000001,450.52 L 801.3140000000001,450.7 L 800.9620000000001,450.538 L 800.8620000000001,450.54 L 800.7950000000001,450.582 L 800.643,450.804 L 800.352,450.97299999999996 L 800.208,451.28399999999993 L 800.1189999999999,451.58199999999994 L 800.0419999999999,451.68499999999995 L 800.021,452.25999999999993 L 799.9749999999999,452.53799999999995 L 800.0479999999999,452.905 L 800.0349999999999,453.063 L 799.9059999999998,453.298 L 799.8889999999998,453.352 L 799.8209999999998,453.72499999999997 L 799.8469999999998,453.825 L 799.8299999999997,453.95 L 799.7209999999997,454.212 L 799.5239999999997,454.284 L 799.3169999999997,454.325 L 799.1389999999997,454.236 L 798.9789999999997,454.38 L 798.7759999999997,454.602 L 798.6879999999998,454.75199999999995 L 798.6889999999997,454.89099999999996 L 798.7099999999997,454.984 L 798.6679999999997,455.08 L 798.6629999999997,455.18199999999996 L 798.6729999999997,455.32899999999995 L 798.8109999999997,455.38999999999993 L 798.9549999999997,455.51699999999994 L 798.9499999999997,455.63899999999995 L 798.8709999999998,455.72299999999996 L 798.6899999999997,455.85299999999995 L 798.3599999999997,456.11899999999997 L 797.9879999999997,456.34599999999995 L 797.8469999999998,456.39899999999994 L 797.7959999999997,456.50399999999996 L 797.7699999999998,456.645 L 797.8519999999997,456.954 L 797.9299999999997,457.045 L 797.9709999999998,457.153 L 797.9209999999998,457.28200000000004 L 797.8849999999999,457.39300000000003 L 797.7479999999999,457.463 L 797.6139999999999,457.514 L 797.5649999999999,457.60200000000003 L 797.4949999999999,457.97200000000004 L 797.4139999999999,458.165 L 797.2319999999999,458.452 L 797.1709999999998,458.58299999999997 L 797.0769999999998,458.62499999999994 L 796.7249999999998,458.49099999999993 L 796.4099999999997,458.57199999999995 L 795.9919999999997,458.62399999999997 L 795.6379999999997,458.616 L 795.3649999999997,458.675 L 795.1769999999997,458.826 L 794.9669999999996,459.017 L 794.7459999999996,459.159 L 794.5789999999996,459.228 L 794.2729999999996,459.026 L 794.1179999999996,459.044 L 793.8399999999996,458.974 L 793.1869999999996,458.748 L 793.0259999999996,458.682 L 792.8519999999996,458.67600000000004 L 792.7999999999996,458.61100000000005 L 792.8269999999997,458.50200000000007 L 792.7999999999996,458.35800000000006 L 792.6729999999997,458.3040000000001 L 791.3619999999996,458.3260000000001 L 790.9839999999996,458.4500000000001 L 790.7289999999996,458.5480000000001 L 790.5469999999996,458.6610000000001 L 790.4949999999995,458.9420000000001 L 790.3859999999995,459.20600000000013 L 790.2449999999995,459.4860000000001 L 789.8089999999995,459.5700000000001 L 789.4889999999995,459.8530000000001 L 789.3789999999995,459.8870000000001 L 789.1589999999994,459.8460000000001 L 788.9229999999994,459.8230000000001 L 788.7529999999995,459.9020000000001 L 788.5739999999995,459.8980000000001 L 788.0229999999995,459.7660000000001 L 787.5019999999995,459.74500000000006 L 787.2069999999995,459.81200000000007 L 787.0439999999995,459.83700000000005 L 786.1369999999995,460.225 L 785.8299999999995,460.27000000000004 L 785.7059999999994,460.21400000000006 L 785.5309999999995,460.05500000000006 L 785.2959999999995,459.8960000000001 L 784.7329999999995,459.3550000000001 L 784.5249999999995,459.22800000000007 L 784.3869999999995,459.09800000000007 L 784.2559999999995,458.9430000000001 L 784.0689999999995,458.7760000000001 L 783.8989999999995,458.6610000000001 L 783.6689999999995,458.42700000000013 L 783.4399999999995,458.17100000000016 L 783.3879999999995,457.72000000000014 L 783.2059999999994,457.6370000000001 L 783.1439999999994,457.5190000000001 L 783.1159999999994,457.38600000000014 L 783.3689999999995,457.02000000000015 L 783.5529999999994,457.40700000000015 L 783.6229999999995,457.49300000000017 L 784.0309999999995,457.7540000000002 L 784.3669999999995,457.8840000000002 L 784.7299999999996,457.9370000000002 L 785.0999999999996,457.9480000000002 L 785.2459999999995,457.93000000000023 L 785.3899999999995,457.8780000000002 L 785.5309999999995,457.9340000000002 L 786.3039999999995,458.3570000000002 L 786.6039999999995,458.4330000000002 L 786.9209999999995,458.40100000000024 L 787.0469999999995,458.4430000000002 L 787.4919999999995,458.7680000000002 L 787.6229999999995,458.8070000000002 L 787.8419999999995,458.7820000000002 L 787.5629999999995,458.6340000000002 L 787.3789999999996,458.52900000000017 L 787.2959999999996,458.3310000000002 L 787.3469999999996,458.1200000000002 L 787.5249999999996,457.97900000000016 L 787.6489999999997,457.82600000000014 L 787.6929999999996,457.3700000000001 L 787.7719999999996,457.1390000000001 L 787.9199999999996,456.92000000000013 L 787.9689999999996,456.70800000000014 L 787.8019999999996,456.54600000000016 L 787.7649999999995,456.26800000000014 L 787.8009999999995,456.0380000000001 L 787.8959999999995,455.88100000000014 L 788.0459999999995,455.9850000000001 L 788.2019999999994,456.08100000000013 L 788.3549999999994,456.07100000000014 L 788.4609999999994,456.03300000000013 L 788.4799999999994,455.9140000000001 L 788.4519999999994,455.7070000000001 L 788.4599999999995,455.3270000000001 L 788.6539999999994,455.02300000000014 L 788.9649999999995,454.81400000000014 L 789.2579999999995,454.7140000000001 L 790.3559999999994,454.5440000000001 L 792.0919999999994,454.1090000000001 L 792.6059999999994,453.9410000000001 L 792.7949999999994,453.8540000000001 L 792.9539999999994,453.7330000000001 L 793.2229999999994,453.3470000000001 L 793.7279999999994,452.7380000000001 L 794.0819999999994,452.2380000000001 L 794.8279999999994,451.5090000000001 L 795.4229999999994,450.83300000000014 L 795.5029999999995,450.70600000000013 L 795.6019999999995,450.3370000000001 L 795.6099999999996,450.1630000000001 L 795.5919999999995,449.98700000000014 L 795.6709999999995,449.90500000000014 L 795.7869999999995,449.85600000000017 L 795.8149999999995,449.85600000000017 L 795.9029999999995,449.93300000000016 L 796.1099999999994,450.0400000000002 L 796.2639999999994,450.17800000000017 L 796.3679999999995,450.35600000000017 L 796.4419999999994,450.52200000000016 L 796.4479999999994,450.66400000000016 L 796.5419999999995,450.78000000000014 L 796.8049999999995,450.8000000000001 L 796.8899999999995,450.94600000000014 L 797.0729999999995,451.1970000000001 L 797.2409999999995,451.3780000000001 L 797.3439999999995,451.4480000000001 L 797.4719999999995,451.4100000000001 L 797.6709999999995,451.24500000000006 L 797.8149999999995,451.04300000000006 L 797.9119999999995,450.77000000000004 L 797.8359999999994,450.73 L 797.9699999999995,450.524 L 797.9949999999994,450.416 L 797.9329999999994,450.317 L 797.8539999999995,450.218 L 797.8239999999995,449.969 L 797.7689999999996,449.652 L 797.7319999999995,449.508 L 797.8369999999995,449.405 L 798.0629999999995,449.274 L 798.2889999999995,449.122 L 798.5179999999996,449.0 L 798.5239999999995,449.22 L 798.5179999999996,449.583 L 798.5869999999995,449.887 L 798.7429999999995,450.425 L 798.9209999999995,450.498 L 799.1349999999995,450.546 L 799.2589999999996,450.531 L 799.3389999999996,450.495 L 799.3599999999996,450.452 L 799.2269999999995,450.241 L 799.1919999999996,449.74399999999997 L 799.0829999999995,449.41799999999995 L 798.9159999999995,449.09299999999996 L 798.8369999999995,449.001 L 799.4959999999995,448.909 L 799.6429999999996,448.807 L 799.9019999999996,448.584 L 799.9999999999995,448.459 L 800.0769999999995,448.177 L 799.7539999999996,448.01000000000005 L 799.6269999999996,447.79600000000005 L 799.6189999999996,447.56500000000005 L 800.0049999999995,447.13500000000005 L 800.1389999999996,447.03200000000004 L 800.1969999999995,447.18500000000006 L 800.3669999999995,447.22400000000005 L 800.5229999999995,447.23 L 800.6799999999995,447.221 L 800.9059999999995,447.004 L 801.0219999999995,446.692 L 801.4179999999994,446.25100000000003 L 801.5589999999994,445.913 L 801.6389999999994,445.559 L 802.6389999999994,444.459 L 802.7609999999994,444.288 L 803.3549999999994,443.181 L 803.4289999999994,443.144 L 803.5879999999994,443.25100000000003 L 803.6349999999994,443.603 L 803.6139999999995,443.75600000000003 L 803.5169999999995,443.98400000000004 L 803.4619999999995,444.22200000000004 L 803.5299999999995,444.21700000000004 L 803.8129999999995,444.07200000000006 L 804.1079999999995,443.68500000000006 L 804.2749999999995,443.3500000000001 L 804.4169999999996,443.20400000000006 L 804.7019999999995,443.28600000000006 L 804.7649999999995,443.34400000000005 L 804.7449999999995,443.58500000000004 L 804.7719999999996,443.725 L 804.8809999999996,444.024 L 805.1229999999996,444.206 L 805.4569999999995,444.32 L 805.7669999999995,444.486 L 805.8689999999995,444.59499999999997 L 805.9349999999995,444.72599999999994 L 806.0029999999995,444.9409999999999 L 806.0079999999995,445.15899999999993 L 805.7839999999994,445.37199999999996 L 805.8789999999995,445.717 L 805.8639999999995,445.918 L 805.7879999999994,446.09000000000003 L 805.4619999999994,446.247 L 806.3509999999994,446.091 L 806.5699999999995,446.002 L 806.8739999999995,445.77500000000003 L 807.0359999999995,445.97100000000006 L 807.1879999999995,446.31000000000006 L 807.0659999999996,446.39500000000004 L 806.6789999999996,446.52000000000004 L 806.6599999999996,446.571 L 806.7879999999997,446.747 L 806.9489999999996,446.73 L 807.2679999999996,446.612 L 807.5609999999996,446.42600000000004 L 807.7029999999996,446.42800000000005 L 807.8529999999996,446.46600000000007 L 808.1419999999996,446.58600000000007 L 808.3039999999996,446.68300000000005 L 808.4419999999997,446.80800000000005 L 808.5309999999997,447.06700000000006 L 808.8649999999997,447.16100000000006 L 809.5489999999996,447.52400000000006 L 809.6759999999996,447.55500000000006 L 809.8089999999996,447.56200000000007 L 810.1689999999996,447.5180000000001 L 810.2959999999996,447.5690000000001 L 810.3859999999996,447.70000000000005 L 810.4159999999996,447.862 L 810.4059999999996,448.036 L 810.3689999999996,448.168 L 810.2849999999996,448.277 L 810.0399999999996,448.443 L 809.4229999999997,448.65999999999997 L 808.7479999999997,448.825 L 808.4089999999997,448.81399999999996 L 807.9329999999997,448.67299999999994 L 807.7599999999996,448.6909999999999 L 807.5919999999996,448.7559999999999 L 807.3819999999996,449.2049999999999 L 807.7709999999996,449.65199999999993 L 808.4399999999996,450.1169999999999 L 808.5319999999996,450.2329999999999 L 808.5079999999996,450.37599999999986 L 808.4019999999996,450.46099999999984 L 808.2599999999995,450.50799999999987 L 807.8839999999996,450.5819999999999 L 807.5039999999996,450.6369999999999 L 807.1909999999996,450.71699999999987 L 806.8839999999996,450.82099999999986 L 806.5689999999995,450.78499999999985 L 806.1349999999995,450.5769999999998 L 806.0099999999995,450.56199999999984 L 805.8779999999996,450.66899999999987 L 805.7489999999996,450.96099999999984 L 805.671,451.034 M 762.245,445.234 L 762.73,445.34299999999996 L 762.916,445.431 L 763.461,446.299 L 764.179,446.909 L 764.4839999999999,447.137 L 764.7189999999999,447.245 L 765.04,447.571 L 765.3199999999999,447.98100000000005 L 765.934,449.13400000000007 L 766.04,449.64000000000004 L 766.082,450.41200000000003 L 765.947,451.576 L 765.782,452.156 L 765.8140000000001,452.43 L 766.0400000000001,452.85 L 765.9720000000001,453.247 L 766.0160000000001,453.577 L 766.0000000000001,454.491 L 766.1280000000002,454.76099999999997 L 766.2740000000001,454.933 L 767.0450000000001,455.47499999999997 L 767.1020000000001,455.676 L 767.4820000000001,456.366 L 768.186,457.868 L 768.3820000000001,458.543 L 768.36,458.725 L 768.275,458.8 L 768.068,458.866 L 767.895,458.734 L 767.837,458.64 L 767.855,458.522 L 767.787,458.406 L 767.618,458.26800000000003 L 767.5210000000001,458.144 L 767.5480000000001,458.349 L 767.5490000000001,458.615 L 767.3340000000001,458.63800000000003 L 767.0590000000001,458.555 L 766.715,458.63 L 766.3090000000001,458.956 L 766.114,458.96500000000003 L 765.966,458.68500000000006 L 765.89,458.49500000000006 L 765.769,458.36100000000005 L 764.478,457.67400000000004 L 764.001,457.49800000000005 L 763.499,456.97700000000003 L 762.369,456.40200000000004 L 761.6510000000001,455.84100000000007 L 761.3460000000001,455.49500000000006 L 760.6120000000001,455.18800000000005 L 760.296,454.826 L 760.1400000000001,454.755 L 759.9840000000002,454.626 L 760.1490000000001,454.274 L 760.0810000000001,453.907 L 759.9960000000001,453.597 L 759.4780000000001,452.986 L 759.224,452.56 L 758.7370000000001,452.135 L 758.542,451.89 L 758.356,451.606 L 758.472,451.506 L 758.5799999999999,451.44599999999997 L 758.4809999999999,451.239 L 758.2019999999999,450.88 L 758.0719999999999,450.467 L 758.0719999999999,449.687 L 757.6759999999999,448.59000000000003 L 757.3369999999999,447.069 L 757.3979999999999,446.536 L 757.3109999999999,445.958 L 757.0859999999999,445.40200000000004 L 756.7919999999999,445.00500000000005 L 756.6819999999999,444.67500000000007 L 756.7349999999999,444.5440000000001 L 756.8,444.1150000000001 L 756.8439999999999,444.03000000000014 L 756.9549999999999,443.98900000000015 L 757.0809999999999,444.00000000000017 L 757.3159999999999,444.37300000000016 L 757.929,444.60400000000016 L 758.1139999999999,444.65900000000016 L 758.3549999999999,444.5670000000002 L 758.4639999999999,444.62500000000017 L 758.574,444.7200000000002 L 758.637,444.9860000000002 L 758.7979999999999,445.22800000000024 L 759.1199999999999,445.1930000000002 L 759.2339999999999,445.22800000000024 L 759.3009999999999,445.23500000000024 L 759.3639999999999,445.44900000000024 L 759.3929999999999,445.82100000000025 L 759.3629999999999,446.03700000000026 L 759.131,446.3460000000003 L 759.1,446.55600000000027 L 759.222,446.68600000000026 L 759.38,446.8250000000003 L 759.471,446.9320000000003 L 759.566,446.9140000000003 L 759.686,446.8420000000003 L 759.796,446.6600000000003 L 759.8720000000001,446.5040000000003 L 760.2850000000001,446.3300000000003 L 760.7120000000001,446.17300000000034 L 760.7700000000001,446.18900000000036 L 760.839,446.2580000000004 L 760.975,446.4860000000004 L 761.0550000000001,446.5340000000004 L 761.1700000000001,446.5570000000004 L 761.3700000000001,446.5330000000004 L 761.6020000000001,446.4040000000004 L 761.724,446.1630000000004 L 761.778,445.9730000000004 L 762.112,445.6440000000004 L 762.149,445.3970000000004 L 762.245,445.234 M 755.922,444.607 L 756.12,444.908 L 756.021,445.04200000000003 L 755.971,445.081 L 755.852,445.03700000000003 L 755.7379999999999,445.15200000000004 L 755.6289999999999,445.17500000000007 L 755.5199999999999,444.96700000000004 L 755.3849999999999,444.884 L 755.3559999999999,444.74 L 755.5369999999999,444.71500000000003 L 755.6449999999999,444.76500000000004 L 755.8479999999998,444.665 L 755.922,444.607 M 757.159,447.889 L 757.0889999999999,447.967 L 756.885,447.92199999999997 L 756.9209999999999,447.46299999999997 L 757.0369999999999,447.40399999999994 L 757.2189999999999,447.48699999999997 L 757.299,447.56499999999994 L 757.159,447.889 M 806.541,450.99 L 806.1500000000001,451.044 L 805.8790000000001,451.038 L 805.9290000000001,450.94 L 805.916,450.811 L 806.0450000000001,450.777 L 806.1940000000001,450.805 L 806.541,450.99 M 760.049,454.335 L 759.9069999999999,454.38599999999997 L 759.8989999999999,454.313 L 759.9239999999999,454.211 L 760.0279999999999,454.11400000000003 L 760.0759999999999,454.16900000000004 L 760.049,454.335 M 768.196,455.052 L 768.0600000000001,455.081 L 767.9860000000001,455.062 L 767.9360000000001,454.95300000000003 L 768.0500000000002,454.70300000000003 L 768.0920000000002,454.66100000000006 L 768.2000000000002,454.93300000000005 L 768.196,455.052 M 788.313,455.935 L 788.227,455.972 L 788.0939999999999,455.873 L 788.063,455.026 L 788.156,454.95 L 788.217,454.961 L 788.282,455.115 L 788.2760000000001,455.486 L 788.288,455.81399999999996 L 788.313,455.935" id="MY" title="Malaysia"/>
</svg>
