<svg xmlns="http://www.w3.org/2000/svg" xmlns:ev="http://www.w3.org/2001/xml-events" xmlns:xlink="http://www.w3.org/1999/xlink" baseProfile="full" height="48.489013671875" version="1.1" viewBox="560.52001953125 492.0050048828125 29.81500244140625 48.489013671875" width="29.81500244140625" fill="#00394f">
	<defs/>
	<path class="land" d="M 567.994,540.456 L 567.686,540.461 L 567.159,540.476 L 566.847,540.485 L 566.4979999999999,540.494 L 566.0659999999999,540.4060000000001 L 565.8229999999999,540.4250000000001 L 565.8029999999999,539.426 L 565.7239999999999,539.207 L 565.641,538.887 L 565.621,538.6819999999999 L 565.673,538.4759999999999 L 565.698,538.1499999999999 L 565.675,537.8639999999999 L 565.4169999999999,537.7209999999999 L 565.3599999999999,537.6759999999999 L 565.3039999999999,537.4519999999999 L 565.2819999999998,537.1059999999999 L 565.4629999999999,536.6669999999999 L 565.4479999999999,535.824 L 565.4689999999998,535.5279999999999 L 565.4659999999998,534.9429999999999 L 565.4619999999998,534.2359999999999 L 565.4589999999997,533.6029999999998 L 565.4659999999997,533.0579999999999 L 565.4119999999997,532.7999999999998 L 565.3669999999997,532.6579999999998 L 565.2469999999997,532.3699999999998 L 565.1069999999997,531.7709999999997 L 564.9419999999998,531.3189999999997 L 564.7299999999998,531.0209999999997 L 564.6629999999998,530.8639999999997 L 564.5949999999998,530.6549999999997 L 564.3939999999998,530.2849999999997 L 564.2299999999998,530.0699999999997 L 564.1849999999998,529.8979999999997 L 564.1909999999998,529.4529999999996 L 564.0079999999998,528.6559999999996 L 563.8749999999998,528.0759999999996 L 563.6749999999997,527.4479999999995 L 563.5409999999997,527.0289999999995 L 563.5209999999997,526.9569999999995 L 563.5059999999997,526.7979999999995 L 563.9039999999998,526.4869999999995 L 564.3019999999998,526.0489999999995 L 564.7679999999998,525.5369999999996 L 565.1839999999999,525.0799999999996 L 565.5499999999998,524.6789999999996 L 566.0509999999998,524.1309999999996 L 566.5459999999998,523.5899999999996 L 566.6619999999998,523.5209999999996 L 566.7109999999998,523.4769999999996 L 566.4969999999997,522.9969999999996 L 566.8409999999998,522.4399999999996 L 566.8599999999998,522.0779999999996 L 566.8449999999998,521.7319999999996 L 566.8869999999998,521.5729999999996 L 566.9909999999999,521.4339999999996 L 567.3929999999999,521.1449999999996 L 567.6969999999999,520.6849999999996 L 567.9459999999999,520.2549999999997 L 568.2919999999999,519.5649999999996 L 568.3259999999999,519.4019999999996 L 568.3309999999999,519.2349999999996 L 568.237,519.0 L 568.007,518.623 L 567.8399999999999,518.297 L 567.6909999999999,517.796 L 567.8409999999999,517.3610000000001 L 567.8939999999999,517.0980000000001 L 567.8939999999999,516.956 L 567.8279999999999,516.822 L 567.6599999999999,516.72 L 567.5199999999999,516.654 L 567.4729999999998,516.474 L 567.4719999999999,516.2610000000001 L 567.5349999999999,516.143 L 567.9069999999998,515.952 L 567.9909999999998,515.848 L 568.0349999999997,515.732 L 568.0389999999998,515.567 L 568.1539999999998,515.154 L 568.2959999999998,514.762 L 568.3059999999998,514.6239999999999 L 568.2559999999999,514.5029999999999 L 568.2169999999999,514.2819999999999 L 568.1919999999999,513.949 L 568.1899999999999,513.0179999999999 L 568.2629999999999,512.059 L 568.2309999999999,511.51599999999996 L 567.9929999999998,510.89199999999994 L 567.9699999999998,510.44199999999995 L 568.1429999999998,510.12799999999993 L 568.1709999999998,509.9429999999999 L 568.0449999999998,509.9189999999999 L 567.7849999999999,509.8999999999999 L 567.5929999999998,509.8419999999999 L 567.2959999999998,509.5849999999999 L 566.7799999999999,509.3709999999999 L 566.1939999999998,509.17599999999993 L 565.3419999999999,509.11799999999994 L 564.6339999999999,508.4939999999999 L 564.079,508.3939999999999 L 563.9,508.3139999999999 L 563.367,507.9399999999999 L 562.5319999999999,507.90499999999986 L 561.6659999999999,507.8679999999999 L 561.126,507.85699999999986 L 561.0459999999999,507.80699999999985 L 561.015,507.29199999999986 L 561.009,506.83499999999987 L 560.963,506.4379999999999 L 560.881,505.9859999999999 L 560.755,505.8099999999999 L 560.605,505.5049999999999 L 560.529,505.16899999999987 L 560.52,505.00599999999986 L 560.548,504.94799999999987 L 561.149,504.7089999999999 L 561.406,504.5909999999999 L 561.7869999999999,504.4539999999999 L 562.4649999999999,504.2649999999999 L 563.0699999999999,504.0959999999999 L 563.6249999999999,503.9319999999999 L 564.2129999999999,503.7579999999999 L 564.4519999999999,503.6409999999999 L 564.7489999999999,503.5239999999999 L 565.4599999999999,503.2889999999999 L 565.6629999999999,503.20799999999986 L 566.0709999999999,503.0769999999999 L 566.276,503.0259999999999 L 567.063,502.7569999999999 L 567.965,502.4489999999999 L 568.2810000000001,502.3409999999999 L 568.884,502.1349999999999 L 569.001,502.21999999999986 L 569.4119999999999,502.9279999999999 L 569.7349999999999,503.34499999999986 L 570.103,503.7309999999999 L 570.165,503.7119999999999 L 570.271,503.6219999999999 L 570.4549999999999,503.5849999999999 L 571.04,503.49799999999993 L 571.2629999999999,503.49299999999994 L 571.41,503.38899999999995 L 571.7099999999999,503.316 L 572.0569999999999,503.272 L 572.1759999999999,503.319 L 572.5419999999999,503.819 L 572.5949999999999,504.201 L 572.6709999999999,504.754 L 572.689,505.024 L 572.683,505.385 L 572.6419999999999,505.837 L 572.3449999999999,506.358 L 572.2879999999999,506.617 L 572.1289999999999,507.01800000000003 L 571.9189999999999,507.216 L 571.8149999999998,507.378 L 571.8209999999998,507.546 L 571.9329999999998,507.687 L 572.1789999999997,507.94100000000003 L 572.2549999999998,508.10600000000005 L 572.2329999999997,508.25200000000007 L 572.2339999999997,508.4510000000001 L 572.2929999999997,508.58900000000006 L 572.3629999999997,508.66900000000004 L 572.6059999999998,508.79900000000004 L 572.8439999999998,509.12600000000003 L 573.2539999999998,509.521 L 573.7439999999998,510.084 L 573.9739999999998,510.257 L 574.1549999999999,510.299 L 574.2449999999999,510.48699999999997 L 574.1949999999999,510.707 L 574.054,510.832 L 574.112,511.012 L 574.192,511.106 L 574.2810000000001,511.154 L 574.4960000000001,511.165 L 574.6960000000001,511.12800000000004 L 574.7460000000001,511.06500000000005 L 574.7200000000001,510.22200000000004 L 574.5760000000001,509.73100000000005 L 574.4310000000002,509.53900000000004 L 574.4000000000002,509.50100000000003 L 574.4510000000002,509.34000000000003 L 574.6120000000002,508.96400000000006 L 574.7490000000001,508.59100000000007 L 574.8360000000001,508.4340000000001 L 574.9370000000001,508.33900000000006 L 575.6130000000002,508.23800000000006 L 575.9210000000002,508.15100000000007 L 576.0510000000002,508.0420000000001 L 576.1520000000002,507.7530000000001 L 576.2330000000002,506.9460000000001 L 576.2620000000002,506.1890000000001 L 576.1920000000001,505.7460000000001 L 576.2890000000001,505.0790000000001 L 576.4370000000001,504.6660000000001 L 576.3640000000001,504.5850000000001 L 576.3090000000002,504.0290000000001 L 575.8690000000001,503.4370000000001 L 575.3030000000001,502.6760000000001 L 574.9860000000001,502.2670000000001 L 574.6260000000001,501.80200000000013 L 573.9700000000001,501.0740000000001 L 573.6700000000002,500.81100000000015 L 573.5120000000002,500.70800000000014 L 572.9820000000002,500.62400000000014 L 572.8410000000002,500.48400000000015 L 572.7070000000002,500.26100000000014 L 572.6560000000002,499.84900000000016 L 572.6470000000002,499.54100000000017 L 572.5870000000002,499.01700000000017 L 572.4800000000002,498.27700000000016 L 572.4320000000002,498.05900000000014 L 572.2810000000003,497.50300000000016 L 572.1370000000003,496.97400000000016 L 572.1290000000002,496.8430000000002 L 572.1800000000003,496.7160000000002 L 572.4240000000003,496.32700000000017 L 572.5970000000003,496.05100000000016 L 572.6790000000003,495.90000000000015 L 572.8260000000004,495.4900000000001 L 572.8610000000003,495.2910000000001 L 572.9760000000003,495.20100000000014 L 573.4450000000004,495.16400000000016 L 573.8180000000004,495.17100000000016 L 574.4440000000004,495.16200000000015 L 575.1050000000004,495.18600000000015 L 575.1980000000003,495.2040000000001 L 575.3470000000003,495.2470000000001 L 575.5150000000003,495.2400000000001 L 575.7020000000003,495.18200000000013 L 575.9090000000003,495.04000000000013 L 576.1360000000003,494.81400000000014 L 576.4900000000004,494.81900000000013 L 576.9690000000004,495.05400000000014 L 577.2310000000003,495.2590000000001 L 577.2750000000003,495.43400000000014 L 577.5960000000003,495.5360000000001 L 578.1940000000003,495.56400000000014 L 578.6290000000002,495.4730000000001 L 578.9020000000003,495.26300000000015 L 579.1880000000002,495.15200000000016 L 579.4860000000002,495.1390000000002 L 579.7110000000002,495.2110000000002 L 579.8640000000003,495.3670000000002 L 580.1570000000003,495.4790000000002 L 580.5910000000002,495.5470000000002 L 581.0650000000003,495.4460000000002 L 581.5790000000003,495.1770000000002 L 581.8720000000003,494.8960000000002 L 581.9440000000003,494.6040000000002 L 582.0290000000003,494.4260000000002 L 582.1270000000003,494.3630000000002 L 582.3990000000003,494.3270000000002 L 582.8460000000003,494.31700000000023 L 583.2350000000004,494.4090000000002 L 583.7310000000003,494.7000000000002 L 584.0440000000003,494.50700000000023 L 584.5810000000004,494.1760000000002 L 585.1220000000004,494.0010000000002 L 585.6370000000004,494.0000000000002 L 586.0600000000004,493.87400000000025 L 586.3900000000004,493.62400000000025 L 586.7390000000005,493.46500000000026 L 587.1070000000005,493.39800000000025 L 587.4510000000006,493.27700000000027 L 587.9320000000006,493.0170000000003 L 588.4310000000006,492.6390000000003 L 588.9390000000006,492.25300000000027 L 589.2650000000007,492.0050000000003 L 589.4140000000007,492.29700000000025 L 589.6810000000007,492.56400000000025 L 589.5220000000007,492.7190000000002 L 589.3300000000007,492.85800000000023 L 589.6400000000007,493.0440000000002 L 589.4130000000007,493.3250000000002 L 589.3850000000007,493.5200000000002 L 589.4430000000007,493.5970000000002 L 589.4930000000006,493.7110000000002 L 589.3440000000006,494.0330000000002 L 589.1460000000006,494.2800000000002 L 589.0950000000006,494.4690000000002 L 589.2700000000006,494.80200000000025 L 589.1800000000005,495.39400000000023 L 589.3490000000005,495.92700000000025 L 589.3960000000005,496.2000000000003 L 589.4550000000005,496.38300000000027 L 589.3710000000005,496.71000000000026 L 589.3930000000006,497.2620000000003 L 589.4320000000006,497.4900000000003 L 589.3310000000006,497.7740000000003 L 589.5030000000006,497.8720000000003 L 589.5940000000006,498.1840000000003 L 589.5700000000006,498.5350000000003 L 589.5170000000006,498.72400000000033 L 589.2210000000006,498.9530000000003 L 589.1860000000006,499.0420000000003 L 589.1900000000006,499.1770000000003 L 589.5600000000006,499.1810000000003 L 589.5730000000007,499.3900000000003 L 589.5490000000007,499.55500000000035 L 589.5630000000007,499.86500000000035 L 589.5140000000007,500.0660000000004 L 589.6000000000007,500.2960000000004 L 589.4950000000007,500.5510000000004 L 589.5310000000006,500.7480000000004 L 589.5360000000006,501.0030000000004 L 589.6220000000006,501.64800000000037 L 589.6370000000006,502.44600000000037 L 589.6560000000006,502.57400000000035 L 589.7880000000006,502.6640000000003 L 589.9730000000005,502.70900000000034 L 589.9660000000006,502.92800000000034 L 589.7600000000006,503.21400000000034 L 589.7480000000006,503.39200000000034 L 589.7780000000006,503.64200000000034 L 590.0040000000006,503.30200000000036 L 590.1400000000006,503.30300000000034 L 590.2610000000005,503.4360000000003 L 590.2440000000005,503.63200000000035 L 590.2860000000005,503.7290000000003 L 590.2680000000005,503.9190000000003 L 590.3350000000005,504.1600000000003 L 590.3090000000005,504.3700000000003 L 590.1430000000005,504.5170000000003 L 589.9320000000005,504.7690000000003 L 589.8940000000005,505.0050000000003 L 589.9140000000004,505.16000000000025 L 589.7680000000005,505.20900000000023 L 589.7000000000005,505.30500000000023 L 589.7990000000005,505.52800000000025 L 589.7930000000006,505.72500000000025 L 589.5350000000005,506.3390000000002 L 588.8470000000005,507.18000000000023 L 588.5500000000005,507.4790000000002 L 588.2720000000005,507.8040000000002 L 588.2720000000005,507.9380000000002 L 588.2450000000005,508.0540000000002 L 587.9210000000005,508.5190000000002 L 587.5730000000005,508.5950000000002 L 587.3800000000006,508.7200000000002 L 587.5310000000005,509.1300000000002 L 587.3060000000005,509.22500000000025 L 586.9150000000005,509.54800000000023 L 585.8400000000005,510.1690000000002 L 585.6700000000005,510.3130000000002 L 585.3970000000005,510.6940000000002 L 585.0370000000005,510.7860000000002 L 584.8370000000004,510.8940000000002 L 584.4800000000005,510.93300000000016 L 584.3550000000005,510.9060000000002 L 584.2330000000005,510.9200000000002 L 584.1300000000006,511.0020000000002 L 583.4210000000006,511.27000000000015 L 582.7590000000006,511.48200000000014 L 582.5960000000006,511.5790000000001 L 582.4880000000006,511.7110000000001 L 581.9020000000006,511.9210000000001 L 580.9840000000006,512.44 L 580.2330000000006,512.936 L 579.6890000000006,513.432 L 579.5450000000006,513.5070000000001 L 579.3770000000006,513.6790000000001 L 579.3200000000006,513.9330000000001 L 579.2650000000007,514.0770000000001 L 578.8620000000006,514.6010000000001 L 578.2560000000007,515.2210000000001 L 578.1380000000006,515.3900000000001 L 577.8970000000006,515.7350000000001 L 577.8740000000006,515.9610000000001 L 577.6590000000006,516.0300000000001 L 577.4790000000006,515.8140000000001 L 577.4020000000006,516.2310000000001 L 577.2550000000006,516.2610000000001 L 577.0920000000006,516.1750000000001 L 576.6850000000005,516.3820000000001 L 576.3310000000005,516.6210000000001 L 575.7630000000005,517.1240000000001 L 574.9600000000005,518.1000000000001 L 573.7890000000004,519.0440000000001 L 573.6290000000005,519.0710000000001 L 573.5210000000005,519.0670000000001 L 573.1520000000005,518.7380000000002 L 572.9510000000005,518.7140000000002 L 573.1310000000004,518.9090000000002 L 573.2500000000005,519.0720000000002 L 573.2200000000005,519.3910000000002 L 573.2340000000005,519.8700000000002 L 573.0890000000005,520.8030000000002 L 573.1090000000005,521.0070000000002 L 573.2760000000005,521.2720000000002 L 573.5910000000006,521.5960000000001 L 573.8860000000005,522.0000000000001 L 574.2660000000005,523.1620000000001 L 574.2950000000005,523.7620000000002 L 574.6870000000006,524.5290000000002 L 574.7020000000006,524.8620000000002 L 574.8610000000006,525.6910000000001 L 574.8500000000006,526.3630000000002 L 574.8220000000006,526.7750000000002 L 575.0110000000005,526.9490000000002 L 575.0810000000006,526.7920000000001 L 575.0610000000006,526.5310000000002 L 575.1110000000006,526.1130000000002 L 575.2160000000006,525.9270000000001 L 575.3210000000006,525.9530000000001 L 575.3520000000005,526.1500000000001 L 575.4230000000006,526.325 L 575.4520000000006,526.489 L 575.4570000000006,526.712 L 575.3120000000006,527.561 L 575.3550000000006,527.907 L 575.5500000000006,528.486 L 575.3220000000007,529.159 L 574.9920000000006,530.749 L 574.9730000000006,531.025 L 575.0530000000007,531.145 L 575.2300000000007,531.186 L 575.2950000000008,530.9820000000001 L 575.3990000000008,530.984 L 575.4540000000007,531.104 L 575.3070000000007,531.84 L 575.1620000000007,532.163 L 574.6470000000007,532.956 L 574.3700000000007,533.296 L 573.9100000000007,533.6310000000001 L 572.8300000000006,534.1550000000001 L 570.6650000000006,534.9140000000001 L 569.8070000000007,535.2870000000001 L 569.2940000000007,535.5100000000001 L 568.2100000000007,536.219 L 567.7360000000007,536.695 L 567.5410000000006,537.2420000000001 L 567.3540000000006,537.4920000000001 L 567.1700000000006,537.8100000000001 L 567.3300000000006,538.0830000000001 L 567.4870000000006,538.2900000000001 L 567.6730000000007,538.4290000000001 L 567.7690000000007,538.5490000000001 L 567.8950000000007,538.6320000000001 L 568.0210000000006,538.2020000000001 L 568.0840000000006,538.0680000000001 L 568.1920000000006,538.0580000000001 L 568.1320000000006,538.5820000000001 L 568.0070000000006,540.3860000000001 L 567.994,540.456 M 573.139,496.689 L 573.214,496.62600000000003 L 573.243,496.543 L 573.2420000000001,496.462 L 573.195,496.412 L 573.1270000000001,496.383 L 573.0290000000001,496.4 L 572.9940000000001,496.51 L 572.9790000000002,496.662 L 573.0410000000002,496.71299999999997 L 573.139,496.689 M 572.921,496.413 L 572.8720000000001,496.33 L 572.7800000000001,496.291 L 572.6750000000001,496.323 L 572.6400000000001,496.42699999999996 L 572.7490000000001,496.561 L 572.8650000000001,496.563 L 572.921,496.413" id="MZ" title="Mozambique"/>
</svg>
