<svg xmlns="http://www.w3.org/2000/svg" xmlns:ev="http://www.w3.org/2001/xml-events" xmlns:xlink="http://www.w3.org/1999/xlink" baseProfile="full" height="36.3690185546875" version="1.1" viewBox="508.59600830078125 510.68798828125 37.99200439453125 36.3690185546875" width="37.99200439453125" fill="#00394f">
	<defs/>
	<path class="land" d="M 541.317,512.653 L 541.918,512.533 L 542.492,512.418 L 543.159,512.303 L 543.693,512.211 L 543.827,512.187 L 545.112,512.294 L 545.672,512.369 L 545.867,512.443 L 546.12,512.635 L 546.588,513.102 L 546.468,513.084 L 545.606,513.183 L 545.278,513.31 L 544.544,513.861 L 544.388,513.79 L 544.212,513.676 L 544.063,513.643 L 543.74,513.775 L 543.418,513.934 L 543.063,514.159 L 542.77,514.379 L 542.674,514.498 L 542.215,514.953 L 542.065,515.026 L 541.932,515.058 L 541.878,515.037 L 541.821,514.841 L 541.539,514.385 L 541.087,513.787 L 540.955,513.729 L 540.864,513.706 L 540.529,513.735 L 539.555,513.904 L 538.733,514.046 L 537.474,514.29 L 536.122,514.486 L 535.289,514.607 L 534.563,514.643 L 534.564,515.235 L 534.565,516.438 L 534.567,517.642 L 534.569,518.85 L 534.571,520.06 L 534.572,521.274 L 534.574,522.491 L 534.576,523.712 L 534.578,524.936 L 534.578,525.471 L 534.554,525.586 L 534.138,525.586 L 533.197,525.586 L 532.406,525.586 L 531.766,525.586 L 531.767,526.316 L 531.768,527.181 L 531.768,528.048 L 531.769,528.917 L 531.77,529.787 L 531.771,530.66 L 531.772,531.534 L 531.773,532.411 L 531.774,533.289 L 531.774,533.953 L 531.774,534.029 L 531.774,535.322 L 531.774,536.697 L 531.774,538.077 L 531.774,539.462 L 531.774,540.853 L 531.774,542.249 L 531.774,543.65 L 531.774,545.058 L 531.774,545.505 L 531.486,545.499 L 530.907,545.672 L 530.538,545.897 L 530.378,546.174 L 530.166,546.342 L 529.9,546.402 L 529.783,546.543 L 529.815,546.767 L 529.712,546.938 L 529.477,547.057 L 529.096,547.022 L 528.57,546.834 L 527.901,546.79 L 527.089,546.889 L 526.504,546.843 L 526.149,546.65 L 525.772,546.541 L 525.373,546.513 L 525.141,546.433 L 524.667,546.29 L 524.577,546.044 L 524.521,545.859 L 524.386,545.664 L 524.371,545.506 L 524.477,545.386 L 524.492,545.194 L 524.417,544.928 L 524.286,544.799 L 524.1,544.806 L 523.984,544.704 L 523.938,544.494 L 523.829,544.335 L 523.568,544.173 L 523.223,544.295 L 523.06,544.48 L 522.964,544.768 L 522.877,544.913 L 522.833,545.154 L 522.813,545.325 L 522.725,545.508 L 522.633,545.582 L 522.538,545.548 L 522.361,545.622 L 521.97,545.891 L 521.859,546.033 L 521.544,545.776 L 520.624,544.809 L 520.297,544.558 L 519.815,543.967 L 518.755,542.141 L 518.604,541.79 L 518.402,540.912 L 518.17,540.263 L 518.144,539.889 L 518.255,539.677 L 518.187,539.39 L 518.068,539.133 L 517.707,538.797 L 517.604,537.679 L 517.362,536.958 L 517.415,536.363 L 517.299,535.822 L 517.288,535.476 L 517.34,534.818 L 517.146,534.063 L 516.753,533.327 L 516.398,532.267 L 516.347,531.803 L 516.385,530.56 L 516.316,530.053 L 516.32,529.459 L 516.18,528.844 L 516.122,528.509 L 516.221,528.244 L 516.279,528.328 L 516.381,528.368 L 516.45,528.016 L 516.466,527.705 L 516.289,526.939 L 515.894,526.157 L 514.915,524.887 L 514.676,524.403 L 514.54,524.003 L 513.448,522.337 L 512.982,521.166 L 512.656,520.156 L 512.302,519.691 L 510.663,516.432 L 510.3,515.914 L 509.646,515.295 L 509.493,515.089 L 509.241,514.5 L 508.749,513.712 L 508.629,512.977 L 508.596,512.145 L 508.656,511.509 L 509.104,511.443 L 509.417,511.273 L 509.698,511.262 L 509.976,511.395 L 510.271,511.405 L 510.386,511.383 L 510.916,511.402 L 511.22,511.25 L 511.581,511.098 L 511.789,510.964 L 512.081,510.827 L 512.468,510.688 L 512.688,510.699 L 512.958,510.751 L 513.317,510.805 L 513.52,510.898 L 513.76,511.194 L 514.133,511.463 L 514.407,511.624 L 514.722,511.835 L 514.816,511.917 L 514.955,511.962 L 515.04,511.976 L 515.625,511.943 L 516.154,511.914 L 516.725,511.915 L 517.798,511.916 L 518.872,511.918 L 519.946,511.919 L 521.02,511.921 L 522.094,511.923 L 523.167,511.925 L 524.241,511.926 L 525.315,511.928 L 525.754,511.929 L 526.521,511.938 L 527.329,511.948 L 527.418,511.965 L 527.508,512.021 L 527.582,512.075 L 527.867,512.447 L 528.231,512.837 L 528.535,513.021 L 528.897,513.131 L 529.237,513.172 L 529.555,513.145 L 530.081,513.195 L 530.817,513.321 L 531.582,513.358 L 532.375,513.307 L 532.932,513.376 L 533.254,513.567 L 533.584,513.697 L 533.922,513.765 L 534.378,513.725 L 534.954,513.577 L 535.444,513.598 L 535.671,513.705 L 535.806,513.708 L 536.652,513.553 L 537.332,513.429 L 538.353,513.23 L 539.194,513.066 L 540.44,512.824 L 541.317,512.653" id="NA" title="Namibia"/>
</svg>
