<svg xmlns="http://www.w3.org/2000/svg" xmlns:ev="http://www.w3.org/2001/xml-events" xmlns:xlink="http://www.w3.org/1999/xlink" baseProfile="full" height="10.59197998046875" version="1.1" viewBox="924.5369873046875 516.9869995117188 23.04400634765625 10.59197998046875" width="23.04400634765625" fill="#00394f">
	<defs/>
	<path class="land" d="M 924.603,517.569 L 924.559,517.632 L 924.5369999999999,517.1629999999999 L 924.626,516.9869999999999 L 924.669,517.3519999999999 L 924.603,517.569 M 936.531,520.339 L 936.847,520.5260000000001 L 937.187,520.446 L 937.614,520.74 L 938.702,521.634 L 939.084,521.823 L 939.309,521.895 L 939.4789999999999,522.0409999999999 L 939.631,522.2479999999999 L 939.838,522.3939999999999 L 939.928,522.5299999999999 L 939.95,522.7139999999998 L 940.0250000000001,522.8269999999999 L 940.4040000000001,523.1239999999999 L 940.6300000000001,523.3849999999999 L 940.9440000000001,523.5179999999999 L 941.0790000000001,523.6739999999999 L 941.2550000000001,523.7499999999999 L 941.4350000000001,523.9099999999999 L 941.739,524.0349999999999 L 942.428,524.4949999999999 L 942.96,524.9319999999999 L 943.226,525.2029999999999 L 943.512,525.4439999999998 L 943.8779999999999,525.6369999999998 L 944.222,525.8569999999999 L 944.395,526.3729999999998 L 944.3,526.5579999999998 L 944.103,526.6499999999997 L 943.92,526.6569999999997 L 943.7489999999999,526.7189999999997 L 943.1779999999999,526.3859999999997 L 943.0419999999999,526.3369999999998 L 942.8899999999999,526.3579999999997 L 942.8049999999998,526.2839999999998 L 942.7449999999999,526.1779999999998 L 942.3959999999998,526.0539999999997 L 942.0719999999999,525.8559999999998 L 941.9779999999998,525.7209999999998 L 941.9229999999999,525.5529999999998 L 941.8449999999999,525.4569999999998 L 941.3879999999999,525.3109999999998 L 941.0799999999999,525.1479999999998 L 940.8559999999999,524.9189999999998 L 940.5089999999999,524.7589999999998 L 939.9679999999998,524.4309999999998 L 939.6909999999998,524.3259999999998 L 939.4479999999998,524.1619999999998 L 938.7979999999998,523.5669999999998 L 938.5659999999998,523.4559999999998 L 938.3639999999998,523.1919999999998 L 937.8029999999998,522.5649999999998 L 937.5319999999998,522.3079999999999 L 937.2379999999998,522.0789999999998 L 937.0129999999998,521.8109999999998 L 936.8399999999998,521.4929999999998 L 936.4379999999998,521.0379999999998 L 936.3889999999998,520.8439999999998 L 936.4059999999998,520.6449999999999 L 936.3089999999999,520.5169999999998 L 936.1449999999999,520.4389999999999 L 936.0669999999999,520.3049999999998 L 936.0759999999999,520.1239999999998 L 936.1299999999999,520.0309999999998 L 936.531,520.339 M 943.111,521.687 L 942.962,521.716 L 943.1419999999999,521.443 L 943.1479999999999,521.276 L 943.2199999999999,520.9459999999999 L 943.2109999999999,520.8359999999999 L 943.3299999999999,520.8499999999999 L 943.459,520.9449999999999 L 943.3109999999999,521.0269999999999 L 943.261,521.17 L 943.2669999999999,521.348 L 943.324,521.381 L 943.2289999999999,521.576 L 943.111,521.687 M 945.508,523.067 L 945.355,523.091 L 945.15,522.875 L 944.759,522.767 L 944.587,522.5780000000001 L 944.475,522.3550000000001 L 944.697,522.3000000000002 L 944.915,522.0000000000002 L 944.7669999999999,521.8890000000002 L 944.511,521.8690000000003 L 944.54,521.7520000000003 L 944.956,521.6130000000003 L 945.139,521.6940000000003 L 945.22,521.7890000000003 L 945.2080000000001,522.2640000000004 L 945.3960000000001,522.4150000000003 L 945.5910000000001,522.7530000000003 L 945.5910000000001,522.8480000000003 L 945.508,523.067 M 947.221,523.873 L 947.352,523.9290000000001 L 947.581,523.9190000000001 L 947.529,524.431 L 947.208,524.513 L 947.098,524.509 L 947.026,524.4010000000001 L 946.842,524.33 L 946.851,524.1550000000001 L 946.673,523.7620000000001 L 946.983,523.7020000000001 L 947.159,523.5970000000001 L 947.149,523.6930000000001 L 947.176,523.8040000000001 L 947.221,523.873 M 945.911,527.465 L 945.8219999999999,527.5790000000001 L 945.7119999999999,527.556 L 945.6279999999999,527.513 L 945.5669999999999,527.451 L 945.6279999999999,527.2180000000001 L 945.8689999999999,527.3320000000001 L 945.911,527.465" id="NC" title="New Caledonia"/>
</svg>
