<svg xmlns="http://www.w3.org/2000/svg" xmlns:ev="http://www.w3.org/2001/xml-events" xmlns:xlink="http://www.w3.org/1999/xlink" baseProfile="full" height="34.6710205078125" version="1.1" viewBox="476.15899658203125 395.1619873046875 44.34100341796875 34.6710205078125" width="44.34100341796875" fill="#00394f">
	<defs/>
	<path class="land" d="M 517.738,396.747 L 518.046,398.495 L 518.28,399.99 L 518.296,400.94 L 518.307,401.188 L 518.403,401.355 L 518.621,401.523 L 519.501,402.891 L 519.313,403.128 L 519.445,403.551 L 519.673,403.732 L 520.405,404.544 L 520.5,404.704 L 520.46,404.832 L 519.947,405.785 L 519.86,406.018 L 519.758,407.229 L 519.686,408.082 L 519.586,409.25 L 519.468,410.645 L 519.373,411.818 L 519.247,413.366 L 519.128,414.826 L 518.392,415.626 L 517.086,417.042 L 516.023,418.192 L 515.49,418.961 L 514.449,420.46 L 513.987,421.428 L 513.625,421.933 L 513.442,422.148 L 513.604,422.856 L 513.886,424.092 L 513.382,424.1 L 513.093,424.188 L 512.728,424.469 L 512.32,424.58 L 511.824,424.825 L 511.51,425.021 L 511.215,425.176 L 510.809,425.555 L 510.677,425.843 L 510.273,425.9 L 509.708,425.853 L 509.349,425.562 L 508.517,425.259 L 507.977,425.136 L 507.727,425.099 L 506.456,425.047 L 505.1,425.166 L 504.409,425.307 L 504.283,425.338 L 503.891,425.521 L 503.566,425.724 L 502.687,426.653 L 501.523,426.622 L 500.839,426.519 L 500.258,426.374 L 499.431,425.94 L 498.418,425.277 L 498.027,425.187 L 497.676,425.135 L 497.559,425.144 L 496.349,425.804 L 496.116,425.79 L 495.831,425.864 L 495.643,426.028 L 495.504,426.11 L 495.359,426.124 L 495.168,426.088 L 494.982,425.987 L 494.796,425.803 L 494.297,425.068 L 494.194,424.939 L 493.981,424.721 L 493.623,424.381 L 493.38,424.223 L 493.232,424.182 L 493.056,424.209 L 492.084,423.917 L 491.113,423.608 L 490.899,423.648 L 490.747,423.712 L 490.411,423.94 L 490.015,423.982 L 489.512,423.964 L 489.236,423.933 L 488.792,424.009 L 488.496,424.1 L 488.108,424.255 L 487.605,424.676 L 487.461,424.73 L 487.339,424.8 L 487.171,425.952 L 487.034,426.298 L 486.779,426.755 L 486.278,427.191 L 485.934,427.455 L 485.926,427.811 L 485.899,428.393 L 485.894,428.792 L 485.917,429.052 L 485.859,429.176 L 485.836,429.289 L 485.854,429.458 L 485.936,429.539 L 485.984,429.645 L 485.952,429.731 L 485.79,429.833 L 485.611,429.573 L 485.381,429.39 L 485.129,429.308 L 484.958,429.175 L 484.87,428.991 L 484.539,428.631 L 483.777,427.918 L 483.699,427.901 L 483.572,427.873 L 483.357,427.958 L 483.225,428.075 L 483.132,428.121 L 482.992,428.128 L 482.63,428.218 L 482.34,428.334 L 482.332,428.43 L 482.471,428.969 L 482.405,429.261 L 482.276,429.122 L 481.858,428.578 L 481.569,428.175 L 481.518,428.085 L 481.477,427.946 L 481.505,427.886 L 481.62,427.844 L 481.885,427.791 L 481.934,427.749 L 481.947,427.638 L 481.906,427.431 L 481.761,427.151 L 481.606,426.965 L 481.52,426.929 L 481.361,426.923 L 481.189,426.948 L 480.866,427.175 L 480.723,427.217 L 480.389,427.198 L 480.092,427.154 L 479.911,427.037 L 479.373,426.585 L 478.778,426.108 L 478.528,426.04 L 478.47,425.991 L 478.431,425.624 L 478.441,425.182 L 478.474,425.066 L 478.722,425.135 L 478.986,425.167 L 479.071,425.087 L 478.859,424.93 L 478.556,424.771 L 478.443,424.53 L 478.356,424.446 L 478.22,424.36 L 478.063,424.316 L 477.906,424.248 L 477.798,424.178 L 477.621,424.146 L 477.435,424.095 L 477.166,423.704 L 476.904,423.323 L 476.75,423.023 L 476.695,422.843 L 476.773,422.536 L 476.695,422.415 L 476.403,422.103 L 476.159,421.813 L 476.219,421.364 L 476.269,420.989 L 476.271,420.752 L 476.31,420.618 L 476.341,420.467 L 476.503,420.419 L 476.915,420.423 L 477.716,420.493 L 478.358,420.414 L 478.394,420.4 L 478.847,419.998 L 479.349,419.576 L 480.104,419.535 L 480.918,419.491 L 481.56,419.469 L 482.494,419.437 L 483.248,419.409 L 484.122,419.377 L 484.148,419.183 L 484.202,419.135 L 484.288,419.128 L 484.93,419.232 L 485.534,419.333 L 485.58,418.966 L 486.11,418.507 L 486.411,418.413 L 486.485,418.333 L 486.58,418.178 L 486.639,417.938 L 486.665,417.768 L 486.777,417.626 L 486.859,417.365 L 486.967,416.909 L 487.266,416.429 L 487.437,415.777 L 487.462,415.147 L 487.495,414.668 L 487.584,414.57 L 487.581,413.717 L 487.579,412.858 L 487.576,412.131 L 487.573,411.225 L 487.571,410.429 L 487.568,409.564 L 487.566,408.787 L 487.564,408.271 L 488.177,408.148 L 488.81,408.02 L 489.736,407.833 L 490.739,407.631 L 491.832,407.41 L 492.08,407.277 L 492.905,406.528 L 493.278,406.189 L 494.018,405.517 L 494.589,404.996 L 495.315,404.334 L 496.084,403.667 L 496.697,403.133 L 497.661,402.528 L 499.114,401.615 L 500.567,400.699 L 502.021,399.781 L 503.474,398.861 L 504.927,397.94 L 506.38,397.016 L 507.834,396.09 L 509.287,395.162 L 510.749,395.516 L 512.138,395.851 L 513.535,396.188 L 513.864,396.373 L 514.605,397.032 L 515.554,397.874 L 515.595,397.886 L 515.638,397.89 L 516.55,397.394 L 517.738,396.747" id="NE" title="Niger"/>
</svg>
