<svg xmlns="http://www.w3.org/2000/svg" xmlns:ev="http://www.w3.org/2001/xml-events" xmlns:xlink="http://www.w3.org/1999/xlink" baseProfile="full" height="27.126983642578125" version="1.1" viewBox="483.2430114746094 423.6080017089844 33.509979248046875 27.126983642578125" width="33.509979248046875">
	<defs/>
	<path class="land" d="M 513.886,424.092 L 514.327,424.709 L 514.801,425.372 L 515.1700000000001,425.887 L 515.44,427.22 L 515.469,427.473 L 515.49,427.587 L 515.511,427.692 L 515.5459999999999,427.873 L 515.7579999999999,427.95099999999996 L 516.1579999999999,427.98699999999997 L 516.449,428.11799999999994 L 516.6229999999999,428.3349999999999 L 516.64,428.3709999999999 L 516.732,428.5379999999999 L 516.7529999999999,428.6589999999999 L 516.728,429.0069999999999 L 516.669,429.4539999999999 L 516.569,429.7419999999999 L 516.625,430.1339999999999 L 516.607,430.3009999999999 L 516.563,430.41499999999985 L 516.384,430.5459999999998 L 516.141,430.6739999999998 L 515.56,431.0519999999998 L 515.3939999999999,431.1079999999998 L 515.1509999999998,431.11799999999977 L 514.9399999999998,431.21199999999976 L 514.6899999999998,431.41599999999977 L 514.1499999999999,432.17399999999975 L 513.6889999999999,432.9349999999998 L 513.5289999999999,433.5639999999998 L 513.3489999999999,434.1639999999998 L 512.943,434.5469999999998 L 512.886,434.7619999999998 L 512.8689999999999,434.8869999999998 L 512.8549999999999,435.17599999999976 L 512.8059999999999,435.65399999999977 L 512.7429999999999,435.8839999999998 L 512.6779999999999,435.95199999999977 L 512.2399999999999,436.0979999999998 L 511.9879999999999,436.2729999999998 L 511.8369999999999,436.6199999999998 L 511.78199999999987,436.9949999999998 L 511.69399999999985,437.4219999999998 L 511.64399999999983,437.7969999999998 L 511.57599999999985,437.9909999999998 L 511.43199999999985,438.1949999999998 L 511.20899999999983,438.4139999999998 L 511.01599999999985,438.53799999999984 L 510.51299999999986,438.61899999999986 L 510.25399999999985,439.11499999999984 L 510.03499999999985,439.50199999999984 L 510.0289999999999,439.6569999999998 L 509.81799999999987,440.45899999999983 L 509.45099999999985,441.0629999999998 L 509.42699999999985,441.27599999999984 L 509.4259999999999,441.45099999999985 L 508.96699999999987,441.98199999999986 L 508.84499999999986,442.13899999999984 L 508.72799999999984,442.3439999999998 L 508.8439999999998,442.5419999999998 L 508.97299999999984,442.7219999999998 L 508.99199999999985,442.7829999999998 L 508.7839999999998,442.95199999999977 L 508.41999999999985,443.24599999999975 L 508.20299999999986,443.42199999999974 L 508.15499999999986,443.51799999999974 L 508.1229999999999,443.9589999999997 L 508.0599999999999,444.07799999999975 L 507.9149999999999,444.2399999999997 L 507.7019999999999,444.4179999999997 L 507.4859999999999,444.5559999999997 L 507.2409999999999,444.6519999999997 L 507.00599999999986,444.6879999999997 L 506.87399999999985,444.6319999999997 L 506.79899999999986,444.4979999999997 L 506.66699999999986,443.9579999999997 L 506.59999999999985,443.8419999999997 L 506.44699999999983,443.7369999999997 L 506.1449999999998,443.4409999999997 L 505.8389999999998,443.1419999999997 L 505.4699999999998,442.93199999999973 L 505.3909999999998,442.9469999999997 L 505.3299999999998,443.00399999999973 L 505.2249999999998,443.3049999999997 L 505.1219999999998,443.41499999999974 L 504.92799999999977,443.45299999999975 L 504.5909999999998,443.45499999999976 L 504.3449999999998,443.4129999999998 L 504.2889999999998,443.3529999999998 L 504.2389999999998,443.2229999999998 L 504.1709999999998,443.1189999999998 L 503.87699999999984,443.3299999999998 L 503.41499999999985,443.6619999999998 L 503.2649999999999,443.7159999999998 L 503.14999999999986,443.7829999999998 L 502.9979999999999,444.0919999999998 L 502.8129999999999,444.42299999999983 L 502.5719999999999,444.59599999999983 L 502.3369999999999,444.74199999999985 L 502.2019999999999,444.86899999999986 L 502.0089999999999,445.01899999999983 L 501.6309999999999,445.39399999999983 L 501.12999999999994,445.8899999999998 L 500.9529999999999,446.1459999999998 L 500.7779999999999,446.52899999999977 L 500.67599999999993,446.95299999999975 L 500.56499999999994,447.41699999999975 L 500.40199999999993,448.1629999999997 L 500.1619999999999,448.58499999999975 L 499.95199999999994,448.91999999999973 L 499.79599999999994,449.1829999999997 L 499.71399999999994,449.3999999999997 L 499.67999999999995,449.3929999999997 L 499.59799999999996,449.4859999999997 L 499.364,449.4249999999997 L 499.25899999999996,449.2359999999997 L 499.114,449.2049999999997 L 498.864,448.9279999999997 L 498.811,448.9739999999997 L 499.075,449.6779999999997 L 498.977,449.9529999999997 L 498.234,449.95899999999966 L 497.59499999999997,450.05099999999965 L 497.15599999999995,450.04299999999967 L 496.9359999999999,449.94299999999964 L 496.8379999999999,449.67899999999963 L 496.7999999999999,449.7059999999996 L 496.7779999999999,449.84699999999964 L 496.6389999999999,449.95799999999963 L 496.1459999999999,449.97899999999964 L 495.9279999999999,449.79899999999964 L 495.7519999999999,449.59699999999964 L 495.5629999999999,449.50799999999964 L 495.59199999999987,449.59199999999964 L 495.80899999999986,449.78899999999965 L 495.78299999999984,450.07199999999966 L 495.38599999999985,450.39999999999964 L 495.13299999999987,450.41899999999964 L 494.9779999999999,450.2779999999996 L 494.8969999999999,450.0479999999996 L 494.8559999999999,449.70799999999963 L 494.7519999999999,449.48599999999965 L 494.6959999999999,449.48599999999965 L 494.74799999999993,449.6889999999996 L 494.76499999999993,449.8549999999996 L 494.76699999999994,450.19999999999965 L 494.95599999999996,450.4679999999996 L 494.66599999999994,450.55099999999965 L 494.54799999999994,450.55399999999963 L 494.3179999999999,450.5599999999996 L 494.27399999999994,450.4599999999996 L 494.22999999999996,450.2379999999996 L 494.169,450.1799999999996 L 494.09799999999996,450.5559999999996 L 493.94499999999994,450.5819999999996 L 493.83899999999994,450.5789999999996 L 493.3829999999999,450.6609999999996 L 493.28099999999995,450.6449999999996 L 493.25999999999993,450.5749999999996 L 493.3139999999999,450.4709999999996 L 493.3019999999999,450.3019999999996 L 493.1439999999999,450.4319999999996 L 493.1189999999999,450.69299999999964 L 493.02899999999994,450.7349999999996 L 492.7579999999999,450.69799999999964 L 492.4609999999999,450.5639999999996 L 492.2799999999999,450.4269999999996 L 491.9779999999999,450.23599999999965 L 491.3859999999999,449.7009999999996 L 491.2899999999999,449.45999999999964 L 491.1209999999999,449.1649999999996 L 490.99499999999995,448.8649999999996 L 490.81299999999993,448.3529999999996 L 490.8689999999999,448.31599999999963 L 491.0059999999999,448.3599999999996 L 491.0729999999999,448.2829999999996 L 490.82699999999994,448.22699999999963 L 490.77599999999995,448.16699999999963 L 490.75899999999996,447.9869999999996 L 490.77,447.7669999999996 L 490.96999999999997,447.6899999999996 L 491.143,447.6519999999996 L 491.22999999999996,447.5189999999996 L 491.28,447.3849999999996 L 490.82099999999997,447.58799999999957 L 490.39,447.35799999999955 L 490.29699999999997,447.21899999999954 L 490.344,447.1119999999995 L 490.55,447.0959999999995 L 490.844,447.1039999999995 L 491.02,446.9999999999995 L 490.912,446.9629999999995 L 490.722,446.96699999999953 L 490.652,446.8979999999995 L 490.65799999999996,446.73099999999954 L 490.59599999999995,446.7679999999995 L 490.51399999999995,446.91599999999954 L 490.22399999999993,447.0249999999995 L 490.0539999999999,446.91599999999954 L 490.0369999999999,446.6739999999995 L 489.99999999999994,446.56499999999954 L 489.85699999999997,446.47999999999956 L 489.349,445.83899999999954 L 488.711,445.3039999999995 L 488.144,444.9349999999995 L 487.287,444.7589999999995 L 485.493,444.7659999999995 L 485.392,444.7149999999995 L 485.502,444.6309999999995 L 485.659,444.5739999999995 L 486.236,444.2749999999995 L 486.139,444.2349999999995 L 485.539,444.4219999999995 L 485.334,444.4399999999995 L 485.068,444.79899999999947 L 483.488,444.85899999999947 L 483.303,444.8779999999995 L 483.307,444.7139999999995 L 483.384,444.2419999999995 L 483.435,444.05599999999953 L 483.494,443.91599999999954 L 483.43300000000005,443.74799999999954 L 483.37300000000005,443.5199999999995 L 483.34400000000005,443.1619999999995 L 483.41800000000006,443.05099999999953 L 483.44300000000004,442.91599999999954 L 483.42500000000007,442.70399999999955 L 483.42500000000007,441.9959999999995 L 483.4680000000001,441.9189999999995 L 483.51900000000006,441.8599999999995 L 483.52200000000005,441.7659999999995 L 483.42600000000004,441.5829999999995 L 483.33700000000005,441.3739999999995 L 483.34000000000003,441.0729999999995 L 483.30400000000003,440.7819999999995 L 483.24300000000005,440.64899999999955 L 483.28900000000004,440.15299999999957 L 483.31500000000005,439.5249999999996 L 483.29100000000005,439.2459999999996 L 483.34900000000005,439.0489999999996 L 483.38000000000005,438.56399999999957 L 483.37500000000006,438.08899999999954 L 483.49300000000005,437.33799999999957 L 483.83900000000006,437.30199999999957 L 484.25100000000003,437.2389999999996 L 484.43500000000006,436.94399999999956 L 484.54100000000005,436.56999999999954 L 484.50700000000006,436.19999999999953 L 484.58700000000005,436.0779999999995 L 484.75200000000007,435.8769999999995 L 485.05000000000007,435.5899999999995 L 485.03800000000007,435.2749999999995 L 485.12000000000006,435.17799999999954 L 485.2610000000001,435.10499999999956 L 485.4630000000001,435.0679999999996 L 485.6890000000001,434.9109999999996 L 485.8140000000001,434.6359999999996 L 485.93700000000007,434.19599999999963 L 485.74300000000005,433.8889999999996 L 485.74600000000004,433.82099999999963 L 485.82000000000005,433.6559999999996 L 485.9390000000001,433.4909999999996 L 486.0330000000001,433.4379999999996 L 486.2530000000001,433.47999999999956 L 486.2910000000001,433.46599999999955 L 486.3250000000001,433.41399999999953 L 486.4670000000001,432.9269999999995 L 486.4540000000001,432.79599999999954 L 486.24900000000014,432.4699999999995 L 486.21500000000015,432.2379999999995 L 486.1850000000002,431.89299999999946 L 486.13500000000016,431.5869999999995 L 486.07600000000014,431.4709999999995 L 485.96700000000016,431.3739999999995 L 485.9180000000002,431.3109999999995 L 485.4940000000002,430.6889999999995 L 485.5010000000002,430.3939999999995 L 485.6790000000002,430.0169999999995 L 485.7950000000002,429.8339999999995 L 485.95700000000016,429.7319999999995 L 485.98900000000015,429.6449999999995 L 485.94100000000014,429.53899999999953 L 485.85900000000015,429.45899999999955 L 485.84000000000015,429.28899999999953 L 485.86300000000017,429.17599999999953 L 485.92100000000016,429.0519999999995 L 485.89800000000014,428.7919999999995 L 485.90300000000013,428.3929999999995 L 485.9300000000001,427.8109999999995 L 485.9380000000001,427.45499999999953 L 486.2820000000001,427.1909999999995 L 486.7830000000001,426.7539999999995 L 487.03800000000007,426.2969999999995 L 487.17500000000007,425.9509999999995 L 487.3430000000001,424.7989999999995 L 487.4650000000001,424.72899999999953 L 487.6090000000001,424.67499999999956 L 488.1120000000001,424.25499999999954 L 488.4990000000001,424.09899999999953 L 488.7950000000001,424.00899999999956 L 489.24000000000007,423.93299999999954 L 489.5160000000001,423.96399999999954 L 490.01900000000006,423.98299999999955 L 490.4150000000001,423.9409999999996 L 490.7510000000001,423.7119999999996 L 490.9030000000001,423.64799999999957 L 491.1170000000001,423.60799999999955 L 492.08900000000006,423.9169999999996 L 493.06000000000006,424.20899999999955 L 493.23600000000005,424.18199999999956 L 493.38400000000007,424.22299999999956 L 493.62700000000007,424.3809999999996 L 493.98500000000007,424.7199999999996 L 494.1980000000001,424.93899999999957 L 494.3010000000001,425.06699999999955 L 494.8000000000001,425.80199999999957 L 494.9860000000001,425.98699999999957 L 495.1730000000001,426.08799999999957 L 495.3630000000001,426.12399999999957 L 495.5090000000001,426.10999999999956 L 495.6470000000001,426.02699999999953 L 495.8350000000001,425.86299999999954 L 496.1210000000001,425.78799999999956 L 496.3540000000001,425.80299999999954 L 497.5630000000001,425.14199999999954 L 497.6800000000001,425.1329999999995 L 498.0320000000001,425.18499999999955 L 498.4230000000001,425.27599999999956 L 499.4360000000001,425.93899999999957 L 500.2630000000001,426.3729999999996 L 500.8440000000001,426.5179999999996 L 501.5290000000001,426.6209999999996 L 502.6920000000001,426.6519999999996 L 503.57100000000014,425.7229999999996 L 503.89600000000013,425.51999999999964 L 504.2880000000001,425.33699999999965 L 504.4140000000001,425.30599999999964 L 505.1050000000001,425.1649999999996 L 506.4600000000001,425.0459999999996 L 507.7310000000001,425.0979999999996 L 507.9810000000001,425.1349999999996 L 508.52100000000013,425.2579999999996 L 509.3530000000001,425.5609999999996 L 509.7120000000001,425.8519999999996 L 510.2760000000001,425.8999999999996 L 510.6800000000001,425.8419999999996 L 510.8120000000001,425.5539999999996 L 511.21800000000013,425.17499999999956 L 511.51300000000015,425.02099999999956 L 511.82600000000014,424.82399999999956 L 512.3220000000001,424.57899999999955 L 512.7300000000001,424.46899999999954 L 513.0950000000001,424.18799999999953 L 513.3840000000001,424.09899999999953 L 513.886,424.092 M 496.189,450.341 L 495.918,450.426 L 495.74,450.405 L 495.98400000000004,450.03499999999997 L 496.10800000000006,450.11499999999995 L 496.26700000000005,450.14799999999997 L 496.189,450.341" id="NG" title="Nigeria"/>
</svg>
