<svg xmlns="http://www.w3.org/2000/svg" xmlns:ev="http://www.w3.org/2001/xml-events" xmlns:xlink="http://www.w3.org/1999/xlink" baseProfile="full" height="12.225006103515625" version="1.1" viewBox="229.6540069580078 420.3389892578125 12.664993286132812 12.225006103515625" width="12.664993286132812" fill="#00394f">
	<defs/>
	<path class="land" d="M 242.319,420.382 L 242.241,420.488 L 242.155,420.558 L 241.976,420.903 L 241.914,420.934 L 241.901,420.679 L 241.794,420.645 L 241.669,420.736 L 241.6,420.867 L 241.709,421.037 L 241.805,421.04 L 241.921,421.087 L 242.234,422.265 L 242.167,422.475 L 241.973,422.802 L 241.789,423.079 L 241.604,423.253 L 241.375,423.993 L 241.169,425.194 L 241.317,426.271 L 241.242,427.266 L 241.308,427.5 L 241.327,427.792 L 241.175,427.845 L 241.089,427.836 L 241.001,427.657 L 241.011,427.499 L 241.102,427.314 L 241.139,427.063 L 241.096,426.932 L 241.006,427.218 L 240.848,427.346 L 240.745,427.391 L 240.645,427.535 L 240.751,427.807 L 240.888,428.006 L 240.934,428.148 L 240.883,428.318 L 240.852,428.898 L 240.803,428.882 L 240.753,428.804 L 240.608,428.798 L 240.591,429.032 L 240.602,429.162 L 240.479,429.263 L 240.435,429.363 L 240.536,429.435 L 240.647,429.477 L 240.784,429.467 L 240.896,429.754 L 240.932,429.987 L 240.67,430.202 L 240.582,430.38 L 240.434,430.596 L 240.35,430.808 L 240.325,430.96 L 240.427,431.442 L 240.606,431.784 L 240.757,432.001 L 240.959,432.048 L 240.912,432.276 L 240.76,432.421 L 240.484,432.542 L 240.181,432.564 L 239.685,432.45 L 239.482,432.437 L 239.403,432.376 L 239.379,432.264 L 239.237,432.095 L 238.977,431.87 L 238.827,431.886 L 238.582,431.837 L 238.175,431.684 L 237.987,431.665 L 237.717,431.796 L 237.403,431.968 L 236.646,431.7 L 236.114,431.511 L 235.636,431.34 L 235.509,431.275 L 235.404,431.289 L 235.313,431.378 L 235.21,431.536 L 235.176,431.582 L 235.121,431.625 L 235.059,431.637 L 235.057,431.562 L 234.823,431.248 L 234.451,430.871 L 233.026,429.713 L 232.502,429.02 L 232.221,428.521 L 231.954,428.261 L 231.184,427.729 L 231.006,427.517 L 230.244,426.805 L 229.662,426.387 L 229.654,426.209 L 229.893,425.987 L 230.01,425.998 L 230.138,426.156 L 230.344,426.337 L 230.441,426.338 L 230.585,426.254 L 230.588,426.17 L 231.369,426.136 L 231.509,426.089 L 231.65,425.958 L 231.723,425.774 L 231.735,425.598 L 231.765,425.471 L 231.89,425.348 L 232.119,425.31 L 232.295,425.297 L 232.347,425.214 L 232.294,424.945 L 232.199,424.291 L 232.179,424.108 L 232.211,423.972 L 232.283,423.923 L 232.629,423.89 L 233.284,423.945 L 233.411,423.904 L 233.673,423.532 L 233.917,423.259 L 234.091,423.136 L 234.229,423.099 L 234.387,423.342 L 234.94,423.69 L 235.034,423.668 L 235.088,423.649 L 235.106,423.599 L 235.096,423.439 L 235.234,423.293 L 235.521,423.162 L 235.809,422.931 L 236.099,422.599 L 236.351,422.404 L 236.563,422.346 L 236.645,422.256 L 236.594,422.133 L 236.611,421.958 L 236.695,421.732 L 236.819,421.601 L 236.981,421.565 L 237.046,421.494 L 237.012,421.387 L 237.043,421.27 L 237.19,421.077 L 237.54,420.912 L 237.74,420.967 L 237.906,421.189 L 238.142,421.34 L 238.446,421.42 L 238.682,421.391 L 238.85,421.252 L 239.001,421.21 L 239.135,421.265 L 239.206,421.233 L 239.214,421.117 L 239.283,421.09 L 239.415,421.153 L 239.531,421.169 L 239.633,421.139 L 239.673,421.082 L 239.694,421.023 L 239.77,420.98 L 240.033,421.023 L 240.327,420.956 L 240.654,420.777 L 240.871,420.699 L 240.978,420.719 L 241.106,420.629 L 241.255,420.429 L 241.596,420.339 L 242.319,420.382" id="NI" title="Nicaragua"/>
</svg>
