<svg xmlns="http://www.w3.org/2000/svg" xmlns:ev="http://www.w3.org/2001/xml-events" xmlns:xlink="http://www.w3.org/1999/xlink" baseProfile="full" height="13.135009765625" version="1.1" viewBox="485.10400390625 284.5509948730469 10.79498291015625 13.135009765625" width="10.79498291015625" fill="#00394f">
	<defs/>
	<path class="land" d="M 490.385,285.717 L 490.26599999999996,285.652 L 490.89699999999993,285.465 L 491.29599999999994,285.40799999999996 L 491.36699999999996,285.43299999999994 L 490.64599999999996,285.6789999999999 L 490.385,285.717 M 491.786,285.413 L 492.34,285.336 L 492.337,285.307 L 492.191,285.26 L 491.719,285.268 L 491.568,285.301 L 491.599,285.356 L 491.786,285.413 M 493.474,285.092 L 493.35499999999996,285.072 L 493.00899999999996,285.172 L 492.98499999999996,285.218 L 493.08099999999996,285.252 L 493.474,285.092 M 490.037,286.044 L 489.808,286.034 L 489.474,286.33299999999997 L 489.518,286.388 L 490.037,286.044 M 494.786,284.551 L 494.656,284.551 L 494.415,284.645 L 494.34000000000003,284.77 L 494.6,284.75399999999996 L 494.786,284.551 M 486.957,294.81 L 486.599,294.996 L 486.131,294.931 L 485.775,294.79499999999996 L 485.316,294.82099999999997 L 485.104,294.892 L 485.188,295.28 L 485.252,295.40299999999996 L 485.33500000000004,295.48299999999995 L 485.44500000000005,295.49899999999997 L 485.57200000000006,295.40299999999996 L 485.7490000000001,295.30199999999996 L 486.0340000000001,295.349 L 486.2410000000001,295.442 L 486.3150000000001,295.539 L 486.4520000000001,295.631 L 486.6520000000001,295.65299999999996 L 487.0390000000001,295.477 L 487.4110000000001,295.20799999999997 L 487.5200000000001,295.02099999999996 L 487.5610000000001,294.852 L 487.2390000000001,294.96799999999996 L 486.957,294.81 M 495.899,286.165 L 495.508,286.08000000000004 L 495.256,285.95500000000004 L 495.099,285.72900000000004 L 494.829,285.42 L 494.12,285.452 L 493.53000000000003,285.541 L 492.713,285.579 L 492.184,285.729 L 491.226,286.229 L 490.985,286.484 L 490.73900000000003,287.03299999999996 L 489.90500000000003,287.66499999999996 L 489.41900000000004,287.90799999999996 L 489.28200000000004,287.81499999999994 L 489.08500000000004,287.75399999999996 L 488.92800000000005,288.075 L 488.8310000000001,288.364 L 488.50500000000005,290.05699999999996 L 488.2830000000001,290.669 L 487.9840000000001,291.183 L 487.51400000000007,291.811 L 487.29800000000006,292.025 L 487.16600000000005,292.106 L 487.00100000000003,292.408 L 486.869,292.77000000000004 L 486.77900000000005,292.939 L 487.30600000000004,293.56100000000004 L 487.372,293.73900000000003 L 487.44100000000003,293.843 L 486.942,293.908 L 487.154,294.10900000000004 L 487.421,294.25300000000004 L 487.59999999999997,294.32200000000006 L 487.698,294.46700000000004 L 487.506,294.53400000000005 L 487.325,294.53800000000007 L 486.609,294.00500000000005 L 486.21099999999996,293.90700000000004 L 485.66299999999995,293.93800000000005 L 485.525,293.994 L 485.383,294.156 L 485.584,294.402 L 485.77,294.54699999999997 L 486.06899999999996,294.566 L 486.429,294.748 L 486.94699999999995,294.596 L 487.31899999999996,294.783 L 487.56399999999996,294.85 L 487.784,294.96200000000005 L 487.978,294.98600000000005 L 488.063,294.93600000000004 L 488.009,294.665 L 488.16700000000003,294.52000000000004 L 488.34200000000004,294.45300000000003 L 488.42100000000005,294.571 L 488.58200000000005,294.69100000000003 L 488.708,294.692 L 489.05,294.38 L 489.13,294.442 L 489.204,294.553 L 489.22,294.642 L 489.233,294.736 L 489.31,294.775 L 489.579,294.755 L 489.716,294.586 L 489.82300000000004,294.48 L 489.903,294.552 L 489.942,294.76000000000005 L 490.016,295.03100000000006 L 490.33700000000005,295.3330000000001 L 490.60800000000006,295.4190000000001 L 490.9410000000001,295.36000000000007 L 491.0730000000001,295.3060000000001 L 491.1620000000001,295.3510000000001 L 491.2510000000001,295.51100000000014 L 491.4430000000001,295.69400000000013 L 491.8460000000001,295.82300000000015 L 491.97000000000014,295.89600000000013 L 492.05600000000015,296.0190000000001 L 492.0310000000002,296.19400000000013 L 491.83900000000017,296.62900000000013 L 491.8140000000002,296.7570000000001 L 491.8400000000002,296.8000000000001 L 491.8020000000002,296.8800000000001 L 491.5520000000002,297.1710000000001 L 491.5300000000002,297.2740000000001 L 491.6130000000002,297.4410000000001 L 491.68200000000024,297.57900000000006 L 491.68200000000024,297.57900000000006 L 491.8320000000002,297.6460000000001 L 491.97300000000024,297.66800000000006 L 492.24000000000024,297.6770000000001 L 492.52500000000026,297.6860000000001 L 492.6780000000003,297.0010000000001 L 492.56100000000026,296.8010000000001 L 492.4160000000003,296.6990000000001 L 492.2470000000003,296.6490000000001 L 492.1690000000003,296.5540000000001 L 492.14200000000034,296.4450000000001 L 492.1720000000003,296.3780000000001 L 492.3710000000003,296.3980000000001 L 492.43300000000033,296.32700000000006 L 492.9070000000003,295.92300000000006 L 492.9270000000003,295.8450000000001 L 492.86100000000033,295.8010000000001 L 492.7750000000003,295.7780000000001 L 492.7530000000003,295.6930000000001 L 492.7560000000003,295.5810000000001 L 493.0090000000003,294.9960000000001 L 493.0840000000003,294.7460000000001 L 493.1010000000003,294.5690000000001 L 493.08500000000026,294.39400000000006 L 492.93900000000025,294.1190000000001 L 492.79800000000023,293.89900000000006 L 492.79300000000023,293.72400000000005 L 492.6900000000002,293.63200000000006 L 492.39800000000025,293.16100000000006 L 492.39800000000025,292.97900000000004 L 492.5630000000003,292.83700000000005 L 492.79400000000027,292.74700000000007 L 492.87100000000027,292.6720000000001 L 493.00900000000024,292.62500000000006 L 493.37600000000026,292.7610000000001 L 493.54000000000025,292.8790000000001 L 493.58600000000024,292.8550000000001 L 493.73400000000026,292.7270000000001 L 493.99400000000026,292.74700000000007 L 494.6230000000003,292.4890000000001 L 494.71700000000027,292.36500000000007 L 494.78700000000026,292.23300000000006 L 494.79300000000023,292.17500000000007 L 494.5490000000002,291.9200000000001 L 494.5420000000002,291.8260000000001 L 494.5740000000002,291.7200000000001 L 494.6430000000002,291.6360000000001 L 494.7870000000002,291.57900000000006 L 494.9400000000002,291.46700000000004 L 495.28300000000024,291.14900000000006 L 495.40200000000027,290.87300000000005 L 495.43900000000025,290.57300000000004 L 495.44600000000025,290.34900000000005 L 495.35200000000026,290.17100000000005 L 495.25700000000023,290.05600000000004 L 495.1280000000002,290.074 L 494.87700000000024,290.065 L 494.6420000000002,289.965 L 494.5130000000002,289.803 L 494.4810000000002,289.661 L 494.54000000000025,289.571 L 494.5580000000002,289.461 L 494.5200000000002,289.35 L 494.5350000000002,289.257 L 494.6410000000002,289.182 L 495.3840000000002,289.184 L 495.44000000000017,289.10200000000003 L 495.4900000000002,288.67 L 495.67600000000016,288.011 L 495.85100000000017,287.64300000000003 L 495.88000000000017,287.48800000000006 L 495.8770000000002,286.61300000000006 L 495.899,286.165 M 486.173,293.539 L 486.418,293.46799999999996 L 486.789,293.77 L 487.137,293.67199999999997 L 487.116,293.58799999999997 L 487.05699999999996,293.50899999999996 L 486.78299999999996,293.26199999999994 L 486.33399999999995,293.23099999999994 L 486.0799999999999,293.30699999999996 L 486.0809999999999,293.39599999999996 L 486.173,293.539 M 489.135,287.483 L 489.413,287.153 L 489.413,286.62800000000004 L 489.002,287.057 L 488.916,287.315 L 488.965,287.392 L 489.135,287.483" id="NL" title="Netherlands"/>
</svg>
