<svg xmlns="http://www.w3.org/2000/svg" xmlns:ev="http://www.w3.org/2001/xml-events" xmlns:xlink="http://www.w3.org/1999/xlink" baseProfile="full" height="87.60798645019531" version="1.1" viewBox="489.1669921875 174.9980010986328 73.427001953125 87.60798645019531" width="73.427001953125" fill="#00394f">
	<defs/>
	<path class="land" d="M 547.507,174.998 L 548.257,175.32999999999998 L 548.5129999999999,175.32299999999998 L 548.886,175.94199999999998 L 549.0799999999999,175.88699999999997 L 549.0429999999999,176.26299999999998 L 548.6669999999999,176.44199999999998 L 548.0819999999999,176.54999999999998 L 547.9949999999999,176.62499999999997 L 547.4949999999999,176.56499999999997 L 547.2139999999999,176.05899999999997 L 546.7449999999999,175.93399999999997 L 546.7459999999999,175.77099999999996 L 547.0499999999998,175.38699999999997 L 547.507,174.998 M 562.335,186.396 L 562.488,187.46099999999998 L 562.4830000000001,187.831 L 562.4110000000001,188.189 L 562.3100000000001,188.37199999999999 L 562.109,188.452 L 561.6220000000001,188.42 L 560.9610000000001,188.00099999999998 L 560.5340000000001,187.60599999999997 L 560.4010000000001,187.58899999999997 L 560.3430000000001,187.63699999999997 L 560.4470000000001,188.03299999999996 L 560.4190000000001,188.33699999999996 L 560.3550000000001,188.66699999999997 L 560.2650000000001,188.96599999999998 L 560.1400000000001,189.21599999999998 L 559.8780000000002,189.53799999999998 L 559.4250000000002,189.79199999999997 L 558.1780000000002,190.28699999999998 L 558.0790000000002,190.50499999999997 L 557.6770000000001,191.87499999999997 L 557.5680000000001,192.07499999999996 L 557.421,192.24399999999997 L 556.9920000000001,192.46299999999997 L 556.7840000000001,192.16099999999997 L 556.618,191.70199999999997 L 556.6560000000001,191.24599999999998 L 557.157,190.368 L 557.6260000000001,189.743 L 557.758,189.52599999999998 L 558.024,188.89499999999998 L 557.486,187.301 L 556.528,186.81599999999997 L 555.437,186.07499999999996 L 555.037,185.67899999999997 L 554.414,184.85999999999999 L 553.973,184.12199999999999 L 553.5749999999999,184.09599999999998 L 553.137,184.28199999999998 L 552.453,184.956 L 552.054,185.29399999999998 L 551.834,185.39399999999998 L 551.781,185.40899999999996 L 551.2909999999999,185.21799999999996 L 550.747,185.17799999999997 L 550.309,185.23299999999998 L 550.144,185.325 L 549.534,186.409 L 549.107,186.953 L 548.872,187.14000000000001 L 548.7009999999999,187.454 L 548.5609999999999,187.97 L 548.2479999999999,189.746 L 548.015,190.412 L 547.963,190.818 L 548.0179999999999,192.042 L 547.9619999999999,192.716 L 547.6769999999999,193.27 L 547.4759999999999,193.519 L 547.2109999999999,193.57 L 546.8639999999999,193.71099999999998 L 546.5609999999999,194.02999999999997 L 546.3469999999999,194.46499999999997 L 546.1059999999999,195.43599999999998 L 545.6979999999999,195.79199999999997 L 545.3079999999999,195.68999999999997 L 545.0299999999999,195.33399999999997 L 544.4329999999999,195.05799999999996 L 543.9879999999998,194.88199999999998 L 543.4889999999998,194.49999999999997 L 543.0489999999998,194.20899999999997 L 542.6469999999997,194.15099999999998 L 542.4179999999997,194.51999999999998 L 542.2339999999997,194.86399999999998 L 541.5479999999997,195.14299999999997 L 541.1589999999997,195.36399999999998 L 540.6549999999996,195.41299999999998 L 540.4509999999997,195.16799999999998 L 539.7189999999997,195.00599999999997 L 538.8479999999997,194.81399999999996 L 538.5959999999998,194.81599999999997 L 538.5169999999998,194.37699999999998 L 538.2849999999999,193.76199999999997 L 537.6659999999998,192.69399999999996 L 537.4129999999998,192.31599999999997 L 536.9359999999998,191.42499999999998 L 536.3809999999999,190.50699999999998 L 536.3019999999999,190.48399999999998 L 535.93,190.45299999999997 L 535.385,190.48299999999998 L 535.039,190.69199999999998 L 534.821,190.95399999999998 L 534.783,191.17199999999997 L 534.994,192.00399999999996 L 534.929,192.21099999999996 L 534.8199999999999,192.31099999999995 L 534.3249999999999,192.07799999999995 L 533.7259999999999,192.09399999999994 L 533.5749999999999,192.34999999999994 L 533.2099999999999,192.37799999999993 L 532.1569999999999,192.47499999999994 L 532.622,193.15099999999993 L 532.776,193.4219999999999 L 532.8069999999999,193.8179999999999 L 532.7259999999999,194.5519999999999 L 532.5029999999999,195.1769999999999 L 532.2429999999999,195.6839999999999 L 531.742,196.18499999999992 L 532.5029999999999,196.67899999999992 L 531.9859999999999,197.3439999999999 L 531.7439999999999,197.60199999999992 L 531.4639999999999,197.5579999999999 L 530.963,197.3289999999999 L 529.75,196.77299999999988 L 529.171,196.56399999999988 L 528.653,196.4999999999999 L 528.3770000000001,196.5079999999999 L 527.2790000000001,196.0299999999999 L 527.0670000000001,196.08299999999988 L 526.6730000000001,196.28999999999988 L 526.6290000000001,196.75399999999988 L 526.6540000000001,197.90299999999988 L 526.7120000000001,198.78299999999987 L 526.5670000000001,199.28899999999987 L 526.4220000000001,199.63199999999986 L 525.9830000000002,200.55299999999986 L 524.9950000000001,199.92699999999985 L 524.3210000000001,199.51099999999985 L 523.8880000000001,200.06399999999985 L 522.8030000000001,201.07399999999984 L 522.2470000000001,203.04999999999984 L 522.215,203.11399999999983 L 521.8860000000001,203.61299999999983 L 521.465,203.84199999999984 L 521.1460000000001,203.95499999999984 L 520.96,204.53599999999983 L 521.393,205.36499999999984 L 521.615,205.80099999999985 L 521.822,206.50299999999984 L 521.784,206.94799999999984 L 521.736,207.22399999999985 L 521.271,207.78799999999984 L 520.279,209.26899999999983 L 519.361,210.80299999999983 L 518.985,211.24099999999981 L 519.155,212.52899999999983 L 518.85,212.90499999999983 L 518.2280000000001,213.32899999999984 L 517.9100000000001,213.49199999999985 L 517.5680000000001,213.58799999999985 L 516.5160000000001,213.75699999999986 L 516.7030000000001,215.11699999999988 L 516.7740000000001,215.71599999999987 L 516.7730000000001,216.06999999999988 L 516.6640000000001,216.41499999999988 L 516.5340000000001,217.0719999999999 L 516.3380000000001,219.4019999999999 L 516.1880000000001,219.6509999999999 L 515.9810000000001,220.2759999999999 L 515.315,221.7689999999999 L 514.7810000000001,222.75499999999988 L 514.0100000000001,224.16599999999988 L 514.6370000000001,224.6089999999999 L 515.2090000000001,224.9319999999999 L 515.3280000000001,225.4269999999999 L 515.407,226.25099999999992 L 515.388,226.80999999999992 L 515.169,227.31099999999992 L 514.999,227.66199999999992 L 514.88,227.8329999999999 L 514.067,227.66299999999993 L 513.025,227.44399999999993 L 512.755,227.44199999999992 L 512.149,227.5999999999999 L 511.602,227.92299999999992 L 511.31399999999996,228.1949999999999 L 511.23699999999997,228.3029999999999 L 510.873,228.9209999999999 L 510.22499999999997,230.01299999999992 L 509.86999999999995,230.48799999999991 L 509.97399999999993,231.1409999999999 L 509.37799999999993,232.3959999999999 L 509.7679999999999,233.6539999999999 L 509.7849999999999,233.6959999999999 L 509.9919999999999,234.2019999999999 L 509.7759999999999,234.5279999999999 L 509.6849999999999,234.70299999999992 L 509.7159999999999,235.2779999999999 L 509.7729999999999,235.9189999999999 L 509.7229999999999,236.2939999999999 L 509.7019999999999,236.7089999999999 L 510.23199999999986,238.56399999999988 L 510.2259999999999,238.99599999999987 L 510.1999999999999,239.27399999999986 L 510.0359999999999,240.41499999999985 L 509.81599999999986,241.93599999999984 L 510.1999999999999,242.33299999999983 L 510.74599999999987,242.80699999999982 L 511.0529999999999,242.99399999999983 L 511.50599999999986,243.55599999999984 L 511.85199999999986,244.10299999999984 L 511.80399999999986,244.46499999999983 L 511.70399999999984,244.86399999999983 L 511.55899999999986,245.14199999999983 L 511.42199999999985,245.52299999999983 L 511.3609999999999,245.80399999999983 L 511.29699999999985,245.87899999999982 L 510.69199999999984,245.90999999999983 L 510.3729999999998,246.01599999999982 L 510.20599999999985,246.13499999999982 L 510.26299999999986,246.77299999999983 L 510.6299999999999,247.93599999999984 L 510.9349999999999,248.75799999999984 L 511.0329999999999,249.29799999999983 L 510.9329999999999,249.84399999999982 L 510.8289999999999,250.12299999999982 L 510.8259999999999,250.49799999999982 L 510.7459999999999,251.24199999999982 L 510.50999999999993,251.61699999999982 L 510.2009999999999,252.0249999999998 L 509.8569999999999,252.3289999999998 L 509.5839999999999,252.41399999999982 L 509.3499999999999,252.4489999999998 L 509.1919999999999,252.6029999999998 L 509.0489999999999,253.0559999999998 L 508.9169999999999,253.5299999999998 L 508.48599999999993,254.1119999999998 L 508.49799999999993,254.3139999999998 L 508.6619999999999,254.9999999999998 L 508.8159999999999,255.7779999999998 L 508.6859999999999,256.5029999999998 L 508.57499999999993,257.2599999999998 L 508.37999999999994,257.7629999999998 L 508.1019999999999,257.9429999999998 L 507.8979999999999,257.85299999999984 L 507.6669999999999,257.16299999999984 L 507.655,257.0 L 507.59799999999996,256.788 L 506.94199999999995,256.577 L 506.82599999999996,256.584 L 506.568,256.46 L 506.417,256.42499999999995 L 506.10699999999997,256.3539999999999 L 505.849,255.73999999999992 L 505.57599999999996,255.22799999999992 L 505.53599999999994,255.01399999999992 L 505.54599999999994,254.05099999999993 L 505.46199999999993,253.62099999999992 L 505.4359999999999,253.15099999999993 L 505.2639999999999,253.53299999999993 L 505.3639999999999,254.13599999999994 L 505.15199999999993,254.38799999999995 L 504.8829999999999,254.51099999999994 L 504.9079999999999,254.86199999999994 L 505.0179999999999,254.92899999999995 L 505.04099999999994,255.29199999999994 L 504.97599999999994,255.82999999999996 L 504.4479999999999,257.01899999999995 L 504.3419999999999,257.14599999999996 L 504.26899999999995,257.306 L 503.99899999999997,257.2 L 503.652,257.53 L 503.323,257.58299999999997 L 503.20399999999995,257.21 L 502.74099999999993,256.715 L 502.5229999999999,256.743 L 502.71899999999994,256.987 L 502.91299999999995,257.30400000000003 L 502.80299999999994,257.51300000000003 L 502.69499999999994,257.65000000000003 L 502.5059999999999,257.72100000000006 L 501.8289999999999,258.13400000000007 L 502.0699999999999,258.41100000000006 L 501.8649999999999,258.7250000000001 L 501.6289999999999,258.7710000000001 L 501.50299999999993,258.9170000000001 L 501.45899999999995,259.11500000000007 L 500.7579999999999,259.68000000000006 L 499.61599999999993,261.12100000000004 L 499.02899999999994,261.52700000000004 L 498.6189999999999,261.94700000000006 L 498.2579999999999,261.93700000000007 L 497.8039999999999,262.2940000000001 L 496.65399999999994,262.6060000000001 L 495.89099999999996,262.4650000000001 L 495.35999999999996,262.5890000000001 L 495.07499999999993,262.3440000000001 L 495.03799999999995,262.1760000000001 L 495.05199999999996,262.0780000000001 L 495.099,261.9600000000001 L 495.0,261.921 L 494.792,261.901 L 494.703,262.019 L 494.691,262.288 L 494.592,262.358 L 494.19599999999997,262.204 L 494.09599999999995,262.06600000000003 L 494.23799999999994,261.785 L 494.48199999999997,261.53200000000004 L 494.438,261.48 L 494.39099999999996,261.326 L 494.27199999999993,261.30600000000004 L 493.91799999999995,261.34400000000005 L 493.62999999999994,261.29800000000006 L 492.69199999999995,260.72700000000003 L 492.47299999999996,260.42100000000005 L 491.71599999999995,259.9320000000001 L 491.37699999999995,259.4120000000001 L 491.18399999999997,258.8400000000001 L 491.19899999999996,258.3200000000001 L 491.292,257.4930000000001 L 491.45099999999996,257.2880000000001 L 492.12999999999994,257.5790000000001 L 492.81699999999995,258.0630000000001 L 492.924,258.0390000000001 L 493.14,257.6590000000001 L 493.558,257.3530000000001 L 493.43899999999996,257.2690000000001 L 492.81699999999995,257.6200000000001 L 492.58599999999996,257.4260000000001 L 492.227,257.0300000000001 L 492.227,256.8250000000001 L 492.39399999999995,256.6200000000001 L 492.44999999999993,256.34300000000013 L 492.36299999999994,256.08100000000013 L 492.40399999999994,255.72400000000013 L 492.6809999999999,255.34500000000014 L 493.0969999999999,254.96000000000015 L 493.39699999999993,254.58700000000016 L 493.7049999999999,254.35800000000015 L 493.67299999999994,254.28100000000015 L 493.32099999999997,254.42700000000013 L 492.984,254.67500000000013 L 492.58799999999997,255.09000000000012 L 492.10499999999996,255.42500000000013 L 491.74799999999993,255.55500000000012 L 491.5779999999999,255.66300000000012 L 491.3159999999999,255.76700000000014 L 491.0449999999999,256.24600000000015 L 490.7489999999999,256.45100000000014 L 490.21899999999994,256.47200000000015 L 490.1019999999999,256.1220000000001 L 490.2519999999999,254.87400000000014 L 490.4119999999999,254.26300000000015 L 490.5879999999999,253.83000000000015 L 490.8639999999999,253.75700000000015 L 491.05799999999994,253.43900000000014 L 491.21899999999994,253.43900000000014 L 491.3589999999999,253.58600000000013 L 491.8999999999999,253.72800000000012 L 492.1669999999999,253.32300000000012 L 492.5139999999999,253.26300000000012 L 493.1469999999999,252.85300000000012 L 493.1339999999999,252.77800000000013 L 492.7059999999999,252.86800000000014 L 492.4459999999999,252.88100000000014 L 492.0739999999999,252.98400000000015 L 491.8759999999999,252.91000000000014 L 491.7829999999999,252.60300000000015 L 491.9319999999999,252.32500000000016 L 492.5289999999999,251.66000000000017 L 492.7359999999999,251.36800000000017 L 492.8529999999999,251.09500000000017 L 492.8339999999999,250.90900000000016 L 492.9339999999999,250.52300000000017 L 493.5179999999999,249.84800000000016 L 493.9939999999999,249.53800000000015 L 494.1499999999999,249.80400000000014 L 494.01699999999994,250.63500000000013 L 494.0179999999999,250.97700000000015 L 494.3939999999999,249.76700000000014 L 494.5599999999999,249.47800000000015 L 494.7479999999999,249.27400000000014 L 495.2039999999999,249.13700000000014 L 495.3329999999999,248.94500000000014 L 494.80099999999993,249.00800000000012 L 493.51199999999994,249.47200000000012 L 492.96899999999994,249.88500000000013 L 492.82399999999996,250.20200000000014 L 492.44699999999995,250.68000000000015 L 492.2699999999999,250.98900000000015 L 492.19199999999995,251.44300000000015 L 491.97999999999996,251.68900000000016 L 491.693,251.78000000000017 L 491.29499999999996,252.35200000000017 L 491.11899999999997,252.81100000000018 L 490.72299999999996,253.17500000000018 L 490.472,253.45500000000018 L 490.38899999999995,253.55500000000018 L 490.25299999999993,253.82900000000018 L 490.13999999999993,253.8490000000002 L 490.0419999999999,253.6880000000002 L 490.0249999999999,253.33400000000017 L 490.06499999999994,252.76600000000016 L 490.2559999999999,252.35600000000017 L 490.3469999999999,251.95500000000015 L 490.22099999999995,251.58000000000015 L 490.30899999999997,251.34200000000016 L 490.47599999999994,251.35100000000014 L 490.78799999999995,251.45900000000015 L 491.11899999999997,251.44200000000015 L 491.664,251.14500000000015 L 491.577,250.97100000000015 L 491.342,250.94600000000014 L 490.90299999999996,250.97100000000015 L 490.53399999999993,250.68000000000015 L 490.24699999999996,250.10000000000014 L 490.11699999999996,249.32200000000014 L 490.20399999999995,249.09900000000013 L 491.26599999999996,248.30300000000014 L 491.55199999999996,247.94000000000014 L 491.38599999999997,247.90400000000014 L 490.98699999999997,248.34400000000014 L 490.417,248.61600000000013 L 490.05699999999996,248.23700000000014 L 489.86999999999995,247.82800000000015 L 489.76199999999994,246.96100000000015 L 489.80099999999993,246.51400000000015 L 489.7559999999999,245.92500000000015 L 489.99999999999994,245.73300000000015 L 490.27199999999993,245.83500000000015 L 490.54099999999994,245.87300000000016 L 491.1499999999999,245.82100000000017 L 492.4939999999999,245.46600000000018 L 493.3599999999999,245.6770000000002 L 493.7119999999999,245.6580000000002 L 494.25099999999986,245.35200000000017 L 494.72199999999987,245.32100000000017 L 495.0749999999999,245.55400000000017 L 495.26799999999986,245.82200000000017 L 495.29199999999986,246.17900000000017 L 495.45499999999987,246.41700000000017 L 495.5649999999999,246.33900000000017 L 495.47699999999986,246.05600000000018 L 495.4589999999999,245.6170000000002 L 496.87599999999986,245.1180000000002 L 497.04299999999984,244.9240000000002 L 496.47999999999985,244.8560000000002 L 496.31899999999985,244.3990000000002 L 496.6159999999999,243.7050000000002 L 496.58799999999985,243.6150000000002 L 496.27499999999986,243.9820000000002 L 496.12099999999987,244.4960000000002 L 496.1829999999999,244.9060000000002 L 496.12099999999987,245.0960000000002 L 495.83299999999986,245.1830000000002 L 495.18499999999983,245.2150000000002 L 494.76899999999983,245.0410000000002 L 494.38399999999984,244.9470000000002 L 494.2529999999999,244.8160000000002 L 494.29699999999985,244.5230000000002 L 494.2239999999999,244.4620000000002 L 494.06399999999985,244.7250000000002 L 493.92199999999985,245.2480000000002 L 493.6159999999999,245.3690000000002 L 492.77099999999984,245.1750000000002 L 491.54799999999983,245.28900000000021 L 490.99899999999985,245.55100000000022 L 490.64399999999983,245.51700000000022 L 490.0319999999998,245.05700000000022 L 489.7939999999998,244.69000000000023 L 489.7049999999998,243.94800000000023 L 489.7409999999998,243.62100000000024 L 490.2169999999998,243.48300000000023 L 490.4579999999998,243.49200000000022 L 490.6839999999998,243.31600000000023 L 490.4839999999998,243.20100000000022 L 490.2029999999998,242.97500000000022 L 490.01199999999983,242.52300000000022 L 489.72299999999984,242.37500000000023 L 489.52999999999986,241.98800000000023 L 489.4809999999999,241.40300000000022 L 489.5359999999999,240.99500000000023 L 489.6899999999999,240.86400000000023 L 490.06099999999986,240.95300000000023 L 491.0389999999999,240.88400000000024 L 491.9589999999999,241.30000000000024 L 492.5839999999999,241.53400000000025 L 493.8489999999999,241.41600000000025 L 494.58999999999986,241.04500000000024 L 494.45399999999984,240.94300000000024 L 493.64999999999986,241.15700000000024 L 492.90699999999987,241.14800000000025 L 491.59699999999987,240.72900000000024 L 491.0599999999999,240.59400000000025 L 490.4809999999999,240.65400000000025 L 490.1799999999999,240.52700000000024 L 490.0029999999999,240.11100000000025 L 490.13399999999984,239.31300000000024 L 490.40799999999984,239.14100000000025 L 490.55599999999987,239.34900000000025 L 490.73499999999984,239.36200000000025 L 490.91699999999986,239.02800000000025 L 491.08999999999986,238.83700000000024 L 491.22799999999984,238.40500000000026 L 491.74699999999984,237.99400000000026 L 491.96599999999984,237.95900000000026 L 492.27999999999986,237.77000000000027 L 492.4809999999999,237.82400000000027 L 492.60899999999987,238.01400000000027 L 492.7719999999999,238.17100000000028 L 493.12399999999985,238.15200000000027 L 494.1659999999998,237.82200000000026 L 494.27799999999985,237.72500000000025 L 494.4809999999998,237.45400000000026 L 493.8209999999998,237.57500000000027 L 493.2729999999998,237.76700000000028 L 492.9199999999998,237.82100000000028 L 492.8699999999998,237.58000000000027 L 492.9999999999998,237.36700000000027 L 493.2039999999998,237.13900000000027 L 493.30299999999977,236.75000000000026 L 493.5279999999998,236.58400000000026 L 493.7709999999998,236.59300000000025 L 494.2729999999998,236.52200000000025 L 494.6269999999998,236.42100000000025 L 495.2339999999998,236.48800000000026 L 496.1399999999998,236.63700000000026 L 496.72299999999984,236.99900000000025 L 496.94299999999987,236.96600000000026 L 497.1759999999999,236.87000000000026 L 497.28199999999987,236.73900000000026 L 496.82399999999984,236.58900000000025 L 496.79799999999983,236.37400000000025 L 496.85499999999985,236.21200000000024 L 497.60299999999984,235.91300000000024 L 498.4189999999998,235.84700000000024 L 498.2789999999998,235.60600000000022 L 496.4909999999998,235.97000000000023 L 496.02399999999983,235.72100000000023 L 495.6549999999998,235.72300000000024 L 495.4139999999998,235.86500000000024 L 494.72599999999983,236.03700000000023 L 494.59999999999985,235.91500000000022 L 494.7309999999998,235.49300000000022 L 495.1429999999998,234.79900000000023 L 495.1769999999998,234.62900000000025 L 495.36799999999977,234.46100000000024 L 496.43599999999975,234.05600000000024 L 496.9489999999997,233.58400000000023 L 497.1799999999997,233.52400000000023 L 497.4089999999997,233.55700000000022 L 497.7579999999997,233.5020000000002 L 498.4319999999997,233.6370000000002 L 498.74299999999965,234.2270000000002 L 499.02199999999965,234.4120000000002 L 499.89899999999966,235.1460000000002 L 499.8599999999997,234.9360000000002 L 499.0999999999997,233.9390000000002 L 498.80999999999966,233.6910000000002 L 498.5929999999997,233.1990000000002 L 498.6669999999997,232.7330000000002 L 498.9109999999997,232.4210000000002 L 499.77799999999974,232.2540000000002 L 499.9329999999997,232.07300000000018 L 499.9489999999997,231.76200000000017 L 499.81599999999975,231.54900000000018 L 499.49699999999973,231.56100000000018 L 499.23399999999975,231.42900000000017 L 499.16199999999975,231.09300000000016 L 499.26699999999977,230.86500000000015 L 499.76699999999977,230.44800000000015 L 500.0399999999998,230.31300000000016 L 500.5139999999998,230.16700000000017 L 501.33699999999976,230.49700000000018 L 501.39999999999975,230.66900000000018 L 501.16899999999976,231.08300000000017 L 501.1919999999998,231.31500000000017 L 501.3939999999998,231.34000000000017 L 501.8639999999998,230.64200000000017 L 502.4169999999998,230.54500000000016 L 502.6459999999998,230.39500000000015 L 502.9119999999998,230.30000000000015 L 503.2909999999998,230.93200000000016 L 503.4579999999998,231.13400000000016 L 503.5829999999998,231.21700000000016 L 503.7039999999998,231.74100000000016 L 503.8209999999998,231.76900000000015 L 503.9879999999998,231.50700000000015 L 504.29099999999977,231.36800000000014 L 504.7159999999998,231.27700000000013 L 505.4199999999998,231.41600000000014 L 505.7389999999998,231.31300000000013 L 505.8949999999998,231.32800000000012 L 505.74499999999983,230.8570000000001 L 505.6519999999998,230.7200000000001 L 505.7969999999998,230.29800000000012 L 505.9479999999998,230.13300000000012 L 506.4339999999998,229.83600000000013 L 506.8979999999998,229.70300000000012 L 507.2009999999998,229.4210000000001 L 507.6079999999998,229.1600000000001 L 507.54399999999976,228.9520000000001 L 507.43099999999976,228.71000000000012 L 507.16699999999975,228.69500000000014 L 507.0599999999997,228.56300000000013 L 507.3939999999997,228.24900000000014 L 507.85199999999975,227.89900000000014 L 507.77199999999976,227.76100000000014 L 507.42799999999977,227.60500000000013 L 507.16699999999975,227.72200000000012 L 506.77899999999977,227.9930000000001 L 506.32699999999977,228.4210000000001 L 506.47399999999976,228.5460000000001 L 506.69999999999976,228.90500000000011 L 506.38499999999976,229.3810000000001 L 504.71299999999974,230.6400000000001 L 503.9159999999997,231.0070000000001 L 503.5479999999997,230.9500000000001 L 503.4599999999997,230.6070000000001 L 503.2909999999997,230.35400000000013 L 503.1089999999997,229.82900000000012 L 502.7989999999997,229.84300000000013 L 502.6229999999997,229.95900000000015 L 502.5469999999997,229.78700000000015 L 502.67999999999967,229.22500000000014 L 502.94199999999967,228.78000000000014 L 503.3809999999997,228.44300000000015 L 503.5919999999997,228.03500000000017 L 503.7899999999997,227.38600000000017 L 504.42499999999967,226.76600000000016 L 505.34899999999965,225.22400000000016 L 506.10199999999963,224.72900000000016 L 506.37799999999964,224.18600000000015 L 506.82199999999966,223.94600000000014 L 507.2009999999997,223.52100000000013 L 507.4979999999997,223.47900000000013 L 508.0379999999997,223.09500000000014 L 508.3439999999997,222.63700000000014 L 508.1439999999997,222.60900000000015 L 507.6689999999997,222.90600000000015 L 507.3999999999997,223.02600000000015 L 507.4189999999997,222.53500000000014 L 507.5489999999997,222.03000000000014 L 507.9399999999997,221.56700000000015 L 509.8209999999997,220.21600000000015 L 510.0089999999997,220.44000000000014 L 510.2339999999997,220.83600000000013 L 510.79999999999967,220.74700000000013 L 511.4459999999997,219.98000000000013 L 511.9429999999997,219.14300000000014 L 511.6739999999997,219.28900000000013 L 511.3809999999997,219.63200000000012 L 510.80999999999966,220.1070000000001 L 510.54599999999965,220.1820000000001 L 510.39499999999964,220.1200000000001 L 510.31099999999964,219.80300000000008 L 510.11299999999966,219.70000000000007 L 509.9339999999997,219.77100000000007 L 509.7489999999997,219.54500000000007 L 509.71599999999967,218.98600000000008 L 509.95199999999966,218.15100000000007 L 510.13899999999967,217.59700000000007 L 510.34099999999967,217.17600000000007 L 511.13499999999965,215.97600000000008 L 511.30599999999964,215.3180000000001 L 511.6649999999996,214.97000000000008 L 512.1309999999996,215.04700000000008 L 512.2719999999996,214.94600000000008 L 512.1119999999996,214.51200000000009 L 511.60399999999964,214.1680000000001 L 511.57299999999964,213.95100000000008 L 513.2659999999996,213.38000000000008 L 514.0719999999997,213.3990000000001 L 514.3109999999997,213.1140000000001 L 514.7489999999997,212.9300000000001 L 515.0809999999997,212.5800000000001 L 514.9099999999996,212.4250000000001 L 514.0909999999997,212.7470000000001 L 513.5789999999997,212.8980000000001 L 513.3479999999997,212.89300000000011 L 513.1669999999997,213.00300000000013 L 512.5129999999997,213.04500000000013 L 512.3699999999997,211.64800000000014 L 512.4729999999996,210.88500000000013 L 512.7169999999996,210.90100000000012 L 512.7729999999997,210.17000000000013 L 513.0549999999997,209.73700000000014 L 513.4439999999997,209.64000000000013 L 513.6399999999998,209.45500000000013 L 513.9229999999998,209.07700000000014 L 514.3909999999997,209.16400000000013 L 514.8719999999997,209.08000000000013 L 514.7519999999997,208.90100000000012 L 514.1549999999997,208.67100000000013 L 514.0079999999997,208.27500000000015 L 514.2179999999997,208.05300000000014 L 514.4469999999998,207.89000000000013 L 514.6489999999998,207.86100000000013 L 515.0479999999998,207.08400000000015 L 515.2909999999998,206.75100000000015 L 515.5619999999998,206.80900000000014 L 515.9399999999998,206.46500000000015 L 516.3119999999998,206.58200000000014 L 516.6709999999998,206.35700000000014 L 517.1619999999998,206.20800000000014 L 518.9589999999998,206.15100000000015 L 519.0119999999998,205.83000000000015 L 518.6339999999998,205.75600000000014 L 517.2989999999998,205.67300000000014 L 516.6169999999997,205.68000000000015 L 516.3299999999997,205.76300000000015 L 516.2249999999997,205.65100000000015 L 516.2439999999997,205.45900000000015 L 516.4919999999997,205.15400000000014 L 516.6089999999997,204.81700000000015 L 517.1049999999997,203.99100000000016 L 517.6859999999997,203.43900000000016 L 518.1309999999997,203.58000000000015 L 518.6039999999997,204.10700000000014 L 518.9409999999997,204.17300000000014 L 519.0979999999997,204.34300000000013 L 519.3439999999997,205.06700000000012 L 519.4609999999997,205.09000000000012 L 519.4079999999997,204.39500000000012 L 519.7329999999997,203.8270000000001 L 519.6489999999998,203.6700000000001 L 519.1609999999997,203.8760000000001 L 518.7869999999997,203.6620000000001 L 518.4919999999997,203.2340000000001 L 518.4079999999998,202.8420000000001 L 518.5919999999998,202.4540000000001 L 518.7649999999998,202.2580000000001 L 518.6479999999998,202.02900000000008 L 517.9099999999997,202.64000000000007 L 517.3879999999997,202.78300000000007 L 517.1819999999997,202.69800000000006 L 517.2929999999997,202.14400000000006 L 517.2309999999997,201.70300000000006 L 517.9309999999997,200.61300000000006 L 518.1719999999997,200.48700000000005 L 518.5649999999997,200.57500000000005 L 518.9199999999997,200.88300000000004 L 519.2169999999998,200.83400000000003 L 519.5389999999998,200.66900000000004 L 519.4949999999998,200.37300000000005 L 518.7969999999998,200.25500000000005 L 518.6169999999998,200.00900000000004 L 518.6819999999999,199.76600000000005 L 519.161,199.51000000000005 L 519.6379999999999,199.04700000000005 L 520.184,198.91200000000006 L 520.6229999999999,198.56100000000006 L 520.708,198.64100000000008 L 520.7819999999999,198.77900000000008 L 520.9399999999999,200.07700000000008 L 521.333,201.12900000000008 L 521.478,201.1670000000001 L 521.327,200.27300000000008 L 521.468,200.01500000000007 L 521.646,199.81900000000007 L 521.702,199.59500000000008 L 521.498,199.5190000000001 L 521.331,199.1970000000001 L 521.093,198.1640000000001 L 521.175,197.8940000000001 L 521.692,197.3400000000001 L 522.34,197.21300000000008 L 523.0300000000001,197.60100000000008 L 523.2730000000001,197.60500000000008 L 523.6730000000001,197.50100000000006 L 524.3520000000001,197.18100000000007 L 524.7520000000001,197.05900000000005 L 524.96,197.05900000000005 L 525.0110000000001,196.89700000000005 L 524.8180000000001,196.79300000000003 L 524.7560000000001,196.69200000000004 L 524.6050000000001,196.63400000000004 L 523.9770000000001,196.80700000000004 L 522.2440000000001,196.75200000000004 L 522.0770000000001,196.56700000000004 L 522.0460000000002,196.24600000000004 L 522.2300000000001,195.78600000000003 L 522.4320000000001,195.53100000000003 L 523.0860000000001,195.07200000000003 L 523.7770000000002,195.01000000000002 L 524.5060000000002,194.19100000000003 L 524.7840000000002,193.57500000000002 L 524.9420000000002,192.62 L 525.3860000000002,191.844 L 526.5000000000002,191.40099999999998 L 526.5450000000002,191.20499999999998 L 526.4270000000001,190.79799999999997 L 526.4370000000001,190.06399999999996 L 526.7420000000001,189.20499999999996 L 526.945,188.90599999999995 L 527.0390000000001,188.86999999999995 L 527.2790000000001,189.15199999999996 L 527.5710000000001,189.74999999999997 L 528.0280000000001,190.09199999999998 L 528.6270000000002,190.15099999999998 L 528.7870000000001,189.98299999999998 L 528.3220000000001,189.64299999999997 L 527.9690000000002,189.19699999999997 L 527.9410000000001,188.74799999999996 L 528.1080000000002,188.50999999999996 L 528.3680000000002,188.53599999999997 L 528.6940000000002,188.48599999999996 L 528.9980000000002,188.18299999999996 L 529.0420000000001,187.96999999999997 L 529.0550000000002,187.67999999999998 L 529.1310000000002,187.385 L 529.5770000000002,186.678 L 530.9510000000002,186.21699999999998 L 531.0510000000003,186.40499999999997 L 530.9770000000003,187.76799999999997 L 530.8190000000003,188.64399999999998 L 530.8240000000003,189.28199999999998 L 531.0920000000003,188.64399999999998 L 531.4500000000003,186.88699999999997 L 531.7200000000003,186.05499999999998 L 532.0240000000002,185.57599999999996 L 532.2410000000002,185.46799999999996 L 532.4560000000002,185.21899999999997 L 532.7400000000002,185.07099999999997 L 532.8270000000002,185.26199999999997 L 532.9170000000003,185.70499999999998 L 532.7640000000002,187.25099999999998 L 532.7790000000002,187.73699999999997 L 532.6080000000002,188.38599999999997 L 531.9530000000002,189.82499999999996 L 531.9830000000002,190.00799999999995 L 532.1310000000002,189.93999999999994 L 532.3840000000002,189.70399999999995 L 533.1960000000003,188.33599999999996 L 533.9050000000002,188.50899999999996 L 533.9140000000002,188.39699999999996 L 533.6860000000003,187.99399999999997 L 533.4090000000002,187.60699999999997 L 533.3250000000003,187.12699999999998 L 533.3620000000003,185.83899999999997 L 533.5760000000004,185.32599999999996 L 534.1880000000003,185.37999999999997 L 534.5550000000003,185.30899999999997 L 534.7260000000003,185.54199999999997 L 535.0930000000003,185.52499999999998 L 535.3470000000003,184.59499999999997 L 535.8500000000004,184.51299999999998 L 536.2920000000004,185.129 L 536.8230000000003,185.542 L 537.2500000000003,186.13400000000001 L 537.3710000000003,185.972 L 537.1410000000003,184.586 L 536.8890000000004,184.078 L 536.3420000000003,183.81300000000002 L 535.7590000000004,183.18400000000003 L 535.6080000000004,182.90400000000002 L 535.6340000000004,182.69600000000003 L 536.1480000000004,182.49500000000003 L 536.8260000000004,182.72600000000003 L 537.4300000000004,182.19900000000004 L 537.5950000000004,182.34400000000005 L 538.0580000000003,182.06800000000004 L 538.3460000000003,182.44000000000005 L 538.5230000000004,182.33000000000004 L 538.6250000000003,181.83100000000005 L 539.3640000000004,181.52100000000004 L 539.8330000000004,181.80800000000005 L 540.0840000000004,182.10300000000004 L 540.2010000000004,182.67000000000004 L 540.3800000000003,183.78500000000005 L 540.7460000000003,184.38400000000004 L 540.9740000000003,184.67700000000005 L 541.2430000000003,184.75800000000004 L 541.3730000000003,184.46000000000004 L 541.1210000000003,184.10000000000002 L 541.0530000000003,183.76000000000002 L 541.1740000000003,182.91400000000002 L 541.3150000000003,182.58100000000002 L 542.1060000000003,181.312 L 542.7680000000004,180.65 L 543.1640000000003,180.594 L 543.8580000000003,179.101 L 544.0540000000003,178.828 L 544.2350000000004,178.76500000000001 L 544.1890000000003,178.39700000000002 L 543.8100000000003,178.16400000000002 L 543.7970000000003,177.70600000000002 L 544.2970000000003,177.14800000000002 L 544.9040000000002,176.20700000000002 L 545.2030000000002,176.14400000000003 L 545.3910000000002,176.40600000000003 L 545.9820000000002,176.83100000000005 L 546.3440000000002,177.31600000000006 L 546.6060000000001,177.56000000000006 L 546.7760000000001,177.50900000000007 L 546.917,177.14500000000007 L 547.087,176.97400000000007 L 547.462,177.07000000000008 L 547.686,177.3040000000001 L 547.861,177.3350000000001 L 548.019,177.4770000000001 L 548.056,177.7880000000001 L 547.731,178.1270000000001 L 547.177,179.0200000000001 L 546.631,180.0300000000001 L 546.451,180.5600000000001 L 546.274,181.9430000000001 L 545.847,182.8220000000001 L 545.814,183.4360000000001 L 545.986,183.7240000000001 L 546.457,183.4980000000001 L 547.038,182.67900000000012 L 547.183,181.80500000000012 L 548.636,179.41400000000013 L 549.318,178.08000000000013 L 550.092,176.96700000000013 L 550.526,176.73600000000013 L 550.7299999999999,177.47500000000014 L 550.5659999999999,178.43500000000014 L 550.237,179.04400000000015 L 550.48,179.32300000000015 L 550.434,180.04300000000015 L 550.358,180.44200000000015 L 550.31,180.85900000000015 L 550.313,181.22500000000016 L 550.5409999999999,181.12700000000015 L 551.448,180.37500000000014 L 551.678,179.55700000000013 L 551.891,178.94100000000012 L 551.9929999999999,178.40800000000013 L 552.3459999999999,177.90100000000012 L 553.012,177.89700000000013 L 553.0379999999999,177.69700000000014 L 552.23,177.0 L 552.135,176.681 L 552.406,176.25500000000002 L 553.151,175.43900000000002 L 553.534,175.52900000000002 L 553.763,175.71500000000003 L 554.6800000000001,175.85700000000003 L 555.384,176.44000000000003 L 555.357,177.34900000000002 L 555.1999999999999,177.727 L 555.0459999999999,177.959 L 554.145,178.643 L 553.997,178.98 L 554.28,179.096 L 554.8879999999999,178.756 L 555.0459999999999,179.065 L 554.852,179.835 L 554.819,180.984 L 554.7489999999999,181.651 L 554.7489999999999,182.257 L 554.8249999999999,182.582 L 555.0699999999999,181.292 L 555.1529999999999,180.959 L 555.5109999999999,180.47 L 555.6439999999999,179.481 L 555.9939999999999,178.286 L 556.3889999999999,177.588 L 556.6179999999999,177.397 L 557.3779999999999,177.42399999999998 L 557.704,177.68699999999998 L 557.992,178.26999999999998 L 558.207,178.503 L 558.885,178.75 L 559.117,179.059 L 559.16,179.243 L 559.326,179.28 L 559.784,178.841 L 560.081,178.768 L 560.565,179.452 L 560.4680000000001,179.957 L 560.4960000000001,180.117 L 561.0820000000001,180.08499999999998 L 561.5700000000002,180.283 L 562.4970000000002,181.31099999999998 L 562.5940000000002,181.789 L 562.5480000000001,182.367 L 561.21,183.0 L 560.6320000000001,183.604 L 559.686,183.836 L 556.474,183.43200000000002 L 556.5390000000001,183.86900000000003 L 558.7760000000001,184.82000000000002 L 558.9040000000001,185.091 L 558.8320000000001,185.65900000000002 L 558.8310000000001,186.11400000000003 L 558.8730000000002,186.42400000000004 L 559.0380000000001,186.71200000000005 L 559.3110000000001,186.84700000000004 L 559.8680000000002,186.77600000000004 L 560.1420000000002,186.93100000000004 L 560.3300000000002,186.70200000000003 L 560.4000000000002,185.92900000000003 L 560.5620000000002,185.75800000000004 L 560.8740000000003,185.98300000000003 L 561.0100000000002,186.80900000000003 L 561.0970000000002,186.89400000000003 L 561.2540000000002,186.30600000000004 L 561.5630000000002,186.34800000000004 L 561.9000000000002,186.29900000000004 L 562.335,186.396 M 541.485,177.806 L 541.4300000000001,178.074 L 541.335,178.334 L 541.105,178.608 L 540.439,179.689 L 540.048,179.862 L 539.924,180.031 L 539.768,180.132 L 539.282,179.985 L 539.14,180.203 L 539.006,180.349 L 538.654,180.405 L 538.447,180.358 L 537.914,179.96 L 537.597,179.52800000000002 L 537.425,179.15800000000002 L 537.918,179.16500000000002 L 538.093,179.07500000000002 L 538.424,179.15300000000002 L 538.6229999999999,178.77200000000002 L 539.0429999999999,178.818 L 539.8499999999999,178.55300000000003 L 540.146,178.70100000000002 L 540.823,177.812 L 541.035,177.835 L 541.3589999999999,177.58 L 541.485,177.806 M 543.104,179.913 L 542.5690000000001,180.24900000000002 L 542.2590000000001,179.96000000000004 L 542.1290000000001,179.66300000000004 L 542.1100000000001,179.00200000000004 L 542.1820000000001,178.59800000000004 L 542.4330000000001,178.38900000000004 L 542.5960000000001,178.54200000000003 L 542.6390000000001,178.67000000000002 L 542.9310000000002,178.79500000000002 L 543.2740000000001,179.211 L 543.104,179.913 M 541.976,180.065 L 542.028,180.459 L 542.048,180.78300000000002 L 541.7860000000001,181.25000000000003 L 541.182,181.86100000000002 L 541.217,182.025 L 541.008,182.18200000000002 L 540.695,182.29700000000003 L 540.5300000000001,182.18600000000004 L 540.5520000000001,181.66300000000004 L 540.5020000000002,181.50700000000003 L 540.2650000000002,181.71500000000003 L 540.0180000000003,181.44800000000004 L 540.0180000000003,181.18000000000004 L 540.0830000000003,180.94700000000003 L 540.3120000000004,180.59200000000004 L 540.6930000000003,180.34700000000004 L 540.9440000000003,180.43900000000005 L 541.7820000000003,179.49600000000004 L 541.8720000000003,179.69400000000005 L 541.976,180.065 M 531.177,182.843 L 531.32,182.94 L 531.4620000000001,182.88 L 531.5790000000001,182.965 L 531.8140000000001,183.401 L 532.0670000000001,183.572 L 532.0790000000001,183.79 L 531.8480000000001,184.00199999999998 L 531.5430000000001,184.06599999999997 L 531.2160000000001,183.99199999999996 L 531.1200000000001,183.71999999999997 L 531.0190000000001,183.26699999999997 L 530.7460000000001,182.82199999999997 L 530.705,182.43099999999998 L 530.9430000000001,182.36899999999997 L 531.177,182.843 M 529.739,184.084 L 529.988,184.531 L 530.2090000000001,184.488 L 530.2750000000001,184.32 L 530.4250000000001,184.236 L 530.729,184.47299999999998 L 530.686,184.874 L 530.265,185.379 L 529.963,186.09699999999998 L 529.577,186.26299999999998 L 529.391,186.17699999999996 L 529.045,186.58999999999997 L 528.769,187.01799999999997 L 528.482,187.55799999999996 L 528.4639999999999,187.83599999999996 L 528.419,188.04799999999994 L 527.3679999999999,188.25799999999995 L 526.986,188.39699999999996 L 526.581,188.21799999999996 L 526.389,187.86199999999997 L 526.451,187.66899999999995 L 526.855,187.59199999999996 L 526.868,187.26099999999997 L 526.971,187.05899999999997 L 527.102,186.94799999999998 L 527.198,186.52399999999997 L 527.358,186.41299999999998 L 527.656,186.517 L 527.857,186.209 L 527.97,186.156 L 528.109,186.411 L 528.176,186.06 L 528.109,185.739 L 528.144,185.522 L 528.529,184.957 L 528.696,184.54399999999998 L 528.936,184.277 L 529.167,184.319 L 529.234,183.92499999999998 L 529.167,183.521 L 529.192,183.25699999999998 L 529.396,182.61499999999998 L 529.62,182.588 L 529.723,183.159 L 529.739,184.084 M 534.016,183.892 L 533.865,184.083 L 533.633,184.161 L 533.508,184.043 L 533.33,183.965 L 533.132,184.0 L 532.9659999999999,183.649 L 532.9849999999999,183.354 L 533.2119999999999,182.954 L 533.6669999999999,182.726 L 534.035,182.82 L 534.129,182.93699999999998 L 534.016,183.892 M 559.771,186.288 L 559.2379999999999,186.525 L 559.1759999999999,186.33 L 559.2929999999999,186.026 L 559.4329999999999,185.40200000000002 L 559.6519999999999,185.42700000000002 L 559.8739999999999,185.66500000000002 L 560.0479999999999,185.949 L 559.771,186.288 M 524.822,187.908 L 525.159,188.367 L 525.31,188.227 L 525.6089999999999,188.174 L 525.8309999999999,188.336 L 526.0129999999999,188.627 L 526.228,188.64000000000001 L 526.3629999999999,189.02 L 526.4319999999999,189.513 L 526.276,189.88 L 526.054,190.047 L 525.994,190.478 L 526.078,191.08100000000002 L 525.5799999999999,191.287 L 525.0039999999999,191.37900000000002 L 524.7779999999999,191.091 L 524.3179999999999,191.61700000000002 L 523.8609999999999,192.43400000000003 L 523.6409999999998,192.53000000000003 L 523.6249999999999,192.27200000000002 L 523.2969999999999,192.09300000000002 L 522.877,192.08300000000003 L 522.891,191.89100000000002 L 522.968,191.75600000000003 L 523.3299999999999,191.55500000000004 L 523.4019999999999,191.13900000000004 L 523.3359999999999,190.39500000000004 L 523.3999999999999,190.03200000000004 L 523.4139999999999,189.78200000000004 L 523.6419999999998,189.48800000000003 L 524.4219999999998,189.62600000000003 L 524.5169999999998,189.34500000000003 L 524.4579999999999,189.16800000000003 L 524.0549999999998,188.85800000000003 L 524.1169999999998,188.64900000000003 L 524.4079999999999,188.46200000000002 L 524.6829999999999,188.437 L 524.7659999999998,188.121 L 524.7799999999999,187.982 L 524.822,187.908 M 519.931,196.038 L 519.965,196.092 L 520.347,195.352 L 520.771,195.121 L 520.7969999999999,194.86200000000002 L 520.9609999999999,194.61200000000002 L 520.9419999999999,194.20200000000003 L 521.0249999999999,193.86900000000003 L 521.2409999999999,193.78000000000003 L 521.3759999999999,193.66700000000003 L 521.5249999999999,193.60400000000004 L 521.7959999999998,193.87500000000003 L 521.9479999999999,194.17500000000004 L 522.1379999999999,194.84300000000005 L 522.059,195.48700000000005 L 521.55,195.98800000000006 L 521.146,196.21300000000005 L 520.737,196.78500000000005 L 520.5319999999999,197.25200000000007 L 520.3549999999999,197.35300000000007 L 520.2439999999999,197.31500000000005 L 520.1449999999999,197.20300000000006 L 519.9379999999999,197.20300000000006 L 519.7099999999999,197.60700000000006 L 519.0219999999999,197.93500000000006 L 518.752,197.84000000000006 L 518.74,197.43800000000007 L 518.5790000000001,197.47100000000006 L 518.321,197.95300000000006 L 518.0690000000001,198.11400000000006 L 517.9000000000001,198.16300000000007 L 517.589,197.98200000000006 L 516.753,198.80000000000007 L 515.969,198.95200000000006 L 515.711,198.85800000000006 L 515.71,198.35800000000006 L 516.217,197.71600000000007 L 516.632,197.26900000000006 L 518.0619999999999,196.95600000000007 L 518.9529999999999,195.62000000000006 L 519.1679999999999,194.15700000000007 L 519.3779999999999,193.62500000000006 L 519.2789999999999,193.32400000000007 L 519.0399999999998,193.27100000000007 L 519.0249999999999,192.80700000000007 L 519.1499999999999,192.29900000000006 L 519.6169999999998,191.59900000000007 L 519.8769999999998,191.30000000000007 L 520.2999999999998,190.45100000000008 L 520.5039999999998,190.26000000000008 L 520.7359999999998,190.26000000000008 L 520.9649999999998,190.4830000000001 L 520.9239999999998,190.9380000000001 L 520.5809999999998,191.7560000000001 L 520.0729999999998,192.4500000000001 L 520.1349999999998,192.94700000000012 L 520.3369999999998,193.35400000000013 L 520.3869999999997,194.04800000000012 L 520.3999999999997,194.7140000000001 L 520.0149999999998,195.6100000000001 L 519.931,196.038 M 518.378,193.083 L 518.743,193.867 L 518.9100000000001,194.32399999999998 L 518.7750000000001,195.183 L 518.4200000000001,195.61499999999998 L 517.873,195.69199999999998 L 517.489,195.65599999999998 L 517.2470000000001,195.44799999999998 L 517.2170000000001,195.21499999999997 L 517.0770000000001,195.146 L 516.7080000000001,195.446 L 516.4520000000001,195.486 L 516.1260000000001,195.254 L 516.0380000000001,194.88199999999998 L 516.3840000000001,194.41499999999996 L 516.5440000000001,194.05099999999996 L 516.9270000000001,194.08299999999997 L 517.0230000000001,194.19599999999997 L 517.2400000000001,194.26699999999997 L 517.3720000000001,193.82799999999997 L 517.3420000000001,193.52399999999997 L 517.4390000000001,193.31199999999998 L 517.902,193.46499999999997 L 517.903,192.63499999999996 L 518.083,192.57699999999997 L 518.1569999999999,192.60899999999998 L 518.29,192.784 L 518.378,193.083 M 514.634,198.292 L 514.801,198.421 L 515.2370000000001,198.38299999999998 L 515.325,198.43099999999998 L 515.2620000000001,198.64399999999998 L 515.0730000000001,198.878 L 514.676,199.022 L 514.4970000000001,199.379 L 514.369,199.5 L 514.0260000000001,199.501 L 513.8230000000001,199.584 L 513.5740000000001,199.9 L 513.3750000000001,199.667 L 513.3190000000001,199.833 L 513.2830000000001,200.129 L 513.1720000000001,200.215 L 512.8280000000001,200.322 L 512.7450000000001,199.633 L 512.9030000000001,199.383 L 513.0270000000002,199.083 L 513.2170000000002,199.037 L 513.3870000000002,199.062 L 513.6940000000002,198.41400000000002 L 514.1140000000001,198.229 L 514.3850000000001,198.20800000000003 L 514.634,198.292 M 512.104,201.23 L 511.689,201.623 L 511.84000000000003,200.905 L 512.0640000000001,200.175 L 512.374,199.756 L 512.528,199.92 L 512.457,200.271 L 512.458,200.617 L 512.3919999999999,200.78 L 512.104,201.23 M 510.556,214.351 L 510.296,214.396 L 510.339,214.09099999999998 L 510.549,213.801 L 510.63,213.60299999999998 L 510.67199999999997,213.36899999999997 L 510.85799999999995,213.19199999999998 L 511.11999999999995,213.41899999999998 L 511.12499999999994,213.80299999999997 L 510.99499999999995,214.15299999999996 L 510.556,214.351 M 510.808,215.324 L 510.58299999999997,215.34400000000002 L 510.585,215.06300000000002 L 510.714,214.80700000000002 L 510.918,214.63600000000002 L 511.181,214.59100000000004 L 511.47499999999997,214.57100000000003 L 511.56399999999996,214.70700000000002 L 511.395,214.89800000000002 L 510.808,215.324 M 509.288,217.205 L 509.10200000000003,217.41400000000002 L 508.75500000000005,217.354 L 508.7180000000001,217.174 L 508.81700000000006,216.814 L 509.0280000000001,216.665 L 509.30000000000007,216.694 L 509.38700000000006,216.844 L 509.288,217.205 M 507.221,222.297 L 507.074,222.481 L 506.747,222.334 L 506.10200000000003,222.448 L 505.84200000000004,222.269 L 506.04900000000004,221.919 L 506.63200000000006,221.55100000000002 L 506.94500000000005,221.568 L 507.26400000000007,222.02 L 507.221,222.297 M 499.473,230.038 L 499.151,230.053 L 498.957,229.911 L 499.418,229.629 L 500.141,229.35899999999998 L 500.21000000000004,229.188 L 500.297,229.167 L 500.422,229.377 L 500.43800000000005,229.66500000000002 L 500.35800000000006,229.80800000000002 L 499.473,230.038 M 498.439,232.108 L 498.16400000000004,232.112 L 497.83700000000005,232.016 L 497.63200000000006,231.81099999999998 L 497.6000000000001,231.62999999999997 L 497.9770000000001,231.40499999999997 L 498.3560000000001,231.27299999999997 L 498.5320000000001,231.52099999999996 L 498.5450000000001,231.92699999999996 L 498.439,232.108 M 489.616,245.658 L 489.36699999999996,245.731 L 489.167,245.668 L 489.238,245.114 L 489.342,245.024 L 489.493,244.992 L 489.656,245.289 L 489.616,245.658 M 489.973,250.106 L 489.982,250.777 L 489.72400000000005,250.726 L 489.60800000000006,250.469 L 489.57400000000007,250.304 L 489.5950000000001,249.915 L 489.5370000000001,249.513 L 489.6130000000001,249.31300000000002 L 489.7070000000001,249.28600000000003 L 489.8740000000001,249.64400000000003 L 489.973,250.106" id="NO" title="Norway"/>
</svg>
