<svg xmlns="http://www.w3.org/2000/svg" xmlns:ev="http://www.w3.org/2001/xml-events" xmlns:xlink="http://www.w3.org/1999/xlink" baseProfile="full" height="12.78399658203125" version="1.1" viewBox="700.3629760742188 373.62799072265625 22.76104736328125 12.78399658203125" width="22.76104736328125">
	<defs/>
	<path class="land" d="M 722.979,381.675 L 723.092,381.761 L 723.104,381.902 L 723.083,382.058 L 722.967,382.395 L 722.861,382.631 L 722.738,383.13 L 722.627,383.993 L 722.651,384.144 L 722.982,384.637 L 723.111,385.017 L 723.124,385.274 L 722.983,385.707 L 722.824,386.194 L 722.746,386.304 L 722.656,386.343 L 722.247,386.173 L 721.966,386.197 L 721.642,386.291 L 721.304,386.272 L 721.024,386.216 L 720.671,386.412 L 720.332,386.306 L 720.115,386.185 L 719.971,385.846 L 719.91,385.803 L 719.197,386.157 L 719.026,386.179 L 718.583,385.989 L 718.221,385.8 L 718.085,385.744 L 717.735,385.67 L 717.421,385.627 L 717.078,385.51 L 716.652,385.664 L 716.48,385.651 L 716.32,385.54 L 716.236,385.313 L 716.215,385.097 L 716.07,384.949 L 715.847,384.915 L 715.532,385.048 L 715.073,385.224 L 714.925,385.194 L 714.789,385.144 L 714.739,385.097 L 714.676,384.894 L 714.603,384.849 L 714.496,384.842 L 714.308,384.793 L 714.074,384.642 L 713.368,384.285 L 713.279,384.126 L 713.282,383.774 L 713.243,383.629 L 713.157,383.476 L 712.794,383.32 L 712.09,383.07 L 711.7,382.87 L 711.514,382.964 L 711.156,383.047 L 710.964,383.228 L 710.734,383.17 L 710.187,382.98 L 709.893,382.952 L 709.716,383.017 L 709.675,383.125 L 709.451,383.249 L 709.238,383.15 L 708.817,383.018 L 708.449,382.945 L 707.89,382.783 L 707.826,382.539 L 707.732,382.297 L 707.6,382.254 L 707.099,382.302 L 706.639,382.035 L 706.146,381.692 L 705.936,381.58 L 705.797,381.539 L 705.678,381.584 L 705.542,381.663 L 705.418,381.686 L 705.15,381.538 L 704.809,381.328 L 704.389,381.069 L 703.897,380.708 L 703.695,380.503 L 703.604,380.35 L 703.499,380.205 L 703.071,379.968 L 702.733,379.781 L 702.325,379.555 L 702.257,379.51 L 702.103,379.375 L 701.866,379.206 L 701.672,379.156 L 701.61,379.25 L 701.563,379.348 L 701.394,379.325 L 701.13,379.152 L 700.854,378.971 L 700.639,378.803 L 700.417,378.63 L 700.363,378.502 L 700.456,378.107 L 700.585,377.768 L 700.694,377.692 L 700.872,377.467 L 700.937,377.072 L 700.934,376.734 L 701.107,376.257 L 701.347,375.749 L 701.76,375.204 L 701.938,375.023 L 702.139,374.899 L 702.52,374.496 L 702.599,374.43 L 702.766,374.326 L 702.93,374.3 L 703.054,374.35 L 703.181,374.561 L 703.335,374.762 L 703.522,374.752 L 703.741,374.58 L 704.195,373.79 L 704.826,373.628 L 705.424,373.71 L 705.953,373.825 L 706.109,374.089 L 706.211,374.368 L 706.277,374.509 L 706.451,374.675 L 707.197,375.069 L 707.63,375.424 L 708.229,375.9 L 708.677,376.109 L 709.074,376.127 L 709.298,376.313 L 709.635,376.684 L 709.92,377.109 L 710.275,377.502 L 710.521,377.489 L 710.856,377.362 L 711.265,377.195 L 711.506,377.277 L 711.729,377.386 L 711.803,377.589 L 711.938,377.973 L 712.086,378.371 L 712.32,378.51 L 712.598,378.714 L 712.751,378.876 L 713.271,379.174 L 713.344,379.295 L 713.449,379.377 L 713.576,379.429 L 713.681,379.49 L 713.845,379.511 L 714.445,379.333 L 714.605,379.355 L 714.697,379.388 L 714.7,379.453 L 714.592,379.731 L 714.5,380.087 L 714.595,380.265 L 714.847,380.339 L 715.403,380.392 L 716.154,380.387 L 716.383,380.567 L 716.609,380.837 L 716.838,381.298 L 716.929,381.493 L 717.042,381.549 L 717.237,381.472 L 717.27,381.283 L 717.278,381.001 L 717.442,380.904 L 717.547,380.976 L 717.669,381.196 L 717.979,381.394 L 718.204,381.491 L 718.418,381.457 L 718.508,381.381 L 718.613,380.996 L 718.782,380.94 L 718.995,380.965 L 719.077,381.042 L 719.163,381.196 L 719.422,381.269 L 719.679,381.365 L 719.92,381.491 L 720.261,381.776 L 720.68,381.829 L 721.167,381.822 L 721.423,381.829 L 721.611,381.85 L 721.78,381.83 L 722.279,381.626 L 722.483,381.611 L 722.736,381.634 L 722.979,381.675" id="NP" title="Nepal"/>
</svg>
