<svg xmlns="http://www.w3.org/2000/svg" xmlns:ev="http://www.w3.org/2001/xml-events" xmlns:xlink="http://www.w3.org/1999/xlink" baseProfile="full" height="70.78204345703125" version="1.1" viewBox="941.2670288085938 565.0869750976562 50.48297119140625 70.78204345703125" width="50.48297119140625">
	<defs/>
	<path class="land" d="M 991.595,598.704 L 991.494,598.805 L 991.322,598.8 L 991.021,599.1949999999999 L 991.04,598.9 L 990.9499999999999,598.785 L 990.6919999999999,598.812 L 990.6429999999999,598.8770000000001 L 990.8159999999999,598.955 L 990.8539999999999,598.998 L 990.689,599.1690000000001 L 990.861,599.5360000000001 L 991.011,599.523 L 991.1569999999999,599.8100000000001 L 991.156,599.9000000000001 L 990.822,600.0110000000001 L 990.646,600.166 L 990.4889999999999,600.1600000000001 L 990.415,600.1300000000001 L 990.327,599.8530000000001 L 990.32,599.7370000000001 L 990.513,599.5340000000001 L 990.6220000000001,599.3270000000001 L 990.5340000000001,599.1370000000001 L 990.3110000000001,599.014 L 989.8250000000002,599.07 L 989.7130000000002,599.029 L 989.9560000000002,598.773 L 990.2200000000003,598.801 L 990.5040000000002,598.6170000000001 L 991.595,598.704 M 991.598,600.966 L 991.474,601.0 L 991.4920000000001,600.777 L 991.45,600.633 L 991.6600000000001,600.586 L 991.7500000000001,600.7570000000001 L 991.598,600.966 M 961.979,566.806 L 962.0210000000001,566.962 L 962.176,566.851 L 962.292,566.676 L 962.479,566.498 L 962.4540000000001,566.7850000000001 L 962.5500000000001,566.8480000000001 L 963.1700000000001,567.0480000000001 L 963.2980000000001,567.2150000000001 L 963.4300000000001,567.2630000000001 L 963.504,567.1690000000001 L 963.592,567.118 L 963.816,567.2230000000001 L 964.322,567.5150000000001 L 964.364,567.6160000000001 L 964.3380000000001,567.7660000000001 L 964.363,567.9250000000001 L 964.432,568.052 L 964.6,568.081 L 964.8240000000001,567.893 L 964.9290000000001,567.87 L 965.0770000000001,568.1370000000001 L 965.1330000000002,568.288 L 965.1100000000001,568.283 L 965.2070000000001,568.433 L 965.3350000000002,568.581 L 965.5560000000002,569.02 L 965.5230000000001,569.174 L 965.4580000000001,569.313 L 965.6610000000001,569.72 L 965.528,569.748 L 965.129,569.6790000000001 L 965.142,569.7610000000001 L 965.375,570.0600000000001 L 965.571,570.4830000000001 L 965.7280000000001,570.738 L 966.282,571.5310000000001 L 966.1990000000001,571.8130000000001 L 966.2120000000001,572.0000000000001 L 966.1410000000001,572.1610000000001 L 966.33,572.5830000000001 L 966.212,572.714 L 966.134,573.147 L 966.048,573.2230000000001 L 966.059,573.3810000000001 L 966.283,573.4230000000001 L 966.418,573.4900000000001 L 966.534,573.6190000000001 L 966.606,573.4640000000002 L 966.704,573.4220000000001 L 966.971,573.6290000000001 L 967.527,573.8360000000001 L 967.6800000000001,573.9130000000001 L 967.7550000000001,574.0800000000002 L 967.8120000000001,574.4840000000002 L 967.9200000000001,574.6620000000001 L 968.133,574.6960000000001 L 968.3620000000001,574.6420000000002 L 968.4340000000001,574.4950000000001 L 968.388,574.0990000000002 L 968.2230000000001,573.4670000000002 L 968.2220000000001,573.2620000000002 L 968.2450000000001,573.0560000000002 L 968.2070000000001,572.8520000000002 L 968.1240000000001,572.6600000000002 L 968.0350000000001,572.5130000000001 L 967.921,572.3890000000001 L 967.961,572.1960000000001 L 968.1320000000001,572.1090000000002 L 968.2360000000001,572.2720000000002 L 968.3210000000001,572.4690000000002 L 968.7520000000002,573.0530000000001 L 969.0070000000002,573.0120000000001 L 969.0300000000002,573.254 L 969.2030000000002,573.5 L 969.2990000000002,573.789 L 969.4250000000002,574.654 L 969.6180000000002,575.471 L 969.9680000000002,575.827 L 970.0090000000002,575.998 L 969.7960000000003,575.9100000000001 L 969.7310000000002,575.9610000000001 L 969.7530000000003,576.0470000000001 L 969.9500000000003,576.2040000000002 L 970.1820000000002,576.2810000000002 L 970.3280000000002,576.2700000000002 L 970.4650000000001,576.3270000000002 L 971.3720000000002,576.8610000000002 L 971.8080000000002,577.0690000000002 L 972.9080000000002,577.4100000000002 L 973.2220000000002,577.4370000000002 L 973.3960000000002,577.4280000000002 L 973.7250000000001,577.3100000000002 L 974.0200000000001,577.0980000000002 L 974.2750000000001,576.7810000000002 L 974.4950000000001,576.4200000000002 L 974.7340000000002,576.2450000000002 L 975.0050000000001,576.1070000000002 L 975.142,575.9790000000002 L 975.2860000000001,575.8880000000001 L 976.023,575.9300000000002 L 976.272,576.1120000000002 L 976.595,576.2580000000002 L 976.764,576.3720000000002 L 976.707,576.6040000000002 L 976.514,576.9460000000001 L 976.366,577.3210000000001 L 976.234,578.1750000000002 L 976.145,579.0410000000002 L 976.011,579.4240000000002 L 975.7669999999999,579.7190000000002 L 975.497,579.9350000000002 L 975.192,580.0370000000001 L 975.068,580.5320000000002 L 975.007,581.1130000000002 L 975.025,581.2590000000001 L 975.1229999999999,581.3750000000001 L 975.1629999999999,581.5480000000001 L 975.0029999999999,581.8980000000001 L 974.91,581.8470000000001 L 974.778,581.5550000000001 L 974.659,581.4330000000001 L 974.293,581.3420000000001 L 973.92,581.3000000000001 L 973.597,581.326 L 973.285,581.451 L 972.814,581.7040000000001 L 972.668,581.8320000000001 L 972.54,581.9950000000001 L 972.324,582.3590000000002 L 972.2719999999999,582.8050000000002 L 972.2819999999999,583.0390000000002 L 972.3589999999999,583.2200000000003 L 972.7599999999999,583.4670000000002 L 972.3619999999999,584.3310000000002 L 972.0089999999999,585.2330000000003 L 971.8089999999999,585.4910000000003 L 971.5789999999998,585.7300000000004 L 971.3619999999999,586.2750000000003 L 970.9829999999998,586.7450000000003 L 970.7269999999999,587.1050000000004 L 970.5269999999998,587.4790000000004 L 970.3519999999999,587.8770000000004 L 969.9789999999998,588.4400000000004 L 969.8139999999999,588.8130000000004 L 969.5979999999998,589.1240000000005 L 969.1959999999998,589.5210000000005 L 968.7679999999998,589.8620000000005 L 968.0939999999998,590.3340000000005 L 967.9059999999998,590.4900000000005 L 967.7079999999999,590.6050000000005 L 967.4619999999999,590.4700000000005 L 967.4129999999999,590.3230000000004 L 967.354,590.0 L 967.3000000000001,589.882 L 966.9870000000001,589.784 L 966.5720000000001,589.9399999999999 L 966.5030000000002,589.9069999999999 L 966.4850000000001,589.833 L 966.4850000000001,589.3639999999999 L 966.5550000000002,589.232 L 966.4580000000002,589.159 L 966.3620000000002,589.188 L 966.3290000000002,589.308 L 966.3900000000002,589.412 L 966.1540000000002,589.541 L 965.9080000000002,589.5440000000001 L 965.8340000000003,589.493 L 965.8130000000003,589.407 L 965.8730000000003,589.265 L 965.9520000000002,589.14 L 966.4090000000002,588.55 L 966.8840000000002,587.769 L 967.2930000000002,586.9350000000001 L 967.3990000000002,586.5070000000001 L 967.5490000000002,585.715 L 967.4260000000002,585.385 L 967.2740000000001,585.076 L 966.8630000000002,584.482 L 966.3140000000002,584.1469999999999 L 965.9590000000002,584.0999999999999 L 965.6230000000002,583.9749999999999 L 965.3070000000001,583.6919999999999 L 965.0190000000001,583.3589999999999 L 964.4480000000001,583.0859999999999 L 963.8460000000001,582.8719999999998 L 963.5030000000002,582.5699999999998 L 963.4210000000002,582.3909999999998 L 963.3670000000002,582.1829999999999 L 963.3750000000002,581.9899999999999 L 963.4180000000002,581.7939999999999 L 963.4860000000002,581.6439999999999 L 963.5930000000002,581.5349999999999 L 964.2300000000001,581.1459999999998 L 964.9050000000001,580.9299999999998 L 965.0290000000001,580.9339999999999 L 965.1480000000001,580.8989999999999 L 965.3170000000001,580.7669999999999 L 965.6190000000001,580.4649999999999 L 965.7070000000001,580.262 L 965.767,579.6179999999999 L 965.864,578.986 L 966.039,578.263 L 966.303,577.816 L 966.389,577.542 L 966.282,577.091 L 966.3810000000001,576.926 L 966.5010000000001,576.826 L 966.6370000000001,576.768 L 966.407,576.346 L 966.1360000000001,575.7090000000001 L 966.0790000000001,575.5120000000001 L 966.1200000000001,575.317 L 966.1860000000001,575.126 L 966.0170000000002,575.078 L 965.9190000000002,574.895 L 965.6760000000002,574.28 L 965.7420000000002,574.182 L 965.8830000000002,574.248 L 966.0920000000001,574.691 L 966.1260000000001,574.4630000000001 L 966.2860000000001,574.3220000000001 L 966.456,574.2490000000001 L 966.638,574.2330000000002 L 966.226,573.7390000000001 L 966.088,573.7590000000001 L 965.906,573.8380000000001 L 965.7189999999999,573.8860000000001 L 965.536,573.8430000000001 L 965.3649999999999,573.734 L 965.2769999999999,573.5260000000001 L 965.17,573.1270000000001 L 965.103,572.98 L 964.5609999999999,572.167 L 964.7199999999999,572.1410000000001 L 965.1579999999999,572.5480000000001 L 965.2429999999999,572.4180000000001 L 965.3059999999999,572.2310000000001 L 965.285,572.0230000000001 L 965.1809999999999,571.8650000000001 L 965.026,571.7630000000001 L 965.0229999999999,571.5780000000002 L 965.141,571.4090000000002 L 965.134,571.2910000000002 L 964.883,571.0500000000002 L 964.783,571.0240000000002 L 964.738,571.1360000000002 L 964.8100000000001,571.3030000000002 L 964.743,571.3220000000002 L 964.134,570.8840000000002 L 963.946,570.5320000000003 L 963.792,570.1460000000003 L 963.7760000000001,570.3030000000003 L 963.7990000000001,570.5240000000003 L 964.0400000000001,570.9670000000003 L 964.431,571.4630000000003 L 964.498,571.5950000000003 L 964.44,571.7660000000003 L 964.3040000000001,571.8150000000003 L 964.1840000000001,571.7070000000003 L 964.0050000000001,571.2820000000004 L 963.8760000000001,571.0700000000004 L 962.3810000000001,568.8860000000004 L 962.5720000000001,568.5990000000004 L 962.8680000000002,568.3570000000004 L 962.9360000000001,568.2500000000005 L 962.9810000000001,568.1190000000005 L 962.8560000000001,568.0970000000004 L 962.7440000000001,568.1570000000004 L 962.6160000000001,568.2680000000004 L 962.4990000000001,568.3940000000003 L 962.3510000000001,568.6750000000003 L 962.2810000000001,568.7400000000004 L 962.1060000000001,568.5450000000003 L 962.0390000000001,568.4250000000003 L 962.0420000000001,568.2810000000003 L 961.9950000000001,568.1900000000003 L 961.8650000000001,568.1610000000003 L 961.6740000000001,567.8750000000003 L 961.5530000000001,567.7290000000004 L 961.7550000000001,567.4500000000004 L 961.7600000000001,567.0830000000004 L 961.5540000000001,566.6990000000004 L 961.3080000000001,566.3460000000005 L 960.8340000000001,565.7770000000005 L 960.3990000000001,565.1760000000005 L 960.8700000000001,565.1000000000005 L 961.3480000000001,565.0870000000004 L 961.123,565.4470000000005 L 961.225,565.6550000000004 L 961.3770000000001,565.8310000000005 L 961.705,566.3710000000004 L 961.7330000000001,566.5270000000004 L 961.8990000000001,566.6850000000004 L 961.979,566.806 M 968.359,571.427 L 968.3810000000001,571.616 L 968.166,571.549 L 968.0820000000001,571.406 L 967.8410000000001,571.2579999999999 L 967.8060000000002,571.2139999999999 L 967.7790000000001,570.9269999999999 L 967.9060000000001,570.7879999999999 L 967.927,570.7289999999999 L 967.9830000000001,570.7059999999999 L 968.0820000000001,570.8569999999999 L 968.2730000000001,571.0719999999999 L 968.359,571.427 M 961.546,589.367 L 961.869,589.385 L 962.1700000000001,589.1129999999999 L 962.4780000000001,588.8919999999999 L 962.801,588.709 L 963.293,588.29 L 963.422,588.228 L 963.741,588.1479999999999 L 963.88,588.0489999999999 L 964.035,588.0259999999998 L 963.895,588.2739999999999 L 963.7189999999999,588.3569999999999 L 963.6909999999999,588.4459999999999 L 963.79,588.5899999999999 L 963.637,588.7909999999999 L 963.6429999999999,589.0419999999999 L 963.4609999999999,589.3389999999999 L 963.7389999999999,589.217 L 963.8419999999999,589.024 L 963.7889999999999,588.915 L 963.9089999999999,588.699 L 964.0959999999999,588.596 L 964.0219999999999,588.433 L 964.0269999999999,588.304 L 964.256,588.352 L 964.369,588.347 L 964.4590000000001,588.2959999999999 L 964.624,588.276 L 964.657,588.42 L 964.879,588.4019999999999 L 964.798,588.584 L 964.629,588.795 L 964.589,588.923 L 964.3180000000001,589.136 L 964.1370000000001,589.227 L 964.416,589.25 L 964.8240000000001,588.965 L 965.066,588.714 L 965.0590000000001,589.028 L 964.8620000000001,589.3100000000001 L 964.6940000000001,589.488 L 964.504,589.5440000000001 L 964.315,589.6890000000001 L 964.2230000000001,589.926 L 964.234,590.0840000000001 L 964.288,590.2090000000001 L 964.481,590.4200000000001 L 964.264,590.8280000000001 L 964.506,590.777 L 964.6379999999999,590.854 L 964.824,591.089 L 964.712,591.3610000000001 L 964.634,591.5000000000001 L 964.162,592.0750000000002 L 963.956,592.3670000000002 L 963.715,592.5540000000002 L 963.7180000000001,592.8610000000002 L 963.58,593.0850000000003 L 962.8760000000001,593.8540000000003 L 962.753,594.0210000000003 L 962.1980000000001,595.2500000000003 L 961.844,595.7680000000004 L 961.6410000000001,595.9450000000004 L 961.426,596.0880000000004 L 960.9110000000001,596.3330000000004 L 960.6830000000001,596.6150000000005 L 960.4320000000001,596.8490000000005 L 960.1670000000001,596.9020000000005 L 960.1750000000002,597.0060000000005 L 960.3450000000001,597.0640000000005 L 960.4780000000002,597.2180000000005 L 960.3790000000001,597.3910000000005 L 960.1900000000002,597.4990000000005 L 959.9940000000001,597.5300000000004 L 959.8940000000001,597.6410000000004 L 960.3620000000001,597.5620000000005 L 960.494,597.6520000000005 L 960.518,597.8430000000005 L 960.568,598.0150000000006 L 960.681,598.2430000000005 L 961.075,598.3890000000005 L 961.4290000000001,598.4570000000004 L 961.498,598.5630000000004 L 961.551,598.9280000000005 L 961.4870000000001,599.1070000000004 L 961.4080000000001,599.2250000000005 L 961.2890000000001,599.2670000000005 L 961.0010000000001,599.2900000000005 L 960.7120000000001,599.2070000000006 L 960.5210000000001,598.9860000000006 L 959.974,599.0570000000006 L 959.8280000000001,599.1040000000006 L 959.753,599.0640000000006 L 960.056,598.8320000000007 L 959.898,598.7000000000007 L 959.7660000000001,598.6510000000007 L 959.623,598.7280000000007 L 959.527,598.8500000000007 L 959.499,599.0500000000008 L 959.4,599.1660000000007 L 959.25,599.1990000000008 L 959.037,599.0320000000007 L 958.826,598.7940000000007 L 958.5160000000001,598.5540000000007 L 958.5640000000001,598.7020000000007 L 958.8020000000001,599.0650000000007 L 958.9210000000002,599.3060000000007 L 958.6440000000001,599.4990000000007 L 958.3540000000002,599.6490000000007 L 958.1100000000001,599.7370000000006 L 957.8800000000001,599.8750000000007 L 957.6090000000002,600.0900000000007 L 957.4600000000002,600.1660000000007 L 957.0640000000002,600.1710000000007 L 956.8520000000002,600.2390000000007 L 956.7820000000002,600.5230000000007 L 956.6340000000001,600.7040000000007 L 956.2860000000002,600.7400000000007 L 956.4120000000001,600.7970000000007 L 956.4890000000001,600.8880000000007 L 956.2590000000001,601.7460000000007 L 956.2090000000002,602.1030000000006 L 956.1660000000002,602.7150000000006 L 956.0210000000002,603.2850000000007 L 955.6080000000002,603.2820000000006 L 955.6740000000002,603.3830000000006 L 955.9870000000002,603.5440000000006 L 955.9280000000002,603.7870000000006 L 955.5840000000002,604.2320000000007 L 955.4400000000002,604.4890000000006 L 955.3000000000002,605.1150000000006 L 955.0900000000001,605.6940000000005 L 954.7690000000001,606.3540000000005 L 954.7660000000001,606.4730000000005 L 954.8790000000001,606.6420000000005 L 955.0160000000001,606.7880000000005 L 955.0240000000001,606.9940000000005 L 954.9820000000001,607.1030000000005 L 954.8290000000001,607.1310000000005 L 954.695,607.2020000000006 L 953.979,607.3840000000006 L 953.745,607.5880000000005 L 953.552,607.9540000000005 L 953.326,608.2700000000006 L 952.5740000000001,608.9720000000005 L 952.1320000000001,609.5620000000006 L 952.043,609.7310000000006 L 951.924,609.8540000000006 L 950.957,610.1340000000006 L 950.273,610.1760000000006 L 949.9010000000001,610.1040000000006 L 949.542,609.9620000000006 L 949.3430000000001,609.9140000000006 L 948.9630000000001,610.0010000000005 L 948.797,610.0960000000006 L 948.499,610.0020000000005 L 948.263,610.0730000000005 L 948.193,610.0040000000006 L 948.105,609.8310000000006 L 948.154,609.6010000000006 L 948.0889999999999,609.4310000000006 L 947.939,609.3160000000006 L 947.838,609.1820000000006 L 947.723,609.0870000000006 L 947.409,609.0500000000005 L 946.913,609.1100000000005 L 946.749,609.1040000000005 L 946.412,608.5410000000005 L 946.301,608.4030000000005 L 945.9000000000001,608.2240000000005 L 945.7630000000001,608.2490000000005 L 945.5480000000001,608.5490000000004 L 945.4210000000002,608.6000000000005 L 944.6670000000001,608.6320000000005 L 943.9110000000002,608.5350000000005 L 943.6330000000002,608.4230000000006 L 943.5780000000002,608.1640000000006 L 944.1520000000002,607.4530000000005 L 943.9820000000002,607.5480000000006 L 943.6280000000002,607.8370000000006 L 943.4020000000002,607.7930000000006 L 943.6190000000001,607.4780000000005 L 943.6380000000001,607.3370000000006 L 943.5930000000002,607.1810000000006 L 943.2980000000002,607.4460000000006 L 942.9620000000002,607.4810000000006 L 942.9190000000002,607.2350000000006 L 942.9490000000002,606.9500000000006 L 943.0170000000002,606.8690000000006 L 943.9240000000002,606.7200000000006 L 944.2510000000002,606.6230000000006 L 944.3940000000002,606.4700000000006 L 943.8510000000002,606.4180000000006 L 943.8170000000002,606.2040000000005 L 943.8950000000002,606.0330000000005 L 944.3590000000003,605.7490000000005 L 944.0170000000003,605.8210000000005 L 943.6380000000003,605.7960000000005 L 943.6630000000002,605.4960000000005 L 943.7620000000003,605.2620000000005 L 944.1590000000003,605.2550000000006 L 944.0350000000003,605.0940000000006 L 944.0160000000003,604.8700000000006 L 944.1260000000003,604.8550000000006 L 944.5290000000003,605.1570000000006 L 944.8200000000004,605.2670000000006 L 944.6970000000003,605.0400000000006 L 944.7140000000004,604.8970000000006 L 944.7910000000004,604.8330000000007 L 945.0290000000005,604.7880000000007 L 944.9630000000004,604.7480000000007 L 944.7400000000005,604.6900000000007 L 944.4740000000005,604.5180000000007 L 944.4460000000005,604.3360000000007 L 944.4560000000005,604.1260000000007 L 944.7420000000004,603.8370000000007 L 944.9110000000004,604.0090000000007 L 945.1110000000004,603.9620000000007 L 944.9580000000004,603.8270000000007 L 944.8650000000005,603.6250000000007 L 944.9280000000005,603.4920000000006 L 945.5350000000004,602.9570000000007 L 945.6900000000004,603.4720000000007 L 945.7260000000003,603.3010000000006 L 945.7350000000004,603.1390000000006 L 945.6620000000004,602.9980000000006 L 945.6730000000003,602.8560000000006 L 945.7430000000004,602.7340000000006 L 946.0030000000004,602.6130000000006 L 946.3410000000003,602.2210000000006 L 946.5910000000003,602.0390000000006 L 946.7940000000003,602.1560000000005 L 946.9330000000003,602.3130000000006 L 946.9120000000004,602.1570000000006 L 946.8130000000003,602.0280000000006 L 946.7860000000003,601.6690000000006 L 947.2400000000002,601.1130000000005 L 947.7390000000003,600.5850000000005 L 948.2180000000003,600.0330000000005 L 948.4730000000003,599.8330000000004 L 949.0160000000003,599.6060000000004 L 949.3640000000003,599.7010000000005 L 949.4530000000003,599.6830000000004 L 949.9690000000003,599.2870000000005 L 950.1830000000003,599.1840000000005 L 950.3780000000004,599.3250000000005 L 950.4980000000004,599.3760000000005 L 950.3770000000004,599.0140000000006 L 950.4720000000004,598.8480000000005 L 950.9030000000005,598.5560000000005 L 951.4430000000004,598.2550000000005 L 951.8530000000004,598.1300000000005 L 952.1550000000004,597.9260000000005 L 952.3370000000004,597.9210000000005 L 952.3100000000004,597.7670000000005 L 952.3410000000003,597.6200000000005 L 952.4970000000003,597.6300000000005 L 952.5450000000003,597.5720000000005 L 952.4070000000003,597.4920000000004 L 952.8520000000003,597.1980000000004 L 953.0940000000003,596.8730000000004 L 953.2200000000003,596.8060000000004 L 953.3350000000003,596.7080000000004 L 953.4770000000003,596.4840000000004 L 953.6450000000003,596.4100000000004 L 953.8010000000003,596.4450000000004 L 953.9140000000003,596.5550000000004 L 953.8520000000003,596.3720000000004 L 953.6520000000003,596.2680000000004 L 953.8670000000003,596.1100000000004 L 954.09,596.0 L 954.307,596.079 L 954.52,596.207 L 954.307,596.011 L 954.272,595.89 L 954.5310000000001,595.75 L 954.671,595.707 L 954.8670000000001,595.9689999999999 L 954.839,595.761 L 954.8850000000001,595.577 L 955.1620000000001,595.276 L 955.5250000000002,594.78 L 955.6410000000002,594.953 L 955.6600000000002,595.1619999999999 L 955.6420000000002,595.415 L 955.7170000000002,595.328 L 955.7420000000002,595.0989999999999 L 955.6860000000001,594.6959999999999 L 956.1400000000001,593.9529999999999 L 956.2300000000001,593.8699999999999 L 956.3300000000002,593.8199999999999 L 956.4880000000002,593.8 L 956.4390000000002,593.688 L 956.3160000000001,593.58 L 956.4400000000002,593.2040000000001 L 956.5140000000001,592.7750000000001 L 956.6190000000001,592.363 L 956.7880000000001,591.961 L 956.9730000000001,591.291 L 957.114,591.1510000000001 L 957.495,591.1030000000001 L 957.662,591.009 L 957.94,590.768 L 958.269,590.332 L 958.445,589.981 L 958.676,589.076 L 958.806,588.133 L 959.1800000000001,587.436 L 959.729,586.933 L 960.212,586.551 L 960.41,586.471 L 960.7439999999999,586.447 L 961.0619999999999,586.552 L 960.4699999999999,586.644 L 960.4089999999999,586.871 L 960.3899999999999,587.101 L 960.4579999999999,587.307 L 960.5639999999999,587.491 L 960.8509999999999,587.664 L 961.1869999999999,587.7669999999999 L 961.3369999999999,588.1569999999999 L 961.3639999999999,588.6199999999999 L 961.41,589.0179999999999 L 961.546,589.367 M 963.789,587.826 L 963.413,588.041 L 963.429,587.892 L 963.502,587.567 L 963.673,587.403 L 963.757,587.392 L 963.929,587.269 L 963.91,587.541 L 963.789,587.826 M 944.325,604.345 L 944.446,604.822 L 944.1890000000001,604.731 L 944.0820000000001,604.586 L 944.2780000000001,604.347 L 944.325,604.345 M 943.671,606.243 L 943.6560000000001,606.44 L 943.623,606.5390000000001 L 943.5250000000001,606.5400000000001 L 943.3790000000001,606.518 L 943.2360000000001,606.427 L 943.1440000000001,606.453 L 943.0680000000001,606.42 L 943.1670000000001,606.198 L 943.5000000000001,606.0799999999999 L 943.6280000000002,606.175 L 943.671,606.243 M 947.596,611.124 L 947.598,611.287 L 947.305,611.229 L 947.3109999999999,611.412 L 947.5419999999999,611.509 L 947.627,611.641 L 947.867,611.603 L 947.9209999999999,611.8 L 947.8649999999999,611.977 L 947.7049999999999,612.106 L 947.2309999999999,612.171 L 946.9229999999999,612.428 L 946.6569999999999,612.389 L 946.5849999999999,612.412 L 946.28,612.688 L 945.939,612.773 L 945.846,612.7520000000001 L 945.893,612.5060000000001 L 946.147,612.2730000000001 L 946.152,612.0490000000001 L 946.2170000000001,611.8700000000001 L 946.4600000000002,611.7440000000001 L 946.4640000000002,611.5120000000002 L 946.6280000000002,611.3050000000002 L 946.5280000000001,610.8600000000001 L 946.5810000000001,610.4610000000001 L 947.0630000000001,610.4390000000001 L 947.596,611.124 M 942.197,627.705 L 942.258,628.0780000000001 L 942.104,628.0790000000001 L 941.783,627.975 L 941.682,627.816 L 941.614,627.777 L 941.4970000000001,627.962 L 941.3090000000001,627.971 L 941.267,627.909 L 941.341,627.712 L 941.784,627.34 L 941.867,626.873 L 941.861,626.7230000000001 L 942.209,626.6880000000001 L 942.2909999999999,626.7450000000001 L 942.328,626.8090000000001 L 942.3059999999999,626.8910000000001 L 942.165,627.0450000000001 L 942.16,627.2230000000001 L 942.1959999999999,627.4090000000001 L 942.0809999999999,627.4990000000001 L 942.1409999999998,627.6590000000001 L 942.197,627.705 M 950.496,635.533 L 950.651,635.767 L 950.353,635.869 L 950.208,635.784 L 950.106,635.677 L 950.055,635.5260000000001 L 950.2159999999999,635.542 L 950.3549999999999,635.479 L 950.496,635.533" id="NZ" title="New Zealand"/>
</svg>
