<svg xmlns="http://www.w3.org/2000/svg" xmlns:ev="http://www.w3.org/2001/xml-events" xmlns:xlink="http://www.w3.org/1999/xlink" baseProfile="full" height="29.15899658203125" version="1.1" viewBox="621.5750122070312 386.42401123046875 22.06097412109375 29.15899658203125" width="22.06097412109375">
	<defs/>
	<path class="land" d="M 633.699,388.616 L 633.644,388.687 L 633.563,388.694 L 633.377,388.63300000000004 L 633.2679999999999,388.492 L 633.2889999999999,388.32 L 633.2949999999998,388.002 L 633.3479999999998,387.702 L 633.3329999999999,387.384 L 633.1889999999999,387.32 L 633.0879999999999,387.33799999999997 L 633.3229999999999,386.88899999999995 L 633.4159999999998,386.81999999999994 L 633.5029999999998,386.84899999999993 L 633.7199999999998,386.80099999999993 L 633.8339999999998,386.5569999999999 L 633.9249999999998,386.4239999999999 L 634.0219999999998,386.43999999999994 L 634.0689999999998,386.51499999999993 L 634.0349999999999,386.8859999999999 L 634.0309999999998,387.19499999999994 L 633.9109999999998,388.13899999999995 L 633.7869999999998,388.30199999999996 L 633.7239999999998,388.43399999999997 L 633.699,388.616 M 633.653,389.899 L 633.537,389.982 L 633.4540000000001,389.968 L 633.4710000000001,389.803 L 633.5210000000001,389.688 L 633.6410000000001,389.697 L 633.6700000000001,389.766 L 633.653,389.899 M 624.684,415.583 L 624.514,415.199 L 624.344,414.815 L 624.173,414.431 L 624.003,414.046 L 623.884,413.776 L 623.684,413.681 L 623.562,413.39599999999996 L 623.438,413.104 L 623.314,412.812 L 623.1899999999999,412.52000000000004 L 623.0659999999999,412.22800000000007 L 622.9409999999999,411.93500000000006 L 622.8169999999999,411.64200000000005 L 622.6929999999999,411.34900000000005 L 622.5689999999998,411.05600000000004 L 622.4439999999998,410.76300000000003 L 622.3199999999998,410.47 L 622.1959999999998,410.17600000000004 L 622.0719999999998,409.88200000000006 L 621.9479999999998,409.5880000000001 L 621.8229999999998,409.2940000000001 L 621.6989999999997,409.0000000000001 L 621.5749999999997,408.70600000000013 L 621.9709999999997,408.5670000000001 L 622.4529999999996,408.39800000000014 L 622.9359999999996,408.22900000000016 L 623.4179999999996,408.0600000000002 L 623.9009999999995,407.8910000000002 L 624.3829999999995,407.7220000000002 L 624.8649999999994,407.5520000000002 L 625.3479999999994,407.3830000000002 L 625.8299999999994,407.2140000000002 L 626.3129999999993,407.0440000000002 L 626.7949999999993,406.8740000000002 L 627.2769999999992,406.7050000000002 L 627.7599999999992,406.5350000000002 L 628.2419999999992,406.3650000000002 L 628.7239999999991,406.19500000000016 L 629.2069999999991,406.02500000000015 L 629.688999999999,405.85500000000013 L 629.987999999999,405.7500000000001 L 630.1119999999991,405.3540000000001 L 630.214999999999,405.0250000000001 L 630.317999999999,404.6960000000001 L 630.4209999999989,404.3660000000001 L 630.524999999999,404.0360000000001 L 630.6279999999989,403.70600000000013 L 630.7309999999989,403.37600000000015 L 630.8339999999988,403.04500000000013 L 630.9379999999989,402.7140000000001 L 631.0409999999988,402.3830000000001 L 631.1439999999988,402.0520000000001 L 631.2469999999987,401.7200000000001 L 631.3499999999987,401.3880000000001 L 631.4539999999987,401.0560000000001 L 631.5569999999987,400.7240000000001 L 631.6599999999986,400.3910000000001 L 631.7629999999986,400.05800000000005 L 631.8579999999986,399.75300000000004 L 631.6799999999986,399.45900000000006 L 631.4419999999985,399.06300000000005 L 631.1919999999985,398.64900000000006 L 630.9579999999985,398.25900000000007 L 630.7869999999984,397.9750000000001 L 630.5809999999984,397.63200000000006 L 630.6029999999985,397.1910000000001 L 630.5979999999985,396.9700000000001 L 630.6189999999984,396.6310000000001 L 630.8159999999984,396.1600000000001 L 631.0489999999984,395.56000000000006 L 631.2189999999983,395.16100000000006 L 631.3659999999984,394.81300000000005 L 631.4839999999984,394.53400000000005 L 631.5489999999985,394.24600000000004 L 631.5139999999985,394.04300000000006 L 631.4369999999985,393.96900000000005 L 631.3719999999985,393.87300000000005 L 631.5949999999984,393.71900000000005 L 632.0129999999984,393.619 L 632.2439999999984,393.64000000000004 L 632.5659999999984,393.56600000000003 L 632.8219999999984,393.499 L 632.8419999999984,393.40900000000005 L 632.7699999999984,393.25700000000006 L 632.6639999999984,393.0350000000001 L 632.3029999999984,393.01200000000006 L 632.1939999999984,392.95000000000005 L 632.3199999999983,392.62200000000007 L 632.3149999999983,392.5180000000001 L 632.2669999999983,392.3950000000001 L 632.2139999999984,392.1890000000001 L 632.2399999999983,391.92300000000006 L 632.3139999999983,391.7420000000001 L 632.3149999999982,391.59600000000006 L 632.2799999999983,391.29600000000005 L 632.2909999999982,391.02900000000005 L 632.3669999999983,390.8960000000001 L 632.5019999999982,390.77200000000005 L 632.6289999999982,390.70900000000006 L 632.7609999999981,390.7130000000001 L 632.8659999999982,390.7660000000001 L 632.9109999999981,390.90600000000006 L 632.8829999999981,391.00300000000004 L 632.8079999999981,391.016 L 632.7819999999981,391.057 L 632.8889999999981,391.244 L 633.043999999998,391.427 L 633.163999999998,391.396 L 633.2979999999981,391.252 L 633.4399999999981,391.136 L 633.6169999999981,391.033 L 633.7459999999982,390.834 L 633.8559999999982,390.705 L 633.9539999999981,390.687 L 634.2399999999981,391.495 L 634.663999999998,392.25 L 635.0379999999981,392.666 L 635.4269999999981,393.23 L 636.0179999999981,393.748 L 636.288999999998,393.925 L 637.3879999999981,394.288 L 637.9889999999981,394.42400000000004 L 638.8169999999981,394.55400000000003 L 639.389999999998,394.836 L 639.5819999999981,394.854 L 639.881999999998,394.77 L 640.1009999999981,394.777 L 640.6489999999981,395.161 L 640.809999999998,395.525 L 641.037999999998,395.717 L 641.238999999998,396.019 L 641.369999999998,396.335 L 641.8329999999979,396.816 L 642.158999999998,397.35699999999997 L 642.4909999999979,397.75699999999995 L 642.787999999998,398.006 L 643.237999999998,398.104 L 643.595999999998,398.216 L 643.6359999999979,398.483 L 643.5989999999979,398.831 L 643.5309999999979,399.088 L 643.196999999998,399.588 L 643.1169999999979,399.896 L 642.7389999999979,400.404 L 642.3289999999979,401.255 L 642.1409999999979,401.445 L 641.479999999998,401.883 L 640.993999999998,402.40999999999997 L 640.417999999998,403.32399999999996 L 639.979999999998,404.22799999999995 L 639.811999999998,404.51699999999994 L 639.458999999998,404.57699999999994 L 639.227999999998,404.55199999999996 L 639.067999999998,404.467 L 639.130999999998,404.21999999999997 L 639.168999999998,403.945 L 638.9559999999981,403.974 L 638.7689999999981,404.031 L 638.3319999999981,404.706 L 638.091999999998,405.002 L 638.040999999998,405.377 L 637.924999999998,405.861 L 637.753999999998,406.306 L 637.677999999998,406.68 L 637.680999999998,406.892 L 637.808999999998,407.409 L 637.817999999998,407.938 L 637.891999999998,408.255 L 637.951999999998,408.635 L 637.7469999999979,408.752 L 637.5709999999979,408.81 L 636.8749999999978,408.852 L 636.1699999999978,408.974 L 635.5539999999978,409.194 L 635.1859999999978,409.413 L 634.7069999999977,409.902 L 634.4139999999977,411.14099999999996 L 633.9449999999977,411.66299999999995 L 633.6269999999977,411.77199999999993 L 632.8619999999977,411.8179999999999 L 631.7849999999977,411.96199999999993 L 631.4069999999977,412.08699999999993 L 630.7789999999976,412.84099999999995 L 630.7299999999976,413.078 L 630.8509999999976,413.24899999999997 L 630.8909999999976,413.438 L 630.8339999999976,413.615 L 630.5489999999976,414.092 L 630.2409999999976,414.438 L 629.4209999999975,414.655 L 629.1199999999975,414.52599999999995 L 628.8449999999975,414.46099999999996 L 628.3129999999975,414.45399999999995 L 627.4469999999975,414.53599999999994 L 627.1279999999975,414.7919999999999 L 626.6249999999975,414.9729999999999 L 626.1609999999974,415.2519999999999 L 625.2849999999975,415.3579999999999 L 624.684,415.583 M 640.502,405.083 L 640.3249999999999,405.12800000000004 L 640.2739999999999,405.107 L 640.2749999999999,404.73100000000005 L 640.6869999999999,404.25700000000006 L 640.9579999999999,403.70900000000006 L 641.1449999999999,404.19900000000007 L 640.8199999999998,404.47300000000007 L 640.6439999999998,404.9410000000001 L 640.502,405.083" id="OM" title="Oman"/>
</svg>
