<svg xmlns="http://www.w3.org/2000/svg" xmlns:ev="http://www.w3.org/2001/xml-events" xmlns:xlink="http://www.w3.org/1999/xlink" baseProfile="full" height="6.697998046875" version="1.1" viewBox="242.68800354003906 435.7929992675781 16.361984252929688 6.697998046875" width="16.361984252929688" fill="#00394f">
	<defs/>
	<path class="land" d="M 258.55,438.44 L 258.497,438.479 L 258.34200000000004,438.70099999999996 L 258.25800000000004,438.89099999999996 L 258.458,439.092 L 258.51800000000003,439.305 L 258.63100000000003,439.536 L 258.807,439.76800000000003 L 259.005,440.199 L 259.05,440.372 L 258.994,440.48400000000004 L 258.80600000000004,440.55300000000005 L 258.63000000000005,440.7540000000001 L 258.58200000000005,441.00000000000006 L 258.61600000000004,441.12200000000007 L 258.09000000000003,441.51500000000004 L 257.954,441.58000000000004 L 257.86400000000003,441.52000000000004 L 257.752,441.32300000000004 L 257.618,441.16400000000004 L 257.546,441.10800000000006 L 257.504,441.10600000000005 L 257.46200000000005,441.14300000000003 L 257.44200000000006,441.22900000000004 L 257.51200000000006,441.59800000000007 L 257.45400000000006,441.74700000000007 L 257.2750000000001,441.8620000000001 L 257.0700000000001,442.4620000000001 L 256.9900000000001,442.3860000000001 L 256.3150000000001,441.5780000000001 L 255.7310000000001,440.5770000000001 L 255.6090000000001,440.1230000000001 L 255.7600000000001,440.0960000000001 L 255.9060000000001,440.1060000000001 L 255.9850000000001,440.0360000000001 L 256.0760000000001,439.9040000000001 L 256.00200000000007,439.5970000000001 L 256.28600000000006,439.3640000000001 L 256.3930000000001,439.2070000000001 L 256.4720000000001,439.2250000000001 L 256.6580000000001,439.49300000000005 L 256.92800000000005,439.6460000000001 L 257.25900000000007,439.8690000000001 L 257.46400000000006,439.9200000000001 L 257.20500000000004,439.6860000000001 L 256.75700000000006,439.3780000000001 L 256.63200000000006,439.1760000000001 L 256.51400000000007,438.8950000000001 L 256.33900000000006,439.0170000000001 L 256.25800000000004,439.1200000000001 L 256.16700000000003,439.1780000000001 L 256.088,439.1080000000001 L 256.074,439.0170000000001 L 255.81,438.99900000000014 L 255.742,438.9160000000001 L 255.672,438.8700000000001 L 255.704,439.0460000000001 L 255.756,439.1540000000001 L 255.728,439.2850000000001 L 255.642,439.2940000000001 L 255.569,439.1590000000001 L 255.475,439.0360000000001 L 255.35,438.5240000000001 L 255.04999999999998,438.28300000000013 L 254.91199999999998,438.2020000000001 L 254.79899999999998,438.17200000000014 L 254.63199999999998,438.00800000000015 L 254.41199999999998,437.92100000000016 L 254.11199999999997,437.66600000000017 L 253.74399999999997,437.4830000000002 L 253.29399999999998,437.41900000000015 L 252.74699999999999,437.4590000000002 L 252.563,437.56100000000015 L 252.438,437.69000000000017 L 252.38,437.75000000000017 L 252.057,437.89700000000016 L 251.93499999999997,438.1100000000002 L 251.85799999999998,438.2900000000002 L 251.69699999999997,438.4940000000002 L 251.88099999999997,438.6170000000002 L 250.82799999999997,439.3100000000002 L 250.61999999999998,439.4110000000002 L 250.14699999999996,439.4820000000002 L 250.03799999999995,439.5560000000002 L 249.89399999999995,439.6930000000002 L 249.87399999999994,439.90100000000024 L 249.89599999999993,440.07800000000026 L 250.03299999999993,440.21500000000026 L 250.15599999999992,440.3010000000003 L 250.44899999999993,440.71300000000025 L 250.9699999999999,441.23300000000023 L 251.0689999999999,441.42200000000025 L 251.1499999999999,441.70300000000026 L 250.99299999999988,441.83500000000026 L 250.87099999999987,441.89100000000025 L 250.37499999999986,441.91300000000024 L 250.20399999999987,442.02500000000026 L 250.13499999999988,442.19600000000025 L 249.94999999999987,442.33600000000024 L 249.31099999999986,442.47500000000025 L 248.80899999999986,442.49100000000027 L 248.65299999999985,442.33100000000024 L 248.61499999999984,441.8800000000002 L 248.27699999999984,441.11000000000024 L 248.19599999999986,440.57900000000024 L 248.11199999999985,440.6450000000002 L 247.93299999999985,440.7070000000002 L 247.87199999999984,440.8390000000002 L 247.82699999999986,441.23000000000025 L 247.76099999999985,441.36400000000026 L 247.62299999999985,441.3510000000003 L 247.33899999999986,441.2110000000003 L 246.96099999999987,441.0820000000003 L 246.47999999999988,440.25300000000027 L 246.42799999999988,440.09700000000026 L 246.3339999999999,439.91000000000025 L 245.96199999999988,439.83100000000024 L 245.64499999999987,439.69100000000026 L 245.29899999999986,439.67000000000024 L 245.12199999999987,439.74900000000025 L 244.94099999999986,439.6490000000002 L 244.90999999999985,439.4210000000002 L 244.54699999999985,439.5230000000002 L 244.08099999999985,439.4870000000002 L 243.66399999999985,439.3900000000002 L 243.37899999999985,439.44200000000023 L 243.13999999999984,439.6040000000002 L 243.17299999999983,440.0170000000002 L 243.10299999999984,440.0990000000002 L 243.09199999999984,439.93000000000023 L 243.00899999999984,439.7360000000002 L 242.90899999999985,439.5750000000002 L 242.69899999999984,439.40800000000024 L 242.68799999999985,439.34700000000026 L 242.77099999999984,439.26300000000026 L 243.15199999999984,439.02100000000024 L 243.19899999999984,438.92000000000024 L 243.20499999999984,438.71000000000026 L 243.16799999999984,438.50900000000024 L 242.99599999999984,438.21300000000025 L 243.09399999999985,438.03000000000026 L 243.29099999999985,437.88300000000027 L 243.49299999999985,437.7670000000003 L 243.52699999999984,437.7180000000003 L 243.48999999999984,437.6170000000003 L 243.37199999999984,437.5080000000003 L 243.09599999999983,437.3230000000003 L 242.92999999999984,437.3110000000003 L 242.92299999999983,436.7780000000003 L 242.93099999999984,436.21200000000033 L 242.97299999999984,436.15600000000035 L 243.07399999999984,436.12200000000036 L 243.15499999999983,436.03600000000034 L 243.19999999999982,435.86800000000034 L 243.32099999999983,435.80800000000033 L 243.53899999999982,435.93700000000035 L 243.76199999999983,436.05100000000033 L 243.85399999999984,436.0130000000003 L 243.92299999999983,435.95700000000033 L 243.97199999999984,435.9020000000003 L 243.98799999999983,435.8500000000003 L 244.16599999999983,436.0010000000003 L 244.52899999999983,436.2690000000003 L 244.5499999999998,436.40000000000026 L 244.51599999999982,436.52600000000024 L 244.61599999999981,436.88800000000026 L 244.8039999999998,436.9400000000003 L 244.9939999999998,436.8700000000003 L 245.0409999999998,436.9370000000003 L 245.0059999999998,437.0040000000003 L 244.9079999999998,437.0790000000003 L 244.8839999999998,437.39000000000027 L 245.1949999999998,437.53500000000025 L 245.3509999999998,437.66200000000026 L 245.8669999999998,437.60200000000026 L 246.0569999999998,437.63600000000025 L 246.18699999999978,437.5990000000003 L 246.04299999999978,437.3490000000003 L 245.84999999999977,437.16400000000027 L 245.86599999999976,437.08100000000024 L 246.01199999999974,437.14300000000026 L 246.12399999999974,437.26900000000023 L 246.37799999999973,437.42500000000024 L 246.84499999999974,437.9670000000002 L 247.38099999999974,438.0980000000002 L 247.80499999999975,438.0810000000002 L 248.19999999999976,438.0080000000002 L 248.82899999999975,437.79800000000023 L 249.28499999999974,437.41800000000023 L 249.64799999999974,437.24900000000025 L 250.82599999999974,436.88800000000026 L 251.24399999999974,436.5100000000003 L 251.42099999999974,436.4610000000003 L 251.58899999999974,436.41400000000027 L 251.95899999999975,436.12800000000027 L 252.15799999999976,435.90500000000026 L 252.36799999999977,435.79300000000023 L 252.99099999999976,435.87400000000025 L 253.39499999999975,435.97900000000027 L 253.67399999999975,435.96500000000026 L 253.94199999999975,436.04000000000025 L 254.05899999999974,436.2020000000002 L 254.18099999999976,436.27100000000024 L 254.83999999999975,436.25300000000027 L 255.37999999999974,436.33300000000025 L 256.56299999999976,436.8130000000003 L 257.2709999999998,437.2880000000003 L 257.6459999999998,437.7920000000003 L 258.55,438.44 M 244.912,436.4 L 244.881,436.532 L 244.664,436.29499999999996 L 244.79299999999998,436.256 L 244.83899999999997,436.26099999999997 L 244.912,436.4 M 254.272,439.522 L 254.21599999999998,439.641 L 254.08499999999998,439.375 L 254.10599999999997,439.307 L 254.09699999999998,439.067 L 254.22199999999998,439.004 L 254.314,438.999 L 254.39,439.033 L 254.438,439.31600000000003 L 254.398,439.444 L 254.272,439.522 M 253.803,439.579 L 253.677,439.704 L 253.629,439.586 L 253.71699999999998,439.463 L 253.748,439.46200000000005 L 253.803,439.579 M 246.681,442.172 L 246.52700000000002,442.187 L 246.21300000000002,442.06600000000003 L 245.98300000000003,441.833 L 245.96400000000003,441.75800000000004 L 245.96900000000002,441.68000000000006 L 246.09400000000002,441.44200000000006 L 246.26200000000003,441.36000000000007 L 246.32800000000003,441.36100000000005 L 246.48900000000003,441.636 L 246.38000000000002,441.742 L 246.42400000000004,441.91200000000003 L 246.65200000000004,442.038 L 246.681,442.172" id="PA" title="Panama"/>
</svg>
