<svg xmlns="http://www.w3.org/2000/svg" xmlns:ev="http://www.w3.org/2001/xml-events" xmlns:xlink="http://www.w3.org/1999/xlink" baseProfile="full" height="51.93402099609375" version="1.1" viewBox="247.4290008544922 462.7869873046875 35.50700378417969 51.93402099609375" width="35.50700378417969" fill="#00394f">
	<defs/>
	<path class="land" d="M 279.341,474.49 L 279.324,474.672 L 279.234,474.745 L 279.096,474.761 L 278.884,474.631 L 278.729,474.664 L 278.574,474.672 L 278.356,474.521 L 278.281,474.372 L 278.11,474.25 L 277.756,474.299 L 277.464,474.302 L 277.22,474.274 L 277.001,474.315 L 276.815,474.472 L 276.676,474.656 L 276.513,474.81 L 276.034,474.913 L 275.779,474.916 L 275.55,475.017 L 275.209,475.054 L 274.976,475.144 L 274.563,475.193 L 274.068,475.24 L 273.792,475.377 L 273.682,475.437 L 273.401,475.626 L 272.912,475.924 L 272.642,476.028 L 272.316,476.351 L 271.925,476.654 L 271.671,476.815 L 271.298,476.889 L 271.143,476.971 L 271.086,477.068 L 271.119,477.182 L 271.055,477.474 L 270.941,478.013 L 270.91,478.278 L 270.882,478.404 L 270.635,478.838 L 270.369,479.241 L 270.238,479.508 L 270.165,479.704 L 270.247,479.866 L 270.355,480.159 L 270.446,480.393 L 270.472,480.552 L 270.44,480.734 L 270.328,480.901 L 270.151,481.01 L 269.913,481.04 L 269.423,481.333 L 268.877,481.767 L 268.698,481.969 L 268.647,482.16 L 268.568,482.458 L 268.601,482.613 L 268.698,482.719 L 268.796,482.972 L 268.804,483.103 L 268.723,483.176 L 268.568,483.192 L 268.429,483.217 L 268.323,483.282 L 268.217,483.266 L 268.12,483.298 L 268.12,483.405 L 268.152,483.527 L 268.136,483.658 L 268.071,483.739 L 268.014,483.796 L 268.071,483.878 L 268.168,483.952 L 268.315,484.074 L 268.519,484.311 L 268.674,484.352 L 268.804,484.434 L 268.82,484.564 L 268.771,484.695 L 268.657,484.752 L 268.649,484.867 L 268.804,485.006 L 268.91,485.104 L 269.016,485.251 L 269.114,485.456 L 269.114,485.586 L 269.22,485.75 L 269.285,485.889 L 269.285,486.02 L 269.456,486.15 L 269.603,486.249 L 269.708,486.339 L 269.814,486.396 L 269.839,486.494 L 269.825,486.643 L 269.977,486.889 L 270.256,487.073 L 270.482,487.34 L 270.628,487.534 L 270.899,487.846 L 270.909,488.204 L 270.574,488.615 L 270.238,489.027 L 270.787,489.016 L 271.347,489.024 L 271.933,489.142 L 272.328,489.255 L 272.569,489.306 L 272.74,489.438 L 272.821,489.643 L 272.886,489.811 L 272.903,490.053 L 273.147,490.25 L 273.13,490.438 L 273.123,490.703 L 273.231,490.707 L 273.948,490.708 L 274.732,490.709 L 275.486,490.66 L 275.771,490.596 L 276.115,490.274 L 276.322,490.179 L 276.521,490.029 L 276.763,489.755 L 276.955,489.632 L 277.117,489.48 L 277.358,489.328 L 277.458,489.216 L 277.54,489.175 L 277.727,489.101 L 277.646,489.249 L 277.583,489.4 L 277.564,489.618 L 277.653,489.856 L 277.579,490.034 L 277.458,490.193 L 277.456,490.612 L 277.454,491.206 L 277.451,491.715 L 277.448,492.353 L 277.445,493.076 L 277.443,493.557 L 277.571,493.462 L 277.749,493.377 L 277.98,493.598 L 278.145,493.694 L 278.286,493.717 L 278.431,493.71 L 278.628,493.663 L 279.06,493.478 L 279.356,493.329 L 279.695,493.339 L 280.16,493.397 L 280.428,493.391 L 280.779,494.007 L 281.036,494.459 L 281.329,494.974 L 281.564,495.389 L 281.922,496.019 L 282.231,496.564 L 282.561,497.145 L 282.936,497.806 L 282.815,497.974 L 282.717,498.108 L 282.728,498.335 L 282.58,498.456 L 282.423,498.529 L 282.238,498.721 L 282.112,498.886 L 282.106,499.123 L 282.13,500.325 L 282.099,500.652 L 282.003,500.933 L 281.904,501.075 L 281.844,501.187 L 281.987,501.466 L 282.124,502.028 L 282.228,502.14 L 282.356,502.369 L 282.414,502.586 L 282.388,502.669 L 282.131,502.772 L 282.039,502.86 L 282.015,503.183 L 281.904,503.299 L 281.716,503.451 L 281.595,503.625 L 281.493,503.746 L 281.393,503.816 L 281.344,504.029 L 281.277,504.245 L 281.043,504.388 L 281.003,504.653 L 281.0,504.872 L 281.124,505.091 L 281.527,505.552 L 281.568,505.662 L 281.338,505.94 L 281.205,506.133 L 280.877,506.723 L 280.871,506.831 L 280.952,507.11 L 281.441,508.306 L 281.524,508.403 L 281.675,508.517 L 281.922,508.504 L 282.295,508.633 L 282.476,508.781 L 282.493,508.854 L 282.451,508.903 L 282.254,509.002 L 282.035,509.132 L 281.959,509.255 L 281.944,509.45 L 281.994,509.739 L 281.899,509.833 L 281.68,509.945 L 281.491,510.107 L 281.302,510.376 L 280.981,510.786 L 280.87,510.898 L 280.822,511.04 L 280.639,511.087 L 280.298,511.366 L 280.24,511.507 L 280.295,511.641 L 280.47,511.754 L 280.587,511.917 L 280.618,512.126 L 280.618,512.256 L 280.618,512.26 L 280.406,512.456 L 280.13,512.681 L 279.79,512.725 L 279.661,512.838 L 279.69,513.077 L 279.8,513.414 L 279.799,513.678 L 279.695,513.98 L 279.452,514.311 L 279.08,514.539 L 278.729,514.661 L 278.453,514.662 L 278.186,514.686 L 278.072,514.721 L 277.866,514.521 L 276.951,513.86 L 276.603,513.507 L 276.28,513.342 L 275.493,512.776 L 275.415,512.595 L 275.318,512.014 L 275.216,511.851 L 274.945,511.641 L 274.266,511.362 L 274.002,511.223 L 273.726,510.969 L 273.32,510.789 L 272.878,510.42 L 272.615,510.126 L 272.32,509.931 L 271.404,509.659 L 270.945,509.386 L 270.086,509.001 L 269.703,508.756 L 268.784,508.458 L 268.511,508.316 L 267.607,507.619 L 266.973,507.391 L 266.462,507.0 L 264.92,506.169 L 264.678,505.903 L 264.442,505.493 L 264.1,505.249 L 263.715,504.688 L 263.143,504.358 L 262.592,503.921 L 262.389,503.524 L 262.023,503.019 L 261.915,502.75 L 261.595,502.48 L 261.573,501.949 L 261.35,501.705 L 261.51,501.584 L 261.679,501.531 L 261.89,500.706 L 261.779,500.293 L 261.207,499.544 L 260.997,499.185 L 260.848,498.725 L 260.619,498.452 L 260.279,497.877 L 260.071,497.368 L 259.617,496.999 L 259.493,496.866 L 259.424,496.678 L 259.171,496.545 L 259.158,496.155 L 258.982,495.415 L 258.73,495.042 L 257.823,494.346 L 257.808,494.078 L 257.736,493.591 L 257.534,493.064 L 256.525,491.43 L 256.272,490.944 L 256.02,490.155 L 255.793,489.708 L 255.543,488.912 L 255.166,488.307 L 254.928,487.783 L 254.676,487.132 L 254.654,486.784 L 254.196,486.186 L 253.953,485.638 L 253.526,485.179 L 253.109,484.83 L 252.928,484.583 L 252.334,483.411 L 252.253,483.064 L 251.849,482.42 L 251.448,481.958 L 251.195,481.585 L 250.871,481.25 L 248.903,480.219 L 248.21,479.791 L 247.976,479.587 L 247.868,479.266 L 247.913,479.078 L 248.116,478.902 L 248.397,479.038 L 248.569,478.981 L 248.703,478.752 L 248.706,478.405 L 248.534,477.958 L 247.903,477.095 L 247.951,476.912 L 248.07,476.705 L 247.827,476.29 L 247.562,475.957 L 247.429,475.702 L 247.579,474.731 L 247.723,474.485 L 248.677,473.5 L 248.939,473.079 L 249.349,472.819 L 249.767,472.422 L 250.27,472.12 L 250.343,472.172 L 250.413,472.223 L 250.417,472.325 L 250.436,472.413 L 250.492,472.496 L 250.497,472.648 L 250.562,472.75 L 250.566,472.865 L 250.571,473.022 L 250.538,473.101 L 250.57,473.237 L 250.678,473.489 L 250.636,473.567 L 250.534,473.618 L 250.432,473.688 L 250.33,473.845 L 250.176,473.84 L 249.954,473.771 L 249.805,473.858 L 249.75,474.025 L 249.796,474.164 L 249.81,474.293 L 249.907,474.404 L 250.19,474.413 L 249.935,474.769 L 249.81,474.931 L 249.837,475.033 L 249.99,475.12 L 250.104,475.126 L 250.357,474.996 L 250.529,474.806 L 250.626,474.7 L 250.789,474.658 L 251.002,474.746 L 251.285,474.922 L 251.615,475.077 L 251.75,475.162 L 251.992,475.138 L 252.195,475.102 L 252.366,475.23 L 252.539,475.338 L 252.579,475.705 L 252.708,475.973 L 252.866,476.179 L 253.058,476.425 L 253.235,476.508 L 253.463,476.51 L 253.773,476.601 L 253.894,476.541 L 254.0,476.369 L 254.056,476.272 L 254.214,476.23 L 254.228,476.12 L 254.195,475.985 L 254.247,475.828 L 254.376,475.689 L 254.708,475.487 L 254.868,475.402 L 254.901,475.278 L 254.961,475.111 L 254.938,475.019 L 254.871,474.904 L 254.887,474.741 L 254.975,474.524 L 255.1,474.27 L 255.208,473.946 L 255.249,473.794 L 255.365,473.697 L 255.409,473.557 L 255.472,473.392 L 255.615,473.207 L 255.611,473.008 L 255.671,472.92 L 255.676,472.698 L 255.819,472.242 L 255.824,472.147 L 255.887,472.122 L 255.996,472.151 L 256.09,472.255 L 256.119,472.357 L 256.158,472.403 L 256.247,472.394 L 256.349,472.336 L 256.342,472.244 L 256.268,472.154 L 256.247,472.1 L 256.279,472.015 L 256.434,471.83 L 256.603,471.615 L 256.966,471.168 L 257.185,470.986 L 257.75,470.793 L 258.179,470.646 L 258.589,470.506 L 259.147,470.305 L 259.935,470.021 L 260.5,469.817 L 261.005,469.453 L 261.396,469.171 L 261.73,468.928 L 262.154,468.618 L 262.728,467.95 L 263.124,467.489 L 263.412,467.152 L 263.612,466.939 L 263.771,466.34 L 263.953,465.657 L 264.033,465.353 L 264.068,465.247 L 264.146,465.292 L 264.236,465.366 L 264.345,465.369 L 264.448,465.366 L 264.513,465.324 L 264.417,464.642 L 264.431,464.493 L 264.485,464.315 L 264.474,464.219 L 264.3,464.083 L 264.021,463.81 L 263.905,463.567 L 263.835,463.363 L 263.64,463.228 L 263.439,463.11 L 263.456,463.013 L 263.575,463.013 L 263.877,463.108 L 264.095,463.078 L 264.257,463.067 L 264.415,462.967 L 264.583,462.787 L 264.696,462.787 L 264.825,462.811 L 265.06,462.996 L 265.199,463.105 L 265.367,463.195 L 265.525,463.227 L 265.669,463.237 L 265.77,463.229 L 265.829,463.352 L 265.899,463.503 L 266.078,463.605 L 266.29,463.702 L 266.461,463.869 L 266.577,463.981 L 266.714,464.113 L 266.847,464.289 L 266.967,464.598 L 267.028,464.808 L 267.097,464.924 L 267.081,465.042 L 267.223,465.257 L 267.328,465.376 L 267.512,465.452 L 267.867,465.538 L 268.057,465.732 L 268.225,465.807 L 268.403,466.007 L 268.561,466.066 L 268.761,466.055 L 268.961,466.152 L 269.113,466.341 L 269.211,466.578 L 269.363,466.712 L 269.438,466.955 L 269.352,467.24 L 269.433,467.391 L 269.59,467.515 L 269.845,467.644 L 270.078,467.612 L 270.197,467.655 L 270.273,467.773 L 270.316,467.914 L 270.418,468.256 L 270.471,468.473 L 270.376,468.683 L 270.341,468.829 L 270.393,469.023 L 270.635,469.118 L 270.855,469.195 L 270.991,469.346 L 271.143,469.387 L 271.356,469.378 L 271.628,469.341 L 271.78,469.254 L 271.877,469.228 L 271.986,469.266 L 272.228,469.349 L 272.522,469.443 L 272.789,469.389 L 273.02,469.364 L 273.249,469.309 L 273.481,469.152 L 273.677,469.158 L 273.822,469.052 L 274.005,468.882 L 274.186,468.711 L 274.327,468.673 L 274.555,468.755 L 274.869,468.873 L 275.047,469.026 L 275.183,469.066 L 275.325,469.179 L 275.597,469.181 L 275.888,469.12 L 276.121,468.932 L 276.362,468.877 L 276.527,468.824 L 276.679,468.856 L 277.266,469.201 L 277.427,469.379 L 277.629,469.414 L 277.795,469.511 L 278.072,469.616 L 278.224,469.724 L 278.418,469.789 L 278.56,469.939 L 278.783,470.032 L 278.977,470.083 L 279.064,470.205 L 279.064,470.286 L 279.038,470.34 L 278.833,470.658 L 278.431,471.281 L 278.069,471.842 L 277.5,472.726 L 277.183,473.22 L 277.264,473.241 L 277.759,473.457 L 277.882,473.465 L 278.063,473.41 L 278.181,473.324 L 278.292,473.312 L 278.408,473.395 L 278.571,473.502 L 278.688,473.817 L 278.775,473.971 L 278.979,474.088 L 279.197,474.283 L 279.341,474.49" id="PE" title="Peru"/>
</svg>
