<svg xmlns="http://www.w3.org/2000/svg" xmlns:ev="http://www.w3.org/2001/xml-events" xmlns:xlink="http://www.w3.org/1999/xlink" baseProfile="full" height="34.967010498046875" version="1.1" viewBox="50.481998443603516 487.2489929199219 42.71000289916992 34.967010498046875" width="42.71000289916992">
	<defs/>
	<path class="land" d="M 82.587,487.612 L 82.312,487.678 L 82.181,487.666 L 82.082,487.436 L 82.118,487.294 L 82.16199999999999,487.24899999999997 L 82.63,487.30499999999995 L 82.67,487.40899999999993 L 82.663,487.5079999999999 L 82.587,487.612 M 84.037,487.696 L 83.855,487.718 L 83.825,487.57800000000003 L 83.881,487.504 L 83.959,487.469 L 84.098,487.512 L 84.17099999999999,487.573 L 84.16699999999999,487.625 L 84.037,487.696 M 82.579,489.068 L 82.51799999999999,489.12 L 82.40399999999998,488.951 L 82.38599999999998,488.88 L 82.59199999999998,488.792 L 82.70399999999998,488.83799999999997 L 82.579,489.068 M 85.53,489.829 L 85.95,489.976 L 86.08200000000001,489.96 L 85.94800000000001,490.10499999999996 L 85.52900000000001,490.18399999999997 L 85.39000000000001,490.25399999999996 L 85.22100000000002,490.20899999999995 L 85.13000000000002,490.04099999999994 L 85.53,489.829 M 85.43,490.498 L 85.22200000000001,490.719 L 85.22200000000001,490.484 L 85.29700000000001,490.453 L 85.36500000000001,490.453 L 85.43,490.498 M 86.577,492.152 L 86.474,492.2 L 86.467,491.897 L 86.6,491.955 L 86.652,492.00399999999996 L 86.63,492.087 L 86.577,492.152 M 68.615,507.455 L 68.597,507.58599999999996 L 68.544,507.46 L 68.371,507.258 L 68.307,507.168 L 68.384,507.182 L 68.615,507.455 M 75.742,508.152 L 75.69200000000001,508.183 L 75.756,507.953 L 75.828,507.924 L 75.742,508.152 M 67.393,508.83 L 67.406,508.88 L 67.348,508.877 L 67.244,508.73 L 67.207,508.603 L 67.14099999999999,508.458 L 67.05,508.353 L 67.03999999999999,508.25600000000003 L 67.03699999999999,508.103 L 67.13999999999999,508.337 L 67.23799999999999,508.525 L 67.30899999999998,508.679 L 67.393,508.83 M 50.61,509.784 L 50.559,509.806 L 50.504999999999995,509.753 L 50.48199999999999,509.67199999999997 L 50.50099999999999,509.541 L 50.63699999999999,509.627 L 50.690999999999995,509.685 L 50.61,509.784 M 72.769,509.717 L 72.658,509.734 L 72.387,509.561 L 72.491,509.561 L 72.646,509.669 L 72.769,509.717 M 73.135,509.674 L 73.28800000000001,509.81699999999995 L 73.08500000000001,509.71899999999994 L 72.82700000000001,509.67699999999996 L 72.92500000000001,509.65099999999995 L 73.06800000000001,509.655 L 73.135,509.674 M 50.77,510.425 L 50.659000000000006,510.42900000000003 L 50.55800000000001,510.384 L 50.583000000000006,510.084 L 50.61000000000001,510.022 L 50.766000000000005,510.123 L 50.897000000000006,510.385 L 50.77,510.425 M 55.25,512.374 L 55.162,512.45 L 55.045,512.3960000000001 L 54.993,512.3230000000001 L 54.974000000000004,512.2450000000001 L 55.001000000000005,512.1520000000002 L 55.263000000000005,512.1650000000002 L 55.337,512.2060000000002 L 55.25,512.374 M 56.63,512.798 L 57.034000000000006,512.934 L 57.10900000000001,513.155 L 57.02300000000001,513.302 L 56.81900000000001,513.2660000000001 L 56.71800000000001,513.1850000000001 L 56.57600000000001,512.921 L 56.181000000000004,512.981 L 55.908,512.929 L 55.757,512.5849999999999 L 55.751,512.429 L 55.817,512.334 L 56.107,512.2299999999999 L 56.469,512.3059999999999 L 56.607,512.501 L 56.63,512.798 M 80.52,513.286 L 80.53399999999999,513.342 L 80.43199999999999,513.335 L 80.40199999999999,513.316 L 80.40399999999998,513.212 L 80.47799999999998,513.086 L 80.53599999999999,512.98 L 80.65399999999998,512.881 L 80.86499999999998,512.7819999999999 L 80.96699999999998,512.7399999999999 L 81.0,512.763 L 80.961,512.778 L 80.612,512.986 L 80.503,513.132 L 80.455,513.2339999999999 L 80.464,513.266 L 80.52,513.286 M 80.462,514.262 L 80.482,514.343 L 80.377,514.289 L 80.27799999999999,514.14 L 80.10099999999998,513.955 L 80.05899999999998,513.879 L 80.19499999999998,513.951 L 80.28399999999998,514.059 L 80.462,514.262 M 91.29,514.711 L 91.29100000000001,514.766 L 91.02100000000002,514.485 L 91.12700000000001,514.5070000000001 L 91.29,514.711 M 80.868,514.822 L 80.90599999999999,514.929 L 80.838,514.879 L 80.621,514.775 L 80.597,514.688 L 80.868,514.822 M 93.192,515.306 L 93.13499999999999,515.37 L 93.13,515.308 L 93.051,515.278 L 92.94200000000001,515.215 L 92.79400000000001,515.143 L 92.71400000000001,515.1310000000001 L 92.674,515.089 L 92.73,515.067 L 92.821,515.1 L 92.949,515.166 L 93.097,515.2320000000001 L 93.192,515.306 M 86.985,522.16 L 86.903,522.216 L 86.933,522.14 L 86.87,521.9739999999999 L 86.808,521.9499999999999 L 86.87,521.9029999999999 L 86.958,522.0279999999999 L 86.985,522.16" id="PF" title="French Polynesia"/>
</svg>
