<svg xmlns="http://www.w3.org/2000/svg" xmlns:ev="http://www.w3.org/2001/xml-events" xmlns:xlink="http://www.w3.org/1999/xlink" baseProfile="full" height="28.87701416015625" version="1.1" viewBox="871.0289916992188 466.4440002441406 42.364013671875 28.87701416015625" width="42.364013671875" fill="#00394f">
	<defs/>
	<path class="land" d="M 906.597,494.881 L 907.066,495.03 L 907.225,495.195 L 907.056,495.27 L 906.6460000000001,495.32099999999997 L 906.5500000000001,495.21999999999997 L 906.1560000000001,495.118 L 906.0930000000001,494.93399999999997 L 905.897,494.99699999999996 L 905.9970000000001,494.86799999999994 L 905.7500000000001,494.7219999999999 L 905.6730000000001,494.52699999999993 L 905.6630000000001,494.4479999999999 L 905.9530000000001,494.53899999999993 L 906.597,494.881 M 908.687,494.555 L 908.646,494.71 L 908.543,494.65799999999996 L 908.238,494.73799999999994 L 908.0780000000001,494.71999999999997 L 907.9860000000001,494.58099999999996 L 907.964,494.51699999999994 L 908.229,494.56699999999995 L 908.1850000000001,494.41299999999995 L 908.567,494.49199999999996 L 908.687,494.555 M 899.195,492.294 L 899.1550000000001,492.51599999999996 L 898.9250000000001,492.45 L 898.878,492.402 L 898.916,492.262 L 899.12,492.25600000000003 L 899.195,492.294 M 899.706,490.749 L 899.825,490.749 L 900.024,490.538 L 900.197,490.474 L 900.3100000000001,490.57 L 900.1260000000001,491.24399999999997 L 899.9710000000001,491.142 L 899.3640000000001,490.954 L 899.3450000000001,490.687 L 899.1870000000001,490.601 L 899.0890000000002,490.341 L 898.8880000000001,490.053 L 898.8500000000001,489.868 L 898.9640000000002,489.944 L 899.0920000000002,490.132 L 899.6230000000002,490.51800000000003 L 899.6020000000002,490.64300000000003 L 899.706,490.749 M 898.155,488.844 L 898.5509999999999,489.075 L 898.7679999999999,489.008 L 898.886,489.046 L 899.14,489.31399999999996 L 899.154,489.51 L 899.195,489.678 L 899.182,489.752 L 899.041,489.85200000000003 L 899.0540000000001,489.73800000000006 L 898.9460000000001,489.71600000000007 L 898.5770000000001,489.72100000000006 L 898.2910000000002,489.65000000000003 L 897.8970000000002,489.63100000000003 L 898.0630000000002,489.45300000000003 L 898.1000000000003,489.38000000000005 L 897.8930000000003,489.09400000000005 L 897.8840000000002,488.958 L 897.9010000000003,488.88300000000004 L 898.0740000000003,488.84200000000004 L 898.155,488.844 M 897.642,489.26 L 897.6030000000001,489.33 L 897.4390000000001,489.279 L 896.9810000000001,488.888 L 897.0520000000001,488.59799999999996 L 897.2580000000002,488.448 L 897.5710000000001,488.61199999999997 L 897.6750000000002,488.852 L 897.7060000000001,488.986 L 897.642,489.26 M 904.057,487.75 L 904.22,487.792 L 904.5590000000001,487.77099999999996 L 904.671,487.93299999999994 L 904.826,487.9889999999999 L 904.96,488.0619999999999 L 905.0790000000001,488.1679999999999 L 905.0780000000001,488.2329999999999 L 905.0500000000001,488.2889999999999 L 904.9780000000001,488.33999999999986 L 904.999,488.45399999999984 L 904.875,488.43699999999984 L 904.721,488.49699999999984 L 904.417,488.36399999999986 L 904.307,488.3339999999999 L 904.274,488.2199999999999 L 904.077,488.02899999999994 L 903.732,487.89199999999994 L 903.906,487.7799999999999 L 904.057,487.75 M 878.684,486.831 L 878.735,486.95500000000004 L 878.327,486.78600000000006 L 877.937,486.50300000000004 L 877.74,486.42600000000004 L 877.6080000000001,486.23900000000003 L 877.85,486.37800000000004 L 878.272,486.50800000000004 L 878.684,486.831 M 899.779,487.113 L 899.827,487.315 L 899.608,487.099 L 899.7059999999999,486.85499999999996 L 899.723,486.72299999999996 L 899.712,486.64899999999994 L 899.4929999999999,486.52299999999997 L 899.6089999999999,486.31699999999995 L 899.732,486.24699999999996 L 899.809,486.227 L 899.805,486.518 L 899.8679999999999,486.64799999999997 L 899.779,487.113 M 878.674,486.403 L 878.552,486.41200000000003 L 878.057,486.22100000000006 L 877.931,486.08200000000005 L 878.51,486.11300000000006 L 878.659,486.1480000000001 L 878.6899999999999,486.3430000000001 L 878.674,486.403 M 891.132,478.941 L 891.0189999999999,478.962 L 890.9699999999999,478.835 L 890.7069999999999,478.72499999999997 L 890.4449999999999,478.383 L 890.449,478.09 L 890.483,478.006 L 890.6289999999999,478.00199999999995 L 891.2129999999999,478.34 L 891.2739999999999,478.448 L 891.2299999999999,478.769 L 891.132,478.941 M 913.393,481.354 L 913.325,481.61699999999996 L 913.273,481.662 L 913.2090000000001,481.563 L 912.965,481.659 L 912.849,481.768 L 912.725,481.84799999999996 L 912.4390000000001,481.828 L 912.1680000000001,481.756 L 911.9050000000001,481.623 L 911.6720000000001,481.452 L 911.4380000000001,481.183 L 911.2920000000001,480.905 L 911.3640000000001,480.582 L 911.2730000000001,480.29 L 910.8310000000001,480.083 L 910.7340000000002,480.016 L 910.5380000000001,479.726 L 910.3430000000001,479.6 L 910.094,479.346 L 910.0310000000001,479.236 L 909.9250000000001,478.914 L 909.8910000000001,478.71999999999997 L 909.9810000000001,478.155 L 909.9480000000001,477.873 L 910.0690000000001,477.9 L 910.1980000000001,478.01099999999997 L 910.344,478.08799999999997 L 910.6990000000001,478.14 L 910.97,478.365 L 911.231,478.80400000000003 L 911.262,478.94800000000004 L 911.3449999999999,479.052 L 911.6129999999999,479.23900000000003 L 911.7529999999999,479.35900000000004 L 912.0179999999999,479.838 L 912.1639999999999,479.94 L 912.3379999999999,479.981 L 912.4989999999998,480.05 L 912.7679999999998,480.26 L 913.0159999999998,480.498 L 913.1829999999999,480.748 L 913.3109999999999,481.01599999999996 L 913.393,481.354 M 888.748,477.836 L 888.591,477.85200000000003 L 888.335,477.586 L 888.27,477.487 L 888.295,477.348 L 888.621,477.16200000000003 L 888.832,477.33200000000005 L 888.876,477.696 L 888.748,477.836 M 909.715,477.838 L 909.659,477.86 L 909.537,477.50600000000003 L 909.5160000000001,477.244 L 909.479,477.05100000000004 L 909.4150000000001,476.93600000000004 L 909.599,476.72400000000005 L 909.6750000000001,476.665 L 909.8140000000001,476.77700000000004 L 909.835,477.02600000000007 L 909.941,477.2370000000001 L 909.86,477.6980000000001 L 909.715,477.838 M 885.501,475.861 L 885.313,475.944 L 885.178,475.88100000000003 L 885.12,475.697 L 885.166,475.52 L 885.331,475.38 L 885.4350000000001,475.338 L 885.552,475.43300000000005 L 885.597,475.62100000000004 L 885.501,475.861 M 902.049,474.66 L 902.1949999999999,474.716 L 902.6149999999999,474.42400000000004 L 902.8399999999999,474.62800000000004 L 903.127,474.72700000000003 L 903.425,474.783 L 903.3069999999999,475.20300000000003 L 903.3419999999999,475.39700000000005 L 903.4189999999999,475.59000000000003 L 903.4089999999999,475.87500000000006 L 903.2719999999999,476.1290000000001 L 903.0089999999999,476.50000000000006 L 902.8909999999998,476.56800000000004 L 902.7529999999998,476.60800000000006 L 902.3229999999999,476.63800000000003 L 902.2399999999999,476.83500000000004 L 902.2679999999999,477.04400000000004 L 902.4999999999999,477.31800000000004 L 902.6859999999999,477.62600000000003 L 902.501,477.90900000000005 L 902.196,478.107 L 901.907,478.208 L 901.428,478.148 L 900.923,478.173 L 900.828,478.281 L 900.826,478.46 L 900.755,478.596 L 900.663,478.72 L 900.407,478.97700000000003 L 900.12,479.204 L 899.729,479.419 L 899.5980000000001,479.46999999999997 L 899.2510000000001,479.50399999999996 L 898.94,479.628 L 898.801,479.74899999999997 L 898.6500000000001,479.847 L 898.32,479.954 L 897.999,480.166 L 897.8720000000001,480.202 L 897.205,480.239 L 896.2510000000001,480.24899999999997 L 895.969,480.27099999999996 L 895.695,480.24199999999996 L 895.5440000000001,480.15899999999993 L 895.2200000000001,479.77799999999996 L 894.9380000000001,479.647 L 894.6300000000001,479.651 L 894.2200000000001,479.786 L 894.1430000000001,479.75600000000003 L 893.3250000000002,479.19300000000004 L 893.0770000000001,479.05500000000006 L 892.8120000000001,478.9530000000001 L 892.4890000000001,478.8810000000001 L 892.1840000000002,478.7680000000001 L 892.0040000000002,478.5000000000001 L 892.0250000000002,478.1510000000001 L 892.2700000000002,477.94600000000014 L 892.6430000000003,478.04700000000014 L 892.7860000000003,478.04600000000016 L 892.9260000000003,477.98800000000017 L 893.0910000000002,478.0070000000002 L 893.2570000000003,478.05800000000016 L 893.8620000000003,477.98200000000014 L 894.2120000000003,478.08800000000014 L 894.5530000000003,478.23000000000013 L 894.8710000000003,478.2600000000001 L 895.1980000000003,478.23000000000013 L 895.6360000000003,478.0700000000001 L 895.7750000000003,478.0910000000001 L 896.1970000000003,478.0920000000001 L 896.5660000000004,477.8780000000001 L 896.7040000000004,477.0150000000001 L 896.7980000000005,476.7210000000001 L 896.9240000000004,476.6570000000001 L 897.0140000000005,476.67500000000007 L 897.1490000000005,476.82200000000006 L 896.9760000000005,477.00500000000005 L 896.9000000000004,477.1460000000001 L 896.8750000000005,477.49000000000007 L 896.9700000000005,477.82400000000007 L 897.1860000000005,478.08900000000006 L 897.5100000000004,478.12300000000005 L 897.8070000000005,477.94800000000004 L 898.1300000000005,477.91100000000006 L 898.4280000000005,478.0810000000001 L 898.7340000000005,478.0520000000001 L 898.8740000000005,477.9410000000001 L 899.0370000000005,477.8930000000001 L 899.1990000000005,477.8750000000001 L 899.3460000000006,477.80900000000014 L 899.5410000000006,477.52000000000015 L 899.6710000000006,477.19500000000016 L 899.8650000000006,476.9390000000002 L 900.3940000000006,476.51200000000017 L 900.5470000000006,476.4590000000002 L 900.7120000000006,476.4300000000002 L 901.0840000000005,476.4490000000002 L 901.3610000000006,476.2970000000002 L 901.3820000000005,475.9550000000002 L 901.3420000000006,475.60800000000023 L 901.0260000000005,474.79300000000023 L 901.0050000000006,474.6640000000002 L 901.0500000000005,474.51900000000023 L 901.1420000000005,474.38900000000024 L 901.4530000000005,474.3870000000002 L 901.7770000000005,474.43400000000025 L 901.9050000000005,474.55700000000024 L 902.049,474.66 M 906.942,474.108 L 906.917,474.174 L 906.7520000000001,474.09799999999996 L 906.888,473.955 L 906.9530000000001,473.945 L 906.942,474.108 M 904.168,471.41 L 904.1,471.65500000000003 L 903.928,471.511 L 903.811,471.30400000000003 L 903.885,471.21200000000005 L 904.078,471.15700000000004 L 904.168,471.41 M 902.564,470.891 L 902.534,471.03200000000004 L 902.446,471.02400000000006 L 902.205,470.74800000000005 L 902.158,470.67600000000004 L 902.215,470.607 L 902.495,470.81 L 902.564,470.891 M 902.166,470.563 L 902.099,470.563 L 902.089,470.34 L 902.1350000000001,470.22299999999996 L 902.291,470.30499999999995 L 902.317,470.50399999999996 L 902.166,470.563 M 880.176,473.314 L 880.5300000000001,473.322 L 880.8850000000001,473.279 L 881.0310000000001,473.298 L 881.1750000000001,473.342 L 881.306,473.426 L 881.3720000000001,473.587 L 881.5930000000001,473.811 L 881.9050000000001,473.912 L 882.2020000000001,474.11499999999995 L 882.4690000000002,474.35699999999997 L 882.6650000000002,474.601 L 882.8880000000001,474.807 L 883.2250000000001,474.894 L 883.5800000000002,474.908 L 884.7940000000002,476.13300000000004 L 884.8530000000002,476.32200000000006 L 884.8670000000002,477.12600000000003 L 884.7330000000002,477.754 L 885.0350000000002,477.947 L 885.4470000000002,478.019 L 886.0250000000002,478.153 L 886.5810000000002,478.353 L 888.3520000000002,479.201 L 888.5950000000003,479.273 L 888.9520000000002,479.30100000000004 L 889.3120000000002,479.28900000000004 L 889.4410000000003,479.33200000000005 L 889.7110000000002,479.48600000000005 L 889.8460000000002,479.58700000000005 L 890.0880000000002,479.86100000000005 L 890.3040000000002,480.15900000000005 L 890.3970000000002,480.244 L 890.5060000000002,480.31 L 890.5690000000002,480.472 L 890.6530000000001,480.972 L 890.6280000000002,481.284 L 890.5290000000001,481.4 L 890.2460000000001,481.45599999999996 L 889.2540000000001,481.50899999999996 L 888.5900000000001,481.45099999999996 L 888.1250000000001,481.76599999999996 L 888.1120000000001,481.90399999999994 L 888.1450000000001,482.0319999999999 L 888.5490000000001,482.7009999999999 L 888.7870000000001,483.2949999999999 L 888.9840000000002,483.5359999999999 L 889.2790000000001,483.7319999999999 L 889.5420000000001,483.96399999999994 L 889.7840000000001,484.23099999999994 L 890.2870000000001,484.6959999999999 L 890.5600000000002,484.8689999999999 L 890.8810000000002,484.9749999999999 L 891.4150000000002,485.3359999999999 L 891.4860000000002,485.4949999999999 L 891.6380000000003,485.9969999999999 L 891.7040000000003,486.3379999999999 L 891.7140000000003,486.4789999999999 L 891.7520000000003,486.6049999999999 L 892.2220000000003,486.9149999999999 L 892.3260000000004,487.0009999999999 L 892.5350000000003,487.6889999999999 L 892.6960000000003,488.0089999999999 L 892.9670000000002,488.1219999999999 L 893.2820000000003,488.1149999999999 L 894.1390000000002,487.9099999999999 L 894.2630000000003,487.9029999999999 L 894.4220000000003,487.94999999999993 L 894.5610000000003,488.06199999999995 L 894.6070000000003,488.37199999999996 L 894.4720000000003,488.698 L 894.4350000000003,489.01099999999997 L 894.6040000000003,489.268 L 895.0410000000003,489.46799999999996 L 895.2010000000002,489.52299999999997 L 895.9870000000002,489.587 L 896.2960000000002,489.64099999999996 L 896.5990000000002,489.72799999999995 L 896.7030000000002,489.8059999999999 L 896.6300000000002,489.9439999999999 L 896.4720000000002,490.0119999999999 L 896.2920000000003,490.0389999999999 L 896.0030000000003,490.1389999999999 L 896.0080000000003,490.3169999999999 L 896.1710000000003,490.5019999999999 L 896.3200000000003,490.7249999999999 L 896.4450000000003,490.8059999999999 L 896.5810000000002,490.86099999999993 L 896.9210000000003,490.93799999999993 L 897.2520000000003,491.0439999999999 L 897.4700000000003,491.14899999999994 L 897.6950000000003,491.22499999999997 L 898.1850000000003,491.27299999999997 L 898.5450000000003,491.41599999999994 L 899.0570000000002,491.35599999999994 L 898.6140000000003,491.58799999999997 L 898.4610000000002,491.645 L 897.9260000000003,491.558 L 897.8250000000003,491.64799999999997 L 898.0460000000003,491.89399999999995 L 898.3730000000003,492.05899999999997 L 898.4900000000002,492.155 L 898.4080000000002,492.267 L 898.0270000000003,492.492 L 897.8680000000003,492.52500000000003 L 897.5710000000003,492.543 L 897.0730000000002,492.446 L 896.7200000000003,492.322 L 896.6210000000002,492.153 L 896.5270000000002,492.05400000000003 L 896.2090000000002,491.81600000000003 L 895.9820000000002,491.68600000000004 L 895.6940000000002,491.64200000000005 L 895.3930000000001,491.64400000000006 L 894.8550000000001,491.5060000000001 L 893.6880000000001,491.4080000000001 L 893.4100000000001,491.34800000000007 L 893.0600000000001,491.1580000000001 L 892.8950000000001,491.1310000000001 L 892.7180000000001,491.1910000000001 L 892.267,491.22800000000007 L 892.1350000000001,491.21100000000007 L 891.8130000000001,491.0490000000001 L 891.4820000000001,490.9890000000001 L 891.3430000000001,491.03800000000007 L 891.2030000000001,491.0490000000001 L 890.7500000000001,490.9330000000001 L 890.4090000000001,490.8840000000001 L 890.1290000000001,490.72200000000015 L 889.9770000000001,490.57100000000014 L 889.8050000000001,490.4370000000001 L 889.6460000000001,490.0920000000001 L 889.3990000000001,489.7650000000001 L 889.0910000000001,489.4960000000001 L 888.4330000000001,489.06200000000007 L 888.3010000000002,488.95400000000006 L 888.0430000000001,488.5570000000001 L 888.0570000000001,488.29300000000006 L 888.1510000000002,488.02700000000004 L 888.0090000000001,488.11800000000005 L 887.8490000000002,488.10600000000005 L 887.4010000000002,487.93000000000006 L 887.2160000000002,487.72100000000006 L 886.9170000000003,487.1530000000001 L 886.7260000000002,486.85300000000007 L 886.2790000000002,486.3230000000001 L 886.1500000000002,486.00900000000007 L 885.9620000000002,485.7340000000001 L 885.8470000000002,485.6320000000001 L 885.7510000000002,485.5140000000001 L 885.6660000000002,485.3610000000001 L 885.5390000000002,485.2550000000001 L 884.9150000000002,485.0200000000001 L 884.8060000000002,484.9460000000001 L 884.6850000000002,484.9070000000001 L 884.2210000000001,484.8830000000001 L 883.9520000000001,484.8440000000001 L 883.4460000000001,484.6510000000001 L 883.1840000000002,484.59300000000013 L 882.8700000000002,484.55600000000015 L 882.5650000000003,484.4830000000002 L 882.4170000000003,484.4110000000002 L 882.3170000000002,484.2900000000002 L 882.2580000000003,484.0030000000002 L 882.0020000000003,484.0340000000002 L 881.7520000000003,483.9840000000002 L 881.5100000000003,483.8830000000002 L 881.2630000000004,483.82200000000023 L 881.0940000000004,483.9090000000002 L 881.0420000000004,484.1380000000002 L 880.9640000000004,484.1500000000002 L 880.8190000000004,484.1030000000002 L 880.7470000000004,484.1310000000002 L 880.5900000000004,484.2360000000002 L 880.4650000000004,484.3790000000002 L 880.2330000000004,484.3570000000002 L 879.7580000000004,484.2130000000002 L 879.5460000000004,484.1230000000002 L 879.3660000000004,483.9600000000002 L 879.2120000000004,483.7750000000002 L 879.0560000000005,483.6290000000002 L 878.8640000000005,483.5230000000002 L 879.1080000000005,483.7750000000002 L 879.6710000000005,484.8840000000002 L 879.5300000000005,484.9050000000002 L 879.3850000000006,484.8770000000002 L 879.5180000000006,485.0900000000002 L 879.3650000000006,485.1220000000002 L 879.2130000000005,485.1200000000002 L 878.8930000000005,485.0280000000002 L 878.5750000000005,484.9970000000002 L 878.4810000000004,485.0420000000002 L 878.5480000000005,485.1220000000002 L 878.6600000000004,485.3580000000002 L 878.7490000000005,485.6050000000002 L 878.2890000000004,485.7160000000002 L 877.8170000000005,485.78400000000016 L 877.2920000000005,485.91700000000014 L 876.7610000000005,485.92600000000016 L 876.4890000000005,485.85000000000014 L 876.2100000000005,485.80700000000013 L 875.9460000000005,485.85000000000014 L 875.6910000000005,485.9470000000001 L 875.4760000000005,485.9310000000001 L 875.3400000000005,485.7570000000001 L 875.2770000000005,485.62600000000015 L 875.1960000000005,485.51200000000017 L 874.9950000000005,485.53000000000014 L 874.8010000000005,485.59200000000016 L 875.1330000000005,485.59900000000016 L 875.2330000000005,485.7450000000002 L 875.3190000000005,485.92100000000016 L 875.5540000000005,486.0810000000002 L 875.8370000000006,485.98600000000016 L 876.4600000000006,486.01200000000017 L 877.0650000000006,486.29100000000017 L 877.2090000000006,486.32300000000015 L 877.3410000000006,486.37800000000016 L 877.6530000000006,486.65300000000013 L 877.8880000000006,486.90300000000013 L 878.0860000000006,487.18900000000014 L 878.1280000000006,487.30100000000016 L 878.1140000000006,487.60100000000017 L 878.0540000000007,487.75000000000017 L 877.6630000000007,487.9610000000002 L 877.2460000000007,488.1210000000002 L 876.6310000000007,488.4320000000002 L 876.0360000000006,488.7860000000002 L 875.7230000000006,488.71700000000016 L 875.4410000000006,488.52900000000017 L 875.3320000000006,488.4780000000002 L 875.0410000000005,488.3760000000002 L 874.8640000000005,488.3390000000002 L 874.1600000000005,488.4190000000002 L 873.4550000000005,488.4600000000002 L 873.1570000000005,488.4570000000002 L 872.8690000000005,488.3970000000002 L 872.5520000000005,488.28600000000023 L 872.2380000000005,488.3350000000002 L 872.0230000000005,488.4650000000002 L 871.7880000000005,488.4850000000002 L 871.3480000000004,488.19500000000016 L 871.3470000000004,488.1580000000002 L 871.3470000000004,487.5840000000002 L 871.3470000000004,487.0110000000002 L 871.3470000000004,486.4380000000002 L 871.3460000000005,485.86500000000024 L 871.3460000000005,485.29200000000026 L 871.3460000000005,484.72000000000025 L 871.3460000000005,484.14800000000025 L 871.3460000000005,483.57600000000025 L 871.3450000000005,483.00400000000025 L 871.3450000000005,482.4330000000002 L 871.3450000000005,481.9630000000002 L 871.1890000000005,481.7800000000002 L 871.0290000000006,481.4990000000002 L 871.0630000000006,481.1380000000002 L 871.2570000000005,480.6920000000002 L 871.3440000000005,480.3940000000002 L 871.3440000000005,480.1510000000002 L 871.3440000000005,479.5810000000002 L 871.3440000000005,479.0110000000002 L 871.3430000000005,478.4410000000002 L 871.3430000000005,477.8720000000002 L 871.3430000000005,477.30300000000017 L 871.3430000000005,476.73400000000015 L 871.3430000000005,476.16500000000013 L 871.3420000000006,475.5960000000001 L 871.3420000000006,475.02800000000013 L 871.3420000000006,474.46000000000015 L 871.3420000000006,473.89200000000017 L 871.3420000000006,473.3240000000002 L 871.3410000000006,472.7560000000002 L 871.3410000000006,472.1880000000002 L 871.3410000000006,471.62000000000023 L 871.3400000000006,471.0530000000002 L 871.3400000000006,470.4860000000002 L 871.3400000000006,470.14400000000023 L 871.3400000000006,469.95600000000024 L 871.3400000000006,469.9450000000002 L 871.4240000000005,469.9460000000002 L 871.7080000000005,469.9490000000002 L 871.9360000000005,469.9950000000002 L 873.3420000000004,470.60100000000017 L 873.7620000000004,470.84400000000016 L 873.9060000000004,470.9010000000002 L 874.0470000000004,470.9030000000002 L 874.1820000000004,470.9310000000002 L 874.8160000000004,471.2660000000002 L 875.7630000000004,471.6040000000002 L 876.7630000000004,471.9280000000002 L 877.0730000000003,471.9960000000002 L 877.3940000000003,472.0240000000002 L 878.0900000000004,472.13600000000025 L 878.4570000000003,472.2360000000003 L 878.9940000000004,472.63300000000027 L 879.2650000000003,472.75600000000026 L 879.5190000000003,472.98000000000025 L 879.8780000000004,473.22100000000023 L 880.0200000000004,473.2820000000002 L 880.176,473.314 M 904.996,475.945 L 904.788,476.158 L 904.659,475.959 L 904.4929999999999,475.785 L 904.362,475.607 L 904.1949999999999,475.223 L 904.1869999999999,475.03000000000003 L 904.2309999999999,474.82500000000005 L 904.2409999999999,474.61800000000005 L 904.1609999999998,474.19800000000004 L 903.9649999999998,473.81500000000005 L 903.2839999999998,472.90200000000004 L 903.0699999999997,472.66300000000007 L 902.8249999999997,472.44900000000007 L 902.6679999999997,472.39700000000005 L 902.3509999999997,472.34600000000006 L 902.2099999999997,472.30300000000005 L 901.9479999999998,472.15400000000005 L 901.7049999999997,471.98100000000005 L 901.1019999999997,471.46600000000007 L 900.7839999999998,471.32000000000005 L 900.6159999999998,471.14000000000004 L 899.6669999999998,470.56000000000006 L 899.3899999999998,470.42300000000006 L 899.0519999999998,470.42300000000006 L 898.7669999999998,470.3090000000001 L 898.9929999999998,470.2370000000001 L 899.0399999999998,470.04300000000006 L 898.9899999999999,469.84600000000006 L 899.4669999999999,470.16800000000006 L 899.9699999999999,470.44900000000007 L 900.1159999999999,470.67600000000004 L 900.3639999999999,470.69000000000005 L 900.8149999999999,470.87800000000004 L 901.1249999999999,471.047 L 901.4169999999999,471.242 L 901.7459999999999,471.521 L 902.3799999999999,471.74 L 902.4699999999999,471.82 L 902.7909999999999,472.18399999999997 L 903.212,472.493 L 903.356,472.663 L 905.141,474.12600000000003 L 905.443,474.53600000000006 L 905.466,474.81600000000003 L 905.407,474.92600000000004 L 905.219,475.16300000000007 L 905.2220000000001,475.44300000000004 L 905.1590000000001,475.694 L 904.996,475.945 M 897.898,470.093 L 897.3380000000001,470.13100000000003 L 897.1370000000001,470.08900000000006 L 896.9570000000001,469.92800000000005 L 896.7940000000001,469.6770000000001 L 896.6300000000001,469.61800000000005 L 896.5640000000001,469.5690000000001 L 896.96,469.37700000000007 L 897.311,469.3190000000001 L 897.878,469.5590000000001 L 897.936,469.6790000000001 L 897.941,469.75700000000006 L 897.9250000000001,470.01200000000006 L 897.898,470.093 M 890.714,469.037 L 890.623,469.18399999999997 L 890.4110000000001,469.171 L 890.317,469.128 L 890.47,469.09999999999997 L 890.532,468.979 L 890.5980000000001,468.936 L 890.714,469.037 M 888.442,468.136 L 889.378,468.317 L 889.44,468.315 L 889.4290000000001,468.25 L 889.445,468.232 L 889.5010000000001,468.27900000000005 L 889.4830000000001,468.41100000000006 L 889.336,468.4440000000001 L 889.198,468.4310000000001 L 889.1,468.5 L 888.832,468.755 L 888.652,468.713 L 888.432,468.77000000000004 L 888.046,468.77500000000003 L 887.5450000000001,468.663 L 887.407,468.75800000000004 L 887.229,468.732 L 887.052,468.836 L 886.979,468.831 L 886.936,468.67900000000003 L 886.9390000000001,468.60100000000006 L 887.1490000000001,468.53600000000006 L 887.1180000000002,468.2970000000001 L 887.2870000000001,468.1770000000001 L 887.5790000000002,468.18700000000007 L 887.8510000000002,468.10600000000005 L 888.442,468.136 M 896.015,467.0 L 896.008,467.101 L 895.806,467.05 L 895.75,467.06600000000003 L 895.398,466.77400000000006 L 895.404,466.59600000000006 L 895.497,466.4440000000001 L 895.6429999999999,466.4680000000001 L 895.9019999999999,466.65900000000005 L 896.015,467.0" id="PG" title="Papua New Guinea"/>
</svg>
