<svg xmlns="http://www.w3.org/2000/svg" xmlns:ev="http://www.w3.org/2001/xml-events" xmlns:xlink="http://www.w3.org/1999/xlink" baseProfile="full" height="45.3179931640625" version="1.1" viewBox="803.9719848632812 403.22900390625 27.010986328125 45.3179931640625" width="27.010986328125" fill="#00394f">
	<defs/>
	<path class="land" d="M 817.749,403.406 L 817.613,403.649 L 817.504,403.647 L 817.52,403.51099999999997 L 817.665,403.229 L 817.7189999999999,403.23499999999996 L 817.749,403.406 M 817.979,404.646 L 817.927,404.682 L 817.85,404.665 L 817.926,404.384 L 818.067,404.307 L 818.179,404.337 L 817.979,404.646 M 816.746,407.624 L 816.775,407.892 L 816.6089999999999,407.886 L 816.3589999999999,407.723 L 816.3359999999999,407.64 L 816.3399999999999,407.57099999999997 L 816.3839999999999,407.51199999999994 L 816.746,407.624 M 815.992,408.449 L 815.976,408.648 L 815.834,408.543 L 815.803,408.394 L 815.817,408.283 L 815.8820000000001,408.151 L 815.9710000000001,408.271 L 815.992,408.449 M 817.871,409.003 L 817.693,409.215 L 817.6,409.15599999999995 L 817.7,408.94999999999993 L 817.697,408.87799999999993 L 817.779,408.7169999999999 L 817.931,408.66099999999994 L 818.056,408.81999999999994 L 817.871,409.003 M 815.569,409.826 L 815.9989999999999,409.97900000000004 L 816.949,410.52900000000005 L 817.2959999999999,410.6650000000001 L 817.6579999999999,410.76700000000005 L 817.9429999999999,410.797 L 818.1989999999998,410.67100000000005 L 818.3059999999998,410.54300000000006 L 818.5019999999998,410.20500000000004 L 818.7109999999998,410.16300000000007 L 818.8349999999998,410.28600000000006 L 818.9319999999998,410.4510000000001 L 818.9749999999998,410.6930000000001 L 818.9149999999998,410.9460000000001 L 818.7159999999999,411.17300000000006 L 818.5939999999999,411.44500000000005 L 818.5139999999999,412.34700000000004 L 818.5179999999999,412.617 L 818.5819999999999,412.877 L 818.7549999999999,413.289 L 818.8449999999999,413.405 L 819.1069999999999,413.55199999999996 L 819.1779999999999,413.66299999999995 L 819.1929999999999,413.86299999999994 L 819.2339999999999,414.03899999999993 L 819.4039999999999,414.10599999999994 L 819.5479999999999,414.19399999999996 L 819.4939999999999,414.38899999999995 L 819.4039999999999,414.58699999999993 L 819.2859999999998,415.07499999999993 L 818.7239999999998,416.2029999999999 L 818.6919999999998,416.4459999999999 L 818.4699999999998,416.9299999999999 L 818.0189999999998,417.00799999999987 L 817.4979999999998,417.24199999999985 L 817.2079999999999,417.42399999999986 L 816.9549999999998,417.65999999999985 L 816.8589999999998,417.9689999999999 L 816.9409999999998,418.1099999999999 L 816.9939999999998,418.2609999999999 L 816.9879999999998,418.4239999999999 L 816.9099999999999,418.5589999999999 L 816.6589999999999,418.8879999999999 L 816.5529999999999,419.1569999999999 L 816.4409999999999,419.2779999999999 L 816.386,419.4239999999999 L 816.405,419.5909999999999 L 816.506,419.7369999999999 L 816.812,420.3639999999999 L 817.14,420.96899999999994 L 817.21,421.03899999999993 L 817.2370000000001,421.11999999999995 L 817.0440000000001,421.28 L 817.0480000000001,421.57 L 817.1060000000001,421.858 L 817.3960000000001,422.57 L 817.4370000000001,422.76 L 817.5330000000001,422.916 L 817.6810000000002,423.062 L 817.8440000000002,423.185 L 818.3160000000001,423.395 L 818.4980000000002,423.43699999999995 L 818.6870000000001,423.44399999999996 L 818.7340000000002,423.30199999999996 L 818.8990000000001,423.25399999999996 L 818.8630000000002,423.11499999999995 L 818.6610000000002,422.92199999999997 L 818.6530000000001,422.818 L 818.7590000000001,422.74 L 818.8850000000001,422.695 L 819.1690000000001,422.485 L 819.4700000000001,422.317 L 819.8530000000002,422.331 L 820.2280000000002,422.425 L 820.4950000000002,422.523 L 820.7150000000003,422.70300000000003 L 820.9410000000003,423.01500000000004 L 821.0990000000003,423.36000000000007 L 821.0980000000003,423.52400000000006 L 821.0600000000003,423.6890000000001 L 821.0680000000003,423.8520000000001 L 821.1860000000004,423.9630000000001 L 821.5490000000004,423.97100000000006 L 821.7340000000004,423.7150000000001 L 821.7570000000004,423.4270000000001 L 821.6270000000004,423.3160000000001 L 821.6870000000004,423.1740000000001 L 821.7980000000003,423.0680000000001 L 821.9590000000003,423.1630000000001 L 822.1120000000003,423.3420000000001 L 822.6750000000003,423.5370000000001 L 822.8190000000003,423.5410000000001 L 822.9360000000003,423.5780000000001 L 823.1880000000002,423.7130000000001 L 823.3060000000003,423.8210000000001 L 823.1610000000003,424.0450000000001 L 822.6020000000003,424.0950000000001 L 822.4400000000003,424.2630000000001 L 822.6050000000002,424.6000000000001 L 822.8730000000003,424.87700000000007 L 823.0450000000003,425.10100000000006 L 823.1970000000003,425.34200000000004 L 823.1900000000004,425.56500000000005 L 823.1010000000003,425.7970000000001 L 823.3470000000003,425.7790000000001 L 823.5780000000003,425.8280000000001 L 823.8980000000004,426.0220000000001 L 823.9980000000004,426.0420000000001 L 824.1040000000004,426.0110000000001 L 824.0890000000004,426.71100000000007 L 823.8710000000004,427.3520000000001 L 823.5960000000005,427.2720000000001 L 823.3610000000004,427.0010000000001 L 823.4090000000004,426.6710000000001 L 823.5590000000004,426.3520000000001 L 823.4730000000004,426.2850000000001 L 823.3220000000005,426.3110000000001 L 823.1490000000005,426.3830000000001 L 822.9620000000004,426.4080000000001 L 822.6550000000004,426.3660000000001 L 822.0250000000004,426.0190000000001 L 821.7690000000005,425.98700000000014 L 821.7110000000005,425.83000000000015 L 821.7250000000005,425.4970000000001 L 821.4740000000005,425.1010000000001 L 821.4340000000005,424.9590000000001 L 821.3540000000005,424.8480000000001 L 820.6050000000005,424.41700000000014 L 820.5130000000005,424.34400000000016 L 820.2830000000005,424.00000000000017 L 819.7610000000004,423.51000000000016 L 819.6150000000005,423.46000000000015 L 819.4560000000005,423.44600000000014 L 819.4040000000005,423.57000000000016 L 819.4760000000005,423.76100000000014 L 819.5050000000005,423.9250000000001 L 819.4940000000005,424.09700000000015 L 819.5150000000004,424.23000000000013 L 819.7620000000004,424.5020000000001 L 819.7990000000004,424.6300000000001 L 819.9640000000004,424.9790000000001 L 819.9840000000004,425.3870000000001 L 819.7730000000004,425.5560000000001 L 819.5360000000004,425.3680000000001 L 819.5280000000004,425.2140000000001 L 819.4870000000003,425.07100000000014 L 819.2320000000003,424.70000000000016 L 819.1460000000003,424.6200000000002 L 818.6660000000003,424.2540000000002 L 818.2940000000003,423.8520000000002 L 817.4670000000003,423.42300000000023 L 817.3680000000003,423.4000000000002 L 817.2240000000003,423.4320000000002 L 817.0890000000003,423.4850000000002 L 816.6890000000003,423.6970000000002 L 816.5480000000003,423.84400000000016 L 816.5350000000003,424.07100000000014 L 816.2480000000003,424.25100000000015 L 815.8530000000003,424.2760000000001 L 815.5500000000003,424.1630000000001 L 815.2990000000003,423.9370000000001 L 815.0920000000003,423.9260000000001 L 814.8350000000004,423.5730000000001 L 814.5220000000004,423.5280000000001 L 814.2630000000004,423.8040000000001 L 814.2080000000004,423.2560000000001 L 814.2060000000005,422.7020000000001 L 814.2780000000005,422.54000000000013 L 814.4070000000005,422.40500000000014 L 815.0620000000005,421.82300000000015 L 815.1450000000004,421.63600000000014 L 815.1170000000004,421.38600000000014 L 814.9680000000004,421.18200000000013 L 814.7330000000004,421.0580000000001 L 814.4620000000004,421.0060000000001 L 814.2670000000004,420.8920000000001 L 814.1140000000004,420.7040000000001 L 814.0100000000003,421.03700000000015 L 814.1110000000003,421.5310000000002 L 814.1280000000004,421.8520000000002 L 814.0350000000004,421.9730000000002 L 813.8670000000004,421.97600000000017 L 813.7070000000004,421.93800000000016 L 813.5880000000004,421.82300000000015 L 813.5010000000004,421.49100000000016 L 813.2720000000004,421.27200000000016 L 813.1790000000004,420.95800000000014 L 813.0750000000004,420.9130000000001 L 812.8620000000004,420.9370000000001 L 812.7050000000004,420.7910000000001 L 812.6010000000003,420.4240000000001 L 812.5790000000003,420.0300000000001 L 812.4900000000002,419.6980000000001 L 812.3620000000002,419.37700000000007 L 812.2870000000001,419.11500000000007 L 812.1720000000001,417.93700000000007 L 812.1440000000001,417.82900000000006 L 812.0820000000001,417.74000000000007 L 811.9370000000001,417.60600000000005 L 811.8280000000001,417.44200000000006 L 811.8070000000001,417.3070000000001 L 811.8370000000001,416.72600000000006 L 811.8870000000001,416.58600000000007 L 812.0000000000001,416.51900000000006 L 812.1550000000001,416.63300000000004 L 812.2790000000001,416.77400000000006 L 812.4330000000001,416.84200000000004 L 812.5690000000001,416.93100000000004 L 812.8230000000001,417.27500000000003 L 812.9230000000001,417.329 L 813.2360000000001,417.318 L 813.421,417.275 L 813.5100000000001,417.15 L 813.5670000000001,417.001 L 813.5680000000001,416.825 L 813.3870000000001,416.305 L 813.3320000000001,415.93 L 813.3290000000001,415.592 L 813.3760000000001,415.253 L 813.623,414.68899999999996 L 813.654,414.29699999999997 L 813.631,413.772 L 813.674,413.459 L 813.667,413.279 L 813.52,412.996 L 813.481,412.69399999999996 L 813.893,411.157 L 814.022,410.859 L 814.1160000000001,410.551 L 814.1590000000001,410.142 L 814.4670000000001,410.03 L 814.7600000000001,409.861 L 814.9110000000001,409.87399999999997 L 815.072,409.91499999999996 L 815.426,409.83099999999996 L 815.569,409.826 M 818.186,420.348 L 818.2370000000001,420.449 L 818.1800000000001,420.444 L 818.1400000000001,420.463 L 818.0080000000002,420.67100000000005 L 818.1520000000002,421.05600000000004 L 818.0630000000001,421.336 L 817.9030000000001,421.354 L 817.8400000000001,421.324 L 817.8730000000002,421.185 L 817.9070000000002,421.122 L 817.8750000000001,420.939 L 817.7800000000001,420.824 L 817.7040000000001,420.601 L 817.5870000000001,420.467 L 817.642,420.252 L 818.0120000000001,420.228 L 818.186,420.348 M 818.583,423.103 L 818.574,423.22 L 817.9689999999999,422.79400000000004 L 817.9409999999999,422.72100000000006 L 817.9399999999999,422.6530000000001 L 817.977,422.5850000000001 L 818.583,423.103 M 824.696,424.299 L 824.6220000000001,424.48499999999996 L 824.5300000000001,424.419 L 824.4000000000001,424.43 L 824.1960000000001,424.588 L 823.8640000000001,424.37600000000003 L 823.8130000000001,424.21000000000004 L 824.0500000000001,423.845 L 824.0480000000001,423.302 L 824.1350000000001,423.168 L 824.2260000000001,423.072 L 824.3340000000001,423.02 L 824.5680000000001,423.395 L 824.6480000000001,423.441 L 824.8740000000001,423.613 L 824.8150000000002,423.96 L 824.8360000000001,424.16299999999995 L 824.696,424.299 M 813.239,423.959 L 813.243,424.153 L 812.7700000000001,423.867 L 812.7560000000001,423.76800000000003 L 812.768,423.694 L 812.817,423.65000000000003 L 813.071,423.75700000000006 L 813.239,423.959 M 817.852,424.563 L 818.026,424.57099999999997 L 818.0799999999999,424.544 L 818.4129999999999,424.784 L 818.3929999999999,424.906 L 818.435,425.06600000000003 L 818.2449999999999,425.34200000000004 L 818.2109999999999,425.43500000000006 L 818.1059999999999,425.52500000000003 L 817.7449999999999,425.305 L 817.6129999999999,425.171 L 817.574,424.897 L 817.718,424.49 L 817.852,424.563 M 814.455,424.737 L 814.5980000000001,424.761 L 815.047,424.675 L 815.231,424.718 L 815.354,424.88300000000004 L 815.5070000000001,424.934 L 815.628,425.01800000000003 L 815.854,424.872 L 816.0830000000001,425.039 L 816.2860000000001,425.351 L 816.5250000000001,425.572 L 816.7520000000001,425.736 L 816.796,425.85699999999997 L 816.6590000000001,426.056 L 816.6170000000001,426.30699999999996 L 816.6310000000001,426.578 L 816.8020000000001,427.147 L 816.7420000000002,427.301 L 816.5700000000002,427.519 L 816.4410000000001,427.761 L 816.4580000000002,427.85900000000004 L 816.4070000000002,427.939 L 816.3910000000002,428.11 L 816.2860000000002,428.074 L 816.1890000000002,428.101 L 816.0950000000001,428.178 L 815.9490000000002,428.343 L 815.7200000000001,428.293 L 815.6130000000002,428.244 L 815.5870000000002,428.10100000000006 L 815.519,428.0 L 815.421,427.94 L 815.1800000000001,427.693 L 815.067,427.507 L 815.065,427.309 L 815.0020000000001,427.124 L 814.8770000000001,426.959 L 814.7120000000001,426.832 L 814.6570000000002,426.71 L 814.6360000000002,426.566 L 814.6210000000002,426.19699999999995 L 814.3880000000003,425.73699999999997 L 814.3060000000003,425.62699999999995 L 814.0870000000002,425.513 L 813.9040000000002,425.366 L 813.8270000000002,425.21999999999997 L 813.7560000000002,424.984 L 813.7070000000002,424.95 L 813.5650000000002,424.961 L 813.4270000000001,424.93 L 813.4670000000001,424.757 L 813.604,424.63100000000003 L 813.792,424.615 L 814.312,424.68600000000004 L 814.455,424.737 M 821.688,426.53 L 821.927,426.967 L 821.666,426.669 L 821.363,426.466 L 821.0490000000001,426.13 L 820.8220000000001,426.012 L 820.7530000000002,425.944 L 820.7770000000002,425.805 L 820.9440000000002,425.779 L 821.0180000000001,425.787 L 821.4750000000001,426.382 L 821.688,426.53 M 823.074,427.672 L 823.084,427.922 L 822.9789999999999,427.83000000000004 L 822.6399999999999,427.33900000000006 L 822.5459999999998,427.1600000000001 L 822.6419999999998,427.04100000000005 L 822.8869999999998,427.22400000000005 L 823.074,427.672 M 818.355,427.955 L 818.129,428.666 L 817.979,428.421 L 818.0400000000001,428.267 L 817.9100000000001,428.139 L 817.8760000000001,428.022 L 817.926,427.868 L 818.062,427.725 L 818.096,427.259 L 818.383,427.11 L 818.498,427.10400000000004 L 818.457,427.218 L 818.461,427.433 L 818.355,427.955 M 818.963,427.458 L 818.876,427.545 L 818.823,427.531 L 818.787,427.377 L 818.871,427.274 L 818.898,427.284 L 818.963,427.458 M 822.908,428.148 L 823.446,428.485 L 823.817,429.062 L 823.86,429.504 L 823.832,429.672 L 823.655,429.483 L 823.276,429.213 L 823.0129999999999,429.153 L 822.9319999999999,429.10400000000004 L 822.9619999999999,428.958 L 822.7899999999998,428.82300000000004 L 822.7699999999999,428.76800000000003 L 822.6139999999999,428.708 L 822.386,428.40500000000003 L 822.225,428.348 L 822.072,428.41200000000003 L 821.718,428.862 L 821.3389999999999,429.178 L 821.334,429.057 L 821.487,428.66200000000003 L 821.5849999999999,428.03000000000003 L 821.6469999999999,427.838 L 821.5699999999999,427.55400000000003 L 821.56,427.30100000000004 L 821.843,427.41800000000006 L 822.197,427.53600000000006 L 822.467,427.69700000000006 L 822.511,427.80500000000006 L 822.908,428.148 M 827.183,427.461 L 827.381,427.694 L 827.43,427.862 L 827.409,428.04900000000004 L 827.499,428.13200000000006 L 827.658,428.15400000000005 L 827.861,428.24800000000005 L 828.013,428.42100000000005 L 827.922,428.57900000000006 L 827.95,428.81000000000006 L 827.791,429.10100000000006 L 827.812,429.6170000000001 L 827.904,429.7820000000001 L 827.913,429.9480000000001 L 827.89,430.12200000000007 L 827.929,430.26500000000004 L 828.174,430.737 L 828.2189999999999,430.894 L 828.1439999999999,431.01800000000003 L 828.1199999999999,431.136 L 828.2709999999998,431.148 L 828.4859999999999,431.34400000000005 L 828.6129999999998,431.60300000000007 L 828.5749999999998,431.67100000000005 L 828.4029999999998,431.4680000000001 L 828.2729999999998,431.4360000000001 L 827.7219999999998,431.4910000000001 L 827.3839999999998,431.4070000000001 L 827.1649999999997,431.3990000000001 L 826.9459999999997,431.05200000000013 L 826.7559999999996,430.99400000000014 L 826.6059999999997,430.8410000000001 L 826.3559999999997,430.44800000000015 L 826.2769999999997,430.2230000000001 L 826.4509999999997,429.9950000000001 L 826.5059999999996,429.8130000000001 L 826.4959999999996,429.6350000000001 L 826.3299999999996,429.6640000000001 L 826.1849999999996,429.6050000000001 L 826.0079999999996,429.3860000000001 L 825.9369999999996,429.2600000000001 L 825.8079999999995,429.1550000000001 L 825.6029999999995,428.9050000000001 L 825.3079999999995,428.8070000000001 L 825.1879999999995,428.7390000000001 L 824.9549999999996,428.5290000000001 L 824.7839999999995,428.2690000000001 L 824.6179999999995,427.8130000000001 L 824.5309999999995,427.3400000000001 L 825.2919999999995,427.4630000000001 L 826.0619999999994,427.4390000000001 L 826.9319999999994,427.3310000000001 L 827.183,427.461 M 819.928,428.086 L 819.784,428.153 L 819.492,427.87300000000005 L 819.322,427.7420000000001 L 819.278,427.6690000000001 L 819.415,427.5640000000001 L 819.785,427.56500000000005 L 819.981,427.75700000000006 L 820.008,427.87700000000007 L 819.928,428.086 M 812.759,428.489 L 812.912,428.532 L 813.0210000000001,428.49 L 813.118,428.339 L 813.2090000000001,428.562 L 813.437,428.745 L 813.361,428.931 L 813.162,428.952 L 812.967,428.91 L 812.76,428.98400000000004 L 812.509,428.94200000000006 L 812.359,428.7680000000001 L 812.188,428.4550000000001 L 812.103,428.3970000000001 L 812.1139999999999,428.2690000000001 L 812.1769999999999,428.1880000000001 L 812.1439999999999,428.1670000000001 L 812.1599999999999,428.11000000000007 L 812.1909999999998,428.0710000000001 L 812.2459999999998,428.05500000000006 L 812.3799999999998,428.1940000000001 L 812.6979999999998,428.40100000000007 L 812.759,428.489 M 812.587,429.813 L 812.377,429.90999999999997 L 812.323,429.849 L 812.286,429.70799999999997 L 812.289,429.611 L 812.088,429.099 L 812.242,429.021 L 812.356,429.081 L 812.471,429.16200000000003 L 812.578,429.204 L 812.6759999999999,429.366 L 812.6529999999999,429.478 L 812.6829999999999,429.586 L 812.587,429.813 M 819.483,430.064 L 819.81,430.209 L 820.1279999999999,430.084 L 820.4419999999999,430.119 L 820.7029999999999,430.30800000000005 L 820.6179999999998,430.42800000000005 L 820.5999999999998,430.559 L 821.1839999999997,430.274 L 821.3399999999997,430.291 L 821.3349999999997,430.556 L 821.2999999999997,430.781 L 821.2319999999997,430.999 L 821.1079999999997,431.254 L 820.9419999999997,431.483 L 820.7239999999997,431.649 L 820.4649999999997,431.75 L 820.3419999999996,431.842 L 820.3049999999996,431.981 L 820.3099999999996,432.155 L 820.2499999999997,432.31399999999996 L 819.9789999999997,432.37899999999996 L 819.5549999999997,432.688 L 818.6439999999998,432.884 L 818.3939999999998,433.019 L 818.2349999999998,433.193 L 818.0569999999998,433.351 L 817.9599999999998,433.39 L 817.9159999999998,433.315 L 817.9029999999998,433.251 L 818.0329999999998,432.84 L 818.0119999999998,432.669 L 817.9489999999998,432.503 L 817.9889999999998,432.178 L 818.1469999999998,431.873 L 818.2309999999998,431.537 L 818.2559999999997,430.88899999999995 L 818.3789999999998,429.98599999999993 L 818.3719999999998,429.87799999999993 L 818.2759999999998,429.7559999999999 L 817.9219999999998,429.6569999999999 L 817.7819999999998,429.5639999999999 L 817.8519999999999,429.3829999999999 L 817.9859999999999,429.25999999999993 L 818.1699999999998,429.26499999999993 L 818.3319999999999,429.37999999999994 L 818.9039999999999,429.61699999999996 L 819.2079999999999,429.816 L 819.483,430.064 M 826.102,430.122 L 826.05,430.26800000000003 L 825.968,430.22700000000003 L 825.8969999999999,430.16100000000006 L 825.7919999999999,429.94000000000005 L 825.756,429.7780000000001 L 825.918,429.8690000000001 L 826.011,430.0300000000001 L 826.102,430.122 M 825.411,430.414 L 825.06,430.43199999999996 L 824.9069999999999,430.30199999999996 L 824.7159999999999,429.91999999999996 L 824.9319999999999,429.83699999999993 L 825.1379999999999,429.8589999999999 L 825.2889999999999,429.9939999999999 L 825.4499999999998,430.2499999999999 L 825.411,430.414 M 825.316,430.838 L 825.5110000000001,430.93800000000005 L 825.7360000000001,430.898 L 826.0080000000002,430.672 L 826.3140000000002,430.754 L 826.4930000000002,431.08700000000005 L 826.5850000000002,431.21200000000005 L 826.6350000000001,431.42900000000003 L 826.6220000000001,431.95000000000005 L 826.5480000000001,432.422 L 826.6060000000001,432.519 L 826.7470000000001,432.604 L 826.869,432.70799999999997 L 826.972,432.842 L 827.038,432.991 L 827.064,433.353 L 827.241,433.658 L 827.264,433.77700000000004 L 827.222,433.90200000000004 L 826.927,433.87800000000004 L 826.904,433.98300000000006 L 826.911,434.11300000000006 L 826.8069999999999,434.03100000000006 L 826.6339999999999,433.73300000000006 L 826.4759999999999,433.60800000000006 L 826.5249999999999,434.09100000000007 L 826.5769999999999,434.32200000000006 L 826.5859999999999,434.55500000000006 L 826.3129999999999,434.37700000000007 L 825.9869999999999,434.26700000000005 L 825.8969999999998,434.172 L 825.9269999999998,433.87 L 825.9209999999998,433.72 L 825.7749999999999,433.40200000000004 L 825.9459999999999,432.71400000000006 L 825.9419999999999,432.57300000000004 L 825.9129999999999,432.432 L 825.7779999999999,432.153 L 825.5639999999999,431.91900000000004 L 825.4329999999999,431.91900000000004 L 825.1159999999999,432.083 L 824.9549999999999,432.02900000000005 L 824.8599999999999,431.38400000000007 L 824.7319999999999,430.7580000000001 L 824.6329999999998,430.59800000000007 L 824.5699999999998,430.43000000000006 L 824.6329999999998,430.29100000000005 L 824.7549999999998,430.34800000000007 L 824.9289999999997,430.5130000000001 L 825.1389999999998,430.6080000000001 L 825.2439999999998,430.69100000000014 L 825.316,430.838 M 812.089,430.319 L 812.1500000000001,430.469 L 812.0710000000001,430.695 L 812.0040000000001,430.74399999999997 L 811.9140000000001,430.65 L 811.7220000000001,430.584 L 811.7090000000001,430.462 L 811.8100000000001,430.465 L 811.994,430.34599999999995 L 812.089,430.319 M 804.932,439.057 L 804.672,439.261 L 804.7,439.009 L 804.7760000000001,438.772 L 805.0400000000001,438.28499999999997 L 805.2310000000001,438.135 L 805.5450000000001,437.752 L 805.7230000000001,437.56600000000003 L 806.1490000000001,437.199 L 806.5410000000002,436.797 L 806.6730000000001,436.76700000000005 L 806.8180000000001,436.7610000000001 L 806.9320000000001,436.7150000000001 L 807.1880000000001,436.4980000000001 L 807.8310000000001,435.7740000000001 L 808.3630000000002,435.2340000000001 L 808.9080000000001,434.5510000000001 L 809.1680000000001,434.3520000000001 L 809.2370000000001,434.2790000000001 L 809.739,433.6490000000001 L 809.8960000000001,433.55700000000013 L 810.0740000000001,433.49100000000016 L 810.1940000000001,433.4060000000002 L 810.3000000000001,433.29900000000015 L 810.4770000000001,433.02500000000015 L 810.5490000000001,432.7040000000001 L 810.5040000000001,432.52300000000014 L 810.4040000000001,432.25600000000014 L 810.5290000000001,431.89100000000013 L 810.6280000000002,431.7230000000001 L 810.9780000000002,430.9810000000001 L 811.0790000000002,430.83100000000013 L 811.2250000000001,430.9250000000001 L 811.2450000000001,431.0580000000001 L 811.1730000000001,431.3710000000001 L 811.1670000000001,431.5280000000001 L 811.2500000000001,431.68700000000007 L 811.1500000000001,431.95000000000005 L 811.4010000000001,432.648 L 811.5930000000001,433.089 L 811.6,433.235 L 811.342,433.499 L 811.189,433.579 L 810.858,433.65000000000003 L 810.709,433.72700000000003 L 810.472,433.94100000000003 L 810.324,434.223 L 810.2869999999999,434.369 L 810.2109999999999,434.48100000000005 L 809.5289999999999,434.672 L 809.2089999999998,434.797 L 809.0629999999999,434.891 L 808.9859999999999,435.04400000000004 L 809.0399999999998,435.314 L 808.4669999999999,436.28700000000003 L 808.2839999999999,436.54100000000005 L 808.0889999999998,436.75800000000004 L 807.8489999999998,436.91200000000003 L 807.5119999999998,437.00600000000003 L 807.2439999999998,437.194 L 807.0619999999998,437.52700000000004 L 806.8379999999997,437.82700000000006 L 806.5549999999997,438.05000000000007 L 806.2489999999997,438.2460000000001 L 805.9689999999997,438.38900000000007 L 805.6659999999997,438.49000000000007 L 805.5749999999997,438.62100000000004 L 805.5109999999997,438.783 L 805.3769999999997,438.85900000000004 L 805.2179999999997,438.90200000000004 L 804.932,439.057 M 823.022,431.008 L 823.186,431.385 L 822.964,431.383 L 822.883,431.109 L 822.9780000000001,431.02 L 823.022,431.008 M 821.937,436.206 L 821.8290000000001,436.281 L 821.7850000000001,436.094 L 821.816,435.842 L 822.0310000000001,434.962 L 821.9820000000001,434.74199999999996 L 822.3410000000001,434.251 L 822.5620000000001,433.791 L 822.8950000000001,433.307 L 822.9370000000001,433.05600000000004 L 823.2320000000001,432.57700000000006 L 823.5070000000001,431.91600000000005 L 823.4920000000001,431.69700000000006 L 823.5630000000001,431.5880000000001 L 823.6030000000001,431.4220000000001 L 823.6110000000001,431.28100000000006 L 823.8130000000001,431.0350000000001 L 823.8660000000001,431.1950000000001 L 823.8060000000002,431.5090000000001 L 823.8160000000001,431.66000000000014 L 823.8510000000001,431.73100000000017 L 823.8530000000001,432.02300000000014 L 823.7810000000001,432.4710000000001 L 823.8470000000001,432.9880000000001 L 823.7170000000001,433.5140000000001 L 823.5690000000001,433.7500000000001 L 823.35,433.9170000000001 L 823.111,434.0210000000001 L 822.8629999999999,434.2830000000001 L 822.703,434.58900000000006 L 822.677,434.86800000000005 L 822.283,435.80800000000005 L 821.937,436.206 M 821.265,437.295 L 821.079,437.325 L 820.8829999999999,437.30899999999997 L 820.751,437.16999999999996 L 820.523,436.57199999999995 L 820.258,436.42599999999993 L 819.955,436.3159999999999 L 819.803,436.2229999999999 L 819.669,436.1109999999999 L 819.2429999999999,435.5139999999999 L 819.2109999999999,435.1489999999999 L 819.2839999999999,434.9419999999999 L 819.4129999999999,434.7569999999999 L 819.5589999999999,434.7069999999999 L 819.9099999999999,434.6999999999999 L 820.0919999999999,434.6759999999999 L 820.4919999999998,434.4019999999999 L 820.5199999999999,434.29399999999987 L 820.5229999999999,433.84299999999985 L 820.483,433.52799999999985 L 820.3829999999999,433.21999999999986 L 820.4909999999999,433.07899999999984 L 820.6329999999999,432.9399999999998 L 820.78,432.66799999999984 L 820.808,432.47699999999986 L 820.811,432.2769999999999 L 820.849,432.1339999999999 L 820.964,432.0619999999999 L 821.518,431.8439999999999 L 821.616,431.8289999999999 L 822.329,432.0309999999999 L 822.4749999999999,432.33499999999987 L 822.4889999999999,432.4349999999999 L 822.3779999999999,432.7719999999999 L 822.2789999999999,432.9979999999999 L 822.0389999999999,433.3479999999999 L 821.8599999999999,433.7259999999999 L 821.7269999999999,434.2949999999999 L 821.6429999999999,434.4799999999999 L 821.4189999999999,434.8359999999999 L 821.3509999999999,435.0309999999999 L 821.3529999999998,435.4539999999999 L 821.3149999999998,435.6099999999999 L 821.3169999999998,435.7599999999999 L 821.7609999999997,436.46499999999986 L 821.7989999999998,436.57599999999985 L 821.7949999999997,436.7019999999998 L 821.7189999999997,436.8589999999998 L 821.5369999999997,437.1299999999998 L 821.4349999999997,437.22499999999985 L 821.265,437.295 M 819.914,433.31 L 819.836,433.349 L 819.767,433.344 L 819.6020000000001,433.44599999999997 L 819.541,433.255 L 819.6,432.929 L 819.8480000000001,432.67999999999995 L 819.9110000000001,432.602 L 819.9780000000001,432.556 L 820.0590000000001,432.551 L 820.1370000000001,432.64799999999997 L 820.1590000000001,432.79499999999996 L 820.0020000000001,433.239 L 819.914,433.31 M 824.592,432.932 L 824.514,432.945 L 824.644,432.647 L 824.747,432.69 L 824.7779999999999,432.723 L 824.7749999999999,432.857 L 824.592,432.932 M 812.243,433.272 L 811.897,433.359 L 811.817,433.08599999999996 L 812.062,432.835 L 812.337,432.936 L 812.501,433.034 L 812.424,433.123 L 812.243,433.272 M 828.447,434.891 L 828.398,434.97 L 828.331,434.807 L 828.168,434.654 L 828.011,434.394 L 827.9,434.313 L 827.976,434.10699999999997 L 827.983,433.772 L 828.1389999999999,433.61899999999997 L 828.2109999999999,433.57399999999996 L 828.329,433.41099999999994 L 828.382,433.40199999999993 L 828.4319999999999,433.53799999999995 L 828.3259999999999,433.95399999999995 L 828.4849999999999,434.44599999999997 L 828.4309999999999,434.753 L 828.454,434.822 L 828.447,434.891 M 825.371,435.251 L 825.3439999999999,435.35499999999996 L 825.1229999999999,435.347 L 825.044,435.363 L 824.836,435.629 L 824.714,435.696 L 824.048,435.783 L 823.524,435.713 L 823.344,435.567 L 823.2270000000001,435.326 L 823.1910000000001,435.16700000000003 L 823.3230000000001,434.99300000000005 L 823.4490000000001,434.87800000000004 L 823.873,434.65000000000003 L 823.969,434.47700000000003 L 824.191,434.26800000000003 L 824.648,434.19800000000004 L 824.692,434.25000000000006 L 824.753,434.2830000000001 L 824.845,434.2920000000001 L 825.072,434.4640000000001 L 825.326,434.5740000000001 L 825.264,434.9910000000001 L 825.34,435.1320000000001 L 825.371,435.251 M 827.299,434.699 L 827.318,434.839 L 826.958,434.46999999999997 L 826.885,434.20899999999995 L 827.005,434.21999999999997 L 827.159,434.32 L 827.299,434.699 M 829.483,435.311 L 829.448,435.32599999999996 L 829.292,435.10599999999994 L 829.313,434.85599999999994 L 829.524,434.4819999999999 L 829.68,434.8089999999999 L 829.678,434.95699999999994 L 829.656,435.0299999999999 L 829.8019999999999,435.2149999999999 L 829.7009999999999,435.3059999999999 L 829.483,435.311 M 829.334,436.569 L 829.563,436.73900000000003 L 829.86,436.694 L 829.856,437.123 L 829.904,437.248 L 830.173,437.611 L 830.215,437.914 L 830.056,438.198 L 829.937,438.33299999999997 L 829.715,438.527 L 829.71,438.616 L 829.8040000000001,438.717 L 830.1110000000001,438.775 L 830.3430000000001,438.931 L 830.3840000000001,439.37399999999997 L 830.6060000000001,439.72299999999996 L 830.6000000000001,439.87499999999994 L 830.5120000000002,440.49899999999997 L 830.5400000000002,440.765 L 830.7060000000002,440.978 L 830.8460000000002,441.068 L 830.9180000000002,441.202 L 830.9830000000003,441.569 L 830.9710000000003,442.192 L 830.9500000000004,442.41 L 830.8520000000004,442.612 L 830.5490000000004,443.071 L 830.1430000000005,443.43600000000004 L 829.9260000000005,443.41200000000003 L 829.8570000000005,443.52000000000004 L 829.9920000000005,443.85300000000007 L 829.9380000000006,444.55600000000004 L 829.8490000000005,445.04300000000006 L 829.7170000000006,444.79600000000005 L 829.6250000000006,444.53800000000007 L 829.5420000000006,443.85400000000004 L 829.4380000000006,443.54600000000005 L 829.2750000000005,443.26400000000007 L 829.2100000000005,443.01200000000006 L 829.0410000000005,442.77700000000004 L 828.8250000000005,442.16900000000004 L 828.6820000000005,442.20000000000005 L 828.4450000000005,442.367 L 828.3920000000005,442.481 L 828.3640000000005,442.654 L 828.3090000000005,442.81 L 828.0330000000006,443.059 L 827.8150000000006,443.355 L 827.6360000000006,443.67900000000003 L 827.5790000000006,443.97600000000006 L 827.7250000000006,444.2080000000001 L 827.8750000000006,444.3020000000001 L 828.0940000000006,444.5100000000001 L 828.1610000000006,444.60500000000013 L 828.3910000000006,445.28000000000014 L 828.3830000000006,445.9710000000001 L 828.2150000000006,446.2750000000001 L 827.7880000000006,446.8520000000001 L 827.4800000000006,447.0350000000001 L 827.3160000000006,446.94200000000006 L 827.1840000000007,446.59200000000004 L 827.1630000000007,446.44800000000004 L 827.2520000000007,446.119 L 827.2620000000007,445.81800000000004 L 827.1580000000007,445.71600000000007 L 827.0450000000006,445.73600000000005 L 826.9970000000006,445.77900000000005 L 826.7220000000007,446.17400000000004 L 826.6080000000006,446.27400000000006 L 826.4390000000006,446.28800000000007 L 826.3050000000006,446.2610000000001 L 825.4890000000006,445.91600000000005 L 824.8220000000006,445.5760000000001 L 824.3000000000005,445.2580000000001 L 823.9220000000005,444.7780000000001 L 823.8430000000005,444.4190000000001 L 823.8380000000005,444.0430000000001 L 823.6690000000006,443.49200000000013 L 823.6490000000006,443.30400000000014 L 823.6610000000005,443.12400000000014 L 823.8300000000005,442.7860000000001 L 824.0330000000005,442.6150000000001 L 824.1470000000005,442.49200000000013 L 824.2380000000005,442.3560000000001 L 824.3010000000005,442.1740000000001 L 824.2830000000005,441.9930000000001 L 824.2150000000005,441.8800000000001 L 823.8940000000005,441.4830000000001 L 823.6150000000005,441.2390000000001 L 823.0440000000004,441.0200000000001 L 822.9110000000004,440.8990000000001 L 822.7650000000004,440.8080000000001 L 822.6060000000004,440.7690000000001 L 822.4500000000005,440.76800000000014 L 822.2810000000005,440.8360000000001 L 822.2370000000005,440.9810000000001 L 822.2490000000005,441.1110000000001 L 822.2340000000005,441.2370000000001 L 821.9950000000005,441.9620000000001 L 821.6890000000004,441.8030000000001 L 821.3970000000004,441.6190000000001 L 821.3200000000004,441.49000000000007 L 821.2870000000004,441.33600000000007 L 821.2370000000004,441.2320000000001 L 821.1690000000004,441.1380000000001 L 821.0350000000004,441.3800000000001 L 820.8680000000004,441.5710000000001 L 820.6640000000004,441.61500000000007 L 820.4570000000004,441.61800000000005 L 820.3890000000005,441.535 L 820.3140000000004,441.074 L 820.0950000000004,440.928 L 819.8210000000004,440.959 L 819.4890000000004,441.213 L 819.4240000000003,441.30800000000005 L 819.3510000000003,441.52700000000004 L 818.9900000000004,442.14900000000006 L 818.7990000000003,442.62700000000007 L 818.5870000000003,443.0930000000001 L 818.4930000000003,443.2460000000001 L 818.3680000000003,443.3470000000001 L 818.1710000000003,443.3050000000001 L 817.9920000000003,443.19400000000013 L 817.8240000000003,442.8940000000001 L 817.8810000000003,442.54500000000013 L 818.0690000000003,442.3220000000001 L 818.2260000000003,442.0840000000001 L 818.4150000000003,441.2510000000001 L 818.4300000000003,440.9550000000001 L 818.4630000000003,440.8280000000001 L 818.7760000000003,440.44900000000007 L 819.0400000000003,440.21400000000006 L 819.1790000000003,440.1650000000001 L 819.7480000000003,440.03100000000006 L 819.9820000000003,439.91900000000004 L 820.3510000000003,439.91700000000003 L 820.6510000000003,439.853 L 820.8900000000003,439.672 L 820.9080000000004,439.485 L 820.8970000000004,439.29 L 820.9500000000004,439.171 L 821.0420000000004,439.07099999999997 L 821.1700000000004,438.93899999999996 L 821.3140000000004,438.84 L 821.7230000000004,438.768 L 821.8590000000004,438.686 L 821.9680000000004,438.55899999999997 L 822.1200000000005,438.311 L 822.3010000000005,438.373 L 822.4830000000005,438.469 L 822.8100000000005,438.545 L 823.0990000000005,438.75100000000003 L 823.2850000000005,439.07500000000005 L 823.3160000000005,439.23500000000007 L 823.3640000000005,439.76200000000006 L 823.2970000000005,439.88500000000005 L 823.0150000000004,440.13000000000005 L 823.1450000000004,440.15600000000006 L 823.5150000000004,439.93300000000005 L 823.7000000000004,439.84700000000004 L 824.1560000000004,439.72700000000003 L 824.2630000000004,439.648 L 824.3420000000003,439.53000000000003 L 824.5030000000003,439.20700000000005 L 824.6200000000002,438.862 L 824.7130000000002,438.718 L 824.8440000000002,438.60400000000004 L 824.9750000000001,438.58500000000004 L 825.4540000000002,438.821 L 825.7610000000002,438.70700000000005 L 825.8470000000002,438.34900000000005 L 825.9170000000003,437.82900000000006 L 825.9720000000002,437.68800000000005 L 826.1480000000003,437.552 L 826.3580000000003,437.596 L 826.6460000000003,437.783 L 826.9120000000003,437.845 L 827.0110000000003,437.69500000000005 L 827.1050000000004,437.39900000000006 L 827.2120000000003,437.40000000000003 L 827.5700000000003,437.49800000000005 L 827.9160000000003,437.43300000000005 L 828.0140000000002,437.07700000000006 L 827.9490000000002,436.6960000000001 L 827.6780000000002,435.58400000000006 L 827.8390000000002,435.33600000000007 L 827.9790000000002,435.32900000000006 L 828.3200000000002,435.62500000000006 L 828.9770000000002,436.02500000000003 L 829.1960000000003,436.26900000000006 L 829.334,436.569 M 829.234,435.799 L 829.183,435.871 L 829.098,435.71999999999997 L 829.1719999999999,435.38699999999994 L 829.2259999999999,435.33099999999996 L 829.2959999999999,435.542 L 829.234,435.799 M 822.855,436.806 L 822.879,437.099 L 822.621,437.18399999999997 L 822.414,437.109 L 822.281,436.933 L 822.2819999999999,436.867 L 822.3979999999999,436.872 L 822.6529999999999,436.718 L 822.7339999999999,436.68800000000005 L 822.855,436.806 M 825.968,437.073 L 825.8879999999999,437.241 L 825.5729999999999,437.102 L 825.4979999999998,436.981 L 825.5379999999998,436.838 L 825.6919999999998,436.78900000000004 L 825.7719999999998,436.78900000000004 L 825.9219999999998,436.939 L 825.968,437.073 M 805.056,439.69 L 804.865,439.756 L 804.823,439.58 L 804.847,439.407 L 804.9839999999999,439.426 L 805.0509999999999,439.47999999999996 L 805.056,439.69 M 804.283,440.623 L 804.1370000000001,440.837 L 803.9720000000001,440.591 L 803.9900000000001,440.248 L 804.0410000000002,440.15299999999996 L 804.2740000000001,440.10099999999994 L 804.283,440.623 M 820.721,441.958 L 820.752,442.023 L 820.7389999999999,442.093 L 820.4469999999999,442.223 L 820.3489999999999,442.219 L 820.3259999999999,442.002 L 820.3979999999999,441.903 L 820.536,441.99100000000004 L 820.6579999999999,441.88900000000007 L 820.721,441.958 M 828.713,443.212 L 828.669,443.372 L 828.496,442.995 L 828.428,442.902 L 828.516,442.587 L 828.709,442.741 L 828.713,443.212 M 818.352,444.712 L 818.068,444.751 L 817.977,444.748 L 817.754,444.462 L 817.7330000000001,444.336 L 817.5540000000001,444.19300000000004 L 817.6190000000001,444.05100000000004 L 817.8510000000001,444.01700000000005 L 818.2530000000002,443.83600000000007 L 818.8980000000001,444.12200000000007 L 818.9980000000002,444.2250000000001 L 818.7970000000001,444.28800000000007 L 818.6540000000001,444.5590000000001 L 818.352,444.712 M 815.731,445.701 L 815.884,445.903 L 816.076,445.85 L 816.3820000000001,445.90700000000004 L 816.4470000000001,446.01200000000006 L 816.4370000000001,446.0810000000001 L 816.1100000000001,446.27600000000007 L 815.8950000000001,446.07200000000006 L 815.5160000000001,446.21100000000007 L 815.335,446.12700000000007 L 815.0880000000001,446.20200000000006 L 814.936,446.04400000000004 L 814.998,445.89200000000005 L 815.3900000000001,445.64200000000005 L 815.731,445.701 M 813.181,447.996 L 813.105,448.16499999999996 L 813.016,448.24399999999997 L 812.9,448.2 L 812.8109999999999,448.113 L 812.761,448.243 L 812.516,448.293 L 812.361,448.493 L 812.135,448.54699999999997 L 811.977,448.52099999999996 L 811.994,448.34299999999996 L 812.431,448.07599999999996 L 812.7030000000001,447.977 L 812.9420000000001,447.784 L 813.0620000000001,447.763 L 813.1230000000002,447.91999999999996 L 813.181,447.996" id="PH" title="Philippines"/>
</svg>
