<svg xmlns="http://www.w3.org/2000/svg" xmlns:ev="http://www.w3.org/2001/xml-events" xmlns:xlink="http://www.w3.org/1999/xlink" baseProfile="full" height="42.6510009765625" version="1.1" viewBox="646.447021484375 351.79901123046875 40.67498779296875 42.6510009765625" width="40.67498779296875" fill="#00394f">
	<defs/>
	<path class="land" d="M 687.122,367.443 L 687.098,367.654 L 686.9,367.901 L 686.577,368.01800000000003 L 686.388,368.069 L 685.456,368.531 L 685.165,368.726 L 684.939,368.96 L 684.856,369.13599999999997 L 684.811,369.30699999999996 L 685.013,369.92699999999996 L 685.047,370.11899999999997 L 684.881,370.78599999999994 L 684.832,371.03399999999993 L 684.895,371.20699999999994 L 685.093,371.27099999999996 L 685.136,371.41499999999996 L 685.156,371.52599999999995 L 684.8109999999999,371.77 L 684.4479999999999,371.986 L 684.3329999999999,371.986 L 683.9849999999999,372.39099999999996 L 683.406,373.2 L 683.097,373.473 L 683.076,373.607 L 683.052,373.74300000000005 L 683.169,373.97100000000006 L 683.193,374.16300000000007 L 683.062,374.3570000000001 L 682.844,374.57900000000006 L 682.4200000000001,374.7730000000001 L 681.8850000000001,374.97100000000006 L 681.6450000000001,375.09200000000004 L 681.464,375.612 L 681.297,376.13300000000004 L 681.222,376.326 L 680.934,376.925 L 680.43,377.805 L 680.3019999999999,377.997 L 679.5229999999999,378.42 L 678.7269999999999,378.88 L 678.5859999999999,379.054 L 678.4229999999999,379.472 L 678.2699999999999,379.93 L 678.1269999999998,380.169 L 677.6209999999999,380.705 L 677.4549999999998,381.116 L 677.4019999999998,381.385 L 676.9709999999998,381.53499999999997 L 676.4839999999998,381.67799999999994 L 675.7739999999998,381.72399999999993 L 675.4779999999997,381.7989999999999 L 674.6089999999997,382.1689999999999 L 674.3919999999997,382.1839999999999 L 674.2219999999998,382.12299999999993 L 674.0939999999997,381.99699999999996 L 673.9749999999997,381.78799999999995 L 673.9179999999997,381.465 L 673.7499999999997,381.31899999999996 L 673.5239999999997,381.19399999999996 L 673.2859999999996,381.188 L 673.0459999999996,381.325 L 672.8389999999996,381.47499999999997 L 672.6969999999995,381.599 L 672.5579999999995,381.74399999999997 L 672.2909999999995,382.231 L 671.8599999999994,382.928 L 671.3789999999995,383.43399999999997 L 671.2009999999995,383.585 L 671.0899999999995,383.69899999999996 L 670.9399999999995,383.86699999999996 L 670.8529999999995,384.02899999999994 L 670.7339999999995,384.55799999999994 L 670.6649999999995,385.02699999999993 L 670.6969999999995,385.1309999999999 L 670.7679999999996,385.2199999999999 L 671.0319999999996,385.35599999999994 L 671.4109999999996,385.58099999999996 L 671.9039999999997,385.70899999999995 L 672.3189999999996,385.73199999999997 L 672.4739999999996,385.828 L 672.5669999999996,385.95799999999997 L 672.5919999999995,386.06699999999995 L 672.5709999999996,386.453 L 672.5239999999995,386.86699999999996 L 672.3709999999995,387.311 L 672.3729999999995,387.566 L 672.4339999999995,387.81399999999996 L 672.8959999999995,388.44499999999994 L 673.0659999999995,388.50899999999996 L 673.4119999999995,388.52299999999997 L 673.5729999999994,388.51099999999997 L 673.7519999999994,388.44699999999995 L 673.8789999999993,388.48999999999995 L 673.9739999999994,388.5679999999999 L 673.9979999999994,388.69499999999994 L 673.9829999999994,389.32199999999995 L 674.1249999999994,389.60599999999994 L 674.3999999999994,389.99199999999996 L 674.6169999999994,390.43199999999996 L 674.8219999999994,390.96 L 675.0179999999995,391.37199999999996 L 675.0939999999995,391.58699999999993 L 674.9659999999994,391.6909999999999 L 674.8929999999995,391.7989999999999 L 674.8739999999995,391.9429999999999 L 674.9009999999995,392.0949999999999 L 674.8829999999995,392.20199999999994 L 674.9759999999994,392.33399999999995 L 675.0849999999995,392.37799999999993 L 675.0819999999994,392.4699999999999 L 674.9099999999994,392.5899999999999 L 674.7569999999994,392.5859999999999 L 674.6389999999993,392.6429999999999 L 674.4109999999994,392.8929999999999 L 674.3049999999994,392.9439999999999 L 674.1619999999994,392.9669999999999 L 674.0029999999994,392.94199999999995 L 673.7769999999994,392.84099999999995 L 673.7119999999993,392.68199999999996 L 673.7369999999993,392.515 L 673.6859999999992,392.41499999999996 L 673.5239999999992,392.43399999999997 L 672.9619999999992,392.60499999999996 L 672.4269999999992,392.81499999999994 L 672.3339999999993,392.95899999999995 L 672.2099999999992,393.1089999999999 L 671.9649999999992,393.17099999999994 L 671.6039999999992,393.18999999999994 L 671.3549999999992,393.1669999999999 L 671.1249999999992,393.0059999999999 L 670.9149999999992,392.8599999999999 L 670.5899999999991,392.8529999999999 L 670.0049999999991,392.8749999999999 L 669.6809999999991,392.8739999999999 L 669.4909999999991,392.81999999999994 L 669.3029999999991,392.86099999999993 L 669.068999999999,392.80099999999993 L 668.963999999999,392.8809999999999 L 668.864999999999,392.8889999999999 L 668.785999999999,392.7509999999999 L 668.732999999999,392.7369999999999 L 668.669999999999,392.7569999999999 L 668.6149999999991,392.8039999999999 L 668.5829999999991,392.88499999999993 L 668.5719999999991,393.80499999999995 L 668.1849999999991,393.799 L 667.9109999999991,393.79699999999997 L 667.6089999999991,393.847 L 667.3329999999992,393.917 L 667.1969999999992,394.0 L 667.0029999999992,394.132 L 666.9569999999992,394.31600000000003 L 666.8639999999992,394.45000000000005 L 666.7299999999992,394.25200000000007 L 666.6429999999992,394.16100000000006 L 666.5429999999992,394.22900000000004 L 666.4009999999992,394.22100000000006 L 666.1449999999992,393.99500000000006 L 666.0309999999992,394.22300000000007 L 665.6079999999992,394.2750000000001 L 665.5539999999992,394.10300000000007 L 665.5439999999992,393.94200000000006 L 665.3119999999992,394.05800000000005 L 665.1449999999992,393.88000000000005 L 665.0699999999991,393.6410000000001 L 665.0059999999992,393.5750000000001 L 664.9329999999992,393.4990000000001 L 664.7569999999992,393.4170000000001 L 664.6009999999992,393.16300000000007 L 664.5859999999992,392.8930000000001 L 664.5419999999992,392.57200000000006 L 664.2139999999993,391.38000000000005 L 664.0149999999993,391.27000000000004 L 662.8989999999993,391.05800000000005 L 662.8409999999993,390.84900000000005 L 662.9179999999993,390.28700000000003 L 662.8869999999994,389.93300000000005 L 662.5259999999994,389.463 L 662.4239999999994,389.13500000000005 L 662.1289999999995,388.85400000000004 L 661.8359999999994,388.77200000000005 L 661.5399999999994,388.809 L 661.3809999999994,388.92 L 661.2939999999994,389.108 L 661.9259999999994,389.065 L 662.0689999999994,389.134 L 662.2389999999994,389.257 L 662.0569999999993,389.252 L 661.8469999999993,389.193 L 661.5839999999993,389.198 L 660.5989999999993,389.33599999999996 L 660.0279999999992,389.53499999999997 L 659.2599999999992,389.47599999999994 L 658.2919999999992,389.67099999999994 L 657.4919999999993,389.68299999999994 L 657.1619999999992,390.06299999999993 L 656.9789999999992,389.9939999999999 L 656.8379999999993,389.9009999999999 L 655.7379999999993,389.6019999999999 L 655.6619999999992,389.4769999999999 L 655.4779999999993,389.38699999999994 L 655.2759999999993,389.54699999999997 L 655.1299999999993,389.573 L 654.5269999999994,389.43899999999996 L 654.0659999999993,389.53999999999996 L 653.8949999999993,389.712 L 653.8819999999993,389.97999999999996 L 653.3059999999992,389.92799999999994 L 652.9809999999992,389.84399999999994 L 652.5459999999993,389.93699999999995 L 651.5629999999993,389.81299999999993 L 651.3039999999993,389.84399999999994 L 650.9459999999993,390.02099999999996 L 650.7959999999994,390.15899999999993 L 650.5829999999994,390.2129999999999 L 650.3949999999994,390.0209999999999 L 650.2539999999995,389.9359999999999 L 650.1239999999995,389.9919999999999 L 649.9479999999994,390.1509999999999 L 649.4379999999994,390.2249999999999 L 648.9769999999994,390.2039999999999 L 648.4809999999994,390.05599999999987 L 648.5399999999994,390.00599999999986 L 648.6169999999994,389.7479999999999 L 648.6859999999994,388.8249999999999 L 648.7739999999993,388.49199999999985 L 648.7479999999994,388.30899999999986 L 648.7669999999994,388.25399999999985 L 648.9609999999993,388.09199999999987 L 649.0079999999994,388.02299999999985 L 649.0819999999993,387.54999999999984 L 649.1639999999993,387.02299999999985 L 649.2549999999993,386.83499999999987 L 649.3309999999993,386.7839999999999 L 649.9459999999993,386.5479999999999 L 650.0499999999994,386.3899999999999 L 650.3669999999994,386.42699999999985 L 650.3959999999994,386.38899999999984 L 650.4239999999994,386.2069999999998 L 650.5709999999995,386.0099999999998 L 650.7749999999994,385.84799999999984 L 650.9269999999995,385.78999999999985 L 651.4809999999994,385.6879999999999 L 651.8039999999994,385.5459999999999 L 651.9019999999994,385.5309999999999 L 652.7619999999994,385.56799999999987 L 652.9439999999994,385.51299999999986 L 652.9719999999994,385.4639999999999 L 653.0229999999995,384.9259999999999 L 653.1789999999994,384.84199999999987 L 653.2029999999994,384.79699999999985 L 653.1499999999994,384.42399999999986 L 653.1789999999994,384.17499999999984 L 653.3569999999994,384.02799999999985 L 653.3459999999994,383.94399999999985 L 653.2189999999995,383.7669999999998 L 653.0499999999995,383.6539999999998 L 652.9679999999995,383.62699999999984 L 652.2629999999995,383.73399999999987 L 651.9709999999994,383.69899999999984 L 651.8339999999995,383.63399999999984 L 651.8059999999995,383.58599999999984 L 651.8329999999995,383.47699999999986 L 651.8379999999995,383.29999999999984 L 651.9409999999995,383.02399999999983 L 651.9719999999994,382.8589999999998 L 651.8889999999994,381.9019999999998 L 651.7699999999994,381.2649999999998 L 651.8329999999994,380.63199999999983 L 651.8199999999994,380.50099999999986 L 651.7959999999994,380.47199999999987 L 651.7069999999993,380.47199999999987 L 651.2769999999994,380.52799999999985 L 650.9109999999994,380.11999999999983 L 650.6829999999994,379.95799999999986 L 650.0589999999994,379.7549999999999 L 649.7849999999994,379.7159999999999 L 649.3839999999994,379.5399999999999 L 649.0139999999994,379.1549999999999 L 648.6349999999994,378.75999999999993 L 648.4829999999994,378.50699999999995 L 648.3139999999994,378.07599999999996 L 647.8349999999994,377.248 L 647.8389999999994,377.034 L 647.7799999999994,376.903 L 647.3129999999994,376.358 L 646.9819999999994,375.97 L 646.4469999999994,375.34200000000004 L 647.5159999999994,375.694 L 648.3489999999994,375.964 L 649.6959999999993,376.398 L 650.7409999999993,376.735 L 651.0299999999993,376.79 L 654.0929999999993,376.502 L 655.2249999999992,376.72 L 655.5829999999992,376.84200000000004 L 655.6369999999991,376.771 L 655.7889999999992,376.623 L 656.0529999999992,376.474 L 656.4109999999991,376.354 L 656.7679999999991,376.289 L 657.2799999999991,376.281 L 657.627999999999,376.29 L 657.884999999999,376.327 L 658.380999999999,376.306 L 658.618999999999,376.248 L 659.4339999999991,376.01 L 659.9819999999991,375.84999999999997 L 660.810999999999,375.59999999999997 L 661.414999999999,375.417 L 661.565999999999,375.32 L 661.721999999999,375.145 L 661.7959999999989,374.988 L 661.6099999999989,374.746 L 661.5859999999989,374.53299999999996 L 661.7079999999988,374.26199999999994 L 661.7739999999989,373.84899999999993 L 661.7609999999988,373.25999999999993 L 661.7209999999989,372.91999999999996 L 661.8899999999988,372.287 L 662.0309999999988,371.931 L 662.3119999999988,371.76099999999997 L 662.5069999999988,371.657 L 662.5879999999988,371.58 L 662.6679999999989,371.495 L 662.9689999999989,371.011 L 663.2429999999989,370.785 L 663.509999999999,370.648 L 663.800999999999,370.666 L 664.047999999999,370.854 L 664.527999999999,370.936 L 664.992999999999,370.881 L 665.395999999999,370.73999999999995 L 665.578999999999,370.62499999999994 L 665.7929999999991,370.52399999999994 L 665.7809999999992,370.40799999999996 L 665.5379999999991,370.30699999999996 L 665.3989999999991,370.16499999999996 L 665.3449999999991,369.991 L 665.4809999999991,369.885 L 665.7979999999991,369.854 L 666.5759999999991,369.429 L 666.8929999999991,369.149 L 666.9789999999991,369.019 L 667.1279999999991,369.004 L 667.4249999999992,369.134 L 667.7719999999991,369.177 L 667.9889999999991,369.047 L 668.2049999999991,369.01800000000003 L 668.4169999999991,369.16 L 668.5309999999992,369.33000000000004 L 668.7229999999992,369.53200000000004 L 668.9659999999992,369.57200000000006 L 669.2589999999992,369.4630000000001 L 669.5669999999992,369.2300000000001 L 669.8589999999992,368.9020000000001 L 670.1179999999993,368.5780000000001 L 670.0549999999993,367.5470000000001 L 670.0119999999993,366.9380000000001 L 670.1489999999992,366.6170000000001 L 670.3439999999993,366.4190000000001 L 670.4729999999993,366.1120000000001 L 670.4699999999992,365.84100000000007 L 670.6069999999992,365.61300000000006 L 670.7429999999991,364.99000000000007 L 670.9289999999992,364.8430000000001 L 671.3109999999991,364.7410000000001 L 671.9179999999991,364.6820000000001 L 672.395999999999,364.3960000000001 L 672.8749999999991,364.0920000000001 L 672.938999999999,363.8240000000001 L 672.757999999999,363.53700000000015 L 672.517999999999,362.98100000000017 L 672.299999999999,362.64800000000014 L 671.770999999999,362.0500000000001 L 671.8319999999991,361.6810000000001 L 672.126999999999,361.5310000000001 L 672.853999999999,361.7870000000001 L 673.055999999999,361.8370000000001 L 673.3089999999991,361.8730000000001 L 673.977999999999,361.86700000000013 L 674.5239999999991,361.7670000000001 L 675.0939999999991,361.5380000000001 L 675.2049999999991,361.3000000000001 L 675.1979999999992,361.0170000000001 L 675.2079999999992,360.7840000000001 L 675.2169999999992,360.4580000000001 L 675.0129999999992,360.2490000000001 L 674.8889999999992,360.06200000000007 L 674.8519999999992,359.91300000000007 L 674.9949999999992,359.8310000000001 L 675.1339999999992,359.67800000000005 L 675.2679999999992,359.40000000000003 L 675.5829999999993,359.067 L 675.7739999999993,358.767 L 675.9539999999993,358.624 L 676.2259999999993,358.428 L 676.3999999999993,358.141 L 676.4799999999993,357.97 L 676.6369999999994,357.802 L 676.6899999999994,357.692 L 676.6469999999994,357.593 L 676.5689999999994,357.469 L 676.4799999999993,357.329 L 676.4799999999993,357.193 L 676.5539999999993,357.049 L 676.6339999999993,356.921 L 676.5969999999993,356.739 L 676.5539999999993,356.44399999999996 L 676.4059999999993,356.27 L 676.3059999999992,355.868 L 676.1489999999992,355.45799999999997 L 676.0649999999993,355.29799999999994 L 675.9109999999993,355.09599999999995 L 675.5669999999992,354.88199999999995 L 675.4679999999992,354.739 L 675.6019999999992,354.46299999999997 L 675.8269999999992,354.292 L 676.2499999999992,353.86899999999997 L 676.4809999999992,353.577 L 676.6899999999991,353.373 L 676.9599999999991,353.407 L 677.1179999999991,353.389 L 677.2569999999992,353.201 L 677.5329999999991,353.03400000000005 L 678.0239999999991,352.68800000000005 L 678.1959999999991,352.45400000000006 L 678.4569999999991,352.33600000000007 L 678.6739999999991,352.3090000000001 L 678.9659999999991,352.2270000000001 L 679.246999999999,352.1010000000001 L 679.503999999999,352.0050000000001 L 679.905999999999,351.9860000000001 L 680.544999999999,351.9280000000001 L 680.8899999999991,351.8680000000001 L 681.7159999999991,351.8220000000001 L 682.6159999999991,351.8010000000001 L 682.7199999999991,351.7990000000001 L 682.7259999999991,351.8010000000001 L 682.6359999999991,351.9290000000001 L 682.8599999999991,352.0530000000001 L 683.1139999999991,352.3330000000001 L 682.8339999999992,352.4000000000001 L 682.2469999999992,352.3730000000001 L 681.7259999999992,352.3200000000001 L 681.3129999999992,352.2800000000001 L 681.0449999999992,352.4530000000001 L 680.9249999999992,352.8270000000001 L 680.6319999999992,353.20100000000014 L 680.3249999999991,353.53400000000016 L 679.9909999999992,353.81400000000014 L 679.6709999999991,354.0410000000001 L 679.5379999999991,354.3480000000001 L 679.4839999999991,354.56100000000015 L 679.5499999999992,354.77400000000017 L 679.4839999999991,354.92100000000016 L 679.4979999999991,355.21400000000017 L 679.6039999999991,355.3740000000002 L 679.8979999999991,355.3610000000002 L 680.1649999999992,355.18700000000024 L 680.5779999999992,355.28100000000023 L 680.9379999999992,355.45400000000024 L 681.0319999999992,355.8010000000002 L 681.1519999999992,356.0410000000002 L 681.4049999999993,356.27300000000025 L 681.8719999999993,356.3130000000003 L 682.1399999999993,356.39300000000026 L 682.4589999999993,356.4330000000003 L 682.7389999999992,356.4200000000003 L 682.8729999999993,356.7130000000003 L 682.7929999999992,356.87300000000033 L 682.6059999999992,356.99300000000034 L 682.5519999999992,357.20600000000036 L 682.6459999999993,357.40600000000035 L 682.8059999999992,357.52600000000035 L 683.0729999999993,357.60600000000034 L 683.4059999999993,357.7530000000003 L 683.6459999999993,357.99300000000034 L 683.6459999999993,358.26000000000033 L 683.5259999999993,358.5130000000003 L 683.4199999999993,358.9130000000003 L 683.2599999999993,359.0330000000003 L 682.8069999999993,359.0460000000003 L 682.6189999999993,359.07300000000026 L 682.4459999999993,359.3800000000003 L 682.4319999999993,359.6340000000003 L 682.2049999999994,359.7270000000003 L 681.9109999999994,359.8070000000003 L 681.7379999999994,359.9940000000003 L 681.7379999999994,360.2210000000003 L 681.6839999999994,360.5540000000003 L 681.8179999999994,360.88700000000034 L 681.8579999999994,361.19900000000035 L 681.8439999999994,361.58600000000035 L 682.0439999999994,361.78600000000034 L 682.1499999999994,362.20000000000033 L 682.0169999999994,362.36000000000035 L 682.0029999999994,362.54700000000037 L 682.2029999999994,362.74700000000036 L 682.1889999999994,362.94700000000034 L 682.1229999999994,363.10700000000037 L 682.2289999999994,363.5340000000004 L 682.0829999999994,363.70800000000037 L 682.1229999999994,364.12200000000036 L 682.2429999999994,364.36200000000036 L 682.1629999999993,364.69600000000037 L 682.3499999999993,364.8560000000004 L 682.4959999999993,364.9900000000004 L 682.5899999999993,365.1900000000004 L 683.0169999999994,365.1900000000004 L 683.2969999999993,365.3900000000004 L 683.6309999999993,365.5100000000004 L 683.8439999999993,365.7100000000004 L 684.1239999999992,365.84300000000036 L 684.3109999999992,365.97600000000034 L 684.6989999999993,366.01600000000036 L 684.8569999999993,365.91800000000035 L 685.0889999999993,365.86100000000033 L 685.0979999999993,365.8380000000003 L 685.1399999999993,365.8180000000003 L 685.2269999999993,365.8620000000003 L 685.1709999999993,366.3600000000003 L 685.2109999999992,366.6540000000003 L 685.2899999999992,366.7370000000003 L 685.5789999999992,366.85600000000034 L 686.1359999999992,366.84100000000035 L 686.4639999999991,366.98000000000036 L 686.8269999999992,367.13900000000035 L 687.0199999999992,367.31500000000034 L 687.122,367.443" id="PK" title="Pakistan"/>
</svg>
