<svg xmlns="http://www.w3.org/2000/svg" xmlns:ev="http://www.w3.org/2001/xml-events" xmlns:xlink="http://www.w3.org/1999/xlink" baseProfile="full" height="26.4580078125" version="1.1" viewBox="515.3519897460938 278.7409973144531 28 26.4580078125" width="28">
	<defs/>
	<path class="land" d="M 530.719,280.576 L 530.831,280.634 L 531.617,280.697 L 532.414,280.76 L 533.695,280.829 L 535.03,280.899 L 536.416,280.974 L 537.915,281.053 L 539.496,281.1 L 539.593,281.068 L 539.754,280.881 L 539.951,280.906 L 540.184,281.022 L 540.292,281.108 L 540.338,281.207 L 540.367,281.321 L 540.494,281.343 L 540.727,281.43 L 541.041,281.627 L 541.287,281.818 L 541.522,282.09 L 541.6,282.398 L 541.604,282.747 L 541.589,282.971 L 541.609,283.062 L 541.93,284.675 L 542.464,286.218 L 542.66,286.96 L 542.738,287.354 L 542.801,287.924 L 542.82,288.324 L 542.818,288.548 L 542.778,288.856 L 542.62,289.038 L 541.595,289.558 L 541.402,289.72 L 541.1,290.124 L 540.821,290.539 L 540.757,290.681 L 540.74,290.774 L 540.802,290.91 L 541.167,291.131 L 541.535,291.309 L 541.655,291.442 L 541.927,291.612 L 542.026,291.765 L 542.08,291.897 L 542.076,292.204 L 541.954,292.627 L 542.005,292.946 L 541.88,293.159 L 541.778,293.395 L 541.763,293.807 L 541.947,294.261 L 542.098,294.571 L 542.156,294.814 L 542.095,295.004 L 542.113,295.194 L 542.248,295.396 L 542.672,296.016 L 542.881,296.611 L 543.015,296.843 L 543.324,297.143 L 543.352,297.266 L 543.228,297.379 L 543.128,297.394 L 543.047,297.424 L 542.995,297.529 L 543.076,297.642 L 543.185,297.807 L 543.321,298.274 L 543.308,298.656 L 543.203,298.753 L 543.069,298.979 L 542.979,299.186 L 542.246,299.329 L 542.07,299.55 L 541.669,299.975 L 541.396,300.22 L 540.991,300.661 L 540.351,301.417 L 540.115,301.733 L 539.942,301.994 L 539.424,302.686 L 539.265,302.976 L 539.296,303.214 L 539.463,303.773 L 539.498,304.025 L 539.468,304.257 L 539.413,304.464 L 539.423,304.556 L 539.576,304.706 L 539.819,304.941 L 539.833,305.02 L 539.799,305.122 L 539.715,305.199 L 539.41,305.117 L 539.07,304.958 L 538.954,304.978 L 538.77,304.94 L 538.011,304.633 L 537.499,304.392 L 537.448,304.235 L 537.352,304.008 L 537.134,303.817 L 536.634,303.652 L 536.431,303.523 L 535.619,303.451 L 535.267,303.448 L 535.018,303.501 L 534.858,303.496 L 534.639,303.833 L 534.488,303.931 L 534.267,303.941 L 534.073,303.881 L 533.875,303.704 L 533.559,303.61 L 533.33,303.655 L 533.161,303.617 L 533.016,303.607 L 532.965,303.643 L 532.848,303.638 L 532.679,303.723 L 532.493,303.842 L 532.289,303.934 L 532.131,304.13 L 531.991,304.513 L 531.594,304.341 L 531.462,304.416 L 531.274,304.466 L 531.146,304.414 L 531.176,304.282 L 531.234,304.133 L 531.231,303.925 L 531.195,303.694 L 531.072,303.619 L 530.887,303.592 L 530.792,303.546 L 530.782,303.47 L 530.687,303.372 L 530.523,303.124 L 530.369,302.814 L 530.262,302.723 L 530.107,302.87 L 529.872,303.037 L 529.725,303.095 L 529.442,303.575 L 528.934,303.591 L 528.903,303.367 L 528.849,303.151 L 528.552,303.098 L 528.543,302.971 L 528.481,302.653 L 527.885,302.03 L 527.813,301.77 L 527.836,301.669 L 527.795,301.503 L 527.665,301.403 L 527.194,301.284 L 527.073,301.352 L 526.964,301.282 L 526.792,301.132 L 526.495,301.01 L 526.462,300.947 L 526.355,300.839 L 526.296,300.825 L 526.257,300.89 L 526.171,300.982 L 525.865,301.099 L 525.743,301.051 L 525.632,300.95 L 525.505,300.731 L 525.321,300.539 L 525.17,300.471 L 525.083,300.37 L 525.064,300.292 L 525.4,300.134 L 525.474,299.971 L 525.431,299.674 L 525.381,299.637 L 525.247,299.737 L 524.966,299.825 L 524.708,299.866 L 524.575,299.866 L 523.836,299.325 L 523.356,299.159 L 523.073,299.111 L 523.043,299.166 L 523.17,299.47 L 523.392,299.845 L 523.381,299.944 L 523.116,300.097 L 522.966,300.164 L 522.789,300.293 L 522.639,300.473 L 522.509,300.554 L 522.397,300.533 L 522.278,300.447 L 521.972,299.894 L 521.587,299.47 L 521.541,299.375 L 521.421,299.353 L 521.251,299.255 L 521.193,299.125 L 521.279,298.989 L 521.396,298.865 L 521.604,298.788 L 521.667,298.715 L 521.704,298.606 L 521.781,298.465 L 521.761,298.415 L 521.614,298.255 L 521.396,298.104 L 520.79,298.217 L 520.624,298.298 L 520.53,298.193 L 520.459,298.04 L 520.306,298.01 L 520.096,297.87 L 519.847,297.732 L 519.604,297.692 L 519.099,297.493 L 518.904,297.482 L 518.792,297.414 L 518.674,297.263 L 518.574,297.098 L 518.522,296.762 L 518.15,296.61 L 517.779,296.514 L 517.753,296.563 L 517.769,296.901 L 517.749,297.082 L 517.504,297.193 L 517.262,297.204 L 517.275,297.148 L 517.565,296.539 L 517.695,296.154 L 517.844,295.451 L 517.665,294.894 L 517.616,294.632 L 517.533,294.507 L 517.024,294.234 L 516.985,294.14 L 517.063,293.77 L 517.025,293.614 L 516.902,293.449 L 516.741,293.121 L 516.679,292.842 L 516.884,292.514 L 516.935,292.272 L 517.024,291.941 L 517.09,291.759 L 517.103,291.709 L 516.968,291.58 L 516.934,291.398 L 516.97,291.136 L 516.898,290.941 L 516.718,290.815 L 516.601,290.647 L 516.547,290.439 L 516.589,290.111 L 516.729,289.664 L 516.433,289.124 L 515.702,288.491 L 515.352,288.048 L 515.38,287.794 L 515.534,287.564 L 515.813,287.358 L 516.025,286.991 L 516.144,286.554 L 516.147,286.471 L 516.154,286.159 L 515.829,284.877 L 515.776,284.555 L 515.737,284.165 L 515.717,284.059 L 516.359,284.332 L 516.628,284.486 L 516.594,284.313 L 516.54,284.164 L 516.576,283.946 L 516.558,283.616 L 515.975,283.447 L 515.59,283.39 L 515.547,283.16 L 515.583,283.011 L 515.69,283.099 L 516.068,283.133 L 516.999,282.688 L 518.606,282.107 L 520.323,281.562 L 520.724,281.502 L 521.126,281.387 L 521.275,281.182 L 521.424,281.045 L 521.657,280.683 L 522.174,280.119 L 523.088,279.913 L 523.43,279.645 L 524.145,279.269 L 525.775,278.846 L 526.457,278.752 L 527.124,278.741 L 527.718,279.075 L 528.347,279.487 L 528.46,279.734 L 528.12,279.58 L 527.624,279.211 L 527.44,279.195 L 527.864,280.316 L 528.096,280.712 L 528.563,281.006 L 528.956,281.106 L 530.166,280.927 L 530.595,280.693 L 530.719,280.576" id="PL" title="Poland"/>
</svg>
