<svg xmlns="http://www.w3.org/2000/svg" xmlns:ev="http://www.w3.org/2001/xml-events" xmlns:xlink="http://www.w3.org/1999/xlink" baseProfile="full" height="1.688995361328125" version="1.1" viewBox="285.0350036621094 410.10101318359375 7.415008544921875 1.688995361328125" width="7.415008544921875" fill="#00394f">
	<defs/>
	<path class="land" d="M 290.108,410.328 L 290.194,410.38599999999997 L 290.278,410.378 L 290.21000000000004,410.257 L 290.273,410.257 L 290.81100000000004,410.331 L 291.15700000000004,410.456 L 291.51300000000003,410.51500000000004 L 291.535,410.92400000000004 L 291.261,411.088 L 291.08200000000005,411.25800000000004 L 290.93600000000004,411.46700000000004 L 290.552,411.71000000000004 L 290.09000000000003,411.783 L 289.78200000000004,411.79 L 289.66700000000003,411.78200000000004 L 289.555,411.74000000000007 L 289.323,411.7800000000001 L 289.036,411.67300000000006 L 288.79,411.70000000000005 L 288.302,411.67500000000007 L 288.119,411.76700000000005 L 287.944,411.78800000000007 L 287.773,411.7710000000001 L 287.627,411.7290000000001 L 287.265,411.7320000000001 L 287.11199999999997,411.65100000000007 L 287.17499999999995,411.1860000000001 L 287.17999999999995,410.9760000000001 L 287.09099999999995,410.80200000000013 L 286.99299999999994,410.69300000000015 L 286.92299999999994,410.56400000000014 L 287.06499999999994,410.47900000000016 L 287.18199999999996,410.35500000000013 L 287.21899999999994,410.1680000000001 L 287.3469999999999,410.1220000000001 L 287.4969999999999,410.1010000000001 L 288.1889999999999,410.1880000000001 L 289.9409999999999,410.2370000000001 L 290.04099999999994,410.25200000000007 L 290.108,410.328 M 292.083,411.324 L 291.863,411.342 L 291.72,411.318 L 291.672,411.231 L 291.939,411.149 L 292.25,411.161 L 292.428,411.21 L 292.45,411.243 L 292.083,411.324 M 285.216,411.458 L 285.19,411.461 L 285.164,411.458 L 285.152,411.45000000000005 L 285.134,411.42300000000006 L 285.05400000000003,411.3790000000001 L 285.035,411.3380000000001 L 285.053,411.2960000000001 L 285.086,411.2790000000001 L 285.248,411.2750000000001 L 285.265,411.2790000000001 L 285.29699999999997,411.3090000000001 L 285.29799999999994,411.3300000000001 L 285.2819999999999,411.3510000000001 L 285.25299999999993,411.4020000000001 L 285.24099999999993,411.4150000000001 L 285.2319999999999,411.42800000000005 L 285.2279999999999,411.4510000000001 L 285.216,411.458" id="PR" title="Puerto Rico"/>
</svg>
