<svg xmlns="http://www.w3.org/2000/svg" xmlns:ev="http://www.w3.org/2001/xml-events" xmlns:xlink="http://www.w3.org/1999/xlink" baseProfile="full" height="4.358001708984375" version="1.1" viewBox="571.676025390625 366.60198974609375 3.85498046875 4.358001708984375" width="3.85498046875">
	<defs/>
	<path class="land" d="M 572.098,370.684 L 571.809,370.96000000000004 L 571.717,370.68600000000004 L 571.6759999999999,370.58700000000005 L 572.2069999999999,370.06000000000006 L 572.4599999999999,369.72800000000007 L 572.5909999999999,369.87000000000006 L 572.5949999999999,369.92300000000006 L 572.103,370.4560000000001 L 572.098,370.684 M 575.418,368.414 L 575.495,369.13599999999997 L 575.328,369.44199999999995 L 575.233,369.80299999999994 L 575.1909999999999,370.07499999999993 L 575.074,370.06299999999993 L 574.703,370.25999999999993 L 574.2099999999999,370.4459999999999 L 573.6679999999999,370.4939999999999 L 573.5909999999999,370.4389999999999 L 573.5689999999998,370.3449999999999 L 573.7279999999998,369.8869999999999 L 573.7889999999999,369.6719999999999 L 574.0239999999999,369.4399999999999 L 574.3569999999999,369.23899999999986 L 574.4979999999998,369.1879999999999 L 574.4819999999999,369.10199999999986 L 574.2829999999999,368.9689999999999 L 574.0749999999999,368.89999999999986 L 573.8779999999999,368.9689999999999 L 573.8159999999999,368.94799999999987 L 573.795,368.88899999999984 L 573.8639999999999,368.8059999999998 L 573.896,368.6519999999998 L 573.865,368.39399999999983 L 573.844,368.0799999999998 L 573.801,367.8359999999998 L 573.9240000000001,367.43999999999977 L 573.955,367.25099999999975 L 574.1080000000001,366.84699999999975 L 574.4670000000001,366.60199999999975 L 574.7780000000001,366.6729999999998 L 574.9420000000001,366.69099999999975 L 575.0110000000001,366.73899999999975 L 575.056,366.87899999999973 L 575.2850000000001,367.0409999999997 L 575.4730000000001,367.0619999999997 L 575.5310000000001,367.58299999999974 L 575.426,368.02799999999974 L 575.418,368.414" id="PS" title="Palestinian Territories"/>
</svg>
