<svg xmlns="http://www.w3.org/2000/svg" xmlns:ev="http://www.w3.org/2001/xml-events" xmlns:xlink="http://www.w3.org/1999/xlink" baseProfile="full" height="33.468994140625" version="1.1" viewBox="387.90399169921875 332.75299072265625 70.36300659179688 33.468994140625" width="70.36300659179688">
	<defs/>
	<path class="land" d="M 427.454,365.489 L 427.837,365.664 L 428.18899999999996,365.58 L 428.62499999999994,365.805 L 428.8519999999999,365.857 L 428.6499999999999,366.01800000000003 L 428.44699999999995,366.22200000000004 L 427.93999999999994,366.17400000000004 L 427.51099999999997,365.978 L 427.35699999999997,365.829 L 427.315,365.695 L 427.454,365.489 M 405.46,351.544 L 405.448,351.608 L 405.289,351.583 L 405.08799999999997,351.60200000000003 L 404.97999999999996,351.41600000000005 L 405.078,351.33900000000006 L 405.304,351.32000000000005 L 405.412,351.4030000000001 L 405.46,351.544 M 403.716,348.445 L 403.894,348.469 L 404.789,348.417 L 405.027,348.455 L 405.002,348.715 L 404.833,348.81899999999996 L 404.30600000000004,348.88899999999995 L 403.47700000000003,348.72099999999995 L 403.199,348.49699999999996 L 403.159,348.33299999999997 L 403.164,348.256 L 403.339,348.195 L 403.716,348.445 M 396.705,346.271 L 396.936,346.414 L 396.585,346.445 L 396.469,346.515 L 396.185,346.414 L 395.842,346.429 L 395.627,346.23699999999997 L 395.57800000000003,346.037 L 395.68600000000004,345.91299999999995 L 395.98900000000003,345.912 L 396.705,346.271 M 395.318,346.013 L 395.03,346.022 L 394.755,345.75 L 395.15999999999997,345.607 L 395.279,345.694 L 395.367,345.793 L 395.41900000000004,345.92 L 395.318,346.013 M 397.74,345.903 L 397.607,345.946 L 396.85900000000004,345.67100000000005 L 396.59200000000004,345.54600000000005 L 396.24600000000004,345.22900000000004 L 397.223,345.61400000000003 L 397.74,345.903 M 399.713,345.589 L 399.65700000000004,345.623 L 399.074,345.526 L 398.908,345.39500000000004 L 398.841,345.151 L 398.939,345.068 L 399.195,345.019 L 399.567,345.065 L 399.806,345.24 L 399.806,345.463 L 399.713,345.589 M 388.313,342.842 L 388.18899999999996,343.01599999999996 L 387.97499999999997,342.95399999999995 L 387.90399999999994,342.88899999999995 L 387.96599999999995,342.51699999999994 L 388.13699999999994,342.42999999999995 L 388.30899999999997,342.5799999999999 L 388.313,342.842 M 452.761,333.954 L 452.82000000000005,333.984 L 452.98300000000006,333.976 L 453.2730000000001,333.834 L 453.4700000000001,333.715 L 453.5390000000001,333.76399999999995 L 454.1100000000001,333.69699999999995 L 454.2450000000001,333.7509999999999 L 454.3350000000001,333.8119999999999 L 454.6160000000001,333.8939999999999 L 454.9220000000001,333.9029999999999 L 455.3010000000001,333.7879999999999 L 455.4670000000001,333.6719999999999 L 455.4990000000001,333.5439999999999 L 455.50700000000006,333.44699999999995 L 455.55600000000004,333.38499999999993 L 455.64200000000005,333.3499999999999 L 455.77700000000004,333.4129999999999 L 455.97,333.4639999999999 L 456.43300000000005,333.4849999999999 L 456.52400000000006,333.4139999999999 L 456.68100000000004,333.4349999999999 L 456.88800000000003,333.52499999999986 L 457.127,333.49599999999987 L 457.248,333.6059999999999 L 457.298,333.7519999999999 L 457.312,334.0689999999999 L 457.29400000000004,334.3889999999999 L 457.34100000000007,334.5069999999999 L 457.50300000000004,334.5379999999999 L 457.76400000000007,334.5339999999999 L 457.9990000000001,334.6199999999999 L 458.1810000000001,334.7709999999999 L 458.2410000000001,334.9249999999999 L 458.2670000000001,335.0309999999999 L 458.1780000000001,335.0909999999999 L 458.05200000000013,335.3189999999999 L 457.73200000000014,335.61599999999993 L 457.27500000000015,335.8829999999999 L 456.92600000000016,336.2149999999999 L 456.68600000000015,336.61099999999993 L 456.38500000000016,336.77899999999994 L 456.2930000000002,336.8689999999999 L 456.2570000000002,336.97599999999994 L 456.4560000000002,337.4599999999999 L 456.51700000000017,337.8329999999999 L 456.56600000000014,338.28899999999993 L 456.53400000000016,338.4169999999999 L 456.51700000000017,338.9169999999999 L 456.4710000000002,339.06299999999993 L 456.4830000000002,339.18199999999996 L 456.55600000000015,339.30899999999997 L 456.58900000000017,339.431 L 456.45200000000017,339.58599999999996 L 456.2010000000002,339.76599999999996 L 456.0150000000002,339.924 L 455.9650000000002,340.072 L 455.9790000000002,340.164 L 456.2920000000002,340.477 L 456.3490000000002,340.60499999999996 L 456.30700000000024,340.914 L 456.12700000000024,341.419 L 455.9550000000002,341.726 L 455.92500000000024,341.756 L 455.72800000000024,341.84299999999996 L 454.7840000000002,341.84599999999995 L 454.55500000000023,341.91499999999996 L 454.5870000000002,341.977 L 454.8090000000002,342.371 L 455.0400000000002,342.58 L 455.1170000000002,342.628 L 455.2000000000002,343.087 L 455.5750000000002,343.819 L 455.9380000000002,343.92 L 456.0640000000002,344.103 L 456.04100000000017,344.359 L 455.92900000000014,344.64 L 455.70600000000013,344.928 L 455.44100000000014,345.13 L 455.26800000000014,345.331 L 455.25400000000013,345.564 L 455.1990000000001,345.85900000000004 L 455.1160000000001,346.09200000000004 L 455.0950000000001,346.249 L 455.75900000000007,347.23400000000004 L 456.1290000000001,347.18600000000004 L 456.1770000000001,347.20900000000006 L 456.1110000000001,347.44300000000004 L 455.9940000000001,347.71700000000004 L 455.8540000000001,347.76900000000006 L 455.5370000000001,347.85300000000007 L 455.2370000000001,348.20700000000005 L 454.9940000000001,348.63200000000006 L 454.8110000000001,348.8380000000001 L 454.6440000000001,349.3420000000001 L 454.66500000000013,349.5600000000001 L 454.74600000000015,349.89600000000013 L 454.91700000000014,350.77000000000015 L 454.67100000000016,350.80900000000014 L 453.71500000000015,351.37800000000016 L 453.41900000000015,351.37900000000013 L 452.86600000000016,351.12900000000013 L 451.89000000000016,351.0480000000001 L 451.5720000000002,350.9730000000001 L 451.1750000000002,351.1370000000001 L 450.86800000000017,351.1330000000001 L 450.62400000000014,351.3420000000001 L 450.4490000000001,351.2850000000001 L 450.65000000000015,350.8160000000001 L 450.96500000000015,349.8860000000001 L 450.95200000000017,349.31700000000006 L 451.02700000000016,348.8210000000001 L 450.94100000000014,348.32900000000006 L 450.78300000000013,348.0210000000001 L 450.9980000000001,347.2220000000001 L 450.9740000000001,346.8090000000001 L 450.7770000000001,346.2850000000001 L 451.3740000000001,346.36500000000007 L 451.1890000000001,346.15700000000004 L 451.00700000000006,346.03000000000003 L 450.8310000000001,346.059 L 450.6820000000001,346.05100000000004 L 450.1740000000001,346.254 L 449.9190000000001,346.315 L 449.8450000000001,346.279 L 449.8730000000001,345.955 L 449.7410000000001,345.534 L 449.9450000000001,345.423 L 450.18200000000013,345.391 L 450.3840000000001,345.211 L 450.5090000000001,345.01 L 450.44300000000015,344.651 L 450.61800000000017,344.31 L 451.02900000000017,344.021 L 450.81600000000014,344.065 L 450.5720000000001,344.245 L 450.1880000000001,344.897 L 450.0630000000001,345.227 L 449.7360000000001,345.334 L 449.4430000000001,345.387 L 449.2930000000001,345.352 L 449.1130000000001,345.26899999999995 L 449.0970000000001,345.02599999999995 L 449.1110000000001,344.83199999999994 L 449.2330000000001,344.4459999999999 L 449.2810000000001,343.8999999999999 L 449.4540000000001,343.4099999999999 L 449.44100000000014,343.27899999999994 L 449.39200000000017,343.08399999999995 L 449.54600000000016,342.893 L 449.73700000000014,342.767 L 450.02700000000016,342.34499999999997 L 450.43200000000013,341.33599999999996 L 450.8990000000001,340.25899999999996 L 450.8610000000001,340.12699999999995 L 450.7620000000001,340.025 L 450.80200000000013,339.733 L 451.08300000000014,338.46 L 451.1970000000001,338.293 L 451.3290000000001,337.918 L 451.3590000000001,337.312 L 451.4110000000001,336.894 L 451.3990000000001,336.684 L 451.35700000000014,336.43100000000004 L 451.17800000000017,335.94700000000006 L 450.9900000000002,334.92100000000005 L 450.9750000000002,334.57700000000006 L 451.13000000000017,334.4030000000001 L 450.87500000000017,334.3780000000001 L 450.7590000000002,334.1550000000001 L 450.7850000000002,333.9020000000001 L 451.0690000000002,333.4930000000001 L 451.3340000000002,333.2390000000001 L 451.5960000000002,333.0730000000001 L 451.74100000000016,333.0100000000001 L 452.3460000000002,332.8370000000001 L 452.50500000000017,332.7530000000001 L 452.65400000000017,332.7670000000001 L 452.67900000000014,332.85000000000014 L 452.76500000000016,333.01000000000016 L 452.86100000000016,333.12100000000015 L 452.88700000000017,333.20300000000015 L 452.6530000000002,333.54600000000016 L 452.6210000000002,333.6630000000002 L 452.7430000000002,333.8840000000002 L 452.761,333.954" id="PT" title="Portugal"/>
</svg>
