<svg xmlns="http://www.w3.org/2000/svg" xmlns:ev="http://www.w3.org/2001/xml-events" xmlns:xlink="http://www.w3.org/1999/xlink" baseProfile="full" height="25.17401123046875" version="1.1" viewBox="299.8699951171875 517.4929809570312 23.60101318359375 25.17401123046875" width="23.60101318359375" fill="#00394f">
	<defs/>
	<path class="land" d="M 312.475,520.097 L 312.537,520.313 L 312.574,520.48 L 312.667,520.598 L 312.759,520.755 L 312.852,520.844 L 312.917,520.992 L 312.898,521.159 L 312.936,521.376 L 312.982,521.563 L 313.028,521.613 L 313.162,521.662 L 313.228,521.832 L 313.18,521.918 L 313.199,522.017 L 313.247,522.113 L 313.203,522.208 L 313.226,522.279 L 313.316,522.343 L 313.4,522.58 L 313.409,522.986 L 313.316,523.204 L 313.242,523.382 L 313.224,523.491 L 313.279,523.649 L 313.186,523.837 L 313.075,524.065 L 313.103,524.224 L 313.121,524.373 L 313.13,524.532 L 313.158,524.681 L 313.121,524.84 L 313.084,524.979 L 313.065,525.138 L 313.112,525.317 L 313.028,525.486 L 312.982,525.605 L 312.963,525.725 L 313.047,525.914 L 313.261,525.994 L 313.428,526.014 L 313.585,525.914 L 313.706,525.884 L 313.929,525.974 L 314.133,526.133 L 314.393,526.153 L 314.625,526.183 L 314.801,526.233 L 315.061,526.173 L 315.331,526.233 L 315.646,526.323 L 315.906,526.402 L 316.166,526.382 L 316.361,526.373 L 316.565,526.283 L 316.76,526.293 L 316.908,526.133 L 316.992,525.994 L 317.066,525.894 L 317.28,525.814 L 317.428,525.864 L 317.549,526.124 L 317.762,526.273 L 317.846,526.382 L 318.003,526.433 L 318.347,526.442 L 318.561,526.433 L 318.802,526.512 L 318.959,526.512 L 319.099,526.652 L 319.229,526.821 L 319.247,527.131 L 319.368,527.371 L 319.526,527.461 L 319.609,527.611 L 319.582,527.821 L 319.507,528.031 L 319.517,528.262 L 319.6,528.472 L 319.6,528.683 L 319.656,528.893 L 319.767,529.074 L 319.804,529.365 L 319.786,529.576 L 319.86,529.697 L 319.888,529.868 L 319.841,530.008 L 319.823,530.2 L 319.832,530.371 L 319.888,530.512 L 320.055,530.693 L 320.101,531.016 L 320.101,531.238 L 320.175,531.5 L 320.315,531.622 L 320.538,531.662 L 320.797,531.702 L 321.113,531.642 L 321.392,531.571 L 321.549,531.5 L 321.855,531.309 L 322.125,531.197 L 322.264,531.127 L 322.394,531.076 L 322.663,531.197 L 322.914,531.349 L 323.108,531.561 L 323.471,531.793 L 323.4,531.85 L 323.256,532.041 L 323.259,532.264 L 323.361,532.585 L 323.271,533.266 L 322.99,534.308 L 322.875,534.917 L 322.925,535.09 L 322.821,535.395 L 322.436,536.051 L 322.421,536.494 L 322.376,537.827 L 322.247,538.769 L 322.03,539.467 L 321.833,539.84 L 321.654,539.885 L 321.527,539.997 L 321.449,540.174 L 321.305,540.322 L 321.093,540.441 L 320.979,540.571 L 320.961,540.712 L 320.759,540.803 L 320.372,540.844 L 320.146,540.957 L 320.078,541.142 L 319.949,541.289 L 319.757,541.398 L 319.667,541.579 L 319.676,541.832 L 319.566,542.048 L 319.337,542.229 L 319.125,542.234 L 318.932,542.063 L 318.672,541.95 L 318.347,541.893 L 318.076,541.937 L 317.858,542.079 L 317.665,542.305 L 317.497,542.615 L 317.31,542.667 L 317.104,542.459 L 316.843,542.396 L 316.528,542.478 L 316.276,542.45 L 316.09,542.311 L 315.803,542.296 L 315.416,542.404 L 314.632,542.279 L 313.45,541.921 L 312.451,541.785 L 311.226,541.914 L 311.122,541.542 L 311.187,541.342 L 311.386,541.191 L 311.511,541.02 L 311.562,540.829 L 311.699,540.683 L 311.923,540.583 L 312.018,540.482 L 311.984,540.379 L 312.032,540.289 L 312.161,540.21 L 312.234,540.086 L 312.251,539.917 L 312.3,539.833 L 312.386,539.771 L 312.396,539.653 L 312.348,539.292 L 312.354,538.995 L 312.414,538.764 L 312.489,538.625 L 312.542,538.59 L 312.592,538.508 L 312.611,538.369 L 312.692,538.239 L 313.083,537.973 L 313.23,537.829 L 313.243,537.697 L 313.302,537.52 L 313.534,537.137 L 313.605,536.958 L 313.611,536.869 L 313.694,536.776 L 313.974,536.564 L 314.125,536.365 L 314.149,536.178 L 314.082,535.966 L 313.923,535.729 L 313.424,535.136 L 313.036,534.867 L 312.54,534.646 L 312.214,534.574 L 312.057,534.652 L 311.898,534.59 L 311.737,534.39 L 311.465,534.232 L 310.892,534.06 L 309.591,533.371 L 309.07,533.038 L 308.895,532.833 L 308.409,532.465 L 307.612,531.935 L 307.001,531.677 L 306.575,531.691 L 305.892,531.538 L 304.953,531.216 L 304.412,530.903 L 304.266,530.601 L 303.919,530.298 L 303.37,529.995 L 303.085,529.796 L 303.064,529.7 L 302.901,529.575 L 302.597,529.421 L 302.263,529.158 L 301.899,528.786 L 301.51,528.21 L 301.096,527.433 L 300.652,526.909 L 300.178,526.639 L 299.94,526.46 L 299.941,526.373 L 299.87,526.29 L 299.934,526.14 L 300.106,525.551 L 300.356,524.699 L 300.616,523.819 L 300.921,522.784 L 300.921,522.051 L 300.922,521.281 L 301.356,520.648 L 301.664,520.199 L 301.931,519.772 L 302.2,519.042 L 302.38,518.556 L 303.067,518.44 L 304.234,518.188 L 304.816,518.062 L 306.043,517.797 L 307.29,517.527 L 308.599,517.51 L 309.863,517.493 L 310.843,518.097 L 311.592,518.559 L 312.417,519.067 L 312.474,519.177 L 312.531,519.604 L 312.475,520.097" id="PY" title="Paraguay"/>
</svg>
