<svg xmlns="http://www.w3.org/2000/svg" xmlns:ev="http://www.w3.org/2001/xml-events" xmlns:xlink="http://www.w3.org/1999/xlink" baseProfile="full" height="4.907012939453125" version="1.1" viewBox="618.1420288085938 387.0559997558594 2.39697265625 4.907012939453125" width="2.39697265625">
	<defs/>
	<path class="land" d="M 619.583,391.833 L 619.33,391.896 L 619.093,391.963 L 618.895,391.961 L 618.735,391.935 L 618.629,391.87 L 618.425,391.61 L 618.281,391.273 L 618.37,391.085 L 618.4,390.968 L 618.205,390.078 L 618.142,389.393 L 618.165,389.253 L 618.276,389.091 L 618.462,388.733 L 618.561,388.388 L 618.839,387.59 L 619.134,387.282 L 619.566,387.056 L 619.922,387.498 L 620.354,387.835 L 620.437,388.212 L 620.31,388.519 L 620.192,389.005 L 620.263,389.229 L 620.289,389.423 L 620.406,389.748 L 620.52,390.169 L 620.539,390.462 L 620.478,390.733 L 620.327,390.961 L 620.031,391.645 L 619.943,391.716 L 619.583,391.833" id="QA" title="Qatar"/>
</svg>
