<svg xmlns="http://www.w3.org/2000/svg" xmlns:ev="http://www.w3.org/2001/xml-events" xmlns:xlink="http://www.w3.org/1999/xlink" baseProfile="full" height="18.498992919921875" version="1.1" viewBox="532.5079956054688 308.406005859375 26.56097412109375 18.498992919921875" width="26.56097412109375">
	<defs/>
	<path class="land" d="M 554.877,319.919 L 555.173,320.33 L 555.548,320.549 L 556.416,320.78 L 556.494,320.752 L 556.502,320.709 L 556.442,320.649 L 556.433,320.573 L 556.475,320.479 L 556.595,320.474 L 556.791,320.558 L 557.165,320.436 L 557.715,320.108 L 558.221,320.042 L 558.681,320.236 L 558.917,320.462 L 559.069,320.677 L 559.021,320.942 L 558.992,321.107 L 558.871,321.788 L 558.787,322.042 L 558.652,322.326 L 557.223,322.665 L 557.315,322.502 L 557.282,322.217 L 557.222,322.001 L 557.355,321.807 L 557.034,321.736 L 556.893,321.843 L 556.783,322.029 L 556.88,322.458 L 556.724,322.695 L 556.664,322.827 L 556.657,323.14 L 556.564,323.274 L 556.546,323.422 L 556.774,323.384 L 556.671,323.653 L 556.243,324.169 L 556.093,324.477 L 556.13,325.692 L 555.939,326.416 L 555.924,326.629 L 555.47,326.636 L 555.334,326.619 L 554.904,326.511 L 554.421,326.319 L 554.138,325.945 L 553.957,325.678 L 553.547,325.799 L 553.47,325.767 L 553.357,325.638 L 553.049,325.551 L 552.668,325.549 L 551.813,325.06 L 551.719,324.978 L 551.047,325.06 L 550.041,325.302 L 549.274,325.601 L 548.481,326.132 L 548.16,326.534 L 547.787,326.747 L 547.257,326.905 L 546.31,326.846 L 545.323,326.644 L 544.264,326.427 L 543.691,326.547 L 542.917,326.457 L 541.749,326.198 L 540.879,326.119 L 540.021,326.272 L 539.877,326.155 L 539.846,326.021 L 539.879,325.832 L 540.0,325.679 L 540.208,325.563 L 540.317,325.445 L 540.329,325.326 L 540.096,325.134 L 539.618,324.869 L 539.421,324.703 L 539.373,324.662 L 539.36,324.513 L 539.261,324.396 L 539.075,324.31 L 538.932,324.155 L 538.83,323.93 L 538.852,323.718 L 538.997,323.519 L 539.183,323.432 L 539.409,323.459 L 539.503,323.402 L 539.465,323.263 L 539.244,323.084 L 538.839,322.867 L 538.427,322.985 L 538.006,323.439 L 537.704,323.512 L 537.518,323.207 L 537.188,323.024 L 536.713,322.967 L 536.421,322.85 L 536.312,322.673 L 536.104,322.537 L 535.646,322.392 L 535.64,322.254 L 535.714,322.221 L 535.877,322.208 L 536.095,322.179 L 536.13,322.1 L 536.132,322.028 L 535.96,321.937 L 535.787,321.875 L 535.696,321.813 L 535.638,321.744 L 535.626,321.672 L 535.677,321.623 L 535.747,321.62 L 535.816,321.577 L 535.855,321.41 L 535.949,321.272 L 536.016,321.224 L 536.012,321.122 L 535.942,321.027 L 535.847,320.945 L 535.707,320.895 L 535.271,320.751 L 535.051,320.551 L 534.916,320.543 L 534.703,320.432 L 534.473,320.258 L 534.273,320.01 L 534.058,319.849 L 534.002,319.783 L 533.997,319.721 L 534.037,319.651 L 534.035,319.575 L 533.979,319.332 L 534.017,319.074 L 534.007,318.831 L 534.004,318.722 L 533.962,318.688 L 533.925,318.725 L 533.872,318.771 L 533.82,318.78 L 533.661,318.603 L 533.46,318.242 L 533.324,318.121 L 533.059,317.955 L 532.835,317.815 L 532.675,317.513 L 532.508,317.279 L 532.618,317.181 L 533.255,317.043 L 533.552,317.178 L 533.685,317.129 L 533.814,317.02 L 533.886,316.932 L 533.899,316.839 L 533.963,316.723 L 534.178,316.668 L 534.748,316.739 L 534.977,316.576 L 535.062,316.488 L 535.114,316.292 L 535.174,316.134 L 535.378,316.05 L 535.375,315.906 L 535.344,315.75 L 535.462,315.399 L 535.534,315.255 L 535.65,315.203 L 535.789,315.092 L 536.031,314.862 L 535.975,314.662 L 536.023,314.513 L 536.275,314.151 L 536.467,313.801 L 536.464,313.625 L 536.492,313.472 L 536.662,313.304 L 536.84,313.085 L 537.075,312.399 L 537.16,312.284 L 537.314,312.153 L 537.429,312.023 L 537.441,311.571 L 537.549,311.44 L 537.756,311.293 L 537.962,311.057 L 538.129,310.777 L 538.258,310.646 L 538.429,310.611 L 538.614,310.501 L 538.821,310.46 L 539.022,310.514 L 539.149,310.486 L 539.342,310.35 L 539.833,309.834 L 539.902,309.731 L 540.004,309.66 L 540.402,309.483 L 540.503,309.305 L 540.64,309.145 L 540.817,309.157 L 541.395,309.553 L 542.013,309.528 L 542.126,309.543 L 542.163,309.551 L 542.239,309.583 L 543.061,309.779 L 543.188,309.757 L 543.223,309.742 L 543.554,309.903 L 543.847,309.882 L 544.125,309.77 L 544.414,309.732 L 544.68,309.799 L 544.882,310.026 L 545.407,310.508 L 545.563,310.688 L 545.803,310.661 L 546.069,310.571 L 546.338,310.25 L 547.165,309.884 L 547.796,309.793 L 548.412,309.646 L 549.125,309.542 L 549.331,309.242 L 549.445,309.037 L 549.526,308.657 L 549.91,308.547 L 550.275,308.469 L 550.405,308.421 L 550.671,308.406 L 550.878,308.438 L 551.197,308.626 L 551.421,308.861 L 551.509,309.048 L 551.7,309.312 L 551.901,309.681 L 552.123,310.172 L 552.171,310.419 L 552.255,310.687 L 552.42,311.012 L 552.735,311.372 L 552.779,311.439 L 552.922,311.692 L 553.198,312.251 L 553.429,312.474 L 553.63,312.717 L 553.727,312.961 L 553.871,313.182 L 554.209,313.475 L 554.483,313.741 L 554.702,314.504 L 554.855,314.854 L 554.953,315.121 L 554.906,315.661 L 554.967,315.892 L 554.842,316.313 L 554.616,317.157 L 554.561,317.827 L 554.6,318.187 L 554.605,318.418 L 554.66,318.565 L 554.72,318.869 L 554.729,319.133 L 554.648,319.208 L 554.535,319.271 L 554.491,319.326 L 554.595,319.445 L 554.737,319.666 L 554.877,319.919" id="RO" title="Romania"/>
</svg>
