<svg xmlns="http://www.w3.org/2000/svg" xmlns:ev="http://www.w3.org/2001/xml-events" xmlns:xlink="http://www.w3.org/1999/xlink" baseProfile="full" height="15.33099365234375" version="1.1" viewBox="528.5709838867188 317.03399658203125 11.613037109375 15.33099365234375" width="11.613037109375">
	<defs/>
	<path class="land" d="M 531.056,317.104 L 531.393,317.128 L 531.645,317.065 L 532.282,317.145 L 532.419,317.208 L 532.508,317.279 L 532.675,317.513 L 532.835,317.815 L 533.059,317.955 L 533.324,318.121 L 533.46,318.242 L 533.661,318.603 L 533.82,318.78 L 533.872,318.771 L 533.925,318.725 L 533.962,318.688 L 534.004,318.722 L 534.007,318.831 L 534.017,319.074 L 533.979,319.332 L 534.035,319.575 L 534.037,319.651 L 533.997,319.721 L 534.002,319.783 L 534.058,319.849 L 534.273,320.01 L 534.473,320.258 L 534.703,320.432 L 534.916,320.543 L 535.051,320.551 L 535.271,320.751 L 535.707,320.895 L 535.847,320.945 L 535.942,321.027 L 536.012,321.122 L 536.016,321.224 L 535.949,321.272 L 535.855,321.41 L 535.816,321.577 L 535.747,321.62 L 535.677,321.623 L 535.626,321.672 L 535.638,321.744 L 535.696,321.813 L 535.787,321.875 L 535.96,321.937 L 536.132,322.028 L 536.13,322.1 L 536.095,322.179 L 535.877,322.208 L 535.714,322.221 L 535.64,322.254 L 535.646,322.392 L 536.104,322.537 L 536.312,322.673 L 536.421,322.85 L 536.713,322.967 L 537.188,323.024 L 537.518,323.207 L 537.704,323.512 L 538.006,323.439 L 538.427,322.985 L 538.839,322.867 L 539.244,323.084 L 539.465,323.263 L 539.503,323.402 L 539.409,323.459 L 539.183,323.432 L 538.997,323.519 L 538.852,323.718 L 538.83,323.93 L 538.932,324.155 L 539.075,324.31 L 539.261,324.396 L 539.36,324.513 L 539.373,324.662 L 539.421,324.703 L 539.315,324.771 L 539.201,324.873 L 539.136,325.051 L 539.119,325.336 L 538.759,325.559 L 538.624,325.6 L 538.563,325.748 L 538.468,326.165 L 538.479,326.478 L 538.528,326.637 L 538.55,326.767 L 538.667,326.926 L 538.773,327.17 L 538.843,327.492 L 538.999,327.74 L 539.398,327.984 L 539.596,328.126 L 539.743,328.332 L 539.855,328.518 L 540.184,328.765 L 540.159,328.941 L 540.087,329.113 L 540.011,329.194 L 539.847,329.415 L 539.687,329.539 L 539.424,329.928 L 539.009,329.949 L 538.91,329.98 L 538.752,330.086 L 538.675,330.28 L 538.749,330.436 L 538.742,330.593 L 538.667,330.898 L 538.767,331.225 L 538.914,331.374 L 538.937,331.46 L 538.912,331.612 L 538.693,331.922 L 538.627,332.037 L 538.408,332.093 L 538.333,332.064 L 538.22,331.958 L 538.115,331.926 L 537.854,332.051 L 537.588,332.128 L 537.379,332.07 L 537.173,332.063 L 537.03,332.114 L 536.922,332.134 L 536.71,332.268 L 536.371,332.365 L 536.214,332.344 L 536.156,332.218 L 536.092,332.039 L 536.123,331.957 L 536.348,331.815 L 536.373,331.68 L 536.687,331.026 L 536.747,330.813 L 536.749,330.744 L 536.667,330.697 L 536.495,330.699 L 535.732,330.433 L 535.767,330.128 L 535.543,329.963 L 535.301,329.816 L 535.261,329.652 L 534.992,329.32 L 534.796,329.134 L 534.545,329.041 L 534.329,328.904 L 534.199,328.82 L 534.141,328.665 L 534.141,328.573 L 534.076,328.484 L 533.972,328.494 L 533.795,328.618 L 533.578,328.724 L 533.54,328.802 L 533.619,328.985 L 533.675,329.103 L 533.649,329.213 L 533.581,329.354 L 533.163,329.664 L 533.116,329.773 L 533.196,329.947 L 533.145,330.027 L 532.796,330.142 L 532.805,330.047 L 532.783,329.894 L 532.583,329.731 L 532.3,329.605 L 531.672,329.172 L 531.431,329.115 L 531.215,329.064 L 530.906,328.857 L 530.747,328.82 L 530.571,328.672 L 530.187,328.17 L 529.86,327.896 L 529.637,327.758 L 529.574,327.623 L 529.561,327.484 L 529.568,327.437 L 529.737,327.239 L 529.867,327.211 L 530.034,327.204 L 530.145,327.304 L 530.289,327.326 L 530.37,327.198 L 530.412,327.014 L 530.393,326.779 L 530.044,326.232 L 529.745,325.85 L 529.71,325.765 L 529.775,325.693 L 529.88,325.655 L 529.992,325.687 L 530.284,325.715 L 530.565,325.679 L 530.661,325.586 L 530.661,325.46 L 530.559,325.343 L 530.23,325.028 L 529.974,324.75 L 529.672,324.536 L 529.449,324.45 L 529.383,324.341 L 529.355,324.225 L 529.38,324.012 L 529.395,323.74 L 529.447,323.57 L 529.649,323.247 L 529.842,322.904 L 529.961,322.574 L 530.024,322.267 L 530.001,322.178 L 529.9,322.113 L 529.688,322.046 L 529.392,322.104 L 529.141,322.216 L 529.043,322.225 L 529.01,322.087 L 529.049,322.026 L 529.128,322.034 L 529.193,322.06 L 529.262,321.997 L 529.304,321.812 L 529.199,321.164 L 529.387,321.107 L 529.39,321.013 L 529.407,320.93 L 529.601,321.043 L 529.873,321.045 L 530.112,321.022 L 530.148,320.958 L 530.146,320.866 L 530.096,320.793 L 530.011,320.735 L 529.95,320.645 L 529.789,320.605 L 529.284,320.371 L 529.036,320.122 L 529.044,319.857 L 529.116,319.712 L 529.203,319.661 L 529.177,319.612 L 528.893,319.489 L 528.792,319.318 L 528.875,319.099 L 528.727,318.652 L 528.571,318.377 L 528.724,318.258 L 528.745,318.088 L 528.757,317.991 L 528.82,317.993 L 529.067,317.879 L 529.157,317.787 L 529.209,317.678 L 529.268,317.651 L 529.433,317.769 L 529.608,317.779 L 529.803,317.705 L 529.95,317.602 L 530.125,317.516 L 530.205,317.457 L 530.307,317.365 L 530.512,317.091 L 530.745,317.034 L 531.056,317.104" id="RS" title="Serbia"/>
</svg>
