<svg xmlns="http://www.w3.org/2000/svg" xmlns:ev="http://www.w3.org/2001/xml-events" xmlns:xlink="http://www.w3.org/1999/xlink" baseProfile="full" height="4.868988037109375" version="1.1" viewBox="556.68798828125 465.6340026855469 5.666015625 4.868988037109375" width="5.666015625">
	<defs/>
	<path class="land" d="M 561.325,465.646 L 561.233,465.689 L 561.214,465.824 L 561.32,466.039 L 561.668,466.483 L 561.889,466.564 L 562.033,466.737 L 562.175,467.028 L 562.217,467.393 L 562.158,467.831 L 562.193,468.156 L 562.321,468.37 L 562.354,468.647 L 562.294,468.987 L 562.22,469.191 L 562.133,469.259 L 562.034,469.284 L 561.9,469.261 L 561.737,469.29 L 561.56,469.354 L 561.448,469.363 L 561.378,469.351 L 561.248,469.296 L 561.041,469.12 L 560.655,469.217 L 560.55,469.215 L 560.409,469.299 L 560.293,469.402 L 560.224,469.409 L 560.152,469.395 L 559.82,469.188 L 559.698,469.194 L 559.648,469.777 L 559.593,470.102 L 559.524,470.246 L 559.286,470.385 L 559.047,470.464 L 558.916,470.459 L 558.389,470.502 L 558.183,470.503 L 558.069,470.456 L 557.921,470.125 L 557.642,469.978 L 557.374,469.909 L 557.265,469.928 L 557.168,470.101 L 557.128,470.256 L 556.868,470.15 L 556.79,470.019 L 556.783,469.797 L 556.688,469.493 L 556.741,469.364 L 556.843,469.28 L 557.059,469.12 L 557.387,468.897 L 557.457,468.792 L 557.503,468.615 L 557.482,468.204 L 557.451,467.857 L 557.49,467.734 L 557.64,467.466 L 557.84,467.191 L 558.075,466.901 L 558.216,466.873 L 558.401,466.764 L 558.597,466.601 L 558.707,466.54 L 558.799,466.538 L 559.404,466.394 L 559.464,466.439 L 559.562,466.718 L 559.614,466.759 L 559.698,466.769 L 559.868,466.705 L 560.179,466.486 L 560.315,466.354 L 560.475,466.167 L 560.68,465.957 L 560.794,465.773 L 560.905,465.666 L 561.051,465.634 L 561.213,465.643 L 561.325,465.646" id="RW" title="Rwanda"/>
</svg>
