<svg xmlns="http://www.w3.org/2000/svg" xmlns:ev="http://www.w3.org/2001/xml-events" xmlns:xlink="http://www.w3.org/1999/xlink" baseProfile="full" height="48.441986083984375" version="1.1" viewBox="572.8469848632812 367.9540100097656 59.0040283203125 48.441986083984375" width="59.0040283203125">
	<defs/>
	<path class="land" d="M 606.29,377.781 L 606.832,377.85 L 607.555,377.942 L 607.9939999999999,378.005 L 608.8199999999999,378.122 L 609.0669999999999,378.606 L 609.1569999999999,378.945 L 609.2399999999999,379.275 L 609.4879999999999,379.57599999999996 L 610.0509999999999,379.56899999999996 L 610.55,379.563 L 611.165,379.553 L 611.653,379.546 L 611.8100000000001,379.84499999999997 L 611.879,380.143 L 612.169,380.84799999999996 L 612.583,381.39699999999993 L 612.682,381.5969999999999 L 612.748,381.8979999999999 L 612.676,382.00999999999993 L 612.648,382.13899999999995 L 612.955,382.43899999999996 L 613.461,382.693 L 613.659,382.757 L 613.884,382.869 L 613.7090000000001,383.04200000000003 L 614.008,383.442 L 614.355,383.849 L 614.727,383.941 L 615.2289999999999,384.55499999999995 L 615.9859999999999,384.95199999999994 L 616.4449999999998,385.4719999999999 L 616.4019999999998,385.4819999999999 L 616.2669999999998,385.4289999999999 L 616.0979999999998,385.3579999999999 L 616.0469999999998,385.4219999999999 L 616.0559999999998,385.63999999999993 L 616.1009999999998,385.8959999999999 L 616.3349999999998,386.1169999999999 L 616.5429999999998,386.2759999999999 L 616.6239999999998,386.5769999999999 L 616.4599999999998,387.2239999999999 L 616.4029999999998,387.2239999999999 L 616.2929999999998,387.1679999999999 L 616.1759999999998,387.1549999999999 L 616.1129999999998,387.1919999999999 L 616.2519999999998,387.65699999999987 L 616.3909999999998,388.01299999999986 L 616.5569999999999,388.29499999999985 L 616.6959999999999,388.7069999999998 L 616.8149999999999,388.8829999999998 L 617.3019999999999,389.3199999999998 L 617.4519999999999,389.68499999999983 L 617.5909999999999,390.3639999999998 L 617.8969999999999,390.7419999999998 L 618.0619999999999,391.0329999999998 L 618.2829999999999,391.2799999999998 L 618.4269999999999,391.6169999999998 L 618.6309999999999,391.8759999999998 L 618.7369999999999,391.9409999999998 L 618.8959999999998,391.9679999999998 L 619.0939999999998,391.96899999999977 L 619.3309999999998,391.90199999999976 L 619.5839999999998,391.83899999999977 L 619.7809999999998,391.96999999999974 L 619.9849999999998,391.94999999999976 L 620.0059999999997,392.0719999999998 L 619.8689999999998,392.2379999999998 L 619.7009999999998,392.6559999999998 L 619.9399999999998,392.72199999999975 L 620.1689999999999,392.75499999999977 L 620.3309999999999,392.8219999999998 L 620.4259999999999,392.8219999999998 L 620.4259999999999,392.90899999999976 L 620.4369999999999,393.3049999999998 L 620.4939999999999,393.4559999999998 L 620.598,393.5899999999998 L 620.752,393.7899999999998 L 620.906,393.9899999999998 L 621.06,394.18999999999977 L 621.2139999999999,394.38999999999976 L 621.3679999999999,394.58999999999975 L 621.5229999999999,394.78999999999974 L 621.6769999999999,394.98899999999975 L 621.8309999999999,395.18899999999974 L 621.9849999999999,395.38799999999975 L 622.1389999999999,395.58699999999976 L 622.2929999999999,395.7859999999998 L 622.4469999999999,395.9849999999998 L 622.6009999999999,396.1839999999998 L 622.7549999999999,396.3829999999998 L 622.9099999999999,396.5819999999998 L 623.0639999999999,396.7799999999998 L 623.1909999999998,396.9439999999998 L 623.4269999999998,396.9749999999998 L 623.5019999999998,396.9849999999998 L 623.7149999999998,397.0129999999998 L 624.0449999999998,397.0559999999998 L 624.4729999999998,397.11299999999983 L 624.9799999999998,397.17999999999984 L 625.5449999999998,397.25399999999985 L 626.1499999999999,397.33399999999983 L 626.7739999999999,397.4159999999998 L 627.3989999999999,397.4979999999998 L 628.0029999999999,397.5779999999998 L 628.568,397.6529999999998 L 629.0749999999999,397.71899999999977 L 629.5039999999999,397.7759999999998 L 629.834,397.8189999999998 L 630.0469999999999,397.8469999999998 L 630.122,397.8569999999998 L 630.3449999999999,397.8859999999998 L 630.387,397.8789999999998 L 630.574,397.6359999999998 L 630.78,397.9789999999998 L 630.951,398.2629999999998 L 631.1850000000001,398.6529999999998 L 631.4350000000001,399.0669999999998 L 631.6730000000001,399.4629999999998 L 631.8510000000001,399.7569999999998 L 631.7560000000001,400.0619999999998 L 631.6530000000001,400.3949999999998 L 631.5500000000002,400.72799999999984 L 631.4470000000002,401.05999999999983 L 631.3430000000002,401.3919999999998 L 631.2400000000002,401.7239999999998 L 631.1370000000003,402.0559999999998 L 631.0340000000003,402.38699999999983 L 630.9310000000004,402.71799999999985 L 630.8270000000003,403.04899999999986 L 630.7240000000004,403.3799999999999 L 630.6210000000004,403.70999999999987 L 630.5180000000005,404.03999999999985 L 630.4140000000004,404.36999999999983 L 630.3110000000005,404.6999999999998 L 630.2080000000005,405.0289999999998 L 630.1050000000006,405.35799999999983 L 629.9810000000006,405.75399999999985 L 629.6820000000006,405.85899999999987 L 629.2000000000006,406.0289999999999 L 628.7170000000007,406.1989999999999 L 628.2350000000007,406.3689999999999 L 627.7530000000007,406.53899999999993 L 627.2700000000008,406.70899999999995 L 626.7880000000008,406.87799999999993 L 626.3060000000008,407.04799999999994 L 625.8230000000009,407.21799999999996 L 625.3410000000009,407.38699999999994 L 624.858000000001,407.5559999999999 L 624.376000000001,407.72599999999994 L 623.894000000001,407.8949999999999 L 623.4110000000011,408.0639999999999 L 622.9290000000011,408.2329999999999 L 622.4460000000012,408.4019999999999 L 621.9640000000012,408.57099999999986 L 621.5680000000012,408.70999999999987 L 620.9090000000012,408.8029999999999 L 620.2690000000013,408.89299999999986 L 619.5490000000012,408.99499999999983 L 618.6840000000012,409.1179999999998 L 618.0050000000012,409.2139999999998 L 617.0150000000012,409.3539999999998 L 616.1260000000012,409.4789999999998 L 615.2930000000013,409.5969999999998 L 614.4600000000013,409.7149999999998 L 613.7510000000013,409.8149999999998 L 613.3280000000013,409.9309999999998 L 612.8310000000014,410.1859999999998 L 612.0680000000013,410.5769999999998 L 611.2900000000013,410.9739999999998 L 610.8870000000013,411.17999999999984 L 610.4650000000013,411.70799999999986 L 610.2510000000012,411.97499999999985 L 609.8650000000013,412.45799999999986 L 609.5730000000012,412.82199999999983 L 609.2240000000012,413.25699999999983 L 609.0720000000011,413.64299999999986 L 608.8370000000011,414.23899999999986 L 608.6340000000012,414.38899999999984 L 608.3020000000012,414.58299999999986 L 608.0000000000011,414.72099999999983 L 607.5290000000011,414.70099999999985 L 607.2600000000011,414.33499999999987 L 606.9750000000012,413.94599999999986 L 606.8320000000011,413.78999999999985 L 606.7040000000011,413.78199999999987 L 606.2310000000011,413.83099999999985 L 605.6610000000011,413.89099999999985 L 604.989000000001,413.82799999999986 L 604.2140000000011,413.75399999999985 L 603.4870000000011,413.68499999999983 L 603.1250000000011,413.6329999999998 L 602.6480000000012,413.3809999999998 L 602.5250000000011,413.3309999999998 L 602.4000000000011,413.3189999999998 L 601.8340000000011,413.3129999999998 L 601.273000000001,413.30699999999985 L 600.711000000001,413.38699999999983 L 600.173000000001,413.35799999999983 L 599.615000000001,413.4039999999998 L 599.419000000001,413.49999999999983 L 599.201000000001,413.49499999999983 L 599.0650000000011,413.5799999999998 L 598.9450000000011,413.61999999999983 L 598.803000000001,413.54699999999985 L 598.629000000001,413.5629999999999 L 598.3730000000011,413.4999999999999 L 598.206000000001,413.33499999999987 L 598.048000000001,413.1899999999999 L 597.885000000001,413.1099999999999 L 597.703000000001,413.0599999999999 L 597.545000000001,413.0589999999999 L 597.343000000001,413.14699999999993 L 597.2200000000009,413.2319999999999 L 596.9080000000009,413.51699999999994 L 596.8950000000009,413.6189999999999 L 597.037000000001,413.78899999999993 L 596.9940000000009,413.8689999999999 L 596.810000000001,413.96899999999994 L 596.753000000001,414.23799999999994 L 596.7260000000009,414.38499999999993 L 596.6990000000009,414.7369999999999 L 596.7810000000009,415.0139999999999 L 596.8900000000009,415.1159999999999 L 596.8950000000009,415.2349999999999 L 596.835000000001,415.4729999999999 L 596.666000000001,415.5459999999999 L 596.5420000000009,415.7719999999999 L 596.4660000000009,415.8769999999999 L 596.334000000001,415.9969999999999 L 595.809000000001,416.3959999999999 L 595.783000000001,416.1639999999999 L 595.616000000001,415.8199999999999 L 595.6040000000011,415.5769999999999 L 595.5260000000011,415.33299999999986 L 595.3820000000011,415.14499999999987 L 595.1160000000011,414.94899999999984 L 595.0920000000011,414.6829999999998 L 594.8980000000012,414.41999999999985 L 594.6410000000012,414.20799999999986 L 594.4980000000012,413.81599999999986 L 594.3900000000012,413.29499999999985 L 593.7120000000012,412.60899999999987 L 592.8640000000013,411.97499999999985 L 592.6060000000012,411.6179999999998 L 592.1840000000012,410.88899999999984 L 591.9710000000013,410.31199999999984 L 591.4040000000012,409.6469999999998 L 591.3800000000012,409.39099999999985 L 591.2960000000013,409.07899999999984 L 591.1650000000013,408.7309999999998 L 591.0860000000014,408.4569999999998 L 590.5170000000014,407.2509999999998 L 590.3330000000014,407.0589999999998 L 590.1750000000014,406.7889999999998 L 590.1340000000014,406.5799999999998 L 590.0840000000014,406.46599999999984 L 589.6820000000014,406.26799999999986 L 589.3070000000014,405.7599999999999 L 588.1800000000014,404.9499999999999 L 587.6280000000014,404.86899999999986 L 587.1910000000014,404.57899999999984 L 586.8690000000014,404.1999999999998 L 586.5260000000014,403.5459999999998 L 585.9220000000014,402.8379999999998 L 585.4100000000014,401.8319999999998 L 585.5710000000014,401.4649999999998 L 585.5610000000014,401.2069999999998 L 585.4030000000014,400.7719999999998 L 585.2320000000013,400.4359999999998 L 585.1140000000013,400.1179999999998 L 585.2070000000012,399.66099999999983 L 585.2430000000012,399.14899999999983 L 585.3440000000012,398.87699999999984 L 585.4170000000012,398.57799999999986 L 585.3220000000011,397.9759999999999 L 585.1520000000012,397.6529999999999 L 585.1690000000012,397.43799999999993 L 584.9760000000012,397.3329999999999 L 584.8200000000013,397.09899999999993 L 584.9830000000013,397.09899999999993 L 584.6870000000013,396.77399999999994 L 584.5780000000012,396.59299999999996 L 584.4660000000013,396.15099999999995 L 584.3230000000012,395.81299999999993 L 583.8640000000013,395.04499999999996 L 583.6440000000013,394.57599999999996 L 583.1520000000013,393.96899999999994 L 582.6180000000013,393.5199999999999 L 582.2790000000012,393.3159999999999 L 582.1150000000013,393.12999999999994 L 581.8380000000012,393.12399999999997 L 581.5360000000012,392.85799999999995 L 581.3250000000012,392.84799999999996 L 581.0580000000011,392.80499999999995 L 580.7440000000012,392.292 L 580.4850000000012,391.811 L 580.0430000000011,391.18399999999997 L 580.1540000000011,391.02 L 580.2830000000012,390.753 L 580.2190000000012,390.40299999999996 L 580.1490000000011,390.16499999999996 L 579.9540000000011,389.73099999999994 L 579.3130000000011,388.64899999999994 L 579.1430000000012,388.48999999999995 L 578.8700000000011,388.30699999999996 L 578.7020000000011,387.83699999999993 L 578.6250000000011,387.4149999999999 L 578.1860000000012,387.2099999999999 L 577.4310000000012,385.6839999999999 L 576.9930000000012,385.1489999999999 L 576.8200000000012,384.7889999999999 L 576.3140000000012,384.19599999999986 L 576.0650000000012,383.60499999999985 L 575.5550000000012,383.05899999999986 L 575.1130000000012,382.10999999999984 L 574.4300000000012,381.1589999999998 L 574.1430000000012,380.9939999999998 L 573.4390000000012,380.9259999999998 L 573.1430000000012,380.8559999999998 L 572.8710000000011,381.0649999999998 L 572.8470000000011,380.79999999999984 L 573.0350000000011,380.4329999999998 L 573.3060000000011,379.66099999999983 L 573.360000000001,378.98299999999983 L 573.7860000000011,376.96099999999984 L 574.384000000001,377.0649999999998 L 574.876000000001,377.15099999999984 L 575.595000000001,377.2769999999998 L 576.3390000000011,377.4069999999998 L 576.774000000001,377.48299999999983 L 576.923000000001,377.4499999999998 L 577.525000000001,376.95399999999984 L 578.067000000001,376.50599999999986 L 578.3920000000011,375.9569999999999 L 578.706000000001,375.42399999999986 L 578.850000000001,375.31399999999985 L 579.332000000001,375.2139999999998 L 580.097000000001,375.05499999999984 L 580.854000000001,374.89799999999985 L 580.915000000001,374.8439999999999 L 581.091000000001,374.4149999999999 L 581.3150000000011,373.8699999999999 L 581.3610000000011,373.8129999999999 L 581.4160000000011,373.7569999999999 L 581.9580000000011,373.4509999999999 L 582.2870000000011,373.26499999999993 L 581.818000000001,372.71599999999995 L 581.376000000001,372.19699999999995 L 580.880000000001,371.61499999999995 L 580.4600000000011,371.16099999999994 L 579.831000000001,370.48099999999994 L 579.419000000001,370.0349999999999 L 580.140000000001,369.8229999999999 L 580.920000000001,369.59399999999994 L 581.707000000001,369.36299999999994 L 582.654000000001,369.0849999999999 L 583.395000000001,368.8669999999999 L 584.501000000001,368.5409999999999 L 585.042000000001,368.3819999999999 L 585.140000000001,368.3399999999999 L 585.5560000000011,367.9539999999999 L 586.182000000001,368.0619999999999 L 587.1230000000011,368.2249999999999 L 588.0320000000011,368.3809999999999 L 588.990000000001,368.5659999999999 L 589.297000000001,368.7159999999999 L 590.222000000001,369.2679999999999 L 590.823000000001,369.6259999999999 L 591.525000000001,370.0429999999999 L 592.402000000001,370.5639999999999 L 593.0040000000009,370.92099999999994 L 593.7750000000009,371.37799999999993 L 594.3760000000009,371.89899999999994 L 595.1370000000009,372.55799999999994 L 595.9730000000009,373.2799999999999 L 596.6610000000009,373.8399999999999 L 597.6090000000008,374.6099999999999 L 598.5430000000008,375.3669999999999 L 599.4580000000008,376.1059999999999 L 600.1900000000007,376.6969999999999 L 601.1170000000008,377.44299999999987 L 601.1890000000008,377.4709999999999 L 602.1260000000008,377.5549999999999 L 603.3850000000008,377.66899999999987 L 604.6500000000008,377.78299999999984 L 605.7920000000008,377.88599999999985 L 606.29,377.781 M 578.404,388.423 L 578.378,388.465 L 578.26,388.356 L 578.2669999999999,388.117 L 578.3689999999999,387.981 L 578.3609999999999,388.167 L 578.4049999999999,388.35499999999996 L 578.404,388.423 M 579.264,389.443 L 579.19,389.443 L 578.993,389.234 L 578.878,389.08 L 578.76,388.976 L 578.222,388.767 L 578.149,388.632 L 578.231,388.497 L 578.289,388.63100000000003 L 578.387,388.71000000000004 L 578.832,388.89900000000006 L 579.328,389.31100000000004 L 579.413,389.345 L 579.264,389.443 M 593.538,415.388 L 593.755,415.405 L 593.665,415.31199999999995 L 593.646,415.26699999999994 L 593.74,415.1329999999999 L 594.05,415.40899999999993 L 594.0409999999999,415.73599999999993 L 594.015,415.8109999999999 L 593.931,415.74099999999993 L 593.8760000000001,415.6719999999999 L 593.859,415.5979999999999 L 593.773,415.5179999999999 L 593.471,415.56999999999994 L 593.283,415.48099999999994 L 593.014,415.20599999999996 L 592.942,415.00699999999995 L 593.054,414.96799999999996 L 593.173,414.87199999999996 L 593.248,414.715 L 593.1790000000001,414.55199999999996 L 593.339,414.578 L 593.4250000000001,414.74499999999995 L 593.4420000000001,415.12399999999997 L 593.4660000000001,415.20399999999995 L 593.4220000000001,415.29099999999994 L 593.538,415.388" id="SA" title="Saudi Arabia"/>
</svg>
