<svg xmlns="http://www.w3.org/2000/svg" xmlns:ev="http://www.w3.org/2001/xml-events" xmlns:xlink="http://www.w3.org/1999/xlink" baseProfile="full" height="14.759979248046875" version="1.1" viewBox="912.6069946289062 481.135009765625 31.5780029296875 14.759979248046875" width="31.5780029296875" fill="#00394f">
	<defs/>
	<path class="land" d="M 917.685,483.162 L 917.774,483.26099999999997 L 917.557,483.429 L 917.2710000000001,483.33799999999997 L 917.2080000000001,483.24299999999994 L 917.2010000000001,483.1929999999999 L 917.0010000000001,483.2249999999999 L 916.604,483.1419999999999 L 916.0500000000001,482.7399999999999 L 915.464,481.9829999999999 L 914.9010000000001,481.5639999999999 L 914.796,481.4339999999999 L 914.782,481.2179999999999 L 914.8580000000001,481.1349999999999 L 915.2080000000001,481.22499999999985 L 915.6610000000001,481.57099999999986 L 916.4040000000001,481.92999999999984 L 916.6060000000001,482.11299999999983 L 916.7350000000001,482.55199999999985 L 916.8610000000001,482.6829999999998 L 917.2620000000001,483.0199999999998 L 917.474,483.0989999999998 L 917.586,483.1139999999998 L 917.685,483.162 M 913.063,482.507 L 912.781,482.574 L 912.607,482.48400000000004 L 912.684,482.27000000000004 L 912.78,482.15900000000005 L 913.1329999999999,482.35600000000005 L 913.063,482.507 M 924.398,486.551 L 924.403,486.616 L 924.0260000000001,486.381 L 923.7400000000001,486.09299999999996 L 922.9250000000001,485.78 L 922.7500000000001,485.61899999999997 L 922.6030000000001,485.599 L 922.1850000000001,485.337 L 921.7740000000001,485.15999999999997 L 921.5240000000001,484.93199999999996 L 921.4600000000002,484.83899999999994 L 921.3100000000002,484.78299999999996 L 921.0520000000001,484.53299999999996 L 920.8010000000002,484.36699999999996 L 920.7120000000001,484.06399999999996 L 920.4700000000001,483.85599999999994 L 920.4090000000001,483.76499999999993 L 921.1860000000001,483.93299999999994 L 921.5460000000002,484.26499999999993 L 921.8540000000002,484.4529999999999 L 921.9610000000001,484.58899999999994 L 922.2380000000002,484.77599999999995 L 922.4870000000002,484.79299999999995 L 922.7360000000002,484.98099999999994 L 922.9630000000002,485.03099999999995 L 923.1420000000002,485.12899999999996 L 924.2970000000001,485.96799999999996 L 924.1590000000001,486.191 L 924.3120000000001,486.35299999999995 L 924.398,486.551 M 915.442,484.829 L 915.388,484.868 L 915.294,484.716 L 915.226,484.669 L 915.228,484.5 L 914.9449999999999,484.225 L 914.9219999999999,484.035 L 915.0859999999999,483.84900000000005 L 915.3069999999999,483.95700000000005 L 915.526,484.19100000000003 L 915.7829999999999,484.26700000000005 L 915.7299999999999,484.422 L 915.4989999999999,484.701 L 915.442,484.829 M 916.801,485.35 L 916.739,485.392 L 916.433,485.376 L 916.201,485.085 L 916.203,484.87 L 916.386,484.673 L 916.607,484.638 L 916.728,484.714 L 916.8399999999999,484.879 L 916.881,485.089 L 916.856,485.275 L 916.801,485.35 M 915.206,485.529 L 915.172,485.599 L 915.0260000000001,485.251 L 915.033,485.07599999999996 L 915.058,484.96399999999994 L 915.112,484.92999999999995 L 915.23,485.31699999999995 L 915.206,485.529 M 918.461,485.728 L 918.6370000000001,485.958 L 918.84,486.47200000000004 L 918.803,486.64900000000006 L 918.658,486.65900000000005 L 918.617,486.77000000000004 L 918.4209999999999,486.52000000000004 L 918.159,486.45300000000003 L 917.968,486.3 L 917.9029999999999,485.997 L 917.8839999999999,485.80600000000004 L 917.7339999999999,485.773 L 917.304,485.821 L 917.167,485.98400000000004 L 916.971,485.932 L 916.929,485.785 L 916.959,485.641 L 917.2209999999999,485.499 L 917.2749999999999,485.31600000000003 L 917.5349999999999,485.002 L 917.6959999999998,484.94800000000004 L 917.9999999999998,485.06100000000004 L 918.0369999999998,485.50800000000004 L 918.1459999999998,485.65400000000005 L 918.461,485.728 M 926.841,485.93 L 927.537,486.77 L 927.51,486.919 L 927.415,487.015 L 927.3879999999999,487.29699999999997 L 927.4759999999999,487.405 L 927.6659999999999,487.455 L 927.9889999999999,487.756 L 928.1179999999999,488.125 L 928.1299999999999,488.238 L 928.2649999999999,488.405 L 928.2699999999999,488.758 L 928.5769999999999,489.248 L 928.6039999999999,489.484 L 928.5759999999999,489.59 L 928.4479999999999,489.52799999999996 L 928.0809999999999,488.972 L 927.661,488.73199999999997 L 927.6129999999999,488.62899999999996 L 927.189,488.30499999999995 L 926.905,487.75999999999993 L 926.597,486.7919999999999 L 926.742,486.56299999999993 L 926.395,486.09399999999994 L 926.412,485.96899999999994 L 926.558,485.99799999999993 L 926.66,485.99199999999996 L 926.709,485.936 L 926.841,485.93 M 923.861,486.477 L 923.727,486.515 L 923.528,486.411 L 923.442,486.317 L 923.4830000000001,486.17 L 923.599,486.11400000000003 L 923.731,486.213 L 923.745,486.314 L 923.861,486.477 M 917.41,487.057 L 917.41,487.098 L 917.255,487.019 L 916.914,486.63800000000003 L 916.975,486.511 L 917.288,486.264 L 917.384,486.231 L 917.472,486.384 L 917.396,486.61 L 917.293,486.66700000000003 L 917.251,486.879 L 917.41,487.057 M 919.428,486.974 L 919.152,487.197 L 918.95,487.122 L 918.787,486.93100000000004 L 918.841,486.701 L 918.871,486.64000000000004 L 918.952,486.62700000000007 L 919.033,486.58000000000004 L 919.121,486.47800000000007 L 919.422,486.5590000000001 L 919.496,486.61500000000007 L 919.317,486.7560000000001 L 919.377,486.8010000000001 L 919.4159999999999,486.8680000000001 L 919.428,486.974 M 919.688,487.362 L 919.625,487.37300000000005 L 919.56,487.261 L 919.713,486.95700000000005 L 919.7869999999999,487.20200000000006 L 919.8349999999999,487.29400000000004 L 919.688,487.362 M 918.129,487.185 L 918.123,487.284 L 917.9620000000001,487.253 L 917.6040000000002,487.104 L 917.5910000000001,487.036 L 917.7950000000001,487.011 L 917.9430000000001,487.03000000000003 L 918.0670000000001,487.117 L 918.129,487.185 M 922.46,488.214 L 922.423,488.221 L 922.291,488.186 L 922.1310000000001,488.17499999999995 L 922.0330000000001,488.07699999999994 L 922.1490000000001,487.93699999999995 L 922.2950000000001,487.84599999999995 L 922.3620000000001,487.86899999999997 L 922.4250000000001,487.928 L 922.5720000000001,487.95 L 922.5880000000001,488.13 L 922.46,488.214 M 925.209,487.852 L 925.371,487.892 L 925.449,487.886 L 925.6339999999999,488.038 L 925.8809999999999,488.262 L 925.7799999999999,488.378 L 925.5789999999998,488.318 L 925.5119999999998,488.342 L 925.4909999999999,488.32599999999996 L 925.4489999999998,488.21399999999994 L 925.2299999999998,488.10299999999995 L 925.0339999999998,488.09399999999994 L 925.0089999999998,487.96199999999993 L 925.209,487.852 M 924.037,488.635 L 924.6550000000001,489.089 L 924.921,489.047 L 925.7330000000001,489.055 L 926.2120000000001,489.379 L 926.493,489.528 L 926.6510000000001,489.81800000000004 L 926.8460000000001,489.884 L 926.9660000000001,490.03200000000004 L 927.0350000000001,490.302 L 926.9860000000001,490.346 L 926.738,490.447 L 926.5580000000001,490.489 L 926.0870000000001,490.393 L 925.6370000000001,490.18499999999995 L 924.7420000000001,490.15999999999997 L 924.325,490.10099999999994 L 924.181,490.02199999999993 L 924.048,489.91599999999994 L 923.838,489.66399999999993 L 923.674,489.36799999999994 L 923.6469999999999,489.19399999999996 L 923.6329999999999,488.864 L 923.684,488.743 L 923.855,488.623 L 924.037,488.635 M 929.081,489.633 L 929.112,489.936 L 929.098,490.03999999999996 L 928.885,489.818 L 928.785,489.897 L 928.692,489.792 L 928.699,489.56199999999995 L 928.7139999999999,489.31699999999995 L 928.6719999999999,489.131 L 928.5659999999999,488.863 L 928.685,488.906 L 929.081,489.633 M 929.552,491.789 L 929.905,491.95599999999996 L 930.111,491.92799999999994 L 930.4159999999999,492.04299999999995 L 930.6469999999999,491.97799999999995 L 930.7919999999999,492.126 L 931.1569999999999,492.705 L 931.16,492.893 L 931.399,493.027 L 931.197,493.05199999999996 L 930.916,492.98299999999995 L 930.6980000000001,493.03 L 930.4700000000001,492.91799999999995 L 930.0860000000001,492.85999999999996 L 929.7520000000002,492.72499999999997 L 929.0540000000002,492.29799999999994 L 929.0580000000002,492.0849999999999 L 928.9450000000002,491.98099999999994 L 928.9120000000001,491.7169999999999 L 928.6620000000001,491.6339999999999 L 928.3700000000001,491.6179999999999 L 928.3470000000001,491.4929999999999 L 928.4010000000001,491.2719999999999 L 928.619,491.27499999999986 L 928.881,491.36699999999985 L 929.381,491.68899999999985 L 929.505,491.74399999999986 L 929.552,491.789 M 941.95,492.84 L 941.726,492.88899999999995 L 941.655,492.87499999999994 L 941.487,492.90099999999995 L 941.3059999999999,493.10599999999994 L 941.1729999999999,493.07699999999994 L 941.0689999999998,493.0849999999999 L 940.9899999999999,492.9169999999999 L 940.9879999999999,492.8349999999999 L 941.116,492.8479999999999 L 941.183,492.6839999999999 L 941.321,492.6019999999999 L 941.643,492.5639999999999 L 941.929,492.6179999999999 L 942.031,492.65499999999986 L 941.9409999999999,492.8029999999999 L 941.95,492.84 M 926.354,495.797 L 926.159,495.89500000000004 L 925.98,495.84600000000006 L 925.844,495.77200000000005 L 925.734,495.55300000000005 L 925.496,495.41600000000005 L 925.1569999999999,495.35900000000004 L 925.0179999999999,495.264 L 924.982,495.217 L 924.747,495.175 L 924.68,495.056 L 924.6999999999999,494.933 L 924.7379999999999,494.868 L 924.9549999999999,494.928 L 925.9979999999999,495.506 L 926.246,495.68499999999995 L 926.354,495.797 M 944.185,495.419 L 943.9369999999999,495.465 L 943.8379999999999,495.45399999999995 L 943.6739999999999,495.20799999999997 L 943.7959999999998,495.152 L 943.9779999999998,495.173 L 944.0329999999998,495.318 L 944.185,495.419" id="SB" title="Solomon Islands"/>
</svg>
