<svg xmlns="http://www.w3.org/2000/svg" xmlns:ev="http://www.w3.org/2001/xml-events" xmlns:xlink="http://www.w3.org/1999/xlink" baseProfile="full" height="39.27301025390625" version="1.1" viewBox="536.9520263671875 399.14599609375 47.10498046875 39.27301025390625" width="47.10498046875">
	<defs/>
	<path class="land" d="M 564.01,399.5 L 563.92,399.768 L 564.445,399.768 L 565.366,399.768 L 566.287,399.768 L 567.208,399.768 L 568.129,399.767 L 569.049,399.767 L 569.97,399.767 L 570.891,399.767 L 571.812,399.767 L 572.733,399.767 L 573.653,399.767 L 574.575,399.766 L 575.495,399.766 L 576.416,399.766 L 577.337,399.766 L 578.258,399.766 L 579.179,399.765 L 579.21,400.451 L 579.334,400.998 L 579.768,401.779 L 580.134,402.199 L 580.266,402.43 L 580.278,402.537 L 580.261,402.637 L 580.15,402.522 L 579.962,402.444 L 579.936,402.809 L 579.979,403.068 L 580.024,403.555 L 580.178,404.077 L 580.067,404.559 L 580.082,405.375 L 580.276,406.351 L 580.237,406.973 L 580.554,408.421 L 580.862,409.223 L 581.031,409.42 L 581.222,409.526 L 581.588,409.594 L 582.127,410.001 L 582.554,410.431 L 582.706,410.656 L 582.912,410.902 L 583.054,410.858 L 583.141,410.792 L 583.28,410.991 L 583.957,411.42 L 584.057,411.619 L 583.813,411.814 L 583.532,412.15 L 583.461,412.284 L 583.428,412.363 L 583.395,412.463 L 583.321,412.562 L 583.16,412.698 L 583.096,412.757 L 583.058,412.851 L 582.961,412.912 L 582.855,412.915 L 582.763,412.957 L 582.624,413.021 L 582.417,412.988 L 582.206,413.047 L 582.129,413.121 L 581.961,413.186 L 581.794,413.2 L 581.735,413.222 L 581.577,413.331 L 581.383,413.484 L 581.156,413.581 L 581.076,413.613 L 580.972,413.718 L 580.811,414.242 L 580.693,414.379 L 580.495,414.393 L 580.238,414.393 L 580.015,414.438 L 579.712,414.38 L 579.565,414.387 L 579.526,414.499 L 579.472,414.948 L 579.479,415.141 L 579.359,415.368 L 579.225,415.653 L 579.274,416.133 L 579.297,416.608 L 579.051,417.322 L 579.016,417.486 L 578.767,418.051 L 578.639,418.262 L 578.321,419.316 L 578.197,419.64 L 577.931,419.981 L 577.991,420.536 L 578.055,421.123 L 578.115,421.677 L 578.205,422.504 L 577.979,423.276 L 577.988,423.697 L 577.83,424.317 L 577.705,424.604 L 577.594,424.773 L 577.501,424.949 L 577.329,425.335 L 577.183,425.844 L 577.118,426.365 L 577.113,426.668 L 577.084,426.806 L 577.035,426.894 L 576.698,426.951 L 576.229,427.013 L 575.977,427.081 L 575.808,427.187 L 575.6,427.434 L 575.188,428.11 L 574.973,428.524 L 574.635,429.09 L 574.242,429.49 L 574.159,429.685 L 574.094,430.047 L 573.949,430.62 L 573.816,431.026 L 573.84,431.354 L 573.716,431.921 L 573.734,432.197 L 573.596,432.351 L 573.411,432.497 L 573.285,432.534 L 573.015,432.367 L 572.809,432.198 L 572.725,432.153 L 572.546,432.259 L 572.331,432.416 L 572.085,432.782 L 571.894,433.152 L 572.004,433.937 L 571.994,434.108 L 571.938,434.295 L 571.64,434.879 L 571.566,435.064 L 571.458,435.414 L 571.343,436.025 L 571.339,436.172 L 571.339,436.172 L 571.336,436.172 L 570.814,436.17 L 570.805,436.167 L 570.797,436.158 L 570.789,436.145 L 570.78,436.126 L 570.76,436.046 L 570.749,435.921 L 570.767,435.705 L 570.825,435.448 L 571.006,435.087 L 571.015,435.057 L 571.017,435.04 L 571.017,435.021 L 571.0,434.956 L 570.979,434.9 L 570.969,434.816 L 571.0,434.628 L 571.003,434.57 L 570.999,434.496 L 570.985,434.448 L 570.859,434.135 L 570.817,434.085 L 569.602,433.088 L 569.38,432.817 L 569.356,432.799 L 569.326,432.785 L 568.709,432.557 L 568.679,432.534 L 568.683,432.501 L 568.702,432.458 L 568.776,432.326 L 568.786,432.292 L 568.797,432.239 L 568.519,430.131 L 568.52,430.09 L 568.532,430.062 L 568.542,430.045 L 568.579,430.0 L 568.611,429.954 L 568.648,429.872 L 568.657,429.842 L 568.696,429.464 L 568.693,429.134 L 568.855,428.583 L 568.873,428.348 L 567.533,428.331 L 567.525,428.343 L 567.524,428.358 L 567.527,428.374 L 567.529,428.392 L 567.528,428.429 L 567.518,428.497 L 567.515,428.534 L 567.516,428.57 L 567.537,428.703 L 567.572,428.802 L 567.577,428.835 L 567.579,428.871 L 567.575,428.94 L 565.71,428.948 L 566.448,429.776 L 566.457,429.793 L 566.47,429.838 L 566.475,429.872 L 566.489,430.163 L 566.45,430.623 L 566.458,430.919 L 566.501,431.111 L 566.701,431.489 L 566.688,431.56 L 566.642,431.649 L 565.319,432.771 L 565.282,432.824 L 565.098,433.292 L 564.923,433.563 L 564.846,433.641 L 564.539,434.022 L 563.332,435.217 L 563.134,435.297 L 562.533,435.33 L 562.215,435.339 L 562.179,435.348 L 562.125,435.368 L 562.092,435.399 L 562.053,435.422 L 562.014,435.41 L 561.969,435.377 L 561.227,434.708 L 559.903,433.863 L 559.776,433.94 L 559.027,434.304 L 558.873,434.398 L 558.787,434.465 L 558.783,434.872 L 558.652,435.078 L 558.416,435.304 L 557.768,435.447 L 557.431,435.569 L 557.086,435.752 L 557.03,435.798 L 557.03,435.797 L 556.898,435.924 L 556.637,436.179 L 556.609,436.377 L 556.651,436.555 L 554.418,436.548 L 554.271,436.406 L 553.961,435.782 L 553.947,435.776 L 553.719,435.815 L 551.683,435.742 L 551.392,435.807 L 550.81,436.065 L 550.517,436.108 L 550.215,435.99 L 549.144,434.746 L 548.913,434.597 L 548.828,434.517 L 548.67,434.299 L 548.441,434.169 L 548.364,434.075 L 548.339,433.942 L 548.346,433.668 L 548.271,433.497 L 548.102,433.458 L 546.662,433.747 L 546.456,433.714 L 546.154,433.766 L 546.05,433.817 L 545.928,433.981 L 545.903,434.151 L 545.907,434.323 L 545.87,434.492 L 545.76,434.681 L 545.35,435.103 L 545.259,435.287 L 545.278,435.751 L 545.251,435.986 L 545.189,436.095 L 545.011,436.273 L 544.946,436.376 L 544.916,436.521 L 544.906,436.827 L 544.874,436.97 L 544.65,437.33 L 544.597,437.457 L 544.584,437.716 L 544.548,437.795 L 543.897,438.0 L 543.654,438.131 L 543.505,438.333 L 543.469,438.419 L 543.469,438.419 L 543.19,438.347 L 542.836,438.295 L 542.155,438.231 L 541.886,438.137 L 541.757,437.996 L 541.798,437.636 L 541.73,437.559 L 541.622,437.495 L 541.547,437.339 L 541.563,437.152 L 541.922,436.736 L 541.996,436.514 L 542.053,435.741 L 542.09,435.469 L 542.063,435.15 L 541.778,434.563 L 541.53,434.155 L 541.125,433.55 L 540.967,433.352 L 540.149,432.518 L 540.054,432.394 L 539.856,432.041 L 539.954,431.73 L 540.074,431.268 L 540.088,431.054 L 540.032,430.833 L 539.825,430.667 L 539.641,430.647 L 539.559,430.563 L 539.399,430.441 L 539.241,430.346 L 539.101,430.164 L 539.004,429.909 L 539.073,428.996 L 539.026,428.874 L 538.817,428.84 L 538.768,428.774 L 538.776,428.599 L 538.664,428.078 L 538.538,427.646 L 538.605,427.408 L 538.431,427.082 L 538.097,426.942 L 537.782,426.985 L 537.444,427.05 L 537.24,427.032 L 537.101,426.971 L 537.002,426.852 L 536.952,426.71 L 536.998,426.498 L 537.184,426.108 L 537.415,425.788 L 537.886,425.495 L 538.011,425.34 L 538.083,425.167 L 538.095,424.969 L 538.063,424.76 L 538.01,424.569 L 537.871,424.316 L 537.744,424.018 L 537.741,423.818 L 537.802,423.674 L 537.928,423.5 L 538.178,423.304 L 538.238,423.265 L 538.395,423.16 L 538.532,423.083 L 538.874,422.877 L 538.954,422.778 L 538.925,422.659 L 538.841,422.562 L 538.703,422.426 L 538.675,422.259 L 538.635,421.974 L 538.564,421.792 L 538.513,421.659 L 538.61,421.559 L 538.755,421.42 L 538.936,421.335 L 539.215,421.263 L 539.325,421.163 L 539.357,420.973 L 539.348,420.791 L 539.449,420.656 L 539.584,420.366 L 539.693,420.234 L 539.876,420.083 L 540.059,419.894 L 540.14,419.674 L 540.163,419.463 L 540.063,418.821 L 540.274,418.553 L 540.544,418.331 L 540.932,418.346 L 541.534,418.297 L 541.944,418.205 L 542.236,418.208 L 542.903,418.328 L 542.958,418.299 L 542.973,418.275 L 543.009,418.105 L 543.008,417.677 L 543.007,416.381 L 543.006,415.083 L 543.005,413.782 L 543.004,412.477 L 543.003,411.169 L 543.002,409.858 L 543.001,408.543 L 543.0,407.225 L 543.0,406.855 L 543.0,406.486 L 543.0,406.116 L 543.0,405.745 L 543.692,405.746 L 544.385,405.746 L 545.077,405.746 L 545.769,405.747 L 545.778,405.741 L 545.787,405.736 L 545.795,405.73 L 545.804,405.726 L 545.805,404.244 L 545.805,402.757 L 545.806,401.265 L 545.806,399.768 L 546.878,399.768 L 547.951,399.769 L 549.023,399.769 L 550.095,399.769 L 551.167,399.769 L 552.239,399.769 L 553.312,399.769 L 554.384,399.77 L 555.456,399.77 L 556.528,399.77 L 557.6,399.77 L 558.672,399.77 L 559.744,399.771 L 560.816,399.771 L 561.889,399.771 L 562.961,399.771 L 563.288,399.771 L 563.432,399.749 L 563.707,399.188 L 563.824,399.146 L 564.003,399.179 L 564.065,399.311 L 564.01,399.5" id="SD" title="Sudan"/>
</svg>
