<svg xmlns="http://www.w3.org/2000/svg" xmlns:ev="http://www.w3.org/2001/xml-events" xmlns:xlink="http://www.w3.org/1999/xlink" baseProfile="full" height="83.906005859375" version="1.1" viewBox="506.97601318359375 192.35400390625 36.5159912109375 83.906005859375" width="36.5159912109375">
	<defs/>
	<path class="land" d="M 543.492,215.986 L 542.7479999999999,216.14399999999998 L 542.189,215.82699999999997 L 541.91,215.98599999999996 L 541.423,215.99299999999997 L 540.869,216.11799999999997 L 540.682,216.36499999999998 L 540.535,216.46399999999997 L 540.0219999999999,216.11499999999998 L 539.5369999999999,215.53599999999997 L 539.1829999999999,215.97699999999998 L 538.9539999999998,216.05999999999997 L 538.7469999999998,215.66099999999997 L 538.5669999999999,215.59599999999998 L 538.4699999999999,215.72899999999998 L 538.3849999999999,216.082 L 538.2489999999999,216.35899999999998 L 538.213,216.534 L 538.1899999999999,217.238 L 538.155,217.401 L 537.684,217.31 L 537.712,217.495 L 537.8149999999999,217.588 L 537.857,217.70499999999998 L 537.6859999999999,217.85799999999998 L 537.2189999999999,217.843 L 537.1709999999999,218.006 L 537.3019999999999,218.262 L 537.199,218.487 L 537.1039999999999,218.575 L 536.545,218.714 L 536.222,218.682 L 536.129,218.827 L 536.104,219.015 L 536.1650000000001,219.2 L 536.3080000000001,219.298 L 536.3550000000001,219.415 L 536.3450000000001,219.66799999999998 L 536.2260000000001,219.71399999999997 L 535.8900000000001,219.26899999999998 L 535.7870000000001,219.29199999999997 L 535.8640000000001,219.52299999999997 L 536.0560000000002,219.77499999999998 L 536.1670000000001,220.03199999999998 L 536.2640000000001,220.33999999999997 L 536.2450000000001,220.57399999999998 L 535.8270000000001,221.326 L 535.4590000000001,221.799 L 535.1850000000001,222.22400000000002 L 535.023,222.674 L 535.211,222.9 L 535.419,223.226 L 535.566,223.851 L 535.741,224.407 L 536.0939999999999,224.936 L 536.0229999999999,225.241 L 535.9409999999999,225.478 L 535.3539999999999,225.999 L 534.6879999999999,226.781 L 533.9699999999999,228.76500000000001 L 533.7309999999999,229.03 L 533.1029999999998,229.363 L 532.8719999999998,229.685 L 532.4039999999999,230.067 L 531.5869999999999,230.395 L 531.2169999999999,230.851 L 531.0499999999998,231.321 L 530.8639999999998,231.355 L 530.6789999999999,231.171 L 530.4329999999999,231.034 L 530.4009999999998,231.34099999999998 L 530.4119999999998,231.56599999999997 L 530.0179999999998,231.23299999999998 L 529.8319999999998,231.539 L 529.6869999999998,232.04799999999997 L 529.1199999999998,232.73199999999997 L 528.5089999999998,232.60899999999998 L 528.4409999999998,232.72899999999998 L 528.6029999999998,232.81599999999997 L 528.6279999999998,232.92499999999998 L 528.5169999999998,232.98299999999998 L 528.3489999999998,232.97699999999998 L 528.0899999999998,233.11199999999997 L 527.9199999999998,233.10199999999998 L 527.8389999999998,233.42399999999998 L 527.7069999999999,233.813 L 527.3619999999999,233.974 L 527.1839999999999,234.00699999999998 L 527.0959999999999,234.22799999999998 L 527.6269999999998,234.27399999999997 L 527.5849999999998,234.46099999999998 L 527.5729999999999,234.648 L 527.5179999999999,234.84799999999998 L 526.9139999999999,235.136 L 526.8209999999999,235.362 L 526.6949999999999,235.50199999999998 L 526.4259999999999,235.49399999999997 L 526.4359999999999,235.36399999999998 L 526.4799999999999,235.21699999999998 L 526.0799999999999,235.23 L 525.9549999999999,234.905 L 525.8789999999999,234.988 L 525.9239999999999,235.25 L 526.0279999999999,235.522 L 526.1449999999999,235.921 L 526.0499999999998,236.172 L 525.9449999999998,236.297 L 526.0219999999998,236.412 L 526.2349999999998,236.5 L 526.3209999999998,236.657 L 526.0679999999998,236.791 L 525.7519999999997,237.251 L 525.4239999999998,237.262 L 525.2239999999997,237.566 L 525.0109999999997,237.565 L 524.8379999999997,237.374 L 524.5609999999997,237.21699999999998 L 524.4719999999996,237.493 L 524.4579999999996,237.713 L 524.6139999999996,238.268 L 524.9119999999996,238.696 L 525.1879999999995,238.881 L 524.9889999999996,239.006 L 524.8409999999996,239.282 L 524.6619999999996,240.14200000000002 L 524.5649999999996,240.48000000000002 L 524.4599999999996,241.074 L 524.5259999999996,241.574 L 524.5799999999996,241.81900000000002 L 524.7149999999996,242.15200000000002 L 524.3479999999996,242.109 L 523.9599999999996,241.91500000000002 L 524.0139999999996,242.318 L 523.7759999999995,242.794 L 523.8199999999995,243.21200000000002 L 523.8699999999994,243.483 L 523.7959999999995,243.93200000000002 L 523.9079999999994,244.073 L 523.9689999999995,244.34 L 523.8679999999995,244.537 L 523.9119999999995,244.70600000000002 L 523.9289999999995,245.30300000000003 L 524.0049999999995,246.23400000000004 L 523.9769999999995,246.43000000000004 L 524.1899999999995,247.23400000000004 L 524.1409999999995,247.51500000000004 L 524.1119999999995,247.87200000000004 L 524.4179999999996,248.21500000000003 L 524.6899999999996,248.21000000000004 L 524.9659999999996,248.20500000000004 L 525.0709999999996,248.29000000000005 L 525.1769999999996,248.53200000000004 L 525.2619999999996,248.81800000000004 L 525.4889999999996,248.79500000000004 L 525.8519999999996,248.56300000000005 L 526.0879999999996,248.50800000000004 L 526.2439999999996,248.95400000000004 L 526.6679999999996,249.54200000000003 L 526.9149999999995,249.80500000000004 L 527.3339999999995,249.94400000000005 L 527.7759999999995,250.41600000000005 L 527.7139999999995,250.98400000000007 L 527.8979999999995,251.17300000000006 L 528.4189999999994,251.39600000000007 L 528.6039999999994,251.69700000000006 L 528.6929999999994,251.95300000000006 L 528.8299999999994,252.16500000000005 L 528.9909999999993,252.80400000000006 L 528.9349999999993,253.19700000000006 L 528.7249999999992,253.33200000000005 L 528.2279999999993,253.75200000000004 L 528.0069999999993,254.06500000000003 L 527.8339999999993,254.25900000000001 L 527.3409999999992,254.67600000000002 L 527.1599999999992,254.751 L 526.9869999999992,254.967 L 526.8199999999991,255.062 L 526.6699999999992,255.008 L 526.1099999999992,255.399 L 525.7319999999992,255.291 L 525.5729999999992,255.09799999999998 L 525.6739999999992,254.32999999999998 L 525.6109999999992,254.082 L 525.5379999999992,253.957 L 525.2899999999992,254.1 L 525.3339999999992,254.394 L 524.9049999999992,254.406 L 524.5009999999992,254.157 L 524.4489999999992,254.64700000000002 L 523.5809999999991,254.241 L 523.3419999999991,254.34400000000002 L 522.958999999999,254.14000000000001 L 522.709999999999,254.38400000000001 L 522.413999999999,254.29600000000002 L 522.2089999999989,254.00600000000003 L 521.9249999999989,254.51600000000002 L 521.3049999999989,254.66100000000003 L 520.721999999999,254.74200000000002 L 521.0029999999989,254.912 L 522.3109999999989,254.88 L 522.6809999999989,255.006 L 523.1619999999989,254.922 L 523.5879999999989,255.322 L 523.894999999999,255.418 L 524.257999999999,255.877 L 524.443999999999,255.752 L 524.7359999999991,255.77100000000002 L 525.0059999999991,255.90200000000002 L 525.862999999999,255.88500000000002 L 526.1539999999991,255.56500000000003 L 526.5829999999991,255.63500000000002 L 526.8019999999991,255.55200000000002 L 526.9699999999991,255.35600000000002 L 527.1539999999991,255.31100000000004 L 527.3209999999991,255.34800000000004 L 527.4989999999991,255.19300000000004 L 527.6389999999991,255.13100000000003 L 527.7829999999991,255.20600000000002 L 527.943999999999,255.57700000000003 L 527.6099999999991,255.76900000000003 L 527.3729999999991,255.77800000000002 L 527.2569999999992,256.384 L 527.1139999999991,256.644 L 527.0109999999992,256.769 L 526.4859999999992,257.026 L 526.1389999999992,257.351 L 525.7299999999992,257.612 L 525.5519999999992,257.555 L 525.2829999999992,257.82 L 524.6859999999992,258.133 L 524.3789999999992,258.555 L 523.6919999999992,258.931 L 523.3419999999992,259.23699999999997 L 522.3909999999992,259.253 L 521.4829999999992,259.186 L 521.1979999999992,259.33099999999996 L 521.4899999999992,259.376 L 521.6939999999992,259.518 L 521.9389999999992,259.45799999999997 L 522.5149999999992,259.529 L 522.8109999999992,259.60699999999997 L 523.1909999999992,260.10499999999996 L 522.9119999999992,260.28099999999995 L 522.4279999999992,260.417 L 522.6099999999992,261.11899999999997 L 522.7589999999992,261.59099999999995 L 522.5629999999992,261.87499999999994 L 522.5479999999992,263.1619999999999 L 522.2729999999992,263.1859999999999 L 522.1559999999993,263.7159999999999 L 522.2419999999993,263.9859999999999 L 522.2349999999993,264.6109999999999 L 522.2919999999993,264.9949999999999 L 522.4269999999993,265.3479999999999 L 522.3669999999994,265.7149999999999 L 521.9319999999994,266.57199999999995 L 521.9409999999995,266.97299999999996 L 522.0199999999994,267.21099999999996 L 522.0779999999994,267.59 L 521.8799999999994,268.31699999999995 L 521.7409999999994,268.92199999999997 L 521.5749999999994,269.42999999999995 L 521.2039999999994,270.037 L 521.0189999999994,270.48999999999995 L 520.5869999999994,271.89699999999993 L 520.3729999999994,272.17499999999995 L 520.1099999999993,272.388 L 519.8169999999993,272.191 L 519.5479999999993,272.08399999999995 L 519.2199999999993,272.0969999999999 L 518.7059999999993,272.2589999999999 L 517.9329999999993,272.1509999999999 L 517.1779999999993,272.2029999999999 L 516.9869999999993,272.3419999999999 L 517.1019999999993,272.84899999999993 L 516.8229999999993,272.9149999999999 L 516.5509999999992,272.7709999999999 L 516.3109999999992,272.9429999999999 L 516.1109999999992,273.1309999999999 L 515.7179999999992,273.57699999999994 L 515.5859999999992,273.85099999999994 L 515.5519999999992,274.36599999999993 L 515.7589999999992,274.82699999999994 L 515.9419999999992,275.36599999999993 L 515.4709999999992,276.0129999999999 L 515.2079999999992,276.0349999999999 L 514.4399999999991,275.8549999999999 L 513.0789999999992,276.2599999999999 L 511.8569999999992,275.9399999999999 L 512.0099999999992,275.5929999999999 L 512.0049999999992,275.3379999999999 L 512.0739999999992,274.94499999999994 L 512.1149999999992,274.5419999999999 L 512.1039999999992,274.27199999999993 L 512.0139999999992,273.98299999999995 L 511.7129999999992,273.60499999999996 L 511.03399999999925,272.32399999999996 L 510.83299999999923,271.78099999999995 L 510.69299999999924,271.554 L 510.79399999999924,271.542 L 511.35399999999925,271.83399999999995 L 511.48399999999924,271.79799999999994 L 511.62099999999924,271.68899999999996 L 511.45399999999927,271.27 L 511.30999999999926,271.08099999999996 L 511.2129999999993,270.79699999999997 L 511.5399999999993,270.71999999999997 L 511.7769999999993,270.73699999999997 L 511.9509999999993,270.417 L 511.8499999999993,269.89799999999997 L 511.59599999999926,269.73799999999994 L 511.3839999999993,269.66799999999995 L 510.9769999999993,268.84799999999996 L 510.5529999999993,268.42199999999997 L 509.7959999999993,266.77099999999996 L 509.5189999999993,265.62899999999996 L 509.2619999999993,265.73799999999994 L 509.1369999999993,265.2389999999999 L 509.04699999999934,264.7639999999999 L 509.02899999999937,264.4149999999999 L 508.6249999999994,264.2149999999999 L 508.60899999999936,263.96899999999994 L 508.5359999999994,262.8689999999999 L 508.1029999999994,262.7209999999999 L 507.8229999999994,262.1009999999999 L 507.7729999999994,260.9219999999999 L 507.4879999999994,260.70699999999994 L 507.2589999999994,260.76699999999994 L 507.2699999999994,260.47399999999993 L 507.3249999999994,260.1979999999999 L 507.1909999999994,259.0999999999999 L 507.1459999999994,258.0929999999999 L 507.0379999999994,257.7869999999999 L 506.9759999999994,257.4289999999999 L 507.0309999999994,257.1189999999999 L 507.1129999999994,256.93999999999994 L 507.39199999999937,256.8929999999999 L 507.6529999999994,257.1669999999999 L 507.8839999999994,257.8569999999999 L 508.0879999999994,257.9469999999999 L 508.3659999999994,257.7669999999999 L 508.5609999999994,257.2639999999999 L 508.6719999999994,256.5069999999999 L 508.8019999999994,255.7819999999999 L 508.6479999999994,255.0039999999999 L 508.4839999999994,254.3179999999999 L 508.4719999999994,254.1159999999999 L 508.9029999999994,253.5339999999999 L 509.0349999999994,253.05999999999992 L 509.1779999999994,252.6069999999999 L 509.3359999999994,252.45299999999992 L 509.56999999999937,252.41799999999992 L 509.8429999999994,252.3329999999999 L 510.1869999999994,252.0289999999999 L 510.4959999999994,251.62099999999992 L 510.7319999999994,251.24599999999992 L 510.8119999999994,250.50199999999992 L 510.8149999999994,250.12699999999992 L 510.91899999999936,249.84799999999993 L 511.0189999999994,249.30199999999994 L 510.92099999999937,248.76199999999994 L 510.61599999999936,247.93999999999994 L 510.24899999999934,246.77699999999993 L 510.1919999999993,246.13899999999992 L 510.3589999999993,246.01999999999992 L 510.6779999999993,245.91399999999993 L 511.28299999999933,245.88299999999992 L 511.34699999999935,245.80799999999994 L 511.40799999999933,245.52699999999993 L 511.54499999999933,245.14599999999993 L 511.6899999999993,244.86799999999994 L 511.78999999999934,244.46899999999994 L 511.83799999999934,244.10699999999994 L 511.49199999999934,243.55999999999995 L 511.03899999999936,242.99799999999993 L 510.73199999999935,242.81099999999992 L 510.18599999999935,242.33699999999993 L 509.80199999999934,241.93999999999994 L 510.02199999999937,240.41899999999995 L 510.18599999999935,239.27799999999996 L 510.21199999999936,238.99999999999997 L 510.21799999999934,238.56799999999998 L 509.68799999999936,236.713 L 509.7089999999994,236.298 L 509.7589999999994,235.923 L 509.7019999999994,235.282 L 509.67099999999937,234.70700000000002 L 509.7619999999994,234.532 L 509.9779999999994,234.20600000000002 L 509.7709999999994,233.70000000000002 L 509.7539999999994,233.65800000000002 L 509.3639999999994,232.4 L 509.9599999999994,231.145 L 509.8559999999994,230.49200000000002 L 510.21099999999944,230.01700000000002 L 510.85899999999947,228.925 L 511.22299999999944,228.30700000000002 L 511.29999999999944,228.199 L 511.58799999999945,227.92700000000002 L 512.1349999999994,227.604 L 512.7409999999994,227.44600000000003 L 513.0109999999994,227.44800000000004 L 514.0529999999994,227.66700000000003 L 514.8659999999994,227.83700000000002 L 514.9849999999994,227.66600000000003 L 515.1549999999994,227.31500000000003 L 515.3739999999995,226.81400000000002 L 515.3929999999995,226.25500000000002 L 515.3139999999995,225.431 L 515.1949999999995,224.936 L 514.6229999999995,224.613 L 513.9959999999995,224.17 L 514.7669999999995,222.759 L 515.3009999999995,221.773 L 515.9669999999995,220.28 L 516.1739999999995,219.655 L 516.3239999999995,219.406 L 516.5199999999995,217.076 L 516.6499999999995,216.41899999999998 L 516.7589999999996,216.07399999999998 L 516.7599999999995,215.71999999999997 L 516.6889999999995,215.12099999999998 L 516.5019999999995,213.76099999999997 L 517.5539999999995,213.59199999999996 L 517.8959999999995,213.49599999999995 L 518.2139999999995,213.33299999999994 L 518.8359999999994,212.90899999999993 L 519.1409999999994,212.53299999999993 L 518.9709999999994,211.24499999999992 L 519.3469999999994,210.80699999999993 L 520.2649999999994,209.27299999999994 L 521.2569999999994,207.79199999999994 L 521.7219999999994,207.22799999999995 L 521.7699999999994,206.95199999999994 L 521.8079999999994,206.50699999999995 L 521.6009999999994,205.80499999999995 L 521.3789999999995,205.36899999999994 L 520.9459999999995,204.53999999999994 L 521.1319999999995,203.95899999999995 L 521.4509999999995,203.84599999999995 L 521.8719999999995,203.61699999999993 L 522.2009999999995,203.11799999999994 L 522.2329999999995,203.05399999999995 L 522.7889999999995,201.07799999999995 L 523.8739999999996,200.06799999999996 L 524.3069999999996,199.51499999999996 L 524.9809999999995,199.93099999999995 L 525.9689999999996,200.55699999999996 L 526.4079999999996,199.63599999999997 L 526.5529999999995,199.29299999999998 L 526.6979999999995,198.78699999999998 L 526.6399999999995,197.90699999999998 L 526.6149999999996,196.75799999999998 L 526.6589999999995,196.29399999999998 L 527.0529999999995,196.087 L 527.2649999999995,196.034 L 528.3629999999995,196.512 L 528.6389999999994,196.504 L 529.1569999999995,196.56799999999998 L 529.7359999999994,196.777 L 530.9489999999994,197.333 L 531.4499999999994,197.562 L 531.7299999999993,197.60600000000002 L 531.9719999999993,197.348 L 532.4889999999994,196.68300000000002 L 531.7279999999994,196.18900000000002 L 532.2289999999994,195.68800000000002 L 532.4889999999994,195.181 L 532.7119999999993,194.556 L 532.7929999999993,193.822 L 532.7619999999994,193.42600000000002 L 532.6079999999994,193.15500000000003 L 532.1429999999993,192.47900000000004 L 533.1959999999993,192.38200000000003 L 533.5609999999994,192.35400000000004 L 534.3269999999993,192.80000000000004 L 534.3609999999993,192.89700000000005 L 534.3659999999993,193.12900000000005 L 534.3929999999993,193.36900000000006 L 535.1359999999994,193.97600000000006 L 535.3499999999995,194.29700000000005 L 535.8069999999994,194.78300000000004 L 535.9279999999994,195.04500000000004 L 536.3509999999994,195.35100000000006 L 536.6539999999994,195.67800000000005 L 537.0079999999995,195.94200000000006 L 537.4209999999995,196.35200000000006 L 537.9759999999994,196.67800000000005 L 538.4439999999994,196.78400000000005 L 539.6239999999993,197.34100000000004 L 539.8249999999994,197.52100000000004 L 540.1649999999994,197.90800000000004 L 540.5089999999994,198.35400000000004 L 540.7469999999995,199.26800000000003 L 541.1279999999995,199.31500000000003 L 541.2319999999995,199.62800000000001 L 541.5649999999995,200.163 L 542.0269999999995,200.63400000000001 L 542.0099999999994,200.792 L 541.6419999999994,201.224 L 541.6019999999994,201.808 L 541.6369999999994,202.551 L 541.7529999999994,203.155 L 541.7409999999994,203.331 L 541.6499999999994,203.539 L 541.5409999999994,203.86399999999998 L 541.5009999999994,204.14699999999996 L 541.5109999999994,204.28499999999997 L 541.5479999999994,204.36099999999996 L 541.7419999999994,204.36699999999996 L 542.0889999999994,204.43399999999997 L 542.2929999999993,204.55899999999997 L 542.4089999999993,205.24599999999998 L 542.3699999999993,205.378 L 542.0779999999993,205.688 L 541.9919999999993,205.934 L 541.9839999999992,206.294 L 542.0359999999993,206.69 L 542.1369999999993,207.131 L 542.3659999999993,207.602 L 542.6759999999992,208.09300000000002 L 542.8799999999992,208.495 L 542.9759999999992,208.77700000000002 L 543.0109999999992,208.97500000000002 L 542.8719999999992,209.223 L 542.7469999999992,209.71200000000002 L 542.7239999999991,210.27 L 542.6669999999991,210.633 L 542.3949999999991,211.132 L 542.2059999999991,211.308 L 542.1519999999991,211.57 L 542.1289999999991,212.009 L 542.1849999999991,212.54299999999998 L 542.2039999999992,212.903 L 542.2619999999991,213.16199999999998 L 542.3479999999992,213.331 L 542.7849999999992,213.628 L 543.0299999999992,214.236 L 543.1829999999992,214.72299999999998 L 543.492,215.986 M 527.887,254.782 L 527.8169999999999,254.965 L 527.7459999999999,254.741 L 527.7739999999999,254.697 L 527.8219999999999,254.476 L 527.9579999999999,254.355 L 528.1749999999998,254.428 L 528.1739999999999,254.483 L 527.9659999999999,254.662 L 527.887,254.782 M 527.384,257.2 L 527.259,257.252 L 527.197,257.236 L 527.274,256.983 L 527.331,256.874 L 527.52,256.77200000000005 L 527.578,256.79 L 527.384,257.2 M 529.462,263.128 L 529.411,263.457 L 529.265,263.432 L 529.132,263.189 L 529.401,262.81800000000004 L 529.8119999999999,262.838 L 529.9529999999999,262.916 L 529.462,263.128 M 529.237,263.585 L 529.005,263.71 L 528.869,264.08099999999996 L 528.681,264.14399999999995 L 528.5010000000001,264.26699999999994 L 528.4370000000001,265.43299999999994 L 528.7660000000001,265.8739999999999 L 528.585,265.9359999999999 L 528.4200000000001,266.0679999999999 L 528.302,266.2629999999999 L 528.181,266.6819999999999 L 527.7280000000001,266.9189999999999 L 527.557,267.09399999999994 L 527.304,267.48299999999995 L 527.172,268.04599999999994 L 526.916,268.28599999999994 L 526.628,268.34299999999996 L 526.796,267.883 L 527.017,267.507 L 526.8050000000001,267.248 L 526.677,266.843 L 526.511,266.531 L 526.6429999999999,266.182 L 526.5779999999999,265.61 L 526.5989999999998,265.04900000000004 L 526.7909999999998,264.766 L 527.0109999999999,264.535 L 527.3529999999998,264.002 L 527.7239999999998,263.61400000000003 L 528.2419999999998,263.44000000000005 L 528.4759999999999,263.60100000000006 L 528.5769999999999,263.24800000000005 L 528.7439999999999,263.16700000000003 L 528.901,263.249 L 529.237,263.585 M 522.087,271.548 L 521.942,271.802 L 521.814,271.78400000000005 L 521.7289999999999,271.44500000000005 L 521.709,270.571 L 521.76,270.137 L 522.372,268.565 L 522.645,268.436 L 523.029,267.46599999999995 L 523.133,267.0319999999999 L 523.3000000000001,266.6409999999999 L 523.398,266.2899999999999 L 523.481,266.1479999999999 L 523.66,266.2139999999999 L 523.74,266.2789999999999 L 523.551,266.4829999999999 L 523.5730000000001,266.7479999999999 L 523.5600000000001,266.85699999999986 L 523.0830000000001,268.00599999999986 L 522.9560000000001,268.7479999999999 L 522.7870000000001,268.92899999999986 L 522.087,271.548" id="SE" title="Sweden"/>
</svg>
