<svg xmlns="http://www.w3.org/2000/svg" xmlns:ev="http://www.w3.org/2001/xml-events" xmlns:xlink="http://www.w3.org/1999/xlink" baseProfile="full" height="5.79498291015625" version="1.1" viewBox="513.2449951171875 314.2120056152344 8.8070068359375 5.79498291015625" width="8.8070068359375" fill="#00394f">
	<defs/>
	<path class="land" d="M 522.052,315.694 L 521.804,315.595 L 521.505,315.553 L 521.449,315.607 L 521.329,315.662 L 521.268,315.76 L 521.314,316.144 L 521.242,316.21 L 520.902,316.172 L 520.79,316.216 L 520.605,316.483 L 520.416,316.596 L 520.176,316.676 L 519.998,316.772 L 519.773,316.856 L 519.582,316.907 L 519.506,317.023 L 519.46,317.152 L 519.472,317.276 L 519.667,317.521 L 519.693,317.782 L 519.672,318.101 L 519.627,318.271 L 519.55,318.384 L 519.071,318.53 L 518.574,318.791 L 518.563,318.851 L 518.79,319.082 L 518.799,319.14 L 518.611,319.271 L 518.593,319.403 L 518.614,319.555 L 518.714,319.712 L 518.75,319.853 L 518.477,319.955 L 518.107,319.917 L 517.669,319.722 L 517.516,319.75 L 517.368,319.852 L 517.216,319.808 L 517.049,319.687 L 516.813,319.436 L 516.698,319.281 L 516.651,319.117 L 516.587,319.093 L 516.489,319.141 L 516.408,319.341 L 516.19,319.698 L 516.028,319.795 L 515.785,319.774 L 515.443,319.78 L 515.23,319.81 L 514.97,319.684 L 514.907,319.708 L 514.907,319.791 L 514.81,319.921 L 514.65,320.007 L 513.911,319.814 L 513.806,319.654 L 513.973,319.578 L 514.204,319.371 L 514.361,319.394 L 514.555,319.35 L 514.639,319.262 L 514.517,319.0 L 514.209,318.676 L 514.046,318.553 L 513.821,318.471 L 513.783,318.384 L 513.907,317.871 L 513.869,317.798 L 513.613,317.822 L 513.553,317.769 L 513.532,317.68 L 513.549,317.558 L 513.722,317.357 L 513.914,317.18 L 513.966,317.081 L 513.959,317.002 L 513.712,316.924 L 513.564,316.843 L 513.446,316.815 L 513.365,316.86 L 513.306,316.809 L 513.245,316.661 L 513.305,316.434 L 513.527,316.225 L 513.765,316.039 L 513.972,315.903 L 514.091,315.845 L 514.148,315.611 L 514.272,315.636 L 514.517,315.648 L 514.791,315.701 L 515.045,315.767 L 515.27,315.849 L 515.74,315.935 L 516.169,315.987 L 516.298,316.035 L 516.403,316.031 L 516.534,316.101 L 516.61,316.047 L 516.666,315.954 L 516.899,315.842 L 517.114,315.697 L 517.265,315.513 L 517.35,315.367 L 517.498,315.263 L 517.655,315.233 L 517.799,315.181 L 518.406,315.112 L 519.03,315.167 L 519.327,315.064 L 519.572,314.886 L 519.931,314.836 L 519.949,314.833 L 520.484,314.971 L 520.525,314.891 L 520.548,314.855 L 520.538,314.466 L 520.708,314.288 L 520.864,314.212 L 521.399,314.237 L 521.469,314.357 L 521.497,314.543 L 521.545,314.792 L 521.634,314.86 L 521.683,314.958 L 521.673,315.13 L 521.778,315.258 L 522.022,315.604 L 522.052,315.694" id="SI" title="Slovenia"/>
</svg>
