<svg xmlns="http://www.w3.org/2000/svg" xmlns:ev="http://www.w3.org/2001/xml-events" xmlns:xlink="http://www.w3.org/1999/xlink" baseProfile="full" height="113.58599853515625" version="1.1" viewBox="450.1629943847656 64.07499694824219 119.91500854492188 113.58599853515625" width="119.91500854492188">
	<defs/>
	<path class="land" d="M 450.571,177.606 L 450.312,177.661 L 450.163,177.471 L 450.54,176.949 L 451.786,175.96200000000002 L 452.283,175.01500000000001 L 453.243,174.68800000000002 L 453.306,175.216 L 453.241,175.87 L 452.39799999999997,176.388 L 451.46299999999997,176.738 L 450.571,177.606 M 529.638,144.149 L 529.299,144.553 L 528.7909999999999,143.944 L 528.454,143.159 L 528.6329999999999,142.85999999999999 L 529.536,142.82 L 529.757,143.22899999999998 L 529.794,143.462 L 529.638,144.149 M 536.342,93.233 L 536.728,93.568 L 537.563,93.499 L 538.024,95.88 L 538.283,98.36699999999999 L 538.703,98.54499999999999 L 539.504,98.20499999999998 L 540.2180000000001,98.03899999999999 L 540.5840000000001,98.22299999999998 L 541.2360000000001,98.94199999999998 L 541.517,99.44599999999998 L 541.272,99.84099999999998 L 540.6750000000001,100.28199999999998 L 540.576,101.58999999999999 L 541.177,102.04299999999999 L 542.169,103.148 L 542.728,103.291 L 543.7249999999999,102.839 L 544.661,103.695 L 545.588,104.728 L 543.4209999999999,106.024 L 543.2309999999999,106.386 L 542.9309999999999,107.338 L 542.612,108.11699999999999 L 542.317,108.57499999999999 L 541.669,109.35999999999999 L 541.3199999999999,109.63099999999999 L 540.536,109.57099999999998 L 540.242,109.88199999999999 L 539.9699999999999,110.51499999999999 L 539.6959999999999,110.96899999999998 L 538.9999999999999,111.08499999999998 L 538.6449999999999,110.45699999999998 L 538.7619999999998,110.26299999999998 L 538.8119999999998,109.89099999999998 L 538.6879999999998,109.00099999999998 L 539.3519999999997,108.08599999999997 L 539.5019999999997,107.57699999999997 L 539.3699999999998,107.39299999999997 L 539.1869999999998,107.44299999999997 L 538.7039999999998,107.16299999999997 L 538.5609999999998,107.17699999999996 L 538.1609999999998,107.71299999999997 L 537.6059999999999,108.07299999999996 L 537.0429999999999,108.16399999999996 L 534.7799999999999,108.85199999999996 L 534.4379999999999,108.61099999999996 L 534.2839999999999,107.23999999999997 L 535.2039999999998,106.53199999999997 L 535.3449999999998,105.33099999999997 L 535.5769999999998,104.52699999999997 L 535.8479999999997,103.99199999999998 L 536.3459999999998,102.60499999999998 L 536.4709999999998,102.50499999999998 L 535.2289999999998,101.39799999999998 L 534.7379999999998,100.67599999999999 L 534.2029999999999,99.22299999999998 L 534.0389999999999,98.03799999999998 L 533.3139999999999,97.02299999999998 L 533.4029999999999,95.71699999999998 L 532.877,95.81999999999998 L 532.471,94.89799999999998 L 532.849,94.37799999999999 L 534.769,93.78599999999999 L 535.914,93.207 L 536.342,93.233 M 551.127,92.476 L 550.7149999999999,92.511 L 549.958,91.45599999999999 L 549.812,90.53399999999999 L 549.947,90.15599999999999 L 550.312,90.142 L 550.881,91.402 L 551.495,91.781 L 551.127,92.476 M 507.273,93.02 L 507.305,93.997 L 507.762,93.9 L 508.301,94.936 L 508.889,95.483 L 509.055,95.857 L 509.18,96.337 L 509.536,97.299 L 509.705,98.307 L 509.28,98.413 L 508.695,96.975 L 508.217,96.152 L 507.616,95.446 L 507.13,95.411 L 506.911,95.102 L 506.123,92.536 L 505.978,91.93900000000001 L 505.528,90.974 L 505.329,89.766 L 505.33,88.81500000000001 L 505.93199999999996,89.04 L 506.46,89.637 L 506.918,90.981 L 507.0,91.396 L 506.791,91.946 L 507.006,92.595 L 507.273,93.02 M 557.22,88.681 L 558.057,88.773 L 558.898,88.542 L 559.043,88.789 L 557.96,89.555 L 556.754,89.14800000000001 L 555.669,89.04400000000001 L 554.388,89.89300000000001 L 553.97,89.55400000000002 L 554.621,88.73500000000001 L 555.331,88.46300000000001 L 555.445,87.96100000000001 L 555.716,87.87500000000001 L 556.654,87.82300000000001 L 557.22,88.681 M 522.811,73.484 L 522.957,73.51599999999999 L 523.099,73.34599999999999 L 523.202,72.89599999999999 L 523.316,72.64699999999999 L 524.0260000000001,72.939 L 525.033,73.83699999999999 L 525.332,74.27799999999999 L 525.752,75.18299999999999 L 526.093,76.69399999999999 L 525.822,77.77699999999999 L 525.465,78.79599999999999 L 525.339,79.356 L 525.469,80.157 L 525.416,80.93299999999999 L 525.2860000000001,81.61699999999999 L 525.826,80.83699999999999 L 526.98,78.31499999999998 L 527.152,78.15799999999999 L 527.332,78.24399999999999 L 527.849,78.76499999999999 L 528.3180000000001,80.05299999999998 L 528.421,80.47699999999999 L 528.505,80.996 L 528.553,81.636 L 528.527,82.366 L 528.484,82.873 L 528.239,83.2 L 528.12,83.498 L 528.385,83.52000000000001 L 528.688,83.91000000000001 L 528.965,84.736 L 529.275,85.06700000000001 L 530.4,84.78800000000001 L 531.131,85.21900000000001 L 531.5319999999999,86.56400000000001 L 532.15,86.26100000000001 L 532.1519999999999,85.54400000000001 L 532.2879999999999,85.236 L 533.1169999999998,85.48100000000001 L 533.5459999999998,85.816 L 533.9839999999998,86.52 L 533.2359999999998,87.666 L 533.8529999999997,88.758 L 534.8889999999997,89.545 L 535.5139999999997,90.367 L 535.6269999999997,90.71000000000001 L 535.7289999999997,91.165 L 535.3219999999997,91.753 L 534.9079999999997,92.084 L 533.8649999999997,92.141 L 532.9169999999997,92.555 L 531.1819999999997,92.84800000000001 L 530.9239999999996,93.03500000000001 L 530.8629999999996,93.20200000000001 L 530.7609999999996,93.70800000000001 L 530.0939999999996,94.86900000000001 L 529.4479999999996,96.27300000000001 L 529.1809999999996,97.11300000000001 L 528.9799999999996,98.28200000000001 L 528.9059999999996,98.99300000000001 L 529.0499999999996,99.67900000000002 L 529.0119999999996,100.37000000000002 L 528.5259999999996,100.91000000000003 L 528.2179999999996,100.93100000000003 L 527.8319999999997,100.82500000000003 L 527.4519999999997,101.13500000000003 L 527.4279999999997,101.60000000000004 L 527.4499999999997,102.25300000000004 L 527.3529999999997,104.23000000000005 L 527.2349999999997,105.70500000000004 L 527.0579999999997,107.06400000000004 L 526.8589999999997,107.79200000000003 L 526.6049999999997,107.99400000000003 L 525.7899999999996,108.12700000000002 L 525.1619999999996,109.38400000000003 L 524.6549999999996,111.60800000000003 L 524.3909999999996,112.47300000000003 L 523.8409999999997,113.83000000000003 L 523.9409999999997,114.30900000000003 L 524.1119999999997,114.82600000000002 L 523.8119999999998,115.74700000000003 L 523.3479999999997,116.77500000000003 L 523.3569999999997,117.17100000000003 L 523.5129999999997,117.89300000000003 L 523.5889999999997,118.64100000000003 L 523.2309999999998,119.28200000000004 L 522.5729999999998,119.60700000000004 L 521.9029999999998,119.24300000000004 L 521.5769999999998,118.81300000000003 L 521.2749999999997,118.12300000000003 L 520.9539999999997,117.67100000000003 L 520.6199999999998,117.39900000000003 L 519.3349999999998,115.85300000000002 L 518.1489999999998,113.37800000000003 L 517.0659999999998,112.40500000000003 L 516.3599999999998,111.94200000000004 L 516.0199999999998,111.49200000000003 L 515.6879999999998,110.88600000000004 L 515.4009999999997,110.20200000000004 L 515.1339999999997,109.33500000000004 L 515.0049999999997,108.79400000000004 L 514.9809999999997,107.97900000000004 L 515.0659999999997,107.49900000000004 L 515.1929999999996,107.25200000000004 L 516.0529999999997,107.04900000000004 L 516.3619999999996,107.16400000000003 L 516.6659999999996,107.59200000000003 L 516.9429999999996,107.76000000000003 L 517.5769999999997,105.61900000000003 L 521.1839999999996,104.38200000000003 L 522.3429999999996,104.16700000000003 L 523.5059999999996,104.18000000000004 L 523.3249999999996,103.59200000000004 L 523.1709999999996,102.84400000000004 L 522.9999999999995,102.66200000000003 L 522.1209999999995,103.08200000000004 L 520.7749999999995,103.52300000000004 L 520.1189999999996,103.52300000000004 L 519.4419999999996,103.22900000000004 L 518.7669999999996,103.39100000000005 L 518.0709999999996,104.03000000000004 L 517.3689999999996,104.43300000000005 L 516.6869999999996,104.59500000000006 L 515.2449999999995,104.53000000000006 L 514.8879999999996,104.20000000000006 L 514.4069999999996,103.43400000000005 L 514.2899999999996,103.04000000000005 L 514.1899999999996,102.55600000000005 L 514.0959999999995,101.09300000000006 L 514.1999999999996,100.69300000000005 L 514.3469999999996,100.46300000000005 L 514.4979999999996,100.32100000000005 L 514.8149999999996,100.31400000000005 L 515.1259999999996,100.56800000000005 L 515.8539999999996,101.40400000000005 L 515.6879999999995,100.50700000000005 L 517.7829999999996,99.42000000000004 L 518.7559999999995,98.46400000000004 L 519.2559999999995,98.30300000000004 L 519.7569999999995,98.37300000000003 L 519.6469999999995,97.86200000000004 L 519.6429999999995,97.38700000000004 L 519.9989999999995,96.99900000000004 L 520.2549999999994,96.83200000000004 L 521.0259999999994,96.64100000000003 L 522.7849999999994,96.67400000000004 L 523.4189999999994,96.41100000000003 L 523.8939999999994,95.74500000000003 L 523.3879999999995,95.97700000000003 L 522.8809999999995,96.02100000000003 L 522.6439999999996,95.88300000000002 L 522.1069999999995,95.30000000000003 L 521.8629999999995,94.53100000000002 L 522.5589999999995,92.98500000000001 L 522.8009999999995,92.26300000000002 L 522.0929999999995,92.36700000000002 L 521.8569999999995,92.62000000000002 L 521.0459999999995,94.04300000000002 L 520.4469999999994,94.67900000000002 L 519.7079999999994,94.98400000000002 L 518.9689999999994,94.95800000000003 L 518.8079999999994,94.75700000000003 L 518.5819999999994,93.81900000000003 L 518.5109999999994,93.32400000000003 L 518.5409999999994,93.05200000000002 L 518.7749999999994,92.27000000000002 L 518.8969999999994,91.43900000000002 L 518.8759999999994,90.72000000000003 L 518.7039999999994,90.57500000000003 L 518.4309999999994,91.27900000000002 L 518.1839999999994,92.25300000000003 L 517.8449999999993,92.73900000000003 L 517.4949999999993,92.60600000000004 L 517.3459999999993,92.23300000000003 L 517.2159999999993,91.66100000000003 L 517.0789999999994,91.44000000000003 L 516.9269999999993,91.44000000000003 L 516.6139999999994,91.66900000000003 L 516.3039999999994,92.09200000000003 L 516.4109999999994,92.73200000000003 L 516.4389999999994,93.44100000000003 L 516.3049999999994,94.00200000000004 L 516.2039999999994,94.68500000000004 L 516.5229999999993,95.11400000000005 L 516.7829999999993,95.77700000000004 L 516.3929999999993,96.08800000000005 L 516.0109999999994,96.54000000000005 L 515.6599999999994,97.23500000000004 L 515.3009999999994,97.77400000000004 L 514.7319999999994,97.83100000000005 L 514.0229999999995,98.12900000000005 L 512.6059999999994,98.23400000000005 L 511.93999999999943,97.35700000000006 L 511.8179999999994,96.93900000000005 L 511.68499999999943,96.65800000000004 L 511.2429999999994,96.19500000000005 L 510.59799999999944,94.82100000000005 L 510.10099999999943,93.24300000000005 L 509.76599999999945,93.08900000000006 L 509.26999999999947,92.56500000000005 L 509.0,92.115 L 508.743,91.512 L 508.666,90.795 L 508.691,90.139 L 508.988,89.847 L 508.286,89.106 L 507.597,88.122 L 507.851,87.79 L 508.10699999999997,87.644 L 510.14899999999994,88.793 L 510.28499999999997,88.65 L 510.50899999999996,88.08000000000001 L 510.429,87.88800000000002 L 510.087,87.75600000000001 L 509.621,87.76000000000002 L 509.505,87.64200000000002 L 509.325,87.02100000000003 L 509.168,86.25400000000003 L 509.101,85.74100000000003 L 509.075,85.13800000000003 L 509.42199999999997,84.23000000000003 L 509.61199999999997,83.41200000000003 L 509.316,83.03200000000004 L 508.477,83.05500000000004 L 508.198,83.17100000000003 L 508.301,84.34600000000003 L 508.034,85.15300000000003 L 507.522,85.78000000000003 L 507.155,85.47500000000002 L 506.87199999999996,83.93100000000003 L 506.50199999999995,82.84700000000002 L 506.36299999999994,82.16000000000003 L 506.25699999999995,81.16700000000003 L 506.10699999999997,80.44000000000003 L 505.835,79.55800000000002 L 505.799,79.01200000000001 L 505.83299999999997,78.60700000000001 L 506.03999999999996,77.68500000000002 L 505.883,76.91300000000001 L 505.691,76.233 L 505.679,75.84400000000001 L 505.859,75.36300000000001 L 506.02099999999996,75.20300000000002 L 506.19499999999994,75.23800000000001 L 506.7099999999999,75.811 L 506.99299999999994,76.49400000000001 L 507.09099999999995,76.43900000000001 L 507.275,75.423 L 507.536,75.193 L 508.543,74.857 L 509.664,76.17 L 509.954,76.461 L 510.18600000000004,76.55499999999999 L 510.06600000000003,75.97399999999999 L 509.99300000000005,75.21699999999998 L 510.16400000000004,74.92999999999998 L 511.069,75.60699999999999 L 511.493,75.56599999999999 L 512.487,74.67999999999999 L 514.13,74.214 L 514.751,74.91499999999999 L 514.783,75.288 L 514.77,75.789 L 514.73,75.93900000000001 L 514.367,76.52000000000001 L 512.295,76.99300000000001 L 510.93699999999995,78.796 L 512.789,78.507 L 513.122,78.71300000000001 L 513.262,80.164 L 513.3969999999999,80.316 L 513.8729999999999,80.526 L 514.1959999999999,80.956 L 514.526,81.772 L 514.8729999999999,82.319 L 515.0759999999999,82.251 L 515.1499999999999,81.658 L 515.0669999999999,80.953 L 515.0239999999999,80.146 L 515.0479999999999,79.271 L 515.1039999999999,78.544 L 515.4929999999999,78.03 L 516.058,76.351 L 516.658,75.203 L 517.326,75.714 L 517.945,77.146 L 518.503,79.167 L 519.0440000000001,81.298 L 519.6500000000001,83.901 L 519.9420000000001,84.809 L 520.2070000000001,85.023 L 521.4310000000002,87.67 L 521.5690000000002,87.743 L 521.3160000000001,85.735 L 520.6820000000001,82.278 L 520.2540000000001,79.572 L 520.1570000000002,78.526 L 520.0880000000002,77.045 L 520.1150000000002,76.619 L 520.1700000000002,76.232 L 520.4800000000001,74.626 L 520.8860000000001,73.84 L 520.763,72.726 L 520.8670000000001,71.865 L 521.2930000000001,71.181 L 521.6890000000001,71.131 L 522.0740000000001,71.651 L 522.811,73.484 M 566.983,70.048 L 564.3209999999999,70.663 L 564.0519999999999,70.232 L 568.3659999999999,68.42399999999999 L 568.5889999999998,68.24699999999999 L 569.3899999999999,68.02099999999999 L 570.0779999999999,68.43299999999999 L 569.8739999999999,68.75099999999999 L 566.983,70.048 M 528.298,67.048 L 527.69,67.967 L 526.672,67.26 L 526.793,66.53200000000001 L 527.035,66.08800000000001 L 527.674,66.25500000000001 L 528.298,67.048 M 534.349,67.896 L 534.6310000000001,68.08 L 536.1770000000001,68.013 L 536.4730000000002,68.417 L 536.5900000000001,69.394 L 536.8260000000001,69.72800000000001 L 537.1550000000001,69.83200000000001 L 537.9760000000001,71.019 L 538.2550000000001,71.18900000000001 L 538.4980000000002,70.531 L 538.6840000000002,68.882 L 538.6940000000002,66.926 L 538.6150000000002,65.97 L 538.7070000000002,65.354 L 538.9820000000002,65.114 L 539.3280000000002,65.178 L 539.6660000000002,64.834 L 539.9580000000002,64.226 L 540.2710000000002,64.142 L 540.9540000000002,64.604 L 541.1340000000001,64.966 L 540.9510000000001,65.71199999999999 L 540.8800000000001,66.77099999999999 L 540.5710000000001,68.93699999999998 L 541.2410000000001,69.06999999999998 L 542.1800000000001,68.61399999999998 L 542.4180000000001,67.98799999999997 L 542.9230000000001,66.98799999999997 L 543.4570000000001,67.14599999999997 L 543.7130000000001,67.01299999999998 L 543.8420000000001,66.57599999999998 L 543.8910000000001,66.05499999999998 L 544.186,66.14199999999998 L 544.59,67.14499999999998 L 544.778,67.29999999999998 L 545.1220000000001,67.04199999999999 L 545.2610000000001,67.05199999999999 L 545.6010000000001,67.451 L 547.1850000000001,68.17399999999999 L 547.734,68.559 L 547.97,68.91799999999999 L 548.2090000000001,69.12899999999999 L 549.894,69.124 L 551.0840000000001,69.378 L 551.523,69.944 L 551.8910000000001,71.024 L 552.032,73.487 L 551.6990000000001,74.146 L 549.2890000000001,77.115 L 548.6850000000001,78.05799999999999 L 548.393,78.922 L 547.9,80.795 L 547.661,81.357 L 546.5329999999999,82.239 L 546.2689999999999,82.333 L 545.4209999999999,81.902 L 545.1619999999999,81.94200000000001 L 544.131,82.897 L 543.776,83.47200000000001 L 543.428,84.194 L 542.908,84.511 L 542.378,84.341 L 539.9780000000001,83.966 L 539.657,83.45899999999999 L 539.394,82.481 L 539.871,81.22099999999999 L 537.194,81.69099999999999 L 534.246,81.43599999999999 L 534.09,81.258 L 533.964,80.76899999999999 L 532.95,80.434 L 532.1880000000001,80.03099999999999 L 531.5480000000001,79.35 L 530.9150000000001,78.46199999999999 L 531.118,78.04499999999999 L 531.326,77.80099999999999 L 531.87,77.698 L 532.353,77.82199999999999 L 533.213,77.81499999999998 L 533.413,76.91199999999998 L 533.755,76.65099999999998 L 534.028,75.99999999999999 L 533.12,75.58799999999998 L 532.174,75.52599999999998 L 531.543,76.06799999999998 L 530.812,76.31299999999999 L 530.144,76.34499999999998 L 528.859,76.19199999999998 L 528.25,75.80699999999997 L 527.417,74.79699999999997 L 527.1270000000001,74.23699999999997 L 527.0150000000001,73.79599999999996 L 526.9320000000001,73.12599999999996 L 527.8840000000001,72.52199999999996 L 528.2540000000001,72.04599999999996 L 528.6180000000002,71.39299999999996 L 527.1800000000002,71.01999999999995 L 526.5780000000002,70.46899999999995 L 525.9810000000002,69.65599999999995 L 526.4650000000003,69.19599999999996 L 528.4010000000003,68.82799999999996 L 528.9140000000003,69.13599999999997 L 529.4220000000004,69.72899999999997 L 529.9850000000004,70.09299999999998 L 530.5290000000003,69.32599999999998 L 530.0170000000004,68.96199999999997 L 529.5590000000004,67.67599999999997 L 529.4620000000004,67.03299999999997 L 529.5230000000005,66.53799999999997 L 529.7630000000005,66.46399999999997 L 529.9420000000005,66.67899999999997 L 530.6180000000005,67.89499999999997 L 531.1310000000005,68.27199999999996 L 531.2750000000005,67.15199999999996 L 531.2980000000006,66.61599999999996 L 531.2040000000005,66.17199999999995 L 530.9630000000005,65.34999999999995 L 530.7470000000005,64.33399999999995 L 531.0810000000005,64.07499999999995 L 531.4120000000005,64.18699999999994 L 532.1220000000005,64.88499999999993 L 532.8380000000005,65.37399999999994 L 533.1650000000005,65.86599999999994 L 533.7750000000005,67.08599999999994 L 534.349,67.896" id="SJ" title="Svalbard and Jan Mayen"/>
</svg>
