<svg xmlns="http://www.w3.org/2000/svg" xmlns:ev="http://www.w3.org/2001/xml-events" xmlns:xlink="http://www.w3.org/1999/xlink" baseProfile="full" height="7.774993896484375" version="1.1" viewBox="523.0239868164062 302.7229919433594 15.92999267578125 7.774993896484375" width="15.92999267578125">
	<defs/>
	<path class="land" d="M 538.954,304.978 L 538.913,305.154 L 538.798,305.359 L 538.655,305.571 L 538.535,305.827 L 538.375,306.372 L 538.271,306.624 L 537.843,307.12 L 537.813,307.809 L 537.755,307.859 L 536.788,308.092 L 536.661,308.057 L 536.529,307.923 L 536.456,307.825 L 536.411,307.754 L 536.327,307.563 L 536.216,307.428 L 536.052,307.317 L 535.902,307.189 L 535.709,307.184 L 535.187,307.365 L 534.825,307.385 L 534.583,307.327 L 534.261,307.217 L 533.634,307.2 L 533.205,307.296 L 533.162,307.431 L 532.766,308.271 L 532.19,308.581 L 531.69,308.897 L 531.545,308.961 L 531.296,308.861 L 531.013,308.674 L 530.778,308.576 L 530.606,308.619 L 530.419,308.832 L 530.333,309.047 L 529.767,309.205 L 528.782,309.298 L 528.438,309.51 L 528.321,309.764 L 528.316,309.959 L 528.4,310.125 L 528.295,310.318 L 528.249,310.399 L 527.553,310.441 L 526.625,310.498 L 526.07,310.483 L 525.548,310.47 L 525.193,310.304 L 524.759,309.98 L 524.3,309.549 L 524.256,309.539 L 524.188,309.493 L 523.9,309.46 L 523.823,309.486 L 523.651,309.345 L 523.601,309.162 L 523.333,308.681 L 523.032,307.887 L 523.024,307.657 L 523.142,307.395 L 523.251,307.194 L 523.267,307.035 L 523.278,306.992 L 523.369,306.661 L 523.587,306.221 L 523.791,305.965 L 523.938,305.88 L 524.243,305.957 L 524.764,306.021 L 525.165,305.961 L 525.539,305.764 L 525.742,305.592 L 525.915,305.411 L 525.973,305.293 L 526.05,305.237 L 526.359,305.132 L 526.458,305.01 L 526.498,304.778 L 526.525,304.52 L 526.588,304.328 L 526.668,304.187 L 527.24,303.849 L 527.292,303.729 L 527.383,303.614 L 527.553,303.484 L 527.717,303.296 L 527.891,303.181 L 528.114,303.194 L 528.32,303.17 L 528.481,303.104 L 528.552,303.098 L 528.849,303.151 L 528.903,303.367 L 528.934,303.591 L 529.442,303.575 L 529.725,303.095 L 529.872,303.037 L 530.107,302.87 L 530.262,302.723 L 530.369,302.814 L 530.523,303.124 L 530.687,303.372 L 530.782,303.47 L 530.792,303.546 L 530.887,303.592 L 531.072,303.619 L 531.195,303.694 L 531.231,303.925 L 531.234,304.133 L 531.176,304.282 L 531.146,304.414 L 531.274,304.466 L 531.462,304.416 L 531.594,304.341 L 531.991,304.513 L 532.131,304.13 L 532.289,303.934 L 532.493,303.842 L 532.679,303.723 L 532.848,303.638 L 532.965,303.643 L 533.016,303.607 L 533.161,303.617 L 533.33,303.655 L 533.559,303.61 L 533.875,303.704 L 534.073,303.881 L 534.267,303.941 L 534.488,303.931 L 534.639,303.833 L 534.858,303.496 L 535.018,303.501 L 535.267,303.448 L 535.619,303.451 L 536.431,303.523 L 536.634,303.652 L 537.134,303.817 L 537.352,304.008 L 537.448,304.235 L 537.499,304.392 L 538.011,304.633 L 538.77,304.94 L 538.954,304.978" id="SK" title="Slovakia"/>
</svg>
