<svg xmlns="http://www.w3.org/2000/svg" xmlns:ev="http://www.w3.org/2001/xml-events" xmlns:xlink="http://www.w3.org/1999/xlink" baseProfile="full" height="8.718017578125" version="1.1" viewBox="438.3970031738281 434.6499938964844 8.4429931640625 8.718017578125" width="8.4429931640625">
	<defs/>
	<path class="land" d="M 446.84,438.928 L 446.83299999999997,439.015 L 446.75199999999995,439.419 L 446.626,439.765 L 446.54299999999995,439.84999999999997 L 446.1859999999999,439.941 L 446.03399999999993,440.09299999999996 L 445.90299999999996,440.585 L 445.81899999999996,440.971 L 445.69599999999997,441.036 L 445.17199999999997,441.593 L 444.82899999999995,441.80400000000003 L 444.59,441.98600000000005 L 444.363,442.22200000000004 L 444.078,442.45200000000006 L 443.772,442.84000000000003 L 443.554,443.24300000000005 L 443.405,443.36800000000005 L 443.29299999999995,443.2540000000001 L 442.77199999999993,442.8570000000001 L 442.2219999999999,442.5900000000001 L 441.05099999999993,442.1460000000001 L 440.66099999999994,442.0210000000001 L 440.67499999999995,441.86300000000006 L 440.80899999999997,441.57400000000007 L 440.59099999999995,441.23500000000007 L 440.67499999999995,440.98800000000006 L 440.59099999999995,440.98800000000006 L 440.42299999999994,441.1360000000001 L 440.0659999999999,441.0930000000001 L 439.8289999999999,440.8810000000001 L 439.6359999999999,440.8030000000001 L 439.5519999999999,440.6970000000001 L 439.4279999999999,440.1380000000001 L 439.3389999999999,439.88400000000007 L 439.1599999999999,439.7270000000001 L 438.80099999999993,439.6880000000001 L 438.6529999999999,439.3470000000001 L 438.4539999999999,439.0820000000001 L 438.4869999999999,438.9190000000001 L 438.6489999999999,438.9280000000001 L 438.7759999999999,439.04700000000014 L 438.9809999999999,439.0960000000001 L 439.2359999999999,438.80900000000014 L 439.4639999999999,438.65300000000013 L 439.5169999999999,438.5170000000001 L 439.48899999999986,438.4420000000001 L 439.3509999999999,438.5580000000001 L 438.9729999999999,438.52800000000013 L 438.8789999999999,438.6320000000001 L 438.7099999999999,438.66500000000013 L 438.57899999999995,438.33000000000015 L 438.5849999999999,438.1320000000002 L 438.6389999999999,437.9150000000002 L 439.01999999999987,437.8770000000002 L 439.0529999999999,437.8070000000002 L 438.7879999999999,437.76000000000016 L 438.4569999999999,437.5070000000002 L 438.3969999999999,437.33200000000016 L 438.56099999999986,437.27300000000014 L 438.71799999999985,437.29900000000015 L 438.85399999999987,437.33700000000016 L 439.0019999999999,437.27400000000017 L 439.1399999999999,437.17800000000017 L 439.2229999999999,437.0550000000002 L 439.3349999999999,436.72600000000017 L 439.6929999999999,436.61600000000016 L 439.90399999999994,436.41400000000016 L 440.10499999999996,436.10100000000017 L 440.19699999999995,435.88100000000014 L 440.28,435.77100000000013 L 440.332,435.6760000000001 L 440.371,435.5720000000001 L 440.46099999999996,435.4760000000001 L 440.55499999999995,435.2430000000001 L 440.61899999999997,435.0310000000001 L 440.825,434.92900000000014 L 441.247,434.83900000000017 L 441.627,434.99300000000017 L 442.243,434.85900000000015 L 442.276,434.66000000000014 L 442.84000000000003,434.65700000000015 L 443.50800000000004,434.65300000000013 L 444.064,434.65000000000015 L 444.255,434.70300000000015 L 444.324,434.85100000000017 L 444.507,435.0830000000002 L 444.698,435.2440000000002 L 444.935,435.5970000000002 L 445.211,436.0080000000002 L 445.509,436.3790000000002 L 445.7,436.5800000000002 L 445.722,436.6500000000002 L 445.70799999999997,436.7300000000002 L 445.61299999999994,436.9180000000002 L 445.5319999999999,437.1220000000002 L 445.5399999999999,437.1990000000002 L 445.5969999999999,437.2370000000002 L 445.90899999999993,437.3000000000002 L 445.93699999999995,437.52700000000016 L 445.93699999999995,437.8410000000002 L 446.08799999999997,438.1340000000002 L 446.23199999999997,438.34900000000016 L 446.22499999999997,438.42600000000016 L 445.873,438.7930000000002 L 445.736,439.1580000000002 L 445.666,439.2610000000002 L 445.638,439.3430000000002 L 445.70799999999997,439.3820000000002 L 445.80499999999995,439.3580000000002 L 445.941,439.38800000000015 L 446.07099999999997,439.39900000000017 L 446.243,439.2680000000002 L 446.53,438.9330000000002 L 446.626,438.8920000000002 L 446.84,438.928 M 440.545,441.881 L 440.504,441.95399999999995 L 440.317,441.77299999999997 L 439.35,441.50199999999995 L 439.62300000000005,441.35799999999995 L 440.29400000000004,441.31499999999994 L 440.494,441.39899999999994 L 440.583,441.46899999999994 L 440.61600000000004,441.6019999999999 L 440.545,441.881" id="SL" title="Sierra Leone"/>
</svg>
