<svg xmlns="http://www.w3.org/2000/svg" xmlns:ev="http://www.w3.org/2001/xml-events" xmlns:xlink="http://www.w3.org/1999/xlink" baseProfile="full" height="12.537017822265625" version="1.1" viewBox="426.4859924316406 415.4949951171875 17.269012451171875 12.537017822265625" width="17.269012451171875">
	<defs/>
	<path class="land" d="M 441.234,420.914 L 441.498,421.377 L 441.441,421.6 L 441.381,421.924 L 441.53,422.16 L 441.705,422.313 L 441.83,422.455 L 441.968,422.649 L 441.99,423.037 L 441.965,423.316 L 442.055,423.442 L 442.131,423.602 L 442.116,423.734 L 442.066,423.852 L 441.898,424.008 L 441.87,424.297 L 442.142,424.647 L 442.317,424.838 L 442.316,424.947 L 442.365,425.067 L 442.494,425.207 L 442.574,425.174 L 442.661,425.06 L 442.7,424.981 L 442.936,425.016 L 443.046,425.052 L 443.197,425.281 L 443.252,425.433 L 443.288,425.624 L 443.445,425.862 L 443.582,426.03 L 443.61,426.135 L 443.732,426.277 L 443.657,426.592 L 443.665,426.753 L 443.582,427.176 L 443.563,427.376 L 443.569,427.449 L 443.755,427.6 L 443.735,427.813 L 443.546,427.776 L 443.218,427.751 L 442.561,427.862 L 442.334,427.817 L 441.903,427.832 L 441.595,427.893 L 441.205,428.032 L 440.902,427.997 L 440.738,427.888 L 440.522,427.896 L 440.279,427.837 L 440.021,427.731 L 439.784,427.678 L 439.529,427.483 L 439.41,427.449 L 439.326,427.5 L 439.255,427.564 L 439.182,427.604 L 439.043,427.569 L 438.991,427.437 L 439.035,427.309 L 439.047,427.212 L 438.982,427.159 L 438.827,427.142 L 438.575,427.142 L 438.169,427.102 L 438.077,427.077 L 437.168,427.044 L 436.227,427.04 L 435.429,427.037 L 434.421,427.032 L 433.713,427.029 L 433.052,427.026 L 432.542,427.287 L 431.989,427.568 L 431.246,427.718 L 430.391,427.662 L 430.118,427.703 L 429.835,427.828 L 429.627,427.918 L 429.333,427.973 L 428.952,427.928 L 428.798,427.955 L 428.703,427.827 L 428.593,427.619 L 428.662,427.467 L 428.894,427.369 L 429.243,427.241 L 429.426,427.307 L 429.533,427.31 L 429.553,427.228 L 429.519,427.184 L 429.255,427.073 L 429.119,426.926 L 429.006,427.012 L 428.908,427.192 L 428.827,427.246 L 428.708,427.296 L 428.641,427.174 L 428.611,427.055 L 428.666,426.962 L 428.638,426.445 L 428.67,426.169 L 428.653,425.928 L 428.818,425.769 L 428.975,425.67 L 429.586,425.661 L 430.155,425.652 L 430.703,425.658 L 431.261,425.663 L 431.316,425.18 L 431.493,425.142 L 431.757,425.092 L 432.25,425.033 L 432.799,424.977 L 432.916,424.882 L 433.007,424.722 L 433.064,424.578 L 433.178,424.517 L 433.332,424.565 L 433.533,424.641 L 433.742,424.757 L 433.981,424.865 L 434.14,424.934 L 434.523,425.104 L 435.178,425.341 L 435.716,425.436 L 436.367,425.262 L 436.837,425.151 L 436.895,424.943 L 436.822,424.74 L 436.472,424.554 L 435.996,424.575 L 435.85,424.625 L 435.628,424.687 L 435.495,424.711 L 435.271,424.668 L 434.986,424.507 L 434.807,424.345 L 434.556,424.27 L 434.259,424.193 L 433.782,423.86 L 433.534,423.8 L 433.298,423.783 L 432.846,423.849 L 432.404,424.027 L 432.172,424.431 L 431.73,424.425 L 430.791,424.413 L 429.929,424.401 L 429.218,424.428 L 429.146,424.135 L 428.978,423.901 L 428.704,423.702 L 428.644,423.516 L 428.736,423.354 L 429.001,423.222 L 429.061,423.126 L 428.922,423.141 L 428.713,423.227 L 428.574,423.231 L 428.557,422.975 L 428.325,422.644 L 428.063,422.083 L 427.767,421.854 L 427.518,421.399 L 427.258,421.225 L 427.019,421.144 L 426.815,421.16 L 426.74,421.368 L 426.486,421.069 L 426.833,420.962 L 427.576,420.587 L 428.429,419.513 L 429.194,418.238 L 429.293,417.937 L 429.387,417.708 L 429.448,417.186 L 429.558,416.875 L 429.661,416.815 L 429.791,416.576 L 429.947,416.157 L 430.125,415.924 L 430.323,415.878 L 430.478,415.899 L 430.588,415.985 L 430.911,416.039 L 431.446,416.059 L 431.86,415.996 L 432.152,415.851 L 432.536,415.777 L 433.011,415.775 L 433.262,415.714 L 433.286,415.594 L 433.348,415.558 L 433.447,415.605 L 433.541,415.586 L 433.628,415.5 L 433.716,415.495 L 433.803,415.569 L 434.201,415.591 L 434.911,415.562 L 435.566,415.782 L 436.168,416.251 L 436.479,416.564 L 436.498,416.721 L 436.598,416.879 L 436.778,417.038 L 436.942,417.067 L 437.092,416.967 L 437.209,416.978 L 437.293,417.1 L 437.465,417.125 L 437.656,417.05 L 437.792,417.076 L 437.817,417.148 L 437.849,417.187 L 437.941,417.204 L 438.065,417.296 L 438.24,417.545 L 438.382,417.892 L 438.491,418.337 L 438.636,418.579 L 438.815,418.618 L 438.92,418.709 L 438.94,418.815 L 438.993,418.887 L 439.079,418.927 L 439.231,418.903 L 439.409,419.053 L 439.601,419.379 L 439.631,419.525 L 439.601,419.604 L 439.612,419.662 L 439.74,419.717 L 439.86,419.823 L 439.958,419.983 L 440.17,420.125 L 440.496,420.25 L 440.731,420.436 L 440.875,420.683 L 441.173,420.891 L 441.234,420.914" id="SN" title="Senegal"/>
</svg>
