<svg xmlns="http://www.w3.org/2000/svg" xmlns:ev="http://www.w3.org/2001/xml-events" xmlns:xlink="http://www.w3.org/1999/xlink" baseProfile="full" height="38.38299560546875" version="1.1" viewBox="590.666015625 429.0140075683594 29.260009765625 38.38299560546875" width="29.260009765625">
	<defs/>
	<path class="land" d="M 592.261,467.397 L 592.274,467.168 L 592.23,467.054 L 591.964,466.711 L 591.467,466.073 L 591.091,465.59 L 590.706,465.097 L 590.704,464.702 L 590.7,463.527 L 590.69,461.178 L 590.682,458.828 L 590.672,456.478 L 590.667,455.302 L 590.666,454.821 L 590.706,454.743 L 591.145,454.312 L 591.725,453.74 L 592.487,452.655 L 592.901,452.064 L 593.247,451.573 L 593.334,451.423 L 593.64,451.125 L 594.213,450.947 L 594.569,450.917 L 595.794,450.694 L 595.976,450.604 L 596.083,450.501 L 596.185,450.266 L 596.423,449.936 L 596.731,449.708 L 597.316,449.412 L 597.889,449.161 L 598.016,449.12 L 598.706,448.962 L 598.875,448.908 L 599.154,448.853 L 599.264,448.851 L 600.222,448.906 L 600.972,448.95 L 601.743,448.994 L 601.825,448.96 L 602.364,448.374 L 603.222,447.439 L 603.77,446.843 L 604.616,445.921 L 605.266,445.255 L 605.985,444.519 L 606.684,443.845 L 607.523,443.034 L 608.053,442.523 L 608.875,441.729 L 609.658,440.972 L 610.35,440.303 L 609.395,440.303 L 608.462,440.303 L 607.543,440.303 L 607.379,440.222 L 606.607,439.962 L 605.629,439.633 L 604.415,439.225 L 603.55,438.935 L 602.628,438.63 L 601.693,438.322 L 600.959,438.08 L 600.044,437.778 L 599.249,437.515 L 599.14,437.451 L 598.699,437.05 L 598.12,436.523 L 598.009,436.514 L 597.733,436.404 L 597.485,436.119 L 597.229,435.755 L 596.992,435.299 L 596.889,434.989 L 596.572,434.858 L 596.42,434.613 L 596.133,434.25 L 595.934,434.074 L 595.863,433.92 L 595.771,433.602 L 595.607,433.255 L 595.45,433.041 L 595.414,432.948 L 595.423,432.888 L 595.714,432.418 L 595.845,432.25 L 595.994,432.088 L 596.115,431.926 L 596.162,431.815 L 596.515,431.261 L 596.826,430.773 L 597.069,430.392 L 597.617,430.828 L 598.15,431.712 L 598.771,432.426 L 599.629,433.088 L 599.969,433.312 L 600.27,433.43 L 601.831,433.412 L 602.939,432.808 L 603.945,432.37 L 604.283,432.279 L 604.867,432.399 L 605.511,432.435 L 606.09,432.568 L 606.384,432.534 L 607.53,432.025 L 608.25,431.529 L 608.741,431.318 L 608.934,431.316 L 609.604,431.495 L 610.465,431.417 L 611.643,430.989 L 612.018,430.902 L 612.304,430.896 L 612.945,431.089 L 613.045,431.079 L 613.392,431.043 L 614.307,430.839 L 615.02,430.531 L 616.333,430.308 L 617.332,429.744 L 617.507,429.471 L 617.809,429.127 L 618.247,429.014 L 619.367,429.418 L 619.546,429.45 L 619.481,429.694 L 619.442,429.943 L 619.213,430.377 L 619.066,430.859 L 619.174,431.595 L 619.226,432.787 L 619.199,432.96 L 619.125,433.13 L 619.094,433.265 L 618.973,433.312 L 618.92,433.389 L 619.008,433.419 L 619.358,433.29 L 619.352,433.147 L 619.372,433.077 L 619.66,433.236 L 619.866,433.302 L 619.926,433.452 L 619.91,433.554 L 619.583,433.507 L 619.416,433.428 L 618.931,433.558 L 618.634,433.698 L 618.545,433.932 L 618.476,434.864 L 618.361,435.468 L 618.339,436.267 L 617.946,436.795 L 617.814,437.167 L 617.23,437.913 L 616.926,438.549 L 616.826,438.86 L 616.313,439.732 L 615.608,440.4 L 615.354,441.253 L 615.102,441.788 L 614.817,442.272 L 614.195,443.134 L 613.877,443.732 L 613.478,444.77 L 613.355,445.426 L 612.232,447.33 L 611.067,448.846 L 610.342,450.121 L 609.04,451.599 L 607.265,453.506 L 604.941,455.768 L 604.311,456.229 L 601.768,457.624 L 600.119,458.792 L 599.277,459.587 L 598.393,460.279 L 597.691,460.938 L 595.57,463.16 L 595.352,463.369 L 595.146,463.566 L 594.879,463.943 L 594.693,464.092 L 594.187,464.728 L 593.87,465.057 L 593.516,465.383 L 593.365,465.613 L 593.259,465.878 L 593.14,466.025 L 592.821,466.657 L 592.539,467.071 L 592.261,467.397" id="SO" title="Somalia"/>
</svg>
