<svg xmlns="http://www.w3.org/2000/svg" xmlns:ev="http://www.w3.org/2001/xml-events" xmlns:xlink="http://www.w3.org/1999/xlink" baseProfile="full" height="11.60198974609375" version="1.1" viewBox="312.77099609375 445.9320068359375 11.404998779296875 11.60198974609375" width="11.404998779296875">
	<defs/>
	<path class="land" d="M 323.711,447.709 L 323.475,447.907 L 323.218,448.189 L 322.88,448.676 L 322.895,448.829 L 322.821,448.953 L 322.803,449.171 L 322.827,449.416 L 322.914,449.576 L 322.954,449.88 L 322.887,450.154 L 322.913,450.314 L 322.981,450.566 L 323.037,450.836 L 323.031,450.944 L 323.113,451.033 L 323.189,451.119 L 323.165,451.359 L 323.432,451.787 L 323.595,451.973 L 323.833,452.155 L 323.919,452.332 L 324.053,452.546 L 324.133,452.571 L 324.176,452.657 L 324.132,452.822 L 324.123,453.051 L 323.972,453.317 L 323.622,453.804 L 323.579,453.917 L 323.67,454.321 L 323.622,454.653 L 323.601,454.812 L 323.429,455.103 L 323.021,455.806 L 322.787,455.933 L 322.645,456.136 L 322.554,456.138 L 322.452,456.157 L 322.42,456.182 L 322.292,456.18 L 322.192,456.09 L 322.176,455.984 L 322.123,455.862 L 321.997,455.825 L 321.759,455.868 L 321.69,455.837 L 321.549,455.707 L 321.432,455.564 L 321.402,455.426 L 321.327,455.439 L 321.146,455.564 L 321.022,455.589 L 320.925,455.557 L 320.816,455.566 L 320.54,455.7 L 320.377,455.73 L 320.261,455.865 L 319.494,455.926 L 319.292,455.961 L 318.834,455.729 L 318.716,455.653 L 318.656,455.642 L 318.605,455.654 L 318.555,455.706 L 318.479,455.998 L 318.41,456.077 L 318.29,456.142 L 318.173,456.258 L 318.15,456.371 L 318.33,456.434 L 318.48,456.653 L 318.643,456.829 L 318.774,456.983 L 318.756,457.159 L 318.734,457.408 L 318.639,457.493 L 318.48,457.534 L 317.899,457.414 L 317.453,457.306 L 317.266,457.283 L 317.181,457.255 L 317.07,457.164 L 316.957,457.08 L 316.776,457.049 L 316.56,456.992 L 316.4,456.773 L 316.235,456.462 L 316.177,456.321 L 316.048,456.185 L 315.922,455.991 L 315.883,455.819 L 315.788,455.662 L 315.738,455.609 L 315.664,455.395 L 315.648,455.315 L 315.612,455.305 L 315.56,455.236 L 315.458,455.007 L 315.435,454.95 L 315.39,454.93 L 315.271,454.769 L 315.176,454.713 L 315.141,454.63 L 315.149,454.406 L 315.098,454.295 L 315.083,454.084 L 315.08,454.0 L 315.031,453.906 L 314.95,453.845 L 314.936,453.692 L 314.916,453.316 L 314.877,453.25 L 314.535,453.255 L 314.501,453.292 L 314.353,453.314 L 314.188,453.318 L 314.038,453.268 L 313.915,453.202 L 313.888,453.12 L 313.907,452.859 L 313.708,452.661 L 313.393,452.416 L 313.298,452.105 L 313.182,451.911 L 312.833,451.505 L 312.771,451.227 L 312.771,451.03 L 312.893,450.85 L 313.064,450.532 L 313.135,450.244 L 313.187,450.094 L 313.275,449.897 L 313.355,449.642 L 313.294,449.485 L 313.19,449.332 L 313.156,449.216 L 313.257,449.048 L 313.358,448.929 L 313.473,448.913 L 313.619,448.841 L 313.734,448.739 L 313.909,448.712 L 314.127,448.701 L 314.573,448.701 L 314.801,448.657 L 314.872,448.575 L 314.861,448.417 L 314.974,448.274 L 315.093,448.214 L 315.141,448.167 L 315.148,448.114 L 315.117,448.066 L 315.069,448.034 L 314.945,448.023 L 314.836,447.775 L 314.911,447.667 L 315.007,447.468 L 315.034,447.355 L 315.183,447.179 L 315.219,447.233 L 315.334,446.911 L 315.348,446.649 L 315.436,446.391 L 315.571,446.085 L 315.814,445.933 L 317.229,446.088 L 317.875,446.234 L 318.706,446.486 L 318.824,446.756 L 318.83,446.486 L 318.789,446.214 L 319.019,446.021 L 319.523,445.953 L 320.278,446.046 L 320.927,445.932 L 321.81,445.946 L 323.15,446.166 L 323.75,446.316 L 323.997,446.452 L 324.044,446.696 L 324.021,447.009 L 323.923,447.308 L 323.711,447.709" id="SR" title="Suriname"/>
</svg>
