<svg xmlns="http://www.w3.org/2000/svg" xmlns:ev="http://www.w3.org/2001/xml-events" xmlns:xlink="http://www.w3.org/1999/xlink" baseProfile="full" height="24.602020263671875" version="1.1" viewBox="543.468994140625 428.33099365234375 31.21099853515625 24.602020263671875" width="31.21099853515625">
	<defs/>
	<path class="land" d="M 571.006,435.087 L 570.825,435.448 L 570.767,435.705 L 570.749,435.921 L 570.76,436.046 L 570.78,436.126 L 570.789,436.145 L 570.797,436.158 L 570.805,436.167 L 570.814,436.17 L 571.336,436.172 L 571.339,436.172 L 571.339,436.172 L 571.336,436.287 L 571.357,436.859 L 571.375,437.359 L 571.405,438.176 L 571.406,438.389 L 571.386,438.654 L 571.324,438.759 L 571.176,438.909 L 570.989,439.046 L 570.517,439.081 L 570.123,439.076 L 569.844,439.046 L 569.462,439.034 L 569.103,439.063 L 568.971,439.179 L 568.777,439.588 L 568.497,440.181 L 568.349,440.432 L 568.311,440.578 L 568.355,440.665 L 568.54,440.791 L 568.948,440.969 L 569.415,441.073 L 569.763,441.118 L 570.0,441.167 L 570.183,441.221 L 570.846,441.675 L 571.058,441.886 L 571.177,442.073 L 571.205,442.272 L 571.3,442.473 L 571.683,442.87 L 571.904,443.099 L 572.479,443.393 L 572.7,443.726 L 572.913,443.887 L 573.115,444.061 L 573.223,444.32 L 573.472,445.071 L 573.64,445.465 L 573.812,445.787 L 573.88,446.31 L 574.016,446.544 L 574.156,446.829 L 574.388,447.087 L 574.635,447.283 L 574.68,447.336 L 574.164,447.841 L 573.585,448.407 L 572.916,449.063 L 572.187,449.775 L 571.616,450.339 L 571.053,450.895 L 570.395,451.552 L 569.909,452.037 L 569.828,452.105 L 569.687,452.195 L 569.224,452.197 L 568.746,452.14 L 568.306,451.845 L 567.859,452.074 L 567.576,452.146 L 567.407,452.172 L 567.008,452.209 L 566.449,452.332 L 566.196,452.485 L 566.059,452.606 L 565.946,452.829 L 565.889,452.852 L 565.786,452.826 L 565.643,452.736 L 565.344,452.607 L 565.193,452.323 L 565.055,452.152 L 564.94,452.062 L 564.466,452.345 L 564.236,452.411 L 564.048,452.403 L 563.704,452.244 L 563.324,452.108 L 563.128,452.109 L 562.835,452.279 L 562.502,452.533 L 562.331,452.784 L 562.248,452.933 L 562.187,452.814 L 562.131,452.703 L 562.019,452.561 L 561.858,452.505 L 561.712,452.533 L 561.541,452.561 L 561.464,452.48 L 561.448,452.285 L 561.401,452.105 L 561.321,451.97 L 561.075,451.835 L 560.441,451.561 L 559.954,451.014 L 559.709,450.76 L 559.53,450.596 L 559.276,450.166 L 558.987,449.87 L 558.637,449.732 L 558.406,449.8 L 558.168,450.117 L 557.719,450.415 L 557.513,450.425 L 557.249,450.264 L 556.917,450.149 L 556.322,450.099 L 556.076,450.24 L 555.754,450.468 L 555.481,450.604 L 555.312,450.62 L 555.154,450.565 L 554.975,450.536 L 554.82,450.531 L 554.502,450.323 L 554.337,450.17 L 554.227,450.023 L 554.047,449.923 L 553.837,449.839 L 553.687,449.708 L 553.612,449.544 L 553.493,449.334 L 553.339,449.145 L 552.853,448.805 L 552.708,448.604 L 552.606,448.408 L 552.408,448.192 L 552.195,447.903 L 552.127,447.48 L 552.118,447.139 L 552.073,446.981 L 551.983,446.823 L 551.878,446.689 L 551.709,446.539 L 551.313,446.32 L 550.903,446.066 L 550.707,445.918 L 550.334,445.864 L 550.111,445.719 L 549.924,445.4 L 549.849,445.145 L 549.66,444.946 L 549.579,444.802 L 549.534,444.636 L 549.684,444.131 L 549.467,443.952 L 549.144,443.72 L 548.912,443.466 L 548.771,443.233 L 548.356,442.925 L 547.452,442.464 L 546.93,442.17 L 546.645,441.906 L 546.396,441.647 L 546.371,441.541 L 546.532,441.283 L 546.556,441.07 L 546.424,440.836 L 545.882,440.394 L 545.45,439.908 L 545.123,439.756 L 544.335,439.621 L 544.109,439.567 L 543.873,439.474 L 543.64,439.255 L 543.561,438.996 L 543.675,438.581 L 543.602,438.454 L 543.469,438.419 L 543.469,438.419 L 543.505,438.333 L 543.654,438.131 L 543.897,438.0 L 544.548,437.795 L 544.584,437.716 L 544.597,437.457 L 544.65,437.33 L 544.874,436.97 L 544.906,436.827 L 544.916,436.521 L 544.946,436.376 L 545.011,436.273 L 545.189,436.095 L 545.251,435.986 L 545.278,435.751 L 545.259,435.287 L 545.35,435.103 L 545.76,434.681 L 545.87,434.492 L 545.907,434.323 L 545.903,434.151 L 545.928,433.981 L 546.05,433.817 L 546.154,433.766 L 546.456,433.714 L 546.662,433.747 L 548.102,433.458 L 548.271,433.497 L 548.346,433.668 L 548.339,433.942 L 548.364,434.075 L 548.441,434.169 L 548.67,434.299 L 548.828,434.517 L 548.913,434.597 L 549.144,434.746 L 550.215,435.99 L 550.517,436.108 L 550.81,436.065 L 551.392,435.807 L 551.683,435.742 L 553.719,435.815 L 553.947,435.776 L 553.961,435.782 L 554.271,436.406 L 554.418,436.548 L 556.651,436.555 L 556.609,436.377 L 556.637,436.179 L 556.898,435.924 L 557.03,435.797 L 557.03,435.798 L 557.086,435.752 L 557.431,435.569 L 557.768,435.447 L 558.416,435.304 L 558.652,435.078 L 558.783,434.872 L 558.787,434.465 L 558.873,434.398 L 559.027,434.304 L 559.776,433.94 L 559.903,433.863 L 561.227,434.708 L 561.969,435.377 L 562.014,435.41 L 562.053,435.422 L 562.092,435.399 L 562.125,435.368 L 562.179,435.348 L 562.215,435.339 L 562.533,435.33 L 563.134,435.297 L 563.332,435.217 L 564.539,434.022 L 564.846,433.641 L 564.923,433.563 L 565.098,433.292 L 565.282,432.824 L 565.319,432.771 L 566.642,431.649 L 566.688,431.56 L 566.701,431.489 L 566.501,431.111 L 566.458,430.919 L 566.45,430.623 L 566.489,430.163 L 566.475,429.872 L 566.47,429.838 L 566.457,429.793 L 566.448,429.776 L 565.71,428.948 L 567.575,428.94 L 567.579,428.871 L 567.577,428.835 L 567.572,428.802 L 567.537,428.703 L 567.516,428.57 L 567.515,428.534 L 567.518,428.497 L 567.528,428.429 L 567.529,428.392 L 567.527,428.374 L 567.524,428.358 L 567.525,428.343 L 567.533,428.331 L 568.873,428.348 L 568.855,428.583 L 568.693,429.134 L 568.696,429.464 L 568.657,429.842 L 568.648,429.872 L 568.611,429.954 L 568.579,430.0 L 568.542,430.045 L 568.532,430.062 L 568.52,430.09 L 568.519,430.131 L 568.797,432.239 L 568.786,432.292 L 568.776,432.326 L 568.702,432.458 L 568.683,432.501 L 568.679,432.534 L 568.709,432.557 L 569.326,432.785 L 569.356,432.799 L 569.38,432.817 L 569.602,433.088 L 570.817,434.085 L 570.859,434.135 L 570.985,434.448 L 570.999,434.496 L 571.003,434.57 L 571.0,434.628 L 570.969,434.816 L 570.979,434.9 L 571.0,434.956 L 571.017,435.021 L 571.017,435.04 L 571.015,435.057 L 571.006,435.087" id="SS" title="South Sudan"/>
</svg>
