<svg xmlns="http://www.w3.org/2000/svg" xmlns:ev="http://www.w3.org/2001/xml-events" xmlns:xlink="http://www.w3.org/1999/xlink" baseProfile="full" height="3.639007568359375" version="1.1" viewBox="222.8179931640625 422.00299072265625 6.7100067138671875 3.639007568359375" width="6.7100067138671875">
	<defs/>
	<path class="land" d="M 224.905,422.046 L 224.976,422.06 L 225.445,422.207 L 225.584,422.178 L 225.762,422.296 L 225.847,422.389 L 225.922,422.517 L 226.292,422.772 L 226.354,422.884 L 226.631,423.035 L 226.743,423.151 L 226.861,423.198 L 227.092,423.243 L 227.29,423.304 L 227.313,423.346 L 227.332,423.518 L 227.374,423.662 L 227.468,423.671 L 227.582,423.601 L 227.954,423.408 L 228.305,423.279 L 228.503,423.356 L 228.62,423.517 L 228.754,423.589 L 229.032,423.545 L 229.284,423.559 L 229.482,423.7 L 229.528,423.781 L 229.406,424.249 L 229.362,424.448 L 229.341,424.617 L 229.412,424.662 L 229.482,424.727 L 229.467,424.818 L 229.25,424.968 L 229.182,425.006 L 229.232,425.294 L 229.071,425.469 L 228.923,425.594 L 228.663,425.628 L 228.222,425.642 L 227.558,425.5 L 227.068,425.306 L 226.805,425.305 L 226.888,425.369 L 227.097,425.41 L 227.371,425.546 L 227.292,425.584 L 226.295,425.3 L 225.143,424.741 L 224.454,424.652 L 223.665,424.506 L 223.199,424.153 L 222.849,424.0 L 222.818,423.866 L 222.822,423.718 L 222.98,423.519 L 223.276,423.251 L 223.473,423.112 L 223.565,423.085 L 223.695,423.099 L 223.819,423.021 L 223.926,422.837 L 224.038,422.718 L 224.322,422.597 L 224.387,422.549 L 224.365,422.446 L 224.303,422.245 L 224.313,422.121 L 224.405,422.064 L 224.517,422.053 L 224.747,422.003 L 224.847,422.013 L 224.905,422.046" id="SV" title="El Salvador"/>
</svg>
