<svg xmlns="http://www.w3.org/2000/svg" xmlns:ev="http://www.w3.org/2001/xml-events" xmlns:xlink="http://www.w3.org/1999/xlink" baseProfile="full" height="16.954986572265625" version="1.1" viewBox="576.072021484375 350.36199951171875 18.50799560546875 16.954986572265625" width="18.50799560546875" fill="#00394f">
	<defs/>
	<path class="land" d="M 594.58,351.024 L 594.58,351.071 L 594.555,351.192 L 594.238,351.54 L 593.808,352.012 L 593.499,352.31 L 592.979,352.81 L 592.59,352.917 L 591.936,353.097 L 591.76,353.271 L 591.596,353.553 L 591.5,353.938 L 591.472,354.178 L 591.455,354.626 L 591.608,355.091 L 591.755,355.536 L 591.774,355.83 L 591.759,356.119 L 591.617,356.428 L 591.462,356.851 L 591.373,357.328 L 591.326,358.219 L 591.325,358.976 L 591.312,359.099 L 591.043,359.631 L 590.729,360.253 L 590.583,360.396 L 589.894,360.581 L 589.142,361.035 L 588.301,361.542 L 587.538,362.001 L 586.737,362.482 L 585.906,362.98 L 585.312,363.335 L 584.517,363.81 L 583.793,364.263 L 583.06,364.722 L 582.502,365.069 L 581.656,365.618 L 581.16,365.94 L 580.431,366.412 L 579.789,366.827 L 579.03,367.317 L 578.078,367.172 L 577.777,367.087 L 577.531,366.854 L 577.35,366.729 L 576.9,366.601 L 576.611,366.16 L 576.438,366.004 L 576.136,365.934 L 576.176,365.776 L 576.332,365.51 L 576.49,365.22 L 576.402,365.059 L 576.373,364.921 L 576.363,364.757 L 576.471,364.6 L 576.42,364.41 L 576.337,364.22 L 576.276,364.124 L 576.276,363.949 L 576.316,363.815 L 576.366,363.61 L 576.494,363.498 L 576.527,363.381 L 576.642,363.266 L 576.795,363.172 L 576.83,363.097 L 576.808,363.054 L 576.654,362.969 L 576.571,362.82 L 576.645,362.603 L 576.694,362.535 L 576.786,362.429 L 576.992,362.269 L 577.153,362.243 L 577.292,362.242 L 577.528,362.256 L 577.711,362.285 L 577.758,362.243 L 577.751,362.19 L 577.525,362.059 L 577.513,361.954 L 577.569,361.842 L 577.729,361.664 L 577.92,361.534 L 578.017,361.511 L 578.235,361.249 L 578.375,360.956 L 578.148,360.242 L 578.012,360.127 L 577.79,360.029 L 577.659,360.014 L 577.649,359.967 L 577.824,359.786 L 577.948,359.627 L 577.811,359.477 L 577.564,359.406 L 577.473,359.562 L 577.157,359.576 L 576.667,359.574 L 576.451,358.816 L 576.418,358.487 L 576.424,358.106 L 576.573,357.548 L 576.503,357.289 L 576.497,357.114 L 576.459,356.874 L 576.072,356.356 L 576.283,355.4 L 576.432,355.168 L 576.642,355.19 L 577.09,355.462 L 577.164,355.454 L 577.3,355.096 L 577.432,354.975 L 577.708,354.868 L 577.787,354.288 L 577.916,354.177 L 578.072,354.117 L 578.312,354.105 L 578.52,354.071 L 578.533,353.969 L 578.241,353.296 L 578.267,353.125 L 578.408,352.447 L 578.497,352.181 L 578.582,352.094 L 578.913,352.128 L 579.376,352.248 L 579.499,352.443 L 579.726,352.617 L 580.065,352.605 L 580.458,352.638 L 580.764,352.649 L 581.009,352.527 L 581.562,352.299 L 581.835,352.223 L 582.084,352.122 L 582.884,351.748 L 583.205,351.777 L 583.424,351.826 L 583.592,351.886 L 583.968,352.141 L 584.279,352.399 L 584.498,352.476 L 584.89,352.47 L 585.457,352.52 L 586.153,352.516 L 586.56,352.444 L 587.079,352.317 L 588.005,352.012 L 589.223,351.373 L 589.939,351.062 L 590.248,351.025 L 590.65,351.022 L 591.052,351.103 L 591.508,351.161 L 591.719,351.156 L 592.212,351.092 L 592.852,350.962 L 593.254,350.856 L 593.74,350.682 L 594.043,350.392 L 594.141,350.362 L 594.267,350.415 L 594.326,350.435 L 594.45,350.599 L 594.58,351.024" id="SY" title="Syria"/>
</svg>
