<svg xmlns="http://www.w3.org/2000/svg" xmlns:ev="http://www.w3.org/2001/xml-events" xmlns:xlink="http://www.w3.org/1999/xlink" baseProfile="full" height="4.8890380859375" version="1.1" viewBox="562.10400390625 537.010986328125 3.719970703125 4.8890380859375" width="3.719970703125" fill="#00394f">
	<defs/>
	<path class="land" d="M 565.362,537.677 L 565.418,537.722 L 565.677,537.865 L 565.7,538.151 L 565.675,538.477 L 565.623,538.683 L 565.643,538.888 L 565.726,539.208 L 565.805,539.427 L 565.824,540.425 L 565.736,540.379 L 565.577,540.336 L 565.492,540.356 L 565.415,540.805 L 565.355,541.472 L 565.391,541.887 L 564.785,541.9 L 564.019,541.855 L 563.47,541.675 L 562.878,541.28 L 562.527,540.664 L 562.373,540.278 L 562.158,540.256 L 562.123,540.19 L 562.104,539.719 L 562.108,539.226 L 562.149,539.095 L 562.547,538.488 L 562.794,538.112 L 562.948,537.749 L 563.283,537.322 L 563.641,537.05 L 563.774,537.011 L 563.866,537.022 L 564.498,537.396 L 565.146,537.751 L 565.288,537.711 L 565.362,537.677" id="SZ" title="Swaziland"/>
</svg>
