<svg xmlns="http://www.w3.org/2000/svg" xmlns:ev="http://www.w3.org/2001/xml-events" xmlns:xlink="http://www.w3.org/1999/xlink" baseProfile="full" height="0.602020263671875" version="1.1" viewBox="272.6719970703125 399.8999938964844 1.980010986328125 0.602020263671875" width="1.980010986328125">
	<defs/>
	<path class="land" d="M 273.969,400.235 L 273.92,400.267 L 273.757,400.163 L 273.734,400.08 L 273.676,400.07599999999996 L 273.579,400.001 L 273.60200000000003,399.904 L 273.824,399.9 L 273.913,400.169 L 273.969,400.235 M 274.583,400.461 L 274.572,400.502 L 274.413,400.386 L 274.108,400.38500000000005 L 274.06,400.22600000000006 L 274.177,400.20000000000005 L 274.564,400.25600000000003 L 274.65200000000004,400.394 L 274.583,400.461 M 272.698,400.203 L 273.019,400.36899999999997 L 273.212,400.344 L 273.228,400.38 L 273.124,400.418 L 273.098,400.449 L 272.789,400.492 L 272.692,400.48400000000004 L 272.672,400.372 L 272.698,400.203" id="TC" title="Turks and Caicos Islands"/>
</svg>
