<svg xmlns="http://www.w3.org/2000/svg" xmlns:ev="http://www.w3.org/2001/xml-events" xmlns:xlink="http://www.w3.org/1999/xlink" baseProfile="full" height="46.38800048828125" version="1.1" viewBox="513.4420166015625 395.38299560546875 29.56695556640625 46.38800048828125" width="29.56695556640625" fill="#00394f">
	<defs/>
	<path class="land" d="M 543.0,407.225 L 543.001,408.543 L 543.002,409.858 L 543.003,411.169 L 543.004,412.477 L 543.005,413.782 L 543.006,415.083 L 543.007,416.381 L 543.008,417.677 L 543.009,418.105 L 542.973,418.275 L 542.958,418.299 L 542.903,418.328 L 542.236,418.208 L 541.944,418.205 L 541.534,418.297 L 540.932,418.346 L 540.544,418.331 L 540.274,418.553 L 540.063,418.821 L 540.163,419.463 L 540.14,419.674 L 540.059,419.894 L 539.876,420.083 L 539.693,420.234 L 539.584,420.366 L 539.449,420.656 L 539.348,420.791 L 539.357,420.973 L 539.325,421.163 L 539.215,421.263 L 538.936,421.335 L 538.755,421.42 L 538.61,421.559 L 538.513,421.659 L 538.564,421.792 L 538.635,421.974 L 538.675,422.259 L 538.703,422.426 L 538.841,422.562 L 538.925,422.659 L 538.954,422.778 L 538.874,422.877 L 538.532,423.083 L 538.395,423.16 L 538.238,423.265 L 538.178,423.304 L 537.928,423.5 L 537.802,423.674 L 537.741,423.818 L 537.744,424.018 L 537.871,424.316 L 538.01,424.569 L 538.063,424.76 L 538.095,424.969 L 538.083,425.167 L 538.011,425.34 L 537.886,425.495 L 537.415,425.788 L 537.184,426.108 L 536.998,426.498 L 536.952,426.71 L 537.002,426.852 L 537.101,426.971 L 537.24,427.032 L 537.444,427.05 L 537.782,426.985 L 538.097,426.942 L 538.431,427.082 L 538.605,427.408 L 538.538,427.646 L 538.664,428.078 L 538.776,428.599 L 538.768,428.774 L 538.817,428.84 L 539.026,428.874 L 539.073,428.996 L 539.004,429.909 L 539.101,430.164 L 539.241,430.346 L 539.399,430.441 L 539.559,430.563 L 539.641,430.647 L 539.825,430.667 L 540.032,430.833 L 540.088,431.054 L 540.074,431.268 L 539.954,431.73 L 539.856,432.041 L 539.736,432.02 L 539.492,431.943 L 539.194,431.877 L 538.828,431.824 L 538.48,431.951 L 538.104,432.114 L 537.986,432.235 L 537.881,432.307 L 537.715,432.295 L 537.563,432.316 L 537.481,432.432 L 537.343,432.561 L 536.801,432.827 L 536.687,432.924 L 536.619,433.02 L 536.619,433.125 L 536.674,433.341 L 536.673,433.61 L 536.552,433.828 L 536.412,433.974 L 536.251,434.03 L 536.118,434.061 L 536.03,434.151 L 535.747,434.645 L 535.625,434.736 L 535.376,434.721 L 534.662,435.46 L 534.591,435.678 L 534.33,435.987 L 534.0,436.33 L 533.705,436.496 L 533.681,436.56 L 533.602,436.625 L 533.42,436.699 L 532.79,437.117 L 532.033,437.1 L 531.699,437.264 L 531.374,437.336 L 530.898,437.417 L 530.756,437.409 L 530.146,437.443 L 529.431,437.431 L 529.157,437.49 L 528.9,437.648 L 528.709,437.787 L 528.682,437.834 L 528.71,437.892 L 528.703,437.938 L 529.203,438.279 L 529.328,438.446 L 529.202,438.608 L 529.142,438.632 L 529.135,438.642 L 529.053,438.77 L 528.76,439.154 L 528.314,439.608 L 528.086,439.738 L 527.995,439.823 L 527.876,440.124 L 527.8,440.166 L 527.493,440.205 L 526.887,440.238 L 526.048,440.336 L 525.545,440.369 L 525.232,440.341 L 524.792,440.549 L 524.635,440.602 L 524.539,440.62 L 524.103,440.821 L 523.741,441.134 L 523.612,441.193 L 523.102,441.326 L 522.899,441.541 L 522.806,441.559 L 522.479,441.275 L 522.256,441.018 L 522.147,440.757 L 522.134,440.674 L 522.072,440.689 L 521.893,440.805 L 521.738,440.936 L 521.667,441.186 L 521.14,441.354 L 520.689,441.499 L 520.484,441.681 L 520.168,441.771 L 519.765,441.734 L 519.451,441.66 L 519.144,441.635 L 519.291,441.408 L 519.348,441.239 L 519.362,441.032 L 519.34,440.892 L 519.156,440.822 L 519.04,440.712 L 518.776,440.059 L 518.505,439.387 L 518.123,438.725 L 517.707,438.302 L 517.406,438.044 L 517.31,438.011 L 517.155,437.93 L 517.047,437.855 L 516.495,437.405 L 515.923,436.901 L 515.776,436.671 L 515.49,436.328 L 515.17,435.974 L 515.004,435.813 L 514.927,435.522 L 515.147,435.259 L 515.383,434.927 L 515.673,434.706 L 516.049,434.691 L 516.668,434.782 L 517.336,434.814 L 517.998,434.745 L 518.169,434.697 L 518.339,434.701 L 518.695,434.778 L 519.315,434.761 L 519.635,434.627 L 519.29,434.398 L 518.919,434.035 L 518.572,433.637 L 518.361,433.276 L 518.168,432.811 L 517.99,432.236 L 517.881,431.49 L 517.897,431.067 L 517.953,430.766 L 518.139,430.274 L 518.016,429.986 L 518.043,429.753 L 518.025,429.408 L 517.965,429.232 L 517.724,428.659 L 517.675,428.596 L 517.462,428.199 L 517.368,427.535 L 517.127,427.096 L 516.74,426.884 L 516.52,426.625 L 516.439,426.169 L 516.286,426.049 L 515.678,425.89 L 515.17,425.886 L 514.801,425.371 L 514.327,424.708 L 513.886,424.092 L 513.604,422.856 L 513.442,422.148 L 513.625,421.933 L 513.987,421.428 L 514.449,420.46 L 515.49,418.961 L 516.023,418.192 L 517.086,417.042 L 518.392,415.626 L 519.128,414.826 L 519.247,413.366 L 519.373,411.818 L 519.468,410.645 L 519.586,409.25 L 519.686,408.082 L 519.758,407.229 L 519.86,406.018 L 519.947,405.785 L 520.46,404.832 L 520.5,404.704 L 520.405,404.544 L 519.673,403.732 L 519.445,403.551 L 519.313,403.128 L 519.501,402.891 L 518.621,401.523 L 518.403,401.355 L 518.307,401.188 L 518.296,400.94 L 518.28,399.99 L 518.046,398.495 L 517.738,396.747 L 518.772,396.248 L 519.557,395.868 L 520.559,395.383 L 521.487,395.88 L 522.832,396.598 L 524.177,397.314 L 525.521,398.03 L 526.866,398.745 L 528.21,399.458 L 529.555,400.169 L 530.899,400.88 L 532.244,401.59 L 533.588,402.298 L 534.933,403.005 L 536.277,403.711 L 537.622,404.416 L 538.966,405.12 L 540.311,405.823 L 541.655,406.524 L 543.0,407.225" id="TD" title="Chad"/>
</svg>
