<svg xmlns="http://www.w3.org/2000/svg" xmlns:ev="http://www.w3.org/2001/xml-events" xmlns:xlink="http://www.w3.org/1999/xlink" baseProfile="full" height="14.15802001953125" version="1.1" viewBox="620.6810302734375 608.9459838867188 53.03094482421875 14.15802001953125" width="53.03094482421875" fill="#00394f">
	<defs/>
	<path class="land" d="M 621.173,609.403 L 620.968,609.439 L 620.785,609.356 L 620.6809999999999,609.135 L 620.9119999999999,608.946 L 621.031,609.076 L 621.1189999999999,609.221 L 621.173,609.403 M 669.866,620.521 L 670.092,620.545 L 670.23,620.506 L 670.849,619.943 L 671.0110000000001,619.929 L 670.9950000000001,620.36 L 671.1540000000001,620.554 L 670.9530000000001,620.6039999999999 L 670.5710000000001,620.583 L 670.4840000000002,620.8299999999999 L 670.8690000000001,621.146 L 671.0610000000001,621.189 L 671.2170000000001,621.1859999999999 L 671.5100000000001,621.1139999999999 L 671.7440000000001,620.9999999999999 L 672.1070000000002,620.7359999999999 L 672.3250000000002,620.6329999999999 L 672.7370000000002,620.6289999999999 L 672.9520000000002,620.3789999999999 L 673.0520000000002,620.3019999999999 L 673.2930000000002,620.3129999999999 L 673.5120000000003,620.4109999999998 L 673.6430000000003,620.6379999999998 L 673.7120000000002,620.9139999999998 L 673.6590000000002,621.1879999999998 L 673.5130000000003,621.4549999999998 L 673.2460000000002,621.6179999999998 L 673.3070000000002,621.8129999999999 L 673.2360000000002,621.9119999999999 L 673.1020000000002,621.9179999999999 L 672.9880000000002,621.8729999999999 L 672.8200000000002,621.6439999999999 L 672.6180000000002,621.5219999999999 L 672.1340000000001,621.53 L 671.9160000000002,621.5459999999999 L 671.8780000000002,621.7209999999999 L 671.7630000000001,621.8559999999999 L 671.6430000000001,621.9299999999998 L 671.4800000000001,621.8979999999998 L 671.4500000000002,621.9719999999998 L 671.5370000000001,622.1559999999997 L 671.7490000000001,622.3879999999997 L 672.1150000000001,622.5499999999997 L 672.3300000000002,622.5829999999997 L 672.3590000000002,622.2739999999998 L 672.6190000000001,622.2379999999998 L 672.8480000000002,622.3299999999998 L 673.0150000000002,622.5579999999998 L 672.8790000000002,622.6329999999998 L 672.7600000000002,622.7539999999998 L 672.7350000000002,622.9099999999997 L 672.5030000000003,623.0799999999997 L 672.3640000000003,623.0989999999997 L 671.9260000000003,623.0149999999998 L 671.6650000000003,622.8239999999997 L 671.6030000000003,622.6879999999998 L 671.4420000000003,622.6369999999997 L 671.2610000000003,622.8119999999997 L 671.0670000000003,622.8499999999997 L 670.6870000000004,622.7039999999997 L 670.3360000000004,622.4699999999997 L 670.1170000000003,622.3819999999997 L 669.7760000000003,622.3259999999997 L 669.5870000000003,622.8569999999996 L 669.3260000000004,623.0829999999996 L 668.9880000000004,623.1039999999996 L 668.8260000000004,623.0599999999996 L 668.7360000000003,622.8509999999997 L 668.7590000000004,622.6279999999997 L 668.8140000000003,622.4139999999996 L 668.9200000000003,622.1959999999997 L 668.9860000000003,621.9579999999996 L 668.9580000000003,621.7329999999996 L 668.8360000000004,621.5689999999996 L 668.9000000000003,621.2739999999997 L 668.7800000000003,621.0439999999996 L 668.8220000000003,620.8749999999997 L 669.0170000000004,620.7589999999997 L 668.9340000000004,620.6569999999997 L 668.8300000000004,620.6309999999997 L 668.7550000000003,620.4969999999997 L 668.6970000000003,620.3349999999997 L 668.7730000000004,620.0309999999997 L 668.8860000000004,619.7389999999997 L 668.8720000000004,619.4099999999997 L 669.0630000000004,619.0989999999997 L 669.2270000000004,618.7509999999997 L 669.3490000000004,618.6129999999997 L 669.5030000000004,618.5919999999998 L 669.5700000000004,618.6889999999997 L 669.6030000000004,618.8779999999997 L 669.5420000000004,619.0009999999997 L 669.6860000000004,619.0569999999998 L 669.7240000000004,619.4599999999998 L 669.6340000000004,619.6259999999999 L 669.6200000000003,619.7859999999998 L 669.4330000000003,620.1269999999998 L 669.4870000000003,620.4009999999998 L 669.866,620.521 M 670.14,620.305 L 669.967,620.338 L 669.913,620.199 L 669.919,620.015 L 669.823,619.869 L 669.768,619.707 L 669.816,619.554 L 670.094,619.536 L 670.3810000000001,619.5849999999999 L 670.4540000000001,619.8439999999999 L 670.2470000000001,620.198 L 670.14,620.305" id="TF" title="French Southern and Antarctic Lands"/>
</svg>
