<svg xmlns="http://www.w3.org/2000/svg" xmlns:ev="http://www.w3.org/2001/xml-events" xmlns:xlink="http://www.w3.org/1999/xlink" baseProfile="full" height="14.178985595703125" version="1.1" viewBox="475.4460144042969 431.4840087890625 5.24298095703125 14.178985595703125" width="5.24298095703125">
	<defs/>
	<path class="land" d="M 478.227,431.832 L 478.155,432.138 L 478.006,432.516 L 477.91,432.636 L 477.842,433.554 L 477.889,433.63 L 477.923,433.653 L 478.389,433.963 L 479.0,434.37 L 479.432,434.657 L 479.468,434.754 L 479.475,435.356 L 479.48,435.873 L 479.569,436.168 L 479.588,436.455 L 479.697,436.671 L 480.095,437.088 L 480.19,437.334 L 480.201,438.122 L 480.208,438.719 L 480.259,439.532 L 480.259,440.21 L 480.259,441.066 L 480.259,442.07 L 480.259,443.115 L 479.996,443.128 L 480.14,443.453 L 480.164,443.747 L 480.198,443.843 L 480.127,443.985 L 480.186,444.202 L 480.3,444.282 L 480.592,444.718 L 480.689,445.087 L 480.221,445.21 L 480.253,445.305 L 479.378,445.501 L 479.032,445.663 L 479.025,445.507 L 478.898,445.479 L 478.743,445.426 L 478.646,445.345 L 478.512,445.16 L 478.464,445.015 L 478.26,444.992 L 478.008,444.83 L 477.768,444.644 L 477.684,444.458 L 477.708,444.373 L 477.67,444.284 L 477.588,444.251 L 477.372,443.831 L 477.237,443.662 L 477.175,443.526 L 477.197,443.421 L 477.167,443.279 L 477.209,443.164 L 477.326,443.096 L 477.362,443.012 L 477.373,442.835 L 477.438,442.471 L 477.481,442.113 L 477.358,442.015 L 477.208,441.987 L 477.13,441.884 L 477.1,441.716 L 477.103,441.57 L 477.398,441.06 L 477.337,439.884 L 477.381,439.705 L 477.516,439.581 L 477.63,439.438 L 477.625,439.295 L 477.429,438.944 L 477.056,438.674 L 476.865,438.456 L 476.762,438.26 L 476.745,438.155 L 476.971,438.001 L 477.071,437.895 L 477.084,437.772 L 476.992,437.549 L 477.008,437.15 L 477.095,436.851 L 477.184,436.464 L 477.175,436.351 L 476.956,436.119 L 476.837,436.088 L 476.741,436.104 L 476.512,436.256 L 476.429,436.272 L 476.377,436.228 L 476.354,436.167 L 476.435,436.076 L 476.405,435.963 L 476.473,435.864 L 476.618,435.819 L 476.661,435.769 L 476.465,435.722 L 476.442,435.654 L 476.456,435.589 L 476.513,435.576 L 476.574,435.58 L 476.608,435.533 L 476.639,435.204 L 476.662,435.089 L 476.687,434.861 L 476.717,433.979 L 476.762,433.888 L 476.769,433.822 L 476.631,433.779 L 476.306,433.542 L 476.116,433.36 L 475.95,433.174 L 475.811,433.051 L 475.538,432.862 L 475.458,432.741 L 475.446,432.621 L 475.529,432.379 L 475.661,432.122 L 475.726,431.753 L 475.686,431.655 L 475.507,431.484 L 476.146,431.615 L 477.058,431.836 L 477.077,431.875 L 477.083,431.941 L 477.241,431.939 L 477.504,431.861 L 478.227,431.832" id="TG" title="Togo"/>
</svg>
