<svg xmlns="http://www.w3.org/2000/svg" xmlns:ev="http://www.w3.org/2001/xml-events" xmlns:xlink="http://www.w3.org/1999/xlink" baseProfile="full" height="42.464996337890625" version="1.1" viewBox="748.9819946289062 404.4590148925781 23.20001220703125 42.464996337890625" width="23.20001220703125" fill="#00394f">
	<defs/>
	<path class="land" d="M 756.692,404.792 L 756.671,404.967 L 756.74,405.00399999999996 L 756.837,404.92199999999997 L 756.96,404.72299999999996 L 757.095,404.61099999999993 L 757.241,404.58599999999996 L 757.396,404.722 L 757.56,405.018 L 757.728,405.186 L 757.8069999999999,405.205 L 757.8639999999999,405.34 L 757.8729999999999,405.46999999999997 L 757.7929999999999,405.74399999999997 L 757.6579999999999,406.06199999999995 L 757.4649999999999,406.45599999999996 L 757.5279999999999,406.787 L 757.7909999999999,407.05699999999996 L 758.1039999999999,407.21599999999995 L 758.4359999999999,407.17199999999997 L 758.6129999999999,407.09099999999995 L 758.7579999999999,406.96399999999994 L 758.8919999999999,406.90399999999994 L 759.0619999999999,406.8879999999999 L 759.5899999999999,406.98099999999994 L 759.7509999999999,407.0729999999999 L 759.7749999999999,407.2559999999999 L 759.7099999999998,407.7249999999999 L 759.7919999999998,408.0689999999999 L 759.9409999999998,408.4309999999999 L 759.9589999999998,408.7609999999999 L 759.7739999999999,409.3039999999999 L 759.6199999999999,409.8179999999999 L 759.4539999999998,410.0679999999999 L 759.3249999999998,410.2289999999999 L 759.2869999999998,410.3379999999999 L 759.2979999999998,410.4409999999999 L 759.4159999999998,410.5949999999999 L 759.5419999999998,410.7939999999999 L 759.5729999999998,410.9839999999999 L 759.5589999999997,411.2169999999999 L 759.4729999999997,411.5369999999999 L 759.1529999999997,412.2299999999999 L 758.8989999999997,412.8549999999999 L 759.0319999999997,412.9799999999999 L 759.2839999999997,413.0709999999999 L 759.4509999999997,413.1599999999999 L 759.6259999999996,413.1029999999999 L 759.9969999999996,412.73399999999987 L 760.3159999999996,412.45999999999987 L 760.7129999999996,412.18599999999986 L 760.7359999999996,412.16199999999986 L 761.0839999999996,411.95999999999987 L 761.2429999999996,411.7739999999999 L 761.3289999999996,411.53699999999986 L 761.4519999999997,411.44599999999986 L 761.6109999999996,411.49899999999985 L 761.8129999999996,411.39599999999984 L 762.0579999999997,411.13599999999985 L 762.2459999999996,411.01599999999985 L 762.3769999999996,411.03599999999983 L 762.6109999999996,411.19699999999983 L 762.9489999999996,411.49899999999985 L 763.2489999999996,411.67899999999986 L 763.5119999999996,411.73699999999985 L 763.6409999999996,411.8489999999999 L 763.6339999999997,412.01599999999985 L 763.6929999999996,412.12199999999984 L 763.8159999999997,412.16699999999986 L 763.8709999999996,412.1489999999999 L 763.8569999999996,412.06799999999987 L 763.9759999999997,411.94899999999984 L 764.2279999999996,411.79299999999984 L 764.4839999999996,411.70099999999985 L 764.7439999999996,411.67399999999986 L 764.9129999999996,411.54999999999984 L 765.0239999999995,411.22799999999984 L 765.1849999999995,410.98299999999983 L 765.3289999999995,410.87199999999984 L 765.5069999999995,410.81599999999986 L 765.5539999999995,410.7379999999999 L 765.4679999999995,410.63799999999986 L 765.4759999999995,410.5359999999999 L 765.5789999999995,410.4329999999999 L 765.7999999999995,410.3889999999999 L 766.1399999999995,410.4039999999999 L 766.5369999999996,410.50799999999987 L 766.9929999999996,410.7019999999999 L 767.2919999999996,410.7649999999999 L 767.4349999999996,410.6949999999999 L 767.7129999999996,410.9949999999999 L 768.1269999999996,411.6649999999999 L 768.4809999999997,412.1709999999999 L 768.7779999999997,412.51299999999986 L 769.0899999999997,412.77499999999986 L 769.4169999999997,412.95799999999986 L 769.6519999999997,413.2069999999999 L 769.8659999999998,413.67899999999986 L 769.7059999999998,414.32999999999987 L 769.6629999999998,414.89299999999986 L 769.6829999999998,415.5819999999999 L 769.8759999999997,416.1099999999999 L 770.2419999999997,416.4769999999999 L 770.4549999999997,416.7729999999999 L 770.5149999999996,416.9989999999999 L 770.7999999999996,417.1929999999999 L 771.3109999999996,417.3539999999999 L 771.5239999999995,417.49999999999994 L 771.4369999999996,417.6309999999999 L 771.4299999999996,417.7829999999999 L 771.5019999999996,417.9559999999999 L 771.6799999999996,418.0999999999999 L 771.9609999999996,418.2129999999999 L 772.1289999999996,418.3329999999999 L 772.1819999999996,418.4589999999999 L 772.1759999999996,418.6639999999999 L 772.1109999999995,418.9469999999999 L 771.9939999999996,419.1639999999999 L 771.8239999999996,419.3149999999999 L 771.8029999999997,419.4349999999999 L 771.7589999999997,419.6169999999999 L 771.7589999999997,419.9899999999999 L 771.8799999999997,420.2379999999999 L 771.9169999999997,420.5529999999999 L 771.8509999999997,420.8099999999999 L 771.7869999999997,421.33499999999987 L 771.7789999999997,421.53799999999984 L 771.7179999999996,421.71299999999985 L 771.5699999999996,421.88099999999986 L 771.3429999999996,422.0389999999999 L 771.0669999999997,422.1799999999999 L 770.8979999999997,422.2419999999999 L 770.8579999999997,422.2709999999999 L 770.7369999999997,422.4299999999999 L 770.5909999999998,422.5839999999999 L 770.4779999999997,422.5839999999999 L 770.3929999999997,422.5059999999999 L 770.3329999999997,422.4049999999999 L 770.2979999999998,422.1839999999999 L 770.0429999999998,422.07499999999993 L 769.7629999999998,422.0059999999999 L 769.1929999999998,422.1149999999999 L 768.7319999999997,422.1739999999999 L 768.2149999999997,422.09899999999993 L 767.7289999999997,422.1929999999999 L 767.5259999999997,422.20699999999994 L 767.2929999999998,422.19199999999995 L 767.0669999999998,422.19399999999996 L 766.8519999999997,422.15999999999997 L 766.4559999999998,422.025 L 766.3039999999997,422.036 L 765.9849999999998,422.148 L 765.6509999999998,422.226 L 765.3309999999998,422.28 L 764.8579999999998,422.51 L 764.5159999999998,422.843 L 764.4149999999998,423.07800000000003 L 764.2449999999999,423.31500000000005 L 764.0099999999999,423.69000000000005 L 763.7049999999999,424.04900000000004 L 763.4929999999999,424.213 L 763.5519999999999,424.31 L 763.4989999999999,424.426 L 763.1669999999999,424.478 L 762.9079999999999,424.499 L 762.8609999999999,424.557 L 762.8919999999998,425.279 L 762.9829999999998,425.552 L 763.1499999999999,425.88100000000003 L 763.2589999999999,426.062 L 763.3409999999999,426.596 L 763.3649999999999,427.049 L 763.7299999999999,427.335 L 763.9359999999999,427.553 L 764.083,427.745 L 764.0319999999999,427.867 L 763.944,428.232 L 764.029,428.70500000000004 L 764.539,429.725 L 764.583,429.797 L 764.5219999999999,429.805 L 764.4419999999999,429.609 L 764.1829999999999,429.27799999999996 L 764.1029999999998,428.92499999999995 L 763.7989999999999,428.53599999999994 L 763.6289999999999,428.38199999999995 L 763.574,428.51099999999997 L 763.477,428.64899999999994 L 763.179,428.44899999999996 L 762.923,428.23999999999995 L 762.688,427.835 L 762.658,427.929 L 762.605,428.01399999999995 L 762.337,427.69599999999997 L 762.057,427.44199999999995 L 761.8050000000001,427.35099999999994 L 761.6500000000001,427.26699999999994 L 761.5000000000001,427.13199999999995 L 761.1860000000001,426.99199999999996 L 760.4040000000001,427.19399999999996 L 759.4090000000001,427.037 L 759.0260000000001,427.18699999999995 L 758.869,427.09399999999994 L 758.772,426.92099999999994 L 758.865,426.62499999999994 L 758.886,426.00499999999994 L 759.005,425.56899999999996 L 758.949,425.23699999999997 L 759.007,425.08099999999996 L 759.0509999999999,424.86799999999994 L 758.8939999999999,424.78099999999995 L 758.1909999999999,424.61199999999997 L 758.0429999999999,424.47799999999995 L 757.8549999999999,424.63199999999995 L 757.0109999999999,424.71799999999996 L 756.6929999999999,424.847 L 756.3989999999999,425.09499999999997 L 756.3229999999999,425.409 L 756.4929999999998,425.616 L 756.6019999999999,425.97499999999997 L 756.2989999999999,426.75899999999996 L 756.2479999999998,426.99199999999996 L 756.3649999999998,427.95 L 756.3179999999998,428.47499999999997 L 756.1529999999998,428.82699999999994 L 755.8919999999998,429.1429999999999 L 755.7839999999999,429.67799999999994 L 755.5789999999998,429.92599999999993 L 755.3039999999999,430.4919999999999 L 755.1179999999998,431.1969999999999 L 754.9859999999999,431.5229999999999 L 754.9089999999999,432.12299999999993 L 754.3419999999999,433.0319999999999 L 754.2089999999998,433.5449999999999 L 754.0059999999999,433.7389999999999 L 754.0769999999999,433.89199999999994 L 754.0889999999998,434.1479999999999 L 754.0179999999998,434.8309999999999 L 753.9949999999998,435.3969999999999 L 754.0809999999998,435.6999999999999 L 754.3519999999997,436.3009999999999 L 754.2879999999998,436.47499999999985 L 754.2559999999997,436.72299999999984 L 754.4849999999998,436.83499999999987 L 754.6489999999998,436.8679999999999 L 755.5749999999998,436.5839999999999 L 755.8879999999998,436.65699999999987 L 756.0059999999999,436.92199999999985 L 756.0819999999999,437.15299999999985 L 756.2389999999999,438.39899999999983 L 756.3199999999999,438.6299999999998 L 756.507,438.84999999999985 L 756.712,439.08399999999983 L 756.782,439.04199999999986 L 756.7950000000001,438.95499999999987 L 756.8090000000001,438.85699999999986 L 756.9920000000001,439.09299999999985 L 757.1350000000001,439.53299999999984 L 757.6230000000002,441.85799999999983 L 757.7640000000001,442.15299999999985 L 757.8810000000001,442.4639999999998 L 757.5830000000001,442.3129999999998 L 757.503,441.7969999999998 L 757.418,441.5799999999998 L 757.313,441.54799999999983 L 757.1469999999999,441.55199999999985 L 757.136,441.45999999999987 L 757.261,441.29199999999986 L 757.241,441.08999999999986 L 757.0699999999999,440.92399999999986 L 756.794,441.05599999999987 L 756.802,441.4179999999999 L 756.9250000000001,441.6949999999999 L 757.393,442.3149999999999 L 757.539,442.5739999999999 L 757.725,442.6479999999999 L 757.996,442.6069999999999 L 758.3199999999999,442.8709999999999 L 758.5749999999999,443.11599999999993 L 759.208,443.49099999999993 L 759.591,443.4509999999999 L 760.005,443.3579999999999 L 760.282,443.3819999999999 L 760.5540000000001,443.4779999999999 L 760.8810000000001,443.7909999999999 L 761.4000000000001,444.5749999999999 L 762.248,445.22699999999986 L 762.1560000000001,445.38899999999984 L 762.119,445.63599999999985 L 761.7850000000001,445.96499999999986 L 761.7310000000001,446.15499999999986 L 761.6090000000002,446.39599999999984 L 761.3770000000002,446.52499999999986 L 761.1770000000001,446.54899999999986 L 761.0620000000001,446.52599999999984 L 760.9820000000001,446.47799999999984 L 760.8460000000001,446.24999999999983 L 760.7770000000002,446.1809999999998 L 760.7190000000002,446.1649999999998 L 760.2920000000001,446.3219999999998 L 759.8790000000001,446.49599999999975 L 759.8030000000001,446.65199999999976 L 759.6930000000001,446.8339999999998 L 759.5730000000001,446.9059999999998 L 759.4780000000001,446.92399999999975 L 759.3870000000001,446.8169999999997 L 759.229,446.6779999999997 L 759.1070000000001,446.5479999999997 L 759.138,446.33799999999974 L 759.37,446.0289999999997 L 759.4,445.8129999999997 L 759.371,445.4409999999997 L 759.308,445.2269999999997 L 759.241,445.2199999999997 L 759.127,445.18499999999966 L 758.805,445.2199999999997 L 758.644,444.97799999999967 L 758.581,444.71199999999965 L 758.471,444.6169999999996 L 758.362,444.5589999999996 L 758.121,444.6509999999996 L 757.936,444.5959999999996 L 757.323,444.3649999999996 L 757.088,443.9919999999996 L 756.962,443.9809999999996 L 756.851,444.0219999999996 L 756.807,444.1069999999996 L 756.742,444.53599999999955 L 756.689,444.6669999999995 L 755.986,443.80299999999954 L 755.502,443.44699999999955 L 755.5699999999999,442.80199999999957 L 755.4229999999999,442.67699999999957 L 755.2389999999999,442.66499999999957 L 755.0999999999999,442.4859999999996 L 755.223,442.1019999999996 L 755.0329999999999,442.17499999999956 L 754.7699999999999,442.16099999999955 L 754.5539999999999,442.05499999999955 L 754.3909999999998,441.52299999999957 L 754.2869999999998,441.3609999999996 L 754.0619999999998,441.0819999999996 L 753.7649999999998,441.0819999999996 L 753.6659999999997,440.9479999999996 L 753.6899999999997,440.6039999999996 L 753.4729999999997,440.3929999999996 L 753.1879999999998,440.22099999999955 L 752.9539999999997,440.11999999999955 L 752.7149999999997,439.56499999999954 L 752.5269999999997,439.4289999999995 L 752.3669999999997,439.31799999999953 L 752.1439999999998,439.3929999999995 L 752.0709999999998,439.5929999999995 L 751.9229999999998,439.7859999999995 L 751.7539999999998,439.7619999999995 L 751.5989999999998,439.6519999999995 L 751.4099999999999,439.09699999999947 L 751.3789999999999,438.7569999999995 L 751.4209999999999,438.1249999999995 L 751.6569999999999,437.5579999999995 L 751.7839999999999,436.64999999999947 L 751.9849999999999,436.07899999999944 L 752.1259999999999,435.8849999999994 L 752.3189999999998,435.1039999999994 L 752.7139999999998,434.1049999999994 L 752.7589999999998,433.8909999999994 L 752.8389999999998,433.6509999999994 L 752.8989999999998,433.4239999999994 L 752.9189999999998,433.0659999999994 L 752.8679999999997,432.8779999999994 L 752.8679999999997,432.7719999999994 L 752.9509999999997,432.63699999999943 L 753.2319999999996,432.40999999999946 L 753.6209999999996,432.03599999999943 L 754.0829999999996,431.5099999999994 L 754.5569999999997,430.70199999999943 L 754.7919999999997,430.23299999999944 L 754.8909999999997,430.06699999999944 L 754.9949999999998,430.0149999999994 L 755.1569999999998,429.8539999999994 L 755.2679999999998,429.6759999999994 L 755.2739999999998,429.58599999999944 L 755.0169999999998,428.7069999999994 L 754.8479999999998,428.41999999999945 L 754.7629999999998,428.08099999999945 L 754.7169999999998,427.83599999999944 L 754.6549999999997,427.6109999999994 L 754.6849999999997,427.39899999999943 L 754.5919999999998,427.2669999999994 L 754.3819999999997,427.09999999999945 L 754.1639999999998,426.85099999999943 L 754.0339999999998,426.44399999999945 L 754.0339999999998,426.2169999999995 L 753.8949999999998,426.01799999999946 L 753.8479999999997,425.80999999999943 L 753.9319999999997,425.6109999999994 L 754.0409999999997,425.4389999999994 L 754.0279999999997,424.6829999999994 L 753.9839999999997,424.4569999999994 L 753.9299999999997,424.05299999999943 L 753.7879999999997,423.7479999999994 L 753.5869999999996,423.3909999999994 L 753.3589999999997,423.0959999999994 L 752.7629999999997,422.5619999999994 L 752.3379999999997,422.20499999999936 L 752.1279999999997,421.87899999999934 L 751.8609999999996,421.50399999999934 L 751.6699999999996,421.23399999999936 L 751.4289999999996,420.89299999999935 L 751.3059999999996,420.4279999999994 L 751.2379999999996,419.9319999999994 L 751.2749999999996,419.7679999999994 L 751.3899999999996,419.6599999999994 L 751.5409999999996,419.5729999999994 L 751.6629999999996,419.55299999999943 L 752.0069999999996,419.3249999999994 L 752.2459999999996,419.3449999999994 L 752.3019999999997,419.2959999999994 L 752.3249999999997,419.19199999999944 L 752.2939999999998,418.73999999999944 L 752.3049999999997,418.1349999999994 L 752.3489999999997,417.6419999999994 L 752.4009999999997,417.31699999999944 L 753.0349999999997,416.93899999999945 L 753.1679999999998,416.77499999999947 L 753.2319999999997,416.59799999999944 L 753.2319999999997,416.44199999999944 L 753.1779999999998,416.31899999999945 L 753.0829999999997,416.25099999999946 L 752.6729999999998,416.5769999999995 L 752.5929999999997,416.5049999999995 L 752.4049999999997,415.9689999999995 L 752.3239999999997,415.8049999999995 L 752.2069999999998,415.60899999999947 L 752.0809999999998,415.33499999999947 L 752.0609999999998,414.8609999999995 L 751.9699999999998,414.62599999999946 L 751.4579999999999,414.1249999999995 L 751.2289999999998,413.8549999999995 L 750.9159999999998,413.4649999999995 L 750.5409999999998,412.9969999999995 L 750.1579999999998,412.5639999999995 L 749.9779999999998,412.2869999999995 L 749.9149999999998,412.22399999999953 L 749.8939999999999,412.1169999999995 L 750.0099999999999,411.8189999999995 L 749.9519999999999,411.5189999999995 L 749.7619999999998,411.1189999999995 L 749.6799999999998,410.8709999999995 L 749.7069999999999,410.7759999999995 L 749.6149999999999,410.7389999999995 L 749.4019999999999,410.75999999999954 L 749.198,410.57199999999955 L 749.001,410.17599999999953 L 748.982,410.10599999999954 L 749.0459999999999,410.1069999999995 L 749.2929999999999,410.1749999999995 L 749.3769999999998,410.1649999999995 L 749.5519999999998,410.0739999999995 L 749.8169999999998,409.9779999999995 L 749.9739999999998,409.9459999999995 L 750.0259999999998,409.8989999999995 L 750.0479999999999,409.8029999999995 L 749.9129999999999,408.8869999999995 L 749.9359999999999,408.6959999999995 L 750.1869999999999,408.2999999999995 L 750.1589999999999,407.8999999999995 L 750.2229999999998,407.3259999999995 L 750.5029999999998,406.93299999999954 L 750.7129999999999,406.75199999999955 L 750.7789999999999,406.46799999999956 L 750.8749999999999,406.40799999999956 L 751.0489999999999,406.42999999999955 L 751.4079999999999,406.64199999999954 L 751.5609999999999,406.65199999999953 L 751.7789999999999,406.64599999999956 L 752.0129999999999,406.62999999999954 L 752.122,406.60999999999956 L 752.871,406.40299999999957 L 753.036,406.3809999999996 L 753.194,406.4069999999996 L 753.309,406.3969999999996 L 753.424,406.30199999999957 L 753.506,406.1349999999996 L 753.6,405.5989999999996 L 753.654,405.50399999999956 L 753.751,405.42799999999954 L 753.91,405.37699999999955 L 754.096,405.3809999999996 L 754.339,405.4839999999996 L 754.4910000000001,405.4879999999996 L 754.6630000000001,405.4449999999996 L 754.8090000000001,405.3709999999996 L 754.9060000000001,405.2769999999996 L 754.95,405.1639999999996 L 754.9110000000001,404.9469999999996 L 754.8000000000001,404.6749999999996 L 754.831,404.6419999999996 L 755.035,404.7019999999996 L 755.3349999999999,404.7689999999996 L 755.564,404.7539999999996 L 755.713,404.7069999999996 L 755.8589999999999,404.5779999999996 L 756.0429999999999,404.45899999999955 L 756.2219999999999,404.48599999999954 L 756.3609999999999,404.59199999999953 L 756.692,404.792 M 763.159,429.0 L 763.168,429.068 L 763.022,429.01599999999996 L 762.971,429.03999999999996 L 762.808,429.02099999999996 L 762.728,428.626 L 762.7399999999999,428.53299999999996 L 762.8559999999999,428.56199999999995 L 763.0219999999999,428.758 L 763.107,428.894 L 763.159,429.0 M 763.663,429.889 L 763.617,430.18600000000004 L 763.457,430.064 L 763.495,429.91400000000004 L 763.558,429.84600000000006 L 763.663,429.889 M 756.557,435.507 L 756.53,435.55400000000003 L 756.4209999999999,435.46400000000006 L 756.3439999999999,435.3620000000001 L 756.3029999999999,435.2320000000001 L 756.4709999999999,435.2370000000001 L 756.5539999999999,435.3570000000001 L 756.557,435.507 M 756.547,435.82 L 756.5600000000001,435.98 L 756.499,436.172 L 756.243,436.285 L 756.1550000000001,436.13100000000003 L 756.1780000000001,435.894 L 756.2170000000001,435.834 L 756.4680000000001,435.846 L 756.547,435.82 M 751.599,437.331 L 751.44,437.361 L 751.461,437.207 L 751.503,437.11 L 751.58,437.084 L 751.6120000000001,437.25 L 751.599,437.331 M 751.884,440.571 L 751.854,440.778 L 751.739,440.77500000000003 L 751.6220000000001,440.908 L 751.5670000000001,440.926 L 751.4720000000001,440.50399999999996 L 751.5810000000001,439.912 L 751.6400000000001,439.828 L 751.7210000000001,439.98499999999996 L 751.9560000000001,440.05499999999995 L 751.8540000000002,440.39599999999996 L 751.884,440.571 M 752.396,440.481 L 752.3629999999999,440.528 L 752.2199999999999,439.98900000000003 L 752.4309999999999,440.134 L 752.396,440.481 M 753.762,441.443 L 753.8349999999999,441.782 L 753.732,441.71299999999997 L 753.6469999999999,441.56499999999994 L 753.6479999999999,441.34799999999996 L 753.6689999999999,441.318 L 753.762,441.443 M 755.402,444.449 L 755.349,444.466 L 755.244,444.23900000000003 L 755.3770000000001,443.91 L 755.5100000000001,444.31300000000005 L 755.402,444.449" id="TH" title="Thailand"/>
</svg>
