<svg xmlns="http://www.w3.org/2000/svg" xmlns:ev="http://www.w3.org/2001/xml-events" xmlns:xlink="http://www.w3.org/1999/xlink" baseProfile="full" height="15.625" version="1.1" viewBox="664.7210083007812 336.8800048828125 21.79901123046875 15.625" width="21.79901123046875" fill="#00394f">
	<defs/>
	<path class="land" d="M 674.842,339.814 L 674.851,339.88100000000003 L 674.81,340.002 L 674.227,340.208 L 673.962,340.382 L 673.905,340.69100000000003 L 673.8349999999999,340.78000000000003 L 673.7169999999999,340.853 L 673.5999999999999,340.87 L 673.4209999999999,340.507 L 673.217,340.432 L 672.924,340.30400000000003 L 672.355,340.05600000000004 L 672.061,339.94800000000004 L 671.496,340.11 L 670.836,340.332 L 670.7330000000001,340.467 L 670.663,340.61199999999997 L 670.67,340.722 L 670.718,340.86899999999997 L 670.685,340.981 L 670.5609999999999,341.017 L 670.3739999999999,340.881 L 670.2109999999999,340.80199999999996 L 670.1309999999999,340.98799999999994 L 670.0349999999999,341.3179999999999 L 669.9909999999999,341.55799999999994 L 670.1349999999999,341.90399999999994 L 670.1839999999999,342.41499999999996 L 670.4479999999999,342.388 L 670.6489999999999,342.38899999999995 L 671.0289999999999,342.23799999999994 L 671.2199999999999,342.2339999999999 L 671.5149999999999,342.2999999999999 L 672.0319999999999,342.3129999999999 L 672.4399999999999,342.2859999999999 L 672.539,342.2969999999999 L 672.636,342.19999999999993 L 672.7429999999999,342.2339999999999 L 672.843,342.35099999999994 L 673.256,342.20899999999995 L 673.563,342.18899999999996 L 673.751,342.23099999999994 L 673.862,342.2729999999999 L 674.0609999999999,342.61099999999993 L 674.213,342.81999999999994 L 674.399,342.88699999999994 L 674.976,342.82499999999993 L 675.145,342.5299999999999 L 675.293,342.45699999999994 L 675.5310000000001,342.43499999999995 L 675.7270000000001,342.37799999999993 L 675.883,342.25699999999995 L 676.096,342.15099999999995 L 676.282,342.12999999999994 L 676.374,342.2079999999999 L 676.414,342.3109999999999 L 676.382,342.4439999999999 L 676.375,342.5829999999999 L 676.495,342.67599999999993 L 676.849,342.6979999999999 L 677.0160000000001,342.7849999999999 L 677.0260000000001,342.9489999999999 L 676.999,343.2059999999999 L 677.147,343.3099999999999 L 677.224,343.3189999999999 L 677.743,343.0469999999999 L 677.889,343.0429999999999 L 678.005,343.19299999999987 L 678.182,343.3729999999999 L 678.414,343.5649999999999 L 678.47,343.5349999999999 L 678.5740000000001,343.3259999999999 L 678.772,343.0979999999999 L 679.144,343.0229999999999 L 679.349,342.9519999999999 L 679.5640000000001,342.9199999999999 L 680.2160000000001,343.0119999999999 L 680.4320000000001,343.0239999999999 L 680.8810000000001,343.0059999999999 L 681.234,342.9599999999999 L 681.518,342.8229999999999 L 681.662,342.7129999999999 L 681.895,342.6489999999999 L 682.1899999999999,342.6599999999999 L 682.347,342.6919999999999 L 682.361,342.8799999999999 L 682.324,343.2369999999999 L 682.279,343.4849999999999 L 682.512,343.9339999999999 L 682.661,344.1499999999999 L 682.8069999999999,344.30299999999994 L 682.834,344.4239999999999 L 682.804,344.52199999999993 L 682.6229999999999,344.61799999999994 L 682.5579999999999,344.7199999999999 L 682.5279999999999,344.8349999999999 L 682.5869999999999,344.9679999999999 L 682.6909999999999,345.3919999999999 L 682.8249999999999,345.7209999999999 L 683.0139999999999,345.8789999999999 L 683.2969999999999,345.9829999999999 L 683.4519999999999,345.9609999999999 L 683.5629999999999,345.7149999999999 L 683.7489999999999,345.52699999999993 L 683.906,345.5399999999999 L 684.159,345.5319999999999 L 684.823,345.74499999999995 L 685.471,346.06699999999995 L 685.659,346.24499999999995 L 685.725,346.44499999999994 L 685.546,346.9069999999999 L 685.5540000000001,347.2009999999999 L 685.5950000000001,347.51499999999993 L 685.7430000000002,347.74699999999996 L 685.8790000000001,348.145 L 685.9050000000001,348.474 L 685.964,348.572 L 686.0120000000001,348.687 L 685.94,348.988 L 685.889,349.291 L 685.95,349.392 L 686.148,349.541 L 686.46,349.82 L 686.52,350.05 L 686.409,350.196 L 686.211,350.374 L 685.957,350.52700000000004 L 685.882,350.59100000000007 L 685.837,350.55500000000006 L 685.711,350.4000000000001 L 685.431,350.1500000000001 L 685.2320000000001,350.0180000000001 L 684.8520000000001,350.06000000000006 L 684.6290000000001,350.01400000000007 L 684.3600000000001,349.9320000000001 L 684.1090000000002,349.9440000000001 L 683.9510000000001,350.0950000000001 L 683.8490000000002,350.2460000000001 L 683.5980000000002,350.2920000000001 L 683.2370000000002,350.4080000000001 L 682.6770000000002,350.58900000000006 L 682.4070000000003,350.56200000000007 L 682.3340000000003,350.4840000000001 L 682.3950000000003,350.3800000000001 L 682.5860000000004,350.2450000000001 L 682.6330000000004,350.0820000000001 L 682.5960000000003,349.9310000000001 L 682.4170000000004,349.8900000000001 L 682.3490000000004,349.8660000000001 L 682.2700000000004,349.8350000000001 L 681.9240000000004,349.7450000000001 L 681.6480000000005,349.77800000000013 L 681.1670000000005,349.96700000000016 L 680.2810000000005,350.46300000000014 L 679.8920000000005,350.79600000000016 L 679.6120000000005,351.29900000000015 L 678.7740000000006,351.4610000000001 L 678.1980000000005,351.74900000000014 L 677.6040000000005,352.21700000000016 L 677.2110000000005,352.46900000000016 L 677.0200000000004,352.50500000000017 L 676.8290000000004,352.46000000000015 L 676.6380000000004,352.33500000000015 L 676.4510000000004,351.94300000000015 L 676.2850000000003,351.34900000000016 L 676.1760000000003,350.95500000000015 L 676.2380000000003,350.4490000000002 L 676.3080000000003,349.8720000000002 L 676.3790000000004,349.28400000000016 L 676.4940000000004,348.6030000000002 L 676.5900000000004,348.3600000000002 L 676.5950000000004,348.1980000000002 L 676.5100000000003,348.1160000000002 L 676.3300000000004,348.12000000000023 L 676.0550000000004,348.21100000000024 L 675.8600000000004,348.22700000000026 L 675.7440000000004,348.16800000000023 L 675.7560000000003,347.8510000000002 L 675.8960000000003,347.2740000000002 L 675.6810000000003,346.78800000000024 L 675.1090000000003,346.3920000000002 L 674.6230000000003,346.25400000000025 L 674.2220000000003,346.3750000000002 L 673.8850000000003,346.68900000000025 L 673.6130000000003,347.19600000000025 L 673.3300000000003,347.61000000000024 L 673.0370000000003,347.93100000000027 L 672.8270000000002,348.08600000000024 L 672.7600000000002,348.14600000000024 L 672.7180000000002,348.28200000000027 L 672.8730000000002,348.7090000000003 L 672.8630000000002,349.0660000000003 L 672.6870000000001,349.3550000000003 L 672.4940000000001,349.4920000000003 L 672.2830000000001,349.4790000000003 L 672.1150000000001,349.4120000000003 L 671.9910000000001,349.29100000000034 L 671.6550000000001,349.2580000000003 L 671.1070000000001,349.31300000000033 L 670.7320000000001,349.45700000000033 L 670.5300000000001,349.6910000000003 L 670.4710000000001,349.9990000000003 L 670.5560000000002,350.3800000000003 L 670.5140000000001,350.67200000000025 L 670.3430000000001,350.8750000000002 L 670.2030000000001,350.9910000000002 L 670.094,351.0210000000002 L 669.856,350.8460000000002 L 669.491,350.4660000000002 L 669.24,350.26000000000016 L 669.1030000000001,350.22900000000016 L 669.0290000000001,350.25000000000017 L 668.9450000000002,350.2900000000002 L 668.8970000000002,350.33900000000017 L 668.8560000000001,350.45200000000017 L 668.7390000000001,350.4970000000002 L 668.5740000000002,350.4610000000002 L 668.4230000000002,350.4950000000002 L 668.3320000000002,350.6140000000002 L 668.0780000000002,350.7580000000002 L 667.6300000000002,350.9190000000002 L 667.3850000000002,351.09100000000024 L 667.3440000000002,351.2740000000002 L 667.2780000000001,351.3560000000002 L 667.1400000000001,351.32600000000025 L 666.7360000000001,351.5770000000002 L 666.4270000000001,351.49900000000025 L 666.0800000000002,351.1760000000003 L 665.8880000000001,350.91000000000025 L 665.8680000000002,350.79800000000023 L 665.9770000000002,350.54300000000023 L 666.0230000000003,349.69200000000023 L 666.1620000000003,349.3970000000002 L 666.5750000000003,348.86700000000025 L 666.7900000000003,348.4620000000003 L 667.0330000000004,348.1320000000003 L 667.2080000000003,348.0220000000003 L 667.3700000000003,347.7620000000003 L 667.5020000000003,347.4640000000003 L 667.5390000000003,347.2760000000003 L 667.5270000000004,347.1290000000003 L 667.4790000000004,347.0340000000003 L 667.2500000000003,346.8320000000003 L 666.9490000000003,346.5170000000003 L 666.7890000000003,346.1940000000003 L 666.7020000000003,345.7820000000003 L 666.6790000000003,345.4940000000003 L 666.9610000000004,344.7010000000003 L 666.9160000000004,344.5680000000003 L 666.8350000000004,344.44500000000033 L 666.6690000000003,344.36700000000036 L 666.4320000000004,344.33400000000034 L 666.1960000000004,344.37000000000035 L 665.8950000000003,344.37300000000033 L 665.6870000000004,344.3280000000003 L 665.6370000000004,344.2780000000003 L 665.6110000000004,343.9160000000003 L 665.5580000000004,343.8370000000003 L 665.4690000000004,343.76800000000026 L 664.8620000000004,343.6010000000003 L 664.7430000000004,343.5290000000003 L 664.7210000000003,343.4370000000003 L 664.9360000000004,342.6290000000003 L 665.0290000000003,342.5680000000003 L 665.1200000000003,342.4360000000003 L 665.2630000000004,342.2950000000003 L 665.7580000000004,342.0640000000003 L 666.2900000000004,342.1640000000003 L 666.7630000000004,342.27100000000036 L 667.2350000000004,342.32900000000035 L 667.3980000000004,342.36800000000034 L 667.6670000000004,342.4000000000003 L 667.8480000000004,342.3720000000003 L 667.9710000000005,342.27700000000027 L 668.1930000000004,342.01500000000027 L 668.2610000000004,341.62100000000027 L 668.3410000000005,341.27300000000025 L 668.4760000000005,341.24600000000027 L 668.6120000000004,341.28300000000024 L 668.6760000000004,341.21300000000025 L 668.7030000000004,341.11700000000025 L 668.7300000000005,341.03500000000025 L 668.7860000000005,341.0170000000003 L 668.8840000000005,341.10700000000026 L 668.9400000000005,341.08300000000025 L 668.9860000000006,341.0220000000003 L 668.9720000000005,340.9500000000003 L 668.8620000000005,340.82800000000026 L 668.7630000000005,340.6370000000003 L 668.7730000000005,340.5710000000003 L 668.8060000000005,340.5020000000003 L 669.0970000000005,340.4370000000003 L 669.2300000000006,340.4250000000003 L 669.2760000000006,340.3570000000003 L 669.2590000000006,340.2490000000003 L 669.1490000000006,340.18800000000033 L 668.7510000000005,340.22100000000034 L 668.3440000000005,340.21400000000034 L 668.2950000000005,340.14800000000037 L 668.3180000000006,340.0750000000004 L 668.3800000000006,340.01800000000037 L 669.2200000000006,339.87200000000036 L 669.6650000000006,339.92300000000034 L 669.9960000000007,340.00000000000034 L 670.1260000000007,339.96200000000033 L 669.9720000000007,339.63200000000035 L 670.1820000000007,339.60100000000034 L 670.2090000000007,339.48800000000034 L 669.9340000000008,338.6090000000003 L 670.0850000000007,338.53100000000035 L 670.2360000000007,338.35800000000035 L 670.2230000000006,338.02900000000034 L 670.3570000000007,337.8690000000003 L 670.5160000000006,337.7590000000003 L 670.7520000000006,337.8700000000003 L 671.1180000000006,338.1950000000003 L 671.2360000000007,338.25800000000027 L 671.3540000000007,338.27600000000024 L 671.5240000000007,338.17500000000024 L 672.1760000000007,337.8540000000002 L 672.5420000000007,337.67300000000023 L 672.9800000000007,337.41000000000025 L 673.0550000000007,337.3080000000003 L 673.2050000000007,336.90700000000027 L 673.2870000000007,336.8800000000003 L 673.3980000000007,336.9230000000003 L 673.7820000000007,337.3380000000003 L 674.0040000000007,337.6040000000003 L 674.0040000000007,337.69500000000033 L 673.9410000000007,337.7630000000003 L 673.9530000000007,337.8290000000003 L 674.2670000000006,337.9730000000003 L 674.2670000000006,338.0380000000003 L 674.1960000000006,338.1630000000003 L 674.1580000000006,338.2320000000003 L 674.1190000000006,338.2610000000003 L 673.6990000000006,338.62300000000033 L 673.2330000000006,339.0250000000003 L 673.2170000000007,339.07700000000034 L 673.1960000000007,339.17700000000036 L 673.2010000000007,339.27900000000034 L 673.2760000000007,339.36300000000034 L 673.4770000000008,339.42200000000037 L 673.6560000000007,339.4980000000004 L 673.7470000000008,339.70800000000037 L 673.8510000000008,339.9020000000004 L 673.9920000000008,339.9500000000004 L 674.6830000000008,339.8270000000004 L 674.842,339.814 M 673.985,337.246 L 673.9010000000001,337.25399999999996 L 673.7500000000001,337.07899999999995 L 673.6970000000001,336.95599999999996 L 673.7590000000001,336.919 L 673.8890000000001,337.00399999999996 L 673.9760000000001,337.155 L 673.985,337.246 M 674.123,341.324 L 673.8710000000001,341.464 L 673.724,341.449 L 673.61,341.313 L 673.527,341.186 L 673.509,341.114 L 673.551,341.11499999999995 L 673.745,341.17299999999994 L 674.017,341.21299999999997 L 674.113,341.248 L 674.123,341.324" id="TJ" title="Tajikistan"/>
</svg>
