<svg xmlns="http://www.w3.org/2000/svg" xmlns:ev="http://www.w3.org/2001/xml-events" xmlns:xlink="http://www.w3.org/1999/xlink" baseProfile="full" height="3.871002197265625" version="1.1" viewBox="823.8060302734375 485.44000244140625 9.14898681640625 3.871002197265625" width="9.14898681640625">
	<defs/>
	<path class="land" d="M 828.324,485.44 L 828.136,485.924 L 827.933,485.82099999999997 L 828.149,485.549 L 828.253,485.46799999999996 L 828.324,485.44 M 826.701,489.311 L 826.604,488.943 L 826.5010000000001,488.78499999999997 L 826.421,488.695 L 826.394,488.58299999999997 L 826.398,488.46799999999996 L 826.447,488.41499999999996 L 826.793,488.4 L 826.93,488.21099999999996 L 826.929,487.984 L 826.86,487.907 L 826.793,487.875 L 826.437,488.045 L 826.3340000000001,488.014 L 826.273,487.952 L 826.293,487.701 L 826.587,487.466 L 826.836,487.04 L 827.011,486.87 L 827.418,486.711 L 827.583,486.666 L 828.769,486.431 L 829.052,486.41499999999996 L 829.803,486.42199999999997 L 830.809,486.371 L 831.057,486.339 L 831.379,486.235 L 831.692,486.107 L 831.857,486.00600000000003 L 832.031,485.93300000000005 L 832.29,486.02500000000003 L 832.728,486.09400000000005 L 832.846,486.15500000000003 L 832.955,486.23900000000003 L 832.446,486.687 L 831.8860000000001,487.059 L 831.541,487.17100000000005 L 831.1850000000001,487.24700000000007 L 830.913,487.3910000000001 L 830.684,487.6160000000001 L 830.391,487.7420000000001 L 830.0609999999999,487.7850000000001 L 829.7779999999999,487.8520000000001 L 829.5219999999999,487.9840000000001 L 829.1669999999999,488.21100000000007 L 829.0219999999999,488.2340000000001 L 828.8699999999999,488.2290000000001 L 828.5749999999999,488.3160000000001 L 827.656,488.6400000000001 L 827.101,489.0010000000001 L 826.701,489.311 M 823.806,488.83 L 824.26,488.589 L 824.951,488.403 L 824.933,488.53900000000004 L 824.8629999999999,488.75300000000004 L 824.7589999999999,488.85400000000004 L 824.6009999999999,489.035 L 824.4969999999998,489.07500000000005 L 824.0829999999999,489.035 L 824.0289999999999,489.06100000000004 L 823.9579999999999,489.04200000000003 L 823.8529999999998,488.92600000000004 L 823.806,488.83" id="TL" title="Timor-Leste"/>
</svg>
