<svg xmlns="http://www.w3.org/2000/svg" xmlns:ev="http://www.w3.org/2001/xml-events" xmlns:xlink="http://www.w3.org/1999/xlink" baseProfile="full" height="27.39801025390625" version="1.1" viewBox="623.0170288085938 330.3320007324219 39.67498779296875 27.39801025390625" width="39.67498779296875" fill="#00394f">
	<defs/>
	<path class="land" d="M 662.394,350.182 L 662.252,350.195 L 661.911,350.113 L 661.232,349.949 L 660.649,349.62 L 660.268,349.40500000000003 L 660.2080000000001,349.434 L 660.037,349.581 L 659.9200000000001,349.762 L 659.8270000000001,350.112 L 659.6780000000001,350.524 L 658.9730000000001,350.54 L 658.3720000000001,350.571 L 657.984,350.72700000000003 L 657.604,350.942 L 657.509,351.197 L 657.427,351.528 L 657.205,352.27700000000004 L 657.004,352.95900000000006 L 656.9,353.40000000000003 L 656.747,353.70200000000006 L 656.317,354.09900000000005 L 655.83,354.36600000000004 L 655.571,354.49100000000004 L 655.457,354.64700000000005 L 655.432,354.79400000000004 L 655.34,354.83900000000006 L 655.139,354.81300000000005 L 654.927,354.838 L 654.461,354.992 L 653.957,355.18100000000004 L 653.353,355.369 L 653.0079999999999,355.369 L 652.871,355.411 L 652.81,355.50600000000003 L 652.871,355.685 L 652.93,355.818 L 652.983,355.99 L 652.8409999999999,356.129 L 652.7419999999998,356.368 L 652.6649999999998,356.788 L 652.4509999999998,356.913 L 652.1069999999997,357.117 L 651.7279999999997,357.385 L 651.6299999999998,357.44 L 651.4119999999998,357.516 L 651.1949999999998,357.493 L 650.9979999999998,357.454 L 650.7839999999998,357.523 L 650.5619999999998,357.73 L 650.4589999999998,357.66700000000003 L 650.4069999999998,357.458 L 650.2959999999998,357.322 L 649.9489999999998,357.015 L 649.6519999999998,356.796 L 649.5239999999998,356.781 L 649.2519999999997,356.838 L 648.9109999999997,356.879 L 648.6339999999997,356.83500000000004 L 648.4139999999996,356.747 L 648.0749999999996,356.445 L 647.9509999999996,356.282 L 647.8579999999996,356.157 L 647.6269999999996,356.191 L 647.5619999999996,356.05499999999995 L 647.5529999999995,355.8949999999999 L 647.6169999999995,355.70199999999994 L 647.5979999999995,355.33699999999993 L 647.4679999999995,355.07499999999993 L 647.3199999999995,354.96099999999996 L 647.3389999999995,354.881 L 647.4039999999995,354.698 L 647.4869999999995,354.53799999999995 L 647.4859999999995,354.222 L 647.3819999999995,353.87899999999996 L 647.3409999999994,353.38199999999995 L 647.3669999999994,352.89699999999993 L 647.2259999999994,352.65199999999993 L 646.0699999999995,352.65099999999995 L 645.0419999999995,352.66999999999996 L 644.9839999999995,352.614 L 644.5839999999995,352.001 L 644.2599999999995,351.53499999999997 L 643.9399999999995,351.26 L 643.2069999999995,350.921 L 642.8559999999995,350.779 L 642.5549999999995,350.52 L 642.3089999999995,350.23499999999996 L 642.2459999999995,349.84499999999997 L 642.1959999999996,349.717 L 642.1249999999995,349.613 L 642.0479999999995,349.567 L 641.9539999999995,349.577 L 641.1019999999995,349.123 L 640.7599999999995,349.003 L 640.4379999999995,349.099 L 640.2959999999995,349.116 L 640.0159999999995,348.98699999999997 L 639.6939999999995,349.162 L 639.5569999999996,349.173 L 639.3649999999996,349.13100000000003 L 639.2059999999996,349.06600000000003 L 638.7769999999996,348.651 L 638.4169999999996,348.48400000000004 L 638.1579999999996,348.377 L 637.6589999999995,348.219 L 637.1279999999996,348.137 L 636.8549999999996,348.069 L 636.6589999999995,347.978 L 636.6079999999995,347.919 L 636.6109999999995,347.767 L 636.5959999999995,347.567 L 636.5309999999995,347.421 L 636.3959999999995,347.246 L 636.2089999999995,347.115 L 635.8869999999995,347.13800000000003 L 635.4039999999995,347.127 L 635.0339999999995,346.99600000000004 L 634.7399999999996,346.973 L 634.3859999999995,346.998 L 634.0959999999995,346.998 L 633.8889999999996,347.094 L 633.7689999999996,347.206 L 633.6929999999995,347.548 L 633.6229999999995,347.599 L 633.5019999999995,347.62399999999997 L 633.3409999999996,347.606 L 633.0009999999995,347.609 L 632.4139999999995,347.548 L 631.6769999999996,347.53000000000003 L 631.1219999999996,347.70300000000003 L 630.6839999999996,347.951 L 630.2659999999996,348.23 L 629.7739999999997,348.67 L 629.6289999999997,348.86600000000004 L 629.3389999999997,349.64500000000004 L 629.2099999999997,349.75700000000006 L 629.0419999999997,349.84600000000006 L 628.8719999999997,349.8620000000001 L 628.5339999999998,349.9770000000001 L 628.0879999999997,350.1670000000001 L 627.7849999999997,350.2410000000001 L 627.0059999999997,350.2020000000001 L 626.9599999999997,349.9550000000001 L 626.8199999999997,349.0530000000001 L 626.7519999999997,348.1390000000001 L 626.7559999999997,347.7170000000001 L 626.8379999999997,346.8680000000001 L 626.8309999999998,346.43900000000014 L 626.7979999999998,346.0500000000001 L 626.8299999999998,345.6680000000001 L 626.8929999999998,345.2380000000001 L 626.9249999999998,344.8000000000001 L 626.8779999999998,344.49400000000014 L 626.7279999999998,344.2470000000001 L 626.4729999999998,343.94100000000014 L 626.4329999999999,343.7590000000001 L 626.4179999999999,343.55700000000013 L 626.1739999999999,343.5340000000001 L 625.9539999999998,343.3250000000001 L 625.7729999999998,343.2110000000001 L 625.3829999999998,343.0840000000001 L 625.1889999999999,343.07800000000015 L 625.0099999999999,343.17100000000016 L 624.8789999999999,343.3580000000002 L 624.7869999999999,343.06300000000016 L 624.79,342.75400000000013 L 625.101,342.1150000000001 L 625.296,342.30200000000013 L 625.533,342.3770000000001 L 625.835,342.38800000000015 L 626.1320000000001,342.33900000000017 L 626.0740000000001,342.1200000000002 L 625.936,341.9950000000002 L 625.764,341.89700000000016 L 625.703,341.60700000000014 L 625.7239999999999,341.30600000000015 L 625.805,341.02100000000013 L 625.712,340.9060000000001 L 625.572,340.8350000000001 L 625.247,340.8430000000001 L 624.8259999999999,340.7680000000001 L 624.4019999999999,340.73500000000007 L 624.3019999999999,341.0710000000001 L 624.536,341.5110000000001 L 624.338,341.2950000000001 L 624.15,341.00900000000007 L 623.888,340.49300000000005 L 623.719,339.88700000000006 L 623.6890000000001,339.23100000000005 L 623.8320000000001,338.68800000000005 L 624.0160000000001,338.17600000000004 L 624.1260000000001,337.51900000000006 L 624.2780000000001,336.87300000000005 L 624.4290000000001,337.16300000000007 L 624.6030000000001,337.42300000000006 L 624.8430000000001,337.66200000000003 L 624.975,337.71900000000005 L 625.371,337.81800000000004 L 625.626,337.78100000000006 L 625.8969999999999,337.63900000000007 L 626.164,337.68500000000006 L 626.385,337.9510000000001 L 626.581,338.2490000000001 L 626.879,338.31200000000007 L 627.493,338.0970000000001 L 627.7850000000001,338.0480000000001 L 628.0390000000001,338.1470000000001 L 628.1700000000001,338.1650000000001 L 628.3030000000001,338.1480000000001 L 628.1880000000001,337.88400000000007 L 628.1410000000001,337.62700000000007 L 628.2950000000001,337.49100000000004 L 628.7790000000001,337.636 L 629.0880000000001,337.54 L 629.167,337.48600000000005 L 629.236,337.41900000000004 L 629.273,337.19700000000006 L 629.258,336.9680000000001 L 629.2180000000001,336.7530000000001 L 629.128,336.5640000000001 L 628.9050000000001,336.2990000000001 L 628.042,335.6660000000001 L 627.751,335.4130000000001 L 627.509,335.08500000000015 L 627.355,334.6220000000001 L 627.23,334.13800000000015 L 627.114,333.77800000000013 L 626.813,332.9400000000001 L 626.696,332.8400000000001 L 626.549,332.7960000000001 L 626.192,332.7700000000001 L 625.83,332.8310000000001 L 625.238,332.97600000000006 L 624.899,332.93100000000004 L 624.742,333.02000000000004 L 624.3539999999999,333.374 L 624.1719999999999,333.67600000000004 L 623.9179999999999,334.36600000000004 L 624.1099999999999,334.588 L 624.1059999999999,334.73400000000004 L 623.9599999999999,335.74800000000005 L 624.049,336.23900000000003 L 624.0169999999999,336.27500000000003 L 623.948,336.16100000000006 L 623.728,335.66100000000006 L 623.341,335.04900000000004 L 623.017,334.11 L 623.586,333.494 L 624.073,333.05600000000004 L 624.471,332.79200000000003 L 624.593,332.728 L 625.1379999999999,332.509 L 625.8409999999999,332.31100000000004 L 626.3599999999999,332.165 L 627.036,332.04 L 627.2579999999999,332.017 L 627.583,332.019 L 627.847,332.136 L 628.006,332.228 L 628.5699999999999,332.605 L 629.145,332.98900000000003 L 629.639,333.41400000000004 L 629.779,333.58700000000005 L 629.857,333.79400000000004 L 629.9159999999999,333.997 L 630.3349999999999,334.639 L 630.5049999999999,334.932 L 630.7499999999999,335.313 L 630.9469999999999,335.49899999999997 L 631.1389999999999,335.72799999999995 L 631.2679999999999,335.91599999999994 L 631.415,336.00499999999994 L 631.579,336.03999999999996 L 631.953,335.97999999999996 L 632.403,335.86099999999993 L 632.672,335.8109999999999 L 632.792,335.8179999999999 L 633.534,335.8599999999999 L 634.202,335.8979999999999 L 635.026,335.94499999999994 L 635.271,335.9889999999999 L 635.5649999999999,336.0299999999999 L 635.7109999999999,336.0359999999999 L 635.8409999999999,335.8729999999999 L 635.9269999999999,335.7839999999999 L 635.9939999999999,335.71299999999985 L 635.9799999999999,335.63299999999987 L 635.8759999999999,335.5649999999999 L 635.7119999999999,335.3389999999999 L 635.6179999999998,334.5219999999999 L 635.5589999999999,333.8199999999999 L 635.7539999999999,333.6009999999999 L 635.9789999999999,333.4419999999999 L 636.3019999999999,332.9629999999999 L 636.4759999999999,332.8149999999999 L 636.7309999999999,332.6919999999999 L 637.5849999999999,332.6599999999999 L 637.9449999999999,332.5659999999999 L 638.0609999999999,332.41099999999994 L 638.2499999999999,332.01699999999994 L 638.3129999999999,331.6959999999999 L 638.4189999999999,331.5489999999999 L 638.5459999999998,331.43999999999994 L 638.6769999999998,331.44399999999996 L 638.9299999999998,331.53799999999995 L 639.1219999999998,331.59099999999995 L 639.2589999999998,331.662 L 639.3839999999998,331.77599999999995 L 639.5049999999998,331.97299999999996 L 639.5239999999998,332.10299999999995 L 639.5799999999998,332.17799999999994 L 639.6769999999998,332.1789999999999 L 639.7489999999998,332.1799999999999 L 639.7979999999998,332.1519999999999 L 639.8289999999997,332.0859999999999 L 639.8049999999997,331.9979999999999 L 639.6399999999998,331.74599999999987 L 639.2769999999997,331.2889999999999 L 639.0399999999997,331.10199999999986 L 638.9219999999997,331.00099999999986 L 638.8929999999997,330.90499999999986 L 639.0469999999997,330.7599999999999 L 639.1959999999997,330.67699999999985 L 639.4579999999996,330.73899999999986 L 639.8069999999997,330.77299999999985 L 639.9609999999997,330.6999999999999 L 640.1199999999997,330.3319999999999 L 640.5159999999996,330.72199999999987 L 640.9279999999997,331.15799999999984 L 641.0789999999996,331.23899999999986 L 641.3739999999996,331.28499999999985 L 641.6189999999996,331.3009999999999 L 641.7219999999995,331.3479999999999 L 641.8319999999995,331.4609999999999 L 642.0499999999995,331.9369999999999 L 642.2679999999995,332.0619999999999 L 642.5389999999994,332.1519999999999 L 643.4139999999994,332.1439999999999 L 643.6829999999994,332.1679999999999 L 643.9019999999995,332.3909999999999 L 644.0389999999994,332.4829999999999 L 644.0979999999994,332.5619999999999 L 644.0829999999994,332.6599999999999 L 644.0289999999994,332.7849999999999 L 644.0219999999995,333.0249999999999 L 644.0079999999995,333.2109999999999 L 643.9379999999994,333.2989999999999 L 643.9169999999995,333.3809999999999 L 643.9749999999995,333.4529999999999 L 644.3799999999994,333.6289999999999 L 644.5169999999994,333.8179999999999 L 644.6199999999993,333.90199999999993 L 644.6439999999993,334.0199999999999 L 644.5759999999993,334.0979999999999 L 644.3859999999993,334.0589999999999 L 644.2929999999993,334.18299999999994 L 644.2929999999993,334.4049999999999 L 644.4289999999993,334.61299999999994 L 644.4689999999993,334.80299999999994 L 644.3789999999992,334.98599999999993 L 644.2739999999992,335.2439999999999 L 644.2709999999992,335.42599999999993 L 644.3329999999992,335.5299999999999 L 644.6439999999992,335.7179999999999 L 645.3589999999992,336.1919999999999 L 645.5239999999992,336.2119999999999 L 646.2009999999992,336.10199999999986 L 646.5159999999993,336.09099999999984 L 646.7019999999993,336.16499999999985 L 647.2259999999993,336.23199999999986 L 647.3919999999994,336.3079999999999 L 647.5699999999994,336.3129999999999 L 647.8119999999993,336.2909999999999 L 647.9759999999993,336.0789999999999 L 648.0599999999993,336.0309999999999 L 648.1339999999992,335.99599999999987 L 648.2829999999992,335.9909999999999 L 648.6969999999992,336.12599999999986 L 649.1339999999992,336.40999999999985 L 649.4219999999992,336.66899999999987 L 649.5649999999993,336.90299999999985 L 649.7449999999992,337.4089999999998 L 649.9629999999992,338.1859999999998 L 650.2249999999991,338.70899999999983 L 650.5329999999991,338.97999999999985 L 650.7489999999991,339.47799999999984 L 650.9369999999991,340.56099999999986 L 651.0529999999991,340.78199999999987 L 651.1719999999991,340.8969999999999 L 651.5239999999991,341.2089999999999 L 652.2429999999991,341.7249999999999 L 652.6669999999991,342.0289999999999 L 653.3229999999991,342.51299999999986 L 653.924999999999,342.95599999999985 L 654.527999999999,343.63799999999986 L 654.647999999999,343.7379999999999 L 655.177999999999,344.1059999999999 L 655.767999999999,344.48199999999986 L 656.180999999999,344.3969999999999 L 656.802999999999,344.97499999999985 L 657.055999999999,345.18899999999985 L 657.162999999999,345.26199999999983 L 657.613999999999,345.48999999999984 L 658.331999999999,345.96599999999984 L 659.2379999999989,346.64599999999984 L 659.8379999999989,347.0389999999998 L 659.999999999999,347.0849999999998 L 660.161999999999,347.0829999999998 L 660.334999999999,346.9989999999998 L 660.522999999999,346.9329999999998 L 660.842999999999,347.0199999999998 L 661.189999999999,347.1769999999998 L 661.410999999999,347.2959999999998 L 661.664999999999,347.46799999999985 L 661.8659999999991,347.63199999999983 L 662.0179999999991,347.7069999999998 L 662.5369999999991,347.8499999999998 L 662.6259999999992,347.9349999999998 L 662.6829999999992,348.0299999999998 L 662.6919999999992,348.1289999999998 L 662.3999999999992,348.64699999999976 L 662.3609999999992,349.30599999999976 L 662.3589999999992,349.80099999999976 L 662.394,350.182 M 624.751,345.017 L 624.725,345.185 L 624.573,344.67900000000003 L 624.497,344.12 L 624.5939999999999,343.962 L 624.703,343.971 L 624.5989999999999,344.173 L 624.751,345.017" id="TM" title="Turkmenistan"/>
</svg>
