<svg xmlns="http://www.w3.org/2000/svg" xmlns:ev="http://www.w3.org/2001/xml-events" xmlns:xlink="http://www.w3.org/1999/xlink" baseProfile="full" height="23.9320068359375" version="1.1" viewBox="496.73199462890625 350.2070007324219 11.343017578125 23.9320068359375" width="11.343017578125" fill="#00394f">
	<defs/>
	<path class="land" d="M 507.987,364.445 L 507.98100000000005,364.533 L 507.88200000000006,365.166 L 507.86000000000007,365.393 L 507.8450000000001,365.77799999999996 L 507.8450000000001,366.23999999999995 L 508.0690000000001,366.62999999999994 L 508.07500000000005,366.80099999999993 L 507.98800000000006,366.9989999999999 L 507.57500000000005,367.2249999999999 L 507.04200000000003,367.5169999999999 L 506.584,367.79399999999987 L 506.082,368.09799999999984 L 505.928,368.29399999999987 L 505.679,368.4449999999999 L 505.47099999999995,368.5959999999999 L 505.43299999999994,368.7409999999999 L 505.2869999999999,369.0139999999999 L 505.0969999999999,369.2319999999999 L 504.61999999999995,369.3349999999999 L 504.5319999999999,369.3999999999999 L 504.3109999999999,369.7279999999999 L 504.20899999999995,369.8559999999999 L 504.08299999999997,370.1249999999999 L 504.24499999999995,370.8209999999999 L 504.4429999999999,371.5349999999999 L 504.4819999999999,371.83199999999994 L 504.4789999999999,372.07899999999995 L 504.36799999999994,372.34499999999997 L 504.1139999999999,372.72499999999997 L 503.92799999999994,373.00399999999996 L 503.5709999999999,373.50499999999994 L 503.4659999999999,373.62899999999996 L 503.2199999999999,373.775 L 502.7449999999999,373.96799999999996 L 502.4099999999999,374.13899999999995 L 502.2399999999999,373.37499999999994 L 502.0939999999999,372.7219999999999 L 501.9739999999999,372.1819999999999 L 501.76299999999986,371.2289999999999 L 501.58299999999986,370.4169999999999 L 501.4039999999999,369.60599999999994 L 501.2409999999999,368.86799999999994 L 501.0769999999999,368.12299999999993 L 501.0069999999999,368.01399999999995 L 500.5159999999999,367.662 L 500.0639999999999,367.337 L 499.5929999999999,366.967 L 499.0829999999999,366.566 L 499.0009999999999,366.06 L 498.7389999999999,365.294 L 498.4629999999999,364.866 L 498.3589999999999,364.75399999999996 L 497.8019999999999,364.477 L 497.4809999999999,364.27299999999997 L 497.39299999999986,364.15399999999994 L 497.33099999999985,363.84099999999995 L 497.10199999999986,363.2169999999999 L 496.84099999999984,362.64899999999994 L 496.74499999999983,362.26399999999995 L 496.73199999999986,361.77899999999994 L 496.78299999999984,361.42799999999994 L 496.8969999999998,361.27799999999996 L 497.4409999999998,360.84 L 497.6929999999998,360.313 L 498.0049999999998,360.115 L 498.2749999999998,359.966 L 498.4939999999998,359.79200000000003 L 498.6879999999998,359.51300000000003 L 498.83599999999984,359.21500000000003 L 498.8609999999998,358.89200000000005 L 498.92299999999983,358.3790000000001 L 499.0219999999998,358.0200000000001 L 499.25199999999984,357.6130000000001 L 499.15499999999986,357.28500000000014 L 499.03299999999984,356.93100000000015 L 499.06799999999987,356.31600000000014 L 499.03699999999986,356.06600000000014 L 498.9379999999999,355.84500000000014 L 498.8369999999999,355.56100000000015 L 498.8339999999999,355.3240000000001 L 498.93099999999987,354.70100000000014 L 499.0049999999999,354.22400000000016 L 499.1229999999999,353.6030000000002 L 499.0809999999999,353.4290000000002 L 498.9929999999999,353.2990000000002 L 498.72899999999987,353.1620000000002 L 498.7259999999999,353.0790000000002 L 498.7899999999999,352.9870000000002 L 499.1799999999999,352.6830000000002 L 499.3889999999999,352.2360000000002 L 499.5639999999999,352.1430000000002 L 499.8299999999999,351.9810000000002 L 499.81999999999994,351.80700000000024 L 499.75999999999993,351.62000000000023 L 500.4529999999999,351.4090000000002 L 501.11299999999994,350.85500000000025 L 501.34599999999995,350.7190000000002 L 502.87799999999993,350.2070000000002 L 503.07699999999994,350.24200000000025 L 503.29999999999995,350.31700000000023 L 503.23599999999993,350.5080000000002 L 503.1479999999999,350.6590000000002 L 503.2779999999999,350.9260000000002 L 503.4639999999999,350.7630000000002 L 503.41699999999986,350.6540000000002 L 503.40599999999984,350.50900000000024 L 503.72099999999983,350.49600000000027 L 503.99999999999983,350.5190000000003 L 504.3059999999998,350.6780000000003 L 504.2849999999998,351.2810000000003 L 504.6929999999998,351.8700000000003 L 504.5779999999998,352.1630000000003 L 504.9119999999998,352.3360000000003 L 505.20899999999983,352.12800000000027 L 505.35799999999983,351.82100000000025 L 505.90499999999986,351.64300000000026 L 506.42499999999984,351.19100000000026 L 506.71299999999985,351.14500000000027 L 506.77799999999985,351.51600000000025 L 506.91699999999986,351.84000000000026 L 506.71999999999986,351.95400000000024 L 506.46999999999986,352.29800000000023 L 505.99499999999983,353.16800000000023 L 505.5579999999998,353.42300000000023 L 505.22999999999985,353.75700000000023 L 505.12399999999985,353.99400000000026 L 505.09199999999987,354.27000000000027 L 505.17399999999986,354.7640000000003 L 505.41299999999984,355.26500000000027 L 505.68899999999985,355.5670000000003 L 505.95499999999987,355.6610000000003 L 506.5739999999999,356.1370000000003 L 506.5639999999999,356.41900000000027 L 506.6499999999999,356.75400000000025 L 506.68299999999994,357.16100000000023 L 506.8979999999999,357.4860000000002 L 506.43799999999993,358.19200000000023 L 506.1859999999999,358.70100000000025 L 505.6939999999999,359.40100000000024 L 505.2559999999999,359.85500000000025 L 504.3179999999999,360.52800000000025 L 504.0879999999999,360.75100000000026 L 503.93799999999993,360.98200000000026 L 503.8689999999999,361.22300000000024 L 503.8939999999999,361.50600000000026 L 504.2029999999999,362.20100000000025 L 504.6139999999999,362.61000000000024 L 505.0319999999999,362.83100000000024 L 505.7589999999999,362.74200000000025 L 505.7339999999999,363.00900000000024 L 505.78599999999994,363.32800000000026 L 506.08099999999996,363.3130000000003 L 506.27899999999994,363.26300000000026 L 506.4459999999999,362.9520000000003 L 506.80099999999993,363.1650000000003 L 506.98599999999993,363.81300000000033 L 507.2869999999999,364.0150000000003 L 507.32199999999995,364.0900000000003 L 507.21599999999995,364.1400000000003 L 507.1329999999999,364.21400000000034 L 507.2219999999999,364.26700000000034 L 507.5129999999999,364.3470000000003 L 507.6889999999999,364.29600000000033 L 507.987,364.445 M 507.351,359.151 L 506.918,359.396 L 507.00100000000003,359.183 L 507.28700000000003,358.925 L 507.36100000000005,358.987 L 507.351,359.151 M 506.452,362.637 L 506.378,362.653 L 506.24199999999996,362.744 L 506.16999999999996,362.754 L 505.96599999999995,362.651 L 505.888,362.652 L 505.78999999999996,362.58 L 505.823,362.188 L 505.85499999999996,362.077 L 506.35099999999994,362.062 L 506.61999999999995,362.297 L 506.66399999999993,362.35900000000004 L 506.67499999999995,362.42600000000004 L 506.54999999999995,362.557 L 506.452,362.637" id="TN" title="Tunisia"/>
</svg>
