<svg xmlns="http://www.w3.org/2000/svg" xmlns:ev="http://www.w3.org/2001/xml-events" xmlns:xlink="http://www.w3.org/1999/xlink" baseProfile="full" height="8.5679931640625" version="1.1" viewBox="993.8820190429688 515.3670043945312 4.04498291015625 8.5679931640625" width="4.04498291015625" fill="#00394f">
	<defs/>
	<path class="land" d="M 997.837,515.585 L 997.731,515.759 L 997.68,515.7570000000001 L 997.5569999999999,515.6560000000001 L 997.512,515.5880000000001 L 997.6999999999999,515.383 L 997.7969999999999,515.3670000000001 L 997.9269999999999,515.436 L 997.9209999999999,515.494 L 997.837,515.585 M 994.445,523.093 L 994.485,523.093 L 994.529,523.005 L 994.68,522.973 L 994.6629999999999,523.068 L 994.459,523.376 L 994.3309999999999,523.256 L 993.9569999999999,523.059 L 993.8819999999998,522.9069999999999 L 994.0059999999999,522.7919999999999 L 993.9929999999998,522.8849999999999 L 994.0559999999998,522.9269999999999 L 994.2669999999998,522.9429999999999 L 994.4549999999998,523.0259999999998 L 994.3379999999999,523.0529999999999 L 994.445,523.093 M 995.144,523.485 L 995.128,523.9350000000001 L 994.9910000000001,523.729 L 994.9750000000001,523.633 L 995.1140000000001,523.494 L 995.144,523.485" id="TO" title="Tonga"/>
</svg>
