<svg xmlns="http://www.w3.org/2000/svg" xmlns:ev="http://www.w3.org/2001/xml-events" xmlns:xlink="http://www.w3.org/1999/xlink" baseProfile="full" height="22.53997802734375" version="1.1" viewBox="547.739013671875 332.92401123046875 53.74200439453125 22.53997802734375" width="53.74200439453125" fill="#00394f">
	<defs/>
	<path class="land" d="M 554.322,333.394 L 554.246,333.823 L 554.423,334.29499999999996 L 554.837,334.948 L 555.254,335.277 L 556.939,336.089 L 557.2489999999999,336.158 L 557.1789999999999,336.49 L 557.0769999999999,336.784 L 556.9659999999999,336.98 L 556.4719999999999,337.106 L 555.1099999999999,336.745 L 554.7649999999999,336.711 L 554.5219999999998,336.783 L 554.0719999999998,337.045 L 553.5729999999998,336.961 L 552.8769999999997,337.10900000000004 L 552.6829999999998,337.60200000000003 L 552.1999999999998,338.165 L 551.4049999999999,338.619 L 550.8369999999999,338.862 L 549.9829999999998,339.73 L 549.5959999999999,340.235 L 549.4329999999999,340.333 L 549.2389999999999,340.411 L 549.304,340.168 L 549.4,339.946 L 549.3779999999999,339.778 L 549.382,339.534 L 549.6659999999999,339.257 L 549.925,339.056 L 550.6899999999999,338.691 L 550.8919999999999,338.387 L 550.2919999999999,338.394 L 549.6819999999999,338.461 L 549.2989999999999,338.418 L 548.9649999999999,338.443 L 548.8599999999999,338.17699999999996 L 548.7789999999999,338.01699999999994 L 548.8659999999999,337.9669999999999 L 548.9759999999999,337.9319999999999 L 549.1719999999999,337.6479999999999 L 549.3469999999999,337.4389999999999 L 549.5989999999998,337.1749999999999 L 549.6629999999998,337.0169999999999 L 549.6629999999998,336.8699999999999 L 549.6019999999997,336.7679999999999 L 549.5899999999998,336.6459999999999 L 549.5819999999998,336.4749999999999 L 549.5959999999998,336.1199999999999 L 550.1739999999998,335.7319999999999 L 550.3589999999997,335.6909999999999 L 550.4219999999997,335.5129999999999 L 550.3799999999997,335.10099999999994 L 550.2999999999996,334.7679999999999 L 550.1959999999996,334.7459999999999 L 550.0569999999996,334.64899999999994 L 549.9659999999996,334.53599999999994 L 549.8199999999996,334.41299999999995 L 549.5689999999996,334.33699999999993 L 549.5609999999996,334.2319999999999 L 549.5869999999995,334.1269999999999 L 549.6799999999995,334.0189999999999 L 550.1039999999995,333.9259999999999 L 550.1539999999994,333.84999999999985 L 550.2109999999994,333.66199999999986 L 550.2949999999994,333.46999999999986 L 550.3949999999994,333.40699999999987 L 550.5739999999994,333.41299999999984 L 550.9139999999994,333.36899999999986 L 551.1509999999994,333.30599999999987 L 551.3859999999994,333.17399999999986 L 551.5069999999994,333.05399999999986 L 552.0169999999994,332.98499999999984 L 552.1599999999994,332.92399999999986 L 552.3019999999995,332.9759999999999 L 552.4929999999995,333.18099999999987 L 552.8069999999994,333.47499999999985 L 552.9749999999995,333.57299999999987 L 553.1009999999994,333.52799999999985 L 553.3289999999994,333.4209999999998 L 553.5469999999993,333.4209999999998 L 553.7229999999994,333.4399999999998 L 553.8079999999994,333.3469999999998 L 553.9409999999995,333.3269999999998 L 554.322,333.394 M 592.197,335.086 L 592.383,335.161 L 592.735,335.257 L 592.953,335.373 L 593.077,335.404 L 593.364,335.168 L 593.7900000000001,335.174 L 594.1650000000001,335.20099999999996 L 594.3580000000001,335.24499999999995 L 594.595,335.3229999999999 L 594.881,335.3759999999999 L 594.9979999999999,335.2629999999999 L 595.165,334.9299999999999 L 595.23,334.8879999999999 L 595.2760000000001,334.85799999999995 L 595.488,334.83199999999994 L 595.6890000000001,334.8569999999999 L 595.7840000000001,334.91399999999993 L 595.8790000000001,335.1809999999999 L 596.1180000000002,335.27599999999995 L 596.5400000000002,335.70099999999996 L 596.7980000000002,335.871 L 596.8610000000002,335.942 L 596.7760000000002,336.028 L 596.8100000000002,336.134 L 596.9570000000002,336.272 L 597.1640000000002,336.324 L 597.3880000000003,336.305 L 597.5100000000002,336.355 L 597.5970000000002,336.433 L 597.6200000000002,336.543 L 597.6140000000003,336.613 L 597.6580000000002,336.77 L 597.8330000000002,336.99199999999996 L 598.0410000000002,337.128 L 598.1530000000001,337.27299999999997 L 598.3350000000002,337.772 L 598.4090000000001,338.04699999999997 L 598.3810000000001,338.31199999999995 L 598.2550000000001,338.58299999999997 L 597.9790000000002,338.91999999999996 L 598.0470000000001,339.061 L 598.1090000000002,339.24699999999996 L 598.0880000000002,339.38199999999995 L 598.2840000000002,339.81199999999995 L 598.3730000000003,340.07899999999995 L 598.2990000000003,340.14099999999996 L 598.2510000000003,340.22599999999994 L 598.6030000000003,340.4309999999999 L 599.0250000000003,340.60299999999995 L 599.2030000000003,340.63599999999997 L 599.6870000000004,340.55699999999996 L 599.9990000000004,340.53999999999996 L 600.3090000000003,340.703 L 600.7600000000003,341.09799999999996 L 601.2470000000003,341.61199999999997 L 601.3440000000003,341.768 L 601.3860000000003,341.837 L 601.4810000000003,341.961 L 601.3820000000003,341.959 L 601.2220000000003,341.848 L 600.8350000000004,341.53200000000004 L 600.6370000000004,341.66800000000006 L 600.4660000000003,341.90200000000004 L 600.2790000000003,342.78900000000004 L 600.1280000000004,342.88300000000004 L 599.8610000000003,342.88100000000003 L 599.5340000000003,342.85 L 599.3090000000003,342.894 L 599.2510000000003,342.95 L 599.2810000000003,343.045 L 599.3480000000003,343.19100000000003 L 599.3950000000003,343.37500000000006 L 599.4090000000003,343.52500000000003 L 599.5270000000004,343.66100000000006 L 599.6860000000004,343.7900000000001 L 599.6930000000003,343.9220000000001 L 599.6690000000003,344.1090000000001 L 599.6320000000003,344.2510000000001 L 599.5920000000003,344.3320000000001 L 599.6660000000003,344.5480000000001 L 599.8390000000003,344.8030000000001 L 599.9490000000003,344.9010000000001 L 599.9080000000002,345.38600000000014 L 599.9730000000003,345.6010000000001 L 600.0230000000003,345.8970000000001 L 600.0030000000003,346.3890000000001 L 600.0240000000002,346.5100000000001 L 600.0830000000002,346.5510000000001 L 600.2410000000002,346.5700000000001 L 600.3950000000002,346.6150000000001 L 600.4490000000002,346.69600000000014 L 600.4480000000002,346.75500000000017 L 600.2550000000002,346.9800000000002 L 600.2320000000002,347.1400000000002 L 600.1650000000002,347.36500000000024 L 600.1100000000002,347.49700000000024 L 599.9380000000002,347.74700000000024 L 599.8290000000002,348.00100000000026 L 599.7790000000002,348.21000000000026 L 599.8120000000002,348.30900000000025 L 600.1300000000002,348.3390000000002 L 600.3020000000002,348.4890000000002 L 600.7610000000002,348.7880000000002 L 600.8420000000002,348.90900000000016 L 600.7170000000002,349.0930000000002 L 600.7190000000002,349.1700000000002 L 600.7790000000001,349.2680000000002 L 600.8070000000001,349.4390000000002 L 600.7960000000002,349.6280000000002 L 600.7980000000001,349.8780000000002 L 600.8820000000001,349.9190000000002 L 601.1940000000001,350.1530000000002 L 601.416,350.38700000000017 L 601.423,350.46000000000015 L 601.316,350.64500000000015 L 601.339,350.8580000000002 L 601.335,350.90700000000015 L 601.239,350.82700000000017 L 601.066,350.7980000000002 L 600.888,350.78900000000016 L 600.7760000000001,350.85200000000015 L 600.58,351.0190000000001 L 600.316,351.20100000000014 L 600.102,351.3680000000001 L 599.9789999999999,351.4830000000001 L 599.877,351.4640000000001 L 599.798,351.3640000000001 L 599.754,351.2240000000001 L 599.773,350.6950000000001 L 599.726,350.5290000000001 L 599.626,350.4130000000001 L 599.5079999999999,350.34700000000015 L 599.3679999999999,350.3100000000002 L 599.223,350.30600000000015 L 599.0179999999999,350.4610000000001 L 598.7269999999999,350.6220000000001 L 598.2759999999998,350.60900000000015 L 597.9729999999998,350.5790000000002 L 597.8269999999999,350.5490000000002 L 597.2399999999999,350.3030000000002 L 597.1179999999999,350.29700000000025 L 596.8989999999999,350.19700000000023 L 596.6389999999999,350.1180000000002 L 596.2009999999999,350.2680000000002 L 596.012,350.2320000000002 L 595.747,350.1020000000002 L 595.6529999999999,350.1370000000002 L 595.3569999999999,350.53300000000024 L 594.8529999999998,350.95600000000024 L 594.5809999999998,351.02700000000027 L 594.4519999999998,350.60200000000026 L 594.3269999999998,350.43700000000024 L 594.2679999999998,350.41700000000026 L 594.1419999999998,350.36400000000026 L 594.0439999999999,350.39400000000023 L 593.7409999999999,350.68400000000025 L 593.2549999999999,350.85800000000023 L 592.8529999999998,350.9640000000002 L 592.2129999999999,351.09300000000025 L 591.7189999999998,351.15700000000027 L 591.5089999999998,351.16200000000026 L 591.0529999999998,351.10400000000027 L 590.6509999999997,351.02300000000025 L 590.2489999999997,351.02600000000024 L 589.9399999999997,351.0630000000002 L 589.2239999999997,351.3740000000002 L 588.0059999999997,352.0130000000002 L 587.0799999999997,352.3180000000002 L 586.5609999999997,352.4450000000002 L 586.1539999999997,352.5170000000002 L 585.4579999999996,352.52100000000024 L 584.8909999999996,352.47200000000026 L 584.4979999999996,352.47700000000026 L 584.2799999999996,352.40000000000026 L 583.9689999999996,352.1420000000003 L 583.5929999999996,351.8870000000003 L 583.4249999999996,351.8270000000003 L 583.2059999999996,351.7780000000003 L 582.8859999999995,351.7490000000003 L 582.0859999999996,352.12300000000033 L 581.8369999999995,352.2250000000003 L 581.5629999999995,352.30100000000033 L 581.0099999999995,352.52900000000034 L 580.7649999999995,352.65100000000035 L 580.4579999999995,352.6400000000003 L 580.0659999999995,352.60800000000035 L 579.7259999999994,352.61900000000037 L 579.4989999999995,352.44600000000037 L 579.3759999999994,352.2510000000004 L 578.9129999999994,352.13100000000037 L 578.5819999999994,352.09600000000034 L 578.4969999999994,352.18300000000033 L 578.4089999999994,352.44900000000035 L 578.2679999999995,353.1280000000003 L 578.2419999999995,353.29800000000034 L 578.5339999999995,353.97100000000034 L 578.5209999999995,354.0730000000003 L 578.3129999999995,354.10800000000035 L 578.0739999999995,354.12000000000035 L 577.9179999999996,354.18000000000035 L 577.7889999999995,354.29100000000034 L 577.7109999999996,354.8710000000003 L 577.4339999999995,354.9770000000003 L 577.3019999999996,355.0980000000003 L 577.1659999999996,355.4560000000003 L 577.0919999999996,355.4640000000003 L 576.6439999999997,355.19300000000027 L 576.4339999999996,355.1710000000003 L 576.6149999999997,354.89000000000027 L 576.4189999999996,354.33300000000025 L 576.2049999999996,353.81100000000026 L 576.4069999999996,353.47700000000026 L 576.8249999999996,353.07300000000026 L 577.2639999999996,352.5990000000003 L 577.2639999999996,352.30600000000027 L 577.2409999999995,352.0820000000003 L 577.1149999999996,351.9270000000003 L 576.8729999999996,351.7210000000003 L 576.4679999999996,351.9410000000003 L 576.1789999999996,352.1840000000003 L 575.9899999999997,352.2330000000003 L 575.7849999999996,352.37100000000027 L 575.6849999999996,352.62100000000027 L 575.4369999999996,352.8150000000003 L 575.0319999999996,352.8910000000003 L 574.4229999999995,352.6830000000003 L 573.7689999999996,352.3670000000003 L 573.3989999999995,352.1100000000003 L 573.0969999999995,352.0480000000003 L 572.8099999999995,352.1610000000003 L 571.9629999999995,352.78900000000027 L 571.1879999999995,353.70500000000027 L 570.9959999999995,353.8630000000003 L 570.2659999999995,354.25600000000026 L 569.7839999999995,354.3870000000002 L 569.5569999999996,354.35700000000026 L 568.5959999999995,354.5290000000003 L 568.1189999999996,354.55400000000026 L 567.7409999999995,354.76100000000025 L 567.0079999999996,354.53700000000026 L 566.5699999999996,354.2500000000003 L 566.3059999999996,353.9580000000003 L 565.8759999999996,353.3290000000003 L 565.5709999999997,353.0300000000003 L 564.8859999999997,352.76000000000033 L 563.6919999999998,352.1040000000003 L 563.3779999999998,352.0320000000003 L 562.5629999999998,351.93800000000033 L 561.7039999999997,351.8780000000003 L 561.5299999999997,352.1170000000003 L 561.4639999999997,353.0620000000003 L 561.3169999999997,353.3210000000003 L 561.2539999999997,353.8100000000003 L 561.1489999999997,353.9500000000003 L 560.9839999999997,354.04200000000026 L 560.7259999999997,353.88800000000026 L 560.5469999999997,353.8200000000003 L 560.1299999999997,354.0210000000003 L 559.3049999999996,354.3020000000003 L 559.0239999999997,354.3420000000003 L 558.0679999999996,353.98800000000034 L 557.7179999999996,353.76000000000033 L 557.4919999999996,353.5080000000003 L 557.4159999999996,353.0810000000003 L 557.2739999999995,352.8380000000003 L 557.2529999999996,352.67100000000033 L 557.1969999999995,352.4790000000003 L 557.0039999999996,352.4030000000003 L 556.7969999999996,352.5490000000003 L 556.5749999999996,352.54300000000035 L 556.2969999999996,352.45400000000035 L 555.6399999999995,352.09500000000037 L 555.1359999999995,352.0660000000004 L 554.8319999999995,352.50400000000036 L 554.5959999999995,352.64300000000037 L 554.3379999999995,352.68500000000034 L 554.3229999999995,352.5610000000003 L 554.5189999999996,352.2770000000003 L 553.7319999999995,352.32900000000035 L 553.3169999999996,352.54500000000036 L 552.9929999999996,352.51100000000037 L 552.7499999999995,352.4140000000004 L 552.7859999999995,352.29500000000036 L 553.0319999999995,352.2510000000004 L 553.2459999999995,352.1540000000004 L 554.0979999999995,352.0750000000004 L 554.2969999999995,351.9960000000004 L 554.5149999999994,351.68700000000035 L 554.9109999999994,351.42100000000033 L 554.9619999999994,351.30700000000036 L 554.6569999999995,351.3060000000004 L 553.3509999999994,351.3830000000004 L 552.4549999999995,351.3410000000004 L 552.3489999999995,351.4730000000004 L 552.2139999999995,351.4920000000004 L 552.1769999999995,351.13300000000044 L 552.3189999999995,350.96600000000046 L 552.5089999999996,350.9820000000005 L 552.9779999999996,350.8370000000005 L 552.9359999999996,350.5380000000005 L 552.6009999999995,350.3360000000005 L 552.5329999999996,350.2160000000005 L 552.2889999999995,350.1880000000005 L 552.0919999999995,350.0450000000005 L 552.0489999999995,349.6850000000005 L 551.8919999999995,349.2890000000005 L 551.6679999999994,349.0980000000005 L 551.6959999999995,348.9930000000005 L 552.1069999999994,348.8590000000005 L 552.1919999999994,348.3040000000005 L 552.1289999999995,347.9630000000005 L 551.9219999999995,347.9340000000005 L 551.3189999999995,347.6640000000005 L 551.1359999999995,347.6930000000005 L 550.9359999999995,347.39600000000047 L 550.5859999999994,347.18300000000045 L 550.4129999999994,347.2610000000004 L 550.3039999999994,347.3580000000004 L 550.1419999999994,347.3120000000004 L 549.8709999999994,347.1270000000004 L 549.6039999999994,347.0270000000004 L 549.4859999999993,346.90300000000036 L 549.6339999999993,346.57200000000034 L 549.8379999999993,346.5800000000003 L 549.8749999999993,346.3210000000003 L 549.7139999999994,345.8880000000003 L 549.7299999999993,345.6650000000003 L 549.9079999999993,345.6040000000003 L 550.1109999999993,345.6460000000003 L 550.3159999999993,345.9050000000003 L 550.3829999999994,346.1550000000003 L 550.3399999999993,346.39900000000034 L 550.4699999999993,346.63500000000033 L 550.5629999999993,346.69500000000033 L 550.6249999999993,346.4460000000003 L 550.7119999999993,346.3990000000003 L 550.8319999999993,346.5070000000003 L 551.0889999999993,346.56100000000026 L 551.7549999999993,346.4090000000003 L 551.8829999999994,346.28000000000026 L 551.3949999999993,346.29500000000024 L 551.2169999999993,346.17400000000026 L 551.0229999999993,345.90300000000025 L 550.9039999999993,345.65700000000027 L 550.8829999999994,345.5360000000003 L 550.8159999999993,345.35900000000026 L 550.8899999999993,345.26400000000024 L 551.2239999999993,345.12200000000024 L 551.5169999999993,344.72300000000024 L 551.3939999999992,344.60800000000023 L 551.2539999999992,344.5530000000002 L 551.1019999999992,344.5940000000002 L 550.9579999999992,344.4570000000002 L 550.9389999999992,344.2670000000002 L 551.0539999999992,344.1130000000002 L 551.0659999999991,343.90100000000024 L 550.6889999999992,343.3780000000002 L 550.5839999999992,343.26400000000024 L 550.6659999999991,343.09300000000025 L 550.9539999999992,342.80600000000027 L 551.2279999999992,342.4500000000003 L 551.1949999999991,342.33300000000025 L 550.9919999999992,342.28500000000025 L 550.0299999999992,342.4380000000003 L 549.6559999999992,342.5700000000003 L 548.9889999999991,342.63100000000026 L 548.9409999999991,342.43700000000024 L 548.9559999999991,342.26300000000026 L 549.1059999999991,341.9450000000003 L 549.0919999999991,341.1590000000003 L 549.1809999999991,340.73200000000026 L 549.5519999999991,340.60400000000027 L 550.0069999999992,339.97500000000025 L 550.7439999999991,339.2310000000002 L 551.5139999999991,339.24500000000023 L 551.8219999999991,339.0390000000002 L 552.2789999999991,339.0270000000002 L 552.3619999999991,339.1760000000002 L 552.4139999999991,339.3190000000002 L 552.814999999999,339.5250000000002 L 553.522999999999,339.4920000000002 L 553.694999999999,339.4110000000002 L 553.8619999999991,339.2980000000002 L 553.5339999999991,338.9320000000002 L 553.6379999999991,338.8280000000002 L 553.9349999999991,338.8160000000002 L 554.2569999999992,338.9020000000002 L 554.2719999999991,338.9860000000002 L 554.1869999999991,339.1010000000002 L 554.0869999999991,339.30200000000025 L 554.1819999999991,339.34100000000024 L 555.0979999999992,339.2190000000002 L 556.0559999999991,339.31700000000023 L 556.3609999999991,339.26400000000024 L 557.1139999999991,339.26800000000026 L 557.2489999999991,339.1420000000003 L 557.0209999999992,338.9830000000003 L 556.7979999999992,338.9280000000003 L 556.6479999999992,338.8510000000003 L 556.4979999999993,338.7380000000003 L 556.9759999999992,338.38300000000027 L 557.2459999999992,338.3150000000003 L 558.5189999999992,338.0960000000003 L 559.4659999999992,337.9870000000003 L 559.4779999999992,337.9050000000003 L 559.3409999999992,337.9050000000003 L 558.1179999999993,337.7230000000003 L 557.8229999999993,337.5830000000003 L 557.4139999999993,337.24800000000033 L 557.3249999999992,337.1530000000003 L 557.2219999999993,336.9890000000003 L 557.2839999999993,336.6400000000003 L 557.3599999999993,336.3590000000003 L 557.5109999999993,336.1960000000003 L 557.9999999999993,336.17100000000033 L 559.6759999999994,336.45700000000033 L 560.8699999999993,336.28600000000034 L 562.1749999999993,336.70200000000034 L 563.4239999999993,336.61800000000034 L 563.6809999999992,336.4310000000003 L 563.9939999999992,335.8280000000003 L 565.7579999999992,334.8240000000003 L 566.3749999999992,334.2990000000003 L 567.0369999999992,334.0110000000003 L 568.1719999999992,333.6910000000003 L 569.1209999999992,333.26700000000034 L 569.3919999999991,333.21800000000036 L 571.6699999999992,333.42100000000033 L 573.2349999999992,333.44700000000034 L 573.9529999999992,333.04600000000033 L 574.3699999999992,333.1810000000003 L 574.3309999999992,333.3240000000003 L 574.2549999999992,333.4470000000003 L 574.2779999999992,333.6940000000003 L 574.5219999999993,334.0570000000003 L 574.7709999999993,334.3040000000003 L 575.5009999999993,334.6580000000003 L 576.5159999999993,334.3600000000003 L 576.6799999999993,334.3930000000003 L 576.8869999999993,334.47600000000034 L 577.2449999999992,335.43300000000033 L 577.5229999999992,335.7700000000003 L 577.8789999999992,335.9990000000003 L 578.1719999999992,336.0440000000003 L 578.3889999999992,335.80500000000035 L 578.5569999999992,335.70900000000034 L 578.9239999999992,335.66800000000035 L 579.5249999999992,335.9960000000003 L 579.7329999999992,336.33400000000034 L 580.7559999999992,336.59500000000037 L 581.6949999999991,336.72600000000034 L 582.0999999999991,337.01200000000034 L 583.4219999999991,337.29800000000034 L 583.9159999999991,337.25400000000036 L 584.7439999999991,336.95400000000035 L 586.3559999999991,336.62500000000034 L 587.4269999999991,337.08400000000034 L 587.7169999999991,337.14400000000035 L 587.9669999999991,337.1040000000003 L 588.3269999999991,337.2300000000003 L 588.7109999999991,337.1620000000003 L 589.895999999999,336.62000000000035 L 590.266999999999,336.31200000000035 L 590.6599999999991,336.23300000000035 L 591.007999999999,336.04800000000034 L 591.935999999999,335.4430000000003 L 592.197,335.086 M 548.584,340.189 L 547.939,340.302 L 547.7389999999999,340.19100000000003 L 547.9409999999999,339.97 L 548.3169999999999,339.833 L 548.4389999999999,339.817 L 548.6039999999998,340.03700000000003 L 548.584,340.189" id="TR" title="Turkey"/>
</svg>
