<svg xmlns="http://www.w3.org/2000/svg" xmlns:ev="http://www.w3.org/2001/xml-events" xmlns:xlink="http://www.w3.org/1999/xlink" baseProfile="full" height="3.576995849609375" version="1.1" viewBox="301.96099853515625 430.8890075683594 3.873992919921875 3.576995849609375" width="3.873992919921875">
	<defs/>
	<path class="land" d="M 305.188,431.306 L 305.03499999999997,431.334 L 305.05299999999994,431.221 L 305.3209999999999,431.026 L 305.73099999999994,430.894 L 305.8349999999999,430.889 L 305.7759999999999,431.064 L 305.188,431.306 M 304.47,434.269 L 304.01500000000004,434.428 L 302.82900000000006,434.466 L 302.3380000000001,434.408 L 301.96100000000007,434.45300000000003 L 302.6480000000001,434.10600000000005 L 302.7290000000001,433.96000000000004 L 303.0210000000001,433.93300000000005 L 303.1040000000001,433.88900000000007 L 303.2010000000001,433.12200000000007 L 303.16300000000007,432.9390000000001 L 303.1050000000001,432.8380000000001 L 302.9870000000001,432.7650000000001 L 302.7220000000001,432.6660000000001 L 302.6780000000001,432.6130000000001 L 302.8450000000001,432.52800000000013 L 303.2010000000001,432.4810000000001 L 303.4670000000001,432.3890000000001 L 304.0180000000001,432.3700000000001 L 304.28600000000006,432.2880000000001 L 304.7370000000001,432.2650000000001 L 304.5150000000001,432.6180000000001 L 304.4110000000001,432.7490000000001 L 304.4520000000001,433.0660000000001 L 304.4010000000001,433.28100000000006 L 304.46000000000015,433.55300000000005 L 304.59500000000014,433.732 L 304.50800000000015,433.90700000000004 L 304.4950000000002,434.17300000000006 L 304.47,434.269" id="TT" title="Trinidad and Tobago"/>
</svg>
