<svg xmlns="http://www.w3.org/2000/svg" xmlns:ev="http://www.w3.org/2001/xml-events" xmlns:xlink="http://www.w3.org/1999/xlink" baseProfile="full" height="10.207000732421875" version="1.1" viewBox="807.6710205078125 389.77301025390625 10.2239990234375 10.207000732421875" width="10.2239990234375">
	<defs/>
	<path class="land" d="M 815.31,397.884 L 815.136,398.238 L 814.996,398.612 L 814.9399999999999,398.96500000000003 L 814.943,399.32800000000003 L 814.903,399.656 L 814.835,399.98 L 814.563,399.887 L 814.4159999999999,399.655 L 814.382,399.274 L 814.185,398.814 L 814.111,398.682 L 813.826,398.42400000000004 L 813.567,398.29600000000005 L 813.367,398.1050000000001 L 813.3929999999999,398.1210000000001 L 813.2449999999999,397.8640000000001 L 813.1329999999999,397.59100000000007 L 812.9019999999999,396.81300000000005 L 812.8219999999999,396.62500000000006 L 812.7149999999999,396.45300000000003 L 812.685,396.283 L 812.7209999999999,396.094 L 812.8219999999999,395.811 L 812.8829999999999,395.52599999999995 L 812.834,395.138 L 812.853,394.75399999999996 L 812.928,394.58299999999997 L 814.249,392.231 L 814.607,391.728 L 814.828,391.481 L 815.0129999999999,391.202 L 815.1879999999999,390.849 L 815.4029999999999,390.526 L 815.5559999999999,390.426 L 816.3149999999999,390.13599999999997 L 816.55,389.859 L 816.7389999999999,389.77299999999997 L 816.954,389.77799999999996 L 817.093,389.90999999999997 L 817.217,390.06699999999995 L 817.347,390.15099999999995 L 817.682,390.304 L 817.8290000000001,390.452 L 817.8950000000001,390.706 L 817.6910000000001,390.94800000000004 L 817.5890000000002,391.16600000000005 L 817.5700000000002,391.40600000000006 L 817.6060000000001,391.73100000000005 L 817.6110000000001,392.0570000000001 L 817.3550000000001,392.82000000000005 L 817.0820000000001,393.2950000000001 L 817.0080000000002,393.53100000000006 L 816.9250000000002,394.1170000000001 L 816.7640000000002,394.70400000000006 L 816.6270000000003,395.44700000000006 L 816.4030000000002,396.21200000000005 L 816.2760000000003,396.53100000000006 L 816.1180000000003,396.83600000000007 L 815.7400000000002,397.4120000000001 L 815.31,397.884 M 808.009,392.094 L 808.131,392.298 L 808.079,392.424 L 807.693,392.35699999999997 L 807.6709999999999,392.234 L 807.8169999999999,392.256 L 808.009,392.094" id="TW" title="Taiwan"/>
</svg>
