<svg xmlns="http://www.w3.org/2000/svg" xmlns:ev="http://www.w3.org/2001/xml-events" xmlns:xlink="http://www.w3.org/1999/xlink" baseProfile="full" height="30.116973876953125" version="1.1" viewBox="558 465.45001220703125 31.260986328125 30.116973876953125" width="31.260986328125" fill="#00394f">
	<defs/>
	<path class="land" d="M 587.149,484.982 L 586.997,485.019 L 586.938,484.983 L 586.845,484.865 L 587.0070000000001,484.765 L 587.1640000000001,484.57099999999997 L 587.5290000000001,484.28599999999994 L 587.6540000000001,484.09799999999996 L 587.6990000000001,484.05799999999994 L 587.6730000000001,484.2799999999999 L 587.4670000000001,484.76499999999993 L 587.291,484.7969999999999 L 587.149,484.982 M 586.546,479.917 L 586.7610000000001,480.51399999999995 L 586.734,480.626 L 586.582,480.69399999999996 L 586.503,480.69999999999993 L 586.409,480.6039999999999 L 586.343,480.4029999999999 L 586.228,480.4509999999999 L 586.0319999999999,480.2099999999999 L 585.838,480.1979999999999 L 585.6659999999999,479.91099999999994 L 585.733,479.66099999999994 L 585.694,479.2339999999999 L 585.9029999999999,479.0159999999999 L 586.021,478.6479999999999 L 586.1569999999999,478.8989999999999 L 586.1879999999999,479.2909999999999 L 586.3709999999999,479.75099999999986 L 586.5239999999999,479.89299999999986 L 586.546,479.917 M 587.58,476.364 L 587.5970000000001,476.505 L 587.5540000000001,476.638 L 587.5630000000001,477.061 L 587.546,477.342 L 587.3860000000001,477.731 L 587.2550000000001,477.87 L 587.1380000000001,477.829 L 587.0420000000001,477.765 L 586.9670000000001,477.65799999999996 L 587.1190000000001,476.94499999999994 L 587.0410000000002,476.42299999999994 L 587.3420000000002,476.47299999999996 L 587.58,476.364 M 562.206,465.456 L 562.265,465.464 L 562.559,465.464 L 563.058,465.464 L 563.557,465.464 L 564.056,465.464 L 564.5550000000001,465.464 L 565.0540000000001,465.464 L 565.5530000000001,465.464 L 566.0520000000001,465.464 L 566.5510000000002,465.464 L 567.0500000000002,465.464 L 567.5490000000002,465.464 L 568.0480000000002,465.464 L 568.5470000000003,465.464 L 569.0460000000003,465.464 L 569.5450000000003,465.464 L 570.0440000000003,465.464 L 570.5430000000003,465.464 L 570.8500000000004,465.464 L 571.0640000000004,465.464 L 571.2660000000004,465.569 L 571.4910000000004,465.694 L 572.0900000000005,466.026 L 572.6880000000004,466.358 L 573.2860000000004,466.69 L 573.8840000000004,467.022 L 574.4820000000003,467.354 L 575.0810000000004,467.686 L 575.6790000000003,468.018 L 576.2780000000004,468.34999999999997 L 576.8760000000003,468.68199999999996 L 577.4740000000003,469.01399999999995 L 578.0720000000002,469.34599999999995 L 578.6700000000002,469.67799999999994 L 579.2690000000002,470.00999999999993 L 579.8670000000002,470.3419999999999 L 580.4650000000001,470.6739999999999 L 581.0630000000001,471.0059999999999 L 581.349,471.1649999999999 L 581.392,471.2339999999999 L 581.441,471.5369999999999 L 581.472,471.72599999999994 L 581.4549999999999,471.8929999999999 L 581.2959999999999,472.17599999999993 L 581.2499999999999,472.32399999999996 L 581.2489999999999,472.42699999999996 L 581.2879999999999,472.46799999999996 L 581.4229999999999,472.48299999999995 L 581.5379999999999,472.54999999999995 L 581.5799999999999,472.60299999999995 L 581.6679999999999,472.816 L 581.7789999999999,472.923 L 582.0319999999999,473.104 L 582.463,473.413 L 582.894,473.72200000000004 L 583.325,474.03100000000006 L 583.7560000000001,474.3400000000001 L 584.1870000000001,474.6490000000001 L 584.6180000000002,474.95800000000014 L 585.0490000000002,475.26700000000017 L 585.4800000000002,475.5760000000002 L 585.6890000000002,475.7270000000002 L 585.7780000000002,475.7690000000002 L 585.7220000000002,476.0040000000002 L 585.5010000000002,476.5750000000002 L 585.4880000000002,476.8130000000002 L 585.4020000000002,477.0930000000002 L 585.3190000000002,477.2780000000002 L 585.0940000000002,478.08200000000016 L 584.9060000000002,478.38300000000015 L 584.6490000000002,479.08800000000014 L 584.6080000000002,479.62800000000016 L 584.7500000000002,480.00600000000014 L 584.8020000000002,480.3600000000001 L 585.1040000000003,480.70800000000014 L 585.3450000000003,480.83200000000016 L 585.5080000000003,480.99100000000016 L 585.7970000000003,481.35400000000016 L 585.9630000000003,481.71800000000013 L 586.4820000000003,481.8970000000001 L 586.6890000000003,482.3060000000001 L 586.6140000000003,482.5870000000001 L 586.3730000000003,482.8200000000001 L 586.1480000000003,483.1970000000001 L 585.9670000000002,483.6930000000001 L 585.9630000000002,484.4520000000001 L 586.0850000000002,484.3370000000001 L 586.3600000000001,484.5230000000001 L 586.3950000000001,485.0820000000001 L 586.1120000000001,485.7330000000001 L 586.0250000000001,486.0380000000001 L 586.0110000000001,486.3000000000001 L 586.2170000000001,487.08100000000013 L 586.5290000000001,487.4780000000001 L 586.5,487.6 L 586.419,487.704 L 586.953,488.408 L 586.909,489.021 L 587.109,489.499 L 587.196,489.913 L 587.328,490.231 L 587.353,490.45 L 587.188,490.693 L 587.577,490.75399999999996 L 587.806,490.953 L 587.914,491.143 L 588.1949999999999,491.135 L 588.347,491.265 L 588.567,491.373 L 589.052,491.693 L 589.183,491.854 L 589.23,491.947 L 589.261,492.008 L 588.935,492.256 L 588.4269999999999,492.642 L 587.9279999999999,493.02 L 587.4469999999999,493.28 L 587.1029999999998,493.40099999999995 L 586.7349999999998,493.46799999999996 L 586.3859999999997,493.62699999999995 L 586.0559999999997,493.87699999999995 L 585.6329999999997,494.00299999999993 L 585.1179999999997,494.0039999999999 L 584.5769999999997,494.1789999999999 L 584.0399999999996,494.50999999999993 L 583.7269999999996,494.7029999999999 L 583.2309999999997,494.4119999999999 L 582.8419999999996,494.31999999999994 L 582.3949999999996,494.3299999999999 L 582.1229999999996,494.36599999999993 L 582.0249999999996,494.4289999999999 L 581.9399999999996,494.6069999999999 L 581.8679999999996,494.8989999999999 L 581.5749999999996,495.1799999999999 L 581.0609999999996,495.4489999999999 L 580.5869999999995,495.5499999999999 L 580.1529999999996,495.4819999999999 L 579.8599999999996,495.3699999999999 L 579.7069999999995,495.2139999999999 L 579.4819999999995,495.1419999999999 L 579.1839999999995,495.15499999999986 L 578.8979999999996,495.26599999999985 L 578.6249999999995,495.47599999999983 L 578.1899999999996,495.56699999999984 L 577.5919999999996,495.5389999999998 L 577.2709999999996,495.43699999999984 L 577.2269999999996,495.26199999999983 L 576.9649999999997,495.05699999999985 L 576.4859999999996,494.82199999999983 L 576.1319999999996,494.81699999999984 L 575.9049999999996,495.04299999999984 L 575.6979999999996,495.18499999999983 L 575.5109999999996,495.2429999999998 L 575.3429999999996,495.24999999999983 L 575.1939999999996,495.2069999999998 L 575.1009999999997,495.18899999999985 L 574.4399999999997,495.16499999999985 L 573.8139999999997,495.17399999999986 L 573.7939999999998,495.07599999999985 L 573.7509999999997,494.84699999999987 L 573.6209999999998,494.64799999999985 L 573.5089999999998,494.5289999999998 L 573.3689999999998,494.4979999999998 L 573.2929999999998,494.49999999999983 L 573.2319999999997,494.40799999999984 L 573.1599999999997,494.20499999999987 L 573.0539999999997,494.03299999999984 L 572.9129999999998,493.8899999999999 L 572.8279999999997,493.7569999999999 L 572.7989999999998,493.6349999999999 L 572.8209999999998,493.50099999999986 L 572.9519999999998,493.16799999999984 L 572.9939999999998,492.93899999999985 L 572.9789999999998,492.70499999999987 L 572.9079999999998,492.46499999999986 L 572.7599999999998,492.17999999999984 L 572.7769999999998,492.09799999999984 L 572.7269999999999,491.9039999999998 L 572.7219999999999,491.7679999999998 L 572.7509999999999,491.5979999999998 L 572.7229999999998,491.3749999999998 L 572.5949999999998,490.8989999999998 L 572.5949999999998,490.77699999999976 L 572.4599999999998,490.54699999999974 L 572.0439999999998,490.00299999999976 L 572.0239999999998,489.93199999999973 L 571.3719999999997,489.38399999999973 L 571.1109999999998,489.2639999999997 L 571.0169999999997,489.36699999999973 L 570.9819999999997,489.46199999999976 L 571.0089999999998,489.63799999999975 L 570.9929999999998,489.72499999999974 L 570.9659999999998,489.76499999999976 L 570.8109999999998,489.7589999999998 L 570.7139999999998,489.7389999999998 L 570.4669999999999,489.5919999999998 L 570.2749999999999,489.5559999999998 L 569.7969999999999,489.5819999999998 L 569.6299999999999,489.61699999999985 L 569.4989999999999,489.58399999999983 L 569.2459999999999,489.33299999999986 L 568.9499999999998,489.27999999999986 L 568.6839999999999,489.2669999999999 L 568.2449999999999,488.98199999999986 L 568.1419999999999,488.99499999999983 L 568.093,489.0169999999998 L 567.934,488.94199999999984 L 567.635,488.77599999999984 L 567.2189999999999,488.6299999999998 L 566.8789999999999,488.4669999999998 L 566.7269999999999,488.3079999999998 L 566.4079999999999,488.24699999999984 L 566.132,488.22099999999983 L 565.876,488.0729999999998 L 565.611,488.0559999999998 L 565.351,488.0179999999998 L 565.293,487.9209999999998 L 565.284,487.7029999999998 L 565.193,487.6459999999998 L 565.002,487.5899999999998 L 564.7959999999999,487.5929999999998 L 564.6709999999999,487.6239999999998 L 564.597,487.6079999999998 L 564.4259999999999,487.4799999999998 L 564.2669999999999,487.3169999999998 L 564.207,487.0569999999998 L 563.967,486.8899999999998 L 563.6899999999999,486.7579999999998 L 562.92,486.7719999999998 L 562.799,486.7319999999998 L 562.616,486.5999999999998 L 562.4019999999999,486.3819999999998 L 562.2299999999999,486.13299999999975 L 562.079,485.79599999999976 L 562.007,485.59199999999976 L 561.9219999999999,485.3409999999998 L 561.7339999999999,484.9649999999998 L 561.468,484.4329999999998 L 561.262,483.99699999999984 L 561.0409999999999,483.5289999999998 L 560.9509999999999,483.1859999999998 L 560.7789999999999,482.8069999999998 L 560.4969999999998,482.3409999999998 L 560.3539999999998,482.15899999999976 L 560.1979999999999,481.99599999999975 L 559.7929999999999,481.68199999999973 L 559.334,481.3699999999997 L 559.0849999999999,481.15999999999974 L 558.751,480.53499999999974 L 558.611,480.30899999999974 L 558.514,479.91199999999975 L 558.441,479.4999999999998 L 558.471,479.3329999999998 L 558.767,478.8019999999998 L 558.797,478.6529999999998 L 558.7610000000001,478.45199999999977 L 558.6150000000001,478.02899999999977 L 558.5060000000001,477.75299999999976 L 558.4300000000001,477.51699999999977 L 558.272,477.1239999999998 L 558.0550000000001,476.5829999999998 L 558.0000000000001,476.3469999999998 L 558.0070000000001,476.1699999999998 L 558.124,475.7029999999998 L 558.227,475.2219999999998 L 558.2239999999999,475.0899999999998 L 559.107,475.1079999999998 L 559.252,475.00299999999976 L 559.751,474.69299999999976 L 560.312,474.0719999999998 L 560.424,473.8139999999998 L 560.653,473.41599999999977 L 560.8770000000001,473.21899999999977 L 560.9630000000001,473.08199999999977 L 561.022,472.8669999999998 L 561.0920000000001,472.6849999999998 L 561.3860000000001,472.41599999999977 L 561.672,472.2089999999998 L 561.6510000000001,472.12599999999975 L 561.613,472.06399999999974 L 561.6550000000001,472.01099999999974 L 561.811,471.90499999999975 L 562.115,471.80799999999977 L 562.175,471.6009999999998 L 562.174,471.36599999999976 L 562.125,471.2349999999998 L 562.134,471.0839999999998 L 562.087,470.9999999999998 L 561.888,470.97899999999976 L 561.5930000000001,470.86199999999974 L 561.3430000000001,470.81299999999976 L 561.176,470.7449999999998 L 561.114,470.69299999999976 L 561.087,470.55199999999974 L 561.136,470.39799999999974 L 561.161,470.35399999999976 L 561.2249999999999,470.18899999999974 L 561.1159999999999,470.08999999999975 L 561.0879999999999,470.04199999999975 L 561.1379999999998,469.96299999999974 L 561.3949999999998,469.44099999999975 L 561.4509999999998,469.36799999999977 L 561.5629999999998,469.35899999999975 L 561.7399999999998,469.29499999999973 L 561.9039999999998,469.26599999999974 L 562.0379999999998,469.2879999999997 L 562.1369999999998,469.26299999999975 L 562.2239999999998,469.19599999999974 L 562.2979999999998,468.99199999999973 L 562.3589999999998,468.65199999999976 L 562.3249999999998,468.3749999999998 L 562.1969999999998,468.1609999999998 L 562.1619999999998,467.83499999999975 L 562.2209999999998,467.39699999999976 L 562.1789999999997,467.0329999999998 L 562.0369999999997,466.7419999999998 L 561.8919999999997,466.5689999999998 L 561.6709999999997,466.4869999999998 L 561.3229999999998,466.0429999999998 L 561.2169999999998,465.8279999999998 L 561.2359999999998,465.6939999999998 L 561.3279999999997,465.6509999999998 L 561.3559999999998,465.6379999999998 L 561.5779999999997,465.6579999999998 L 561.7859999999997,465.6069999999998 L 561.9799999999997,465.4849999999998 L 562.1679999999997,465.44999999999976 L 562.206,465.456" id="TZ" title="Tanzania"/>
</svg>
