<svg xmlns="http://www.w3.org/2000/svg" xmlns:ev="http://www.w3.org/2001/xml-events" xmlns:xlink="http://www.w3.org/1999/xlink" baseProfile="full" height="33.652984619140625" version="1.1" viewBox="537.8060302734375 290.4630126953125 50.51397705078125 33.652984619140625" width="50.51397705078125" fill="#00394f">
	<defs/>
	<path class="land" d="M 582.948,313.277 L 582.846,313.323 L 581.865,313.25899999999996 L 581.064,313.34599999999995 L 580.4929999999999,313.99299999999994 L 580.1529999999999,313.99099999999993 L 579.6739999999999,314.15899999999993 L 579.3489999999998,314.36799999999994 L 578.9639999999998,314.81999999999994 L 578.6659999999998,314.61699999999996 L 578.3009999999998,314.62299999999993 L 577.9449999999998,314.7459999999999 L 577.5169999999998,315.04799999999994 L 577.2789999999998,315.10099999999994 L 576.8029999999998,315.01499999999993 L 576.2479999999998,315.18799999999993 L 575.0499999999998,316.17499999999995 L 574.6469999999998,316.89399999999995 L 574.4999999999998,317.03399999999993 L 574.2979999999998,317.20899999999995 L 574.0819999999998,317.29699999999997 L 573.9679999999997,317.289 L 574.5389999999998,316.779 L 574.7139999999997,316.588 L 574.7439999999997,316.447 L 574.7469999999997,316.218 L 574.5739999999997,315.934 L 574.1069999999997,316.637 L 573.8419999999998,316.739 L 573.5049999999998,316.95 L 573.4879999999997,317.419 L 573.5269999999997,317.767 L 573.6649999999997,318.204 L 573.9909999999998,318.91700000000003 L 574.6569999999998,319.932 L 574.9759999999998,320.30400000000003 L 575.2099999999998,320.45200000000006 L 575.4919999999998,320.47300000000007 L 576.0339999999999,320.1600000000001 L 576.2649999999999,320.1110000000001 L 576.7689999999999,320.23000000000013 L 576.9489999999998,320.0220000000001 L 577.2109999999998,319.9060000000001 L 577.5469999999998,319.89100000000013 L 577.9309999999998,319.9850000000001 L 578.3469999999999,320.14300000000014 L 578.1759999999998,320.50000000000017 L 577.9979999999998,320.78400000000016 L 577.9349999999998,321.0980000000002 L 577.8359999999998,321.4470000000002 L 577.3769999999998,321.6030000000002 L 576.8859999999999,321.5840000000002 L 576.3679999999998,321.6850000000002 L 576.1809999999998,321.5500000000002 L 576.0569999999998,321.42600000000016 L 575.8269999999998,321.30200000000013 L 575.5239999999998,321.23400000000015 L 575.2519999999997,321.3170000000002 L 574.9299999999997,321.7920000000002 L 574.3599999999997,322.1160000000002 L 574.1719999999997,322.4860000000002 L 573.6109999999996,322.4030000000002 L 573.1309999999996,322.4680000000002 L 572.4379999999996,322.8050000000002 L 571.9099999999996,323.5250000000002 L 571.3279999999996,323.9740000000002 L 570.8669999999996,324.1160000000002 L 570.4339999999996,324.07200000000023 L 570.1539999999997,323.9380000000002 L 569.5779999999996,323.46600000000024 L 569.6119999999996,323.29700000000025 L 569.6919999999997,323.2120000000003 L 569.8009999999997,322.96800000000025 L 570.0309999999997,322.07200000000023 L 569.9999999999998,321.78000000000026 L 569.8709999999998,321.32100000000025 L 569.4139999999998,320.96300000000025 L 569.0469999999998,321.03100000000023 L 568.8379999999999,320.9360000000002 L 568.0849999999998,320.3260000000002 L 567.6749999999998,320.2830000000002 L 567.2219999999999,320.4060000000002 L 567.0549999999998,320.3170000000002 L 566.9319999999998,320.10400000000016 L 567.8299999999998,319.34900000000016 L 568.7119999999998,318.72400000000016 L 569.0989999999997,318.66000000000014 L 569.6209999999998,318.36800000000017 L 570.1789999999997,317.9300000000002 L 570.0999999999998,317.58500000000015 L 569.9799999999998,317.3290000000002 L 569.7129999999997,317.39900000000017 L 569.5189999999998,317.48400000000015 L 569.0519999999998,317.21000000000015 L 568.8809999999997,317.00800000000015 L 568.1499999999997,317.21800000000013 L 567.7429999999997,317.1870000000001 L 566.8449999999997,317.3800000000001 L 566.4319999999997,317.1920000000001 L 565.6069999999996,316.6640000000001 L 565.2969999999997,316.5580000000001 L 565.0329999999997,316.58100000000013 L 564.8889999999997,316.40700000000015 L 565.0649999999997,316.32000000000016 L 565.2699999999998,316.3100000000002 L 565.4829999999997,316.24600000000015 L 565.5429999999997,316.15400000000017 L 565.5299999999996,315.9800000000002 L 565.1009999999997,315.8480000000002 L 564.7019999999997,315.8100000000002 L 564.4489999999996,315.65400000000017 L 564.2559999999996,315.4750000000002 L 564.7079999999996,315.4720000000002 L 565.1629999999997,315.60800000000023 L 565.8739999999997,315.65800000000024 L 566.5199999999996,315.79800000000023 L 566.6809999999996,315.62400000000025 L 567.0559999999996,315.32200000000023 L 567.1269999999996,315.2260000000002 L 566.4989999999996,315.4330000000002 L 565.8619999999996,315.3010000000002 L 565.6299999999997,315.1170000000002 L 565.4329999999997,314.8460000000002 L 565.3499999999997,314.53700000000015 L 565.4039999999997,314.24900000000014 L 565.3349999999997,313.7280000000001 L 565.1249999999997,313.26300000000015 L 565.0509999999997,313.00800000000015 L 564.8289999999997,312.77900000000017 L 565.0469999999997,313.29700000000014 L 565.1279999999997,313.64100000000013 L 565.2589999999997,313.9570000000001 L 565.2279999999997,314.7930000000001 L 565.1469999999997,315.0860000000001 L 564.8849999999998,315.16000000000014 L 564.5409999999997,315.11600000000016 L 564.1909999999997,315.02500000000015 L 564.2779999999997,314.56600000000014 L 564.0909999999997,314.72500000000014 L 563.8279999999996,315.17200000000014 L 563.5959999999997,315.2380000000001 L 563.0809999999997,315.18900000000014 L 562.1249999999997,315.48400000000015 L 562.0589999999996,315.8050000000002 L 561.9149999999996,316.23800000000017 L 561.7759999999996,316.4900000000002 L 561.7329999999996,316.64200000000017 L 561.3259999999996,317.2930000000002 L 561.2739999999995,317.3550000000002 L 560.5049999999995,318.2540000000002 L 560.4069999999996,318.3210000000002 L 559.9089999999995,318.5300000000002 L 559.6139999999996,318.7130000000002 L 559.3879999999996,318.7950000000002 L 559.0059999999996,318.7040000000002 L 558.8469999999996,318.8330000000002 L 558.7719999999996,318.9930000000002 L 558.7709999999996,319.32400000000024 L 558.9649999999996,319.56100000000026 L 559.1239999999996,320.34800000000024 L 559.0649999999996,320.68000000000023 L 558.9139999999996,320.46500000000026 L 558.6769999999997,320.2380000000003 L 558.2169999999996,320.04400000000027 L 557.7119999999996,320.1110000000003 L 557.1609999999996,320.43900000000025 L 556.7869999999996,320.56100000000026 L 556.5909999999996,320.47700000000026 L 556.4709999999995,320.48200000000026 L 556.4289999999995,320.57600000000025 L 556.4379999999995,320.65300000000025 L 556.4979999999995,320.71300000000025 L 556.4899999999994,320.75600000000026 L 556.4119999999995,320.78300000000024 L 555.5439999999994,320.55200000000025 L 555.1689999999994,320.33300000000025 L 554.8739999999995,319.92200000000025 L 555.0209999999995,319.78900000000027 L 555.1489999999995,319.73000000000025 L 555.6009999999995,319.69600000000025 L 555.6789999999995,319.6540000000003 L 555.6869999999996,319.55900000000025 L 555.7209999999995,319.43500000000023 L 555.7089999999996,319.25400000000025 L 555.6589999999997,319.06200000000024 L 555.8569999999996,318.78100000000023 L 556.1519999999996,318.5490000000002 L 556.3249999999996,318.3160000000002 L 556.3509999999995,317.9740000000002 L 556.6619999999996,317.80700000000024 L 556.9369999999996,317.52000000000027 L 557.0049999999995,317.2070000000003 L 557.1019999999995,317.0100000000003 L 556.9259999999995,316.5570000000003 L 556.8889999999994,316.2580000000003 L 556.8809999999994,316.00700000000035 L 556.9669999999994,315.86800000000034 L 557.2239999999994,315.71100000000035 L 557.4939999999993,315.58900000000034 L 557.6059999999993,315.60100000000034 L 557.6469999999994,315.67800000000034 L 557.6569999999994,316.18800000000033 L 557.7109999999993,316.1980000000003 L 557.7969999999993,316.13500000000033 L 557.9379999999993,315.8350000000003 L 558.0349999999993,315.9220000000003 L 558.1849999999993,315.9550000000003 L 558.2969999999992,315.87700000000035 L 558.3699999999992,315.88600000000037 L 558.4599999999992,315.96300000000036 L 558.6399999999992,316.07200000000034 L 558.8079999999992,316.10800000000035 L 558.9469999999992,316.03600000000034 L 559.0659999999992,315.90600000000035 L 559.1929999999992,315.95000000000033 L 559.4339999999992,316.3040000000003 L 559.5459999999991,316.2650000000003 L 560.1009999999991,316.1940000000003 L 560.1899999999991,316.0980000000003 L 560.2559999999992,316.0110000000003 L 559.6759999999991,315.5410000000003 L 559.7049999999991,315.1900000000003 L 559.7269999999992,314.78700000000026 L 559.6579999999992,314.54700000000025 L 559.5449999999992,314.35700000000026 L 559.1019999999992,314.13600000000025 L 558.7589999999992,313.90700000000027 L 558.6869999999992,313.8030000000003 L 558.6779999999992,313.66900000000027 L 558.6629999999992,313.46100000000024 L 558.5269999999992,313.28200000000027 L 558.5159999999993,313.1300000000003 L 558.6019999999993,312.89300000000026 L 558.6229999999993,312.64100000000025 L 558.5939999999993,312.5410000000002 L 558.5139999999992,312.45900000000023 L 558.3599999999992,312.45100000000025 L 558.1569999999992,312.30500000000023 L 558.0179999999992,312.10800000000023 L 557.6439999999992,311.82400000000024 L 557.5299999999992,311.77800000000025 L 557.4599999999991,311.6370000000002 L 557.4259999999991,311.4690000000002 L 557.5049999999991,311.2600000000002 L 557.6039999999991,310.93700000000024 L 557.6729999999991,310.63400000000024 L 557.6739999999991,310.45300000000026 L 557.6289999999991,310.0050000000003 L 557.4339999999991,309.66200000000026 L 557.342999999999,309.61700000000025 L 557.185999999999,309.71300000000025 L 557.006999999999,309.79400000000027 L 556.8659999999991,309.71800000000025 L 556.7049999999991,309.53200000000027 L 556.4469999999991,309.01300000000026 L 555.9639999999991,308.9090000000003 L 555.7639999999991,308.8840000000003 L 555.5749999999991,309.1340000000003 L 555.5159999999992,309.0580000000003 L 555.4629999999992,308.89800000000025 L 555.3629999999991,308.83500000000026 L 555.2309999999992,308.9090000000003 L 555.1929999999992,308.83800000000025 L 555.2499999999992,308.62100000000027 L 555.0929999999992,308.51400000000024 L 554.7219999999992,308.51600000000025 L 554.5239999999992,308.43600000000026 L 554.5009999999992,308.27300000000025 L 554.3839999999992,308.1660000000002 L 554.1739999999992,308.1140000000002 L 553.9689999999991,307.9810000000002 L 553.7709999999992,307.76600000000025 L 553.4739999999991,307.62600000000026 L 553.0789999999992,307.56100000000026 L 553.0469999999991,307.53800000000024 L 553.0099999999991,307.50700000000023 L 552.7549999999991,307.65300000000025 L 552.6019999999991,307.76900000000023 L 552.4139999999991,307.69700000000023 L 552.1099999999991,307.9550000000002 L 551.491999999999,307.9680000000002 L 551.188999999999,307.95200000000017 L 551.0389999999991,307.88800000000015 L 550.458999999999,308.28000000000014 L 550.397999999999,308.42400000000015 L 550.267999999999,308.47200000000015 L 549.902999999999,308.5500000000001 L 549.518999999999,308.66000000000014 L 549.437999999999,309.03900000000016 L 549.3239999999989,309.24400000000014 L 549.1179999999989,309.54400000000015 L 548.404999999999,309.64800000000014 L 547.788999999999,309.79400000000015 L 547.157999999999,309.88500000000016 L 546.330999999999,310.25100000000015 L 546.061999999999,310.57300000000015 L 545.795999999999,310.6630000000001 L 545.554999999999,310.6900000000001 L 545.3989999999991,310.5100000000001 L 544.8739999999991,310.0280000000001 L 544.6719999999991,309.80000000000007 L 544.4059999999992,309.73300000000006 L 544.1169999999992,309.7710000000001 L 543.8389999999991,309.8830000000001 L 543.5469999999991,309.9040000000001 L 543.2159999999991,309.74200000000013 L 543.1809999999991,309.75800000000015 L 543.0539999999992,309.78000000000014 L 542.2319999999992,309.5840000000001 L 542.1559999999992,309.5510000000001 L 542.1199999999992,309.5430000000001 L 542.0069999999992,309.52800000000013 L 541.3879999999991,309.55200000000013 L 540.8109999999991,309.1560000000001 L 540.6339999999991,309.1440000000001 L 540.4969999999992,309.30400000000014 L 540.3959999999992,309.48200000000014 L 539.9979999999991,309.65900000000016 L 539.8959999999992,309.7300000000002 L 539.8379999999992,309.6750000000002 L 539.8109999999991,309.52200000000016 L 539.8409999999991,309.38600000000014 L 539.7819999999991,309.25800000000015 L 539.6309999999992,309.11200000000014 L 539.5939999999991,309.05100000000016 L 539.4039999999991,309.0620000000002 L 539.3519999999991,309.0760000000002 L 539.3329999999991,309.0730000000002 L 539.068999999999,308.9490000000002 L 538.8949999999991,308.6500000000002 L 538.6239999999991,308.4910000000002 L 538.4169999999991,308.43700000000024 L 538.3229999999991,308.3080000000002 L 538.261999999999,308.1370000000002 L 538.1979999999991,308.0080000000002 L 538.1909999999991,307.99500000000023 L 538.1469999999991,307.7990000000002 L 538.0839999999992,307.7790000000002 L 538.0729999999992,307.7740000000002 L 537.8059999999991,307.8080000000002 L 537.8369999999991,307.1190000000002 L 538.2639999999991,306.6220000000002 L 538.3689999999991,306.3710000000002 L 538.5289999999991,305.8260000000002 L 538.6489999999991,305.5700000000002 L 538.7929999999991,305.35800000000023 L 538.9079999999991,305.15300000000025 L 538.9489999999992,304.97700000000026 L 539.0649999999991,304.9570000000003 L 539.4049999999992,305.11600000000027 L 539.7099999999991,305.19800000000026 L 539.7939999999991,305.1200000000003 L 539.828999999999,305.0180000000003 L 539.814999999999,304.9390000000003 L 539.570999999999,304.7040000000003 L 539.417999999999,304.5540000000003 L 539.407999999999,304.46200000000033 L 539.4629999999989,304.25500000000034 L 539.4929999999989,304.0230000000003 L 539.457999999999,303.7710000000003 L 539.2909999999989,303.2120000000003 L 539.259999999999,302.9740000000003 L 539.418999999999,302.68400000000025 L 539.936999999999,301.99200000000025 L 540.109999999999,301.7310000000002 L 540.345999999999,301.4160000000002 L 540.986999999999,300.66000000000025 L 541.3909999999989,300.2190000000003 L 541.6649999999989,299.9740000000003 L 542.0659999999989,299.54900000000026 L 542.2419999999989,299.32800000000026 L 542.9739999999989,299.18400000000025 L 543.0649999999989,298.97700000000026 L 543.1989999999989,298.75100000000026 L 543.302999999999,298.6540000000003 L 543.316999999999,298.2730000000003 L 543.180999999999,297.8060000000003 L 543.071999999999,297.6410000000003 L 542.990999999999,297.5280000000003 L 543.043999999999,297.4230000000003 L 543.124999999999,297.3930000000003 L 543.224999999999,297.3780000000003 L 543.348999999999,297.2650000000003 L 543.320999999999,297.14200000000034 L 543.011999999999,296.8420000000003 L 542.877999999999,296.61100000000033 L 542.6689999999991,296.0150000000003 L 542.2449999999991,295.3950000000003 L 542.1109999999991,295.1940000000003 L 542.0919999999991,295.0040000000003 L 542.1539999999991,294.8140000000003 L 542.0949999999991,294.5710000000003 L 541.9449999999991,294.2610000000003 L 541.9689999999991,294.2270000000003 L 541.9539999999992,293.84400000000034 L 542.0609999999991,293.7610000000003 L 542.2299999999991,293.7050000000003 L 542.4679999999992,293.72400000000033 L 542.6719999999991,293.78300000000036 L 542.9159999999991,293.95800000000037 L 542.9919999999992,293.93000000000035 L 543.4089999999992,293.60000000000036 L 543.8389999999991,293.1020000000004 L 543.9619999999992,292.8130000000004 L 544.0689999999992,292.6810000000004 L 544.4429999999992,292.6110000000004 L 544.7689999999992,292.5820000000004 L 544.9759999999992,292.5870000000004 L 545.4849999999992,292.5380000000004 L 545.7859999999993,292.4830000000004 L 546.0469999999992,292.3950000000004 L 546.6099999999992,292.36200000000036 L 547.4879999999993,292.4210000000004 L 548.0649999999993,292.4250000000004 L 548.4569999999993,292.47200000000043 L 549.4159999999993,292.7370000000004 L 549.7729999999992,292.7850000000004 L 549.9389999999993,292.92600000000044 L 550.2579999999992,292.97800000000046 L 550.8379999999993,293.1190000000005 L 551.3409999999993,293.1950000000005 L 551.6809999999994,293.1640000000005 L 551.8709999999994,293.2040000000005 L 552.2309999999994,293.8290000000005 L 552.3049999999994,293.9020000000005 L 552.4489999999994,293.9170000000005 L 552.7429999999994,293.8630000000005 L 553.1609999999994,293.8840000000005 L 553.4089999999994,294.0150000000005 L 553.3729999999995,294.3860000000005 L 553.4379999999995,294.44000000000045 L 553.5539999999995,294.41900000000044 L 553.6869999999996,294.21000000000043 L 553.7989999999995,293.99300000000045 L 553.8819999999995,293.92500000000047 L 554.3089999999995,294.07200000000046 L 554.5039999999996,294.04800000000046 L 554.6839999999995,293.88300000000044 L 554.7939999999995,293.8550000000004 L 555.0969999999995,293.97200000000043 L 555.4699999999996,294.0540000000004 L 555.7719999999996,294.0590000000004 L 555.9599999999996,294.1480000000004 L 556.0969999999995,294.5350000000004 L 556.2159999999996,294.6150000000004 L 556.3309999999996,294.6390000000004 L 556.5049999999995,294.2930000000004 L 556.6629999999996,294.1590000000004 L 556.8819999999996,294.0600000000004 L 557.0229999999996,294.0170000000004 L 557.1229999999996,293.8940000000004 L 557.2569999999996,293.7750000000004 L 557.3729999999996,293.7650000000004 L 557.4669999999996,293.8110000000004 L 557.5749999999996,293.9760000000004 L 557.7329999999996,294.3520000000004 L 557.9249999999996,294.7290000000004 L 558.0589999999996,294.8660000000004 L 558.4049999999996,294.7500000000004 L 558.6389999999997,294.6320000000004 L 559.0679999999996,294.6100000000004 L 559.6369999999996,294.5270000000004 L 560.0719999999995,294.4190000000004 L 560.3439999999996,294.4380000000004 L 560.5089999999996,294.5580000000004 L 560.7599999999995,294.7890000000004 L 560.8279999999995,295.1210000000004 L 561.1539999999995,295.35000000000036 L 561.4209999999996,295.39200000000034 L 561.5119999999996,295.15400000000034 L 561.6679999999996,294.98800000000034 L 561.6089999999996,294.75900000000036 L 561.5829999999996,294.4670000000004 L 561.4659999999997,294.19600000000037 L 561.3879999999997,293.9040000000004 L 561.5309999999997,293.4860000000004 L 561.6869999999997,293.1200000000004 L 561.7649999999996,292.9210000000004 L 562.0119999999996,292.5530000000004 L 562.2649999999996,292.2900000000004 L 562.6439999999997,291.8670000000004 L 562.9209999999997,291.72700000000043 L 563.1709999999997,291.79100000000045 L 563.3099999999997,291.84900000000044 L 563.6689999999998,291.59800000000047 L 564.3079999999998,291.5850000000005 L 564.8399999999998,291.6170000000005 L 564.8939999999998,291.62500000000045 L 565.1559999999997,291.75500000000045 L 565.4309999999997,291.86500000000046 L 565.6209999999998,291.87200000000047 L 565.8469999999998,291.8470000000005 L 566.1129999999997,291.7000000000005 L 566.2979999999997,291.5580000000005 L 566.5229999999997,290.8360000000005 L 566.6029999999997,290.73200000000054 L 566.7269999999997,290.6750000000005 L 566.9299999999997,290.66900000000055 L 567.3159999999997,290.80400000000054 L 567.7679999999997,290.9250000000005 L 568.0299999999996,290.9080000000005 L 568.7279999999996,290.52300000000054 L 569.1169999999996,290.46300000000053 L 569.5789999999996,290.5530000000005 L 570.0329999999996,290.5580000000005 L 570.3749999999995,290.5020000000005 L 570.6099999999996,290.6350000000005 L 570.8999999999995,290.9290000000005 L 571.1619999999995,291.36500000000046 L 571.4359999999995,292.16800000000046 L 572.2349999999994,293.0710000000005 L 572.2479999999995,293.24700000000047 L 572.1829999999994,293.36000000000047 L 571.7899999999994,293.46900000000045 L 571.4579999999994,293.5280000000005 L 571.4419999999994,293.68200000000047 L 571.5299999999994,293.84900000000044 L 571.6819999999994,294.0930000000005 L 571.7049999999995,294.4070000000005 L 571.6969999999994,294.6950000000005 L 571.7619999999995,294.9490000000005 L 571.8889999999994,295.0530000000005 L 571.9049999999994,295.1800000000005 L 571.7589999999994,295.3360000000005 L 571.7179999999994,295.4320000000005 L 571.7749999999994,295.48400000000055 L 572.4959999999994,295.5140000000005 L 572.8489999999994,295.66500000000053 L 573.1169999999994,295.8030000000005 L 573.2519999999994,295.8160000000005 L 573.5559999999994,295.72800000000046 L 573.8979999999993,295.6720000000005 L 574.1049999999993,295.6640000000005 L 574.1849999999994,295.7660000000005 L 574.2489999999993,296.03300000000047 L 574.3689999999993,296.30000000000047 L 574.4809999999993,296.3760000000005 L 574.6809999999994,296.3630000000005 L 574.8009999999994,296.3760000000005 L 574.8649999999993,296.4770000000005 L 574.7929999999993,296.6290000000005 L 574.8089999999993,296.7940000000005 L 574.8969999999993,296.9960000000005 L 575.0009999999993,297.4630000000005 L 575.0969999999993,297.6020000000005 L 575.1609999999993,297.7780000000005 L 575.1609999999993,297.9800000000005 L 575.0809999999992,298.15600000000046 L 575.0249999999992,298.29400000000044 L 575.0809999999992,298.60800000000046 L 575.2969999999992,298.95900000000046 L 575.4569999999992,299.04600000000045 L 575.5849999999992,299.35900000000044 L 575.8169999999992,299.45900000000046 L 576.1609999999993,299.1960000000005 L 576.4249999999993,299.0580000000005 L 576.7549999999993,299.1350000000005 L 577.0599999999993,299.1840000000005 L 577.2649999999993,299.36300000000045 L 577.4159999999993,299.60900000000044 L 577.5919999999993,299.74600000000044 L 577.7679999999993,299.67400000000043 L 578.1349999999993,299.74600000000044 L 578.3029999999993,299.94500000000045 L 578.4709999999993,300.05700000000047 L 578.6869999999993,299.8950000000005 L 578.8629999999994,299.6950000000005 L 579.5069999999994,299.4860000000005 L 579.9069999999994,299.4340000000005 L 580.0189999999993,299.3930000000005 L 580.2539999999993,299.2430000000005 L 580.5019999999994,299.1430000000005 L 580.7249999999993,299.17000000000047 L 580.9449999999994,299.48100000000045 L 581.1729999999993,299.69500000000045 L 581.2369999999993,300.03200000000044 L 581.5149999999993,300.4940000000004 L 582.2059999999993,301.1250000000004 L 582.4769999999993,301.3170000000004 L 582.6609999999993,301.2830000000004 L 582.7569999999993,301.2330000000004 L 582.8019999999992,301.1670000000004 L 582.8439999999993,300.8580000000004 L 582.9309999999992,300.7440000000004 L 583.0709999999992,300.74100000000044 L 583.6119999999993,301.12500000000045 L 583.8949999999993,301.1670000000004 L 584.1639999999993,301.17400000000043 L 584.5259999999993,301.47200000000043 L 584.9229999999993,301.73100000000045 L 585.2299999999993,301.75800000000044 L 585.4749999999993,301.65600000000046 L 585.6429999999993,301.59400000000045 L 585.7469999999994,301.69300000000044 L 585.8429999999994,301.91600000000045 L 586.0029999999994,302.08900000000045 L 586.1869999999993,302.13800000000043 L 586.4519999999993,302.14900000000046 L 586.9119999999994,302.48300000000046 L 587.3439999999994,302.82300000000043 L 587.6139999999994,302.84200000000044 L 587.8429999999994,302.7420000000004 L 588.0449999999994,302.7160000000004 L 588.1859999999994,302.8020000000004 L 588.2259999999993,302.9490000000004 L 588.1219999999993,303.1460000000004 L 588.1219999999993,303.4280000000004 L 588.3139999999993,303.6980000000004 L 588.3199999999993,303.96300000000036 L 588.2649999999993,304.20200000000034 L 588.1559999999993,304.42200000000037 L 587.8929999999992,304.7240000000004 L 587.6499999999992,305.0050000000004 L 587.2849999999992,305.1220000000004 L 587.0799999999991,305.2450000000004 L 587.1339999999991,305.4510000000004 L 587.2679999999991,305.6430000000004 L 587.5779999999991,305.7980000000004 L 587.929999999999,305.9110000000004 L 587.9709999999991,306.0360000000004 L 587.9169999999991,306.0990000000004 L 587.6909999999991,306.1570000000004 L 587.3789999999991,306.09800000000035 L 587.2749999999991,306.20700000000033 L 587.1309999999991,306.3880000000003 L 587.0349999999991,306.71400000000034 L 586.962999999999,307.01600000000036 L 587.3019999999991,307.09800000000035 L 587.4989999999991,307.22100000000034 L 587.5609999999991,307.46800000000036 L 587.6309999999992,307.74300000000034 L 587.6519999999991,307.99000000000035 L 587.5399999999992,308.11000000000035 L 587.5329999999992,308.23300000000035 L 587.5859999999992,308.2940000000003 L 587.7319999999992,308.3210000000003 L 587.8429999999992,308.3760000000003 L 587.8519999999992,308.5060000000003 L 587.6389999999992,308.7980000000003 L 587.4399999999993,309.3560000000003 L 587.3329999999993,309.65200000000027 L 587.3409999999993,309.9730000000003 L 587.2209999999993,310.1510000000003 L 587.0,310.174 L 586.25,310.205 L 585.597,310.18899999999996 L 585.3149999999999,310.143 L 584.8729999999999,310.11499999999995 L 584.6539999999999,310.191 L 584.3639999999999,310.703 L 584.1439999999999,310.90299999999996 L 583.7809999999998,311.08399999999995 L 583.3819999999998,311.13599999999997 L 583.1529999999998,311.34599999999995 L 583.0719999999998,311.67599999999993 L 583.0659999999998,311.9679999999999 L 583.0289999999998,312.1139999999999 L 582.9429999999998,312.2419999999999 L 582.9119999999998,312.3329999999999 L 582.9309999999998,312.43299999999994 L 583.0239999999998,312.46899999999994 L 583.1349999999998,312.51499999999993 L 583.1349999999998,312.58699999999993 L 583.0919999999998,312.67799999999994 L 582.9679999999997,312.77799999999996 L 582.9119999999997,312.93199999999996 L 582.9249999999997,313.09599999999995 L 582.948,313.277 M 565.542,316.894 L 565.929,317.093 L 565.534,317.04 L 564.667,316.853 L 564.284,316.676 L 564.185,316.478 L 564.1289999999999,316.208 L 564.343,316.49100000000004 L 564.4929999999999,316.61500000000007 L 565.542,316.894" id="UA" title="Ukraine"/>
</svg>
