<svg xmlns="http://www.w3.org/2000/svg" xmlns:ev="http://www.w3.org/2001/xml-events" xmlns:xlink="http://www.w3.org/1999/xlink" baseProfile="full" height="15.8740234375" version="1.1" viewBox="558.6649780273438 450.8949890136719 15.20001220703125 15.8740234375" width="15.20001220703125" fill="#00394f">
	<defs/>
	<path class="land" d="M 570.849,465.464 L 570.542,465.464 L 570.043,465.464 L 569.544,465.464 L 569.045,465.464 L 568.546,465.464 L 568.048,465.464 L 567.549,465.464 L 567.05,465.464 L 566.551,465.464 L 566.052,465.464 L 565.553,465.464 L 565.054,465.464 L 564.555,465.464 L 564.057,465.464 L 563.558,465.464 L 563.059,465.464 L 562.56,465.464 L 562.265,465.464 L 562.206,465.456 L 562.165,465.444 L 561.977,465.479 L 561.782,465.602 L 561.575,465.652 L 561.353,465.633 L 561.325,465.646 L 561.213,465.643 L 561.051,465.634 L 560.905,465.666 L 560.794,465.773 L 560.68,465.957 L 560.475,466.167 L 560.315,466.354 L 560.179,466.486 L 559.868,466.705 L 559.698,466.769 L 559.614,466.759 L 559.562,466.718 L 559.464,466.439 L 559.404,466.394 L 558.799,466.538 L 558.707,466.54 L 558.715,466.453 L 558.67,465.797 L 558.665,465.395 L 558.744,465.144 L 558.79,464.854 L 558.795,464.598 L 558.906,464.163 L 558.865,463.902 L 559.008,462.987 L 559.046,462.838 L 559.102,462.396 L 559.191,462.26 L 559.271,462.207 L 559.374,461.936 L 559.573,461.502 L 559.71,461.279 L 559.68,460.792 L 559.703,460.46 L 559.734,460.387 L 560.027,460.263 L 560.407,459.957 L 560.568,459.596 L 560.795,459.366 L 561.235,459.217 L 561.236,459.216 L 562.54,457.979 L 563.146,457.312 L 563.41,456.97 L 563.419,456.847 L 563.47,456.686 L 563.364,456.56 L 563.238,456.446 L 563.195,456.34 L 563.087,456.288 L 562.931,456.29 L 562.828,456.213 L 562.711,456.063 L 562.594,455.969 L 562.224,455.977 L 561.939,455.823 L 561.943,455.614 L 562.054,455.202 L 562.27,454.73 L 562.282,454.6 L 562.251,454.489 L 562.199,454.394 L 562.102,454.3 L 562.01,454.187 L 562.081,453.847 L 562.217,453.515 L 562.329,453.348 L 562.438,453.162 L 562.407,453.009 L 562.248,452.933 L 562.331,452.784 L 562.502,452.533 L 562.835,452.279 L 563.128,452.109 L 563.324,452.108 L 563.704,452.244 L 564.048,452.403 L 564.236,452.411 L 564.466,452.345 L 564.94,452.062 L 565.055,452.152 L 565.193,452.323 L 565.344,452.607 L 565.643,452.736 L 565.786,452.826 L 565.889,452.852 L 565.946,452.829 L 566.059,452.606 L 566.196,452.485 L 566.449,452.332 L 567.008,452.209 L 567.407,452.172 L 567.576,452.146 L 567.859,452.074 L 568.306,451.845 L 568.746,452.14 L 569.224,452.197 L 569.687,452.195 L 569.828,452.105 L 569.909,452.037 L 570.395,451.552 L 571.053,450.895 L 571.491,451.82 L 571.642,451.875 L 571.62,451.955 L 571.583,452.033 L 571.87,452.256 L 572.223,452.373 L 572.349,452.487 L 572.36,452.61 L 572.241,453.151 L 572.263,453.305 L 572.377,453.847 L 572.587,453.968 L 572.773,454.514 L 573.15,454.745 L 573.204,454.811 L 573.291,455.075 L 573.406,455.365 L 573.496,455.432 L 573.551,455.449 L 573.662,455.755 L 573.598,455.928 L 573.685,456.452 L 573.826,456.92 L 573.864,457.479 L 573.865,457.725 L 573.86,457.876 L 573.829,458.088 L 573.762,458.211 L 573.642,458.331 L 573.508,458.519 L 573.392,458.721 L 573.319,458.82 L 573.376,459.122 L 573.361,459.201 L 573.331,459.239 L 573.16,459.285 L 572.942,459.366 L 572.81,459.446 L 572.622,459.6 L 572.472,459.765 L 572.273,460.252 L 571.941,460.632 L 571.885,460.757 L 571.572,460.983 L 571.434,461.262 L 571.346,461.604 L 571.225,461.849 L 570.96,462.186 L 570.9,462.718 L 570.908,463.779 L 570.839,464.989 L 570.849,465.464" id="UG" title="Uganda"/>
</svg>
