<svg xmlns="http://www.w3.org/2000/svg" xmlns:ev="http://www.w3.org/2001/xml-events" xmlns:xlink="http://www.w3.org/1999/xlink" baseProfile="full" height="16.01300048828125" version="1.1" viewBox="311.6940002441406 550.7860107421875 14.910003662109375 16.01300048828125" width="14.910003662109375" fill="#00394f">
	<defs/>
	<path class="land" d="M 325.916,562.771 L 325.778,562.896 L 325.63,563.131 L 325.456,563.698 L 324.871,564.48 L 324.752,564.923 L 324.121,565.386 L 323.676,565.908 L 323.386,565.895 L 323.124,566.119 L 321.617,566.799 L 321.076,566.671 L 320.675,566.673 L 320.303,566.373 L 319.454,566.265 L 318.921,566.385 L 318.206,566.715 L 317.99,566.71 L 317.835,566.692 L 317.448,566.555 L 317.237,566.264 L 316.136,565.928 L 315.251,565.167 L 314.205,565.152 L 313.403,565.252 L 313.279,565.151 L 313.198,564.957 L 313.032,564.675 L 312.342,564.006 L 311.8,563.344 L 311.694,562.694 L 311.769,561.989 L 311.932,561.156 L 311.903,560.896 L 312.104,560.749 L 312.301,560.719 L 312.492,560.504 L 312.663,560.18 L 312.692,559.935 L 312.56,559.481 L 312.468,558.849 L 312.359,558.534 L 312.578,558.039 L 312.587,557.798 L 312.461,557.586 L 312.427,557.369 L 312.484,557.146 L 312.473,556.933 L 312.393,556.728 L 312.453,556.558 L 312.654,556.423 L 312.805,556.218 L 312.904,555.941 L 312.955,555.73 L 312.957,555.584 L 312.896,555.447 L 312.772,555.318 L 312.83,555.062 L 313.068,554.678 L 313.223,554.338 L 313.292,554.042 L 313.288,553.802 L 313.209,553.621 L 313.242,553.498 L 313.389,553.433 L 313.455,553.241 L 313.433,552.764 L 313.281,552.372 L 313.397,552.061 L 313.729,551.702 L 313.903,551.413 L 313.917,551.193 L 314.021,551.066 L 314.18,551.304 L 314.652,551.367 L 315.128,551.375 L 315.205,551.315 L 315.392,550.926 L 315.638,550.815 L 315.906,550.786 L 316.199,550.806 L 316.511,551.063 L 317.394,551.906 L 318.042,552.493 L 318.239,552.77 L 318.411,552.978 L 318.539,553.171 L 318.484,553.675 L 318.493,553.896 L 318.523,553.959 L 318.671,553.965 L 318.891,553.928 L 319.076,553.821 L 319.22,553.659 L 319.361,553.527 L 319.476,553.457 L 319.517,553.35 L 319.583,553.239 L 319.65,553.215 L 319.778,553.297 L 320.081,553.585 L 320.315,553.852 L 320.373,554.004 L 320.463,554.163 L 320.56,554.302 L 320.628,554.438 L 320.855,554.614 L 321.087,554.726 L 321.242,554.611 L 321.635,554.979 L 322.5,555.286 L 322.659,555.472 L 322.809,555.737 L 323.111,556.138 L 323.53,556.5 L 323.867,556.653 L 324.191,556.74 L 324.372,556.82 L 324.496,556.959 L 324.693,557.108 L 324.818,557.164 L 324.86,557.298 L 324.988,557.591 L 325.122,557.962 L 325.267,558.307 L 325.582,558.639 L 325.938,558.897 L 326.307,559.043 L 326.514,559.225 L 326.604,559.413 L 326.355,559.693 L 326.085,560.046 L 325.847,560.323 L 325.601,560.517 L 325.519,560.651 L 325.464,560.858 L 325.467,561.96 L 325.447,562.371 L 325.464,562.48 L 325.5,562.553 L 325.655,562.663 L 325.84,562.755 L 325.916,562.771" id="UY" title="Uruguay"/>
</svg>
