<svg xmlns="http://www.w3.org/2000/svg" xmlns:ev="http://www.w3.org/2001/xml-events" xmlns:xlink="http://www.w3.org/1999/xlink" baseProfile="full" height="31.305999755859375" version="1.1" viewBox="632.7860107421875 319.4939880371094 48.17401123046875 31.305999755859375" width="48.17401123046875" fill="#00394f">
	<defs/>
	<path class="land" d="M 674.811,332.34 L 674.902,332.27299999999997 L 675.062,332.205 L 675.326,332.33599999999996 L 675.557,332.501 L 675.613,332.577 L 675.6020000000001,332.665 L 675.051,332.98600000000005 L 674.7090000000001,333.136 L 674.5580000000001,333.163 L 674.517,333.205 L 674.4090000000001,333.57 L 674.1970000000001,333.635 L 673.9250000000001,333.746 L 673.735,333.914 L 673.432,334.31 L 672.662,334.885 L 672.6510000000001,335.002 L 672.7180000000001,335.09700000000004 L 672.9680000000001,335.163 L 673.2980000000001,335.339 L 673.4770000000001,335.477 L 673.9660000000001,335.299 L 674.0870000000001,335.33799999999997 L 674.2150000000001,335.522 L 674.3500000000001,336.036 L 674.5690000000002,336.176 L 674.8560000000002,336.283 L 675.0340000000002,336.31800000000004 L 675.2710000000002,336.444 L 675.5870000000002,336.49100000000004 L 675.7990000000002,336.44500000000005 L 676.0640000000002,336.55300000000005 L 676.1070000000002,336.50600000000003 L 676.1420000000002,335.74 L 676.3640000000001,335.868 L 676.4920000000002,335.866 L 676.6040000000002,335.772 L 676.6620000000001,335.645 L 676.7000000000002,335.392 L 676.6510000000002,335.139 L 676.7500000000002,335.023 L 676.8270000000002,334.997 L 676.8840000000002,335.028 L 676.9180000000002,335.093 L 676.9280000000002,335.322 L 677.0880000000002,335.419 L 677.1860000000001,335.47499999999997 L 677.2790000000001,335.669 L 677.3700000000001,335.854 L 677.4280000000001,336.287 L 677.6530000000001,336.31699999999995 L 677.9170000000001,336.4 L 678.0940000000002,336.31899999999996 L 678.2310000000001,336.36699999999996 L 678.2780000000001,336.57199999999995 L 678.2770000000002,336.7629999999999 L 678.2970000000001,336.9149999999999 L 678.3680000000002,336.9579999999999 L 678.5980000000002,336.8629999999999 L 678.7910000000002,336.8499999999999 L 678.9690000000002,336.9409999999999 L 679.1900000000002,337.0789999999999 L 679.5110000000002,337.4409999999999 L 679.6170000000002,337.49299999999994 L 680.1010000000002,337.52099999999996 L 680.2020000000002,337.59499999999997 L 680.3680000000003,337.59499999999997 L 680.5480000000002,337.53 L 680.9470000000002,337.647 L 680.9600000000003,337.71299999999997 L 680.8930000000003,337.804 L 679.9420000000002,338.304 L 679.8720000000002,338.45799999999997 L 679.6780000000002,338.65299999999996 L 679.4660000000002,338.76399999999995 L 679.3630000000003,338.768 L 678.8980000000003,338.57 L 678.8440000000003,338.618 L 678.8060000000003,338.698 L 678.8080000000002,338.78499999999997 L 678.9100000000002,338.993 L 678.8630000000002,339.12399999999997 L 678.7740000000001,339.219 L 678.4830000000001,339.13599999999997 L 678.4290000000001,339.08299999999997 L 678.4230000000001,339.025 L 678.3110000000001,339.025 L 678.1380000000001,339.08299999999997 L 677.8050000000002,339.44199999999995 L 677.6890000000002,339.62999999999994 L 677.6460000000002,339.74299999999994 L 677.4980000000002,339.80699999999996 L 677.3370000000002,339.83099999999996 L 677.129,340.0 L 676.903,340.131 L 676.831,340.03499999999997 L 676.787,339.92799999999994 L 676.7270000000001,339.89399999999995 L 676.5880000000001,339.9189999999999 L 676.4200000000001,339.92299999999994 L 676.243,339.80199999999996 L 676.014,339.67999999999995 L 675.814,339.63699999999994 L 675.2239999999999,339.69399999999996 L 674.9319999999999,339.75399999999996 L 674.8399999999999,339.813 L 674.6759999999999,339.829 L 673.9849999999999,339.952 L 673.8439999999999,339.904 L 673.7399999999999,339.71 L 673.6489999999999,339.5 L 673.4699999999999,339.424 L 673.2689999999999,339.36499999999995 L 673.1939999999998,339.28099999999995 L 673.1889999999999,339.179 L 673.2099999999998,339.07899999999995 L 673.2259999999998,339.02699999999993 L 673.6919999999998,338.62499999999994 L 674.1119999999997,338.2629999999999 L 674.1509999999997,338.2339999999999 L 674.1889999999997,338.1649999999999 L 674.2599999999998,338.0399999999999 L 674.2599999999998,337.9749999999999 L 673.9459999999998,337.8309999999999 L 673.9339999999999,337.76499999999993 L 673.9969999999998,337.69699999999995 L 673.9969999999998,337.60599999999994 L 673.7749999999999,337.3399999999999 L 673.3909999999998,336.9249999999999 L 673.2799999999999,336.8819999999999 L 673.1979999999999,336.9089999999999 L 673.0479999999999,337.3099999999999 L 672.9729999999998,337.41199999999986 L 672.5349999999999,337.67499999999984 L 672.1689999999999,337.8559999999998 L 671.5169999999998,338.17699999999985 L 671.3469999999999,338.27799999999985 L 671.2289999999998,338.2599999999999 L 671.1109999999998,338.1969999999999 L 670.7449999999998,337.8719999999999 L 670.5089999999998,337.7609999999999 L 670.3499999999998,337.8709999999999 L 670.2159999999998,338.03099999999995 L 670.2289999999998,338.35999999999996 L 670.0779999999999,338.53299999999996 L 669.9269999999999,338.61099999999993 L 670.2019999999999,339.48999999999995 L 670.1749999999998,339.60299999999995 L 669.9649999999998,339.63399999999996 L 670.1189999999998,339.96399999999994 L 669.9889999999998,340.00199999999995 L 669.6579999999998,339.92499999999995 L 669.2129999999997,339.87399999999997 L 668.3729999999997,340.02 L 668.3109999999997,340.077 L 668.2879999999997,340.15 L 668.3369999999996,340.21599999999995 L 668.7439999999997,340.22299999999996 L 669.1419999999997,340.18999999999994 L 669.2519999999997,340.2509999999999 L 669.2689999999998,340.3589999999999 L 669.2229999999997,340.4269999999999 L 669.0899999999997,340.4389999999999 L 668.7989999999996,340.5039999999999 L 668.7659999999996,340.5729999999999 L 668.7559999999996,340.6389999999999 L 668.8549999999997,340.82999999999987 L 668.9649999999997,340.9519999999999 L 668.9789999999997,341.0239999999999 L 668.9329999999997,341.08499999999987 L 668.8769999999996,341.10899999999987 L 668.7789999999997,341.0189999999999 L 668.7229999999996,341.03699999999986 L 668.6959999999996,341.11899999999986 L 668.6689999999995,341.21499999999986 L 668.6049999999996,341.28499999999985 L 668.4689999999996,341.2479999999999 L 668.3339999999996,341.27499999999986 L 668.2539999999996,341.6229999999999 L 668.1859999999996,342.0169999999999 L 667.9639999999996,342.2789999999999 L 667.8409999999996,342.3739999999999 L 667.6599999999995,342.40199999999993 L 667.3909999999995,342.36999999999995 L 667.2279999999995,342.33099999999996 L 666.7559999999995,342.27299999999997 L 666.2829999999996,342.16599999999994 L 665.7509999999995,342.0659999999999 L 665.2559999999995,342.2969999999999 L 665.1129999999995,342.43799999999993 L 665.0219999999995,342.56999999999994 L 664.9289999999995,342.6309999999999 L 664.7139999999995,343.4389999999999 L 664.7359999999995,343.5309999999999 L 664.8549999999996,343.6029999999999 L 665.4619999999995,343.76999999999987 L 665.5509999999996,343.8389999999999 L 665.6039999999996,343.9179999999999 L 665.6299999999995,344.2799999999999 L 665.6799999999995,344.3299999999999 L 665.8879999999995,344.37499999999994 L 666.1889999999995,344.37199999999996 L 666.4249999999995,344.33599999999996 L 666.6619999999995,344.36899999999997 L 666.8279999999995,344.44699999999995 L 666.9089999999995,344.56999999999994 L 666.9539999999995,344.7029999999999 L 666.6719999999995,345.4959999999999 L 666.6949999999995,345.78399999999993 L 666.7819999999995,346.1959999999999 L 666.9419999999994,346.5189999999999 L 667.2429999999995,346.8339999999999 L 667.4719999999995,347.0359999999999 L 667.5199999999995,347.1309999999999 L 667.5319999999995,347.2779999999999 L 667.4949999999994,347.4659999999999 L 667.3629999999995,347.7639999999999 L 667.2009999999995,348.0239999999999 L 667.0259999999995,348.1339999999999 L 666.7829999999994,348.4639999999999 L 666.5679999999994,348.86899999999986 L 666.1549999999994,349.39899999999983 L 666.0159999999994,349.69399999999985 L 665.9699999999993,350.54499999999985 L 665.8609999999993,350.79999999999984 L 665.8439999999993,350.70299999999986 L 665.6949999999993,350.6059999999999 L 665.4349999999993,350.6229999999999 L 665.2639999999992,350.5769999999999 L 665.1819999999992,350.4679999999999 L 664.9699999999992,350.4989999999999 L 664.6279999999992,350.6679999999999 L 664.2789999999992,350.5779999999999 L 663.9239999999992,350.2279999999999 L 663.2469999999992,350.0999999999999 L 662.3899999999992,350.1799999999999 L 662.3579999999992,349.7919999999999 L 662.3599999999991,349.2969999999999 L 662.3989999999991,348.6379999999999 L 662.6909999999991,348.11999999999995 L 662.6819999999991,348.02099999999996 L 662.6249999999991,347.92599999999993 L 662.535999999999,347.84099999999995 L 662.016999999999,347.698 L 661.864999999999,347.623 L 661.663999999999,347.459 L 661.409999999999,347.287 L 661.1889999999989,347.16799999999995 L 660.841999999999,347.01099999999997 L 660.5219999999989,346.924 L 660.3339999999989,346.98999999999995 L 660.1609999999989,347.07399999999996 L 659.9989999999989,347.07599999999996 L 659.8369999999989,347.03 L 659.2369999999988,346.637 L 658.3309999999989,345.957 L 657.6129999999989,345.481 L 657.1619999999989,345.253 L 657.0549999999989,345.18 L 656.8019999999989,344.966 L 656.1799999999989,344.38800000000003 L 655.7669999999989,344.473 L 655.1769999999989,344.09700000000004 L 654.6469999999989,343.72900000000004 L 654.5269999999989,343.629 L 653.923999999999,342.947 L 653.321999999999,342.504 L 652.665999999999,342.02000000000004 L 652.241999999999,341.71600000000007 L 651.522999999999,341.20000000000005 L 651.170999999999,340.88800000000003 L 651.051999999999,340.773 L 650.935999999999,340.552 L 650.747999999999,339.469 L 650.531999999999,338.971 L 650.223999999999,338.7 L 649.9619999999991,338.17699999999996 L 649.7439999999991,337.4 L 649.5639999999992,336.894 L 649.4209999999991,336.66 L 649.1329999999991,336.401 L 648.6959999999991,336.117 L 648.2819999999991,335.982 L 648.1329999999991,335.987 L 648.0589999999992,336.02200000000005 L 647.9749999999992,336.07000000000005 L 647.8109999999992,336.28200000000004 L 647.5689999999993,336.30400000000003 L 647.3909999999993,336.29900000000004 L 647.2249999999992,336.223 L 646.7009999999992,336.156 L 646.5149999999992,336.082 L 646.1999999999991,336.093 L 645.5229999999991,336.20300000000003 L 645.3579999999992,336.18300000000005 L 644.6429999999991,335.70900000000006 L 644.3319999999991,335.5210000000001 L 644.2699999999991,335.4170000000001 L 644.2729999999991,335.23500000000007 L 644.3779999999991,334.9770000000001 L 644.4679999999992,334.7940000000001 L 644.4279999999992,334.6040000000001 L 644.2919999999992,334.3960000000001 L 644.2919999999992,334.1740000000001 L 644.3849999999992,334.05000000000007 L 644.5749999999992,334.08900000000006 L 644.6429999999992,334.0110000000001 L 644.6189999999992,333.8930000000001 L 644.5159999999993,333.8090000000001 L 644.3789999999993,333.62000000000006 L 643.9739999999994,333.4440000000001 L 643.9159999999994,333.37200000000007 L 643.9369999999993,333.2900000000001 L 644.0069999999994,333.20200000000006 L 644.0209999999994,333.0160000000001 L 644.0279999999993,332.77600000000007 L 644.0819999999993,332.65100000000007 L 644.0969999999993,332.55300000000005 L 644.0379999999993,332.47400000000005 L 643.9009999999994,332.38200000000006 L 643.6819999999993,332.15900000000005 L 643.4129999999993,332.13500000000005 L 642.5379999999993,332.14300000000003 L 642.2669999999994,332.05300000000005 L 642.0489999999994,331.92800000000005 L 641.8309999999994,331.45200000000006 L 641.7209999999994,331.33900000000006 L 641.6179999999995,331.29200000000003 L 641.3729999999995,331.276 L 641.0779999999995,331.23 L 640.9269999999996,331.149 L 640.5149999999995,330.713 L 640.1189999999996,330.32300000000004 L 639.9599999999996,330.69100000000003 L 639.8059999999996,330.764 L 639.4569999999995,330.73 L 639.1949999999996,330.668 L 639.0459999999996,330.75100000000003 L 638.8919999999996,330.896 L 638.9209999999996,330.992 L 639.0389999999996,331.093 L 639.2759999999996,331.28000000000003 L 639.6389999999997,331.737 L 639.8039999999996,331.98900000000003 L 639.8279999999996,332.07700000000006 L 639.7969999999997,332.14300000000003 L 639.7479999999997,332.17100000000005 L 639.6759999999997,332.1700000000001 L 639.5789999999997,332.1690000000001 L 639.5229999999997,332.0940000000001 L 639.5039999999997,331.9640000000001 L 639.3829999999997,331.7670000000001 L 639.2579999999997,331.65300000000013 L 639.1209999999998,331.5820000000001 L 638.9289999999997,331.5290000000001 L 638.6759999999997,331.4350000000001 L 638.5449999999997,331.4310000000001 L 638.4179999999998,331.5400000000001 L 638.3119999999998,331.68700000000007 L 638.2489999999998,332.0080000000001 L 638.0599999999998,332.4020000000001 L 637.9439999999998,332.5570000000001 L 637.5839999999998,332.65100000000007 L 636.7299999999998,332.68300000000005 L 636.4749999999998,332.80600000000004 L 636.3009999999998,332.95400000000006 L 635.9779999999998,333.43300000000005 L 635.7529999999998,333.59200000000004 L 635.5579999999998,333.81100000000004 L 635.6169999999997,334.51300000000003 L 635.7109999999998,335.33000000000004 L 635.8749999999998,335.55600000000004 L 635.9789999999998,335.624 L 635.9929999999998,335.704 L 635.9259999999998,335.77500000000003 L 635.8399999999998,335.86400000000003 L 635.7099999999998,336.02700000000004 L 635.5639999999999,336.0210000000001 L 635.2699999999999,335.9800000000001 L 635.0249999999999,335.9360000000001 L 634.2009999999999,335.88900000000007 L 633.5329999999999,335.85100000000006 L 632.7909999999999,335.8090000000001 L 632.79,334.9530000000001 L 632.79,334.0940000000001 L 632.79,333.2320000000001 L 632.789,332.3670000000001 L 632.789,331.49800000000005 L 632.789,330.62600000000003 L 632.788,329.75100000000003 L 632.788,328.87300000000005 L 632.788,327.9920000000001 L 632.788,327.1070000000001 L 632.787,326.2190000000001 L 632.787,325.3270000000001 L 632.787,324.4310000000001 L 632.7860000000001,323.5320000000001 L 632.7860000000001,322.6300000000001 L 632.7860000000001,321.7240000000001 L 633.1360000000001,321.6120000000001 L 633.5780000000001,321.4690000000001 L 634.0020000000001,321.3330000000001 L 634.5070000000001,321.1700000000001 L 635.076,320.98600000000005 L 635.562,320.82900000000006 L 636.142,320.64200000000005 L 636.5840000000001,320.4990000000001 L 636.999,320.36500000000007 L 637.53,320.20500000000004 L 638.356,319.95700000000005 L 638.817,319.81800000000004 L 639.283,319.67800000000005 L 639.727,319.54400000000004 L 640.024,319.494 L 640.343,319.685 L 640.731,319.947 L 641.119,320.209 L 641.5070000000001,320.471 L 641.8950000000001,320.733 L 642.2830000000001,320.994 L 642.6710000000002,321.25500000000005 L 643.0590000000002,321.5160000000001 L 643.4470000000002,321.77600000000007 L 643.8350000000003,322.03600000000006 L 644.2230000000003,322.29600000000005 L 644.6110000000003,322.55500000000006 L 644.9990000000004,322.8140000000001 L 645.3870000000004,323.0730000000001 L 645.7750000000004,323.3310000000001 L 646.1630000000005,323.58900000000006 L 646.5510000000005,323.84700000000004 L 646.9110000000005,324.08700000000005 L 647.0730000000005,324.26500000000004 L 647.1620000000006,324.65700000000004 L 647.3410000000006,324.968 L 647.6520000000006,325.30400000000003 L 647.9700000000006,325.648 L 648.3660000000006,326.101 L 648.6400000000006,326.415 L 648.9190000000006,326.735 L 649.3810000000005,327.262 L 649.6690000000006,327.59 L 649.8980000000006,327.601 L 650.3630000000006,327.523 L 650.9850000000006,327.41900000000004 L 651.4760000000006,327.336 L 652.0700000000006,327.236 L 652.6360000000006,327.14099999999996 L 653.0820000000007,327.06499999999994 L 653.7500000000007,327.12199999999996 L 654.4090000000007,327.179 L 654.8820000000006,327.21999999999997 L 655.3450000000006,327.26 L 655.8940000000006,327.307 L 656.2010000000006,327.333 L 656.5530000000006,327.363 L 656.7010000000006,327.284 L 657.0040000000006,327.122 L 657.2900000000005,326.97 L 657.5870000000006,326.81100000000004 L 657.8500000000006,326.73100000000005 L 658.1240000000006,326.98400000000004 L 658.3530000000006,327.276 L 658.5940000000006,327.583 L 658.8730000000006,327.87800000000004 L 659.1440000000006,328.05300000000005 L 659.5070000000006,328.2900000000001 L 659.7160000000006,328.6940000000001 L 659.9950000000006,329.23300000000006 L 660.1790000000005,329.58700000000005 L 660.3680000000005,329.95000000000005 L 660.6430000000005,329.8070000000001 L 660.9360000000005,329.65400000000005 L 661.2020000000005,329.51500000000004 L 661.1700000000004,329.96400000000006 L 661.1420000000004,330.37100000000004 L 661.0970000000004,330.98600000000005 L 661.0610000000005,331.48800000000006 L 660.9650000000005,332.08600000000007 L 660.9580000000005,332.54100000000005 L 660.9520000000006,332.94000000000005 L 660.9480000000005,333.25600000000003 L 661.4630000000005,333.27000000000004 L 661.8440000000005,333.28000000000003 L 662.3210000000005,333.293 L 662.3670000000005,333.689 L 662.4310000000005,334.245 L 662.5280000000005,334.747 L 662.6100000000005,335.168 L 662.7320000000004,335.711 L 662.7980000000005,336.00100000000003 L 662.9120000000005,336.34200000000004 L 663.0250000000005,336.42400000000004 L 663.2060000000006,336.478 L 663.8360000000006,336.437 L 664.3580000000006,336.403 L 664.7700000000007,336.377 L 665.2080000000007,336.349 L 665.7890000000007,336.311 L 665.9860000000007,336.39799999999997 L 666.1560000000006,336.337 L 666.3520000000007,336.276 L 666.5080000000006,336.523 L 666.5870000000006,336.648 L 666.6980000000005,336.778 L 666.8480000000005,336.899 L 666.7850000000005,337.152 L 666.6920000000006,337.521 L 666.6660000000006,337.71000000000004 L 666.8470000000007,337.91400000000004 L 666.9820000000007,338.0330000000001 L 667.3510000000007,338.2750000000001 L 667.6980000000007,338.4100000000001 L 667.9240000000007,338.4500000000001 L 668.1400000000007,338.3980000000001 L 668.2190000000006,338.2610000000001 L 668.1990000000006,338.07200000000006 L 668.0950000000006,337.87300000000005 L 668.1030000000006,337.636 L 668.1720000000006,337.463 L 668.3930000000006,337.148 L 668.6020000000005,336.85 L 668.9220000000006,336.54600000000005 L 669.3030000000006,336.24500000000006 L 669.4610000000006,336.02500000000003 L 669.5220000000006,335.64200000000005 L 669.7710000000006,335.42500000000007 L 670.0400000000006,335.2950000000001 L 670.3740000000006,335.1820000000001 L 670.4660000000006,334.99000000000007 L 670.9270000000006,334.66400000000004 L 671.2030000000005,334.50300000000004 L 671.5520000000006,334.40900000000005 L 672.0340000000006,334.19700000000006 L 672.4150000000005,333.94700000000006 L 672.7800000000005,333.47600000000006 L 673.0700000000005,333.16700000000003 L 673.3140000000005,332.97700000000003 L 673.5190000000006,332.97 L 673.6630000000006,333.124 L 673.7870000000006,333.137 L 673.8680000000006,333.067 L 674.0060000000007,332.869 L 674.1540000000007,332.63800000000003 L 674.2930000000007,332.54200000000003 L 674.5620000000007,332.49300000000005 L 674.811,332.34 M 673.985,337.246 L 673.975,337.156 L 673.888,337.005 L 673.758,336.92 L 673.696,336.957 L 673.749,337.08 L 673.9,337.255 L 673.985,337.246 M 675.539,341.079 L 675.398,341.112 L 675.14,341.107 L 674.9929999999999,341.069 L 675.083,340.773 L 675.086,340.714 L 675.075,340.706 L 675.0010000000001,340.666 L 674.8890000000001,340.545 L 674.8500000000001,340.36600000000004 L 674.8940000000001,340.20000000000005 L 674.9760000000001,340.13100000000003 L 675.0280000000001,340.14300000000003 L 675.1860000000001,340.396 L 675.3270000000001,340.47 L 675.6020000000001,340.512 L 675.4630000000001,340.762 L 675.566,341.029 L 675.539,341.079 M 677.148,340.869 L 677.073,341.026 L 676.941,340.988 L 676.837,340.884 L 676.871,340.802 L 677.026,340.757 L 677.107,340.712 L 677.175,340.704 L 677.148,340.869" id="UZ" title="Uzbekistan"/>
</svg>
