<svg xmlns="http://www.w3.org/2000/svg" xmlns:ev="http://www.w3.org/2001/xml-events" xmlns:xlink="http://www.w3.org/1999/xlink" baseProfile="full" height="1.899993896484375" version="1.1" viewBox="303.5119934082031 425.0840148925781 0.644012451171875 1.899993896484375" width="0.644012451171875" fill="#00394f">
	<defs/>
	<path class="land" d="M 304.014,425.658 L 303.931,425.70300000000003 L 303.72499999999997,425.511 L 303.74999999999994,425.28700000000003 L 303.87499999999994,425.16400000000004 L 303.99299999999994,425.09200000000004 L 304.1139999999999,425.08400000000006 L 304.1559999999999,425.26900000000006 L 304.1269999999999,425.5300000000001 L 304.014,425.658 M 303.869,426.126 L 303.824,426.157 L 303.845,426.157 L 303.824,426.178 L 303.81,426.157 L 303.788,426.144 L 303.76,426.13800000000003 L 303.727,426.139 L 303.727,426.118 L 303.76899999999995,426.131 L 303.83199999999994,426.118 L 303.83199999999994,426.09499999999997 L 303.81299999999993,426.07399999999996 L 303.80499999999995,426.05899999999997 L 303.828,426.037 L 303.90599999999995,425.98699999999997 L 303.93899999999996,425.96099999999996 L 303.943,425.972 L 303.94399999999996,425.98199999999997 L 303.948,425.99199999999996 L 303.96,426.00199999999995 L 303.91999999999996,426.04099999999994 L 303.869,426.126 M 303.565,426.983 L 303.537,426.984 L 303.512,426.974 L 303.519,426.965 L 303.551,426.95799999999997 L 303.566,426.93899999999996 L 303.561,426.914 L 303.56199999999995,426.88599999999997 L 303.58699999999993,426.86899999999997 L 303.6069999999999,426.868 L 303.61599999999993,426.879 L 303.6209999999999,426.90500000000003 L 303.60599999999994,426.925 L 303.58899999999994,426.94100000000003 L 303.58099999999996,426.966 L 303.565,426.983" id="VC" title="Saint Vincent and the Grenadines"/>
</svg>
