<svg xmlns="http://www.w3.org/2000/svg" xmlns:ev="http://www.w3.org/2001/xml-events" xmlns:xlink="http://www.w3.org/1999/xlink" baseProfile="full" height="32.291015625" version="1.1" viewBox="269.78399658203125 428.45599365234375 38.006011962890625 32.291015625" width="38.006011962890625" fill="#00394f">
	<defs/>
	<path class="land" d="M 307.261,438.748 L 307.78200000000004,439.43399999999997 L 307.79,439.51 L 307.733,439.596 L 307.408,439.757 L 307.33500000000004,439.84000000000003 L 307.218,440.14500000000004 L 306.809,440.312 L 306.526,440.522 L 306.336,440.706 L 306.241,440.78000000000003 L 305.86699999999996,440.821 L 305.74699999999996,440.937 L 305.59599999999995,441.285 L 305.48599999999993,441.43100000000004 L 305.2919999999999,441.60200000000003 L 305.29099999999994,441.706 L 305.5589999999999,442.086 L 305.6069999999999,442.206 L 305.5239999999999,442.387 L 305.53199999999987,442.515 L 305.6729999999999,442.669 L 305.8409999999999,442.704 L 306.0049999999999,442.64 L 306.2089999999999,442.64599999999996 L 306.34199999999987,442.68699999999995 L 306.3969999999999,442.73199999999997 L 306.4059999999999,442.84999999999997 L 306.3219999999999,443.09999999999997 L 306.2009999999999,443.26199999999994 L 305.6649999999999,443.50999999999993 L 305.4269999999999,443.65399999999994 L 305.2949999999999,443.75999999999993 L 305.0059999999999,443.7029999999999 L 304.8589999999999,443.70699999999994 L 304.7459999999999,443.78899999999993 L 304.6769999999999,443.8589999999999 L 304.4829999999999,443.8769999999999 L 304.2089999999999,443.91899999999987 L 304.0939999999999,443.9659999999999 L 304.0049999999999,444.0889999999999 L 303.93099999999987,444.2639999999999 L 303.9929999999999,444.4739999999999 L 304.0789999999999,444.66199999999986 L 304.0749999999999,444.8339999999999 L 304.14099999999985,445.3129999999999 L 304.05499999999984,445.4249999999999 L 303.8709999999998,445.5509999999999 L 303.6519999999998,445.77499999999986 L 303.40599999999984,446.08599999999984 L 303.4449999999998,446.17499999999984 L 304.03299999999984,446.8269999999998 L 304.63099999999986,447.48999999999984 L 305.2259999999999,448.14899999999983 L 305.3099999999999,448.1779999999998 L 305.4219999999999,448.25399999999985 L 305.5259999999999,448.48399999999987 L 305.6109999999999,448.72899999999987 L 305.6129999999999,448.85499999999985 L 305.5459999999999,449.01399999999984 L 305.4009999999999,449.19699999999983 L 305.2249999999999,449.34499999999986 L 304.9679999999999,449.47099999999983 L 304.7629999999999,449.58999999999986 L 304.59399999999994,449.90299999999985 L 304.49099999999993,450.01299999999986 L 304.39699999999993,450.05699999999985 L 304.21099999999996,450.09799999999984 L 303.91099999999994,450.08799999999985 L 303.71299999999997,450.06399999999985 L 303.467,450.29799999999983 L 303.154,450.38399999999984 L 302.944,450.70399999999984 L 302.196,450.95799999999986 L 301.464,451.15499999999986 L 301.263,451.23299999999983 L 300.53999999999996,451.0699999999998 L 300.366,451.1209999999998 L 300.166,451.2729999999998 L 299.981,451.3899999999998 L 299.825,451.3969999999998 L 299.694,451.4579999999998 L 299.61600000000004,451.6749999999998 L 299.547,452.4219999999998 L 299.28700000000003,452.6439999999998 L 298.97400000000005,452.6429999999998 L 298.75900000000007,452.3839999999998 L 298.5040000000001,452.1889999999998 L 298.0590000000001,451.7259999999998 L 297.93500000000006,451.6649999999998 L 297.82000000000005,451.6679999999998 L 297.40700000000004,451.80599999999976 L 297.211,451.74599999999975 L 297.053,451.67399999999975 L 296.789,451.6969999999998 L 296.31899999999996,451.70199999999977 L 296.01899999999995,451.7059999999998 L 295.87299999999993,451.5799999999998 L 295.7369999999999,451.3209999999998 L 295.6459999999999,451.2279999999998 L 295.5389999999999,451.1529999999998 L 295.36199999999985,451.1149999999998 L 294.60499999999985,451.11599999999976 L 294.4619999999999,451.11599999999976 L 294.3579999999999,451.06599999999975 L 294.2119999999999,450.84399999999977 L 294.0529999999999,450.7399999999998 L 293.8659999999999,450.73599999999976 L 293.7839999999999,450.85899999999975 L 294.1079999999999,451.25799999999975 L 294.2019999999999,451.47499999999974 L 294.4859999999999,451.7879999999997 L 295.3069999999999,452.45099999999974 L 295.4589999999999,452.6609999999997 L 295.4419999999999,452.9299999999997 L 295.4369999999999,453.3409999999997 L 295.4649999999999,453.72999999999973 L 295.67599999999993,454.2879999999997 L 295.9719999999999,454.85499999999973 L 296.05299999999994,455.21699999999976 L 295.99799999999993,455.48399999999975 L 295.9409999999999,455.6269999999997 L 295.9469999999999,455.6899999999997 L 296.00799999999987,455.74699999999973 L 296.2909999999999,455.8289999999997 L 296.8849999999999,455.8799999999997 L 297.24399999999986,455.8799999999997 L 297.79199999999986,455.9419999999997 L 297.83299999999986,456.14099999999974 L 297.7789999999999,456.46999999999974 L 297.6709999999999,456.65699999999975 L 297.58299999999986,456.71099999999973 L 297.28499999999985,456.75399999999973 L 296.97099999999983,456.95599999999973 L 296.5149999999998,457.15499999999975 L 296.2549999999998,457.18199999999973 L 296.1469999999998,457.2209999999997 L 296.05499999999984,457.2809999999997 L 295.9789999999998,457.35699999999974 L 295.8909999999998,457.73099999999977 L 295.7569999999998,458.1529999999998 L 295.5039999999998,458.4029999999998 L 295.2259999999998,458.6099999999998 L 294.94299999999976,458.6329999999998 L 294.7159999999998,458.6159999999998 L 294.6029999999998,458.6769999999998 L 294.43999999999977,458.8469999999998 L 294.20699999999977,459.0589999999998 L 294.02699999999976,459.1719999999998 L 293.78499999999974,459.1609999999998 L 293.5259999999997,459.26499999999976 L 293.1989999999997,459.43599999999975 L 292.98199999999974,459.57599999999974 L 292.79699999999974,459.81599999999975 L 292.53199999999975,460.0669999999997 L 292.25999999999976,460.24399999999974 L 292.12999999999977,460.46199999999976 L 291.9439999999998,460.7379999999998 L 291.71199999999976,460.7469999999998 L 291.69299999999976,460.5809999999998 L 291.80399999999975,460.3139999999998 L 291.68299999999977,460.0839999999998 L 291.46199999999976,459.95999999999975 L 291.3579999999998,459.9229999999998 L 291.25499999999977,459.93799999999976 L 290.99299999999977,460.05199999999974 L 290.67199999999974,460.25899999999973 L 290.47399999999976,460.40799999999973 L 290.2949999999998,460.4759999999997 L 289.9269999999998,460.5379999999997 L 289.6169999999998,460.5699999999997 L 289.4889999999998,460.52799999999974 L 289.2589999999998,460.37599999999975 L 288.7259999999998,459.89999999999975 L 288.00499999999977,459.25599999999974 L 287.94999999999976,459.06899999999973 L 287.98099999999977,458.87899999999973 L 287.8499999999998,458.6009999999997 L 287.7729999999998,458.3049999999997 L 287.7079999999998,458.20299999999975 L 287.6889999999998,457.98099999999977 L 287.5329999999998,457.58199999999977 L 287.4049999999998,457.25499999999977 L 287.2869999999998,457.08899999999977 L 287.3369999999998,456.9469999999998 L 287.2869999999998,456.80599999999976 L 287.1919999999998,456.69099999999975 L 287.0519999999998,456.31999999999977 L 287.1009999999998,456.15999999999974 L 287.0639999999998,455.9999999999997 L 286.9459999999998,455.8899999999997 L 286.7789999999998,455.7719999999997 L 286.5559999999998,455.5259999999997 L 286.2899999999998,455.29199999999975 L 286.15399999999977,455.19999999999976 L 286.06099999999975,455.1629999999998 L 285.97999999999973,454.9409999999998 L 285.9179999999997,454.8729999999998 L 285.7819999999997,454.85499999999985 L 285.5029999999997,454.76199999999983 L 285.2429999999997,454.8729999999998 L 285.23699999999974,454.7009999999998 L 285.31099999999975,454.5969999999998 L 286.2089999999998,453.7749999999998 L 286.6609999999998,453.3969999999998 L 286.70999999999975,453.34099999999984 L 286.7499999999998,453.25399999999985 L 286.7809999999998,453.13699999999983 L 286.67799999999977,453.0029999999998 L 286.2539999999998,452.3679999999998 L 286.1069999999998,452.2479999999998 L 285.9619999999998,452.1499999999998 L 285.7959999999998,451.8829999999998 L 285.5969999999998,451.26199999999983 L 285.45399999999984,450.9499999999998 L 285.41099999999983,450.7099999999998 L 285.41999999999985,450.4389999999998 L 285.36699999999985,450.23099999999977 L 285.25199999999984,450.0859999999998 L 285.25199999999984,449.6429999999998 L 285.36699999999985,448.9009999999998 L 285.39499999999987,448.33699999999976 L 285.3369999999999,447.95099999999974 L 285.4399999999999,447.65699999999975 L 285.70299999999986,447.45499999999976 L 285.84999999999985,447.14299999999974 L 285.88099999999986,446.7209999999997 L 286.0389999999999,446.37399999999974 L 286.32299999999987,446.1029999999997 L 286.41999999999985,445.83499999999975 L 286.32999999999987,445.56999999999977 L 286.3009999999999,445.4009999999998 L 286.0599999999999,445.22899999999976 L 285.6129999999999,445.1079999999998 L 285.2429999999999,445.09399999999977 L 285.0189999999999,445.22899999999976 L 284.4459999999999,445.35399999999976 L 283.5239999999999,445.46899999999977 L 282.7809999999999,445.46899999999977 L 282.2179999999999,445.3529999999998 L 281.7899999999999,445.39199999999977 L 281.4959999999999,445.5859999999998 L 281.28899999999993,445.62999999999977 L 281.1689999999999,445.5239999999998 L 281.03899999999993,445.4949999999998 L 280.8419999999999,445.5619999999998 L 280.80799999999994,445.5309999999998 L 280.3709999999999,445.00799999999975 L 279.9669999999999,444.52299999999974 L 279.50299999999993,443.94499999999977 L 278.9679999999999,443.2779999999998 L 278.8719999999999,443.2339999999998 L 278.7059999999999,443.23799999999983 L 278.4869999999999,443.24999999999983 L 278.14699999999993,443.1809999999998 L 277.91399999999993,443.08399999999983 L 277.7319999999999,442.98999999999984 L 277.3959999999999,442.8709999999998 L 277.1659999999999,442.8499999999998 L 276.9589999999999,442.8849999999998 L 276.3899999999999,443.1179999999998 L 276.0669999999999,443.1399999999998 L 275.8169999999999,443.14399999999983 L 275.14499999999987,443.0289999999998 L 274.68599999999986,443.0099999999998 L 274.1519999999999,443.08599999999984 L 273.9229999999999,443.12899999999985 L 273.6029999999999,443.0099999999998 L 273.3849999999999,442.82899999999984 L 273.1819999999999,442.39899999999983 L 273.03899999999993,442.0609999999998 L 272.7899999999999,441.9929999999998 L 272.5139999999999,441.93499999999983 L 272.3779999999999,441.8229999999998 L 272.2959999999999,441.6279999999998 L 272.2759999999999,441.3779999999998 L 272.3039999999999,440.97099999999983 L 272.3299999999999,440.8249999999998 L 272.36799999999994,440.3859999999998 L 272.5199999999999,440.1559999999998 L 272.61599999999993,440.0449999999998 L 272.5969999999999,439.8599999999998 L 272.52399999999994,439.4819999999998 L 272.44999999999993,439.2139999999998 L 272.14399999999995,438.91099999999983 L 271.75199999999995,438.5219999999998 L 271.58299999999997,437.89899999999983 L 271.38399999999996,437.16299999999984 L 271.22799999999995,437.0889999999998 L 271.08099999999996,437.1259999999998 L 270.92499999999995,437.0889999999998 L 270.787,436.79299999999984 L 270.649,436.73699999999985 L 270.429,436.84099999999984 L 270.27,436.92199999999985 L 269.86699999999996,436.99599999999987 L 269.78399999999993,436.92199999999985 L 269.81199999999995,436.82999999999987 L 269.98199999999997,436.56099999999986 L 270.18199999999996,436.21699999999987 L 270.41499999999996,435.9039999999999 L 270.631,435.58299999999986 L 270.79299999999995,435.2409999999999 L 270.90299999999996,434.5599999999999 L 270.979,434.08999999999986 L 271.179,433.25199999999984 L 271.544,432.58299999999986 L 271.68199999999996,432.27499999999986 L 272.013,431.87399999999985 L 272.16499999999996,431.65599999999984 L 272.36699999999996,431.4839999999998 L 272.92199999999997,431.2509999999998 L 273.585,430.0979999999998 L 273.73699999999997,429.91399999999976 L 274.407,429.74199999999973 L 274.92199999999997,429.6079999999997 L 275.30299999999994,429.4669999999997 L 275.42799999999994,429.3919999999997 L 275.52899999999994,429.3569999999997 L 275.4459999999999,429.4909999999997 L 275.2629999999999,429.6609999999997 L 275.0559999999999,429.7649999999997 L 273.9889999999999,430.0259999999997 L 273.87999999999994,430.08099999999973 L 273.74099999999993,430.18899999999974 L 273.73999999999995,430.4369999999997 L 273.76899999999995,430.63099999999974 L 274.08299999999997,431.2689999999997 L 274.20599999999996,431.4259999999997 L 274.626,431.77099999999973 L 274.53,431.81899999999973 L 274.375,431.8249999999997 L 274.488,432.2769999999997 L 274.746,432.5869999999997 L 274.758,432.7819999999997 L 274.56,433.3879999999997 L 274.199,433.7499999999997 L 273.94300000000004,434.1709999999997 L 273.744,434.3379999999997 L 273.30300000000005,435.16599999999966 L 273.63800000000003,435.65899999999965 L 273.68600000000004,435.90899999999965 L 273.97600000000006,436.26399999999967 L 274.1650000000001,436.37999999999965 L 274.29100000000005,436.52399999999966 L 274.23300000000006,436.7659999999997 L 274.34900000000005,437.09399999999965 L 274.499,437.26699999999965 L 274.687,437.3359999999997 L 274.92,437.3359999999997 L 275.589,437.1169999999997 L 275.748,437.01899999999966 L 275.84999999999997,436.84399999999965 L 276.18499999999995,436.48899999999963 L 276.20599999999996,436.02999999999963 L 276.27799999999996,435.4779999999996 L 276.19599999999997,435.1179999999996 L 275.844,434.6039999999996 L 275.69,434.2389999999996 L 275.341,433.8989999999996 L 275.127,433.3159999999996 L 275.039,433.13399999999956 L 274.973,432.8829999999996 L 274.898,432.4379999999996 L 275.132,432.2759999999996 L 275.108,431.9109999999996 L 275.684,431.8099999999996 L 276.93,431.2159999999996 L 277.701,431.06599999999963 L 278.579,430.7489999999996 L 278.783,430.59199999999964 L 278.959,430.3309999999996 L 279.096,430.30099999999965 L 279.55400000000003,430.54599999999965 L 279.78000000000003,430.4609999999997 L 279.869,430.2699999999997 L 279.744,429.8979999999997 L 279.48100000000005,429.8979999999997 L 278.69000000000005,430.0329999999997 L 278.61300000000006,429.87299999999965 L 278.61300000000006,429.73199999999963 L 278.42600000000004,429.2879999999996 L 278.54200000000003,428.9539999999996 L 278.66100000000006,428.6829999999996 L 278.88800000000003,428.5739999999996 L 279.22,428.4559999999996 L 279.471,428.6369999999996 L 279.623,428.8089999999996 L 279.706,428.9759999999996 L 279.76300000000003,429.4289999999996 L 279.898,429.8869999999996 L 280.04,430.2049999999996 L 280.266,430.4449999999996 L 280.439,430.4289999999996 L 280.56300000000005,430.38899999999956 L 281.386,430.3349999999996 L 281.886,430.49899999999957 L 282.52200000000005,430.5819999999996 L 283.11600000000004,430.9299999999996 L 283.72700000000003,431.35199999999963 L 283.88300000000004,431.6599999999996 L 283.934,431.9539999999996 L 284.08200000000005,432.1509999999996 L 283.93500000000006,432.3539999999996 L 284.01500000000004,432.6919999999996 L 284.19000000000005,433.0329999999996 L 284.45400000000006,433.2499999999996 L 285.20700000000005,433.3089999999996 L 286.0210000000001,433.1629999999996 L 287.27900000000005,433.02999999999963 L 287.684,432.91599999999966 L 289.766,432.85399999999964 L 290.163,433.01799999999963 L 290.202,433.18099999999964 L 290.206,433.30599999999964 L 290.87600000000003,433.91599999999966 L 291.42600000000004,433.9989999999997 L 291.89300000000003,434.1939999999997 L 292.37600000000003,434.2989999999997 L 292.90400000000005,434.4469999999997 L 293.2010000000001,434.4279999999997 L 293.4240000000001,434.3759999999997 L 293.6860000000001,434.3669999999997 L 295.5440000000001,433.3469999999997 L 296.5400000000001,433.3729999999997 L 296.6930000000001,433.30699999999973 L 296.8250000000001,433.21799999999973 L 296.4580000000001,433.06299999999976 L 295.6290000000001,433.00299999999976 L 295.3780000000001,433.10699999999974 L 295.2360000000001,432.84399999999977 L 295.5060000000001,432.8509999999998 L 296.4280000000001,432.76299999999975 L 297.4850000000001,432.82099999999974 L 298.3460000000001,432.63399999999973 L 298.7790000000001,432.6029999999997 L 299.0290000000001,432.6399999999997 L 299.7150000000001,432.5189999999997 L 301.0060000000001,432.6619999999997 L 302.02400000000006,432.5439999999997 L 301.90600000000006,432.7129999999997 L 301.57200000000006,432.8159999999997 L 301.03100000000006,432.8479999999997 L 300.61800000000005,433.0949999999997 L 299.73800000000006,433.04999999999967 L 299.12000000000006,433.13899999999967 L 299.31800000000004,433.2079999999997 L 299.31800000000004,433.4609999999997 L 299.40200000000004,433.51199999999966 L 299.49100000000004,433.51399999999967 L 299.701,433.70199999999966 L 299.75800000000004,433.82499999999965 L 299.826,434.08299999999963 L 299.733,434.3619999999996 L 299.605,434.4869999999996 L 299.856,434.44499999999965 L 299.998,434.3139999999997 L 299.977,434.1819999999997 L 299.998,434.02899999999966 L 300.139,434.07699999999966 L 300.238,434.1459999999997 L 300.559,434.8759999999997 L 300.785,435.2589999999997 L 300.843,435.24499999999966 L 300.897,435.23099999999965 L 300.964,435.1579999999997 L 301.064,434.97799999999967 L 301.15000000000003,435.09199999999964 L 301.20200000000006,435.1359999999996 L 301.2540000000001,435.14999999999964 L 301.2060000000001,434.9869999999996 L 301.2700000000001,434.7779999999996 L 301.2480000000001,434.70499999999964 L 301.3480000000001,434.6889999999996 L 301.46800000000013,434.71699999999964 L 301.63800000000015,434.77499999999964 L 301.94100000000014,435.01499999999965 L 302.14100000000013,435.26399999999967 L 302.15800000000013,435.4029999999997 L 302.2310000000001,435.48099999999965 L 302.3620000000001,435.56299999999965 L 302.4260000000001,435.69099999999963 L 302.4380000000001,435.48899999999963 L 302.3610000000001,435.34199999999964 L 302.3420000000001,435.17399999999964 L 302.7360000000001,435.16699999999963 L 302.8390000000001,434.94599999999963 L 303.0540000000001,435.0789999999996 L 303.6240000000001,435.68599999999964 L 303.83400000000006,435.78599999999966 L 304.45500000000004,435.90199999999965 L 304.84600000000006,436.1939999999996 L 305.07500000000005,436.4559999999996 L 304.939,436.7299999999996 L 304.574,436.8669999999996 L 304.428,437.0379999999996 L 304.344,437.2059999999996 L 304.343,437.3749999999996 L 304.232,437.57099999999963 L 304.216,437.63999999999965 L 304.15000000000003,437.91599999999966 L 304.00000000000006,438.2489999999997 L 303.80000000000007,438.6019999999997 L 302.7580000000001,438.6099999999997 L 303.0150000000001,438.75499999999965 L 303.2520000000001,438.8599999999997 L 303.64100000000013,439.13699999999966 L 303.95000000000016,438.91899999999964 L 304.39300000000014,438.9029999999996 L 304.8720000000001,438.6609999999996 L 305.0530000000001,438.6229999999996 L 305.9490000000001,438.74899999999957 L 306.16500000000013,438.57199999999955 L 306.34500000000014,438.5199999999995 L 306.83000000000015,438.55299999999954 L 307.261,438.748 M 296.507,431.441 L 296.597,431.81199999999995 L 296.57,431.88199999999995 L 296.316,432.13199999999995 L 296.10299999999995,432.1499999999999 L 295.9309999999999,432.1409999999999 L 295.80099999999993,432.0929999999999 L 295.63399999999996,431.9299999999999 L 295.47099999999995,431.97899999999987 L 295.0679999999999,431.92199999999985 L 294.9559999999999,431.86499999999984 L 295.1069999999999,431.66499999999985 L 295.3839999999999,431.58399999999983 L 295.4859999999999,431.56699999999984 L 295.5669999999999,431.6899999999998 L 295.7689999999999,431.7959999999998 L 296.0059999999999,431.80699999999985 L 296.06499999999994,431.6179999999998 L 296.38599999999997,431.3369999999998 L 296.507,431.441 M 292.682,432.079 L 292.531,432.14300000000003 L 292.254,432.079 L 292.115,431.99 L 292.20300000000003,431.88800000000003 L 292.43,431.88800000000003 L 292.64300000000003,432.01200000000006 L 292.682,432.079 M 305.006,437.085 L 304.669,437.178 L 304.674,437.103 L 304.76399999999995,436.97200000000004 L 304.93899999999996,436.93500000000006 L 305.00499999999994,436.89000000000004 L 305.11599999999993,436.86000000000007 L 305.17999999999995,436.86500000000007 L 305.24399999999997,436.90200000000004 L 305.09099999999995,436.97600000000006 L 305.006,437.085 M 304.51,437.851 L 304.336,437.908 L 304.31,437.625 L 304.363,437.549 L 304.659,437.32099999999997 L 304.741,437.27799999999996 L 304.801,437.32599999999996 L 304.786,437.38699999999994 L 304.929,437.48999999999995 L 304.89399999999995,437.61999999999995 L 304.73999999999995,437.76199999999994 L 304.51,437.851" id="VE" title="Venezuela"/>
</svg>
