<svg xmlns="http://www.w3.org/2000/svg" xmlns:ev="http://www.w3.org/2001/xml-events" xmlns:xlink="http://www.w3.org/1999/xlink" baseProfile="full" height="42.968017578125" version="1.1" viewBox="762.3209838867188 395.68499755859375 20.53399658203125 42.968017578125" width="20.53399658203125">
	<defs/>
	<path class="land" d="M 778.724,401.234 L 778.5920000000001,401.26099999999997 L 778.2650000000001,401.26599999999996 L 777.9790000000002,401.539 L 777.7820000000002,401.65299999999996 L 777.4730000000002,401.748 L 777.1450000000002,401.902 L 777.0500000000002,402.173 L 777.0410000000002,402.369 L 776.9880000000002,402.588 L 776.4560000000001,402.906 L 776.3080000000001,402.873 L 776.2050000000002,402.755 L 776.0480000000001,402.779 L 775.9420000000001,402.838 L 775.8160000000001,402.83000000000004 L 775.6750000000002,402.90200000000004 L 775.4900000000002,402.88000000000005 L 775.3200000000003,402.77900000000005 L 775.2220000000003,402.75300000000004 L 775.1050000000004,402.75200000000007 L 775.0830000000003,402.8710000000001 L 775.2570000000003,403.3320000000001 L 775.3020000000002,403.5440000000001 L 774.7330000000003,404.1660000000001 L 774.7960000000003,404.5660000000001 L 774.6420000000003,404.8730000000001 L 774.2980000000002,405.1200000000001 L 773.6530000000002,405.75600000000014 L 773.3620000000002,405.77000000000015 L 773.1430000000001,405.91400000000016 L 772.6650000000002,406.95600000000013 L 772.6600000000002,407.31300000000016 L 772.5850000000002,407.5740000000002 L 772.6010000000001,407.8240000000002 L 772.3920000000002,408.3160000000002 L 772.1740000000002,408.5240000000002 L 772.1260000000002,408.7920000000002 L 772.4350000000002,409.3430000000002 L 772.4700000000001,409.44000000000017 L 772.6500000000001,409.73600000000016 L 772.7370000000001,409.9470000000002 L 772.8750000000001,410.1580000000002 L 773.3720000000001,410.7050000000002 L 773.594,410.8720000000002 L 773.8610000000001,410.9850000000002 L 774.3450000000001,411.4770000000002 L 774.5890000000002,411.7900000000002 L 774.4780000000002,412.0030000000002 L 774.5330000000001,412.45400000000024 L 774.1880000000001,412.32100000000025 L 774.2280000000001,412.37400000000025 L 774.639,412.62100000000027 L 775.253,413.48500000000024 L 775.788,413.91100000000023 L 776.331,414.3950000000002 L 776.501,414.8540000000002 L 776.991,415.1580000000002 L 777.536,415.5980000000002 L 777.5129999999999,415.6970000000002 L 777.66,415.81500000000017 L 778.026,416.0480000000002 L 778.2489999999999,416.2950000000002 L 778.3349999999999,416.52900000000017 L 778.4699999999999,416.5670000000002 L 778.6229999999999,416.5090000000002 L 778.775,416.4870000000002 L 778.8829999999999,416.50500000000017 L 779.0469999999999,416.76200000000017 L 779.276,416.99100000000016 L 779.386,417.20200000000017 L 779.476,417.17400000000015 L 779.55,417.20600000000013 L 779.569,417.3820000000001 L 779.602,417.4980000000001 L 779.909,417.8360000000001 L 780.055,418.1540000000001 L 780.4209999999999,418.67000000000013 L 780.6919999999999,418.96300000000014 L 780.8839999999999,419.12800000000016 L 781.1049999999999,419.2690000000002 L 781.3209999999999,419.8400000000002 L 781.4379999999999,420.3580000000002 L 781.6689999999999,420.93100000000015 L 781.8439999999998,421.18100000000015 L 781.8499999999998,421.65200000000016 L 781.9919999999998,422.13700000000017 L 782.1429999999998,422.46400000000017 L 782.1879999999998,422.7980000000002 L 782.2349999999998,422.96400000000017 L 782.2929999999998,423.08900000000017 L 782.4579999999997,423.65400000000017 L 782.4149999999997,423.91700000000014 L 782.2999999999997,423.66000000000014 L 782.3149999999997,424.4180000000001 L 782.4159999999997,424.81900000000013 L 782.3709999999998,425.3100000000001 L 782.4759999999998,425.48200000000014 L 782.6639999999998,426.03700000000015 L 782.7969999999998,426.23600000000016 L 782.7849999999999,426.9130000000002 L 782.8549999999999,427.25500000000017 L 782.6769999999999,427.05100000000016 L 782.5479999999999,426.81900000000013 L 782.3749999999999,426.9420000000001 L 782.2199999999999,427.1230000000001 L 782.4609999999999,427.8510000000001 L 782.1869999999999,427.7820000000001 L 782.2109999999999,428.7600000000001 L 782.3249999999999,428.9880000000001 L 782.333,429.0970000000001 L 782.3,429.2270000000001 L 782.2239999999999,429.0840000000001 L 782.208,428.9370000000001 L 782.165,428.97000000000014 L 782.1669999999999,429.04600000000016 L 782.0749999999999,429.2180000000002 L 782.0479999999999,429.4310000000002 L 782.1469999999999,429.6130000000002 L 782.164,429.7510000000002 L 782.093,429.9220000000002 L 781.9789999999999,430.1030000000002 L 781.718,430.1270000000002 L 781.658,430.48100000000017 L 781.569,430.85600000000017 L 781.103,430.91600000000017 L 780.765,431.2470000000002 L 780.347,431.3700000000002 L 779.9739999999999,431.6970000000002 L 779.563,432.0 L 779.295,432.04 L 779.0659999999999,432.105 L 778.8029999999999,432.607 L 778.3649999999999,432.665 L 777.5779999999999,433.07500000000005 L 777.3129999999999,433.273 L 777.0719999999999,433.35 L 776.7269999999999,433.521 L 776.6529999999999,433.46000000000004 L 776.5379999999999,433.31300000000005 L 776.2399999999999,433.237 L 776.0939999999999,433.072 L 776.0519999999999,432.86 L 776.0129999999999,432.777 L 775.949,432.897 L 775.899,433.401 L 775.846,433.515 L 775.719,433.565 L 775.4680000000001,433.422 L 775.229,433.13100000000003 L 774.888,433.33200000000005 L 774.9920000000001,433.35600000000005 L 775.147,433.34000000000003 L 775.267,433.39000000000004 L 775.369,433.58400000000006 L 775.365,433.6890000000001 L 775.312,433.81200000000007 L 774.993,433.83200000000005 L 774.567,433.78900000000004 L 774.489,433.80500000000006 L 774.878,433.9940000000001 L 775.2330000000001,434.10300000000007 L 775.3900000000001,434.2220000000001 L 775.3900000000001,434.3210000000001 L 775.1910000000001,434.4800000000001 L 775.0370000000001,434.67500000000007 L 775.0340000000001,434.79600000000005 L 775.0310000000001,434.93100000000004 L 774.8580000000001,435.047 L 774.7510000000001,435.024 L 774.4470000000001,434.821 L 773.5700000000002,434.02200000000005 L 773.7020000000001,434.24800000000005 L 774.6110000000001,435.15600000000006 L 774.7710000000001,435.45500000000004 L 774.7930000000001,435.66600000000005 L 774.6990000000001,435.77200000000005 L 774.5450000000001,435.89700000000005 L 774.2470000000001,435.90600000000006 L 773.759,435.5690000000001 L 772.9780000000001,434.75900000000007 L 772.7120000000001,434.64900000000006 L 773.5020000000001,435.57500000000005 L 773.6320000000001,435.80000000000007 L 773.7650000000001,436.0590000000001 L 773.7270000000001,436.2130000000001 L 773.6590000000001,436.35800000000006 L 771.7870000000001,437.2150000000001 L 771.5070000000002,437.5840000000001 L 771.2850000000002,438.0390000000001 L 770.9170000000001,438.2920000000001 L 770.7010000000001,438.5230000000001 L 770.0770000000001,438.6530000000001 L 769.7360000000001,438.6120000000001 L 770.0900000000001,438.19200000000006 L 769.8710000000001,438.03600000000006 L 769.8600000000001,436.95300000000003 L 769.9460000000001,435.764 L 770.1090000000002,435.17 L 770.3440000000002,435.022 L 770.6400000000002,434.931 L 770.6470000000002,434.806 L 770.6180000000002,434.663 L 770.4590000000002,434.46000000000004 L 770.2850000000002,434.36600000000004 L 770.0250000000002,434.32500000000005 L 769.8250000000002,434.076 L 769.6730000000001,434.086 L 769.4370000000001,434.16900000000004 L 769.2940000000001,434.062 L 769.2410000000001,433.89500000000004 L 769.022,433.687 L 768.7700000000001,433.485 L 768.8840000000001,433.45300000000003 L 769.0160000000001,433.33700000000005 L 769.1580000000001,433.18800000000005 L 769.5100000000001,433.16700000000003 L 769.863,433.17400000000004 L 769.9620000000001,433.13500000000005 L 770.1050000000001,432.97700000000003 L 770.3360000000001,432.77400000000006 L 770.5120000000002,432.66100000000006 L 770.5540000000002,432.57000000000005 L 770.4840000000002,432.35600000000005 L 770.4450000000002,432.136 L 770.5100000000002,432.067 L 770.8290000000002,432.106 L 771.1800000000002,432.209 L 771.2650000000002,432.255 L 771.4660000000002,431.985 L 771.5210000000002,431.952 L 771.6530000000001,431.953 L 772.0010000000001,431.90299999999996 L 772.3410000000001,431.83199999999994 L 772.5020000000001,431.84399999999994 L 772.658,432.0249999999999 L 772.777,432.2029999999999 L 772.839,432.2169999999999 L 773.0160000000001,432.1409999999999 L 773.162,432.23599999999993 L 773.4680000000001,432.3909999999999 L 773.6510000000001,432.3979999999999 L 773.5600000000001,432.0369999999999 L 773.662,431.7799999999999 L 773.642,431.7099999999999 L 773.47,431.5919999999999 L 772.8860000000001,431.11999999999995 L 772.7860000000001,430.9789999999999 L 772.8000000000001,430.75699999999995 L 772.7800000000001,430.4309999999999 L 772.7280000000001,430.22599999999994 L 772.7370000000001,430.10599999999994 L 772.773,430.00999999999993 L 772.88,429.9719999999999 L 772.984,429.95899999999995 L 773.067,429.87499999999994 L 773.207,429.65999999999997 L 773.479,429.679 L 773.861,429.801 L 774.143,429.877 L 774.3100000000001,429.862 L 774.3470000000001,429.831 L 774.3420000000001,429.71500000000003 L 774.3620000000001,429.221 L 774.3510000000001,429.116 L 774.5920000000001,429.068 L 774.9600000000002,429.05699999999996 L 775.1540000000001,429.02799999999996 L 775.3350000000002,428.81999999999994 L 775.8010000000002,428.74799999999993 L 776.1380000000001,428.4669999999999 L 776.4420000000001,428.17799999999994 L 776.5910000000001,428.10099999999994 L 776.7800000000001,428.05099999999993 L 776.9220000000001,428.05799999999994 L 777.1000000000001,428.2249999999999 L 777.2470000000002,428.1239999999999 L 777.4170000000001,427.9279999999999 L 777.5060000000002,427.7359999999999 L 777.5550000000002,427.42699999999985 L 777.5220000000002,426.95299999999986 L 777.4320000000001,426.5819999999999 L 777.3470000000001,426.30399999999986 L 777.33,426.02599999999984 L 777.5260000000001,425.4669999999998 L 777.695,424.85799999999983 L 777.663,424.6179999999998 L 777.479,424.23799999999983 L 777.292,423.7749999999998 L 777.0880000000001,423.2649999999998 L 777.0110000000001,423.1889999999998 L 776.9560000000001,423.0469999999998 L 776.9250000000002,422.8809999999998 L 777.0060000000002,422.3599999999998 L 777.0180000000001,422.1849999999998 L 777.2530000000002,421.9469999999998 L 777.3790000000001,421.6749999999998 L 777.4970000000002,421.3739999999998 L 777.4520000000002,421.2149999999998 L 777.4360000000003,420.8909999999998 L 777.4660000000002,420.7339999999998 L 777.4100000000002,420.6069999999998 L 777.3420000000002,420.4219999999998 L 777.3870000000002,420.3019999999998 L 777.5520000000001,420.1989999999998 L 777.6490000000001,420.02199999999976 L 777.7730000000001,419.81499999999977 L 777.8280000000001,419.62599999999975 L 777.739,419.46799999999973 L 777.5780000000001,419.2309999999997 L 777.2840000000001,419.0169999999997 L 776.945,418.7429999999997 L 776.779,418.5739999999997 L 776.647,418.4019999999997 L 776.5260000000001,418.2019999999997 L 776.46,418.0419999999997 L 776.524,417.93699999999967 L 777.006,417.6959999999997 L 777.0939999999999,417.6089999999997 L 777.145,417.4749999999997 L 777.107,417.3439999999997 L 776.977,417.2729999999997 L 776.826,417.2249999999997 L 776.604,417.0729999999997 L 776.19,416.6559999999997 L 776.0,416.5629999999997 L 775.8,416.4429999999997 L 775.694,416.3169999999997 L 775.578,415.9709999999997 L 775.525,415.9399999999997 L 775.41,416.04499999999973 L 775.264,416.1539999999997 L 775.142,416.1349999999997 L 775.0310000000001,416.0369999999997 L 774.9780000000001,415.9049999999997 L 774.855,415.7239999999997 L 774.721,415.5769999999997 L 774.686,415.08099999999973 L 774.6650000000001,414.91899999999976 L 774.599,414.69299999999976 L 774.495,414.61199999999974 L 774.385,414.55199999999974 L 774.125,414.13999999999976 L 773.945,413.92699999999974 L 773.207,413.34699999999975 L 773.115,413.25399999999973 L 772.916,413.01499999999976 L 772.57,412.67599999999976 L 772.3230000000001,412.40299999999974 L 772.1430000000001,412.1199999999997 L 772.0590000000002,411.87399999999974 L 772.0340000000002,411.68199999999973 L 771.8380000000002,411.40699999999975 L 771.6690000000002,411.18099999999976 L 771.5050000000002,411.1079999999998 L 771.3180000000002,411.07699999999977 L 771.1490000000002,410.94299999999976 L 770.8400000000003,410.6389999999998 L 770.7030000000003,410.4439999999998 L 770.6220000000003,410.3119999999998 L 770.6260000000003,410.17599999999976 L 770.7000000000003,409.94999999999976 L 770.7900000000003,409.82099999999974 L 770.7930000000003,409.71999999999974 L 770.7050000000004,409.63799999999975 L 770.3620000000004,409.49199999999973 L 769.5860000000005,409.27099999999973 L 769.2960000000005,409.10199999999975 L 769.0280000000005,408.88599999999974 L 768.8260000000005,408.73899999999975 L 767.8800000000005,408.11399999999975 L 767.5930000000004,408.00999999999976 L 767.3470000000004,407.8989999999998 L 767.2720000000004,407.79099999999977 L 767.2850000000004,407.6869999999998 L 767.3860000000004,407.6099999999998 L 767.6540000000005,407.4489999999998 L 767.7540000000005,407.26499999999976 L 767.7220000000004,407.0239999999998 L 767.6160000000004,406.77999999999975 L 767.6680000000005,406.69599999999974 L 767.7550000000005,406.68599999999975 L 767.9350000000004,406.67899999999975 L 768.3080000000004,406.66499999999974 L 769.1120000000004,406.8869999999997 L 769.2280000000004,406.8629999999997 L 769.6650000000004,406.4599999999997 L 769.8290000000004,406.2189999999997 L 769.8670000000004,406.0179999999997 L 769.9530000000004,405.8899999999997 L 770.1830000000004,405.6799999999997 L 770.1860000000005,405.4879999999997 L 770.0730000000004,405.2309999999997 L 769.9580000000004,405.1319999999997 L 769.8590000000004,405.0889999999997 L 769.5400000000004,405.1229999999997 L 769.4780000000004,405.0649999999997 L 769.4360000000004,404.87399999999974 L 769.4210000000004,404.7569999999997 L 769.3160000000004,404.6199999999997 L 768.9710000000003,404.5029999999997 L 768.6790000000003,404.4699999999997 L 768.6110000000003,404.4209999999997 L 768.7230000000003,404.2889999999997 L 768.9220000000003,404.1589999999997 L 769.0730000000002,404.0829999999997 L 769.1920000000002,403.9479999999997 L 769.2140000000003,403.8099999999997 L 769.0660000000003,403.6869999999997 L 768.8730000000003,403.5499999999997 L 768.5600000000003,403.2889999999997 L 768.1260000000003,403.0119999999997 L 767.8620000000003,402.9169999999997 L 767.7240000000003,402.92999999999967 L 767.2460000000003,403.16799999999967 L 766.9890000000004,403.32299999999964 L 766.7750000000003,403.59899999999965 L 766.5520000000004,403.6579999999997 L 766.3260000000004,403.53599999999966 L 766.0700000000004,403.41099999999966 L 765.3610000000004,403.22899999999964 L 765.0620000000005,403.07699999999966 L 764.4430000000004,402.14699999999965 L 764.3520000000004,401.95799999999963 L 764.4110000000004,401.74399999999963 L 764.4540000000004,401.4369999999996 L 764.5160000000004,401.2379999999996 L 764.6250000000005,401.0479999999996 L 764.6550000000004,400.8789999999996 L 764.6280000000004,400.7129999999996 L 764.5390000000003,400.6179999999996 L 764.4220000000004,400.5899999999996 L 764.3350000000004,400.55199999999957 L 764.2530000000004,400.33399999999955 L 764.2030000000004,400.36199999999957 L 764.1270000000004,400.62699999999955 L 764.0360000000004,400.7219999999996 L 763.9150000000004,400.7689999999996 L 763.8210000000004,400.72699999999963 L 763.7610000000004,400.62099999999964 L 763.7350000000005,400.44099999999963 L 763.6730000000005,400.1989999999996 L 763.5970000000004,400.0409999999996 L 763.3300000000004,399.8799999999996 L 763.2040000000004,399.6709999999996 L 762.8080000000004,399.2159999999996 L 762.4760000000005,398.8969999999996 L 762.3210000000005,398.6099999999996 L 762.4570000000004,398.5029999999996 L 762.6280000000005,398.3479999999996 L 762.8120000000005,398.1059999999996 L 763.0180000000005,397.8019999999996 L 763.1040000000005,397.61599999999964 L 763.1650000000005,397.54099999999966 L 763.2860000000005,397.48599999999965 L 763.4160000000005,397.5159999999996 L 763.6440000000005,397.6389999999996 L 763.9880000000005,397.7959999999996 L 764.2950000000005,397.9819999999996 L 764.4190000000006,398.1689999999996 L 764.5900000000006,398.34799999999956 L 764.7210000000006,398.40199999999953 L 764.7870000000006,398.3879999999995 L 764.9840000000006,398.25299999999953 L 765.1540000000006,398.11799999999954 L 765.1580000000006,397.9649999999995 L 765.3140000000005,397.82699999999954 L 765.5180000000005,397.59999999999957 L 765.6150000000005,397.4459999999996 L 765.6880000000004,397.42999999999955 L 765.7710000000004,397.47499999999957 L 766.0930000000004,397.95099999999957 L 766.1550000000004,397.97999999999956 L 766.2460000000004,397.90899999999954 L 766.3730000000004,397.5369999999995 L 766.5130000000004,397.3929999999995 L 766.5610000000004,397.4289999999995 L 767.3400000000004,398.12999999999954 L 767.4140000000003,398.12499999999955 L 767.4980000000003,398.09399999999954 L 767.5530000000002,397.98599999999954 L 767.6140000000003,397.74299999999954 L 767.7300000000002,397.48299999999955 L 767.9800000000002,397.33799999999957 L 768.1750000000003,397.30999999999955 L 768.2470000000003,397.43399999999957 L 768.4160000000003,397.60499999999956 L 768.6210000000003,397.62899999999956 L 769.0570000000004,397.32599999999957 L 769.2000000000004,397.27799999999957 L 769.3520000000004,397.28299999999956 L 769.5070000000004,397.27099999999956 L 769.6550000000004,397.1549999999996 L 769.8110000000004,397.00199999999955 L 769.8640000000004,396.69999999999953 L 769.8970000000004,396.4289999999995 L 770.0040000000004,396.3189999999995 L 770.1320000000004,396.2459999999995 L 770.3720000000004,396.1429999999995 L 770.9140000000004,395.87999999999954 L 771.0540000000004,395.75499999999954 L 771.1570000000004,395.68499999999955 L 771.3680000000004,395.7989999999995 L 771.6200000000003,396.01899999999955 L 771.7720000000004,396.18499999999955 L 771.8740000000004,396.3639999999995 L 771.9230000000003,396.5129999999995 L 772.3240000000003,396.6429999999995 L 772.5800000000003,396.82699999999954 L 772.7500000000002,396.96799999999956 L 772.9180000000002,396.9619999999996 L 773.0860000000002,396.9239999999996 L 773.1940000000002,396.8109999999996 L 773.3830000000002,396.80899999999957 L 773.6070000000002,396.82599999999957 L 773.7070000000002,396.8709999999996 L 773.8920000000002,397.1309999999996 L 773.9750000000001,397.1669999999996 L 774.1400000000001,397.1489999999996 L 774.4570000000001,397.0569999999996 L 774.7120000000001,397.01299999999964 L 774.9420000000001,397.1169999999996 L 775.3800000000001,397.4059999999996 L 775.2570000000001,397.6119999999996 L 775.1590000000001,397.8339999999996 L 774.9670000000001,397.9899999999996 L 774.825,398.0289999999996 L 774.735,398.2459999999996 L 774.695,398.5659999999996 L 774.744,398.7289999999996 L 774.854,398.7809999999996 L 774.976,398.8889999999996 L 775.026,399.0319999999996 L 775.043,399.34799999999956 L 775.0360000000001,399.70399999999955 L 775.0530000000001,399.82199999999955 L 775.1480000000001,399.79999999999956 L 775.2380000000002,399.7579999999996 L 775.4200000000002,399.8129999999996 L 775.6460000000002,399.9059999999996 L 775.7890000000002,399.9999999999996 L 775.9170000000003,399.9879999999996 L 776.0170000000003,400.0799999999996 L 776.0540000000003,400.2559999999996 L 776.1720000000004,400.37899999999956 L 776.5000000000003,400.60999999999956 L 776.7630000000004,400.62999999999954 L 776.9850000000004,400.93499999999955 L 777.2150000000004,400.8349999999995 L 777.3210000000004,400.96699999999953 L 777.7980000000003,400.92099999999954 L 778.1300000000003,400.7969999999995 L 778.2490000000004,400.8259999999995 L 778.5480000000003,401.07999999999953 L 778.724,401.234 M 777.686,402.106 L 777.282,402.481 L 777.1270000000001,402.475 L 777.2650000000001,402.05100000000004 L 777.3310000000001,401.95000000000005 L 777.5740000000002,402.09600000000006 L 777.686,402.106 M 777.457,402.974 L 777.3,403.05199999999996 L 777.1139999999999,403.04299999999995 L 777.3369999999999,402.89699999999993 L 777.4499999999999,402.71599999999995 L 777.5409999999999,402.65299999999996 L 777.54,402.811 L 777.457,402.974 M 775.616,403.305 L 775.584,403.363 L 775.4409999999999,403.222 L 775.3459999999999,403.161 L 775.4179999999999,402.971 L 775.5859999999999,403.17900000000003 L 775.616,403.305 M 776.082,403.51 L 775.966,403.522 L 775.743,403.28 L 775.863,403.152 L 776.1160000000001,403.24199999999996 L 776.1750000000001,403.301 L 776.1730000000001,403.353 L 776.1120000000001,403.468 L 776.082,403.51 M 776.464,433.524 L 776.229,433.695 L 776.2130000000001,433.551 L 776.417,433.45799999999997 L 776.489,433.385 L 776.541,433.38599999999997 L 776.464,433.524 M 767.754,433.542 L 767.807,433.683 L 767.787,434.013 L 767.678,434.33599999999996 L 767.71,434.477 L 767.6260000000001,434.56699999999995 L 767.4390000000001,433.96199999999993 L 767.2040000000001,433.69999999999993 L 767.152,433.59899999999993 L 767.289,433.60599999999994 L 767.534,433.43999999999994 L 767.652,433.4359999999999 L 767.754,433.542 M 774.92,438.371 L 774.841,438.37699999999995 L 774.7810000000001,438.31899999999996 L 775.0350000000001,438.13399999999996 L 775.0100000000001,438.25699999999995 L 775.0190000000001,438.31899999999996 L 774.92,438.371" id="VN" title="Vietnam"/>
</svg>
