<svg xmlns="http://www.w3.org/2000/svg" xmlns:ev="http://www.w3.org/2001/xml-events" xmlns:xlink="http://www.w3.org/1999/xlink" baseProfile="full" height="19.063995361328125" version="1.1" viewBox="943.052978515625 501.2619934082031 9.45904541015625 19.063995361328125" width="9.45904541015625" fill="#00394f">
	<defs/>
	<path class="land" d="M 945.755,501.831 L 945.7139999999999,501.85900000000004 L 945.6489999999999,501.83700000000005 L 945.4829999999998,501.48900000000003 L 945.5249999999999,501.37300000000005 L 945.7339999999998,501.26200000000006 L 945.9199999999998,501.45500000000004 L 945.9379999999999,501.56200000000007 L 945.9359999999999,501.6530000000001 L 945.9079999999999,501.7320000000001 L 945.7839999999999,501.7650000000001 L 945.755,501.831 M 946.024,502.848 L 945.907,502.994 L 945.591,502.946 L 945.516,502.90700000000004 L 945.5369999999999,502.665 L 945.6159999999999,502.582 L 945.8049999999998,502.507 L 946.0639999999999,502.62600000000003 L 946.024,502.848 M 943.67,504.479 L 943.851,505.43399999999997 L 944.061,505.43199999999996 L 944.168,505.381 L 944.292,505.157 L 944.3480000000001,504.806 L 944.4570000000001,504.756 L 944.5950000000001,504.794 L 944.5350000000002,504.906 L 944.5750000000002,505.187 L 944.6810000000002,505.343 L 944.7510000000002,505.37100000000004 L 944.8930000000003,506.10600000000005 L 944.9460000000003,506.26000000000005 L 944.9430000000002,506.38400000000007 L 944.6460000000002,506.65900000000005 L 944.2050000000002,506.65100000000007 L 943.8940000000001,506.8160000000001 L 943.7050000000002,506.80500000000006 L 943.7060000000001,506.6190000000001 L 943.5380000000001,506.47100000000006 L 943.3480000000001,506.15400000000005 L 943.3950000000001,505.59100000000007 L 943.056,504.54800000000006 L 943.053,504.28700000000003 L 943.169,503.94700000000006 L 943.282,503.93100000000004 L 943.436,504.21500000000003 L 943.67,504.479 M 947.721,505.928 L 947.672,506.10699999999997 L 947.556,505.89899999999994 L 947.4820000000001,505.0249999999999 L 947.5120000000001,504.9439999999999 L 947.5730000000001,504.93799999999993 L 947.7150000000001,505.54599999999994 L 947.721,505.928 M 946.94,506.238 L 946.7520000000001,506.371 L 946.4040000000001,506.358 L 946.2750000000001,506.283 L 946.7020000000001,505.879 L 947.1960000000001,505.796 L 946.94,506.238 M 947.787,507.787 L 947.74,507.78999999999996 L 947.692,507.657 L 947.534,506.947 L 947.638,506.313 L 947.7030000000001,506.447 L 947.94,507.56 L 947.908,507.742 L 947.787,507.787 M 944.997,507.073 L 944.9459999999999,507.14799999999997 L 944.6479999999999,506.96 L 944.7159999999999,506.779 L 945.0399999999998,506.844 L 944.997,507.073 M 945.541,508.151 L 945.6700000000001,508.214 L 945.7400000000001,508.214 L 945.7820000000002,508.355 L 946.1840000000002,508.637 L 946.2940000000002,508.629 L 946.3870000000002,508.783 L 946.5600000000002,508.861 L 946.6070000000002,509.018 L 946.7300000000002,509.178 L 946.5150000000002,509.372 L 946.0980000000002,509.32 L 945.8600000000001,509.54 L 945.6440000000001,509.48400000000004 L 945.6060000000001,509.36800000000005 L 945.6360000000001,509.32900000000006 L 945.5070000000001,509.03400000000005 L 945.4490000000001,508.58400000000006 L 945.3620000000001,508.3190000000001 L 945.267,508.2060000000001 L 945.0730000000001,508.30500000000006 L 944.9940000000001,508.32200000000006 L 944.8060000000002,508.1050000000001 L 944.8950000000002,507.6640000000001 L 944.9420000000002,507.5380000000001 L 945.0930000000002,507.5140000000001 L 945.3230000000002,507.6300000000001 L 945.541,508.151 M 948.022,508.85 L 947.701,508.88 L 947.25,508.789 L 947.068,508.663 L 946.99,508.53700000000003 L 947.146,508.44300000000004 L 947.37,508.39900000000006 L 947.649,508.11000000000007 L 947.746,508.2200000000001 L 947.85,508.5440000000001 L 947.962,508.6420000000001 L 948.025,508.7400000000001 L 948.022,508.85 M 948.443,510.137 L 948.5269999999999,510.18 L 948.4799999999999,510.301 L 948.0949999999999,510.163 L 947.7839999999999,510.217 L 947.6969999999999,510.211 L 947.6049999999999,510.1 L 947.5369999999999,509.879 L 947.5679999999999,509.725 L 947.6979999999999,509.617 L 947.7469999999998,509.6 L 947.8449999999998,509.733 L 947.9339999999999,509.824 L 948.0199999999999,509.863 L 948.2159999999999,510.08 L 948.443,510.137 M 948.44,512.366 L 948.719,512.783 L 948.83,512.816 L 948.6610000000001,513.115 L 948.3090000000001,513.141 L 947.8940000000001,513.064 L 948.0460000000002,512.961 L 947.9670000000002,512.845 L 947.8420000000002,512.822 L 947.6980000000002,512.877 L 947.6320000000002,512.858 L 947.7240000000002,512.6659999999999 L 947.9540000000002,512.395 L 948.0220000000002,512.374 L 948.0840000000002,512.371 L 948.1450000000002,512.395 L 948.44,512.366 M 950.935,516.472 L 950.805,516.615 L 950.6919999999999,516.599 L 949.9599999999999,516.269 L 949.9909999999999,516.133 L 949.9609999999999,515.7860000000001 L 950.0409999999999,515.5980000000001 L 950.2429999999999,515.5210000000001 L 950.4,515.561 L 950.496,515.8380000000001 L 950.715,515.9510000000001 L 950.562,516.0460000000002 L 950.8290000000001,516.2550000000001 L 950.935,516.472 M 951.375,518.245 L 951.227,518.567 L 950.971,518.492 L 950.732,518.259 L 950.607,518.056 L 950.6909999999999,517.667 L 950.8129999999999,517.599 L 950.9409999999999,517.6210000000001 L 951.006,518.0010000000001 L 951.375,518.245 M 952.512,520.162 L 952.4129999999999,520.326 L 952.2609999999999,520.3240000000001 L 952.0659999999998,520.2080000000001 L 952.1029999999998,520.0630000000001 L 952.3249999999998,520.0370000000001 L 952.3889999999998,520.0470000000001 L 952.512,520.162" id="VU" title="Vanuatu"/>
</svg>
