<svg xmlns="http://www.w3.org/2000/svg" xmlns:ev="http://www.w3.org/2001/xml-events" xmlns:xlink="http://www.w3.org/1999/xlink" baseProfile="full" height="5.342987060546875" version="1.1" viewBox="531.9119873046875 328.4840087890625 4.8370361328125 5.342987060546875" width="4.8370361328125">
	<defs/>
	<path class="land" d="M 536.214,332.344 L 536.21,332.344 L 535.729,332.449 L 535.567,332.572 L 535.471,332.788 L 535.44,332.899 L 535.355,332.903 L 535.214,332.792 L 535.036,332.618 L 534.803,332.632 L 534.013,333.01 L 533.935,333.208 L 533.918,333.637 L 533.864,333.753 L 533.779,333.827 L 533.453,333.78 L 533.418,333.752 L 533.461,333.588 L 533.444,333.228 L 533.296,332.631 L 533.192,332.436 L 532.975,332.241 L 532.807,332.113 L 532.504,331.999 L 532.351,331.669 L 532.12,331.295 L 532.009,331.209 L 532.027,331.172 L 532.08,330.889 L 532.014,330.683 L 531.912,330.507 L 531.981,330.4 L 532.194,330.401 L 532.37,330.421 L 532.433,330.252 L 532.796,330.142 L 533.145,330.027 L 533.196,329.947 L 533.116,329.773 L 533.163,329.664 L 533.581,329.354 L 533.649,329.213 L 533.675,329.103 L 533.619,328.985 L 533.54,328.802 L 533.578,328.724 L 533.795,328.618 L 533.972,328.494 L 534.076,328.484 L 534.141,328.573 L 534.141,328.665 L 534.199,328.82 L 534.329,328.904 L 534.545,329.041 L 534.796,329.134 L 534.992,329.32 L 535.261,329.652 L 535.301,329.816 L 535.543,329.963 L 535.767,330.128 L 535.732,330.433 L 536.495,330.699 L 536.667,330.697 L 536.749,330.744 L 536.747,330.813 L 536.687,331.026 L 536.373,331.68 L 536.348,331.815 L 536.123,331.957 L 536.092,332.039 L 536.156,332.218 L 536.214,332.344" id="XK" title="Kosovo"/>
</svg>
