<svg xmlns="http://www.w3.org/2000/svg" xmlns:ev="http://www.w3.org/2001/xml-events" xmlns:xlink="http://www.w3.org/1999/xlink" baseProfile="full" height="19.352020263671875" version="1.1" viewBox="595.114013671875 408.7049865722656 33.57098388671875 19.352020263671875" width="33.57098388671875" fill="#00394f">
	<defs/>
	<path class="land" d="M 624.684,415.583 L 623.269,416.101 L 622.896,416.331 L 622.5569999999999,416.615 L 622.3029999999999,416.97 L 622.1249999999999,417.593 L 622.2599999999999,418.16200000000003 L 622.2469999999998,418.46700000000004 L 621.8819999999998,418.66900000000004 L 621.5409999999998,418.814 L 621.1619999999998,419.036 L 620.9319999999998,419.091 L 620.7439999999998,419.267 L 620.5249999999997,419.39 L 619.7359999999998,419.71 L 618.8739999999998,419.957 L 617.5039999999998,420.253 L 616.9749999999998,420.574 L 616.4939999999998,420.79400000000004 L 615.7629999999998,420.86 L 614.7589999999998,421.165 L 614.2009999999998,421.40900000000005 L 613.5079999999998,421.80600000000004 L 613.3549999999998,421.93100000000004 L 613.2329999999998,422.223 L 613.0199999999999,422.475 L 612.6029999999998,422.88800000000003 L 612.2899999999998,423.1 L 612.0809999999999,423.11100000000005 L 611.675,423.22700000000003 L 611.194,423.25100000000003 L 610.386,423.10600000000005 L 610.178,423.20700000000005 L 610.007,423.36800000000005 L 609.3839999999999,423.65100000000007 L 608.7509999999999,424.21600000000007 L 608.2879999999999,424.36600000000004 L 607.5389999999999,424.54300000000006 L 607.0149999999999,424.7780000000001 L 606.6629999999999,424.87200000000007 L 606.2099999999999,424.92100000000005 L 605.3709999999999,424.89700000000005 L 604.5759999999999,424.982 L 603.8389999999999,425.141 L 603.4929999999999,425.442 L 603.098,425.919 L 602.453,426.116 L 602.3009999999999,426.287 L 602.102,426.638 L 601.685,426.729 L 601.3069999999999,426.788 L 600.9209999999999,426.635 L 600.193,427.05899999999997 L 599.918,427.12899999999996 L 599.5,427.14599999999996 L 599.203,427.23499999999996 L 598.99,427.21 L 598.725,427.044 L 598.1610000000001,426.84299999999996 L 597.749,426.97399999999993 L 597.714,426.5729999999999 L 597.0310000000001,425.3469999999999 L 597.1730000000001,424.2779999999999 L 597.1730000000001,424.1269999999999 L 597.0370000000001,423.6489999999999 L 596.6300000000001,423.2119999999999 L 596.642,422.6579999999999 L 596.5060000000001,422.2619999999999 L 596.3980000000001,421.85399999999987 L 596.4330000000001,421.74599999999987 L 596.4390000000001,421.64799999999985 L 596.2310000000001,421.01899999999983 L 596.1620000000001,420.8919999999998 L 596.1360000000002,420.7599999999998 L 596.2040000000002,420.6589999999998 L 596.2020000000002,420.5419999999998 L 596.0920000000002,420.3489999999998 L 595.9750000000003,419.9809999999998 L 595.4200000000003,419.69199999999984 L 595.5330000000004,419.4209999999998 L 595.6410000000003,419.51599999999985 L 595.7870000000003,419.59699999999987 L 595.8170000000002,419.42199999999985 L 595.8190000000002,419.2909999999999 L 595.5870000000002,418.47199999999987 L 595.9310000000003,417.3779999999999 L 595.8180000000002,416.39099999999985 L 596.3430000000002,415.99199999999985 L 596.4750000000001,415.87199999999984 L 596.5510000000002,415.7669999999998 L 596.6750000000002,415.5409999999998 L 596.8440000000002,415.46799999999985 L 596.9040000000001,415.22999999999985 L 596.8990000000001,415.1109999999998 L 596.7900000000001,415.00899999999984 L 596.7080000000001,414.73199999999986 L 596.7350000000001,414.3799999999999 L 596.7620000000002,414.2329999999999 L 596.8190000000002,413.9639999999999 L 597.0030000000002,413.86399999999986 L 597.0460000000002,413.7839999999999 L 596.9040000000001,413.61399999999986 L 596.9170000000001,413.5119999999999 L 597.2290000000002,413.22699999999986 L 597.3520000000002,413.1419999999999 L 597.5540000000002,413.05399999999986 L 597.7120000000002,413.05499999999984 L 597.8940000000002,413.10499999999985 L 598.0570000000002,413.18499999999983 L 598.2150000000003,413.3299999999998 L 598.3820000000003,413.49499999999983 L 598.6380000000003,413.5579999999998 L 598.8120000000002,413.5419999999998 L 598.9540000000003,413.6149999999998 L 599.0740000000003,413.57499999999976 L 599.2100000000003,413.4899999999998 L 599.4280000000002,413.4949999999998 L 599.6240000000003,413.3989999999998 L 600.1820000000002,413.3529999999998 L 600.7200000000003,413.3819999999998 L 601.2820000000003,413.3019999999998 L 601.8430000000003,413.30799999999977 L 602.4090000000003,413.31399999999974 L 602.5340000000003,413.32599999999974 L 602.6570000000004,413.37599999999975 L 603.1340000000004,413.62799999999976 L 603.4960000000003,413.6799999999998 L 604.2230000000003,413.7489999999998 L 604.9980000000003,413.8229999999998 L 605.6700000000003,413.8859999999998 L 606.2400000000004,413.8259999999998 L 606.7130000000003,413.7769999999998 L 606.8410000000003,413.7849999999998 L 606.9840000000004,413.9409999999998 L 607.2690000000003,414.3299999999998 L 607.5380000000004,414.6959999999998 L 608.0090000000004,414.7159999999998 L 608.3110000000004,414.5779999999998 L 608.6430000000004,414.3839999999998 L 608.8460000000003,414.2339999999998 L 609.0810000000004,413.6379999999998 L 609.2330000000004,413.2519999999998 L 609.5820000000004,412.8169999999998 L 609.8740000000005,412.4529999999998 L 610.2600000000004,411.9699999999998 L 610.4740000000005,411.7029999999998 L 610.8960000000005,411.1749999999998 L 611.2990000000005,410.96899999999977 L 612.0770000000006,410.5719999999998 L 612.8400000000006,410.18099999999976 L 613.3370000000006,409.92599999999976 L 613.7600000000006,409.8099999999998 L 614.4690000000005,409.70999999999975 L 615.3020000000005,409.59199999999976 L 616.1350000000004,409.47399999999976 L 617.0240000000005,409.34899999999976 L 618.0140000000005,409.2089999999998 L 618.6930000000004,409.1129999999998 L 619.5580000000004,408.9899999999998 L 620.2780000000005,408.8879999999998 L 620.9180000000005,408.79799999999983 L 621.5770000000005,408.7049999999998 L 621.7010000000005,408.9989999999998 L 621.8250000000005,409.2929999999998 L 621.9500000000005,409.58699999999976 L 622.0740000000005,409.88099999999974 L 622.1980000000005,410.1749999999997 L 622.3220000000006,410.4689999999997 L 622.4460000000006,410.7619999999997 L 622.5710000000006,411.0549999999997 L 622.6950000000006,411.34799999999973 L 622.8190000000006,411.64099999999974 L 622.9430000000007,411.93399999999974 L 623.0680000000007,412.22699999999975 L 623.1920000000007,412.5189999999997 L 623.3160000000007,412.8109999999997 L 623.4400000000007,413.10299999999967 L 623.5640000000008,413.39499999999964 L 623.6860000000007,413.67999999999967 L 623.8860000000008,413.7749999999997 L 624.0050000000008,414.0449999999997 L 624.1750000000008,414.42999999999967 L 624.3460000000008,414.8139999999997 L 624.5160000000008,415.1979999999997 L 624.684,415.583 M 595.229,419.486 L 595.1410000000001,419.55 L 595.114,419.438 L 595.172,419.186 L 595.264,419.113 L 595.326,419.3 L 595.2860000000001,419.403 L 595.229,419.486 M 595.782,423.325 L 595.745,423.38599999999997 L 595.694,423.373 L 595.52,423.21999999999997 L 595.711,423.049 L 595.813,423.20799999999997 L 595.782,423.325 M 595.693,424.093 L 595.507,424.18100000000004 L 595.6339999999999,423.95300000000003 L 595.7639999999999,423.906 L 595.7999999999998,423.915 L 595.693,424.093 M 626.585,427.15 L 626.759,427.18399999999997 L 627.022,427.085 L 627.7760000000001,427.072 L 628.6850000000001,427.39 L 628.513,427.473 L 628.4110000000001,427.588 L 628.0120000000001,427.69300000000004 L 627.614,427.93800000000005 L 626.462,428.0570000000001 L 626.124,427.9910000000001 L 625.846,427.7540000000001 L 625.331,427.4460000000001 L 625.534,427.2490000000001 L 625.578,427.1590000000001 L 625.654,427.0730000000001 L 625.945,426.9240000000001 L 626.2360000000001,426.9480000000001 L 626.585,427.15" id="YE" title="Yemen"/>
</svg>
