<svg xmlns="http://www.w3.org/2000/svg" xmlns:ev="http://www.w3.org/2001/xml-events" xmlns:xlink="http://www.w3.org/1999/xlink" baseProfile="full" height="85.51202392578125" version="1.1" viewBox="521.8619995117188 526.0239868164062 60.16802978515625 85.51202392578125" width="60.16802978515625">
	<defs/>
	<path class="land" d="M 563.508,526.797 L 563.523,526.956 L 563.543,527.028 L 563.677,527.447 L 563.8770000000001,528.075 L 564.0100000000001,528.6550000000001 L 564.1930000000001,529.4520000000001 L 564.1870000000001,529.8970000000002 L 564.2320000000001,530.0690000000002 L 564.3960000000001,530.2840000000002 L 564.5970000000001,530.6540000000002 L 564.6650000000001,530.8630000000002 L 564.7320000000001,531.0200000000002 L 564.9440000000001,531.3180000000002 L 565.109,531.7700000000002 L 565.249,532.3690000000003 L 565.369,532.6570000000003 L 565.414,532.7990000000003 L 565.468,533.0570000000004 L 565.461,533.6020000000003 L 565.464,534.2350000000004 L 565.4680000000001,534.9420000000003 L 565.4710000000001,535.5270000000004 L 565.4500000000002,535.8230000000004 L 565.4650000000001,536.6660000000004 L 565.2840000000001,537.1050000000004 L 565.3060000000002,537.4510000000004 L 565.3620000000002,537.6750000000004 L 565.2880000000002,537.7100000000004 L 565.1470000000003,537.7500000000003 L 564.4990000000003,537.3950000000003 L 563.8670000000003,537.0200000000003 L 563.7760000000003,537.0090000000004 L 563.6430000000003,537.0480000000003 L 563.2850000000003,537.3200000000004 L 562.9500000000003,537.7460000000004 L 562.7960000000003,538.1100000000005 L 562.5490000000003,538.4860000000004 L 562.1510000000003,539.0920000000004 L 562.1100000000002,539.2230000000004 L 562.1060000000002,539.7170000000004 L 562.1250000000002,540.1880000000004 L 562.1600000000002,540.2540000000005 L 562.3750000000002,540.2760000000005 L 562.5290000000002,540.6620000000005 L 562.8810000000002,541.2780000000005 L 563.4720000000002,541.6740000000004 L 564.0210000000002,541.8540000000004 L 564.7870000000001,541.8990000000003 L 565.3930000000001,541.8860000000003 L 565.3580000000002,541.4700000000003 L 565.4180000000001,540.8030000000002 L 565.4950000000001,540.3550000000002 L 565.5800000000002,540.3350000000003 L 565.7390000000001,540.3780000000003 L 565.8270000000001,540.4240000000003 L 566.0700000000002,540.4050000000003 L 566.5020000000002,540.4930000000003 L 566.8510000000002,540.4840000000003 L 567.1630000000002,540.4750000000003 L 567.6900000000003,540.4600000000003 L 567.9980000000003,540.4550000000003 L 567.8940000000002,541.1780000000002 L 567.4920000000002,542.3130000000002 L 567.3550000000002,542.8350000000003 L 567.0120000000003,544.7060000000002 L 566.5640000000003,545.6530000000002 L 566.3130000000003,546.0450000000003 L 565.5870000000003,546.7390000000003 L 565.3850000000003,546.8800000000002 L 565.2060000000004,546.9700000000003 L 564.8880000000004,547.0500000000003 L 563.6440000000003,548.4600000000003 L 563.1810000000004,549.1420000000003 L 562.7690000000003,550.1390000000002 L 562.3600000000004,550.6880000000002 L 561.7590000000004,551.8620000000002 L 561.2220000000003,552.7710000000002 L 560.7070000000003,553.6030000000002 L 559.8160000000004,554.7510000000002 L 559.4200000000004,555.0840000000002 L 559.1530000000004,555.2360000000002 L 558.4450000000004,555.9050000000002 L 557.4480000000004,556.9850000000002 L 556.6850000000004,557.9450000000003 L 555.5440000000004,559.0390000000003 L 554.8830000000005,559.5190000000003 L 553.8910000000005,560.4660000000003 L 553.6140000000005,560.6060000000003 L 552.4960000000004,561.4890000000004 L 551.6920000000005,562.0270000000004 L 550.3910000000004,562.6520000000004 L 549.8740000000004,562.8270000000003 L 548.6390000000004,562.6650000000003 L 548.1240000000004,562.7510000000003 L 547.6930000000003,563.1290000000004 L 547.6530000000004,563.6730000000003 L 547.4730000000004,563.7550000000003 L 547.2010000000004,563.7310000000003 L 546.3380000000003,563.5040000000004 L 545.8700000000003,563.5470000000004 L 545.5970000000003,563.8380000000004 L 545.3770000000003,564.2060000000005 L 544.7270000000003,564.2250000000005 L 543.5690000000003,563.8440000000005 L 542.2070000000003,563.6120000000005 L 541.8920000000003,563.5860000000006 L 541.2320000000003,563.8690000000006 L 541.0020000000003,563.9100000000007 L 540.0410000000003,563.8490000000006 L 539.5080000000003,563.6710000000006 L 538.9980000000003,563.6700000000006 L 538.6070000000003,563.8170000000007 L 538.1330000000003,563.8690000000007 L 536.8520000000003,564.8940000000007 L 536.1900000000003,564.8950000000007 L 535.6190000000003,565.0140000000007 L 535.3360000000002,565.0100000000007 L 534.8060000000003,564.8660000000007 L 534.6090000000003,564.8760000000007 L 534.3070000000002,564.9400000000006 L 534.0050000000002,565.1210000000007 L 533.3170000000002,565.1990000000006 L 533.0500000000002,565.3540000000006 L 531.8880000000001,566.2950000000006 L 531.6230000000002,566.2570000000006 L 531.4090000000001,566.1960000000006 L 530.8050000000001,566.1840000000007 L 530.1220000000001,565.6830000000007 L 529.8600000000001,565.7150000000007 L 529.9300000000002,565.5650000000007 L 529.9510000000001,565.2990000000008 L 529.8060000000002,565.1110000000008 L 529.7090000000002,565.0270000000008 L 529.4410000000001,565.0430000000008 L 529.2980000000001,564.8170000000008 L 528.8880000000001,564.7960000000008 L 528.7460000000001,564.8530000000009 L 528.5490000000001,564.8650000000008 L 528.532,564.6360000000008 L 528.547,564.4920000000008 L 528.5350000000001,564.2710000000008 L 528.4860000000001,564.0000000000008 L 528.3270000000001,563.9140000000008 L 528.2050000000002,563.8780000000008 L 527.9150000000002,563.8970000000008 L 527.7150000000001,563.9260000000008 L 527.6210000000001,564.0050000000008 L 527.5140000000001,564.2040000000007 L 527.5130000000001,564.8080000000008 L 527.3690000000001,564.6350000000008 L 527.2050000000002,564.2730000000008 L 527.1520000000002,563.8870000000009 L 527.2110000000001,563.4320000000008 L 527.5220000000002,563.2590000000008 L 527.4980000000002,562.9520000000008 L 527.4320000000001,562.6860000000008 L 527.0850000000002,562.0060000000009 L 526.9500000000002,561.6950000000008 L 526.6560000000002,561.4850000000008 L 526.4270000000001,560.9790000000008 L 526.1970000000001,560.7960000000008 L 526.1010000000001,560.4420000000008 L 525.8760000000001,560.1600000000008 L 525.8000000000001,559.7140000000007 L 525.9240000000001,559.4590000000007 L 526.1200000000001,559.3190000000008 L 526.3200000000002,559.5400000000008 L 526.5690000000002,559.4540000000007 L 526.9220000000001,559.1320000000007 L 527.1310000000001,558.6440000000007 L 527.1440000000001,557.8650000000007 L 527.0900000000001,557.3800000000007 L 526.8100000000002,556.1300000000007 L 526.6780000000002,555.8430000000006 L 526.0460000000003,554.9520000000007 L 525.3130000000003,553.7630000000007 L 524.3860000000003,551.8980000000007 L 523.9430000000003,550.7820000000007 L 523.2720000000003,548.5420000000007 L 522.6810000000003,547.2810000000007 L 521.9550000000003,546.1090000000007 L 521.8620000000003,546.0330000000007 L 521.9730000000003,545.8910000000006 L 522.3640000000003,545.6210000000007 L 522.5410000000003,545.5480000000007 L 522.6360000000003,545.5820000000007 L 522.7280000000003,545.5080000000007 L 522.8170000000003,545.3250000000007 L 522.8370000000003,545.1540000000007 L 522.8810000000003,544.9120000000007 L 522.9680000000003,544.7670000000007 L 523.0640000000003,544.4790000000007 L 523.2270000000003,544.2940000000008 L 523.5720000000003,544.1710000000007 L 523.8330000000003,544.3340000000007 L 523.9420000000003,544.4930000000007 L 523.9870000000003,544.7030000000008 L 524.1030000000003,544.8050000000007 L 524.2890000000003,544.7980000000008 L 524.4200000000003,544.9270000000008 L 524.4960000000003,545.1930000000008 L 524.4810000000003,545.3850000000008 L 524.3750000000003,545.5050000000008 L 524.3900000000003,545.6620000000008 L 524.5250000000003,545.8570000000009 L 524.5810000000004,546.0430000000009 L 524.6710000000004,546.2890000000009 L 525.1450000000004,546.4320000000009 L 525.3770000000004,546.512000000001 L 525.7760000000004,546.539000000001 L 526.1530000000004,546.649000000001 L 526.5080000000004,546.841000000001 L 527.0920000000003,546.8870000000011 L 527.9050000000003,546.788000000001 L 528.5740000000003,546.832000000001 L 529.0990000000003,547.020000000001 L 529.4800000000002,547.055000000001 L 529.7160000000002,546.936000000001 L 529.8190000000002,546.7650000000009 L 529.7870000000001,546.5410000000008 L 529.9040000000001,546.4000000000009 L 530.1690000000001,546.3400000000009 L 530.3810000000001,546.1720000000009 L 530.541,545.8950000000009 L 530.9100000000001,545.6700000000009 L 531.489,545.4970000000009 L 531.777,545.5030000000008 L 531.777,545.0560000000008 L 531.777,543.6480000000008 L 531.777,542.2470000000009 L 531.777,540.8510000000009 L 531.777,539.460000000001 L 531.777,538.075000000001 L 531.777,536.6960000000009 L 531.777,535.3210000000009 L 531.777,534.0280000000009 L 531.912,534.1210000000009 L 532.801,534.8070000000009 L 533.041,535.1680000000009 L 533.1600000000001,535.397000000001 L 533.542,536.2300000000009 L 533.826,536.979000000001 L 534.057,537.545000000001 L 534.075,537.804000000001 L 534.1080000000001,538.057000000001 L 534.1410000000001,538.182000000001 L 534.1200000000001,538.3200000000011 L 533.9570000000001,538.629000000001 L 533.791,538.865000000001 L 533.591,539.188000000001 L 533.572,539.615000000001 L 533.632,540.119000000001 L 533.755,540.370000000001 L 533.909,540.453000000001 L 534.277,540.328000000001 L 534.51,540.367000000001 L 534.8389999999999,540.463000000001 L 535.9169999999999,540.404000000001 L 536.0469999999999,540.435000000001 L 536.454,540.4710000000009 L 536.5899999999999,540.4290000000009 L 536.7119999999999,540.3220000000009 L 536.8529999999998,540.0200000000009 L 536.9789999999998,539.9200000000009 L 537.2079999999999,539.8690000000008 L 537.4789999999998,539.7870000000008 L 537.7029999999999,539.6130000000009 L 538.0579999999999,539.0160000000009 L 538.7689999999999,538.4870000000009 L 538.9869999999999,538.3610000000009 L 539.1249999999999,538.2190000000008 L 539.2449999999999,538.0280000000008 L 539.4939999999999,537.3640000000008 L 539.6819999999999,536.8120000000008 L 539.7459999999999,536.5520000000008 L 539.9139999999999,536.1280000000008 L 540.1169999999998,535.8570000000009 L 540.3159999999998,535.7140000000009 L 540.4159999999998,535.6780000000009 L 540.6719999999998,535.6050000000009 L 541.0009999999997,535.537000000001 L 541.3469999999998,535.613000000001 L 541.7179999999997,535.777000000001 L 542.1369999999997,536.0530000000009 L 542.5659999999997,536.3950000000009 L 542.7629999999997,536.5690000000009 L 542.9759999999997,536.6470000000008 L 543.3549999999997,536.6740000000009 L 543.6029999999997,536.6680000000009 L 543.9889999999997,537.008000000001 L 544.1839999999997,537.0290000000009 L 544.6209999999998,537.1320000000009 L 545.1609999999997,537.2380000000009 L 545.4999999999998,537.2260000000009 L 545.8639999999998,537.0420000000009 L 546.1259999999997,537.0340000000009 L 546.4649999999998,537.0490000000009 L 546.8379999999999,536.9990000000009 L 547.1109999999999,536.920000000001 L 547.3199999999998,536.760000000001 L 547.5039999999998,536.5850000000011 L 547.7159999999998,536.0640000000011 L 547.8379999999997,535.6460000000011 L 548.0259999999997,535.1650000000011 L 548.2569999999997,534.5140000000011 L 548.3399999999997,534.0610000000012 L 548.4239999999996,533.9360000000012 L 548.7599999999996,533.7980000000011 L 549.0369999999997,533.7030000000011 L 549.7849999999997,533.5250000000011 L 549.9379999999998,533.4300000000011 L 550.0779999999997,533.2170000000011 L 550.4039999999998,532.8560000000011 L 550.8059999999998,532.5550000000011 L 551.0139999999998,532.3830000000011 L 551.3939999999998,530.9250000000011 L 551.4399999999998,530.7450000000011 L 551.7159999999998,530.3590000000012 L 551.8869999999998,530.1960000000012 L 551.9969999999998,530.1930000000011 L 552.1529999999998,530.0910000000011 L 552.3559999999998,529.8910000000011 L 552.5969999999998,529.7670000000011 L 552.8759999999997,529.721000000001 L 553.0569999999998,529.588000000001 L 553.1399999999998,529.370000000001 L 553.2839999999998,529.264000000001 L 553.4889999999998,529.270000000001 L 553.6059999999998,529.201000000001 L 553.6339999999998,529.0560000000011 L 553.7579999999998,528.9310000000011 L 553.9769999999999,528.8280000000011 L 554.0909999999999,528.7050000000011 L 554.1019999999999,528.5640000000011 L 554.3629999999998,528.2210000000011 L 554.8739999999998,527.6760000000012 L 555.3549999999998,527.3730000000012 L 555.8069999999998,527.3110000000012 L 556.2359999999998,527.1980000000011 L 556.6409999999997,527.0330000000012 L 556.9379999999998,526.7740000000011 L 557.1279999999998,526.4220000000012 L 557.4549999999998,526.2250000000012 L 558.1139999999998,526.1670000000012 L 558.1499999999997,526.1640000000011 L 558.9519999999998,526.0240000000011 L 559.6229999999998,526.1380000000012 L 560.4319999999998,526.4600000000012 L 561.1889999999997,526.5740000000012 L 561.8949999999998,526.4800000000012 L 562.4689999999997,526.4590000000012 L 562.9099999999997,526.5110000000012 L 563.2579999999997,526.6230000000012 L 563.508,526.797 M 556.349,550.789 L 556.8100000000001,550.584 L 557.018,550.459 L 557.168,550.356 L 557.362,550.2 L 557.429,549.821 L 557.486,549.499 L 557.634,549.34 L 557.7860000000001,549.235 L 557.9110000000001,549.068 L 558.066,548.667 L 558.172,548.275 L 558.183,548.115 L 558.128,547.951 L 558.029,547.7760000000001 L 557.932,547.5400000000001 L 557.815,547.503 L 557.586,547.3710000000001 L 557.249,547.1050000000001 L 556.957,546.8740000000001 L 556.683,546.5390000000001 L 556.571,546.4840000000002 L 556.306,546.2570000000002 L 556.192,546.1270000000002 L 556.112,545.9710000000002 L 556.0369999999999,545.9200000000002 L 555.9179999999999,545.9600000000002 L 555.6049999999999,546.0290000000001 L 554.9339999999999,546.3010000000002 L 554.5179999999998,546.5510000000002 L 554.1679999999998,546.8490000000002 L 553.8049999999997,546.9630000000002 L 553.5389999999998,547.0620000000002 L 553.3279999999997,547.4030000000002 L 553.1309999999997,547.7210000000002 L 552.9539999999997,548.0080000000003 L 552.8519999999997,548.1370000000003 L 552.7599999999998,548.2200000000003 L 552.6669999999998,548.4040000000002 L 552.4759999999998,548.7100000000003 L 552.3009999999998,548.9150000000003 L 552.0569999999998,549.0270000000003 L 551.7419999999997,549.1720000000003 L 551.6349999999998,549.2560000000002 L 551.6199999999998,549.3800000000002 L 551.7319999999997,549.6680000000002 L 551.8399999999997,549.9460000000003 L 552.0169999999997,550.2720000000003 L 552.1469999999997,550.5110000000003 L 552.3519999999997,550.8030000000003 L 552.4719999999998,550.9740000000004 L 552.4559999999998,551.2610000000004 L 552.4969999999998,551.3640000000004 L 552.5649999999998,551.4830000000004 L 552.6219999999998,551.5130000000004 L 552.6859999999998,551.5560000000004 L 552.8559999999998,551.6390000000004 L 552.8969999999998,551.6940000000003 L 553.0159999999998,551.7920000000003 L 553.1299999999999,551.9710000000002 L 553.3459999999999,552.2170000000002 L 553.5889999999999,552.4040000000002 L 554.006,552.4810000000002 L 554.332,552.5410000000002 L 554.4399999999999,552.5040000000001 L 554.5509999999999,552.3530000000002 L 554.6419999999999,552.1610000000002 L 554.6709999999999,551.9170000000001 L 554.775,551.7870000000001 L 555.1659999999999,551.1680000000001 L 555.381,550.9390000000001 L 555.5129999999999,550.922 L 555.6819999999999,550.878 L 555.8979999999999,550.859 L 556.06,550.878 L 556.0949999999999,550.8710000000001 L 556.349,550.789 M 581.944,611.46 L 581.823,611.5360000000001 L 581.256,611.469 L 581.1949999999999,611.312 L 581.362,611.07 L 581.461,610.9680000000001 L 581.754,611.023 L 581.988,611.219 L 582.0300000000001,611.2850000000001 L 581.944,611.46" id="ZA" title="South Africa"/>
</svg>
