<svg xmlns="http://www.w3.org/2000/svg" xmlns:ev="http://www.w3.org/2001/xml-events" xmlns:xlink="http://www.w3.org/1999/xlink" baseProfile="full" height="28.23699951171875" version="1.1" viewBox="537.3829956054688 485.59100341796875 32.7869873046875 28.23699951171875" width="32.7869873046875" fill="#00394f">
	<defs/>
	<path class="land" d="M 568.089,489.016 L 568.099,489.091 L 568.176,489.233 L 568.257,489.335 L 568.264,489.485 L 568.302,489.625 L 568.42,489.659 L 568.517,489.668 L 568.607,489.568 L 568.729,489.57 L 568.863,489.634 L 568.911,489.795 L 569.016,490.011 L 569.185,490.159 L 569.299,490.302 L 569.26,490.562 L 569.188,490.799 L 569.418,491.034 L 569.717,491.257 L 569.798,491.356 L 569.822,491.688 L 569.868,491.8 L 570.071,492.076 L 570.17,492.259 L 570.163,492.365 L 569.618,492.912 L 569.445,492.965 L 569.281,492.996 L 569.135,493.108 L 569.047,493.225 L 569.079,493.287 L 569.137,493.474 L 569.264,493.77 L 569.379,493.977 L 569.283,494.236 L 569.067,494.676 L 568.967,494.715 L 568.949,495.048 L 569.015,495.17 L 569.123,495.266 L 569.167,495.492 L 569.17,495.804 L 569.158,496.055 L 569.022,496.694 L 569.268,497.253 L 569.352,497.314 L 569.693,497.318 L 569.751,497.365 L 569.67,497.524 L 569.522,497.688 L 569.431,497.771 L 568.997,497.962 L 568.374,498.173 L 568.244,498.375 L 568.161,498.67 L 568.231,498.843 L 568.313,498.942 L 568.287,499.199 L 568.232,499.471 L 568.251,499.685 L 568.223,499.874 L 568.141,499.967 L 568.032,500.252 L 567.898,500.539 L 567.792,500.67 L 567.636,500.807 L 567.389,500.921 L 567.393,500.979 L 567.673,501.111 L 567.745,501.203 L 567.771,501.266 L 567.711,501.326 L 567.654,501.411 L 567.783,501.499 L 567.941,501.573 L 568.09,501.764 L 568.223,502.031 L 568.261,502.125 L 568.292,502.162 L 568.34,502.166 L 568.433,502.126 L 568.604,501.98 L 568.729,501.928 L 568.88,502.136 L 568.277,502.342 L 567.961,502.45 L 567.06,502.758 L 566.273,503.027 L 566.068,503.078 L 565.66,503.209 L 565.457,503.29 L 564.746,503.525 L 564.449,503.642 L 564.21,503.759 L 563.623,503.933 L 563.068,504.097 L 562.462,504.267 L 561.784,504.456 L 561.403,504.593 L 561.146,504.711 L 560.545,504.951 L 560.517,505.009 L 560.525,505.172 L 560.602,505.508 L 560.752,505.813 L 560.878,505.989 L 560.96,506.441 L 561.006,506.838 L 560.598,506.839 L 559.88,506.841 L 559.135,506.842 L 558.455,506.994 L 557.896,507.225 L 557.229,507.586 L 557.012,507.728 L 556.844,507.837 L 556.738,507.978 L 556.686,508.286 L 556.686,508.762 L 556.618,509.104 L 556.416,509.419 L 556.416,509.418 L 555.403,509.799 L 554.741,510.11 L 554.091,510.479 L 553.598,510.958 L 553.262,511.547 L 552.704,512.277 L 552.136,512.91 L 551.533,513.584 L 550.857,513.828 L 550.289,513.773 L 549.604,513.5 L 549.06,513.448 L 548.657,513.618 L 548.285,513.565 L 547.943,513.291 L 547.657,513.191 L 547.425,513.265 L 547.129,513.252 L 546.588,513.102 L 546.12,512.635 L 545.867,512.443 L 545.672,512.369 L 545.112,512.294 L 543.827,512.187 L 543.693,512.211 L 543.159,512.303 L 542.492,512.418 L 541.918,512.533 L 541.317,512.653 L 540.758,512.167 L 540.125,511.616 L 539.468,511.001 L 538.975,510.52 L 538.731,510.243 L 538.298,509.877 L 537.986,509.698 L 537.865,509.608 L 537.555,508.636 L 537.386,507.744 L 537.386,507.073 L 537.385,506.144 L 537.385,505.216 L 537.385,504.29 L 537.384,503.365 L 537.384,502.441 L 537.384,501.52 L 537.383,500.599 L 537.383,499.679 L 537.383,499.232 L 538.03,499.232 L 538.764,499.232 L 539.531,499.232 L 540.365,499.232 L 541.199,499.232 L 542.033,499.232 L 542.615,499.232 L 542.768,499.225 L 542.952,499.197 L 542.965,499.106 L 542.725,498.655 L 542.737,498.495 L 542.801,498.189 L 542.9,497.925 L 543.031,497.578 L 543.045,497.374 L 542.94,496.709 L 542.95,496.339 L 542.98,495.954 L 543.01,495.59 L 542.974,495.336 L 543.018,495.198 L 543.097,495.0 L 543.138,494.776 L 543.187,494.68 L 543.171,494.591 L 543.127,494.425 L 543.083,494.053 L 543.022,493.536 L 542.961,493.164 L 543.063,493.185 L 543.275,493.22 L 543.378,493.402 L 543.438,493.602 L 543.581,493.613 L 543.953,493.731 L 544.082,493.896 L 544.167,494.253 L 544.116,494.436 L 543.996,494.583 L 544.116,494.713 L 544.365,494.8 L 544.511,494.774 L 544.931,494.531 L 545.099,494.488 L 545.318,494.44 L 545.516,494.378 L 546.075,494.267 L 546.38,494.218 L 546.552,494.131 L 546.672,494.131 L 546.758,494.201 L 546.681,494.453 L 546.655,494.679 L 546.762,495.102 L 546.842,495.299 L 547.022,495.443 L 547.153,495.518 L 547.298,495.671 L 547.599,495.645 L 548.261,495.861 L 548.462,495.961 L 548.741,496.061 L 548.939,496.098 L 549.622,496.174 L 549.874,496.225 L 550.342,496.293 L 550.716,496.305 L 550.981,496.274 L 551.167,496.212 L 551.281,496.144 L 551.333,496.085 L 551.41,495.874 L 551.549,495.416 L 551.604,495.279 L 551.742,495.216 L 551.921,495.175 L 552.026,495.248 L 552.143,495.756 L 552.664,496.215 L 552.842,496.601 L 552.972,496.931 L 553.085,497.021 L 553.283,497.134 L 553.599,497.174 L 553.881,497.186 L 554.475,497.424 L 554.947,497.613 L 555.285,497.749 L 555.44,497.852 L 555.548,498.021 L 555.612,498.152 L 555.716,498.492 L 555.827,498.761 L 556.008,498.812 L 556.17,498.833 L 556.33,499.017 L 556.451,499.178 L 556.691,499.572 L 556.868,499.844 L 556.926,500.109 L 557.127,500.286 L 557.401,500.361 L 557.654,500.371 L 557.8,500.292 L 558.159,500.154 L 558.439,499.997 L 558.643,499.942 L 558.764,499.976 L 558.856,500.085 L 558.905,500.298 L 558.917,500.417 L 559.116,500.53 L 559.263,500.485 L 559.32,500.354 L 559.323,500.289 L 559.322,499.709 L 559.322,499.207 L 559.321,498.735 L 559.321,498.16 L 559.32,497.659 L 559.32,497.247 L 559.319,496.817 L 559.191,496.841 L 559.03,496.939 L 558.659,496.951 L 558.514,497.024 L 558.469,497.135 L 558.497,497.279 L 558.505,497.475 L 558.45,497.567 L 558.288,497.604 L 558.052,497.528 L 557.625,497.43 L 557.269,497.369 L 557.013,497.109 L 556.667,496.717 L 556.44,496.52 L 555.894,496.111 L 555.801,496.029 L 555.635,495.838 L 555.493,495.514 L 555.423,495.299 L 555.357,495.139 L 555.284,494.901 L 555.416,494.535 L 555.601,493.839 L 555.735,493.338 L 555.809,492.967 L 556.074,492.589 L 556.093,492.251 L 555.986,491.818 L 556.013,491.579 L 556.031,490.972 L 556.046,490.462 L 556.05,490.214 L 555.977,489.783 L 555.798,489.306 L 555.404,488.642 L 555.406,488.5 L 555.64,488.343 L 556.011,488.069 L 556.193,487.906 L 556.411,487.675 L 556.508,487.557 L 556.722,487.261 L 556.857,487.02 L 556.904,486.709 L 556.802,486.413 L 557.01,486.355 L 557.693,486.251 L 558.445,486.136 L 559.238,486.014 L 560.038,485.892 L 560.813,485.773 L 561.516,485.666 L 562.002,485.591 L 562.074,485.794 L 562.226,486.132 L 562.397,486.38 L 562.612,486.598 L 562.794,486.73 L 562.915,486.77 L 563.685,486.756 L 563.961,486.888 L 564.202,487.056 L 564.262,487.316 L 564.42,487.479 L 564.591,487.607 L 564.665,487.623 L 564.791,487.592 L 564.997,487.589 L 565.188,487.645 L 565.279,487.702 L 565.288,487.92 L 565.346,488.017 L 565.606,488.055 L 565.871,488.072 L 566.127,488.22 L 566.403,488.246 L 566.723,488.307 L 566.875,488.466 L 567.214,488.629 L 567.63,488.775 L 567.93,488.94 L 568.089,489.016" id="ZM" title="Zambia"/>
</svg>
