<svg xmlns="http://www.w3.org/2000/svg" xmlns:ev="http://www.w3.org/2001/xml-events" xmlns:xlink="http://www.w3.org/1999/xlink" baseProfile="full" height="19.958984375" version="1.1" viewBox="546.489990234375 506.8380126953125 21.843017578125 19.958984375" width="21.843017578125">
	<defs/>
	<path class="land" d="M 563.508,526.797 L 563.254,526.625 L 562.907,526.513 L 562.465,526.461 L 561.892,526.482 L 561.186,526.577 L 560.429,526.462 L 559.62,526.14 L 558.949,526.026 L 558.147,526.166 L 558.111,526.169 L 557.973,526.06 L 557.753,525.825 L 557.388,525.783 L 557.289,525.729 L 557.207,525.641 L 557.153,525.529 L 557.132,525.404 L 557.192,525.018 L 557.159,524.975 L 557.062,524.928 L 556.861,524.882 L 556.38,524.707 L 555.774,524.537 L 554.791,524.351 L 554.409,524.303 L 554.32,524.246 L 554.21,524.104 L 554.021,523.661 L 553.844,523.369 L 553.421,522.918 L 553.354,522.779 L 553.375,522.421 L 553.406,522.133 L 553.451,521.889 L 553.431,521.66 L 553.425,521.376 L 553.438,521.186 L 553.381,521.104 L 553.228,521.046 L 552.791,521.02 L 552.263,521.031 L 552.246,520.743 L 552.195,520.297 L 552.097,520.041 L 551.975,519.908 L 551.732,519.769 L 551.241,519.579 L 550.572,519.29 L 550.0,518.862 L 549.345,518.331 L 549.14,518.239 L 548.898,517.741 L 548.53,516.889 L 548.554,516.606 L 548.498,516.467 L 548.14,516.05 L 548.061,515.833 L 547.998,515.614 L 547.429,515.004 L 547.235,514.738 L 547.087,514.396 L 546.94,514.123 L 546.816,514.013 L 546.654,513.828 L 546.542,513.616 L 546.49,513.458 L 546.533,513.247 L 546.588,513.102 L 547.129,513.252 L 547.425,513.265 L 547.657,513.191 L 547.943,513.291 L 548.285,513.565 L 548.657,513.618 L 549.06,513.448 L 549.604,513.5 L 550.289,513.773 L 550.857,513.828 L 551.533,513.584 L 552.136,512.91 L 552.704,512.277 L 553.262,511.547 L 553.598,510.958 L 554.091,510.479 L 554.741,510.11 L 555.403,509.799 L 556.416,509.418 L 556.416,509.419 L 556.618,509.104 L 556.686,508.762 L 556.686,508.286 L 556.738,507.978 L 556.844,507.837 L 557.012,507.728 L 557.229,507.586 L 557.896,507.225 L 558.455,506.994 L 559.135,506.842 L 559.88,506.841 L 560.598,506.839 L 561.006,506.838 L 561.012,507.295 L 561.043,507.81 L 561.123,507.859 L 561.663,507.87 L 562.529,507.907 L 563.364,507.941 L 563.897,508.315 L 564.076,508.395 L 564.63,508.495 L 565.338,509.118 L 566.19,509.176 L 566.776,509.371 L 567.292,509.585 L 567.589,509.842 L 567.781,509.9 L 568.041,509.919 L 568.167,509.943 L 568.14,510.128 L 567.966,510.442 L 567.989,510.892 L 568.228,511.516 L 568.26,512.06 L 568.187,513.019 L 568.189,513.95 L 568.214,514.283 L 568.253,514.503 L 568.304,514.624 L 568.294,514.762 L 568.152,515.154 L 568.038,515.566 L 568.034,515.731 L 567.99,515.848 L 567.905,515.951 L 567.533,516.142 L 567.47,516.26 L 567.471,516.474 L 567.518,516.654 L 567.658,516.72 L 567.826,516.822 L 567.892,516.956 L 567.893,517.098 L 567.839,517.361 L 567.689,517.796 L 567.839,518.298 L 568.006,518.624 L 568.237,519.0 L 568.333,519.233 L 568.328,519.4 L 568.293,519.563 L 567.948,520.253 L 567.699,520.683 L 567.395,521.143 L 566.993,521.432 L 566.889,521.571 L 566.848,521.729 L 566.862,522.075 L 566.844,522.438 L 566.5,522.995 L 566.713,523.475 L 566.665,523.52 L 566.549,523.588 L 566.054,524.129 L 565.553,524.678 L 565.187,525.079 L 564.771,525.535 L 564.305,526.047 L 563.906,526.486 L 563.508,526.797" id="ZW" title="Zimbabwe"/>
</svg>
